<?xml version="1.0" encoding="UTF-8"?>
<svg id="_图层_1" data-name="图层 1" xmlns="http://www.w3.org/2000/svg" viewBox="0 0 960 960">
  <defs>
    <style>
      .cls-1 {
        fill: #f3d5aa;
      }

      .cls-1, .cls-2 {
        stroke-width: 0px;
      }

      .cls-2 {
        fill: #040403;
      }
    </style>
  </defs>
  <path class="cls-1" d="m645.78,595.91c-1.91-6.25-.98-12.66-.84-18.98.13-5.54.91-11.08,2.63-16.42.17-.53.21-1.09.3-1.64,1.01.68,2.1,1.01,3.35,1.08,12.33.69,24.58-.03,36.83-1.58,24.97-3.17,49.9-6.64,74.85-10,4.91-.66,9.79-1.58,14.55-2.98,2.64-.78,4.56-2.41,4.93-5.28.37-2.88-1.05-4.92-3.52-6.25-2.11-1.14-3.65-2.82-4.91-4.81-1.5-2.37-2.7-4.89-3.7-7.51-1.44-3.77-.84-7.2,1.61-10.37,1.93-2.51,4.33-4.49,7.03-6.08,6.72-3.93,13.95-6.32,21.74-6.89,2.48-.18,4.95-.01,7.36.72,3.36,1.02,5.21,3.26,5.49,6.77.19,2.35-.32,4.61-1,6.84-.93,3.07-2.36,5.94-3.78,8.8-.89,1.79-1.88,3.54-2.46,5.46-.83,2.71-.55,5.25,1.57,7.32,2.04,1.98,4.49,2.26,7.13,1.47,1.39-.41,2.66-1.1,3.94-1.75,3.91-2.01,7.79-4.07,11.87-5.73,3.11-1.27,6.27-2.42,9.58-3.03,5.69-1.03,8.93.64,11.46,5.86,1.85,3.82,1.98,7.86,1.46,11.96-1.02,8.06-5.11,14.54-10.64,20.21-6.25,6.42-13.87,8.85-22.72,7.44-3.34-.53-6.49-1.66-9.65-2.81-1.5-.55-2.98-1.19-4.56-1.45-4.35-.7-7.75,2.71-6.99,7.05.15.86.41,1.71.75,2.52,1.5,3.57.74,6.71-1.7,9.57-3.4,3.97-7.53,6.88-12.49,8.59-1.75.6-3.55.95-5.41.93-4.48-.04-7.88-2.21-9.43-6.11-1.73-4.34-1.72-8.44,1.9-11.94.98-.94,2.04-1.8,2.96-2.8,1.75-1.9,2.44-4.12,1.56-6.64-.91-2.6-2.87-3.95-5.54-4.33-1.85-.27-3.68-.05-5.47.37-7,1.66-13.96,3.44-20.97,5.05-25.93,5.96-51.82,12.06-77.47,19.16-5.94,1.65-11.77,3.55-17.48,5.86-1.48.6-2.91,1.28-4.13,2.35Z"/>
  <path class="cls-2" d="m645.78,595.91c1.21-1.07,2.64-1.76,4.13-2.35,5.71-2.3,11.54-4.21,17.48-5.86,25.65-7.1,51.54-13.2,77.47-19.16,7.01-1.61,13.97-3.39,20.97-5.05,1.79-.42,3.62-.64,5.47-.37,2.67.39,4.62,1.74,5.54,4.33.88,2.52.19,4.74-1.56,6.64-.92,1-1.98,1.85-2.96,2.8-3.62,3.5-3.63,7.59-1.9,11.94,1.56,3.9,4.95,6.07,9.43,6.11,1.86.02,3.66-.33,5.41-.93,4.96-1.71,9.09-4.62,12.49-8.59,2.44-2.86,3.2-6,1.7-9.57-.34-.8-.6-1.66-.75-2.52-.76-4.34,2.64-7.75,6.99-7.05,1.59.26,3.06.9,4.56,1.45,3.15,1.15,6.31,2.28,9.65,2.81,8.85,1.41,16.47-1.02,22.72-7.44,5.52-5.67,9.62-12.15,10.64-20.21.52-4.1.39-8.14-1.46-11.96-2.53-5.22-5.77-6.89-11.46-5.86-3.32.6-6.47,1.76-9.58,3.03-4.08,1.66-7.96,3.73-11.87,5.73-1.28.66-2.55,1.34-3.94,1.75-2.64.79-5.1.5-7.13-1.47-2.12-2.06-2.41-4.6-1.57-7.32.59-1.92,1.58-3.67,2.46-5.46,1.42-2.87,2.84-5.73,3.78-8.8.68-2.23,1.19-4.48,1-6.84-.28-3.51-2.13-5.75-5.49-6.77-2.41-.73-4.88-.9-7.36-.72-7.79.58-15.02,2.96-21.74,6.89-2.7,1.58-5.1,3.57-7.03,6.08-2.45,3.17-3.04,6.6-1.61,10.37,1,2.62,2.2,5.14,3.7,7.51,1.26,1.99,2.8,3.67,4.91,4.81,2.47,1.33,3.89,3.36,3.52,6.25-.37,2.87-2.29,4.5-4.93,5.28-4.76,1.4-9.64,2.32-14.55,2.98-24.95,3.36-49.88,6.83-74.85,10-12.25,1.55-24.5,2.27-36.83,1.58-1.25-.07-2.34-.4-3.35-1.08-1.16-2.49-.77-4.04,1.42-5.53,1.9-1.29,4.11-1.72,6.32-2.09,4.03-.68,8.11-.79,12.17-1.19,8.67-.87,17.25-2.43,25.86-3.7,11.78-1.73,23.57-3.4,35.34-5.21,11.06-1.69,22.1-3.52,33.14-5.31,1.09-.18,2.16-.45,3.17-.66.25-.88-.27-1.35-.55-1.89-1.55-2.98-2.93-6.03-3.9-9.26-1.87-6.2-.98-12.01,2.4-17.47,2.53-4.09,5.92-7.36,9.93-9.92,8.85-5.66,18.53-8.92,29.05-9.53,3.7-.22,7.35.17,10.89,1.3,8.01,2.55,12.86,8.73,13.47,17.13.2,2.73-.06,5.43-.64,8.1-.11.52-.41,1.05-.06,1.65.65.25,1.18-.19,1.74-.4,3.74-1.42,7.54-2.65,11.51-3.25,10.15-1.54,18.26,2.3,23.53,11.12,3.86,6.45,4.91,13.47,4.06,20.8-1.61,13.8-8.52,24.69-19.3,33.03-9.07,7.01-19.54,8.18-30.54,5.65-1.31-.3-2.61-.65-3.85-.95-.59.66-.41,1.33-.48,1.94-.48,3.82-1.85,7.3-4.21,10.31-6.06,7.72-13.9,12.75-23.59,14.42-14.25,2.45-26.32-7.26-27.31-21.7-.19-2.7,0-5.39.71-8.15-.96-.11-1.63.13-2.31.29-27.76,6.57-55.38,13.67-83.06,20.59-7.18,1.79-14.45,2.64-21.8,3.04-.48.03-.96.02-1.44.01-4.12-.06-5.66-3.37-3.79-6.11Z"/>
</svg>