<?xml version="1.0" encoding="UTF-8"?>
<svg id="_图层_1" data-name="图层 1" xmlns="http://www.w3.org/2000/svg" viewBox="0 0 960 960">
  <defs>
    <style>
      .cls-1 {
        fill: #f0d3a8;
      }

      .cls-1, .cls-2, .cls-3 {
        stroke-width: 0px;
      }

      .cls-2 {
        fill: #060605;
      }

      .cls-3 {
        fill: #f2d4a9;
      }
    </style>
  </defs>
  <path class="cls-2" d="m655.03,517.97c.84-3.41,1.63-6.82,2.81-10.14.51-1.43.89-2.94.85-4.45-.04-1.59.63-2.66,1.73-3.73,8.15-7.91,16.77-15.29,25.22-22.87,7.79-6.99,15.63-13.93,23.42-20.93,1.9-1.71,3.67-3.56,5.52-5.33.9-.86,1.05-1.71.65-2.98-5.81-18.23,3.37-42.83,29.69-44.92,1.62-.13,2.43-.5,3.06-2.17,2.58-6.88,7.75-11.49,14.16-14.63,7.67-3.75,15.83-4.59,24.06-2.31,10.28,2.85,15.77,10.35,18.33,20.28.97,3.75.98,7.6.1,11.41-.23.99-.22,1.7.7,2.49,10.18,8.8,13.25,22.64,7.73,35.12-3.19,7.21-7.83,13.42-14.09,18.22-9.51,7.3-19.76,8.53-30.49,2.77-1.88-1.01-3.63-1.28-5.71-.95-4.31.69-8.37,2.01-12.26,3.97-7.98,4.02-15.09,9.29-21.95,14.94-15.17,12.48-28.8,26.52-41.59,41.38-9.23,10.72-18.35,21.54-26.94,32.79-.18.24-.41.45-.73.8-1.59-2.92-2.84-5.82-3.33-9.01,7.75-9.26,16.07-18.01,23.95-27.15,11.28-13.08,22.8-25.94,34.99-38.2,5.71-5.74,11.69-11.16,18.37-15.75,7.22-4.96,14.78-9.25,23.56-10.84.12-.02.21-.19.31-.3.1-.46-.19-.76-.44-1.05-2.42-2.83-3.05-6.29-3.18-9.82-.05-1.33-.42-1.71-1.62-1.65-.64.03-1.28-.04-1.91-.11-5.1-.55-9.56-2.5-13.2-6.16-1.55-1.56-2.71-3.37-3.18-5.54-.32-1.48-.54-2.99-.82-4.48-.19-1.02-.03-1.94.82-2.59.95-.73,1.97-.59,2.91.03,2.26,1.49,4.78,2.57,6.84,4.4,1.9,1.69,4.22,2.63,6.76,2.8,7.8.54,14-2.61,18.89-8.51,2.61-3.15,2.65-6.55.46-9.99-.73-1.15-1.54-2.24-2.48-3.22-9.26-9.68-24.78-10.95-35.45-2.87-3.96,3-6.76,6.83-7.78,11.74-1.19,5.72-1.45,11.37,1.35,16.85,1.81,3.54,1.12,6.61-1.61,9.44-.44.46-.91.9-1.39,1.32-6.72,5.81-13.08,11.99-19.52,18.1-15.09,14.3-30.72,28.02-45.62,42.52-.55.54-1.01,1.26-1.92,1.29Zm145.88-92.59c-.83.53-1.04,1.26-1.41,1.86-1.56,2.52-3.24,4.95-5.23,7.15-3.55,3.93-7.77,6.84-12.84,8.51-2.22.73-4.79.22-6.73,1.34-2.03,1.17-3.55,3.29-5.72,4.3-2.63,1.22-3.78,3.22-4.2,5.89-.12.79-.36,1.56-.51,2.34-.11.56-.11,1.14.28,1.6,1.18,1.4,2.2,2.96,3.88,3.87,5.82,3.15,11.82,4.18,18.24,1.9,6.37-2.26,11.04-6.57,15.03-11.82,6.16-8.1,5.68-17.97-.8-26.94Zm-19.46,5.96c2.24-1.19,3.74-2.58,5.05-4.17,3.06-3.73,5.5-7.85,7.16-12.38,1.67-4.57,1.3-9.12-.65-13.52-2.59-5.86-6.91-9.42-13.47-10.04-5.03-.48-9.89.07-14.51,2.15-3.87,1.75-7.07,4.31-9.35,7.95-.95,1.52-1.02,1.9.9,2.39,6.07,1.58,11.36,4.66,15.95,8.88,5.34,4.91,9.25,10.58,8.93,18.74Z"/>
  <path class="cls-3" d="m655.03,517.97c.91-.02,1.37-.75,1.92-1.29,14.91-14.5,30.53-28.22,45.62-42.52,6.44-6.1,12.81-12.29,19.52-18.1.48-.42.95-.86,1.39-1.32,2.73-2.83,3.41-5.9,1.61-9.44-2.8-5.48-2.54-11.13-1.35-16.85,1.02-4.91,3.82-8.74,7.78-11.74,10.67-8.08,26.2-6.81,35.45,2.87.94.99,1.75,2.07,2.48,3.22,2.19,3.44,2.16,6.84-.46,9.99-4.89,5.89-11.08,9.05-18.89,8.51-2.54-.18-4.86-1.11-6.76-2.8-2.06-1.84-4.58-2.91-6.84-4.4-.94-.62-1.96-.76-2.91-.03-.85.65-1.01,1.57-.82,2.59.28,1.49.5,2.99.82,4.48.47,2.17,1.63,3.99,3.18,5.54,3.64,3.66,8.1,5.62,13.2,6.16.64.07,1.28.14,1.91.11,1.2-.06,1.57.32,1.62,1.65.13,3.53.75,6.99,3.18,9.82.25.29.54.6.44,1.05-.1.1-.2.28-.31.3-8.78,1.59-16.35,5.88-23.56,10.84-6.68,4.59-12.66,10.01-18.37,15.75-12.19,12.26-23.71,25.11-34.99,38.2-7.88,9.14-16.2,17.89-23.95,27.15-.77-2.66-1.11-5.44-2.3-7.98-.31-.67-.22-1.41-.22-2.12,0-5.65-.18-11.3.06-16.94.18-4.25.62-8.52,1.51-12.71Z"/>
  <path class="cls-1" d="m800.91,425.38c6.48,8.97,6.95,18.84.8,26.94-3.99,5.25-8.67,9.56-15.03,11.82-6.42,2.28-12.42,1.25-18.24-1.9-1.68-.91-2.69-2.47-3.88-3.87-.39-.46-.39-1.04-.28-1.6.15-.78.38-1.55.51-2.34.42-2.67,1.57-4.67,4.2-5.89,2.17-1.01,3.69-3.13,5.72-4.3,1.94-1.12,4.51-.61,6.73-1.34,5.07-1.67,9.29-4.58,12.84-8.51,1.99-2.2,3.68-4.63,5.23-7.15.37-.6.58-1.32,1.41-1.86Z"/>
  <path class="cls-1" d="m781.45,431.34c.33-8.16-3.59-13.84-8.93-18.74-4.59-4.22-9.88-7.31-15.95-8.88-1.92-.5-1.85-.87-.9-2.39,2.28-3.63,5.48-6.2,9.35-7.95,4.62-2.09,9.48-2.63,14.51-2.15,6.56.62,10.88,4.19,13.47,10.04,1.95,4.4,2.33,8.95.65,13.52-1.66,4.53-4.1,8.65-7.16,12.38-1.31,1.6-2.82,2.99-5.05,4.17Z"/>
</svg>