<?xml version="1.0" encoding="UTF-8"?>
<svg id="_图层_1" data-name="图层 1" xmlns="http://www.w3.org/2000/svg" viewBox="0 0 960 960">
  <defs>
    <style>
      .cls-1 {
        fill: #f3d5a9;
      }

      .cls-1, .cls-2 {
        stroke-width: 0px;
      }

      .cls-2 {
        fill: #050504;
      }
    </style>
  </defs>
  <path class="cls-1" d="m649.78,576.99c-1.61-3.44-2.16-7.17-2.51-10.87-.96-10.26-.49-20.55-.52-30.84,0-.15.07-.31.11-.47.79.28,1.4-.18,1.98-.57,1.74-1.14,3.51-2.24,5.16-3.48,10.95-8.22,21.25-17.2,30.86-26.95,8.46-8.58,15.86-17.98,21.84-28.46,5.83-10.21,11-20.76,15.78-31.5.58-1.31,1.27-2.59,1.59-4,.67-2.88-.54-5.48-3.17-6.81-.86-.44-1.79-.67-2.73-.88-3.44-.78-6.75-1.97-9.94-3.46-2.27-1.06-4.34-2.41-5.98-4.33-3.63-4.23-4.75-8.96-2.66-14.27.98-2.48,2.36-4.71,4.14-6.7,4.69-5.22,8.51-6.1,14.99-3.44,1.18.48,2.37.96,3.56,1.43.52.2,1.05.4,1.6.51,1.95.41,3.68-.04,4.96-1.62,1.29-1.58,1.4-3.36.6-5.19-.32-.72-.78-1.39-1.23-2.05-1.61-2.33-2.69-4.89-3.36-7.63-1.96-7.97.61-14.65,7.53-19.04,5.42-3.44,11.37-5.48,17.79-5.92,4.27-.29,8.48.23,12.41,2.07,4.44,2.08,6.43,5.95,5.7,10.77-.2,1.35-.54,2.66-.99,3.95-1.38,4-3.61,7.47-6.61,10.44-1.48,1.46-3.05,2.84-4.41,4.4-2.07,2.39-2.21,5.47-.57,7.74,1.62,2.23,4.38,3.02,7.31,2.01,1.58-.55,3.12-1.25,4.69-1.82,2.5-.92,5.08-1.41,7.75-1.35,3.74.09,6.37,1.86,7.82,5.31.75,1.78,1.18,3.64,1.2,5.59.06,4.86-2.01,8.81-5.25,12.23-5.28,5.57-11.7,9.08-19.26,10.45-3.62.65-7.29,1.07-10.86,1.89-6.17,1.42-7.79,1.39-9.78,9.39-1.33,5.36-2.63,10.72-4.72,15.84-3.69,9.03-7.41,18.04-11.61,26.84-1.55,3.25-3.21,6.44-5,9.56-12.5,21.78-28.19,41.09-45.74,58.95-5.21,5.3-10.51,10.52-15.77,15.77-2.21,2.2-4.31,4.5-6.72,6.49Z"/>
  <path class="cls-2" d="m649.78,576.99c2.41-1.98,4.51-4.29,6.72-6.49,5.27-5.25,10.56-10.46,15.77-15.77,17.54-17.86,33.24-37.17,45.74-58.95,1.79-3.12,3.45-6.31,5-9.56,4.2-8.81,7.92-17.82,11.61-26.84,2.09-5.12,3.39-10.48,4.72-15.84,1.99-7.99,3.61-7.97,9.78-9.39,3.58-.82,7.24-1.24,10.86-1.89,7.56-1.37,13.99-4.88,19.26-10.45,3.24-3.42,5.31-7.38,5.25-12.23-.02-1.95-.45-3.81-1.2-5.59-1.46-3.45-4.08-5.22-7.82-5.31-2.67-.06-5.25.43-7.75,1.35-1.58.58-3.11,1.28-4.69,1.82-2.93,1.01-5.69.22-7.31-2.01-1.65-2.27-1.5-5.35.57-7.74,1.35-1.57,2.93-2.94,4.41-4.4,3-2.97,5.23-6.44,6.61-10.44.45-1.29.78-2.6.99-3.95.73-4.83-1.27-8.7-5.7-10.77-3.93-1.84-8.14-2.36-12.41-2.07-6.42.44-12.37,2.48-17.79,5.92-6.91,4.39-9.48,11.07-7.53,19.04.67,2.75,1.76,5.3,3.36,7.63.45.66.92,1.32,1.23,2.05.8,1.82.69,3.61-.6,5.19-1.29,1.58-3.01,2.02-4.96,1.62-.54-.11-1.08-.31-1.6-.51-1.19-.46-2.38-.94-3.56-1.43-6.48-2.65-10.3-1.77-14.99,3.44-1.78,1.98-3.16,4.22-4.14,6.7-2.09,5.31-.98,10.03,2.66,14.27,1.64,1.91,3.71,3.27,5.98,4.33,3.2,1.49,6.5,2.68,9.94,3.46.94.21,1.87.45,2.73.88,2.63,1.33,3.84,3.94,3.17,6.81-.33,1.42-1.01,2.69-1.59,4-4.78,10.74-9.95,21.29-15.78,31.5-5.98,10.48-13.39,19.88-21.84,28.46-9.61,9.75-19.91,18.73-30.86,26.95-1.66,1.25-3.43,2.35-5.16,3.48-.59.39-1.19.85-1.98.57.26-3.43.61-6.85.74-10.28.08-2.07.79-3.56,2.41-4.91,8.26-6.84,15.96-14.28,23.37-22.03,10.11-10.57,18.83-22.16,25.99-34.91,3.45-6.13,6.81-12.31,10.2-18.47.31-.56.68-1.09.74-1.76-.42-.7-1.22-.7-1.87-.93-2.71-.97-5.42-1.97-7.88-3.48-8.47-5.16-13.69-12.61-13.35-22.61.41-12.18,6.79-21.04,17.67-26.51,2.83-1.43,5.95-1.75,9.13-1.45,1.43.13,1.54.04,1.29-1.41-.52-3.02-.72-6.04-.25-9.07,1.07-7.02,4.24-12.98,9.88-17.26,11.62-8.83,24.57-11.89,38.88-8.1,1.94.51,3.78,1.27,5.55,2.22,8.36,4.45,12.56,12.91,11.03,22.26-.48,2.94-1.37,5.74-2.6,8.45-.32.71-.84,1.36-.86,2.22.5.69,1.31.48,1.97.59,6.8,1.15,11.69,4.87,14.83,10.96,5.6,10.87,3.69,23.81-4.92,32.59-7.52,7.66-16.66,12-27.38,12.86-3.34.27-6.71.32-10.06.36-1.12.01-1.53.36-1.64,1.47-.98,9.67-4.4,18.6-8.3,27.41-7.49,16.91-15.79,33.36-26.37,48.59-11.25,16.19-23.56,31.47-37.59,45.34-6.82,6.74-13.67,13.46-20.53,20.17-1.07,1.05-2.22,2.02-3.67,3.33-1.16-4.74-2.71-8.99-3.48-13.45Z"/>
</svg>