<?xml version="1.0" encoding="UTF-8"?>
<svg id="_图层_1" data-name="图层 1" xmlns="http://www.w3.org/2000/svg" viewBox="0 0 960 960">
  <defs>
    <style>
      .cls-1 {
        fill: #f3d6aa;
      }

      .cls-1, .cls-2 {
        stroke-width: 0px;
      }

      .cls-2 {
        fill: #050404;
      }
    </style>
  </defs>
  <path class="cls-1" d="m633.74,572.73c.71-.42,1.44-.65,1.9-1.57,2.49-4.94,6.34-8.63,11.04-11.48,2.3-1.39,4.61-2.78,7.35-3.15.37.61.44,1.34.83,1.97,1.6,2.53,3.52,4.72,5.95,6.5,4.32,3.16,8.69,6.28,12.68,9.86,13,11.72,24.19,25.06,34.53,39.12,4.06,5.52,6.65,11.82,8.32,18.48.25,1.01.53,2.02.93,2.97.87,2.05,2.38,3.4,4.66,3.66,2.37.26,4.21-.74,5.53-2.66.54-.78.96-1.66,1.34-2.54.86-1.98,1.65-3.99,2.49-5.97,2.53-5.91,5.68-11.46,9.89-16.35,4.62-5.37,10.34-9.04,17.3-10.55,7.47-1.62,13.84.31,18.5,6.56,7.79,10.43,10.94,22.15,8.74,35.03-1.6,9.4-7.05,15.72-16.31,18.55-.76.23-1.53.47-2.26.79-2.07.9-3.35,2.45-3.55,4.73-.21,2.28.8,4.03,2.64,5.31,1.12.79,2.41,1.24,3.69,1.7,2.64.94,5.19,2.06,7.55,3.6,4.04,2.63,6.46,6.31,7.4,11.02.6,3.01.69,6.05.43,9.08-.9,10.42-5.16,19.01-13.84,25.19-5.97,4.25-12.55,6.95-19.77,8.15-3.25.54-6.5.76-9.77.05-3.1-.67-5.08-2.51-6.07-5.5-.97-2.94-1.14-5.96-.99-9.01.18-3.93.9-7.78,1.78-11.6.25-1.09.49-2.19.48-3.31-.06-4.77-4.62-7.64-8.97-5.67-1.26.57-2.28,1.47-3.29,2.39-2.72,2.48-5.59,4.78-8.6,6.9-2.42,1.7-4.94,3.26-7.76,4.24-5.56,1.94-8.06.65-9.52-5.05-1.29-5.02-1.01-10.03.86-14.85,2.35-6.07,5.12-11.87,10.38-16.13,2.31-1.87,2.55-4.93.69-7.08-1.66-1.92-2.69-4.14-3.79-6.35-9.19-18.43-19.76-36-32.3-52.35-5.5-7.17-11.29-14.1-17.71-20.49-4.5-4.48-9.46-8.36-15.04-11.42-2.61-1.43-5.32-2.58-8.34-2.78Z"/>
  <path class="cls-2" d="m633.74,572.73c3.02.19,5.73,1.35,8.34,2.78,5.58,3.06,10.54,6.94,15.04,11.42,6.41,6.39,12.21,13.32,17.71,20.49,12.55,16.35,23.12,33.93,32.3,52.35,1.1,2.21,2.13,4.43,3.79,6.35,1.86,2.15,1.62,5.21-.69,7.08-5.26,4.26-8.03,10.06-10.38,16.13-1.87,4.82-2.14,9.83-.86,14.85,1.46,5.7,3.96,6.99,9.52,5.05,2.82-.98,5.33-2.54,7.76-4.24,3.01-2.12,5.88-4.42,8.6-6.9,1-.92,2.03-1.81,3.29-2.39,4.35-1.97,8.9.9,8.97,5.67.01,1.12-.22,2.22-.48,3.31-.88,3.82-1.6,7.67-1.78,11.6-.14,3.05.02,6.07.99,9.01.99,2.99,2.97,4.83,6.07,5.5,3.27.71,6.51.49,9.77-.05,7.22-1.2,13.81-3.9,19.77-8.15,8.67-6.17,12.94-14.77,13.84-25.19.26-3.03.16-6.07-.43-9.08-.93-4.72-3.35-8.39-7.4-11.02-2.36-1.54-4.92-2.66-7.55-3.6-1.28-.46-2.57-.91-3.69-1.7-1.84-1.28-2.84-3.03-2.64-5.31.21-2.28,1.49-3.83,3.55-4.73.73-.32,1.5-.56,2.26-.79,9.25-2.83,14.7-9.15,16.31-18.55,2.2-12.89-.95-24.6-8.74-35.03-4.66-6.24-11.03-8.18-18.5-6.56-6.96,1.51-12.68,5.18-17.3,10.55-4.21,4.89-7.35,10.44-9.89,16.35-.85,1.98-1.63,3.99-2.49,5.97-.38.88-.8,1.75-1.34,2.54-1.32,1.93-3.16,2.93-5.53,2.66-2.28-.25-3.79-1.6-4.66-3.66-.4-.95-.68-1.96-.93-2.97-1.67-6.66-4.26-12.96-8.32-18.48-10.34-14.06-21.53-27.41-34.53-39.12-3.98-3.59-8.35-6.7-12.68-9.86-2.43-1.78-4.35-3.97-5.95-6.5-.4-.63-.46-1.35-.83-1.97,1.01-3.26,2.28-3.92,5.51-2.94,1.86.56,3.56,1.4,5.13,2.52,10.37,7.41,20.1,15.54,28.53,25.16,6.22,7.09,12.7,13.95,18.57,21.34,3.74,4.71,7.09,9.66,9.84,15.01.21.41.33.89.94,1.2.7-.51.9-1.4,1.27-2.14,3.11-6.28,6.85-12.12,11.93-16.98,7.39-7.08,16.15-11.1,26.49-11.18,9.24-.07,16.72,3.65,22.48,10.84,4.76,5.94,8.1,12.64,10.17,19.94,2.49,8.76,2.83,17.63,1.14,26.58-1.43,7.6-5.14,13.86-10.96,18.91-.59.51-1.35.87-1.63,1.45-.17.52.12.6.3.7,8.22,4.61,12.75,11.77,13.85,20.97,1.76,14.65-1.71,27.84-12.13,38.66-7.22,7.5-16.24,12.06-26.24,14.69-5.59,1.47-11.25,2.36-17.08,1.51-9.95-1.44-16.34-7.52-18.19-17.38-.63-3.38-.75-6.8-.77-10.16-.77-.4-1.15.16-1.58.43-2.29,1.47-4.61,2.87-7.11,3.97-2.43,1.07-4.94,1.84-7.58,2.14-6.78.79-12.08-1.61-15.71-7.42-3.38-5.42-4.45-11.45-3.96-17.72.87-11.3,5.85-20.79,13.36-29.04.92-1.01,1.13-1.7.53-2.87-.81-1.56-1.39-3.23-2.21-4.78-11.97-22.49-25.61-43.88-42.28-63.23-3.45-4-7-7.89-11.04-11.32-3.55-3.01-7.29-5.72-11.57-7.61-.22-.1-.44-.19-.65-.3-1.05-.55-1.89-1.31-1.81-2.58.09-1.29.97-1.95,2.19-2.19Z"/>
</svg>