<?xml version="1.0" encoding="UTF-8"?>
<svg id="_图层_1" data-name="图层 1" xmlns="http://www.w3.org/2000/svg" viewBox="0 0 960 960">
  <defs>
    <style>
      .cls-1 {
        fill: #3b88d3;
      }

      .cls-1, .cls-2, .cls-3, .cls-4, .cls-5, .cls-6, .cls-7, .cls-8 {
        stroke-width: 0px;
      }

      .cls-2 {
        fill: #040404;
      }

      .cls-3 {
        fill: #080809;
      }

      .cls-4 {
        fill: #f3d5aa;
      }

      .cls-5 {
        fill: #060608;
      }

      .cls-6 {
        fill: #f4f6f6;
      }

      .cls-7 {
        fill: #f7f8f8;
      }

      .cls-8 {
        fill: #91bfee;
      }
    </style>
  </defs>
  <path class="cls-2" d="m659.97,555.52c-.08-.63-.21-1.26-.23-1.89-.1-2.35,1.7-3.95,4.02-3.51,1.86.35,3.42,1.34,4.73,2.67.9.91,1.71,1.9,2.49,2.92,2.76,3.63,5.33,7.39,7.67,11.3,5.07,8.47,7.78,17.65,7.99,27.54.09,4.02-.37,7.99-1.49,11.85-2.97,10.27-8.26,19.17-15.94,26.63-1.66,1.62-3.48,3.07-5.48,4.26-9.2,5.46-18.9,9.68-29.5,11.56-5.31.94-10.67.81-16.02.54-.78-.04-1.57-.34-2.44.12-.1,1.01.27,1.98.5,2.96,1.34,5.68,2.53,11.39,3.36,17.17.58,4.05.69,8.12-.12,12.17-.97,4.85-3.49,8.69-7.51,11.56-1.76,1.26-3.61,2.37-5.57,3.28-14.17,6.52-28.65,12.23-43.8,16.09-3.72.95-7.51,1.55-11.34,1.88-10.47.92-18.76-2.77-24.77-11.47-3.11-4.5-5.33-9.45-7.41-14.48-7.34-17.78-12.54-36.21-16.78-54.93-2.3-10.14-4.36-20.32-5.52-30.65-.79-7-1.32-14.01-.33-21.04.84-5.99,3.52-10.87,8.38-14.54,2.18-1.64,4.43-3.15,6.86-4.38,16.8-8.52,34.2-15.45,52.56-19.81,3.65-.87,7.33-1.64,11.11-1.76,1.04-.03,2.08-.04,3.11.04,4.16.29,7.23,2.27,9.23,5.94,1.59,2.92,2.37,6.09,2.87,9.34.65,4.27,1.27,8.54,1.91,12.8.07.46-.02.97.37,1.33.51.26.94-.04,1.35-.21,3.62-1.45,7.32-1.52,11.06-.62.85.21,1.69.47,2.53.73,8.97,2.79,13.88,8.82,15.02,18.18.88,7.27.25,14.35-1.72,21.35-.15.54-.34,1.06-.49,1.6-.04.15,0,.32,0,.55,1.59.32,3.14-.21,4.68-.46,4.91-.76,9.69-1.94,14.2-4.16,5.99-2.96,9.09-7.86,9.85-14.34.42-3.59-.62-6.97-1.95-10.25-.93-2.3-2.27-4.4-3.52-6.53-.73-1.24-1.48-2.48-2.03-3.8-1.21-2.95.03-4.61,3.23-4.45,4.96,4.72,9.13,9.96,11.83,16.37,4.18,9.93,1.63,26.39-13.46,32.51-5,2.03-10.14,3.41-15.44,4.25-4.51.72-9.08.87-13.63.79-4.85-.09-6.93-3.79-4.47-7.88,2.61-4.34,3.88-9.08,4.64-14.01.68-4.47.62-8.93-.53-13.32-.64-2.45-1.73-4.66-4.04-6-2.44-1.42-5.03-2.41-7.84-2.83-3.68-.55-6.6.66-8.79,3.64-2.86,3.89-4.59,8.2-4.75,13.08-.16,4.9.36,9.74,1.3,14.53.17.87.33,1.73.26,2.61-.16,1.94-1.15,3.33-2.97,3.98-1.72.61-3.31.2-4.66-1.05-.71-.67-1.14-1.53-1.56-2.39-.8-1.65-1.54-3.34-2.44-4.94-2.09-3.73-5.08-6.58-8.95-8.4-4.2-1.97-8.31-1.74-11.9,1.32-5.68,4.84-9.08,11.12-10.63,18.33-.92,4.25.88,7.08,4.99,8.62,2.7,1.01,5.47,1.75,8.34,2.16,1.35.19,2.71.34,3.92,1.02,1.9,1.06,2.95,2.67,2.84,4.9-.1,2.12-1.25,3.58-3.13,4.46-.57.27-1.2.44-1.83.56-8.25,1.58-12.62,7.43-13.14,14.93-.33,4.74,1.42,8.43,5.78,10.67,5.27,2.7,10.7,3.01,16.25,1.03,3.79-1.35,7.25-3.33,10.52-5.66,6.04-4.31,11.16-9.55,15.62-15.46.87-1.15,1.69-2.34,2.63-3.42,2.05-2.33,4.6-3.29,7.73-2.8,2.84.44,5.7.81,8.57,1.03,5.18.4,10.37.71,15.55-.08,7.44-1.14,14.24-4.06,21.01-7.18,7.97-3.67,13.98-9.44,18.56-16.81,4-6.45,6.59-13.34,6.09-21.07-.56-8.74-2.72-17.03-7.47-24.5-2.23-3.51-4.52-6.97-6.87-10.4-1.23-1.79-2.35-3.61-3.05-5.66Zm-80.69,39.81c.38-.23.36-.57.37-.87.32-5.64,2.05-10.81,5.23-15.47.62-.9.6-1.75.34-2.72-1.09-4.02-1.69-8.13-2.38-12.22-.57-3.38-.98-6.81-2.12-10.07-1.09-3.11-1.63-3.5-4.88-3.36-4.34.19-8.52,1.32-12.69,2.39-16,4.11-31.24,10.28-46.3,16.96-2.56,1.13-5.01,2.48-7.27,4.16-2.52,1.86-3.96,4.32-4.41,7.41-.29,1.98-.47,3.96-.51,5.97-.14,6.9.59,13.74,1.61,20.53,3,19.94,7.35,39.58,13.45,58.8,2.83,8.91,6.12,17.67,10.39,26.02,1.31,2.57,2.85,5,4.82,7.13,3.03,3.28,6.68,5.14,11.25,4.89,1.52-.08,3.02-.16,4.53-.42,3.94-.67,7.85-1.55,11.64-2.81,12.89-4.3,25.59-9.11,38.19-14.18,1.93-.78,3.76-1.76,5.5-2.91,2.18-1.44,3.57-3.44,4.09-5.97.37-1.8.54-3.62.39-5.48-.36-4.3-.9-8.58-1.71-12.82-.64-3.33-1.31-6.66-1.98-10.08-1.01.43-1.31,1.22-1.77,1.84-3,4.05-6.2,7.94-9.84,11.44-5.81,5.57-12.11,10.49-19.73,13.33-10.28,3.82-19.95,2.49-28.82-4.01-3.62-2.65-6-6.25-6.94-10.61-1.93-8.91.39-16.75,6.39-23.55.66-.75,1.56-1.31,2.08-2.33-8.45-3.43-11.57-9.92-10.76-18.71-.82.19-1.43.32-2.04.48-3.25.82-6.52,1.59-9.84,2.07-7.42,1.08-13.26-2.43-15.78-9.46-.3-.83-.53-1.68-.75-2.52-1.43-5.31-1.73-10.72-1.34-16.17.19-2.62.64-5.23,1.37-7.78,1.23-4.25,4.25-7.1,8.07-8.66,2.57-1.05,5.08-2.25,7.65-3.29,4.96-2.01,9.86-4.19,15.23-4.89,5-.64,8.93,1.1,11.6,5.45,1.01,1.65,1.64,3.46,2.1,5.33.94,3.81,1.47,7.68,1.95,11.57.18,1.49.24,1.54,1.61,1.05,7.43-2.67,14.13-1.17,20.31,3.48.55.41.97,1.08,1.73,1.08Zm-66.83-.99c.1,4.9.59,9.73,2.24,14.37,1.66,4.66,4.87,6.6,9.82,6.1,2.65-.27,5.15-1.02,7.62-1.96,1.87-.71,3.76-1.41,5.76-1.49,1.33-.05,1.92-.66,2.44-1.81,2.16-4.75,4.9-9.15,8.63-12.85,1.01-1,1.29-1.79.49-3.02-.37-.57-.45-1.36-.55-2.06-.39-2.76-.71-5.54-1.09-8.3-.29-2.14-.62-4.27-1.38-6.3-1.24-3.33-3.08-4.5-6.63-4.13-1.26.13-2.51.45-3.73.8-6.22,1.78-12.21,4.17-18.24,6.49-2.59,1-3.98,2.77-4.52,5.38-.6,2.9-.81,5.84-.86,8.79Z"/>
  <path class="cls-4" d="m659.97,555.52c.7,2.06,1.83,3.88,3.05,5.66,2.35,3.43,4.64,6.89,6.87,10.4,4.75,7.47,6.91,15.76,7.47,24.5.5,7.73-2.09,14.62-6.09,21.07-4.58,7.37-10.59,13.14-18.56,16.81-6.76,3.12-13.57,6.04-21.01,7.18-5.18.79-10.37.48-15.55.08-2.87-.22-5.73-.59-8.57-1.03-3.13-.49-5.68.47-7.73,2.8-.95,1.08-1.77,2.27-2.63,3.42-4.46,5.91-9.58,11.15-15.62,15.46-3.27,2.33-6.73,4.31-10.52,5.66-5.55,1.98-10.98,1.67-16.25-1.03-4.36-2.24-6.11-5.93-5.78-10.67.52-7.5,4.89-13.35,13.14-14.93.62-.12,1.26-.29,1.83-.56,1.88-.89,3.03-2.34,3.13-4.46.11-2.22-.94-3.83-2.84-4.9-1.21-.68-2.58-.83-3.92-1.02-2.86-.4-5.64-1.15-8.34-2.16-4.11-1.53-5.91-4.37-4.99-8.62,1.56-7.21,4.96-13.5,10.63-18.33,3.59-3.06,7.7-3.29,11.9-1.32,3.87,1.82,6.86,4.66,8.95,8.4.9,1.6,1.64,3.29,2.44,4.94.42.87.85,1.73,1.56,2.39,1.34,1.26,2.94,1.66,4.66,1.05,1.82-.65,2.81-2.04,2.97-3.98.07-.88-.09-1.75-.26-2.61-.94-4.8-1.46-9.63-1.3-14.53.16-4.89,1.88-9.19,4.75-13.08,2.19-2.98,5.11-4.18,8.79-3.64,2.81.42,5.4,1.41,7.84,2.83,2.31,1.34,3.39,3.55,4.04,6,1.15,4.4,1.21,8.85.53,13.32-.75,4.93-2.02,9.67-4.64,14.01-2.46,4.09-.39,7.8,4.47,7.88,4.55.08,9.12-.07,13.63-.79,5.3-.84,10.44-2.22,15.44-4.25,15.08-6.12,17.64-22.58,13.46-32.51-2.7-6.4-6.87-11.65-11.83-16.37,2.91-3.1,5.8-6.23,8.75-9.3,1.32-1.37,2.83-2.52,4.56-3.35.5-.24,1-.49,1.58-.44Z"/>
  <path class="cls-1" d="m579.28,595.33c-.76,0-1.18-.66-1.73-1.08-6.18-4.65-12.88-6.15-20.31-3.48-1.36.49-1.42.44-1.61-1.05-.48-3.89-1.02-7.76-1.95-11.57-.46-1.87-1.09-3.68-2.1-5.33-2.67-4.35-6.61-6.1-11.6-5.45-5.37.69-10.28,2.88-15.23,4.89-2.57,1.04-5.09,2.24-7.65,3.29-3.82,1.56-6.84,4.41-8.07,8.66-.73,2.54-1.18,5.15-1.37,7.78-.39,5.45-.09,10.86,1.34,16.17.23.85.46,1.7.75,2.52,2.52,7.03,8.36,10.55,15.78,9.46,3.32-.48,6.59-1.25,9.84-2.07.61-.15,1.22-.29,2.04-.48-.81,8.79,2.31,15.28,10.76,18.71-.52,1.03-1.42,1.58-2.08,2.33-5.99,6.8-8.32,14.64-6.39,23.55.95,4.36,3.33,7.96,6.94,10.61,8.87,6.5,18.54,7.83,28.82,4.01,7.63-2.84,13.92-7.76,19.73-13.33,3.65-3.49,6.84-7.38,9.84-11.44.46-.62.75-1.41,1.77-1.84.67,3.42,1.34,6.75,1.98,10.08.82,4.24,1.35,8.52,1.71,12.82.16,1.86-.01,3.68-.39,5.48-.53,2.53-1.92,4.54-4.09,5.97-1.74,1.15-3.57,2.13-5.5,2.91-12.6,5.07-25.3,9.88-38.19,14.18-3.79,1.26-7.69,2.14-11.64,2.81-1.51.26-3.01.33-4.53.42-4.57.25-8.22-1.61-11.25-4.89-1.97-2.13-3.5-4.56-4.82-7.13-4.26-8.35-7.56-17.11-10.39-26.02-6.1-19.22-10.46-38.87-13.45-58.8-1.02-6.79-1.75-13.63-1.61-20.53.04-2,.22-3.98.51-5.97.45-3.09,1.89-5.55,4.41-7.41,2.26-1.67,4.71-3.02,7.27-4.16,15.06-6.68,30.3-12.85,46.3-16.96,4.18-1.07,8.35-2.2,12.69-2.39,3.24-.14,3.79.24,4.88,3.36,1.14,3.26,1.55,6.69,2.12,10.07.69,4.1,1.29,8.21,2.38,12.22.26.97.28,1.82-.34,2.72-3.18,4.66-4.92,9.83-5.23,15.47-.02.3,0,.64-.37.87Z"/>
  <path class="cls-8" d="m512.44,594.35c.05-2.94.26-5.88.86-8.79.54-2.62,1.93-4.38,4.52-5.38,6.03-2.32,12.02-4.71,18.24-6.49,1.22-.35,2.47-.67,3.73-.8,3.55-.37,5.39.8,6.63,4.13.76,2.03,1.09,4.16,1.38,6.3.38,2.77.7,5.54,1.09,8.3.1.71.18,1.5.55,2.06.8,1.23.52,2.02-.49,3.02-3.73,3.69-6.46,8.1-8.63,12.85-.52,1.15-1.11,1.76-2.44,1.81-2.01.08-3.89.78-5.76,1.49-2.47.94-4.97,1.69-7.62,1.96-4.95.5-8.15-1.44-9.82-6.1-1.66-4.64-2.14-9.47-2.24-14.37Zm12.02,4.93c-1.59,1.62-2.83,3.13-3.49,5.04-1.2,3.48.07,6.39,3.45,7.81,1.53.64,3.12.78,4.69.38,3.23-.83,5.77-2.7,7.5-5.55,1.49-2.45,1.1-5.2-.87-7.26-1.32-1.39-2.97-2.11-4.86-2.32-.58-.07-1.22.23-1.88-.29,1.83-1.45,3.18-3.19,4.19-5.2,1.01-2.02,1.22-4.11.45-6.25-1.37-3.8-6.43-5.88-10.62-4.36-4.82,1.74-8.19,7.08-7.74,12.24.29,3.29,2.62,5.56,5.95,5.75.95.05,1.91,0,3.23,0Zm21.41-15.43c-.09-3.42-3.42-5.34-6.27-3.53-1.57,1-2.79,2.43-3.49,4.16-1.17,2.91.92,5.77,4.07,5.7,2.94-.06,5.76-3.21,5.68-6.34Z"/>
  <path class="cls-3" d="m524.46,599.28c-1.31,0-2.27.05-3.23,0-3.33-.19-5.66-2.46-5.95-5.75-.45-5.16,2.92-10.5,7.74-12.24,4.19-1.52,9.25.56,10.62,4.36.77,2.15.56,4.23-.45,6.25-1,2.01-2.36,3.75-4.19,5.2.67.52,1.3.22,1.88.29,1.89.21,3.53.93,4.86,2.32,1.97,2.06,2.36,4.81.87,7.26-1.73,2.85-4.27,4.72-7.5,5.55-1.57.4-3.17.26-4.69-.38-3.38-1.42-4.65-4.33-3.45-7.81.66-1.91,1.9-3.42,3.49-5.04Zm-.05-13.69c-.96.13-2.09-.84-2.82.47-1.22,2.19-1.91,4.56-1.96,7.06-.02,1.11.52,1.96,1.71,2.29,3.83,1.08,8.63-2.65,8.46-6.6-.07-1.65-.72-2.52-2.33-2.86-1.01-.21-2.05-.25-3.07-.36Zm3.21,23.32c1.99-.1,3.66-1.24,5.07-2.85.72-.83,1.2-1.77.66-2.84-.5-.99-1.44-1.45-2.53-1.56-2.92-.3-4.77.89-5.83,3.76-.77,2.1.15,3.43,2.64,3.49Z"/>
  <path class="cls-5" d="m545.88,583.85c.08,3.12-2.74,6.27-5.68,6.34-3.15.07-5.24-2.79-4.07-5.7.7-1.73,1.92-3.17,3.49-4.16,2.85-1.81,6.18.11,6.27,3.53Z"/>
  <path class="cls-7" d="m524.41,585.59c1.02.11,2.06.14,3.07.36,1.61.34,2.26,1.22,2.33,2.86.16,3.95-4.63,7.68-8.46,6.6-1.19-.33-1.73-1.18-1.71-2.29.05-2.51.74-4.87,1.96-7.06.73-1.31,1.86-.34,2.82-.47Z"/>
  <path class="cls-6" d="m527.63,608.91c-2.5-.06-3.42-1.39-2.64-3.49,1.06-2.87,2.92-4.06,5.83-3.76,1.1.11,2.03.57,2.53,1.56.54,1.07.06,2.01-.66,2.84-1.41,1.62-3.08,2.75-5.07,2.85Z"/>
</svg>