<?xml version="1.0" encoding="UTF-8"?>
<svg id="_图层_1" data-name="图层 1" xmlns="http://www.w3.org/2000/svg" viewBox="0 0 960 960">
  <defs>
    <style>
      .cls-1 {
        fill: #f3d5aa;
      }

      .cls-1, .cls-2 {
        stroke-width: 0px;
      }

      .cls-2 {
        fill: #050404;
      }
    </style>
  </defs>
  <path class="cls-1" d="m638.58,575.24c1.06-.06,1.93-.7,2.89-1.06,2.54-.94,5.08-1.05,7.68-.37-1.32,3.27-2.07,6.65-2.52,10.16-1.43,11.2-4.7,21.84-10.23,31.74-2.69,4.82-5.51,9.55-8.51,14.18-8.22,12.65-19.2,22.38-31.91,30.29-3.56,2.21-7.42,3.66-11.55,4.48-6.16,1.22-11.38-.58-15.86-4.75-3.12-2.91-5-6.6-6.24-10.63-1.13-3.68-1.8-7.46-2.41-11.24-1.15-7.1-2.14-14.22-3.36-21.31-.97-5.62-2.04-6.61-7.65-6.86-5.14-.23-9.15-2.42-12.51-6.16-4.13-4.59-4.95-9.65-2.57-15.32,1.79-4.25,4.7-7.58,8.32-10.33,1.72-1.3,3.53-2.49,5.19-3.86,3.65-3,3.82-6.22.52-9.61-1.21-1.25-1.99-2.66-2.45-4.31-.83-2.97-1.06-5.97-.63-9.02.81-5.81,3.04-11.08,6.13-15.99,3.03-4.79,7-8.71,11.66-11.91,2.33-1.6,4.84-2.81,7.76-2.84,2.29-.02,3.13.56,3.95,2.73.22.59.39,1.22.52,1.84.6,2.77.54,5.56.16,8.35-.84,6.19-2.34,12.23-4.23,18.19-.55,1.75-1.04,3.52-1.5,5.3-.3,1.18-.3,2.37.05,3.55.66,2.23,2.4,3.77,4.62,3.96,2.29.19,4.02-.79,5.2-2.74.5-.83.75-1.75.98-2.69.61-2.56,1.16-5.15,1.9-7.67,3.08-10.5,8.49-19.6,16.52-27.09,3.68-3.43,7.9-5.94,12.63-7.64,2.29-.82,4.64-1.17,7.07-.88,3.01.36,4.57,1.88,5.05,4.87.4,2.51-.04,4.93-.74,7.33-1.31,4.51-3.59,8.53-6.28,12.33-4.26,6-8.85,11.74-13.75,17.24-.85.95-1.71,1.92-2.39,2.99-1.73,2.69-1.39,5.82.77,8.17.71.77,1.54,1.4,2.43,1.93,2.64,1.58,3.76,4.04,4.07,6.96.17,1.6.07,3.19-.22,4.77-.73,3.95-2.45,7.4-5.11,10.41-2.56,2.88-5.46,5.39-8.45,7.8-2.38,1.91-4.51,4.07-6.48,6.38-.96,1.12-1.81,2.4-1.55,3.89.36,2.01.09,3.98.06,5.97-.05,2.83.31,5.58,1.42,8.2,2.62,6.24,8.86,9.65,15.53,8.51,3.87-.66,7.29-2.32,10.4-4.65,4.6-3.44,8.35-7.62,11.31-12.57,6.85-11.44,11.1-23.86,14.22-36.73.35-1.42.32-2.84.07-4.27Z"/>
  <path class="cls-2" d="m638.58,575.24c.25,1.43.28,2.85-.07,4.27-3.13,12.87-7.38,25.3-14.22,36.73-2.96,4.95-6.71,9.13-11.31,12.57-3.11,2.33-6.53,3.99-10.4,4.65-6.67,1.15-12.91-2.26-15.53-8.51-1.1-2.63-1.47-5.38-1.42-8.2.04-1.99.3-3.96-.06-5.97-.27-1.49.59-2.77,1.55-3.89,1.98-2.31,4.11-4.47,6.48-6.38,2.99-2.41,5.89-4.91,8.45-7.8,2.67-3.01,4.38-6.46,5.11-10.41.29-1.58.39-3.18.22-4.77-.31-2.92-1.43-5.38-4.07-6.96-.89-.53-1.72-1.16-2.43-1.93-2.16-2.35-2.5-5.48-.77-8.17.69-1.07,1.55-2.03,2.39-2.99,4.89-5.5,9.49-11.23,13.75-17.24,2.69-3.8,4.97-7.83,6.28-12.33.7-2.4,1.14-4.82.74-7.33-.48-2.99-2.04-4.51-5.05-4.87-2.43-.29-4.78.06-7.07.88-4.73,1.69-8.95,4.21-12.63,7.64-8.03,7.49-13.44,16.59-16.52,27.09-.74,2.53-1.29,5.11-1.9,7.67-.22.94-.48,1.86-.98,2.69-1.18,1.96-2.91,2.93-5.2,2.74-2.22-.18-3.95-1.73-4.62-3.96-.35-1.18-.36-2.38-.05-3.55.46-1.78.95-3.55,1.5-5.3,1.89-5.95,3.39-11.99,4.23-18.19.38-2.78.44-5.58-.16-8.35-.13-.62-.3-1.25-.52-1.84-.82-2.17-1.66-2.75-3.95-2.73-2.92.02-5.43,1.23-7.76,2.84-4.66,3.2-8.64,7.12-11.66,11.91-3.1,4.91-5.32,10.19-6.13,15.99-.43,3.05-.2,6.05.63,9.02.46,1.65,1.24,3.07,2.45,4.31,3.29,3.39,3.12,6.6-.52,9.61-1.66,1.37-3.47,2.56-5.19,3.86-3.63,2.75-6.54,6.08-8.32,10.33-2.38,5.66-1.56,10.73,2.57,15.32,3.37,3.74,7.37,5.93,12.51,6.16,5.61.25,6.68,1.25,7.65,6.86,1.22,7.09,2.21,14.21,3.36,21.31.61,3.78,1.28,7.57,2.41,11.24,1.24,4.03,3.11,7.72,6.24,10.63,4.49,4.18,9.7,5.97,15.86,4.75,4.13-.82,7.99-2.26,11.55-4.48,12.71-7.9,23.69-17.64,31.91-30.29,3.01-4.63,5.82-9.36,8.51-14.18,5.52-9.9,8.79-20.54,10.23-31.74.45-3.51,1.2-6.89,2.52-10.16.15-.36.34-.71.45-1.08.42-1.35,1.25-2.23,2.72-2.29,1.31-.06,2.57.81,2.98,2.34.75,2.78,1.28,5.61,1,8.52-.45,4.62-1.03,9.21-2.17,13.72-3.06,12.11-8.38,23.27-14.39,34.13-4.74,8.55-10.05,16.7-16.74,23.9-6.36,6.85-13.59,12.59-21.61,17.37-4.79,2.85-9.93,4.76-15.45,5.61-12.07,1.87-21.41-2.7-28.57-12.23-3.98-5.3-5.98-11.46-6.94-17.93-1.02-6.88-1.96-13.77-2.4-20.72-.15-2.31-.19-4.64.07-6.95.11-1-.28-1.18-1.19-1.22-16.32-.68-26.75-16.64-20.89-31.9,1.97-5.12,5.26-9.28,9.36-12.85,1.02-.88,2.5-1.55,2.83-2.82.32-1.21-.98-2.24-1.45-3.41-2.7-6.81-2.79-13.76-.85-20.71,3.47-12.45,10.37-22.56,21.07-29.96,3.8-2.63,7.92-4.51,12.58-4.92,7.62-.67,12.77,2.77,15.13,10.04.24.74.45,1.5.7,2.36,1.02-.31,1.44-1.12,2-1.73,4.93-5.48,10.6-9.95,17.43-12.83,3.94-1.67,8.02-2.67,12.34-2.58,10.48.21,17.21,6.83,17.47,17.33.15,6.13-1.51,11.86-4.3,17.27-3.44,6.65-8.05,12.48-12.98,18.06-1.37,1.55-2.8,3.06-4.17,4.56.13.24.18.41.29.52,8.82,8.5,8.32,21.69,4.09,30.05-4.82,9.54-12.5,16.04-22.39,19.93-1.22.48-1.6.95-1.43,2.2.24,1.82.32,3.66,1.06,5.38,1.18,2.76,3.18,3.83,6.13,3.27,2.27-.44,4.17-1.59,5.89-3.06,3.49-2.99,6.42-6.44,8.74-10.43,5.74-9.86,9.98-20.35,13.33-31.23.33-1.07.64-2.15,1.02-3.19.73-2,1.96-3.52,4.22-3.78,2.11-.24,3.42,1.01,4.43,2.69Z"/>
</svg>