<?xml version="1.0" encoding="UTF-8"?>
<svg id="_图层_1" data-name="图层 1" xmlns="http://www.w3.org/2000/svg" viewBox="0 0 960 960">
  <defs>
    <style>
      .cls-1 {
        fill: #f3d5aa;
      }

      .cls-1, .cls-2 {
        stroke-width: 0px;
      }

      .cls-2 {
        fill: #050404;
      }
    </style>
  </defs>
  <path class="cls-1" d="m646.65,574.8c2.66-3.24,5.87-5.87,9.45-7.99,1.85-1.1,3.93-1.76,6.16-1.66.58,1.13,1.05,2.34,1.77,3.37,5.1,7.41,8.26,15.7,10.84,24.19,5.41,17.86,2.35,34.11-9.77,48.5-5.54,6.58-11.72,12.47-18.78,17.38-7.53,5.24-15.63,9.34-24.59,11.59-1.16.29-2.31.65-3.46.99-2.24.67-4.01,1.99-5.18,4.01-.88,1.52-1.68,3.09-2.45,4.67-2.45,5.01-6,9.01-10.7,12.02-4.47,2.85-9.16,5.23-14.2,6.89-4.51,1.48-9.12,2.41-13.9,2.11-4.81-.31-9.05-1.9-12.3-5.63-3.33-3.82-3.85-7.64-1.57-12.18.64-1.28,1.48-2.47,2.18-3.72,2.35-4.22,1.75-7.97-1.78-11.24-1.35-1.25-2.75-2.44-4.08-3.71-2.28-2.16-3.63-4.82-4.21-7.91-.54-2.86-.53-5.73-.22-8.6.73-6.67,3.22-12.49,8.46-16.93,2.46-2.09,5.22-2.97,8.43-2.63,1.75.19,3.48.5,5.19.9,1.24.29,2.5.62,3.76.71,4.73.34,7.35-3.22,5.65-7.63-.72-1.86-1.53-3.69-2.35-5.51-2.05-4.56-2.67-9.32-2.32-14.28.42-5.89,2.65-10.99,6.48-15.41,2.62-3.03,5.97-4.74,9.96-5.2,4.24-.5,8.29.23,12.15,1.97,7.05,3.17,10.25,8.07,9.64,15.75-.63,7.96-2.66,15.59-7.18,22.35-1.24,1.86-2.53,3.7-3.51,5.72-.84,1.74-1.51,3.53-1.63,5.48-.27,4.31,2.11,7.09,6.42,7.25,3.59.13,7.19.1,10.79,0,1.58-.04,3.19-.3,4.73-.7,18.57-4.84,29.18-17.51,34.18-35.37,2.1-7.5.42-14.55-4.16-20.91-2.3-3.19-4.9-6.08-7.91-8.61Z"/>
  <path class="cls-2" d="m646.65,574.8c3.01,2.53,5.61,5.42,7.91,8.61,4.59,6.35,6.26,13.41,4.16,20.91-5,17.86-15.61,30.53-34.18,35.37-1.54.4-3.15.66-4.73.7-3.59.1-7.2.13-10.79,0-4.31-.16-6.69-2.93-6.42-7.25.12-1.95.78-3.74,1.63-5.48.98-2.02,2.26-3.86,3.51-5.72,4.52-6.77,6.55-14.39,7.18-22.35.61-7.68-2.58-12.58-9.64-15.75-3.87-1.74-7.91-2.47-12.15-1.97-3.99.47-7.34,2.17-9.96,5.2-3.83,4.42-6.06,9.53-6.48,15.41-.36,4.96.27,9.72,2.32,14.28.82,1.82,1.63,3.65,2.35,5.51,1.71,4.41-.92,7.97-5.65,7.63-1.26-.09-2.52-.42-3.76-.71-1.72-.4-3.44-.71-5.19-.9-3.21-.34-5.97.54-8.43,2.63-5.24,4.45-7.73,10.26-8.46,16.93-.31,2.87-.32,5.74.22,8.6.58,3.09,1.93,5.74,4.21,7.91,1.33,1.27,2.73,2.46,4.08,3.71,3.54,3.27,4.13,7.02,1.78,11.24-.7,1.26-1.54,2.44-2.18,3.72-2.28,4.54-1.77,8.37,1.57,12.18,3.25,3.73,7.49,5.32,12.3,5.63,4.78.31,9.39-.62,13.9-2.11,5.04-1.66,9.73-4.04,14.2-6.89,4.71-3,8.26-7.01,10.7-12.02.77-1.58,1.57-3.15,2.45-4.67,1.17-2.03,2.93-3.35,5.18-4.01,1.15-.34,2.29-.7,3.46-.99,8.96-2.25,17.06-6.35,24.59-11.59,7.06-4.91,13.24-10.8,18.78-17.38,12.12-14.39,15.18-30.64,9.77-48.5-2.57-8.5-5.74-16.79-10.84-24.19-.71-1.04-1.18-2.25-1.77-3.37-.19-.86-.4-1.71-.56-2.57-.61-3.3,1.8-5.67,5.09-4.94,2.07.46,3.84,1.54,5.41,2.96,1.26,1.13,2.34,2.42,3.22,3.85,7.58,12.32,12.49,25.57,12.95,40.14.43,13.61-3.45,26.17-11.18,37.27-10.91,15.66-25.17,27.53-42.63,35.41-3.43,1.55-7.01,2.69-10.67,3.57-1.43.34-2.51.97-3.02,2.4-.05.15-.14.29-.22.43-8.97,17.68-24.26,26.04-43.08,29.03-4.44.7-8.94.32-13.33-.76-5.76-1.43-10.61-4.35-14.44-8.92-6.25-7.45-7.65-15.6-3.6-24.56,1.18-2.62,1.18-2.67-1.01-4.63-5.15-4.63-7.82-10.48-8.23-17.3-.65-10.84,2.31-20.55,9.61-28.76,2.19-2.47,4.72-4.54,7.57-6.21,3.54-2.07,7.36-3.03,11.47-2.83.7.03,1.42.32,2.1-.12.14-.78-.34-1.38-.61-2.02-4.75-11.55-3.14-29.19,10.75-40.27,7.04-5.61,15.18-6.75,23.82-4.94,6.23,1.31,11.78,3.96,16.42,8.4,4.04,3.87,6.36,8.56,6.97,14.09.4,3.59.31,7.18-.27,10.75-1.45,8.96-4.34,17.34-9.75,24.74-.37.51-.67,1.07-1,1.61,1.85.74,5.39.84,8.21.13,6.29-1.59,11.78-4.75,15.98-9.63,5.34-6.22,8.83-13.46,10.13-21.65.45-2.83.13-5.58-.92-8.24-1.51-3.81-3.41-7.4-6.08-10.54-.67-.79-1.37-1.57-1.81-2.53-.66-1.44-.59-2.83.51-4.01,1.01-1.09,2.31-1.42,3.73-.92.97.34,1.9.81,2.85,1.22Z"/>
</svg>