<?xml version="1.0" encoding="UTF-8"?>
<svg id="_图层_1" data-name="图层 1" xmlns="http://www.w3.org/2000/svg" viewBox="0 0 960 960">
  <defs>
    <style>
      .cls-1 {
        fill: #040404;
      }

      .cls-1, .cls-2 {
        stroke-width: 0px;
      }

      .cls-2 {
        fill: #f3d5aa;
      }
    </style>
  </defs>
  <path class="cls-1" d="m656.73,540.16c.14-.7.19-1.44.43-2.1.75-2.08,2.99-2.63,4.64-1.18.61.54.96,1.25,1.32,1.97,2.62,5.26,4.23,10.83,5.18,16.63,1.16,7.04,1.68,14.13,1.84,21.24.46,20.15.02,40.28-1.44,60.39-.28,3.9-.65,7.81-1.24,11.68-.31,1.98-.28,2.01,1.77,2.44,5.32,1.11,10.62,2.3,15.62,4.53.88.39,1.76.77,2.62,1.19,8.1,4.02,13.53,10.61,12.71,22.9-.32,4.83-1.74,9.41-3.41,13.92-2.62,7.08-6.01,13.76-10.45,19.88-3.26,4.49-7.28,8.05-12.62,9.92-4.74,1.66-9.41,1.53-13.99-.63-.56-.27-1.07-.73-1.92-.63-.46,1.27-.95,2.61-1.43,3.95-1,2.79-2.15,5.5-3.66,8.06-3.06,5.16-7.53,8.47-13.35,9.75-9.17,2.01-18.26,1.5-27.21-1.34-1.6-.51-3.12-1.24-4.57-2.09-5.59-3.29-8.04-8.24-7.64-14.65.23-3.71,1.3-7.22,2.74-10.63,1.55-3.69,3.41-7.23,5.57-10.6.37-.58.71-1.19,1.11-1.88-.88-.61-1.68-.35-2.43-.33-3.45.1-6.87-.04-10.21-1.05-7.68-2.31-12.47-8.32-12.97-16.31-.15-2.4,0-4.79.47-7.16,1.31-6.42,3.8-12.35,7.5-17.76.9-1.32,1.95-2.53,3.06-3.68,5.35-5.53,11.81-7.66,19.41-6.36,3.86.66,7.7,1.41,11.46,2.52.37.11.76.18,1.06.25.69-.46.5-1.06.51-1.58.22-18.63,1.26-37.23,2.29-55.82.49-8.78,1.21-17.54,3.27-26.13.26-1.08.59-2.15.94-3.21.68-2.05,2-3.22,4.27-3.07,1.63.84,2.4,2.24,2.71,4,.21,1.19.29,2.38.28,3.58-.1,14.07-.1,28.14-.34,42.2-.27,15.5-.91,31-1.09,46.51-.09,7.27-5.67,10.7-11.8,7.24-5.17-2.92-10.89-4.07-16.68-4.98-2.45-.39-4.58.37-6.39,2.04-.88.82-1.69,1.71-2.35,2.72-2.92,4.49-4.75,9.43-5.47,14.71-.77,5.65,1.07,7.77,6.81,8.28,4.83.43,9.57-.23,14.26-1.31,1.56-.36,3.1-.84,4.68-.99,6.17-.56,10.06,5.09,7.43,10.7-.55,1.17-1.28,2.21-2.09,3.21-1.45,1.81-2.94,3.59-4.39,5.39-3.38,4.19-6.24,8.7-8.33,13.67-.74,1.77-1.44,3.56-1.74,5.47-.4,2.51-.02,3.24,2.26,4.38.36.18.72.36,1.09.49,6.16,2.12,12.46,2.77,18.89,1.59,3.24-.6,5.71-2.36,7.44-5.18,1.05-1.71,1.84-3.54,2.57-5.4,1.3-3.36,2.29-6.81,3.34-10.25,1.89-6.17,7.5-7.64,12.29-3.26.59.54,1.14,1.13,1.75,1.64,2.7,2.3,5,2.54,8.16.9,2.18-1.13,3.87-2.82,5.36-4.72,3.75-4.74,6.59-10,8.72-15.64,1.25-3.29,2.29-6.65,2.68-10.17.79-7.03-1.07-10.31-7.54-13.3-4.01-1.85-8.22-3.08-12.5-4.11-2.02-.49-4.06-.89-6.05-1.48-3.95-1.16-5.94-3.88-5.87-7.99.02-1.27.16-2.56.39-3.81,1.34-7.16,2.1-14.4,2.59-21.65,1.2-17.63,1.57-35.29,1.11-52.96-.13-5.04-.61-10.04-1.36-15.03-.92-6.15-2.39-12.25-1.95-18.55.02-.31-.1-.63-.15-.94Z"/>
  <path class="cls-2" d="m656.73,540.16c.05.31.17.63.15.94-.44,6.3,1.03,12.4,1.95,18.55.75,4.99,1.23,9.99,1.36,15.03.46,17.67.09,35.33-1.11,52.96-.49,7.26-1.25,14.49-2.59,21.65-.23,1.25-.37,2.54-.39,3.81-.06,4.11,1.92,6.83,5.87,7.99,1.99.59,4.03.99,6.05,1.48,4.28,1.03,8.49,2.26,12.5,4.11,6.47,2.99,8.33,6.27,7.54,13.3-.39,3.52-1.43,6.88-2.68,10.17-2.14,5.64-4.98,10.9-8.72,15.64-1.5,1.89-3.19,3.59-5.36,4.72-3.17,1.64-5.46,1.4-8.16-.9-.61-.52-1.16-1.1-1.75-1.64-4.78-4.37-10.39-2.91-12.29,3.26-1.06,3.44-2.04,6.89-3.34,10.25-.72,1.86-1.52,3.69-2.57,5.4-1.72,2.82-4.19,4.58-7.44,5.18-6.44,1.18-12.73.53-18.89-1.59-.38-.13-.74-.31-1.09-.49-2.28-1.14-2.65-1.87-2.26-4.38.3-1.91,1-3.7,1.74-5.47,2.09-4.98,4.95-9.48,8.33-13.67,1.45-1.8,2.94-3.58,4.39-5.39.8-1,1.54-2.04,2.09-3.21,2.63-5.6-1.26-11.26-7.43-10.7-1.58.14-3.13.63-4.68.99-4.7,1.08-9.43,1.74-14.26,1.31-5.74-.51-7.58-2.63-6.81-8.28.72-5.28,2.55-10.22,5.47-14.71.66-1.01,1.46-1.9,2.35-2.72,1.81-1.67,3.93-2.43,6.39-2.04,5.78.91,11.5,2.06,16.68,4.98,6.12,3.45,11.71.02,11.8-7.24.18-15.5.82-31,1.09-46.51.24-14.07.25-28.13.34-42.2,0-1.2-.07-2.39-.28-3.58-.31-1.76-1.08-3.15-2.71-4,2.3-4.99,5.2-9.62,8.61-13.92,2.07-2.61,4.12-5.24,6.54-7.54,1.02-.97,2.13-1.65,3.59-1.55Z"/>
</svg>