<?xml version="1.0" encoding="UTF-8"?>
<svg id="_图层_1" data-name="图层 1" xmlns="http://www.w3.org/2000/svg" viewBox="0 0 960 960">
  <defs>
    <style>
      .cls-1 {
        fill: #f3d5aa;
      }

      .cls-1, .cls-2 {
        stroke-width: 0px;
      }

      .cls-2 {
        fill: #050404;
      }
    </style>
  </defs>
  <path class="cls-1" d="m656.13,556c.71,1.39,2.01,2.25,3.18,3.13,3.71,2.81,5.69,6.6,6.48,11.04.49,2.73.81,5.52.53,8.31-.15,1.45,0,3.06-1.46,4.06-.83-.6-1.57-1.37-2.66-1.51-3.33-.42-6.66-.93-10.03-.37-15.63,2.58-30.28,7.82-43.78,16.18-4.51,2.79-8.69,5.99-12.31,9.88-6.29,6.75-11.89,14.05-16.4,22.1-7.5,13.4-10.42,27.69-7.95,43,1.02,6.34,2.84,12.46,4.65,18.59,1.02,3.45,2.1,6.89,2.47,10.49.84,8.28-2.02,14.9-9.11,19.48-3.54,2.29-7.43,3.72-11.57,4.43-6.91,1.18-12.72-1.87-15.74-8.2-1.49-3.12-2.47-6.41-3.13-9.79-.74-3.79-.42-7.49,1.06-11.06,1.66-4.02,3.84-7.72,6.86-10.89.5-.52,1.03-1.03,1.42-1.62,1.11-1.68.52-3.52-1.36-4.3-.9-.37-1.84-.48-2.82-.32-1.7.28-3.22.98-4.53,2.06-.9.74-1.88,1.09-3.02,1.27-8.61,1.36-15.66-1.85-21.89-7.43-1.45-1.3-2.33-3.03-3.01-4.85-.79-2.13-.72-4.21.2-6.29.85-1.91,1.97-3.66,3.25-5.3,6.66-8.48,15.51-13.92,25.31-17.99,2.08-.86,4.34-1.08,6.6-.6,2.39.51,2.96,1.37,2.27,3.74-.77,2.63-1.98,5.05-3.66,7.23-1.56,2.03-3.17,4-4.99,5.82-1.43,1.43-1.77,3.06-1.04,4.33.9,1.56,2.42,1.86,3.97,1.48,4.08-.99,7.97-2.41,10.76-5.82,2.63-3.22,4.38-6.88,5.18-10.94,1.53-7.72-2.33-13.38-10.03-14.97-4.2-.87-8.35-.49-12.27,1.04-11.39,4.43-21.66,10.6-29.68,20.05-.32.37-.48,1.05-1.27.89-1.63-4.06-1.87-8.19-.63-12.41,4.08-13.93,13.52-22.49,27.09-26.71,5.56-1.73,11.3-2.1,17.05-.69,3.22.79,5.64-.22,7.73-2.9,5.69-7.32,11.36-14.64,17.99-21.18,11.66-11.48,25.35-19.65,40.61-25.23,11.81-4.32,24.25-5.56,36.69-6.57,1.03-.08,2.09.05,2.99-.63Z"/>
  <path class="cls-2" d="m656.13,556c-.9.68-1.96.55-2.99.63-12.44,1.01-24.88,2.25-36.69,6.57-15.26,5.58-28.95,13.75-40.61,25.23-6.64,6.54-12.3,13.87-17.99,21.18-2.08,2.68-4.51,3.69-7.73,2.9-5.75-1.41-11.49-1.04-17.05.69-13.58,4.23-23.01,12.78-27.09,26.71-1.24,4.23-1,8.35.63,12.41.79.16.95-.51,1.27-.89,8.02-9.45,18.29-15.62,29.68-20.05,3.92-1.53,8.06-1.9,12.27-1.04,7.7,1.59,11.56,7.25,10.03,14.97-.8,4.06-2.55,7.73-5.18,10.94-2.78,3.41-6.68,4.83-10.76,5.82-1.55.38-3.07.08-3.97-1.48-.73-1.26-.39-2.9,1.04-4.33,1.82-1.81,3.43-3.79,4.99-5.82,1.68-2.18,2.89-4.6,3.66-7.23.69-2.36.12-3.23-2.27-3.74-2.26-.48-4.53-.26-6.6.6-9.79,4.07-18.64,9.5-25.31,17.99-1.28,1.64-2.4,3.39-3.25,5.3-.93,2.08-1,4.17-.2,6.29.68,1.82,1.55,3.55,3.01,4.85,6.23,5.58,13.28,8.79,21.89,7.43,1.14-.18,2.12-.52,3.02-1.27,1.31-1.08,2.83-1.78,4.53-2.06.98-.16,1.93-.05,2.82.32,1.88.78,2.47,2.62,1.36,4.3-.39.59-.92,1.1-1.42,1.62-3.02,3.17-5.2,6.87-6.86,10.89-1.48,3.57-1.8,7.27-1.06,11.06.66,3.39,1.64,6.68,3.13,9.79,3.02,6.32,8.83,9.38,15.74,8.2,4.14-.71,8.03-2.14,11.57-4.43,7.1-4.58,9.95-11.2,9.11-19.48-.36-3.59-1.45-7.04-2.47-10.49-1.81-6.13-3.63-12.24-4.65-18.59-2.46-15.31.46-29.6,7.95-43,4.5-8.05,10.11-15.35,16.4-22.1,3.62-3.89,7.8-7.09,12.31-9.88,13.5-8.35,28.15-13.6,43.78-16.18,3.37-.55,6.7-.05,10.03.37,1.09.14,1.83.91,2.66,1.51.43,3.37-.68,4.57-3.92,5.64-9.39,3.09-19.39,3.97-28.52,8.07-6.71,3.02-13.42,5.97-19.79,9.66-5.39,3.12-10.03,7.08-13.94,11.93-5.33,6.61-10.25,13.46-13.72,21.28-5.49,12.37-5.54,24.95-1.79,37.71,1.31,4.44,2.85,8.82,4.28,13.22,1.01,3.12,1.94,6.26,2.3,9.54,1.28,11.69-2.75,21.22-11.95,28.45-6.18,4.85-13.34,7.6-21.17,8.2-8.29.63-15.19-2.37-20.46-8.88-3.93-4.86-5.86-10.58-6.99-16.62-1.22-6.53-.79-12.89,2.2-18.94.1-.2.11-.44.23-.96-1.96-.04-3.84.01-5.69-.35-7.1-1.4-13.35-4.55-18.28-9.81-5.03-5.37-7.37-11.73-5.33-19.17.2-.74.33-1.31-.47-1.83-4.75-3.09-5.76-8.01-6.22-13.12-.26-2.89.23-5.74.97-8.54,5.27-19.94,23.21-34.59,43.8-35.8,3.05-.18,6.08.02,9.04.77,1.57.4,2.45-.03,3.33-1.4,6.22-9.59,13.61-18.22,22.58-25.3,16.18-12.77,34.4-21,54.97-23.7,4.76-.62,9.53-1.1,14.32-1.29,2.48-.1,4.96-.1,7.41.4.78.16,1.57.35,2.29.67,1.68.74,2.07,1.59,1.79,3.62Z"/>
</svg>