<?xml version="1.0" encoding="UTF-8"?>
<svg id="_图层_1" data-name="图层 1" xmlns="http://www.w3.org/2000/svg" viewBox="0 0 960 960">
  <defs>
    <style>
      .cls-1 {
        fill: #f3d5aa;
      }

      .cls-1, .cls-2 {
        stroke-width: 0px;
      }

      .cls-2 {
        fill: #050404;
      }
    </style>
  </defs>
  <path class="cls-1" d="m252.45,565.99c2.37,1.34,2.79,3.77,3.21,6.09,1,5.4.36,10.79-.33,16.17-.25,1.97-.38,3.98-.47,5.95-.15,3.27-.59,6.51-.66,9.78-.07,3.1-.78,6.16-1.65,9.14-.29,1.01.13,2.34-1.16,2.98-2.83-4.24-6.69-7.47-10.53-10.71-15.02-12.7-27.46-27.62-38.14-44.08-11.1-17.1-20.01-35.29-27.14-54.37-1.62-4.34-3.12-8.73-5.17-12.9-.99-2.01-2.05-3.98-3.44-5.75-1.71-2.16-3.82-3.3-6.68-2.86-2.06.32-4.16.4-6.22.03-7.53-1.33-14.46-4.14-20.33-9.09-9.57-8.06-9.17-21.42-.49-30.1.97-.97,2.12-1.68,3.33-2.33,3.02-1.6,6.11-1.76,9.23-.37,1.53.68,3.01,1.48,4.49,2.26.92.49,1.84,1,2.86,1.21,2.47.51,4.62-.06,6.22-2.1,1.52-1.93,1.63-4.54.27-6.75-.45-.74-1.07-1.38-1.65-2.05-.89-1.03-1.83-2.01-2.7-3.05-3.65-4.32-4.9-9.35-3.79-14.8,2.3-11.34,8.66-20.09,17.85-26.91.19-.14.41-.25.62-.37,4.54-2.56,9-.97,10.85,3.91.72,1.89.96,3.87.99,5.88.09,6.29-.84,12.42-3,18.35-.57,1.57-1.27,3.11-1.49,4.8-.32,2.49.41,4.62,2.42,6.16,2.09,1.6,4.41,1.73,6.8.71,1.19-.51,2.17-1.34,3.07-2.26,1.28-1.32,2.52-2.68,3.83-3.96,1.9-1.85,3.93-3.53,6.38-4.61,3.71-1.65,6.07-.7,7.68,3.05,1.47,3.43,1.56,6.99.96,10.6-1.1,6.57-4.04,12.24-8.42,17.22-3.13,3.56-6.67,6.67-10.44,9.52-2.59,1.95-4.18,4.58-5.64,7.34-.38.72-.57,1.52-.4,2.32.72,3.52.97,7.11,1.88,10.61,3.04,11.68,7.75,22.67,13.63,33.16,10.06,17.95,22.88,33.66,38.35,47.23,2.99,2.62,6.38,4.48,10.05,5.93,1.94.77,3.56.66,4.96-.97Z"/>
  <path class="cls-2" d="m252.45,565.99c-1.4,1.63-3.02,1.74-4.96.97-3.67-1.46-7.06-3.31-10.05-5.93-15.47-13.56-28.3-29.28-38.35-47.23-5.88-10.49-10.6-21.48-13.63-33.16-.91-3.5-1.16-7.09-1.88-10.61-.16-.8.02-1.61.4-2.32,1.46-2.77,3.05-5.39,5.64-7.34,3.77-2.84,7.31-5.96,10.44-9.52,4.37-4.97,7.31-10.65,8.42-17.22.61-3.61.51-7.17-.96-10.6-1.61-3.76-3.97-4.7-7.68-3.05-2.45,1.09-4.49,2.76-6.38,4.61-1.32,1.28-2.55,2.64-3.83,3.96-.9.93-1.87,1.75-3.07,2.26-2.39,1.02-4.71.9-6.8-.71-2.01-1.54-2.74-3.67-2.42-6.16.22-1.68.92-3.22,1.49-4.8,2.16-5.93,3.08-12.06,3-18.35-.03-2.01-.27-3.99-.99-5.88-1.85-4.88-6.31-6.47-10.85-3.91-.21.12-.42.23-.62.37-9.19,6.82-15.55,15.57-17.85,26.91-1.11,5.45.14,10.48,3.79,14.8.88,1.04,1.81,2.02,2.7,3.05.57.66,1.19,1.31,1.65,2.05,1.36,2.21,1.24,4.82-.27,6.75-1.6,2.04-3.75,2.61-6.22,2.1-1.02-.21-1.94-.72-2.86-1.21-1.48-.78-2.96-1.58-4.49-2.26-3.12-1.39-6.21-1.23-9.23.37-1.21.64-2.36,1.36-3.33,2.33-8.68,8.68-9.08,22.04.49,30.1,5.88,4.95,12.8,7.76,20.33,9.09,2.06.36,4.16.29,6.22-.03,2.86-.44,4.97.7,6.68,2.86,1.4,1.77,2.45,3.74,3.44,5.75,2.05,4.17,3.55,8.56,5.17,12.9,7.13,19.08,16.04,37.27,27.14,54.37,10.69,16.46,23.12,31.38,38.14,44.08,3.84,3.24,7.7,6.47,10.53,10.71.34.72.69,1.43,1.03,2.15.56,1.2.5,2.34-.42,3.33-.79.85-1.96,1.02-3.32.35-3.3-1.61-6.55-3.25-9.51-5.51-15.69-12-29.1-26.19-40.57-42.21-15.35-21.45-27.55-44.56-35.94-69.61-1.04-3.11-2.24-6.15-3.53-9.17-.47-1.1-1.07-1.39-2.21-1.18-3.86.69-7.65.13-11.39-.86-7.37-1.93-14.09-5.14-19.81-10.27-9.6-8.59-12.99-21.72-8.75-33.9,1.43-4.11,3.45-7.91,6.29-11.23,4.22-4.93,9.44-8.05,15.98-8.79,1.92-.22,1.93-.26,1.56-2.18-1.2-6.2-.61-12.28,1.41-18.21,3.68-10.8,10.12-19.69,19.02-26.81,1.63-1.3,3.39-2.41,5.27-3.31,8.82-4.21,18.57-1.68,24.25,6.28,3.08,4.32,4.26,9.24,4.53,14.44.15,2.94,0,5.89-.24,8.77.81.47,1.37.04,1.94-.13,8.86-2.65,16.66.41,21.3,8.4,4.22,7.26,4.81,14.98,2.7,22.95-3.65,13.76-12.09,23.92-23.97,31.43-.87.55-1.82,1.03-2.8,1.34-1.26.4-1.26,1.06-.88,2.14,9.74,28.02,24.15,53.2,45.19,74.35,1.8,1.81,3.64,3.61,5.63,5.21,2.77,2.23,5.02,4.9,7.21,7.67,1.05,1.34,1.43,2.78,1.1,4.44Z"/>
</svg>