<?xml version="1.0" encoding="UTF-8"?>
<svg id="_图层_1" data-name="图层 1" xmlns="http://www.w3.org/2000/svg" viewBox="0 0 960 960">
  <defs>
    <style>
      .cls-1 {
        fill: #f3d5aa;
      }

      .cls-1, .cls-2 {
        stroke-width: 0px;
      }

      .cls-2 {
        fill: #050404;
      }
    </style>
  </defs>
  <path class="cls-1" d="m231.07,584.38c1.75.12,2.57,1.57,3.48,2.68,4.41,5.4,7.44,11.44,8.29,18.48.18,1.5.42,2.99.41,4.5,0,.74.13,1.42.51,2.05-2.09-.13-4.14.17-6.18.64-4.51,1.05-9.01,2.18-13.37,3.75-6.71,2.41-13.58,4.22-20.58,5.49-7.79,1.41-15.6,2.69-23.57,1.73-8.84-1.06-16.88-4.14-24-9.51-4.68-3.53-7.59-8.16-8.25-14.06-.36-3.19-.25-6.39.21-9.57,1.18-8.12,3.96-15.79,6.68-23.47.61-1.73,1.16-3.48,2.03-5.12,2.03-3.82,1.16-6.64-2.66-8.81-1.18-.67-2.4-1.27-3.58-1.94-2.78-1.55-4-4.01-4.11-7.11-.07-1.94.26-3.82.74-5.69,2.43-9.38,5.77-18.44,9.87-27.22,1.22-2.61,2.75-5.05,4.38-7.42.3-.43.48-1,1.35-1.22,0,.58,0,1.1,0,1.61,0,2.08-.02,4.16-.01,6.23,0,1.29.22,2.55.75,3.73.37.84.94,1.51,1.94,1.57,1.01.06,1.68-.54,2.06-1.38.43-.94.79-1.92,1.03-2.93,1.29-5.36,2.53-10.73,3.78-16.09,1.16-4.98,2.29-9.96,3.73-14.87.8-2.73,2.48-4.57,5.09-5.66,2.54-1.06,5.15-1.81,7.9-1.71,10.47.37,13.32,5.62,13.91,12.86.52,6.38-.43,12.6-2.67,18.6-1.4,3.75-3.02,7.4-4.77,10.99-4.44,9.12-8.95,18.21-13.38,27.34-3.28,6.77-6.13,13.71-8.12,20.98-1.84,6.73-3.23,13.54-2.65,20.58.79,9.67,6.97,16.23,16.56,17.72,6.69,1.04,13.19-.05,19.71-1.49,7.84-1.74,14.58-5.54,20.84-10.38,1.93-1.49,3.36-3.23,2.68-5.92Z"/>
  <path class="cls-2" d="m231.07,584.38c.67,2.68-.75,4.42-2.68,5.92-6.26,4.84-13,8.64-20.84,10.38-6.52,1.44-13.02,2.53-19.71,1.49-9.59-1.49-15.77-8.05-16.56-17.72-.58-7.04.81-13.85,2.65-20.58,1.98-7.27,4.83-14.22,8.12-20.98,4.43-9.13,8.93-18.22,13.38-27.34,1.75-3.59,3.37-7.24,4.77-10.99,2.24-6.01,3.19-12.22,2.67-18.6-.59-7.24-3.44-12.49-13.91-12.86-2.75-.1-5.37.66-7.9,1.71-2.61,1.09-4.29,2.93-5.09,5.66-1.43,4.91-2.56,9.9-3.73,14.87-1.25,5.37-2.49,10.73-3.78,16.09-.24,1-.61,1.99-1.03,2.93-.38.84-1.05,1.43-2.06,1.38-1-.06-1.56-.73-1.94-1.57-.53-1.18-.74-2.44-.75-3.73,0-2.08,0-4.16.01-6.23,0-.52,0-1.04,0-1.61-.86.22-1.05.79-1.35,1.22-1.63,2.37-3.17,4.82-4.38,7.42-4.09,8.78-7.43,17.84-9.87,27.22-.48,1.86-.81,3.75-.74,5.69.12,3.1,1.34,5.56,4.11,7.11,1.19.66,2.4,1.27,3.58,1.94,3.82,2.17,4.69,4.99,2.66,8.81-.87,1.64-1.42,3.39-2.03,5.12-2.72,7.68-5.49,15.35-6.68,23.47-.46,3.18-.57,6.38-.21,9.57.66,5.89,3.57,10.52,8.25,14.06,7.12,5.37,15.15,8.45,24,9.51,7.98.96,15.78-.32,23.57-1.73,7-1.27,13.87-3.08,20.58-5.49,4.36-1.57,8.86-2.7,13.37-3.75,2.03-.47,4.08-.77,6.18-.64,1.03,1.97.92,3.24-.43,4.76-.97,1.1-2.2,1.86-3.49,2.49-14.44,7.05-29.39,12.42-45.43,14.5-9.03,1.17-17.86.77-26.54-2.01-6.22-1.99-11.94-4.97-17.13-8.92-9.78-7.46-13.94-17.37-12.81-29.57.61-6.58,2.54-12.84,4.72-19.02,1.3-3.69,2.75-7.33,4.13-10.99.63-1.68.66-1.73-.83-2.61-8.02-4.76-10.2-12.06-9.01-20.78.56-4.13,1.86-8.1,3.19-12.03,1.77-5.22,3.75-10.36,5.87-15.45,2.76-6.62,6.59-12.58,11.07-18.15,1.76-2.19,3.63-4.29,6.5-5.07.89-.24.93-.95,1.06-1.67.47-2.59,1-5.18,1.46-7.77,1.72-9.72,7.69-15.26,17.06-17.55,4.6-1.13,9.18-1.2,13.75,0,10.47,2.73,16.83,10.39,18.04,21.69.93,8.69-.57,17.05-3.68,25.14-3.22,8.36-7.42,16.28-11.44,24.27-3.19,6.35-6.58,12.61-9.55,19.07-3.63,7.88-6.39,16.02-7.22,24.73-.21,2.23-.37,4.47-.02,6.69.63,4.01,2.33,5.73,6.31,6.4,3.36.57,6.71.25,10.01-.39,3.14-.6,6.26-1.3,9.34-2.15,4.54-1.26,9.24-1.89,13.72-3.36,1.06-.35,2.15-.66,3.16-1.11,2.92-1.33,3.48-1.24,5.5,1.15Z"/>
</svg>