<?xml version="1.0" encoding="UTF-8"?>
<svg id="_图层_1" data-name="图层 1" xmlns="http://www.w3.org/2000/svg" viewBox="0 0 960 960">
  <defs>
    <style>
      .cls-1 {
        fill: #f3d5a9;
      }

      .cls-1, .cls-2, .cls-3 {
        stroke-width: 0px;
      }

      .cls-2 {
        fill: #050404;
      }

      .cls-3 {
        fill: #f2d5a9;
      }
    </style>
  </defs>
  <path class="cls-2" d="m253.33,626.88c3.26,1.48,4.35,4.04,3.13,7.43-.63,1.75-1.75,3.22-2.84,4.7-5.02,6.81-11.03,12.63-17.88,17.58-6.88,4.98-14.21,9.18-21.86,12.87-9.98,4.81-20.32,5.76-31.07,3.44-3.58-.77-7.11-1.75-10.79-2.84-.55,2.35-1.12,4.57-2.14,6.63-6.35,12.86-16.53,20.73-30.72,22.98-6.27,1-12.26-.63-17.66-3.95-6.35-3.9-8.8-10.16-7.18-17.8.6-2.8,1.42-5.53,2.92-7.96-.31-.24-.42-.39-.56-.42-8.04-2.27-11.89-8.17-13.52-15.86-1.53-7.22.35-13.97,3.47-20.41,2.69-5.55,6.65-10.15,11.49-13.95,4.33-3.41,9.22-5.36,14.82-5.27.32,0,.64,0,.96-.01.78-.05.91-.49.65-1.14-.06-.15-.12-.3-.18-.44-3.47-7.97-3.46-16.15-1.48-24.44,2.26-9.44,6.47-17.85,13.5-24.68,3.83-3.72,8.12-6.71,13.44-7.95,4.09-.96,8.1-.74,11.98.88,9.58,3.99,14.73,11.37,16.26,21.45,1.31,8.62.05,17.04-2.19,25.36-1.88,7.03-4.23,13.9-7,20.62-.33.81-.56,1.68-.97,2.45-.58,1.1-.16,1.75.73,2.39,1.91,1.37,3.96,2.38,6.27,2.86,6.26,1.3,12.27.38,18-2.24,4.39-2,8.34-4.7,11.74-8.17,3.42-3.5,6.51-7.26,9.24-11.31,2.38-3.54,4.18-7.35,5.36-11.45.44-1.53.92-3.07,1.56-4.52,1.37-3.09,3.44-3.32,5.55-.7.45,5.94-.64,11.65-2.97,17.07-3.61,8.41-8.89,15.75-15.66,21.86-8.36,7.54-18.14,11.54-29.61,10.47-6.48-.6-11.93-3.35-16.36-8.13-2.56-2.76-3.52-5.83-2-9.45.8-1.91,1.5-3.87,2.32-5.78,2.37-5.51,4.45-11.12,6.12-16.88,1.63-5.63,2.83-11.32,2.65-17.22-.12-3.94-.7-7.8-2.41-11.41-2.74-5.81-9.1-9.62-14.87-8.93-2.79.34-5.17,1.6-7.33,3.31-4.04,3.19-6.95,7.27-9.11,11.88-5.28,11.29-6.57,22.64-.25,34.04.58,1.04,1.02,2.18,1.33,3.33,1.2,4.47-1.78,7.46-6.28,6.35-1.16-.29-2.3-.68-3.45-.99-7.57-2.05-13.98-.28-19.35,5.56-3.97,4.32-6.35,9.3-7.45,15.03-.68,3.55-.58,6.99.6,10.4,1.73,5.03,4.53,7.19,9.86,7.02,9.3-.29,17.42-3.73,24.3-9.96,2.34-2.12,3.95-4.82,4.95-7.83.59-1.78.36-2.19-1.39-2.93-2.65-1.12-5.21-2.43-7.93-3.37-1.56-.54-2.11-1.4-2.05-2.6.06-1.26.92-2.21,2.42-2.61.46-.12.94-.21,1.42-.23,1.84-.07,3.68-.17,5.51-.13,2.43.05,4.75.64,6.88,1.83,2.81,1.57,4.28,3.99,4.47,7.19.16,2.78-.53,5.38-1.62,7.91-.31.71-.84,1.34-.87,2.21.22.13.4.3.61.36,5.05,1.66,9.15,4.52,11.53,9.42.53,1.08,1.36,1.46,2.38,1.76,4.47,1.3,9.08,1.78,13.67,2.39,8.9,1.18,17.11-.79,24.99-4.88,13.21-6.86,25.11-15.29,33.8-27.66,1.7-2.41,3.76-4.35,6.87-4.74,0,0,.03,0,.03,0,.37.28.77.29,1.2.18Zm-98.79,28.39c-2.09,2.51-4.38,4.49-6.9,6.18-6.46,4.32-13.41,7.41-21.19,8.39-1.09.14-1.68.58-2.09,1.6-1.17,2.92-1.88,5.92-2.04,9.07-.19,3.69,1.42,6.28,4.61,8,3.61,1.94,7.46,2.81,11.55,2.5,10.34-.77,21.85-10.06,24.81-19.99,1.3-4.36.04-8.5-3.48-11.39-1.66-1.37-3.56-2.45-5.27-4.37Z"/>
  <path class="cls-1" d="m252.1,626.7c-3.11.39-5.17,2.33-6.87,4.74-8.69,12.38-20.58,20.8-33.8,27.66-7.88,4.09-16.09,6.05-24.99,4.88-4.6-.61-9.2-1.09-13.67-2.39-1.02-.3-1.86-.68-2.38-1.76-2.38-4.9-6.48-7.76-11.53-9.42-.21-.07-.39-.23-.61-.36.03-.87.56-1.5.87-2.21,1.09-2.53,1.79-5.13,1.62-7.91-.19-3.2-1.66-5.63-4.47-7.19-2.13-1.19-4.46-1.77-6.88-1.83-1.84-.04-3.68.06-5.51.13-.47.02-.96.1-1.42.23-1.5.4-2.36,1.35-2.42,2.61-.06,1.2.5,2.06,2.05,2.6,2.73.94,5.29,2.25,7.93,3.37,1.75.74,1.98,1.15,1.39,2.93-1,3.01-2.61,5.71-4.95,7.83-6.88,6.23-15,9.67-24.3,9.96-5.33.17-8.12-2-9.86-7.02-1.17-3.4-1.27-6.85-.6-10.4,1.09-5.72,3.48-10.71,7.45-15.03,5.36-5.84,11.78-7.61,19.35-5.56,1.16.31,2.29.7,3.45.99,4.5,1.11,7.48-1.88,6.28-6.35-.31-1.15-.75-2.29-1.33-3.33-6.32-11.4-5.03-22.75.25-34.04,2.16-4.61,5.07-8.69,9.11-11.88,2.16-1.71,4.54-2.98,7.33-3.31,5.77-.7,12.12,3.11,14.87,8.93,1.7,3.61,2.29,7.47,2.41,11.41.18,5.9-1.02,11.6-2.65,17.22-1.67,5.76-3.75,11.37-6.12,16.88-.82,1.91-1.52,3.87-2.32,5.78-1.52,3.63-.56,6.7,2,9.45,4.43,4.78,9.88,7.52,16.36,8.13,11.47,1.07,21.25-2.93,29.61-10.47,6.78-6.11,12.05-13.45,15.66-21.86,2.32-5.42,3.42-11.13,2.97-17.07,3.64-.71,6.13,2.3,7.25,5.29,1.26,3.35,2.48,6.72,3.84,10.03,1.58,3.84,2.9,7.74,3.26,11.9.14,1.58.13,3.18.1,4.78-.02.96.35,1.5,1.26,1.7Z"/>
  <path class="cls-1" d="m253.33,626.88c-.42.11-.83.1-1.2-.18.44-.22.85-.24,1.2.18Z"/>
  <path class="cls-3" d="m154.54,655.27c1.72,1.92,3.61,3,5.27,4.37,3.52,2.89,4.78,7.04,3.48,11.39-2.96,9.93-14.47,19.21-24.81,19.99-4.09.31-7.94-.56-11.55-2.5-3.19-1.72-4.8-4.31-4.61-8,.16-3.15.87-6.15,2.04-9.07.41-1.03,1-1.47,2.09-1.6,7.77-.98,14.73-4.07,21.19-8.39,2.52-1.69,4.81-3.67,6.9-6.18Z"/>
</svg>