<?xml version="1.0" encoding="UTF-8"?>
<svg id="_图层_1" data-name="图层 1" xmlns="http://www.w3.org/2000/svg" viewBox="0 0 960 960">
  <defs>
    <style>
      .cls-1 {
        fill: #f3d5aa;
      }

      .cls-1, .cls-2, .cls-3 {
        stroke-width: 0px;
      }

      .cls-2 {
        fill: #050404;
      }

      .cls-3 {
        fill: #f2d4a9;
      }
    </style>
  </defs>
  <path class="cls-2" d="m231.67,588.74c1,2.71.18,4.37-2.85,5.02-5.73,1.23-11.5,1.87-17.34.45-9.16-2.24-17.38-6.36-24.67-12.28-8.15-6.62-14.87-14.45-20.02-23.64-8.94-15.98-14.63-32.95-15.88-51.3-.27-4,.07-7.99.32-11.98.03-.55.06-1.1.1-1.91-2.3.11-4.53.15-6.71-.33-1.56-.35-3.14-.62-4.65-1.11-4.36-1.42-7.8-4.02-9.79-8.25-.5-1.06-.99-1.43-2.17-1.05-10.23,3.29-23.01-2.56-28.42-11.92-2.48-4.28-4.02-8.87-4.82-13.71-1.19-7.25-1.18-14.49.72-21.64,1.27-4.78,3.51-9.09,6.79-12.8,7.25-8.19,16.22-11,26.82-8.26,1.71.44,2.67.2,3.8-1.18,8.18-10.01,23.93-11.39,34.55-2.9,4.65,3.71,6.62,8.87,7.67,14.5.22,1.17.38,2.35.59,3.63,1.51-.25,2.92-.49,4.33-.71,11.3-1.77,22.66,5.6,24.38,18.9,1.3,10.05-1.95,18.76-8.39,26.36-2.32,2.74-4.8,5.36-7.36,7.88-1.8,1.78-2.42,3.85-2.43,6.26-.02,4.35.74,8.59,1.8,12.78,2.44,9.59,6.06,18.67,11.6,26.93,2.15,3.21,4.59,6.14,7.56,8.63,3.56,2.98,7.24,5.79,11.02,8.47,2.42,1.72,5.09,2.98,7.83,4.11.96.39,1.93.77,2.87,1.21,2.39,1.11,2.86,1.99,2.63,4.72-1.28,1.86-3.08,2.42-5.23,2.06-.71-.12-1.42-.24-2.11-.41-4.17-1-7.99-2.79-11.53-5.18-3.85-2.59-7.55-5.38-11.16-8.29-3.45-2.79-6.31-6.1-8.8-9.76-5.44-7.96-8.78-16.83-11.38-26.01-1.66-5.87-2.61-11.86-2.74-17.96-.12-5.88,1.26-11.23,5.49-15.62,1.38-1.44,2.58-3.05,3.87-4.58,3.28-3.88,5.26-8.37,6.19-13.33.55-2.95.46-5.9-.42-8.78-1.63-5.35-5.86-8.41-11.41-7.8-7.4.82-13.56,4.11-17.94,10.28-1.78,2.5-2.99,5.3-3.17,8.42-.19,3.27,1.23,4.92,4.49,5.32,1.04.13,2.06.02,3.09-.24,1.56-.39,3.01-1.05,4.46-1.73,2.38-1.12,4.76-2.27,7.14-3.39,1.82-.86,2.91-.8,3.73.14.89,1.04.74,2.18-.62,3.87-1.25,1.56-2.44,3.18-3.86,4.58-5.65,5.53-15.86,9.41-24.58,1.61-.56-.5-1.08-.57-1.74-.32-2.35.89-4.78,1.27-7.29,1.21-.85-.02-1.34.23-1.48,1.14-.24,1.55-1.17,2.78-2.09,3.99-1.46,1.92-3.13,3.65-5.1,5.03-.99.7-.9,1.26-.25,2.12,1.3,1.73,2.96,2.91,4.98,3.58,3.4,1.13,6.88,1.4,10.41.8,1.1-.19,2.19-.45,3.3-.61,2.93-.41,5.24,1.42,5.43,4.36.07,1.11-.09,2.23-.2,3.34-.64,6.22-.76,12.46,0,18.67,1.7,13.96,6.09,27.07,12.6,39.52,4.65,8.89,10.54,16.74,18.17,23.29,5.98,5.14,12.7,8.85,20.28,10.98,4,1.12,8.08,1.91,12.04,3.19,1.58.51,3.26.85,4.95.78,1.02-.04,1.86.33,2.67.87Zm-104.67-166.48c-7.14-1.24-13.04.92-17.77,6.35-1.92,2.2-3.21,4.77-4.14,7.51-2.17,6.36-2.29,12.85-1.17,19.41.62,3.64,1.58,7.2,3.59,10.35,3.24,5.09,7.9,8.41,13.94,8.5,6.66.1,11.51-3.5,14.88-9.34-5.32-3.25-8.06-8.23-9.94-13.79-2.97-8.78-2.96-17.56-.07-26.36.27-.82.75-1.59.69-2.62Zm7.01,15.99c.07,4.75.92,9.17,2.78,13.42,2.3,5.27,8.14,6.99,12.59,5.9,1.23-.3,1.77-.8,1.93-2.22,1.04-9.67,5.76-17.11,13.95-22.35.67-.43,1.36-.85,2.07-1.21.79-.4.91-.94.67-1.77-.89-3.08-1.92-6.11-3.61-8.85-2.87-4.63-8.89-7.3-14.28-6.43-5.7.93-9.83,4.01-12.46,9.12-2.34,4.55-3.42,9.44-3.64,14.4Z"/>
  <path class="cls-1" d="m231.67,588.74c-.81-.54-1.64-.92-2.67-.87-1.69.07-3.37-.27-4.95-.78-3.96-1.28-8.04-2.07-12.04-3.19-7.58-2.13-14.3-5.84-20.28-10.98-7.63-6.56-13.53-14.4-18.17-23.29-6.51-12.45-10.9-25.56-12.6-39.52-.75-6.21-.63-12.45,0-18.67.11-1.11.27-2.24.2-3.34-.19-2.94-2.5-4.77-5.43-4.36-1.11.16-2.2.42-3.3.61-3.54.6-7.01.33-10.41-.8-2.02-.67-3.68-1.85-4.98-3.58-.65-.87-.75-1.43.25-2.12,1.97-1.39,3.64-3.12,5.1-5.03.92-1.21,1.85-2.44,2.09-3.99.14-.91.64-1.16,1.48-1.14,2.5.06,4.94-.32,7.29-1.21.66-.25,1.18-.18,1.74.32,8.72,7.8,18.93,3.92,24.58-1.61,1.42-1.39,2.61-3.02,3.86-4.58,1.35-1.69,1.51-2.83.62-3.87-.81-.95-1.91-1-3.73-.14-2.38,1.12-4.76,2.27-7.14,3.39-1.45.68-2.9,1.34-4.46,1.73-1.02.26-2.05.36-3.09.24-3.26-.4-4.68-2.05-4.49-5.32.18-3.12,1.4-5.92,3.17-8.42,4.38-6.17,10.54-9.46,17.94-10.28,5.56-.62,9.79,2.44,11.41,7.8.88,2.89.97,5.83.42,8.78-.92,4.96-2.91,9.45-6.19,13.33-1.29,1.53-2.49,3.14-3.87,4.58-4.23,4.38-5.61,9.74-5.49,15.62.12,6.1,1.08,12.09,2.74,17.96,2.6,9.19,5.94,18.06,11.38,26.01,2.5,3.66,5.36,6.97,8.8,9.76,3.61,2.92,7.32,5.7,11.16,8.29,3.54,2.39,7.36,4.18,11.53,5.18.7.17,1.41.29,2.11.41,2.15.36,3.95-.2,5.23-2.06,2.27,1.02,2.84,3.21,3.22,5.27,1.35,7.35,2.03,14.74.44,22.17-.49,2.31-1.47,4.35-2.87,6.21-.35.46-.64.91-.64,1.49Z"/>
  <path class="cls-3" d="m127,422.25c.06,1.03-.42,1.8-.69,2.62-2.89,8.8-2.9,17.58.07,26.36,1.88,5.57,4.62,10.54,9.94,13.79-3.36,5.85-8.22,9.45-14.88,9.34-6.04-.09-10.7-3.41-13.94-8.5-2-3.15-2.97-6.7-3.59-10.35-1.11-6.56-1-13.05,1.17-19.41.94-2.74,2.22-5.31,4.14-7.51,4.73-5.44,10.63-7.59,17.77-6.35Z"/>
  <path class="cls-3" d="m134.01,438.24c.22-4.96,1.3-9.84,3.64-14.4,2.62-5.1,6.75-8.19,12.46-9.12,5.39-.88,11.41,1.8,14.28,6.43,1.7,2.74,2.73,5.76,3.61,8.85.24.83.12,1.36-.67,1.77-.71.36-1.4.78-2.07,1.21-8.19,5.24-12.91,12.68-13.95,22.35-.15,1.41-.7,1.92-1.93,2.22-4.45,1.1-10.29-.63-12.59-5.9-1.86-4.25-2.71-8.67-2.78-13.42Z"/>
</svg>