<?xml version="1.0" encoding="UTF-8"?>
<svg id="_图层_1" data-name="图层 1" xmlns="http://www.w3.org/2000/svg" viewBox="0 0 960 960">
  <defs>
    <style>
      .cls-1 {
        fill: #f3d5aa;
      }

      .cls-1, .cls-2, .cls-3 {
        stroke-width: 0px;
      }

      .cls-2 {
        fill: #f1d3a8;
      }

      .cls-3 {
        fill: #050404;
      }
    </style>
  </defs>
  <path class="cls-3" d="m248.53,595.25c1.35.37,2.36,1.1,2.34,2.63-.01,1.51-1.09,2.25-2.34,2.72-3.44,1.29-6.87,2.6-10.34,3.78-14.38,4.9-22.56,15.03-25.17,29.83-1.8,10.24-.51,20.22,2.65,30.03,1.47,4.56,3.2,9.06,3.8,13.85.92,7.38.68,14.64-2.04,21.72-6.01,15.66-25.39,22.9-40.11,15.75-3.11-1.51-5.99-3.37-8.55-5.69-7.17-6.5-9.64-14.46-7.35-23.87.47-1.93,1.09-3.82,1.65-5.75-1.05-.54-1.96.04-2.85.18-3.54.57-6.88.31-9.78-2.02-.78-.62-1.28-.29-1.89.12-2.44,1.6-5.09,2.65-8.02,2.93-4.96.47-9.12-1.06-12.38-4.9-3.37-3.98-5.09-8.7-5.76-13.75-1.62-12.18.83-23.54,7.61-33.85,5.66-8.6,12.99-15.33,22.44-19.62,2.72-1.24,5.52-2.14,8.52-2.25,1.06-.04,1.72-.35,2.31-1.3,10.05-16.04,24.72-25.75,42.64-30.95,4.76-1.38,9.56-2.61,14.5-3.18,1.04-.12,2.07-.19,3.11-.02,2.83.46,3.57,1.68,2.75,4.54-.98.83-2.12,1.39-3.3,1.88-5.1,2.09-10.19,4.2-15.28,6.3-7.26,3-14.17,6.63-20.5,11.35-5.4,4.03-9.53,9.18-13.48,14.53-.45.62-.49,1.08.05,1.67,2.43,2.62,3.57,5.86,4.1,9.29.21,1.37.72,1.86,2.06,2.05,2.35.34,4.4,1.42,5.97,3.27,2.48,2.94,2.39,7.27-.18,10.11-2.08,2.3-4.61,2.13-6.24-.47-.92-1.47-2.15-2.04-3.85-1.73-3.82.69-7.1,2.47-9.91,5.05-5.63,5.17-9.34,11.52-11,18.99-.76,3.41-.7,6.84.74,10.12.94,2.13,1.58,2.51,3.89,2.34,3.4-.24,6.58-1.26,9.62-2.74,2.16-1.05,4.29-2.13,6.47-3.12,1.34-.61,2.69-.8,4.17-.18,1.25.52,2.75.62,3.13,2.22.39,1.65-.92,2.41-1.93,3.29-5.35,4.69-8.77,10.53-10.22,17.48-1.18,5.66.47,10.43,4.91,14.17,2.67,2.25,5.73,3.7,9.07,4.72,7.71,2.37,19.57-2.37,22.7-11.58,1.92-5.66,2.54-11.35,1.6-17.23-.65-4.04-2.05-7.88-3.26-11.77-2.87-9.26-4.31-18.64-3.16-28.37.96-8.11,2.82-15.92,7.18-22.91,6.66-10.66,16.04-17.47,28.65-19.26,3.38-.48,6.86-.3,10.29-.42Zm-118.26,60.64c-.07,4.93,1.25,10.31,3.12,13.64,1.76,3.13,4.42,4.23,7.82,3.89,1.11-.11,2.19-.46,3.29-.63,1.16-.18,1.41-.64.96-1.79-.97-2.47-1.5-5.04-1.63-7.71-.68-14.5,8.12-30.07,20.9-36.95,3.33-1.79,3.27-1.77,1.89-5.4-.9-2.38-2.57-3.55-5-3.86-2.14-.28-4.11.33-6.06,1.11-12.37,4.93-25.02,19.31-25.31,37.71Z"/>
  <path class="cls-1" d="m248.53,595.25c-3.43.12-6.91-.06-10.29.42-12.61,1.79-21.99,8.6-28.65,19.26-4.36,6.99-6.22,14.8-7.18,22.91-1.16,9.73.29,19.11,3.16,28.37,1.21,3.89,2.61,7.73,3.26,11.77.95,5.88.32,11.57-1.6,17.23-3.13,9.21-14.99,13.96-22.7,11.58-3.34-1.03-6.4-2.48-9.07-4.72-4.44-3.74-6.09-8.51-4.91-14.17,1.45-6.95,4.87-12.79,10.22-17.48,1.01-.89,2.32-1.65,1.93-3.29-.38-1.61-1.88-1.7-3.13-2.22-1.48-.62-2.83-.43-4.17.18-2.18,1-4.32,2.08-6.47,3.12-3.05,1.48-6.23,2.5-9.62,2.74-2.31.16-2.95-.22-3.89-2.34-1.44-3.28-1.5-6.7-.74-10.12,1.66-7.47,5.37-13.82,11-18.99,2.81-2.58,6.09-4.36,9.91-5.05,1.7-.31,2.93.27,3.85,1.73,1.63,2.6,4.16,2.77,6.24.47,2.57-2.85,2.66-7.17.18-10.11-1.56-1.85-3.61-2.94-5.97-3.27-1.34-.19-1.85-.68-2.06-2.05-.53-3.43-1.67-6.67-4.1-9.29-.54-.59-.51-1.05-.05-1.67,3.95-5.35,8.09-10.51,13.48-14.53,6.33-4.72,13.23-8.35,20.5-11.35,5.09-2.1,10.18-4.21,15.28-6.3,1.19-.49,2.32-1.04,3.3-1.88,3.02.04,5.74,1.22,8.34,2.53,3.61,1.81,6.99,3.98,9.84,6.97,2.45,2.56,3.27,5.33,2.26,8.65.37.85,1.42.22,1.82.91Z"/>
  <path class="cls-2" d="m130.27,655.88c.29-18.4,12.94-32.77,25.31-37.71,1.95-.78,3.91-1.39,6.06-1.11,2.43.31,4.1,1.49,5,3.86,1.37,3.64,1.44,3.61-1.89,5.4-12.79,6.88-21.59,22.46-20.9,36.95.13,2.66.66,5.24,1.63,7.71.45,1.14.2,1.6-.96,1.79-1.1.17-2.18.52-3.29.63-3.4.34-6.07-.76-7.82-3.89-1.87-3.33-3.19-8.72-3.12-13.64Z"/>
</svg>