<?xml version="1.0" encoding="UTF-8"?>
<svg id="_图层_1" data-name="图层 1" xmlns="http://www.w3.org/2000/svg" viewBox="0 0 960 960">
  <defs>
    <style>
      .cls-1 {
        fill: #f3d5aa;
      }

      .cls-1, .cls-2 {
        stroke-width: 0px;
      }

      .cls-2 {
        fill: #050404;
      }
    </style>
  </defs>
  <path class="cls-1" d="m245.13,614.12c3.22,1.04,4.72,3,4.82,6.23.1,3.49-.38,6.94-.82,10.39-.02.16-.08.31-.08.47.09,3.09-.4,6.15-.48,9.24-.88.05-1.8.03-2.51.64-1.86,1.61-4.02,2.9-5.45,5-5.65,8.24-12.92,15.01-20.14,21.8-6.89,6.47-14.97,11.15-23.56,15-2.92,1.31-5.99,2.22-9.13,2.89-9.42,2-17.82-.35-24.53-6.99-9.76-9.65-12.49-21.57-9.56-34.85.66-3.01-.31-4.98-3.27-5.9-1.29-.4-2.65-.6-3.98-.83-8.81-1.56-15.51-6.45-20.99-13.27-.85-1.06-1.51-2.26-2.04-3.52-.91-2.19-1.21-4.44-.7-6.8.84-3.95,3.09-6.96,6.18-9.42,3.29-2.62,7.11-4.27,10.98-5.81.96-.38,1.96-.73,2.84-1.27,3.27-1.98,4.08-5.76,1.93-8.92-.4-.59-.88-1.14-1.4-1.64-1.48-1.45-2.32-3.2-2.78-5.21-.6-2.62-.69-5.26-.14-7.86,2.41-11.44,8.23-20.85,17.18-28.34,1.35-1.13,2.86-2.06,4.54-2.64.9-.31,1.83-.56,2.77-.72,1.06-.19,1.73.3,1.7,1.43-.04,1.36-.06,2.72-.24,4.06-.72,5.31-1.48,10.61-1.97,15.94-.57,6.22-.95,12.44-.4,18.68.5,5.54,4.46,8.14,9.79,6.48,1.37-.43,2.7-1.01,4.09-1.38,13.12-3.48,23.81,7.79,21.46,19.55-1.57,7.84-5.59,14.03-12.74,17.96-2.1,1.16-4.27,2.17-6.48,3.11-.88.38-1.77.73-2.63,1.17-2.31,1.17-3.77,2.94-3.74,5.66.01.83-.26,1.57-.5,2.33-.37,1.15-.63,2.34-.48,3.54.6,4.7,1.47,9.33,3.89,13.5,4.1,7.08,11.46,10.25,19.42,8.44,2.67-.61,5.2-1.58,7.61-2.86,13.06-6.95,24.01-16.39,32.69-28.34,3.75-5.16,6.94-10.73,8.82-16.93Z"/>
  <path class="cls-2" d="m245.13,614.12c-1.88,6.2-5.07,11.77-8.82,16.93-8.68,11.95-19.63,21.39-32.69,28.34-2.4,1.28-4.94,2.25-7.61,2.86-7.97,1.81-15.32-1.36-19.42-8.44-2.41-4.17-3.29-8.8-3.89-13.5-.15-1.2.11-2.39.48-3.54.24-.76.51-1.5.5-2.33-.03-2.71,1.43-4.49,3.74-5.66.85-.43,1.75-.79,2.63-1.17,2.21-.94,4.37-1.96,6.48-3.11,7.15-3.93,11.17-10.12,12.74-17.96,2.35-11.75-8.34-23.02-21.46-19.55-1.39.37-2.71.96-4.09,1.38-5.33,1.66-9.3-.94-9.79-6.48-.56-6.24-.17-12.46.4-18.68.49-5.34,1.25-10.64,1.97-15.94.18-1.34.21-2.71.24-4.06.03-1.13-.63-1.62-1.7-1.43-.94.16-1.87.41-2.77.72-1.68.58-3.19,1.51-4.54,2.64-8.95,7.48-14.77,16.89-17.18,28.34-.55,2.6-.46,5.24.14,7.86.46,2,1.29,3.76,2.78,5.21.51.5.99,1.05,1.4,1.64,2.14,3.15,1.34,6.93-1.93,8.92-.88.53-1.88.88-2.84,1.27-3.87,1.54-7.68,3.19-10.98,5.81-3.09,2.46-5.34,5.47-6.18,9.42-.5,2.36-.21,4.61.7,6.8.52,1.26,1.18,2.46,2.04,3.52,5.48,6.82,12.18,11.71,20.99,13.27,1.34.24,2.69.43,3.98.83,2.96.92,3.93,2.89,3.27,5.9-2.93,13.29-.2,25.21,9.56,34.85,6.72,6.64,15.12,9,24.53,6.99,3.14-.67,6.21-1.58,9.13-2.89,8.58-3.84,16.66-8.53,23.56-15,7.23-6.78,14.49-13.55,20.14-21.8,1.44-2.1,3.59-3.38,5.45-5,.7-.61,1.63-.6,2.51-.64,2.11.9,2.65,2.56,2.38,4.69-.36,2.77-1.41,5.21-3.09,7.43-3.47,4.6-7.22,8.97-11.24,13.09-3.46,3.55-6.93,7.09-10.56,10.47-8.38,7.8-17.75,14.1-28.44,18.32-4.11,1.62-8.35,2.7-12.75,3.16-17.19,1.78-35.93-10.28-40.46-30.01-1.39-6.07-1.6-12.18-.58-18.33.13-.77.21-1.56.33-2.41-.86-.19-1.63-.36-2.4-.54-.93-.22-1.9-.36-2.79-.69-11.22-4.19-19.65-11.59-24.62-22.49-3.28-7.19-1.98-14.23,2.31-20.73,2.84-4.3,6.76-7.42,11.23-9.89,1.6-.89,3.25-1.69,4.94-2.56-.62-1.79-1.4-3.45-1.82-5.24-1.08-4.69-1.09-9.4.13-14.02,3.37-12.79,9.91-23.66,20.22-32.08,3.44-2.81,7.32-4.83,11.71-5.77,7.79-1.67,13.68,2.6,14.45,10.54.45,4.65-.23,9.26-.64,13.87-.45,5.02-.84,10.03-.91,15.07-.03,2.31-.25,2.36,2.23,2.13,20.35-1.83,33.63,15.21,32.84,30.37-.5,9.67-4.94,17.55-11.95,24.07-3.79,3.53-8.28,5.96-12.9,8.19-3.01,1.46-2.98,1.48-2.49,4.73.33,2.23.81,4.4,2.01,6.35,1.68,2.73,4.11,3.9,7.3,3.52,1.69-.2,3.26-.76,4.82-1.4,3.86-1.58,7.46-3.67,10.93-5.95,9.76-6.42,18.51-13.92,25.1-23.71,1.38-2.05,2.79-4.09,4.24-6.1.6-.84,1.25-1.68,2.02-2.35,1.99-1.75,3.77-1.2,4.66,1.35.08.22.25.41.37.61Z"/>
</svg>