<?xml version="1.0" encoding="UTF-8"?>
<svg id="_图层_1" data-name="图层 1" xmlns="http://www.w3.org/2000/svg" viewBox="0 0 960 960">
  <defs>
    <style>
      .cls-1 {
        fill: #f3d5aa;
      }

      .cls-1, .cls-2 {
        stroke-width: 0px;
      }

      .cls-2 {
        fill: #050404;
      }
    </style>
  </defs>
  <path class="cls-1" d="m223.18,610.72c.61-.02,1.02-.37,1.4-.8,2.47-2.77,5.77-3.23,9.15-2.91,2.82.27,5.62.8,8.39,1.48,1.82.45,3.44,1.18,4.82,2.42.49.44.97.81,1.65.82-.58.75-1.27,1.39-1.6,2.34-1.24,3.63-2.51,7.24-2.81,11.11-.13,1.75-.45,3.49-.69,5.23-1.46,10.21-3.29,20.35-5.13,30.49-1.9,10.45-3.08,21.03-5.42,31.41-.17.77-.24,1.59-.22,2.38.07,3.18,2.05,5.41,5.18,5.95.96.16,1.91.13,2.87.05,1.99-.16,3.98-.35,5.98-.43,3.9-.16,7.63.48,11.12,2.36,2.34,1.26,3.56,3.12,3.62,5.76.04,1.6.04,3.2-.24,4.78-1.6,9.17-6.13,16.71-12.82,23.04-1.22,1.16-2.64,2.08-4.13,2.85-.71.37-1.43.71-2.24.82-1.33.18-1.76-.06-2.02-1.39-.23-1.17-.33-2.38-.79-3.5-.98-2.38-3.15-3.9-5.58-3.81-2.58.09-4.32,1.45-5.37,3.76-.44.96-.57,2-.72,3.02-.83,5.75-3.25,10.83-6.57,15.52-1.89,2.68-4.39,4.7-7.53,5.7-6.62,2.12-13.26,1.93-19.75-.47-4.24-1.57-5.52-4.39-4.41-8.78.65-2.57,1.68-4.99,2.94-7.32,2.39-4.44,4.99-8.75,7.78-12.94.71-1.07,1.38-2.15,1.67-3.42.92-4.06-2.48-7.58-6.56-6.78-1.12.22-2.1.75-3.07,1.3-3.14,1.76-6.38,3.32-9.85,4.33-2.4.7-4.85,1.03-7.34.77-3.54-.36-5.48-2.25-5.99-5.77-.23-1.59-.2-3.2.07-4.78.86-5.01,2.5-9.76,5.16-14.1,4.7-7.64,15.44-8.97,21.96-2.78.4.38.81.78,1.27,1.09,2.8,1.95,6.22,1,7.57-2.13.37-.87.62-1.82.76-2.76.85-5.53,2.14-10.98,3.3-16.45,3.58-16.96,8.08-33.71,11.51-50.71,1.12-5.55,2.66-11.04,2.7-16.76Z"/>
  <path class="cls-2" d="m223.18,610.72c-.04,5.73-1.58,11.21-2.7,16.76-3.43,16.99-7.93,33.75-11.51,50.71-1.16,5.47-2.45,10.91-3.3,16.45-.14.94-.39,1.89-.76,2.76-1.35,3.13-4.76,4.07-7.57,2.13-.46-.32-.86-.71-1.27-1.09-6.52-6.18-17.27-4.86-21.96,2.78-2.66,4.34-4.3,9.09-5.16,14.1-.27,1.58-.3,3.19-.07,4.78.51,3.53,2.45,5.41,5.99,5.77,2.5.26,4.94-.07,7.34-.77,3.47-1.01,6.71-2.57,9.85-4.33.98-.55,1.95-1.08,3.07-1.3,4.08-.8,7.49,2.72,6.56,6.78-.29,1.28-.96,2.36-1.67,3.42-2.79,4.19-5.39,8.5-7.78,12.94-1.26,2.33-2.29,4.75-2.94,7.32-1.11,4.39.17,7.21,4.41,8.78,6.49,2.4,13.13,2.59,19.75.47,3.14-1,5.63-3.02,7.53-5.7,3.32-4.69,5.73-9.77,6.57-15.52.15-1.02.29-2.06.72-3.02,1.05-2.32,2.79-3.68,5.37-3.76,2.43-.08,4.6,1.43,5.58,3.81.46,1.12.55,2.32.79,3.5.26,1.33.69,1.57,2.02,1.39.81-.11,1.53-.45,2.24-.82,1.5-.78,2.91-1.7,4.13-2.85,6.68-6.33,11.22-13.88,12.82-23.04.28-1.58.27-3.18.24-4.78-.06-2.64-1.28-4.51-3.62-5.76-3.49-1.88-7.22-2.52-11.12-2.36-2,.08-3.99.27-5.98.43-.96.08-1.91.11-2.87-.05-3.13-.54-5.1-2.78-5.18-5.95-.02-.79.05-1.61.22-2.38,2.34-10.38,3.51-20.96,5.42-31.41,1.85-10.14,3.68-20.28,5.13-30.49.25-1.74.56-3.48.69-5.23.3-3.87,1.57-7.48,2.81-11.11.33-.95,1.02-1.6,1.6-2.34,1.02-.32,2.03-.48,2.97.23.8.61,1.48,1.36,1.14,2.43-.41,1.29-.18,2.53,0,3.79.35,2.39.2,4.78-.06,7.17-1,9.05-2.45,18.05-3.75,27.06-1.53,10.6-2.8,21.23-4.17,31.85-.2,1.56-.64,3.1-.55,4.86,1.55-.08,2.96-.16,4.37-.23,4.71-.25,9.23.51,13.55,2.44,7.5,3.35,11.27,9.14,11.26,17.35,0,5.25-1.07,10.33-2.88,15.23-2.4,6.49-5.64,12.52-9.98,17.93-2.78,3.46-6,6.42-9.91,8.56-4.62,2.52-9.42,3.48-14.51,1.51-.85-.33-1.3-.2-1.68.65-.58,1.31-1.25,2.59-1.93,3.86-4.88,9.06-12.41,14.11-22.67,15.19-6.29.66-12.47.24-18.48-1.69-6.47-2.07-11.23-6-13.1-12.81-1.09-3.98-.78-7.92.39-11.82.76-2.53,1.77-4.96,2.95-7.33.32-.63.61-1.28.9-1.88-.51-.75-1.07-.3-1.56-.24-2.87.36-5.74.5-8.6,0-7.76-1.39-12.98-7.01-13.93-15-.32-2.71-.24-5.42.24-8.12,1.07-5.89,3.3-11.32,6.31-16.47,7.31-12.5,20.86-14.17,31.03-10.09.37.15.75.29,1.09.5,1.07.67,1.35.09,1.56-.86,1.19-5.38,2.37-10.76,3.65-16.12,4.06-16.93,9.02-33.62,13.4-50.47.72-2.78,1.38-5.58,2.08-8.37.15-.62.26-1.27.56-1.82.97-1.8,3.2-1.84,4.24-.08.32.54.45,1.19.67,1.79Z"/>
</svg>