<?xml version="1.0" encoding="UTF-8"?>
<svg id="_图层_1" data-name="图层 1" xmlns="http://www.w3.org/2000/svg" viewBox="0 0 960 960">
  <defs>
    <style>
      .cls-1 {
        fill: #f3d5aa;
      }

      .cls-1, .cls-2 {
        stroke-width: 0px;
      }

      .cls-2 {
        fill: #050404;
      }
    </style>
  </defs>
  <path class="cls-1" d="m245.51,586.74c.15.46.38.85.86,1.07,3.68,1.73,5.97,4.94,8.31,8.04,2.4,3.17,4.27,6.69,6.14,10.2,1.2,2.24,1.66,4.44.34,6.79-.18.32-.12.77-.17,1.16-.73-.31-1.32-.87-2.14-1.01-3.23-.55-6.42-1.26-9.74-1.01-5.59.42-11.1,1.36-16.61,2.35-10.07,1.8-20.09,3.86-30.18,5.5-19.75,3.21-39.2,7.63-58.34,13.44-1.3.39-2.61.78-3.83,1.37-3.75,1.81-4.72,5.62-2.31,8.99.88,1.23,1.9,2.37,2.91,3.51,3.12,3.51,3.47,7.41,1.64,11.59-1.97,4.49-4.89,8.22-8.99,10.97-4.38,2.94-9.18,4.84-14.38,5.68-4.34.7-8.6.58-12.61-1.59-4.8-2.6-6.84-7.27-5.44-12.55.44-1.64,1.19-3.13,2.12-4.54,1.55-2.36,3.45-4.4,5.54-6.27.96-.85,1.92-1.7,2.55-2.84,1.17-2.13,1.25-4.29-.05-6.38-1.31-2.09-3.28-2.94-5.72-2.79-1.58.1-2.88.84-4.19,1.63-6.9,4.16-14.45,5.47-22.35,4.64-5.3-.55-8.11-3.49-9.02-8.73-.7-4.01-.2-7.97.64-11.9,1.77-8.3,4.79-16.06,9.96-22.89,2.91-3.84,6.52-6.81,11.01-8.6,5.48-2.18,10.68-.14,13.25,5.18.52,1.07.83,2.24,1.23,3.37.3.82.51,1.69.91,2.46,1.25,2.37,3.75,3.59,6.19,3.13,2.6-.49,4.44-2.58,4.73-5.34.13-1.21-.12-2.4-.34-3.57-.27-1.42-.41-2.85-.41-4.29-.04-9.7,2.78-18.59,7.83-26.78,2.42-3.93,5.79-7.01,9.66-9.52,2.43-1.58,5.03-2.78,7.89-3.38,2.6-.54,4.89.06,6.93,1.78,2.12,1.79,3.19,4.14,3.73,6.79.88,4.34.38,8.59-.77,12.8-2.25,8.24-6.34,15.49-11.91,21.94-1.52,1.75-3.1,3.46-4.53,5.27-2.37,3.01-1.04,6.71,2.68,7.62,1.42.35,2.87.22,4.29.08,4.85-.5,9.69-1.06,14.54-1.54,10.27-1.02,20.4-2.9,30.49-5.04,12.26-2.6,24.63-4.73,36.71-8.14,5.53-1.56,11.06-3.14,16.39-5.33,1.79-.73,3.42-1.7,4.57-3.33Z"/>
  <path class="cls-2" d="m245.51,586.74c-1.14,1.63-2.78,2.59-4.57,3.33-5.33,2.19-10.85,3.77-16.39,5.33-12.08,3.41-24.45,5.55-36.71,8.14-10.09,2.14-20.21,4.02-30.49,5.04-4.85.48-9.69,1.05-14.54,1.54-1.43.15-2.87.27-4.29-.08-3.72-.91-5.05-4.62-2.68-7.62,1.43-1.82,3.02-3.52,4.53-5.27,5.57-6.44,9.65-13.69,11.91-21.94,1.15-4.21,1.65-8.46.77-12.8-.54-2.65-1.61-5-3.73-6.79-2.03-1.72-4.33-2.32-6.93-1.78-2.86.6-5.46,1.8-7.89,3.38-3.87,2.51-7.24,5.6-9.66,9.52-5.05,8.19-7.87,17.08-7.83,26.78,0,1.44.14,2.87.41,4.29.22,1.17.47,2.35.34,3.57-.29,2.76-2.13,4.85-4.73,5.34-2.44.46-4.94-.76-6.19-3.13-.4-.77-.61-1.64-.91-2.46-.41-1.13-.72-2.3-1.23-3.37-2.57-5.31-7.77-7.35-13.25-5.18-4.49,1.79-8.1,4.75-11.01,8.6-5.17,6.83-8.19,14.59-9.96,22.89-.83,3.93-1.34,7.88-.64,11.9.92,5.24,3.73,8.18,9.02,8.73,7.9.83,15.45-.48,22.35-4.64,1.31-.79,2.62-1.54,4.19-1.63,2.44-.15,4.41.7,5.72,2.79,1.3,2.09,1.22,4.25.05,6.38-.63,1.14-1.59,1.99-2.55,2.84-2.1,1.87-4,3.91-5.54,6.27-.93,1.41-1.68,2.9-2.12,4.54-1.4,5.28.64,9.96,5.44,12.55,4,2.16,8.27,2.29,12.61,1.59,5.2-.84,9.99-2.74,14.38-5.68,4.11-2.76,7.03-6.48,8.99-10.97,1.83-4.19,1.49-8.08-1.64-11.59-1.01-1.13-2.02-2.28-2.91-3.51-2.42-3.37-1.44-7.19,2.31-8.99,1.21-.59,2.53-.98,3.83-1.37,19.14-5.81,38.59-10.23,58.34-13.44,10.09-1.64,20.11-3.7,30.18-5.5,5.5-.99,11.02-1.93,16.61-2.35,3.32-.25,6.51.46,9.74,1.01.83.14,1.42.7,2.14,1.01,1.19,1.49,1.21,3.05.34,4.69-.52.98-1.2,1.68-2.38,1.76-.47.04-.99.04-1.4.24-4.72,2.25-9.86,2.58-14.92,3.21-12.22,1.51-24.29,3.94-36.42,6.01-16.55,2.82-32.99,6.09-49.18,10.59-1.84.51-3.67,1.04-5.41,1.54-.3.67.06,1.04.29,1.45,3.26,5.82,3.49,11.88,1.23,18.05-3.23,8.84-9.05,15.54-17.24,20.13-6.22,3.49-12.87,5.62-20.01,6.08-6.61.43-12.69-1.16-18.14-4.95-7.66-5.33-11.26-14.74-9.24-24.06.2-.93.43-1.86.66-2.85-1.37-.3-2.62.03-3.87.16-3.36.34-6.71.31-10.03-.38-9.79-2.02-15.99-9.02-17.23-19.28-.63-5.23-.17-10.38.94-15.48,2.13-9.8,5.88-18.89,11.89-26.99,3.88-5.23,8.69-9.33,14.61-12.12,6.28-2.95,12.59-3.34,18.98-.4.35.16.73.27,1.11.41.7-.64.68-1.49.87-2.23,1.23-4.73,2.79-9.34,4.97-13.72,4.81-9.68,12.2-16.71,22.02-21.15,3.75-1.7,7.69-2.77,11.86-2.4,8.39.74,15.18,6.62,17.33,14.97,1.85,7.19,1.21,14.27-1.15,21.24-2.27,6.71-5.5,12.93-9.74,18.61-.43.58-.84,1.17-1.25,1.76-.03.05,0,.15.03.37.44.54,1.1.19,1.67.15,11.33-.84,22.53-2.63,33.7-4.65,8.33-1.5,16.71-2.74,25.07-4.07,7.81-1.24,15.58-2.73,23.35-4.16,3.3-.61,6.63-1.01,9.97-1.34,1.43-.14,1.42.57,1.24,1.56Z"/>
</svg>