<?xml version="1.0" encoding="UTF-8"?>
<svg id="_图层_1" data-name="图层 1" xmlns="http://www.w3.org/2000/svg" viewBox="0 0 960 960">
  <defs>
    <style>
      .cls-1 {
        fill: #c9a5a5;
      }

      .cls-1, .cls-2, .cls-3 {
        stroke-width: 0px;
      }

      .cls-2 {
        fill: #f3d6aa;
      }

      .cls-3 {
        fill: #050404;
      }
    </style>
  </defs>
  <path class="cls-2" d="m246.31,608.98c.09.38.27.78.24,1.15-.11,1.25.47,1.78,1.64,2.2,5.33,1.92,8.8,6.86,8.96,12.53,0,.24.04.48.05.71-2.99.88-5.93,1.88-8.77,3.17-7.21,3.27-14.13,7.1-21.15,10.73-2.7,1.4-5.19,3.16-7.33,5.36-2.7,2.79-3.53,6.03-2.09,9.69,1.2,3.07,1.93,6.26,2.63,9.46,2.13,9.7,1.46,19.16-2.08,28.5-3.91,10.31-11.22,16.64-21.7,19.56-7.9,2.2-15.82,1.75-23.74.13-4.65-.95-9.14-2.31-13.04-5.16-5.39-3.92-7.86-10.72-6.3-17.18.34-1.41,1.03-2.4,2.29-3.16,3.84-2.33,7.29-5.18,10.52-8.3.4-.38.82-.74,1.33-1.19,1.41,2.12,2.67,4.25,4.34,6.07,1.52,1.66,2.74,2.09,3.93,1.42,1.21-.68,1.46-1.94.7-4.07-.78-2.19-1.37-4.43-1.87-6.69-.63-2.83-.44-5.48,1.69-7.83,1.49-1.65,2.66-3.59,3.94-5.42.55-.79.97-1.66.9-2.68-.11-1.5-1.4-2.24-2.73-1.53-.28.15-.49.41-.75.6-2.44,1.76-4.26,4.33-7.2,5.46-.53.2-.89.89-1.31,1.36-.47.54-.86,1.17-1.4,1.62-3.7,3.05-7.32,6.2-11.22,9-12.93,9.31-27.43,12.98-43.21,11.95-3.67-.24-7.31-.84-10.74-2.28-4.24-1.78-7.04-4.86-8.41-9.25-.79-2.56-1.1-5.18-.77-7.82,1-7.85,3.82-15.04,8.69-21.27,4.11-5.26,9.57-7.81,16.42-6.85,3.97.56,7.84,1.49,11.66,2.7,4.34,1.37,8.66,2.81,13.1,3.85,5.36,1.25,10.53,1.02,15.78-.84,16.79-5.95,33.45-12.26,50.04-18.76,11.3-4.43,22.04-10.19,33.55-14.09,1.5-.51,2.64-1.47,3.41-2.85Z"/>
  <path class="cls-3" d="m246.31,608.98c-.77,1.39-1.91,2.35-3.41,2.85-11.52,3.9-22.26,9.66-33.55,14.09-16.59,6.5-33.24,12.81-50.04,18.76-5.24,1.86-10.42,2.09-15.78.84-4.44-1.04-8.76-2.48-13.1-3.85-3.81-1.21-7.69-2.14-11.66-2.7-6.85-.96-12.31,1.59-16.42,6.85-4.87,6.23-7.69,13.41-8.69,21.27-.34,2.64-.03,5.26.77,7.82,1.37,4.39,4.17,7.47,8.41,9.25,3.43,1.44,7.07,2.04,10.74,2.28,15.78,1.04,30.28-2.63,43.21-11.95,3.9-2.81,7.52-5.95,11.22-9,.54-.45.93-1.08,1.4-1.62.42-.48.78-1.16,1.31-1.36,2.94-1.13,4.76-3.7,7.2-5.46.26-.19.47-.45.75-.6,1.33-.71,2.62.02,2.73,1.53.07,1.02-.35,1.88-.9,2.68-1.28,1.83-2.45,3.77-3.94,5.42-2.13,2.35-2.32,5-1.69,7.83.5,2.26,1.09,4.5,1.87,6.69.76,2.12.5,3.39-.7,4.07-1.19.67-2.41.25-3.93-1.42-1.67-1.82-2.93-3.95-4.34-6.07-.51.45-.93.81-1.33,1.19-3.23,3.12-6.68,5.97-10.52,8.3-1.26.77-1.95,1.75-2.29,3.16-1.56,6.46.92,13.26,6.3,17.18,3.91,2.84,8.39,4.2,13.04,5.16,7.92,1.63,15.84,2.08,23.74-.13,10.48-2.92,17.79-9.25,21.7-19.56,3.54-9.34,4.21-18.8,2.08-28.5-.7-3.2-1.43-6.39-2.63-9.46-1.43-3.67-.61-6.9,2.09-9.69,2.13-2.2,4.63-3.96,7.33-5.36,7.02-3.63,13.95-7.46,21.15-10.73,2.84-1.29,5.78-2.29,8.77-3.17.28-.02.57-.04.85-.06.68,0,1.36-.01,2.03-.02.13.07.27.1.41.1.12.23.29.36.56.31,2.01,2.36,1.58,4.05-1.11,5.44-10.38,5.37-20.3,11.46-29.32,18.95-1.63,1.35-1.62,1.39-.76,3.39,3.46,7.96,5.39,16.22,4.8,24.95-.68,10.19-3.85,19.58-9.42,28.1-5.92,9.03-14.66,14.03-24.87,16.75-9.99,2.66-19.96,2.01-29.91-.25-4.77-1.08-9.39-2.57-13.72-4.91-9.55-5.17-14.36-13.09-14.08-24,0-.23-.06-.47-.08-.69-.68-.45-1.25.02-1.8.21-5.56,1.86-11.27,2.98-17.11,3.45-2.47.2-4.93.46-7.39.74-4.16.46-8.3.35-12.42-.39-5.07-.91-9.28-3.37-12.67-7.19-7.71-8.66-9.96-18.69-7.33-29.91,1.79-7.67,5.08-14.69,9.83-20.9,7.57-9.92,17.63-13.8,30.03-11.49,5.03.94,10.02,2.05,14.95,3.41,3.32.91,6.68,1.62,10.11,1.95,1.62.16,3.21.11,4.73-.46,10.24-3.88,20.85-6.65,31.13-10.41,12.68-4.63,25.41-9.13,37.84-14.41,4.5-1.91,9.13-3.4,13.86-4.59,1.47-.37,2.88-.94,4.34-1.33,2.47-.67,3.69-.03,4.7,2.34.6,1.39,1.38,2.73.93,4.34Z"/>
  <path class="cls-1" d="m260.09,625.49c-.68,0-1.36.01-2.03.02.67-.59,1.35-.65,2.03-.02Z"/>
  <path class="cls-1" d="m261.06,625.91c-.27.04-.44-.09-.56-.31.29-.09.49,0,.56.31Z"/>
</svg>