<?xml version="1.0" encoding="UTF-8"?>
<svg id="_图层_1" data-name="图层 1" xmlns="http://www.w3.org/2000/svg" viewBox="0 0 960 960">
  <defs>
    <style>
      .cls-1 {
        fill: #ffe459;
      }

      .cls-1, .cls-2, .cls-3, .cls-4, .cls-5, .cls-6, .cls-7, .cls-8, .cls-9, .cls-10, .cls-11, .cls-12, .cls-13 {
        stroke-width: 0px;
      }

      .cls-2 {
        fill: #050305;
      }

      .cls-3 {
        fill: #b8803e;
      }

      .cls-4 {
        fill: #bd3d97;
      }

      .cls-5 {
        fill: #ba813c;
      }

      .cls-6 {
        fill: #ff72d8;
      }

      .cls-7 {
        fill: #b93996;
      }

      .cls-8 {
        fill: #bd3d98;
      }

      .cls-9 {
        fill: #ba823e;
      }

      .cls-10 {
        fill: #050304;
      }

      .cls-11 {
        fill: #f3d4a9;
      }

      .cls-12 {
        fill: #fe72d7;
      }

      .cls-13 {
        fill: #bf4098;
      }
    </style>
  </defs>
  <path class="cls-6" d="m505.83,250.93c5.45.6,10.89,1.26,16.34,1.79,4.43.43,8.85.89,13.25,1.55,1.02.15,2.04.34,3.05.51-1.23,2.43-.83,3.66,1.69,4.62,1.34.51,2.75.85,4.15,1.15,20.81,4.48,40.33,12.33,58.83,22.73,16.08,9.04,31.03,19.71,44.79,32.03,3.22,2.88,6.57,5.64,9.21,9.09,9.5,12.4,18.3,25.24,25.05,39.4,7.22,15.16,12.66,30.91,15.72,47.44.2,1.1.53,2.2.04,3.3-1.25,2.85-2.07,5.91-3.69,8.59-5.54,9.16-11.78,17.71-20.93,23.7-1.74,1.14-3.43,2.36-5.11,3.58-2.59,1.89-4.98,4-7.04,6.48-6.19,7.44-8.52,16.13-8.34,25.65.08,4,.48,7.98.84,11.96.32,3.58.76,7.16.69,10.77-.14,7.1-2.83,12.87-8.74,17-.92.64-1.82,1.31-2.78,1.88-2.82,1.67-5.65,3.32-8.5,4.94-3.42,1.94-6.65,4.13-9.5,6.86-6.66,6.38-10.17,14.4-12.17,23.23-1.45,6.38-1.47,12.85-1.5,19.33-.03,7.09-2.16,13.51-6.03,19.41-8.82,13.43-20.76,22.84-35.91,28.24-5.45,1.94-11.03,3.22-16.72,4.22-9.5,1.67-17.66,5.89-24.33,12.95-4.08,4.32-7.68,8.99-11.15,13.79-5.55,7.68-11.87,14.65-19.07,20.82-4.7,4.03-10.03,6.8-15.98,8.45-8.92,2.48-16.93.83-23.99-5.21-1.58-1.35-3.15-2.71-4.77-4.02-1.55-1.26-3.11-2.51-4.73-3.68-6.65-4.8-13.92-6.09-21.85-3.94-6.25,1.69-11.99,4.36-17.25,8.14-6.19,4.44-11.74,9.64-17.43,14.66-4.39,3.88-9.05,7.39-14.31,10.01-9.55,4.76-19.41,6.92-29.87,3.13-.37-.14-.77-.22-1.15-.33-47.24-13.44-85.78-39.62-115-79.14-22.23-30.06-33.51-64.08-35.24-101.33-1.03-22.15,1.84-43.9,7.29-65.32,8.1-31.81,22.05-60.95,40.53-87.99,6.28-9.18,13.11-17.95,19.97-26.69,1.13-1.44,2.29-2.89,3.25-4.45,1.8-2.9,1.19-4.85-1.84-6.39,4.24-4.33,8.89-8.2,13.54-12.07,6.19-5.14,12.49-10.14,19.09-14.74,6.28-4.37,12.77-8.42,19.29-12.42.47-.29,1.01-.45,1.52-.67.04.4.08.79.14,1.18.49,3.28,3,4.79,6.11,3.62,1.04-.39,2.03-.95,2.96-1.56,4.82-3.14,9.81-6.01,14.65-9.11,13.35-8.53,27.65-15.01,42.65-19.96,36.26-11.96,73.47-16.45,111.54-14.03,3.48.22,6.5-.28,8.75-3.18Zm-256.44,219.24c.8,3.42,4.61,6.41,8.36,6.75,4.54.41,8.32-1.2,11.5-4.25,8.22-7.9,11.78-17.74,11.87-28.98-.07-.75.28-1.4.47-2.09,1.01-3.63,1.67-7.31,1.44-11.1-.31-5.14-2.26-9.49-6.56-12.46-6.31-4.36-15.24-3.44-20.98,1.33-3.97,3.3-7.03,7.42-9.53,11.9-3.9,6.99-5.6,14.57-5.05,22.58.45,6.63,2.54,12.5,8.48,16.32Zm348.1-87.35c-.95.58-.87,1.63-1.13,2.52-.62,2.1-.59,4.27-.5,6.41.33,7.59,2.59,14.43,8.27,19.75,5.59,5.24,12.18,7.42,19.78,5.82,3.76-.79,6.76-3,8.8-6.17,2.46-3.81,4-8,3.41-12.69.55-2.65,1.62-5.16,2.12-7.83,1.74-9.32-.13-17.71-6.19-25.12-1.77-2.16-3.72-4.17-5.58-6.24-2.41-2.68-5.55-4.3-9.29-4.29-7.09.02-12.43,3.14-15.82,9.35-3.14,5.75-4.16,11.99-3.87,18.48Zm-22.32,149.92c-.18-1.26.55-2.3.88-3.44,1.03-3.62,1.86-7.24,1.1-11.06-1.04-5.21-5.01-9.52-10.33-10.29-2.46-.36-4.79-.13-7.09.48-10.1,2.68-17.89,8.92-24.75,16.47-5.72,6.3-8.96,14.11-12.65,21.62-1.44,2.93-2.17,6.15-1.99,9.5.23,4.22,2.03,7.65,5.14,10.44-.05.79-.11,1.59-.15,2.38-.19,4.37,1.89,7.5,5.55,9.57,2.68,1.51,5.71,1.5,8.62.92,3.84-.77,7.44-2.25,10.83-4.27,3.09-1.84,5.91-4.02,8.69-6.28,5.41-4.38,9.78-9.53,12.39-16.07,2.56-6.42,4.38-12.96,3.76-19.97Zm-193.78,98.53c.14-1.12,1.07-1.75,1.63-2.6,2.76-4.18,3.09-8.49.64-12.88-1.68-3.01-4.22-5.18-7.23-6.79-1.69-.9-3.46-1.66-5.15-2.54-5.56-2.9-11.48-4.23-17.72-4.37-4.32-.1-8.61.27-12.91.57-3.06.21-5.95,1.18-8.61,2.7-5.13,2.93-9.35,6.98-12.95,11.57-2.91,3.71-4.08,8.07-2.86,12.85.82,3.2,2.67,5.76,4.83,8.14-.54.48-.59,1.13-.48,1.77.68,4.07,2.37,7.55,5.85,10.02,7.31,5.19,15.44,6.35,24.09,4.98,3.86-.61,7.59-1.75,11.25-3.11,5.87-2.19,11.39-4.9,15.69-9.69,2.09-2.32,3.51-4.91,4.25-7.9.23-.91.43-1.89-.3-2.72Zm62.4-326.67c-1.22,4.21-.47,8,2.4,11.36,2,2.34,4.7,3.62,7.5,4.49,7.97,2.47,16.13,3.65,24.42,1.93,7.85-1.63,15.39-4.15,21.85-9.12,4.01-3.09,6.98-6.95,8.03-12.05,1.24-1.45,2.53-2.88,3.48-4.55,2.83-4.97,3.35-10.09.78-15.32-2.29-4.67-6.34-7.02-11.17-8.26-1.55-.4-3.07-.82-4.57-1.38-7.37-2.72-14.94-3.47-22.57-1.48-5.47,1.42-10.87,3.16-16.21,5.03-6,2.11-11.09,5.63-14.78,10.92-3.01,4.32-4.01,8.97-1.99,14.05.66,1.66,1.86,2.96,2.84,4.41Z"/>
  <path class="cls-10" d="m265.6,333.85c3.03,1.54,3.64,3.49,1.84,6.39-.96,1.56-2.11,3.01-3.25,4.45-6.87,8.74-13.69,17.51-19.97,26.69-18.49,27.04-32.44,56.18-40.53,87.99-5.45,21.42-8.33,43.17-7.29,65.32,1.74,37.25,13.01,71.26,35.24,101.33,29.22,39.52,67.76,65.7,115,79.14.38.11.78.19,1.15.33,10.46,3.79,20.32,1.63,29.87-3.13,5.26-2.62,9.92-6.13,14.31-10.01,5.69-5.02,11.24-10.22,17.43-14.66,5.26-3.78,11-6.45,17.25-8.14,7.93-2.14,15.21-.86,21.85,3.94,1.62,1.17,3.18,2.42,4.73,3.68,1.61,1.31,3.19,2.67,4.77,4.02,7.07,6.03,15.08,7.68,23.99,5.21,5.95-1.65,11.28-4.43,15.98-8.45,7.2-6.17,13.53-13.14,19.07-20.82,3.46-4.8,7.07-9.48,11.15-13.79,6.67-7.07,14.83-11.28,24.33-12.95,5.68-1,11.26-2.28,16.72-4.22,15.15-5.4,27.09-14.81,35.91-28.24,3.88-5.9,6-12.32,6.03-19.41.03-6.48.05-12.95,1.5-19.33,2-8.83,5.51-16.85,12.17-23.23,2.85-2.73,6.09-4.92,9.5-6.86,2.85-1.62,5.68-3.27,8.5-4.94.96-.57,1.86-1.24,2.78-1.88,5.91-4.13,8.6-9.9,8.74-17,.07-3.61-.37-7.18-.69-10.77-.36-3.98-.76-7.96-.84-11.96-.19-9.51,2.14-18.21,8.34-25.65,2.06-2.47,4.45-4.59,7.04-6.48,1.68-1.22,3.37-2.44,5.11-3.58,9.14-5.99,15.38-14.54,20.93-23.7,1.62-2.68,2.43-5.73,3.69-8.59.48-1.1.16-2.2-.04-3.3-3.06-16.54-8.5-32.28-15.72-47.44-6.74-14.15-15.55-27-25.05-39.4-2.64-3.45-5.99-6.21-9.21-9.09-13.76-12.32-28.71-22.99-44.79-32.03-18.5-10.4-38.02-18.25-58.83-22.73-1.4-.3-2.82-.64-4.15-1.15-2.52-.96-2.92-2.19-1.69-4.62,1.71-1.03,3.62-1.05,5.52-1.08,6.91-.1,13.71.94,20.46,2.24,16.7,3.23,32.3,9.54,47.41,17.16,13.43,6.77,25.77,15.21,36.94,25.21,6.17,5.53,12.28,11.19,17.93,17.3,9.79,10.59,17.48,22.64,24.18,35.33,16.73,31.7,24.5,65.59,24.13,101.35-.41,39.95-10.78,77.37-29.1,112.72-.66,1.27-1.33,2.53-2,3.83.84.55,1.32-.04,1.8-.32,5.53-3.27,10.59-7.13,15.2-11.63,9.01-8.78,17.23-18.24,24.86-28.24,3.59-4.7,7.28-9.33,10.97-13.95,5.96-7.46,12.65-14.2,20.08-20.21,6.58-5.32,13.64-9.83,21.91-12.04,10.83-2.89,21.79-3.65,32.72-.76,22.6,5.96,32,25.16,30.27,43.85-.85,9.2-3.2,18.1-5.69,26.95-5.06,17.98-12.58,34.86-22.78,50.52-9.21,14.14-18.73,28.08-30.04,40.66-14.39,16.01-30.72,29.62-50.03,39.39-15.91,8.04-32.56,14.05-50.01,17.82-14.65,3.16-29.38,5.59-44.41,5.53-14.18-.06-28.28-.96-42.17-4.03-3.9-.86-7.75-1.92-11.55-3.18-6.32-2.09-11.95-5.32-16.88-9.79-1.77-1.61-2.06-1.62-4.41-.31-29.99,16.74-61.83,28.44-95.63,34.61-42.66,7.79-84.98,6.74-126.79-5.46-34.8-10.15-65.76-27.16-92.34-51.97-16.45-15.35-29.19-33.42-39.49-53.3-13.12-25.3-20.7-52.24-23.37-80.56-4.8-50.99,6.89-98.27,32.45-142.34,10.48-18.06,22.87-34.69,37.66-49.48,1.64-1.64,3.39-3.17,5.11-4.72,1.21-1.09,2.6-1.84,4.26-2.03Zm359.09,249.09c-.71,7.4-2.94,14.31-6.81,20.67-.83,1.36-1.63,2.73-2.44,4.1-.62.18-.92.56-.81,1.22-.08.04-.13.1-.13.19-1.17.52-1.65,1.68-2.35,2.61-8.44,11.12-19.06,19.44-31.81,25.11-8.15,3.62-16.61,6.08-25.42,7.51-5.44.88-10.46,2.89-14.68,6.59-3.44,3.02-6.43,6.47-9.09,10.16-6.55,9.09-13.54,17.8-21.87,25.35-.22.2-.34.52-.51.78-1.12.5-1.97,1.35-2.88,2.13-6.12,5.24-13.12,8.8-20.89,10.84-5.62,1.48-11.32,2.01-17.1.97-6.53-1.17-12.24-4.05-17.41-8.14-1.69-1.34-3.17-2.93-5.06-4.02-1.95-2.15-4.3-3.77-6.85-5.12-2.2-1.17-4.53-1.42-6.97-.92-3.15.64-6.16,1.64-9.03,3.08-5.48,2.75-10.08,6.71-14.64,10.71-6.44,5.64-13.16,10.88-20.74,14.94-.43.23-1.16.27-.99,1.21,3.31.31,6.63.74,9.97.89,2.94.13,5.86.69,8.82.43.32.03.63.08.95.09,18.11.62,36.11-.49,53.99-3.46,38.8-6.44,74.92-20.1,108.4-40.69,38.81-23.87,70.8-54.77,95.13-93.38,18.47-29.31,30.73-61.01,35.85-95.36,1.7-11.4,2.52-22.87,2.2-34.41-.03-4.33.02-8.66-.63-13.12-.73.3-.96.72-1.2,1.12-2.35,4.01-5.12,7.72-7.99,11.36-2.13,2.7-4.42,5.23-7.1,7.43-3.34,2.74-7,5.04-10.39,7.7-5.75,4.52-8.84,10.35-8.87,17.75-.02,3.69.35,7.33.87,10.97.84,5.85,1.56,11.71,1.26,17.65-.52,10.44-4.85,18.87-13.16,25.26-4.39,3.38-9.22,6.04-14.06,8.67-6.68,3.62-10.96,9.04-13.29,16.24-2.63,8.16-2.28,16.54-2.26,24.91Zm203.49-58.17c.37-2.19.38-4.37.02-6.56.29-.54.22-1.03-.17-1.49-.02-1.15-.31-2.25-.68-3.33.19-.52-.02-.91-.4-1.25-2.39-7.07-7.06-12.04-13.9-14.99-4.16-1.8-8.51-2.76-13.03-2.89-9.41-.27-18.5.94-26.81,5.8-5.77,3.38-10.78,7.7-15.61,12.27-6.35,6.02-11.69,12.9-17.07,19.76-7.64,9.75-15.21,19.56-23.81,28.52-7.73,8.05-15.84,15.59-25.67,21.06-.48.27-.88.67-1.32,1.02-.6-.02-1.06.32-1.55.57-5.12,2.63-10.28,5.19-15.81,6.86-1.25.38-1.99,1.24-2.67,2.26-14.01,20.79-30.4,39.5-49.1,56.19-13.99,12.49-28.89,23.75-44.92,33.48-.34.21-.7.38-.82.94,3.06,2.25,6.32,4.21,9.97,5.49,5.91,2.08,12,3.34,18.2,4.14,5.88.76,11.79.88,17.7,1.14,7.2.32,14.38.05,21.56-.53,6.3-.51,12.52-1.59,18.76-2.58,14.22-2.27,28.32-5.12,41.95-9.88,1.73-.6,3.56-.92,5.15-1.91,1.45-.66,2.9-1.32,4.36-1.98.12.2.23.31.29-.04.17-.08.35-.15.52-.23,1.23-.06,2.27-.58,3.2-1.37.38-.17.75-.33,1.13-.5,4.04-1.21,7.68-3.34,11.44-5.18.62-.3,1.37-.47,1.7-1.2.14,0,.25-.07.34-.17,1.2-.25,2.25-.77,3.05-1.72.42-.24.84-.48,1.26-.72.56.04.94-.2,1.16-.71.13-.01.23-.07.31-.18.88-.12,1.59-.52,2.05-1.3.14-.02.25-.08.33-.19.56.03.93-.23,1.13-.75.13-.02.24-.08.32-.19.56.02.93-.24,1.12-.77.13-.02.24-.09.31-.2.56.01.93-.25,1.1-.78.14-.02.24-.09.32-.21.77-.09,1.3-.51,1.64-1.19.13-.02.23-.09.3-.2.56,0,.92-.27,1.09-.81.28-.2.56-.41.84-.61.56,0,.92-.28,1.08-.82.28-.21.56-.42.83-.63.56-.01.91-.29,1.06-.83.45-.36.9-.71,1.35-1.07.56-.03.91-.31,1.05-.85.45-.36.89-.73,1.34-1.09.76-.14,1.27-.58,1.54-1.31l1.83-1.55c.77-.15,1.28-.59,1.53-1.33,1.1-.99,2.19-1.97,3.29-2.96,2.35-1.38,3.96-3.57,5.87-5.43,1-.97,2.19-1.82,2.73-3.2.99-1.09,1.98-2.18,2.98-3.27.74-.25,1.19-.76,1.35-1.52.52-.6,1.03-1.21,1.55-1.81.73-.27,1.17-.79,1.3-1.56.36-.45.72-.89,1.08-1.34.54-.14.83-.49.85-1.05.35-.45.71-.91,1.06-1.36.54-.14.81-.5.83-1.05.21-.28.42-.56.63-.84.53-.16.82-.51.83-1.07.21-.28.41-.56.62-.84.53-.16.81-.52.82-1.08.2-.28.41-.56.61-.84.53-.17.8-.53.81-1.08.2-.28.41-.57.61-.85.53-.16.8-.52.8-1.08.54-.75,1.08-1.5,1.62-2.25.53-.18.8-.54.8-1.1.2-.29.4-.57.6-.86.53-.16.79-.53.79-1.08.11-.08.18-.18.21-.32.53-.18.8-.54.79-1.1.53-.76,1.06-1.52,1.58-2.28.53-.17.78-.54.77-1.09.11-.08.18-.19.2-.33.52-.18.78-.55.77-1.11.11-.08.18-.18.2-.32.52-.19.78-.56.77-1.12.11-.08.18-.18.2-.31.52-.2.78-.57.77-1.12.11-.08.17-.18.2-.31.52-.2.78-.57.77-1.13.11-.08.17-.18.2-.31.52-.2.77-.57.75-1.13.11-.08.17-.19.19-.32.52-.2.77-.57.75-1.13.11-.08.17-.19.19-.33.52-.19.76-.57.74-1.12.25-.41.51-.81.76-1.22.5-.22.77-.59.74-1.15.11-.08.17-.18.19-.32.51-.21.76-.59.73-1.14.25-.41.49-.82.74-1.23.5-.23.76-.6.72-1.16.24-.41.48-.83.72-1.24.5-.23.74-.61.7-1.17.23-.42.47-.85.7-1.27.74-.5,1.1-1.22,1.19-2.1,1.92-3.33,3.64-6.76,5.17-10.29.65-.59,1.01-1.32,1-2.21.3-.71.61-1.41.91-2.12.44-.3.65-.7.53-1.24.16-.38.31-.76.47-1.15.42-.32.63-.71.5-1.25.15-.39.3-.77.44-1.16.7-.76.98-1.67,1.02-2.68.31-.86.62-1.73.92-2.59,1.01-1.73,1.62-3.6,1.85-5.59.24-.78.49-1.55.73-2.33.6-.71.8-1.55.72-2.46.08-.3.17-.6.25-.89.59-.72.78-1.56.68-2.47.08-.3.16-.6.25-.9.35-.27.46-.61.26-1.02.08-.3.15-.6.23-.9.34-.28.46-.61.26-1.02.07-.3.15-.6.22-.9.34-.28.45-.61.24-1.02.07-.3.15-.6.22-.9.34-.28.44-.62.22-1.02l.22-.9c.42-.43.54-.92.33-1.49l.19-.9c.33-.29.44-.62.22-1.03.1-.46.19-.91.29-1.37.33-.29.43-.63.21-1.03.09-.46.17-.92.26-1.38.32-.3.4-.64.16-1.03.26-.76.33-1.54.33-2.33.39-.47.45-.97.15-1.5Z"/>
  <path class="cls-2" d="m505.83,250.93c-2.25,2.9-5.27,3.4-8.75,3.18-38.07-2.42-75.28,2.07-111.54,14.03-15,4.95-29.3,11.43-42.65,19.96-4.84,3.1-9.83,5.97-14.65,9.11-.93.61-1.92,1.17-2.96,1.56-3.12,1.17-5.62-.35-6.11-3.62-.06-.39-.09-.79-.14-1.18,1.16-3.24,3.36-5.78,5.68-8.21,4.55-4.74,9.56-8.93,15.21-12.34,15.49-9.34,32.07-16.18,49.36-21.3,35.51-10.51,71.76-14.6,108.73-12.17.87.06,1.75.15,2.61.31,4.7.92,7.05,4.98,5.55,9.54-.12.38-.23.76-.35,1.14Z"/>
  <path class="cls-1" d="m443.79,304.6c-.98-1.45-2.17-2.74-2.84-4.41-2.02-5.07-1.03-9.73,1.99-14.05,3.69-5.29,8.78-8.82,14.78-10.92,5.34-1.87,10.74-3.6,16.21-5.03,7.63-1.98,15.2-1.23,22.57,1.48,1.5.55,3.03.98,4.57,1.38,4.83,1.24,8.88,3.59,11.17,8.26,2.57,5.24,2.05,10.35-.78,15.32-.95,1.67-2.23,3.1-3.48,4.55-.22.09-.47.15-.65.29-5.15,4.13-11.14,6.48-17.46,8.04-8.81,2.18-17.75,2.86-26.8,1.94-7-.72-13.68-2.25-19.28-6.86Z"/>
  <path class="cls-1" d="m321.05,637.92c-2.17-2.39-4.01-4.95-4.83-8.14-1.22-4.78-.05-9.14,2.86-12.85,3.6-4.59,7.81-8.64,12.95-11.57,2.66-1.52,5.56-2.49,8.61-2.7,4.3-.29,8.59-.66,12.91-.57,6.24.14,12.17,1.48,17.72,4.37,1.7.89,3.46,1.64,5.15,2.54,3.02,1.61,5.56,3.78,7.23,6.79,2.45,4.39,2.12,8.69-.64,12.88-.56.85-1.49,1.49-1.63,2.6-1,.85-1.3,2.17-2.17,3.12-3.68,4.02-8,7.03-13.28,8.57-3.69,1.08-7.45,1.62-11.26,2.02-5.59.59-11.14.44-16.68-.37-6.16-.9-11.88-3-16.94-6.7Z"/>
  <path class="cls-1" d="m525.47,566.46c-3.11-2.79-4.91-6.23-5.14-10.44-.18-3.35.55-6.57,1.99-9.5,3.69-7.51,6.92-15.32,12.65-21.62,6.86-7.55,14.65-13.79,24.75-16.47,2.3-.61,4.63-.83,7.09-.48,5.32.77,9.28,5.07,10.33,10.29.77,3.82-.07,7.44-1.1,11.06-.32,1.14-1.05,2.17-.87,3.44-1.06.51-1.24,1.63-1.68,2.53-4.21,8.62-9.59,16.37-16.79,22.77-5.57,4.95-11.84,8.65-19.21,10.21-3.25.69-6.5.61-9.63-.7-.81-.34-1.47-.98-2.38-1.08Z"/>
  <path class="cls-1" d="m597.49,382.82c-.29-6.49.73-12.73,3.87-18.48,3.4-6.21,8.73-9.33,15.82-9.35,3.74-.01,6.88,1.61,9.29,4.29,1.86,2.07,3.81,4.08,5.58,6.24,6.07,7.4,7.93,15.8,6.19,25.12-.5,2.67-1.57,5.18-2.12,7.83-.66.52-.91,1.29-1.27,2-1.51,2.94-3.45,5.52-5.88,7.77-5.17,4.76-11.97,5.43-17.75,1.39-7.12-4.97-11.28-11.93-13.02-20.41-.43-2.12-.3-4.28-.72-6.39Z"/>
  <path class="cls-1" d="m249.39,470.17c-5.94-3.82-8.03-9.69-8.48-16.32-.55-8,1.15-15.58,5.05-22.58,2.49-4.47,5.56-8.6,9.53-11.9,5.74-4.77,14.67-5.69,20.98-1.33,4.3,2.97,6.25,7.32,6.56,12.46.23,3.79-.43,7.47-1.44,11.1-.19.69-.54,1.34-.47,2.09-.52.54-.68,1.25-.93,1.92-1.49,3.96-3.15,7.85-5.18,11.56-1.85,3.37-3.96,6.57-6.9,9.11-5.35,4.61-11.21,7.01-18.24,3.98-.14-.06-.31-.05-.47-.08Z"/>
  <path class="cls-4" d="m443.79,304.6c5.6,4.61,12.28,6.15,19.28,6.86,9.06.93,17.99.24,26.8-1.94,6.32-1.56,12.3-3.92,17.46-8.04.18-.14.43-.19.65-.29-1.05,5.1-4.02,8.96-8.03,12.05-6.46,4.97-14,7.5-21.85,9.12-8.29,1.72-16.44.54-24.42-1.93-2.8-.87-5.5-2.15-7.5-4.49-2.87-3.35-3.62-7.14-2.4-11.36Z"/>
  <path class="cls-4" d="m525.47,566.46c.91.11,1.57.75,2.38,1.08,3.14,1.31,6.38,1.39,9.63.7,7.37-1.56,13.64-5.26,19.21-10.21,7.2-6.4,12.58-14.15,16.79-22.77.44-.9.62-2.02,1.68-2.53.62,7.01-1.19,13.55-3.76,19.97-2.61,6.55-6.98,11.69-12.39,16.07-2.78,2.26-5.6,4.44-8.69,6.28-3.39,2.02-6.99,3.5-10.83,4.27-2.91.58-5.94.6-8.62-.92-3.66-2.07-5.74-5.2-5.55-9.57.03-.8.1-1.59.15-2.38Z"/>
  <path class="cls-8" d="m321.05,637.92c5.06,3.7,10.78,5.8,16.94,6.7,5.53.81,11.09.96,16.68.37,3.81-.4,7.58-.94,11.26-2.02,5.29-1.55,9.6-4.55,13.28-8.57.87-.95,1.18-2.27,2.17-3.12.73.83.53,1.81.3,2.72-.74,2.99-2.16,5.57-4.25,7.9-4.3,4.79-9.82,7.49-15.69,9.69-3.66,1.37-7.38,2.5-11.25,3.11-8.65,1.36-16.78.21-24.09-4.98-3.48-2.47-5.16-5.95-5.85-10.02-.11-.63-.06-1.28.48-1.77Z"/>
  <path class="cls-13" d="m597.49,382.82c.42,2.11.28,4.28.72,6.39,1.73,8.48,5.89,15.44,13.02,20.41,5.79,4.04,12.58,3.37,17.75-1.39,2.43-2.24,4.38-4.83,5.88-7.77.36-.7.62-1.48,1.27-2,.58,4.69-.95,8.88-3.41,12.69-2.05,3.17-5.04,5.38-8.8,6.17-7.61,1.61-14.19-.58-19.78-5.82-5.68-5.33-7.94-12.16-8.27-19.75-.09-2.15-.12-4.31.5-6.41.26-.89.18-1.94,1.13-2.52Z"/>
  <path class="cls-13" d="m249.39,470.17c.16.02.33.02.47.08,7.03,3.03,12.9.64,18.24-3.98,2.94-2.53,5.05-5.73,6.9-9.11,2.03-3.71,3.69-7.6,5.18-11.56.25-.67.4-1.38.93-1.92-.09,11.24-3.65,21.09-11.87,28.98-3.18,3.05-6.95,4.67-11.5,4.25-3.75-.34-7.56-3.33-8.36-6.75Z"/>
  <path class="cls-12" d="m736.89,664.89c-.08.1-.18.16-.31.18-.62-.15-1.01.08-1.16.71-.42.24-.84.48-1.26.72-1.27.12-2.39.51-3.05,1.72-.09.1-.2.16-.34.17-.51-.15-.93.12-1.35.33-3.33,1.7-6.67,3.36-10.1,4.86-.62.27-1.41.4-1.68,1.2-.38.17-.75.33-1.13.49-1.33-.17-2.34.42-3.2,1.37-.17.08-.35.15-.52.23-.11-.09-.21-.08-.29.04-1.45.66-2.9,1.32-4.36,1.98-.39,0-.87-.16-1.17,0-2.07,1.15-3.29-.04-4.4-1.52-1.87-2.49-3.41-5.2-4.88-7.93-4.97-9.27-8.01-19.23-10.15-29.48-1.11-5.28-2.03-10.6-2.59-15.99-.38-3.72-.27-7.46-.73-11.18-.23-1.81.54-3.61.39-5.46-.18-2.24.33-4.45.63-6.64.72-5.29,2.1-10.44,3.93-15.47.29-.8.8-1.58.55-2.52.44-.34.84-.75,1.32-1.02,9.83-5.47,17.94-13.01,25.67-21.06,8.6-8.96,16.17-18.77,23.81-28.52,5.38-6.86,10.72-13.75,17.07-19.76,4.83-4.57,9.84-8.89,15.61-12.27,8.32-4.87,17.4-6.07,26.81-5.8,4.53.13,8.87,1.09,13.03,2.89,6.84,2.95,11.5,7.92,13.9,14.99-.33.56-.22.99.4,1.25.37,1.08.65,2.18.68,3.32-.55.57-.44,1.06.17,1.49.36,2.19.35,4.38-.02,6.56-.61.45-.73.94-.15,1.5,0,.79-.07,1.58-.33,2.33-.47.28-.73.59-.16,1.03-.09.46-.17.92-.26,1.38-.51.25-.78.55-.21,1.03-.1.46-.19.91-.29,1.37-.49.25-.78.55-.22,1.03-.06.3-.13.6-.19.9-.69.37-.83.85-.33,1.49-.07.3-.15.6-.22.9-.48.25-.78.54-.22,1.02-.07.3-.15.6-.22.9-.51.24-.81.52-.24,1.02-.07.3-.15.6-.22.9-.52.23-.82.52-.26,1.02-.08.3-.15.6-.23.9-.5.23-.82.51-.26,1.02-.08.3-.16.6-.25.9-.75.68-1.18,1.45-.68,2.47-.08.3-.17.6-.25.89-.79.66-1.19,1.43-.72,2.46-.24.78-.49,1.55-.73,2.33-1.18,1.68-1.75,3.55-1.85,5.59-.31.86-.62,1.73-.92,2.59-1.02.63-1.14,1.61-1.02,2.68-.15.39-.3.77-.44,1.16-.63.23-.77.66-.5,1.25-.16.38-.31.76-.47,1.14-.62.22-.77.65-.53,1.24-.3.71-.61,1.41-.91,2.12-.89.49-1.2,1.23-1,2.21-1.53,3.53-3.25,6.96-5.17,10.29-.95.39-1.22,1.16-1.19,2.1-.23.42-.47.85-.7,1.27-.65.14-.86.54-.7,1.17-.24.41-.48.83-.72,1.24-.66.13-.88.52-.72,1.16-.25.41-.49.82-.74,1.23-.64.13-.87.52-.73,1.14-.02.13-.08.24-.19.32-.67.11-.9.51-.74,1.15-.25.41-.51.81-.76,1.22-.63.12-.86.5-.74,1.12-.02.14-.08.25-.19.33-.64.12-.88.5-.75,1.13-.02.13-.08.24-.19.32-.65.11-.89.5-.75,1.13-.02.13-.09.24-.2.31-.66.1-.9.49-.77,1.13-.02.13-.09.23-.2.31-.65.1-.9.49-.77,1.12-.02.13-.09.24-.2.31-.65.1-.89.48-.77,1.12-.02.13-.09.24-.2.32-.64.1-.88.48-.77,1.11-.02.14-.09.25-.2.33-.63.1-.87.48-.77,1.09-.53.76-1.06,1.52-1.58,2.28-.65.09-.9.47-.79,1.1-.02.14-.09.24-.21.32-.63.09-.87.46-.79,1.08-.2.29-.4.57-.6.86-.65.09-.91.46-.8,1.1-.54.75-1.08,1.5-1.62,2.25-.63.09-.89.45-.8,1.08-.2.28-.41.57-.61.85-.65.08-.9.45-.81,1.08-.2.28-.41.56-.61.84-.65.07-.91.45-.82,1.08-.21.28-.41.56-.62.84-.65.07-.91.44-.83,1.07-.21.28-.42.56-.63.84-.63.07-.9.43-.83,1.05-.35.45-.71.91-1.06,1.36-.65.06-.92.42-.85,1.05-.36.45-.72.89-1.08,1.34-.88.15-1.34.65-1.3,1.56-.52.6-1.03,1.21-1.55,1.81-.88.12-1.35.62-1.35,1.52-.99,1.09-1.98,2.18-2.98,3.27-.15.03-.36,0-.45.09-2.82,2.56-5.53,5.24-8.06,8.08-.09.1-.06.3-.08.46-1.1.99-2.19,1.97-3.29,2.96-.9,0-1.39.46-1.53,1.33l-1.83,1.55c-.9-.01-1.39.44-1.54,1.31-.45.36-.89.73-1.34,1.09-.63-.06-.99.22-1.05.86-.45.36-.9.71-1.35,1.07-.63-.07-.99.2-1.06.83-.28.21-.56.42-.83.63-.63-.09-1,.18-1.08.82-.28.2-.56.41-.84.61-.63-.09-1,.17-1.09.81-.07.11-.17.18-.3.2-.92-.11-1.43.34-1.64,1.19-.08.12-.19.18-.32.21-.63-.1-1,.15-1.1.78-.08.11-.18.18-.31.2-.63-.12-1.01.13-1.12.77-.08.11-.18.17-.32.19-.63-.12-1.01.11-1.13.75-.08.11-.19.17-.33.19-.94.03-1.74.28-2.05,1.3Z"/>
  <path class="cls-11" d="m445.43,689.01c1.89,1.09,3.37,2.68,5.06,4.02,5.16,4.09,10.88,6.97,17.41,8.14,5.78,1.04,11.48.51,17.1-.97,7.77-2.04,14.77-5.6,20.89-10.84.91-.78,1.76-1.63,2.88-2.13,1.28.34,2.36-.26,3.35-.87,7.26-4.51,14.18-9.49,20.83-14.86,4.72-3.81,9.11-7.99,13.97-11.64,4.37-3.28,8.92-6.07,14.26-7.61,6.46-1.86,12.56-4.67,18.34-8.14,5.48-3.29,10.78-6.8,15.57-11.09,3.46-3.1,6.6-6.49,9.73-9.89,3.48-3.77,6.49-7.87,9.17-12.24.32-.53.76-1.06.51-1.77,0-.09.05-.16.13-.19.72-.11.97-.53.81-1.22.81-1.37,1.62-2.74,2.44-4.1,3.87-6.36,6.1-13.27,6.81-20.67.65-.49.63-1.28.78-1.95.97-4.37,2.33-8.62,3.87-12.82,1.04-2.84,2.15-5.67,3.35-8.45,1.02-2.35,2.4-4.56,4.13-6.42,5.27-5.68,10.71-11.21,16.46-16.39,4.12-3.72,7.98-7.58,10.77-12.4,4.68-8.09,7.52-16.7,7.12-26.17-.14-3.34-.5-6.67-.63-10.02-.2-5.16,1.45-9.76,3.77-14.17,2.78-5.29,6.85-9.6,11.19-13.62,3.69-3.41,7.46-6.73,11.32-9.94,1.5-1.25,2.68-2.98,4.68-3.6.33,11.54-.5,23.01-2.2,34.41-5.12,34.35-17.38,66.05-35.85,95.36-24.33,38.61-56.32,69.51-95.13,93.38-33.48,20.59-69.6,34.24-108.4,40.69-17.88,2.97-35.88,4.08-53.99,3.46-.32-.01-.64-.06-.95-.09.02-.75.56-1.05,1.1-1.43,5.01-3.56,9.87-7.31,14.75-11.06,3.79-2.91,7.55-5.88,11.8-8.15,4.06-2.16,8.4-3.41,12.8-4.57Z"/>
  <path class="cls-7" d="m689.73,582.71c.25.93-.26,1.72-.55,2.52-1.83,5.03-3.2,10.18-3.93,15.47-.3,2.19-.81,4.4-.63,6.64.15,1.85-.61,3.65-.39,5.46.46,3.71.35,7.45.73,11.18.55,5.39,1.48,10.7,2.59,15.99,2.14,10.24,5.18,20.21,10.15,29.48,1.47,2.73,3.01,5.44,4.88,7.93,1.11,1.48,2.34,2.68,4.4,1.52.3-.17.78-.01,1.17,0-1.59.98-3.42,1.3-5.15,1.91-13.64,4.76-27.73,7.61-41.95,9.88-6.23,1-12.46,2.08-18.76,2.58-7.18.58-14.35.85-21.56.53-5.91-.27-11.83-.39-17.7-1.14-6.2-.8-12.29-2.06-18.2-4.14-3.64-1.28-6.91-3.24-9.97-5.49.11-.55.47-.73.82-.94,16.04-9.74,30.94-20.99,44.92-33.48,18.7-16.69,35.09-35.4,49.1-56.19.69-1.02,1.42-1.88,2.67-2.26,5.54-1.67,10.69-4.23,15.81-6.86.49-.25.96-.59,1.55-.57Z"/>
  <path class="cls-3" d="m701.51,447c-2,.61-3.17,2.34-4.68,3.6-3.86,3.21-7.64,6.53-11.32,9.94-4.35,4.02-8.41,8.33-11.19,13.62-2.32,4.4-3.97,9.01-3.77,14.17.13,3.35.49,6.68.63,10.02.4,9.47-2.43,18.08-7.12,26.17-2.79,4.82-6.65,8.68-10.77,12.4-5.75,5.19-11.19,10.72-16.46,16.39-1.73,1.86-3.11,4.07-4.13,6.42-1.2,2.78-2.31,5.6-3.35,8.45-1.54,4.19-2.9,8.44-3.87,12.82-.15.66-.13,1.46-.78,1.95-.03-8.37-.38-16.75,2.26-24.91,2.32-7.2,6.61-12.62,13.29-16.24,4.84-2.62,9.67-5.29,14.06-8.67,8.31-6.39,12.64-14.82,13.16-25.26.29-5.94-.43-11.8-1.26-17.65-.52-3.64-.89-7.28-.87-10.97.03-7.4,3.12-13.24,8.87-17.75,3.39-2.66,7.05-4.96,10.39-7.7,2.68-2.2,4.97-4.73,7.1-7.43,2.88-3.63,5.64-7.35,7.99-11.36.23-.4.47-.82,1.2-1.12.65,4.46.6,8.79.63,13.12Z"/>
  <path class="cls-9" d="m614.5,609.12c.25.71-.18,1.24-.51,1.77-2.68,4.36-5.69,8.47-9.17,12.24-3.14,3.4-6.27,6.79-9.73,9.89-4.79,4.29-10.09,7.8-15.57,11.09-5.78,3.47-11.88,6.28-18.34,8.14-5.34,1.54-9.89,4.33-14.26,7.61-4.86,3.64-9.26,7.83-13.97,11.64-6.65,5.37-13.57,10.36-20.83,14.86-.99.61-2.07,1.22-3.35.87.17-.26.29-.58.51-.78,8.33-7.55,15.32-16.26,21.87-25.35,2.66-3.69,5.65-7.15,9.09-10.16,4.22-3.69,9.24-5.71,14.68-6.59,8.81-1.42,17.27-3.89,25.42-7.51,12.75-5.67,23.38-13.99,31.81-25.11.7-.93,1.18-2.09,2.35-2.61Z"/>
  <path class="cls-5" d="m445.43,689.01c-4.39,1.16-8.74,2.4-12.8,4.57-4.26,2.27-8.01,5.24-11.8,8.15-4.87,3.74-9.74,7.5-14.75,11.06-.54.38-1.08.69-1.1,1.43-2.96.26-5.88-.3-8.82-.43-3.34-.15-6.66-.58-9.97-.89-.17-.94.57-.98.99-1.21,7.58-4.05,14.3-9.29,20.74-14.94,4.56-4,9.17-7.96,14.64-10.71,2.87-1.44,5.88-2.44,9.03-3.08,2.44-.5,4.77-.24,6.97.92,2.54,1.35,4.9,2.97,6.85,5.12Z"/>
  <path class="cls-7" d="m717.64,674.78c.27-.8,1.06-.93,1.68-1.2,3.43-1.49,6.77-3.16,10.1-4.86.42-.21.84-.48,1.35-.33-.33.73-1.08.9-1.7,1.2-3.76,1.84-7.39,3.97-11.44,5.18Z"/>
  <path class="cls-7" d="m762.33,645.25c.03-.15,0-.36.08-.46,2.54-2.84,5.24-5.52,8.06-8.08.1-.09.3-.06.45-.09-.54,1.38-1.73,2.23-2.73,3.2-1.91,1.86-3.52,4.05-5.87,5.43Z"/>
  <path class="cls-7" d="m819.69,559.15c.1-2.03.67-3.91,1.85-5.59-.23,1.99-.84,3.86-1.85,5.59Z"/>
  <path class="cls-7" d="m731.12,668.22c.65-1.21,1.78-1.6,3.05-1.72-.8.96-1.85,1.47-3.05,1.72Z"/>
  <path class="cls-7" d="m713.31,676.64c.86-.94,1.87-1.53,3.2-1.37-.93.79-1.97,1.3-3.2,1.37Z"/>
  <path class="cls-7" d="m817.75,564.41c-.13-1.07,0-2.04,1.02-2.68-.04,1.01-.32,1.92-1.02,2.68Z"/>
  <path class="cls-7" d="m823.24,547.87c-.5-1.02-.07-1.79.68-2.47.1.91-.09,1.75-.68,2.47Z"/>
  <path class="cls-7" d="m822.27,551.23c-.47-1.03-.07-1.8.72-2.46.08.92-.12,1.75-.72,2.46Z"/>
  <path class="cls-7" d="m813.91,573.53c-.2-.98.11-1.72,1-2.21,0,.89-.35,1.61-1,2.21Z"/>
  <path class="cls-7" d="m807.55,585.92c-.03-.94.24-1.71,1.19-2.1-.08.88-.44,1.6-1.19,2.1Z"/>
  <path class="cls-7" d="m736.89,664.89c.31-1.02,1.11-1.27,2.05-1.3-.46.78-1.17,1.17-2.05,1.3Z"/>
  <path class="cls-7" d="m776.81,630.02c-.03-.91.43-1.41,1.3-1.56-.14.77-.58,1.28-1.3,1.56Z"/>
  <path class="cls-7" d="m773.91,633.35c0-.91.46-1.4,1.35-1.52-.16.77-.61,1.27-1.35,1.52Z"/>
  <path class="cls-7" d="m757.52,649.54c.14-.87.62-1.34,1.53-1.33-.25.74-.76,1.18-1.53,1.33Z"/>
  <path class="cls-7" d="m754.15,652.4c.15-.86.65-1.32,1.54-1.31-.27.72-.78,1.16-1.54,1.31Z"/>
  <path class="cls-7" d="m743.57,660.5c.21-.85.72-1.3,1.64-1.19-.34.68-.87,1.11-1.64,1.19Z"/>
  <path class="cls-7" d="m828.2,518.21c-.62-.43-.73-.92-.17-1.49.39.46.47.95.17,1.49Z"/>
  <path class="cls-7" d="m828.04,526.28c-.58-.56-.46-1.06.15-1.5.3.54.24,1.04-.15,1.5Z"/>
  <path class="cls-7" d="m826.05,536.83c-.5-.63-.36-1.12.33-1.49.21.57.09,1.06-.33,1.49Z"/>
  <path class="cls-7" d="m806.15,588.36c-.17-.63.05-1.03.7-1.17.05.56-.2.94-.7,1.17Z"/>
  <path class="cls-7" d="m798.92,599.84c-.13-.63.1-1.02.75-1.13.02.56-.24.93-.75,1.13Z"/>
  <path class="cls-7" d="m797.96,601.28c-.13-.64.11-1.02.77-1.13.02.56-.25.93-.77,1.13Z"/>
  <path class="cls-7" d="m797,602.72c-.13-.64.12-1.02.77-1.12.01.56-.25.93-.77,1.12Z"/>
  <path class="cls-7" d="m800.82,596.93c-.12-.61.11-1,.74-1.12.02.55-.22.93-.74,1.12Z"/>
  <path class="cls-7" d="m796.03,604.14c-.12-.63.12-1.01.77-1.12.01.56-.25.93-.77,1.12Z"/>
  <path class="cls-7" d="m795.06,605.57c-.11-.63.13-1,.77-1.11.01.56-.25.92-.77,1.11Z"/>
  <path class="cls-7" d="m794.08,606.99c-.1-.62.15-.99.77-1.09.01.55-.24.92-.77,1.09Z"/>
  <path class="cls-9" d="m615.44,607.71c.16.69-.09,1.11-.81,1.22-.11-.66.19-1.04.81-1.22Z"/>
  <path class="cls-7" d="m802.32,594.59c-.16-.65.07-1.04.74-1.15.03.56-.24.93-.74,1.15Z"/>
  <path class="cls-7" d="m791.7,610.37c-.11-.64.14-1.01.79-1.1,0,.56-.27.92-.79,1.1Z"/>
  <path class="cls-7" d="m790.71,611.77c-.09-.61.16-.98.79-1.08,0,.55-.26.91-.79,1.08Z"/>
  <path class="cls-7" d="m789.3,613.73c-.1-.64.15-1.01.8-1.1,0,.56-.28.92-.8,1.1Z"/>
  <path class="cls-7" d="m786.87,617.05c-.08-.62.17-.99.8-1.08,0,.56-.28.91-.8,1.08Z"/>
  <path class="cls-7" d="m785.45,618.99c-.09-.63.16-1,.81-1.08,0,.56-.28.92-.81,1.08Z"/>
  <path class="cls-7" d="m784.02,620.91c-.09-.64.17-1.01.82-1.08-.01.56-.29.92-.82,1.08Z"/>
  <path class="cls-7" d="m782.57,622.82c-.08-.64.18-1,.83-1.07-.01.56-.3.91-.83,1.07Z"/>
  <path class="cls-7" d="m781.1,624.71c-.07-.62.2-.98.83-1.05-.02.55-.29.91-.83,1.05Z"/>
  <path class="cls-7" d="m779.19,627.12c-.06-.63.21-.99.85-1.05-.03.56-.31.91-.85,1.05Z"/>
  <path class="cls-7" d="m827.35,513.4c-.62-.26-.72-.69-.4-1.25.37.34.58.73.4,1.25Z"/>
  <path class="cls-7" d="m803.24,593.12c-.14-.63.09-1.01.73-1.14.03.55-.22.93-.73,1.14Z"/>
  <path class="cls-7" d="m827.55,529.64c-.57-.44-.31-.75.16-1.03.24.39.17.73-.16,1.03Z"/>
  <path class="cls-7" d="m827.08,532.04c-.58-.47-.3-.77.21-1.03.23.4.13.74-.21,1.03Z"/>
  <path class="cls-7" d="m825.6,538.75c-.56-.48-.25-.77.22-1.02.21.4.11.74-.22,1.02Z"/>
  <path class="cls-7" d="m825.14,540.67c-.56-.49-.26-.78.24-1.02.21.41.1.74-.24,1.02Z"/>
  <path class="cls-7" d="m751.76,654.34c.06-.64.42-.91,1.05-.86-.14.54-.49.83-1.05.86Z"/>
  <path class="cls-7" d="m824.66,542.59c-.56-.5-.26-.79.26-1.02.2.41.09.74-.26,1.02Z"/>
  <path class="cls-7" d="m747.44,657.69c.08-.65.45-.91,1.08-.82-.16.54-.52.81-1.08.82Z"/>
  <path class="cls-7" d="m745.51,659.11c.09-.64.46-.89,1.09-.81-.16.54-.53.8-1.09.81Z"/>
  <path class="cls-7" d="m824.16,544.51c-.56-.51-.24-.79.26-1.02.2.41.08.75-.26,1.02Z"/>
  <path class="cls-7" d="m799.87,598.39c-.13-.63.11-1.01.75-1.13.02.55-.23.93-.75,1.13Z"/>
  <path class="cls-7" d="m740.71,662.46c.11-.64.49-.89,1.12-.77-.19.53-.56.79-1.12.77Z"/>
  <path class="cls-7" d="m739.27,663.4c.12-.64.5-.88,1.13-.75-.2.52-.57.78-1.13.75Z"/>
  <path class="cls-7" d="m749.36,656.24c.07-.63.43-.9,1.06-.83-.15.54-.5.82-1.06.83Z"/>
  <path class="cls-7" d="m735.42,665.78c.14-.63.53-.86,1.16-.71-.21.52-.6.76-1.16.71Z"/>
  <path class="cls-7" d="m826.57,534.44c-.56-.48-.27-.77.22-1.03.22.4.12.74-.22,1.03Z"/>
  <path class="cls-7" d="m816.81,566.82c-.27-.59-.14-1.02.5-1.25.14.54-.08.93-.5,1.25Z"/>
  <path class="cls-7" d="m815.81,569.2c-.25-.59-.1-1.02.53-1.24.12.54-.09.94-.53,1.24Z"/>
  <path class="cls-7" d="m804.71,590.75c-.16-.63.06-1.03.72-1.16.04.56-.22.93-.72,1.16Z"/>
  <path class="cls-7" d="m742.15,661.5c.1-.63.48-.89,1.1-.78-.18.53-.54.8-1.1.78Z"/>
  <path class="cls-7" d="m712.5,676.9c.08-.12.18-.13.29-.04-.05.34-.17.24-.29.04Z"/>
</svg>