<?xml version="1.0" encoding="UTF-8"?>
<svg id="_图层_1" data-name="图层 1" xmlns="http://www.w3.org/2000/svg" viewBox="0 0 960 960">
  <defs>
    <style>
      .cls-1 {
        fill: #bb813d;
      }

      .cls-1, .cls-2, .cls-3, .cls-4, .cls-5, .cls-6, .cls-7, .cls-8, .cls-9, .cls-10, .cls-11, .cls-12, .cls-13 {
        stroke-width: 0px;
      }

      .cls-2 {
        fill: #ffe459;
      }

      .cls-3 {
        fill: #050305;
      }

      .cls-4 {
        fill: #c14398;
      }

      .cls-5 {
        fill: #ff72d8;
      }

      .cls-6 {
        fill: #b93996;
      }

      .cls-7 {
        fill: #bd3d98;
      }

      .cls-8 {
        fill: #040303;
      }

      .cls-9 {
        fill: #f4d6aa;
      }

      .cls-10 {
        fill: #fe72d7;
      }

      .cls-11 {
        fill: #ffe359;
      }

      .cls-12 {
        fill: #bd3e98;
      }

      .cls-13 {
        fill: #bf4098;
      }
    </style>
  </defs>
  <path class="cls-5" d="m509.68,252.29c9.66.48,19.12,2.24,28.48,4.58,5.87,1.46,11.75,2.92,17.56,4.64.1,1.62,1.02,2.64,2.43,3.27,1.17.52,2.34,1.02,3.52,1.51,8.63,3.58,17.38,6.87,25.79,10.98,18.89,9.22,36.5,20.5,53.43,32.89,8.99,6.58,17.28,13.97,24.69,22.31.69.78,1.45,1.5,1.8,2.52.59,1.67,1.54,3.15,2.47,4.65,10.57,17.2,18.55,35.54,24.08,54.96.42,1.48.31,2.72-.3,4.13-3.02,7.05-7.5,12.97-13.42,17.84-2.84,2.34-5.6,4.77-8.18,7.4-5.53,5.62-9.15,12.26-10.72,20-.78,3.86-1.04,7.76-.97,11.69.09,4.8.13,9.6.38,14.39.5,9.6-2.48,18.08-7.88,25.88-4.13,5.96-9.16,11.08-14.5,15.93-5.62,5.11-11.34,10.1-17,15.17-8.55,7.66-14.44,16.97-17.64,28.03-1.85,6.39-3.3,12.85-4.5,19.38-1.12,6.13-1.98,12.32-3.74,18.32-3.64,12.38-9.84,23.09-20.6,30.64-10.31,7.24-21.54,12.52-33.91,15.2-8.07,1.75-16.28,2.43-24.51,2.87-13.92.75-27.38,3.55-40.41,8.57-11.13,4.29-21.87,9.42-32.57,14.67-9.7,4.76-19.6,9.03-29.88,12.39-6.4,2.09-12.88,3.87-19.6,4.44-12.7,1.07-24.27-1.89-34.34-9.97-3.81-3.05-7.41-6.34-10.99-9.65-4.52-4.19-9.38-7.97-14.44-11.48-8.53-5.91-17.93-9.4-28.32-10.17-7.13-.53-14.22-.05-21.32.44-4.63.32-9.25.64-13.89.57-8.43-.14-16.03-2.56-22.62-7.97-3.21-2.64-6.45-5.26-9.97-7.48-1.54-.98-2.63-2.23-3.49-3.82-8.64-15.98-15.17-32.77-19.68-50.35-6.74-26.28-8.56-52.94-6.35-79.95,2.43-29.67,9.59-58.14,21.29-85.49,6.17-14.43,13.58-28.23,21.4-41.81,1.19-2.07,2.37-4.16,3.24-6.4.84-.35,1.41-1.03,2.03-1.65,3.8-3.77,7.51-7.64,11.43-11.29,7.71-7.18,15.19-14.61,23.41-21.24,3.35-2.7,6.46-5.71,9.65-8.6,8.12-7.36,16.67-14.15,26.15-19.71.82-.48,1.7-.91,2.23-1.76,1.68,1.78,2.65,2.06,4.84,1.05,1.59-.73,3.12-1.62,4.62-2.52,4.72-2.84,9.43-5.7,14.3-8.29,21.56-11.49,44.39-19.59,68.07-25.4,14.86-3.65,29.9-6.08,45.23-6.45,11.4-.28,22.66.59,33.63,4.08,4.47,1.42,7.02.27,9.61-3.91Zm-64,369.02c.27-.09.43-.29.52-.56.35-.44.69-.88,1.04-1.31,3.97-4.81,4.11-11.88-1.18-16.28-1.75-1.46-3.75-2.45-5.91-3.07-2.76-.78-5.51-1.61-8.28-2.34-7.62-2.01-15.05-.82-22.31,1.86-6.62,2.44-12.82,5.76-18.82,9.45-3,1.84-5.89,3.86-8.22,6.54-3.75,4.3-4.39,9.22-1.6,14.16.76,1.35,2.09,2.2,2.93,3.46.16.18.31.37.47.55l-.03-.04c-.13.95.32,1.7.8,2.44,2.16,3.33,5.33,5.26,9.07,6.15,3.31.78,6.66,1.08,10.16.68,4.62-.53,9.1-1.45,13.53-2.76,5.54-1.65,10.61-4.35,15.63-7.14,3.86-2.15,7.31-4.84,10.22-8.18.92-1.06,2.09-2.03,2.01-3.66l-.03.04Zm120.82-56.79c.33-1.8,1.06-3.5,1.34-5.32,1.09-7.22-4.06-13.58-11.16-13.22-2.61.13-5.06.79-7.39,1.83-10.11,4.51-17.91,11.55-23.2,21.31-.88,1.62-1.57,3.32-2.13,5.07-.91,2.84-.54,5.67.05,8.51-1.06,1.8-.76,3.72-.27,5.54,1.17,4.4,5.46,7.7,10.17,8.14,5.77.53,10.81-1.24,15.42-4.58,2.86-2.07,5.22-4.67,7.65-7.19,3.1-3.23,5.63-6.9,7.7-10.86,1.51-2.88,2.28-5.93,1.82-9.22Zm35.27-160.95c-.06-.72-.13-1.43-.17-2.15-.22-4.37-1.23-8.49-3.34-12.37-3.36-6.2-10.97-10.32-18.98-7.5-7.91,2.78-13.17,8.19-16.42,15.75-2.52,5.84-3.27,11.98-2.97,18.28.4,8.44,3.08,15.77,10.11,21.03,1.78,5.16,5.27,8.55,10.67,9.51,4.17.75,8.08-.33,11.56-2.79,5.26-3.71,8.29-9.01,10.22-14.93,2.15-6.57,2.07-13.32.72-20.07-.32-1.63-.41-3.33-1.4-4.76Zm-363.72,122.26c.09,4.77,2.3,8.48,6.19,10.99,7.16,4.62,15.1,1.96,19.66-3.22,3.25-3.69,5.45-8.03,7.11-12.64,2.19-6.08,3.93-12.29,4.72-18.72.34-2.78.34-5.58-.93-8.21.02-1.92.05-3.83.07-5.75.04-3.56-.63-7-1.94-10.29-2.13-5.37-5.7-9.23-11.55-10.45-4.45-.93-8.52.33-12.4,2.49-5.05,2.81-8.61,7.03-11.48,11.93-5.73,9.78-7.69,20.18-5.19,31.33,1.03,4.59,2.97,8.75,5.74,12.53Zm203.87-195.75c2.46.74,5.03.73,7.55.88,4.22.24,8.42-.1,12.61-.83,8.75-1.53,16.45-5.06,22.4-11.79,2.79-3.16,4.74-6.81,4.29-11.29.03-.64.06-1.28.08-1.92.13-3.69-1.19-6.9-4.14-9-3.29-2.35-6.74-4.55-10.62-5.93-5.15-1.83-10.44-1.35-15.65-.71-11.04,1.37-21.48,4.82-31.37,9.9-5.2,2.67-9.23,6.3-10.36,12.38-.1.55-.36,1.06-.5,1.6-1.23,4.54.39,9.08,4.13,11.94,2.61,1.99,5.58,3.08,8.73,3.76,4.24.92,8.56.98,12.87,1.01Z"/>
  <path class="cls-8" d="m254.47,357.99c-.86,2.24-2.04,4.32-3.24,6.4-7.82,13.59-15.23,27.38-21.4,41.81-11.7,27.35-18.86,55.81-21.29,85.49-2.21,27.01-.38,53.67,6.35,79.95,4.51,17.58,11.04,34.38,19.68,50.35.86,1.6,1.95,2.85,3.49,3.82,3.52,2.22,6.76,4.84,9.97,7.48,6.59,5.41,14.19,7.83,22.62,7.97,4.64.08,9.27-.25,13.89-.57,7.1-.49,14.19-.97,21.32-.44,10.39.77,19.78,4.25,28.32,10.17,5.07,3.51,9.92,7.29,14.44,11.48,3.58,3.32,7.18,6.6,10.99,9.65,10.07,8.08,21.64,11.04,34.34,9.97,6.73-.57,13.21-2.35,19.6-4.44,10.28-3.36,20.18-7.63,29.88-12.39,10.69-5.25,21.43-10.38,32.57-14.67,13.03-5.02,26.49-7.82,40.41-8.57,8.23-.44,16.44-1.12,24.51-2.87,12.37-2.68,23.6-7.96,33.91-15.2,10.76-7.55,16.96-18.26,20.6-30.64,1.76-6,2.62-12.19,3.74-18.32,1.19-6.53,2.65-12.99,4.5-19.38,3.2-11.06,9.09-20.37,17.64-28.03,5.66-5.07,11.38-10.07,17-15.17,5.33-4.84,10.37-9.97,14.5-15.93,5.41-7.8,8.39-16.28,7.88-25.88-.25-4.79-.29-9.59-.38-14.39-.07-3.93.19-7.83.97-11.69,1.57-7.74,5.19-14.38,10.72-20,2.58-2.63,5.35-5.06,8.18-7.4,5.91-4.88,10.39-10.79,13.42-17.84.61-1.42.72-2.66.3-4.13-5.52-19.42-13.5-37.76-24.08-54.96-.92-1.5-1.87-2.98-2.47-4.65-.36-1.01-1.11-1.74-1.8-2.52-7.41-8.34-15.7-15.73-24.69-22.31-16.93-12.39-34.54-23.67-53.43-32.89-8.42-4.11-17.16-7.4-25.79-10.98-1.18-.49-2.36-.99-3.52-1.51-1.41-.63-2.33-1.65-2.43-3.27.76-1.78,2.26-2.11,3.96-1.97,3.51.3,6.97,1.01,10.34,1.97,23.91,6.78,46.99,15.53,67.95,29.2,10.82,7.06,20.88,15.04,29.92,24.27,6.07,6.2,11.16,13.13,15.55,20.63,16.81,28.7,27.07,59.59,30.92,92.58,5.6,47.98-2.04,94.01-20.84,138.32-9.25,21.81-21.08,42.16-35.24,61.15-.55.73-1.27,1.38-1.5,2.4.86.3,1.48-.16,2.11-.39,8.15-2.88,15.51-7.18,22.09-12.77,6.72-5.71,12.73-12.13,18.48-18.8,6.79-7.87,13.42-15.88,20.26-23.7,8.07-9.22,16.71-17.86,26.56-25.22,7.11-5.31,14.9-8.94,23.76-10.19,13.46-1.89,25.17,3.6,32.18,15.26,4.36,7.25,6.52,15.26,7.6,23.57,2.06,15.83-.2,31.08-6.44,45.75-4.65,10.94-10.48,21.22-17.63,30.71-11.75,15.58-24.99,29.68-40.52,41.64-14.9,11.48-31.15,20.32-48.86,26.58-10.13,3.58-20.43,6.38-31.04,8.13-13.53,2.23-26.92,1.52-40.23-1.6-6.85-1.61-13.69-3.27-20.31-5.68-10.91-3.96-20.45-10.13-28.71-18.24-1.07-1.05-1.7-.63-2.63-.06-9.01,5.51-18.29,10.52-27.84,15.04-32.6,15.44-66.84,24.63-102.89,26.66-45.73,2.57-89.26-5.85-129.57-27.95-56.88-31.18-93.51-78.68-110.62-141.06-11.29-41.15-11.25-82.64-1.26-124.11,7.19-29.86,18.86-57.84,35.42-83.75,2.76-4.31,5.7-8.5,8.92-12.49.8-.99,1.66-1.95,2.58-2.84,1.17-1.12,2.58-1.65,4.18-.99,1.61.67,2.18,2.01,2.13,3.67,0,.24,0,.48-.01.72Zm433.49,271.02c-.52.03-.86.3-1.02.81-.3.22-.6.44-.89.67-.52.02-.87.27-1.03.77-.78.55-1.55,1.09-2.33,1.64-.52,0-.87.24-1.06.73-.15.04-.28.11-.38.23-.52-.01-.88.23-1.07.71-.43.26-.87.53-1.3.79-.51-.03-.87.19-1.07.67-.45.25-.89.5-1.34.75-.85.1-1.56.43-2.04,1.17-.15.03-.27.1-.36.22-.84.04-1.47.58-2.17.94-6.74,3.44-13.86,5.73-21.34,6.86-1.61.24-3.26.41-4.71-.31-1.45-.71-2.17-.08-3.02.91-2.3,2.66-4.6,5.31-7.01,7.87-15.02,15.92-31.52,30.11-49.6,42.46-.58.39-1.3.67-1.56,1.42.28.76,1,1.02,1.61,1.35,3.52,1.88,7.03,3.79,10.61,5.55,9.44,4.66,19.42,7.72,29.65,10.05,8.6,1.96,17.28,3.12,26.12,2.93.94-.02,1.93.17,2.8-.37,1.11-.08,2.24-.1,3.34-.24,22.98-3.03,44.41-10.59,64.09-22.78,17.61-10.9,32.67-24.75,45.79-40.78,8.19-10.01,15.32-20.65,20.72-32.41,3.01-6.56,5.46-13.3,6.52-20.47.31-.3.4-.64.16-1.03.1-.62.19-1.24.29-1.86.36-.47.45-.96.17-1.5.3-1.24.35-2.51.33-3.78.52-2.7.55-5.41,0-8.11.02-1.27-.04-2.54-.34-3.79.28-.53.2-1.02-.17-1.48-.1-.62-.21-1.25-.31-1.87.22-.38.15-.71-.16-1.01l-.29-1.39c.21-.39.12-.72-.2-1.01-.07-.31-.15-.62-.22-.92.19-.4.08-.73-.25-1-.08-.31-.17-.61-.25-.92-.05-1.5-.52-2.87-1.32-4.13-1.4-3.95-3.26-7.61-6.51-10.4-.12-.52-.45-.79-.97-.83l-.9-.65c-.18-.49-.53-.71-1.05-.7-.14-.07-.29-.15-.43-.22-.07-.28-.23-.39-.52-.29-.15-.07-.31-.13-.46-.2-.66-.8-1.66-.88-2.55-1.14-2.97-.84-5.99-.76-8.99-.21-4.31.8-8.51,1.91-12.09,4.62-.44.26-.87.53-1.31.79-.51-.01-.87.21-1.04.7-.87.42-1.62,1.01-2.33,1.64-.52.02-.86.27-1,.78-.47.36-.94.73-1.42,1.09-.53.03-.86.3-1.01.81-.46.37-.92.75-1.38,1.12-.52.05-.85.32-.98.83-1.21.89-2.34,1.87-3.36,2.97-.71.2-1.2.64-1.43,1.35-2.87,2.59-5.59,5.33-8.19,8.2-.88.38-1.49,1.01-1.82,1.92-2.25,2.27-4.34,4.69-6.34,7.19-.52.13-.79.46-.84.98-2.28,2.71-4.55,5.42-6.83,8.13-.51.13-.79.46-.84.98-1.48,1.75-2.97,3.49-4.45,5.24-.51.13-.8.45-.86.98-.83.96-1.66,1.92-2.49,2.87-.52.12-.8.45-.86.98-.99,1.12-1.98,2.24-2.97,3.36-.52.11-.8.43-.87.96-4.98,5.29-10.06,10.49-15.41,15.4-.52.05-.85.33-.97.85-.63.52-1.27,1.04-1.9,1.56Zm12.75-200.59c-.26-1.97-.42-3.96-.8-5.9-.37-1.88-.21-3.92-1.54-6.08-.36.59-.55.95-.79,1.27-2.3,3.1-4.98,5.83-7.9,8.34-2.12,1.82-4.22,3.67-6.34,5.5-4.6,3.98-7.92,8.74-9.09,14.83-.73,3.8-.76,7.64-.49,11.47.38,5.43.46,10.86.43,16.29-.05,7.15-1.76,13.89-4.83,20.35-4.97,10.44-12.41,18.94-20.83,26.66-6.07,5.56-12.32,10.92-18.42,16.45-5.84,5.3-10.2,11.59-12.69,19.16-2.66,8.08-4.28,16.37-5.71,24.72-1.39,8.13-3.14,16.14-6.28,23.81-4.51,11.03-11.06,20.59-20.6,27.78-15.31,11.54-32.5,18.57-51.6,20.88-6.91.84-13.84,1.21-20.77,1.76-9.79.77-19.26,2.84-28.49,6.14-11.31,4.04-22.12,9.21-32.89,14.48-11.71,5.73-23.62,10.99-36.12,14.79-10.54,3.21-21.23,5.4-32.33,4.11-10.07-1.18-19.5-4.18-27.85-10.13-4.11-2.93-7.93-6.2-11.62-9.63-4.1-3.81-8.25-7.55-12.74-10.91-5.67-4.25-11.63-7.89-18.65-9.51-5.03-1.16-10.13-1.34-15.25-1.15-7.67.29-15.33.77-23,.44-6.91-.3-13.66-1.43-19.91-4.64-.28-.15-.59-.21-.86.32,1.29,1.61,2.62,3.29,3.98,4.95,5.23,6.36,10.72,12.47,16.7,18.14.75.7,1.49,1.41,2.24,2.11,12.27,11.46,25.71,21.33,40.34,29.56,33.77,19,70.17,28.09,108.77,28.67,26.92.41,53.21-3.75,78.91-11.72,77.5-24.04,143.15-82.75,176.08-157.49,13.62-30.92,21.5-63.19,22.68-97.02.45-12.96.04-25.9-1.72-38.77Z"/>
  <path class="cls-3" d="m509.68,252.29c-2.59,4.18-5.14,5.33-9.61,3.91-10.96-3.48-22.23-4.35-33.63-4.08-15.33.37-30.37,2.81-45.23,6.45-23.68,5.81-46.51,13.91-68.07,25.4-4.87,2.59-9.58,5.45-14.3,8.29-1.5.9-3.03,1.79-4.62,2.52-2.18,1.01-3.16.73-4.84-1.05-.56-1.61-.02-2.97,1-4.21,1.38-1.68,2.99-3.11,4.66-4.48,7.32-5.99,15.19-11.19,23.4-15.86,29.54-16.77,61.18-27,95.05-30.13,13.43-1.24,26.83-1.2,40.15,1.29,3.77.71,7.52,1.57,11.11,2.95,3.84,1.48,5.39,4.19,4.94,8.27-.03.24,0,.48-.01.72Z"/>
  <path class="cls-2" d="m441.92,330.08c-4.31-.03-8.63-.09-12.87-1.01-3.15-.68-6.12-1.77-8.73-3.76-3.74-2.86-5.35-7.4-4.13-11.94.15-.54.4-1.05.5-1.6,1.12-6.08,5.16-9.71,10.36-12.38,9.9-5.08,20.33-8.53,31.37-9.9,5.21-.65,10.5-1.13,15.65.71,3.88,1.38,7.33,3.58,10.62,5.93,2.94,2.1,4.26,5.31,4.14,9-.02.64-.05,1.28-.08,1.92-.25.49-.55.97-.75,1.48-1.21,3.04-3.18,5.48-5.73,7.49-9.51,7.51-20.48,11.39-32.34,13.19-2.67.41-5.39.19-8.02.87Z"/>
  <path class="cls-2" d="m238.05,525.82c-2.77-3.79-4.71-7.94-5.74-12.53-2.5-11.15-.54-21.55,5.19-31.33,2.87-4.9,6.43-9.12,11.48-11.93,3.88-2.15,7.95-3.42,12.4-2.49,5.85,1.22,9.42,5.09,11.55,10.45,1.31,3.29,1.98,6.73,1.94,10.29-.02,1.92-.05,3.83-.07,5.75-.55.75-.53,1.67-.68,2.52-1.58,8.71-5.06,16.62-10.11,23.86-2.68,3.86-5.84,7.19-10.26,9.1-3.06,1.33-6.18,1.54-9.34.48-2.47-.83-4.45-2.46-6.37-4.16Z"/>
  <path class="cls-2" d="m383.85,633.23c-.85-1.26-2.17-2.11-2.93-3.46-2.78-4.94-2.15-9.86,1.6-14.16,2.34-2.68,5.23-4.7,8.22-6.54,6-3.69,12.19-7.01,18.82-9.45,7.26-2.68,14.69-3.87,22.31-1.86,2.77.73,5.52,1.56,8.28,2.34,2.16.61,4.16,1.61,5.91,3.07,5.29,4.4,5.16,11.47,1.18,16.28-.35.43-.69.87-1.04,1.31-.17.19-.34.37-.52.55,0,0,.03-.04.03-.04-1.63,1.15-3.19,2.4-4.89,3.43-11.14,6.76-23.05,11.33-36.11,12.61-6.81.67-13.4.1-19.51-3.32-.27-.15-.61-.17-.91-.25,0,0,.03.04.03.04-.16-.18-.31-.37-.47-.55Z"/>
  <path class="cls-2" d="m569.99,436.59c-7.02-5.25-9.71-12.59-10.11-21.03-.3-6.3.46-12.44,2.97-18.28,3.26-7.56,8.52-12.97,16.42-15.75,8.02-2.82,15.62,1.3,18.98,7.5,2.1,3.88,3.12,8.01,3.34,12.37.04.72.11,1.43.17,2.15-.19,3.18-.42,6.36-1.09,9.48-1.62,7.49-4.73,14.21-10.51,19.44-4.08,3.7-8.7,6.11-14.47,5.72-2.06-.14-3.82-1.02-5.71-1.61Z"/>
  <path class="cls-11" d="m524,582.68c-.6-2.83-.97-5.66-.05-8.51.56-1.75,1.25-3.45,2.13-5.07,5.29-9.76,13.09-16.81,23.2-21.31,2.33-1.04,4.78-1.7,7.39-1.83,7.1-.36,12.25,6,11.16,13.22-.28,1.83-1.01,3.52-1.34,5.33-.16.17-.37.32-.48.52-3.47,6.43-8.49,11.5-14.11,16.01-3.86,3.1-8.02,5.79-12.85,7.15-5.79,1.63-11.37.42-14.41-4.82-.16-.27-.42-.47-.63-.7Z"/>
  <path class="cls-12" d="m238.05,525.82c1.91,1.71,3.89,3.33,6.37,4.16,3.16,1.06,6.28.85,9.34-.48,4.42-1.91,7.57-5.25,10.26-9.1,5.04-7.24,8.52-15.14,10.11-23.86.15-.84.14-1.77.68-2.52,1.26,2.63,1.26,5.43.92,8.21-.78,6.43-2.52,12.63-4.72,18.72-1.66,4.61-3.86,8.95-7.11,12.64-4.56,5.18-12.51,7.84-19.66,3.22-3.89-2.51-6.1-6.21-6.19-10.99Z"/>
  <path class="cls-7" d="m569.99,436.59c1.89.58,3.66,1.47,5.71,1.61,5.76.39,10.38-2.03,14.47-5.72,5.77-5.23,8.89-11.95,10.51-19.44.68-3.12.91-6.3,1.09-9.48.99,1.43,1.08,3.13,1.4,4.76,1.34,6.75,1.43,13.49-.72,20.07-1.94,5.92-4.96,11.23-10.22,14.93-3.49,2.46-7.4,3.54-11.56,2.79-5.4-.97-8.89-4.35-10.67-9.51Z"/>
  <path class="cls-12" d="m524,582.68c.21.23.48.44.63.7,3.04,5.24,8.63,6.44,14.41,4.82,4.84-1.36,8.99-4.05,12.85-7.15,5.62-4.51,10.64-9.59,14.11-16.01.11-.2.32-.35.48-.52.46,3.28-.31,6.33-1.82,9.22-2.08,3.96-4.6,7.63-7.7,10.86-2.42,2.52-4.78,5.12-7.65,7.19-4.61,3.34-9.66,5.11-15.42,4.58-4.71-.43-9.01-3.74-10.17-8.14-.48-1.83-.79-3.74.27-5.54Z"/>
  <path class="cls-13" d="m384.28,633.74c.31.08.65.1.91.25,6.11,3.42,12.7,3.99,19.51,3.32,13.06-1.28,24.97-5.85,36.11-12.61,1.7-1.03,3.26-2.28,4.89-3.43.09,1.63-1.09,2.6-2.01,3.66-2.91,3.34-6.36,6.02-10.22,8.18-5.02,2.8-10.09,5.5-15.63,7.14-4.43,1.32-8.92,2.23-13.53,2.76-3.5.4-6.84.11-10.16-.68-3.74-.89-6.92-2.82-9.07-6.15-.48-.74-.94-1.5-.8-2.44Z"/>
  <path class="cls-4" d="m441.92,330.08c2.63-.69,5.35-.47,8.02-.87,11.85-1.8,22.83-5.68,32.34-13.19,2.55-2.02,4.52-4.46,5.73-7.49.2-.51.5-.99.75-1.48.46,4.48-1.49,8.13-4.29,11.29-5.95,6.74-13.64,10.27-22.4,11.79-4.18.73-8.38,1.07-12.61.83-2.52-.15-5.09-.14-7.55-.88Z"/>
  <path class="cls-13" d="m445.68,621.3c.17-.18.34-.37.52-.55-.09.26-.24.47-.52.55Z"/>
  <path class="cls-13" d="m383.85,633.23c.16.18.31.37.47.55-.16-.18-.31-.37-.47-.55Z"/>
  <path class="cls-9" d="m700.71,428.43c1.75,12.87,2.17,25.81,1.72,38.77-1.17,33.83-9.06,66.1-22.68,97.02-32.92,74.74-98.58,133.46-176.08,157.49-25.7,7.97-51.99,12.13-78.91,11.72-38.6-.58-75-9.67-108.77-28.67-14.63-8.23-28.07-18.1-40.34-29.56-.75-.7-1.49-1.41-2.24-2.11.17-.68.55-.72,1.23-.67,3.66.25,7.32.91,10.99.55,6.51-.64,12.96-1.7,19.36-3.08,6.72-1.45,13.5-2.5,20.42-2.08.64.04,1.28.04,1.92-.03,1.12-.12,2.05.24,2.87.95,1.21,1.04,2.43,2.07,3.62,3.14,7.65,6.91,15.39,13.68,24.22,19.1,4.37,2.68,8.77,5.25,13.52,7.19,9.05,3.68,18.43,5.66,28.22,5.68,6.89.02,13.68-.94,20.46-2.01,9.36-1.48,18.37-4.16,26.81-8.55,8.15-4.25,15.79-9.37,23.77-13.94,5.83-3.34,11.63-6.71,17.86-9.26,5.33-2.18,10.92-3.58,16.43-5.19,10.11-2.96,20.31-5.61,30.63-7.71,9.16-1.86,18.26-3.82,27.08-7.05,7.39-2.7,14.52-5.82,20.89-10.52,3.86-2.85,7.76-5.67,10.9-9.33,5.45-6.37,9.57-13.61,12.6-21.38,4.3-11.01,8.41-22.09,12.21-33.28,2.81-8.25,5.75-16.44,9.9-24.14,1.98-3.67,4.2-7.2,7.03-10.25,6.37-6.85,13.33-13.1,20.66-18.92,7.55-6,13.94-12.9,17.78-21.91,1.92-4.51,3.35-9.1,3.71-14.04.22-3.04.19-6.03,0-9.07-.38-6.16,0-12.31,1.38-18.33,2.03-8.87,5.54-16.99,12.48-23.27,2.19-1.98,4.23-4.13,6.35-6.2.56-.55,1.06-1.23,2.01-1.09Z"/>
  <path class="cls-10" d="m674.07,638.17c.09-.12.22-.19.36-.22.91.02,1.68-.22,2.04-1.17.45-.25.89-.5,1.33-.75.59.15.95-.06,1.07-.67.43-.26.87-.53,1.3-.79.61.15.98-.07,1.08-.71.1-.12.23-.2.38-.23.61.13.98-.09,1.06-.73.78-.55,1.55-1.09,2.33-1.64.61.1.97-.14,1.03-.77.3-.22.6-.44.89-.67.62.09.97-.17,1.02-.81.63-.52,1.27-1.04,1.9-1.56.62.06.95-.22.97-.85,5.35-4.92,10.43-10.12,15.41-15.4.62-.02.9-.34.87-.96.99-1.12,1.98-2.24,2.97-3.36.62-.03.9-.36.86-.98.83-.96,1.66-1.92,2.49-2.87.63-.02.91-.35.86-.98,1.48-1.75,2.97-3.49,4.45-5.23.62-.04.89-.37.84-.98,2.28-2.71,4.55-5.42,6.83-8.13.62-.04.9-.37.84-.98,2-2.5,4.09-4.91,6.34-7.19,1.06-.21,1.7-.82,1.82-1.92,2.6-2.87,5.32-5.61,8.19-8.2.88-.02,1.35-.48,1.43-1.35,1.03-1.1,2.16-2.07,3.36-2.97.6.05.94-.22.98-.83.46-.37.92-.75,1.38-1.12.61.08.96-.18,1.01-.81.47-.36.94-.73,1.41-1.09.59.07.94-.17,1-.78.72-.63,1.47-1.22,2.33-1.64.58.11.94-.11,1.04-.7.44-.26.87-.53,1.31-.79,1.29.09,2.2-.8,3.26-1.28,4.1-1.86,8.32-2.99,12.88-3.03,2.58-.02,5,.64,7.49,1.04.15.07.31.13.46.2.07.28.24.38.52.29.14.07.29.15.43.22.11.59.47.8,1.05.7.3.22.6.44.9.65.04.61.37.87.97.83,3.25,2.79,5.11,6.45,6.51,10.4-.07,1.54.38,2.91,1.32,4.13.08.31.17.61.25.92-.55.49-.25.77.25,1,.07.31.15.62.22.92-.54.46-.26.75.2,1.01.1.46.19.93.29,1.39-.55.43-.28.74.16,1.01.1.62.21,1.25.31,1.87-.55.56-.41,1.05.17,1.48.3,1.25.35,2.51.34,3.79-.6,2.7-.61,5.41,0,8.11.03,1.27-.03,2.53-.33,3.78-.59.44-.72.93-.17,1.5-.1.62-.19,1.24-.29,1.86-.47.28-.72.59-.16,1.03-1.06,7.18-3.51,13.92-6.52,20.47-5.4,11.77-12.53,22.41-20.72,32.41-13.12,16.03-28.19,29.88-45.79,40.78-19.68,12.19-41.11,19.75-64.09,22.78-1.11.15-2.23.17-3.34.24-.77-.3-1.58-.15-2.37-.14-.96.02-1.38-.1-1.22-1.34.97-7.49,2.17-14.93,3.5-22.36,1.79-9.95,4.22-19.75,7.26-29.39,2.9-9.2,6.48-18.12,11.47-26.43Z"/>
  <path class="cls-1" d="m700.71,428.43c-.94-.14-1.44.54-2.01,1.09-2.11,2.07-4.15,4.22-6.35,6.2-6.94,6.28-10.45,14.39-12.48,23.27-1.38,6.02-1.76,12.17-1.38,18.33.19,3.04.22,6.03,0,9.07-.36,4.94-1.79,9.53-3.71,14.04-3.84,9.01-10.23,15.91-17.78,21.91-7.33,5.82-14.28,12.07-20.66,18.92-2.83,3.04-5.05,6.58-7.03,10.25-4.15,7.7-7.09,15.88-9.9,24.14-3.8,11.19-7.92,22.27-12.21,33.28-3.03,7.77-7.15,15-12.6,21.38-3.13,3.66-7.04,6.48-10.9,9.33-6.37,4.7-13.5,7.82-20.89,10.52-8.81,3.22-17.92,5.19-27.08,7.05-10.33,2.1-20.52,4.75-30.63,7.71-5.51,1.61-11.1,3.01-16.43,5.19-6.23,2.55-12.03,5.92-17.86,9.26-7.97,4.57-15.61,9.69-23.77,13.94-8.44,4.39-17.45,7.07-26.81,8.55-6.77,1.07-13.57,2.03-20.46,2.01-9.79-.03-19.17-2-28.22-5.68-4.76-1.93-9.15-4.5-13.52-7.19-8.83-5.42-16.57-12.19-24.22-19.1-1.19-1.07-2.4-2.11-3.62-3.14-.82-.7-1.76-1.07-2.87-.95-.63.07-1.28.07-1.92.03-6.92-.42-13.7.63-20.42,2.08-6.4,1.38-12.85,2.45-19.36,3.08-3.67.36-7.33-.3-10.99-.55-.68-.05-1.07-.01-1.23.67-5.97-5.67-11.47-11.78-16.7-18.14-1.36-1.65-2.69-3.34-3.98-4.95.26-.53.57-.47.86-.32,6.25,3.21,13,4.34,19.91,4.64,7.67.33,15.34-.15,23-.44,5.12-.19,10.22,0,15.25,1.15,7.02,1.62,12.97,5.26,18.65,9.51,4.49,3.36,8.64,7.1,12.74,10.91,3.69,3.43,7.52,6.7,11.62,9.63,8.34,5.95,17.78,8.96,27.85,10.13,11.11,1.3,21.79-.9,32.33-4.11,12.5-3.8,24.41-9.07,36.12-14.79,10.77-5.27,21.58-10.44,32.89-14.48,9.23-3.29,18.7-5.36,28.49-6.14,6.92-.55,13.86-.92,20.77-1.76,19.1-2.31,36.29-9.34,51.6-20.88,9.55-7.2,16.1-16.75,20.6-27.78,3.13-7.67,4.89-15.69,6.28-23.81,1.43-8.35,3.05-16.65,5.71-24.72,2.5-7.58,6.85-13.86,12.69-19.16,6.1-5.53,12.35-10.89,18.42-16.45,8.42-7.72,15.86-16.21,20.83-26.66,3.07-6.46,4.79-13.2,4.83-20.35.04-5.43-.05-10.87-.43-16.29-.27-3.83-.23-7.67.49-11.47,1.17-6.09,4.49-10.85,9.09-14.83,2.11-1.83,4.22-3.68,6.34-5.5,2.92-2.51,5.6-5.24,7.9-8.34.24-.32.42-.68.79-1.27,1.33,2.17,1.18,4.2,1.54,6.08.38,1.94.54,3.93.8,5.9Z"/>
  <path class="cls-6" d="m674.07,638.17c-4.98,8.31-8.57,17.23-11.47,26.43-3.04,9.64-5.47,19.44-7.26,29.39-1.33,7.43-2.54,14.87-3.5,22.36-.16,1.23.27,1.36,1.22,1.34.79-.02,1.6-.16,2.37.14-.88.54-1.87.35-2.8.37-8.83.18-17.52-.97-26.12-2.93-10.23-2.33-20.22-5.39-29.65-10.05-3.58-1.77-7.09-3.67-10.61-5.55-.61-.33-1.34-.59-1.61-1.35.27-.75.99-1.03,1.56-1.42,18.08-12.34,34.58-26.54,49.6-42.46,2.41-2.55,4.72-5.21,7.01-7.87.86-.99,1.58-1.62,3.02-.91,1.45.71,3.1.55,4.71.31,7.49-1.13,14.6-3.41,21.34-6.86.7-.36,1.33-.89,2.17-.94Z"/>
  <path class="cls-6" d="m782.5,554.05c-2.49-.4-4.91-1.06-7.49-1.04-4.56.04-8.78,1.18-12.88,3.03-1.06.48-1.97,1.38-3.26,1.28,3.58-2.71,7.79-3.82,12.1-4.62,3-.56,6.02-.63,8.99.21.9.25,1.89.33,2.55,1.14Z"/>
  <path class="cls-6" d="m796.84,592.96c-.61-2.7-.6-5.41,0-8.11.55,2.7.52,5.41,0,8.11Z"/>
  <path class="cls-6" d="m794.66,571.46c-.94-1.21-1.39-2.59-1.32-4.13.8,1.26,1.27,2.62,1.32,4.13Z"/>
  <path class="cls-6" d="m735.42,577.61c-.13,1.1-.77,1.71-1.82,1.92.33-.9.95-1.53,1.82-1.92Z"/>
  <path class="cls-6" d="m676.47,636.78c-.36.94-1.13,1.18-2.04,1.17.48-.73,1.19-1.07,2.04-1.17Z"/>
  <path class="cls-6" d="m745.04,568.06c-.08.87-.55,1.33-1.43,1.35.23-.71.72-1.15,1.43-1.35Z"/>
  <path class="cls-6" d="m796.51,581.06c-.58-.43-.72-.92-.17-1.48.37.46.45.95.17,1.48Z"/>
  <path class="cls-6" d="m796.35,598.24c-.55-.57-.42-1.06.17-1.5.28.54.19,1.03-.17,1.5Z"/>
  <path class="cls-6" d="m795.16,573.38c-.5-.23-.79-.51-.25-1,.33.27.44.6.25,1Z"/>
  <path class="cls-6" d="m795.58,575.31c-.46-.26-.74-.55-.2-1.01.32.29.41.62.2,1.01Z"/>
  <path class="cls-6" d="m796.03,577.71c-.45-.27-.71-.58-.16-1.01.31.3.38.63.16,1.01Z"/>
  <path class="cls-6" d="m749.38,564.26c-.04.61-.37.88-.98.83.13-.51.45-.79.98-.83Z"/>
  <path class="cls-6" d="m757.56,558.12c-.1.6-.46.81-1.04.7.17-.49.53-.72,1.04-.7Z"/>
  <path class="cls-6" d="m727.25,586.72c.05.61-.23.94-.84.98.06-.52.33-.86.84-.98Z"/>
  <path class="cls-6" d="m719.58,595.83c.05.61-.23.94-.84.98.05-.52.33-.86.84-.98Z"/>
  <path class="cls-6" d="m751.77,562.33c-.05.63-.39.89-1.01.81.15-.51.48-.78,1.01-.81Z"/>
  <path class="cls-6" d="m795.9,601.12c-.56-.44-.31-.75.16-1.03.24.39.15.73-.16,1.03Z"/>
  <path class="cls-6" d="m714.29,602.05c.05.63-.23.96-.86.98.06-.53.35-.85.86-.98Z"/>
  <path class="cls-6" d="m754.19,560.46c-.06.61-.41.85-1,.78.14-.51.48-.76,1-.78Z"/>
  <path class="cls-6" d="m707.11,610.24c.04.61-.25.93-.87.96.07-.52.35-.85.87-.96Z"/>
  <path class="cls-6" d="m786.83,556.94c-.6.04-.93-.23-.97-.83.52.04.85.31.97.83Z"/>
  <path class="cls-6" d="m690.83,626.6c-.02.63-.35.91-.97.85.12-.51.45-.79.97-.85Z"/>
  <path class="cls-6" d="m687.96,629.01c-.05.64-.39.89-1.02.81.15-.5.49-.77,1.02-.81Z"/>
  <path class="cls-6" d="m710.94,605.9c.05.62-.23.95-.86.98.06-.52.34-.85.86-.98Z"/>
  <path class="cls-6" d="m682.7,632.89c-.08.64-.45.86-1.06.73.19-.49.54-.73,1.06-.73Z"/>
  <path class="cls-6" d="m681.26,633.86c-.09.64-.46.86-1.08.71.2-.48.55-.72,1.08-.71Z"/>
  <path class="cls-6" d="m678.88,635.36c-.12.61-.49.81-1.07.67.2-.48.56-.69,1.07-.67Z"/>
  <path class="cls-6" d="m784.96,555.45c-.57.11-.94-.1-1.05-.7.52-.02.87.2,1.05.7Z"/>
  <path class="cls-6" d="m686.05,630.48c-.06.63-.42.87-1.03.77.16-.5.51-.75,1.03-.77Z"/>
  <path class="cls-6" d="m783.48,554.54c-.28.09-.45-.01-.52-.29.28-.1.45,0,.52.29Z"/>
</svg>