<?xml version="1.0" encoding="UTF-8"?>
<svg id="_图层_1" data-name="图层 1" xmlns="http://www.w3.org/2000/svg" viewBox="0 0 960 960">
  <defs>
    <style>
      .cls-1 {
        fill: #bb813d;
      }

      .cls-1, .cls-2, .cls-3, .cls-4, .cls-5, .cls-6, .cls-7, .cls-8, .cls-9, .cls-10, .cls-11, .cls-12, .cls-13 {
        stroke-width: 0px;
      }

      .cls-2 {
        fill: #ffe459;
      }

      .cls-3 {
        fill: #ff72d8;
      }

      .cls-4 {
        fill: #b93996;
      }

      .cls-5 {
        fill: #bd3d98;
      }

      .cls-6 {
        fill: #040303;
      }

      .cls-7 {
        fill: #b27e3d;
      }

      .cls-8 {
        fill: #050304;
      }

      .cls-9 {
        fill: #f4d6aa;
      }

      .cls-10 {
        fill: #fe72d7;
      }

      .cls-11 {
        fill: #be833d;
      }

      .cls-12 {
        fill: #bd3e98;
      }

      .cls-13 {
        fill: #bc3c97;
      }
    </style>
  </defs>
  <path class="cls-3" d="m239.23,380.35c3.7-6.72,7.97-13.07,12.27-19.41,10.44-15.36,23.6-28.28,36.86-41.1.86-.83,1.79-1.58,2.69-2.37,3.78,2.33,6.73,2.14,9.77-.68.7-.65,1.34-1.37,1.98-2.08,2.73-3.03,5.55-5.96,8.58-8.7,24.54-22.17,53.09-36.34,85.57-42.48,13.13-2.48,26.34-2.94,39.53-.26,1.02.21,2.06.27,3.1.15,3.72-.43,6.19-3.39,5.94-7.12-.03-.47-.09-.95-.13-1.42,4.69.22,9.39.44,14.08.67.72.03,1.43.08,2.15.09,4.79.04,9.59.02,14.38.12,5.1.11,10.22.21,15.31.53,9.32.6,18.52,2.02,27.66,3.93,7.58,1.59,14.95,3.97,22.43,5.91,5.09,1.32,10.2,2.58,15.31,3.83,6.93,1.68,13.56,4.19,20.09,7.02,7.7,3.34,15.26,6.94,22.07,11.94,4.7,3.44,9.43,6.83,14.15,10.25-.28.16-.55.32-.82.48-4.38,2.48-5.03,7.53-1.39,11.04.69.66,1.47,1.23,2.22,1.82,22.85,17.73,41.31,39.23,55.46,64.46,1.21,2.16,1.66,3.98.35,6.19-.9,1.52-1.29,3.27-1.43,5.04-.53,6.68-2.52,13-4.68,19.29-1.4,4.08-3.63,7.62-6.66,10.69-2.3,2.33-4.61,4.67-6.75,7.15-7.31,8.48-10.23,18.27-8.55,29.39.8,5.31,2.23,10.47,3.73,15.61,1.1,3.77,2.01,7.57,2.48,11.47.66,5.55-.44,10.64-3.96,15.12-1.68,2.14-3.36,4.27-5.23,6.25-6.15,6.52-12.8,12.52-19.64,18.3-4.88,4.13-9.98,8-14.57,12.48-9.07,8.87-12.71,19.71-11.76,32.2.45,6,1.75,11.85,3.29,17.66,1,3.78,2.09,7.54,2.79,11.41,1.22,6.76.11,12.99-3.69,18.79-3.87,5.9-8.25,11.39-12.86,16.71-7.57,8.73-15.8,16.75-25.41,23.25-6.98,4.72-14.31,8.75-22.44,11.2-5.72,1.72-11.45,1.96-17.28.54-3.97-.97-7.85-2.18-11.75-3.37-9.83-3.01-19.35-2.27-28.76,1.87-8.55,3.76-15.45,9.56-21.55,16.45-3.76,4.25-7.45,8.56-11.18,12.85-9.69,11.15-21.55,19.44-34.49,26.34-1.77.94-3.48,1.25-5.5.95-6.01-.89-12.01-1.82-17.96-3.06-35.01-7.27-67-21.33-94.97-43.68-49.84-39.83-76.53-91.83-79.87-155.58-1.47-28.03,3.03-55.3,12.14-81.82,5.02-14.63,11.44-28.64,19.2-42.02,1.09-1.87,2.13-3.76,2.57-5.91.93-4.46-.59-7.04-4.91-8.36Zm144.1-37.36l-.04.05c.34-.15.45-.42.45-.76,2.07-2.53,4.23-5,6.2-7.6,2.57-3.39,4.68-7.04,5.56-11.29,1.53-7.41-2.24-14.17-9.99-15.52-4.11-.72-7.94.31-11.71,1.62-6.99,2.45-13.28,6.24-19.15,10.7-4.26,3.23-8.25,6.76-11.91,10.69-4.3,4.61-6.99,10.27-10.63,15.3-.47.64-.87,1.34-1.22,2.06-1.82,3.74-2.93,7.61-1.71,11.78.36,1.21.93,2.37,1.4,3.55-.38,4.06,1.38,7.01,4.62,9.34,3.37,2.42,7.15,2.77,10.97,2.16,6.23-.99,11.83-3.66,16.97-7.29,3.67-2.59,6.86-5.71,9.91-8.97,3.66-3.92,6.79-8.22,9.17-13.05.35-.71.78-1.41.61-2.26l-.02.03c.28-.07.43-.26.5-.53Zm224.97,24.51c.35-.2.44-.53.45-.9.3-.74.6-1.47.89-2.21,1.8-4.68,1.97-9.33-.47-13.85-1.36-2.51-3.35-4.45-5.8-5.91-3.49-2.09-7.34-3.01-11.33-3.53-2.37-.31-4.78-.28-7.1-.94-4.65-1.33-9.41-1.66-14.21-1.49-8.48.3-15.69,3.46-21.3,9.85-5.87,6.67-5.82,15.41.85,21.59,1.24,1.15,2.79,1.85,3.97,3.05-.08.8-.07,1.58.09,2.38,1.08,5.31,4.57,8.23,9.54,9.63,3.76,1.06,7.65.82,11.43.43,6.92-.71,13.65-2.46,19.98-5.43,3.76-1.76,7.34-3.9,10.1-7.12,1.4-1.63,2.8-3.3,2.94-5.6l-.02.05Zm-364.54,137.22l-.02-.05c.04,4.38,2.38,7.53,5.66,10.02,4.02,3.05,8.65,3.6,13.39,2.22,4.05-1.17,7.56-3.23,9.85-7.07,3.41-5.71,4.6-12,5.08-18.45.31-4.22-.69-8.39-1.03-12.59.21-4.77,1.02-9.53.15-14.32-.8-4.45-2.37-8.5-6.03-11.36-4.59-3.59-11.27-3.6-16.66-.3-5.34,3.27-8.73,8.2-11.25,13.68-3.81,8.32-3.91,17.16-2.78,26.07.5,3.91,1.66,7.62,3.19,11.24,0,.37.07.72.45.91Zm140.49,143.37c.34-.89.68-1.78,1.03-2.67,2.54-6.32-.17-13.26-6.45-16.35-5.06-2.49-10.46-2.84-15.9-2.33-9.26.88-17.8,4.1-26.09,8.22-9.24,4.59-14.96,12.22-19.02,21.3-2.19,4.9.13,10.43,5.1,13.24,1.68.95,3.54,1.41,5.32,2.07-.14,1.08.34,2.03.66,3,1.77,5.26,6.37,8.5,11.94,8.64,3.42.09,6.63-.73,9.77-1.92,6.29-2.4,12.11-5.65,17.49-9.69,5.53-4.16,10.24-9.1,13.66-15.16,1.44-2.56,2.68-5.27,2.5-8.35Zm188.12-177.95c.54-2.73,1.14-5.45,1.62-8.2.66-3.79,1-7.61,0-11.38-2.21-8.39-7.91-12.46-16.12-14-1.41-.26-2.8-.37-4.05-1.24-1.24-.87-2.73-.81-4.17-.51-1.57.32-3.05.91-4.4,1.81-2.49,1.65-4.63,3.72-6.35,6.12-8.09,11.26-12.09,23.78-11.17,37.7.39,5.92,2.51,11.16,7.17,15.13-.03,3.42,1.73,6.13,3.73,8.59,2.94,3.6,7.04,5.29,11.6,5.16,4.54-.13,8.42-2.27,11.63-5.45,4.61-4.55,7.14-10.28,9.03-16.34,1.14-3.67,1.52-7.48,1.81-11.27.16-2.01.54-4.12-.35-6.1Z"/>
  <path class="cls-6" d="m239.23,380.35c4.32,1.32,5.84,3.9,4.91,8.36-.45,2.14-1.49,4.04-2.57,5.91-7.76,13.38-14.18,27.38-19.2,42.02-9.1,26.52-13.6,53.79-12.14,81.82,3.34,63.74,30.02,115.75,79.87,155.58,27.97,22.35,59.96,36.42,94.97,43.68,5.95,1.24,11.95,2.17,17.96,3.06,2.02.3,3.74-.01,5.5-.95,12.94-6.9,24.8-15.19,34.49-26.34,3.72-4.28,7.41-8.6,11.18-12.85,6.1-6.89,13.01-12.69,21.55-16.45,9.41-4.14,18.93-4.88,28.76-1.87,3.9,1.19,7.79,2.41,11.75,3.37,5.82,1.42,11.55,1.18,17.28-.54,8.13-2.45,15.46-6.47,22.44-11.2,9.61-6.5,17.84-14.52,25.41-23.25,4.61-5.32,8.99-10.81,12.86-16.71,3.8-5.8,4.91-12.03,3.69-18.79-.7-3.86-1.79-7.62-2.79-11.41-1.54-5.8-2.83-11.66-3.29-17.66-.94-12.5,2.69-23.33,11.76-32.2,4.58-4.48,9.68-8.35,14.57-12.48,6.84-5.78,13.49-11.78,19.64-18.3,1.87-1.98,3.55-4.11,5.23-6.25,3.51-4.49,4.61-9.57,3.96-15.12-.46-3.9-1.38-7.71-2.48-11.47-1.5-5.14-2.92-10.3-3.73-15.61-1.69-11.12,1.24-20.91,8.55-29.39,2.14-2.48,4.45-4.81,6.75-7.15,3.03-3.07,5.26-6.61,6.66-10.69,2.16-6.28,4.15-12.61,4.68-19.29.14-1.77.54-3.52,1.43-5.04,1.3-2.21.86-4.03-.35-6.19-14.15-25.23-32.61-46.73-55.46-64.46-.76-.59-1.54-1.16-2.22-1.82-3.64-3.52-2.99-8.56,1.39-11.04.28-.16.55-.32.82-.48,2.89-.6,5.3.37,7.56,2.13,41.08,31.97,68.21,73.08,80.78,123.65,5.97,24.03,7.63,48.43,5.5,73.09-.03.39-.16.79.09,1.19.46.42.86.01,1.27-.15,5.68-2.33,10.33-6.01,14.15-10.78,4.8-6.02,8.91-12.49,12.59-19.24,3.28-6.04,6.47-12.13,10.07-17.99,6.97-11.34,14.76-22.05,24.22-31.48,8.5-8.47,18.68-13.94,30.45-16.2,14.52-2.79,26.66,1.65,36.37,12.73,4.49,5.12,7.43,11.15,9.74,17.5,5.84,16.03,7.91,32.61,6.53,49.55-1.7,20.9-7,40.96-15.84,59.97-10.78,23.19-27.21,41.57-48.5,55.72-12.53,8.32-25.97,14.78-40.02,20-16.97,6.3-34.38,11.06-52.33,13.67-8.49,1.24-17.05,1.35-25.61,1.31-5.03-.03-10.12.07-15.09-.58-2.98-.39-4.38.76-6.07,2.75-41.55,49.15-93.84,80.52-156.68,94.26-23.24,5.08-46.79,7.01-70.55,5.66-53.34-3.03-101.54-20.04-143.17-53.94-40.58-33.05-66.32-75.42-77.29-126.62-5.36-25.01-6.06-50.26-2.78-75.62,4.17-32.29,14.65-62.44,30.76-90.69.87-1.53,1.72-3.07,2.81-4.46,1.85-2.34,4.12-4,7.21-4.25Zm246.68,294.64c-4.98,1.18-9.38,3.55-13.41,6.65-4.72,3.64-8.55,8.15-12.41,12.64-5.32,6.18-10.6,12.38-16.63,17.9-3.55,3.24-7.41,6.08-11.18,9.03-.79.35-1.68.59-2.03,1.63.92.09,1.69.19,2.44-.08,1.97.27,3.94.25,5.91,0,2.53.16,5.07.39,7.57-.24,1.44-.01,2.88-.03,4.32-.04,1.62.04,3.25.2,4.81-.41.8-.05,1.6-.07,2.39-.15,14.76-1.32,29.34-3.7,43.64-7.58,62.75-17.05,113.7-51.38,150.81-104.99,32.53-47,46.85-99.12,40.63-156.37-1.48-13.63-4.42-26.96-8.73-39.97-1.36-4.18-2.7-8.38-4.61-12.62-.78.96-.84,1.77-1.08,2.5-.95,2.97-1.84,5.95-2.84,8.9-2,5.91-5.1,11.16-9.57,15.58-1.99,1.97-3.89,4.01-5.79,6.06-4.57,4.93-6.87,10.68-6.29,17.48.21,2.48.71,4.9,1.26,7.31,1.3,5.68,3.19,11.21,4.41,16.92,2.58,12.09.42,22.91-7.72,32.49-6.8,8.01-14.46,15.12-22.36,21.98-4.94,4.29-10.06,8.39-15.02,12.66-6.91,5.94-9.96,13.55-9.22,22.59.48,5.82,1.77,11.51,3.35,17.13.95,3.38,1.86,6.78,2.46,10.24.4,2.35.68,4.71,1.01,7.07.08,5.78-.95,11.35-3.3,16.65-.29.11-.39.3-.28.59-.08.12-.13.24-.15.38-1.37,2.13-2.69,4.31-4.13,6.39-9,12.99-19.38,24.75-31.55,34.85-8.95,7.43-18.72,13.57-29.58,17.89-8.62,3.43-17.47,4.9-26.72,3.3-1.64-.28-3.2-.99-4.91-.85-.65-.15-1.2-.65-1.92-.54-.25-.3-.57-.42-.95-.3-.89-.36-1.78-.76-2.77-.76-.12-.21-.28-.31-.53-.22-2.54-.84-5.03-1.85-7.73-2.12-.4-.39-.87-.46-1.39-.29-.64-.25-1.29-.33-1.97-.19-1.11-.46-2.23-.48-3.35,0-.67-.12-1.33-.07-1.96.19-.52-.17-.99-.09-1.39.31-.34.07-.68.13-1.02.2-.24-.1-.41,0-.53.21Zm271.72-74.73c3.14-1.35,6.21-2.85,9.22-4.47,15.26-8.23,29.07-18.29,40.34-31.62,11.6-13.71,19.53-29.35,24.65-46.49,3.99-13.37,7.05-26.91,7.35-40.94.31-14.31-1.74-28.21-7.23-41.51-1.5-3.64-3.35-7.09-5.92-10.1-6.5-7.61-14.65-10.54-24.48-8.4-8.72,1.9-16.31,5.98-22.7,12.25-2.28,2.24-4.45,4.6-6.51,7.04-8.5,10.06-15.64,21.03-21.82,32.64-6.66,12.52-13.68,24.78-23.86,34.89-.66.16-1.06.68-1.56,1.07-3.09,2.44-6.37,4.54-9.98,6.13-2.37,1.04-4.83,1.69-7.44,1.45-2.42-.22-2.42-.24-2.81,2.05-.03.16-.05.32-.07.47-1.68,11.07-4.26,21.94-7.55,32.64-7.74,25.17-19.25,48.5-34.19,70.16-.48.7-1.16,1.31-1.27,2.23.66.5,1.41.42,2.11.44,10.87.35,21.73.37,32.51-1.33,8.61-1.36,17.06-3.44,25.46-5.73,12.27-3.35,24.24-7.47,35.75-12.9Z"/>
  <path class="cls-8" d="m445.4,254.88c.04.47.1.95.13,1.42.24,3.73-2.23,6.68-5.94,7.12-1.04.12-2.08.06-3.1-.15-13.2-2.68-26.41-2.22-39.53.26-32.48,6.14-61.02,20.31-85.57,42.48-3.02,2.73-5.85,5.67-8.58,8.7-.64.71-1.28,1.43-1.98,2.08-3.04,2.82-5.99,3.02-9.77.68-2.6-3.94-2.52-6.79.56-10.42,5.02-5.93,10.61-11.3,16.59-16.24,25.54-21.07,54.53-34.83,87.17-40.64,14.26-2.54,28.58-2.96,42.91-.29,3.19.59,5.7,1.98,7.11,5.01Z"/>
  <path class="cls-2" d="m330.59,363.56c-.47-1.18-1.05-2.33-1.4-3.55-1.22-4.17-.11-8.04,1.71-11.78.35-.72.75-1.41,1.22-2.06,3.64-5.03,6.34-10.69,10.63-15.3,3.66-3.94,7.65-7.46,11.91-10.69,5.88-4.46,12.16-8.25,19.15-10.7,3.76-1.32,7.59-2.34,11.71-1.62,7.75,1.35,11.52,8.11,9.99,15.52-.88,4.25-3,7.89-5.56,11.29-1.97,2.61-4.12,5.07-6.2,7.6-.34.14-.45.42-.45.77,0,0,.04-.05.04-.04-.29.05-.46.23-.5.53l.02-.03c-.66.19-1.01.76-1.46,1.2-3.52,3.48-7.2,6.77-11.12,9.79-6.08,4.68-12.45,8.89-19.55,11.9-2.36,1-4.8,1.75-7.34,2.07-5.11.66-9.44-.85-12.79-4.88Z"/>
  <path class="cls-2" d="m534.9,495.56c-4.67-3.96-6.78-9.2-7.17-15.13-.92-13.91,3.08-26.44,11.17-37.7,1.72-2.4,3.86-4.46,6.35-6.12,1.35-.9,2.83-1.48,4.4-1.81,1.43-.3,2.93-.36,4.17.51,1.25.87,2.64.98,4.05,1.24,8.21,1.54,13.91,5.61,16.12,14,1,3.78.66,7.6,0,11.38-.47,2.74-1.07,5.46-1.62,8.2-.37.36-.39.85-.54,1.31-1.58,4.86-3.37,9.62-5.89,14.11-4.59,8.18-11.75,12.07-20.85,12.88-3.75.33-7.05-1-10.19-2.87Z"/>
  <path class="cls-2" d="m328.23,671.57c-1.78-.66-3.64-1.12-5.32-2.07-4.98-2.81-7.3-8.34-5.1-13.24,4.06-9.08,9.78-16.71,19.02-21.3,8.29-4.12,16.83-7.34,26.09-8.22,5.45-.52,10.85-.16,15.9,2.33,6.28,3.09,8.99,10.03,6.45,16.35-.36.88-.69,1.78-1.03,2.67-2.59,3.69-5.63,6.98-9.35,9.52-14.06,9.6-29.51,14.66-46.66,13.96Z"/>
  <path class="cls-2" d="m554.23,373.16c-1.18-1.2-2.73-1.9-3.97-3.05-6.67-6.18-6.71-14.92-.85-21.59,5.61-6.38,12.83-9.54,21.3-9.85,4.81-.17,9.56.16,14.21,1.49,2.31.66,4.73.63,7.1.94,3.99.52,7.84,1.44,11.33,3.53,2.44,1.46,4.44,3.4,5.8,5.91,2.44,4.52,2.27,9.17.47,13.85-.29.74-.59,1.47-.89,2.21-.34.2-.44.53-.45.9,0,0,.02-.05.02-.05-.24.2-.53.37-.71.62-4.23,5.89-10.27,8.69-17.15,9.98-4.89.91-9.82,1.01-14.78.57-5.75-.5-11.38-1.53-16.82-3.5-1.58-.57-2.97-1.56-4.62-1.96Z"/>
  <path class="cls-2" d="m243.3,503.81c-1.53-3.61-2.69-7.33-3.19-11.24-1.14-8.91-1.04-17.75,2.78-26.07,2.51-5.48,5.91-10.41,11.25-13.68,5.39-3.3,12.07-3.29,16.66.3,3.66,2.86,5.22,6.91,6.03,11.36.87,4.8.06,9.55-.15,14.32-.25.91-.55,1.82-.73,2.75-1.22,6.3-3.33,12.29-6.32,17.95-2.02,3.84-4.54,7.3-8.3,9.67-4.97,3.14-10.98,2.49-15.08-1.68-.88-.9-1.68-1.89-2.51-2.83,0,0,.02.05.02.05,0-.37-.11-.7-.45-.91Z"/>
  <path class="cls-13" d="m328.23,671.57c17.16.7,32.6-4.36,46.66-13.96,3.72-2.54,6.75-5.83,9.35-9.52.18,3.09-1.05,5.8-2.5,8.35-3.41,6.05-8.12,11-13.66,15.16-5.37,4.04-11.2,7.3-17.49,9.69-3.14,1.2-6.35,2.01-9.77,1.92-5.57-.14-10.17-3.38-11.94-8.64-.33-.97-.8-1.93-.66-3Z"/>
  <path class="cls-5" d="m534.9,495.56c3.14,1.88,6.44,3.21,10.19,2.87,9.09-.81,16.26-4.7,20.85-12.88,2.52-4.49,4.3-9.25,5.89-14.11.15-.45.16-.95.54-1.31.89,1.99.51,4.09.35,6.1-.29,3.79-.67,7.6-1.81,11.27-1.89,6.07-4.42,11.79-9.03,16.34-3.22,3.18-7.1,5.31-11.63,5.45-4.56.14-8.66-1.56-11.6-5.16-2-2.46-3.77-5.17-3.73-8.59Z"/>
  <path class="cls-12" d="m330.59,363.56c3.35,4.03,7.68,5.53,12.79,4.88,2.53-.33,4.98-1.07,7.34-2.07,7.1-3.01,13.47-7.22,19.55-11.9,3.92-3.02,7.6-6.31,11.12-9.79.45-.44.8-1.01,1.46-1.2.17.86-.26,1.55-.61,2.26-2.38,4.83-5.51,9.13-9.17,13.05-3.05,3.26-6.24,6.38-9.91,8.97-5.15,3.64-10.74,6.3-16.97,7.29-3.82.61-7.61.26-10.97-2.16-3.24-2.33-4.99-5.28-4.62-9.34Z"/>
  <path class="cls-12" d="m243.73,504.67c.84.95,1.63,1.94,2.51,2.83,4.11,4.17,10.12,4.81,15.08,1.68,3.76-2.38,6.28-5.84,8.3-9.67,2.98-5.66,5.1-11.65,6.32-17.95.18-.93.49-1.83.73-2.75.34,4.2,1.34,8.37,1.03,12.59-.48,6.46-1.67,12.75-5.08,18.45-2.29,3.84-5.8,5.9-9.85,7.07-4.74,1.37-9.37.82-13.39-2.22-3.28-2.49-5.62-5.64-5.66-10.02Z"/>
  <path class="cls-12" d="m554.23,373.16c1.65.4,3.04,1.39,4.62,1.96,5.44,1.97,11.07,3,16.82,3.5,4.96.43,9.9.34,14.78-.57,6.88-1.29,12.92-4.09,17.15-9.98.18-.25.47-.41.71-.62-.15,2.3-1.54,3.97-2.94,5.6-2.76,3.22-6.34,5.36-10.1,7.12-6.33,2.97-13.05,4.72-19.98,5.43-3.78.39-7.67.63-11.43-.43-4.97-1.41-8.47-4.33-9.54-9.63-.16-.8-.18-1.58-.09-2.38Z"/>
  <path class="cls-12" d="m383.29,343.03c0-.34.12-.62.45-.77,0,.34-.12.62-.45.77Z"/>
  <path class="cls-12" d="m243.3,503.81c.34.21.44.53.45.91-.38-.19-.44-.54-.45-.91Z"/>
  <path class="cls-12" d="m608.29,367.5c.01-.37.11-.69.45-.9,0,.37-.1.7-.45.9Z"/>
  <path class="cls-12" d="m382.82,343.51c.04-.3.21-.47.5-.53-.07.26-.22.46-.5.53Z"/>
  <path class="cls-10" d="m726.66,503.55c10.18-10.11,17.21-22.37,23.86-34.89,6.18-11.61,13.32-22.58,21.82-32.64,2.07-2.44,4.23-4.8,6.51-7.04,6.39-6.27,13.97-10.35,22.7-12.25,9.83-2.14,17.98.79,24.48,8.4,2.57,3.01,4.42,6.46,5.92,10.1,5.49,13.3,7.54,27.2,7.23,41.51-.31,14.03-3.36,27.58-7.35,40.94-5.11,17.13-13.05,32.78-24.65,46.49-11.27,13.32-25.09,23.39-40.34,31.62-3.01,1.62-6.08,3.12-9.22,4.47-1.03-.17-1.66-.89-2.26-1.65-.88-1.13-1.72-2.29-2.63-3.41-6.46-7.96-11.86-16.63-16.68-25.64-4.51-8.43-7.33-17.5-9.15-26.86-1.11-5.7-2.24-11.42-1.95-17.29.08-1.67.34-3.33.41-5,.13-3.03.66-6.02.82-9.03.14-2.61.98-5.19.47-7.84Z"/>
  <path class="cls-9" d="m684.04,412.99c4.31,13.02,7.25,26.35,8.73,39.97,6.22,57.25-8.1,109.38-40.63,156.37-37.11,53.61-88.06,87.94-150.81,104.99-14.3,3.88-28.88,6.26-43.64,7.58-.8.07-1.59.1-2.39.15-1.59-.03-3.19-.06-4.78-.09,3.73-3.69,7.66-7.17,11.12-11.15,4.66-5.35,9.26-10.72,13.55-16.37,2.07-2.73,4.16-5.47,7.06-7.4,3.13-2.09,6.56-3.59,10.07-4.92,6.16-2.35,12.57-2.67,19.05-2.54.3.09.6.24.9.26,6.43.52,12.85,1.03,19.33.55,7.65-.57,14.98-2.2,21.88-5.54,13.34-6.46,25.11-15.1,35.44-25.73,6.78-6.99,12.43-14.76,16.34-23.71,1.2-2.75,2.67-5.43,3.05-8.49.02-.14.07-.26.15-.38.29-.1.39-.3.28-.59,2.35-5.3,3.38-10.86,3.3-16.65.08-.47.18-.93.22-1.4.44-5.17.18-10.37.82-15.53.67-5.4,1.55-10.73,3.24-15.92,2.43-7.47,5.75-14.56,9.38-21.5.85-1.62,1.72-3.26,2.96-4.63,2.09-2.31,4.17-4.63,6.33-6.87,5.1-5.3,10.29-10.51,15.34-15.85,3.34-3.54,6.53-7.23,8.91-11.54,5.74-10.39,6.38-21.55,4.98-33.03-.44-3.64-1.08-7.3-1.03-10.94.08-4.94.8-9.86,2.5-14.57,2.2-6.09,4.93-11.95,7.66-17.82,2.4-5.16,5.32-10.01,8.45-14.74.55-.84,1-1.87,2.24-1.96Z"/>
  <path class="cls-4" d="m726.66,503.55c.51,2.65-.33,5.23-.47,7.84-.16,3.01-.69,6-.82,9.03-.07,1.67-.33,3.33-.41,5-.3,5.87.84,11.59,1.95,17.29,1.82,9.36,4.65,18.43,9.15,26.86,4.82,9.01,10.22,17.68,16.68,25.64.9,1.11,1.75,2.27,2.63,3.41.59.77,1.23,1.48,2.26,1.65-11.51,5.43-23.49,9.55-35.75,12.9-8.4,2.29-16.85,4.37-25.46,5.73-10.78,1.7-21.64,1.67-32.51,1.33-.7-.02-1.45.05-2.11-.44.1-.92.78-1.53,1.27-2.23,14.93-21.66,26.45-44.99,34.19-70.16,3.29-10.7,5.87-21.57,7.55-32.64.02-.16.05-.32.07-.47.39-2.29.39-2.28,2.81-2.05,2.62.24,5.07-.41,7.44-1.45,3.61-1.59,6.89-3.7,9.98-6.13.5-.39.9-.92,1.56-1.07Z"/>
  <path class="cls-1" d="m684.04,412.99c-1.24.09-1.69,1.12-2.24,1.96-3.13,4.73-6.04,9.58-8.45,14.74-2.73,5.87-5.47,11.73-7.66,17.82-1.7,4.71-2.42,9.63-2.5,14.57-.06,3.64.58,7.3,1.03,10.94,1.4,11.48.76,22.64-4.98,33.03-2.38,4.3-5.57,7.99-8.91,11.54-5.05,5.35-10.24,10.55-15.34,15.85-2.16,2.25-4.24,4.56-6.33,6.87-1.24,1.37-2.11,3.01-2.96,4.63-3.64,6.94-6.95,14.03-9.38,21.5-1.69,5.18-2.57,10.52-3.24,15.92-.64,5.17-.37,10.37-.82,15.53-.04.47-.15.94-.22,1.4-.33-2.36-.61-4.73-1.01-7.07-.6-3.46-1.51-6.86-2.46-10.24-1.58-5.62-2.88-11.31-3.35-17.13-.75-9.05,2.31-16.65,9.22-22.59,4.96-4.27,10.08-8.37,15.02-12.66,7.9-6.86,15.56-13.97,22.36-21.98,8.14-9.58,10.3-20.4,7.72-32.49-1.22-5.71-3.1-11.23-4.41-16.92-.55-2.41-1.05-4.83-1.26-7.31-.58-6.8,1.72-12.55,6.29-17.48,1.9-2.05,3.81-4.1,5.79-6.06,4.47-4.42,7.57-9.67,9.57-15.58,1-2.95,1.89-5.93,2.84-8.9.23-.73.3-1.54,1.08-2.5,1.91,4.24,3.24,8.44,4.61,12.62Z"/>
  <path class="cls-11" d="m511.36,679.58c-6.48-.13-12.89.19-19.05,2.54-3.51,1.34-6.94,2.84-10.07,4.92-2.9,1.93-4.99,4.68-7.06,7.4-4.28,5.65-8.89,11.03-13.55,16.37-3.46,3.98-7.39,7.46-11.12,11.15,0,.17-.02.33-.03.5-1.44.01-2.88.03-4.32.04-.39-.52-.96-.45-1.51-.47-2.06-.06-4.04.46-6.06.71-1.97.25-3.94.27-5.91,0-.37-.45-.46-.98-.41-1.55,3.77-2.95,7.63-5.78,11.18-9.03,6.03-5.52,11.31-11.73,16.63-17.9,3.86-4.48,7.69-9,12.41-12.64,4.02-3.1,8.42-5.47,13.41-6.65.18-.07.35-.14.53-.21.34-.07.68-.13,1.02-.2.65.75,1,.11,1.39-.31.63-.26,1.29-.31,1.96-.19,1.11.73,2.23.72,3.35,0,.67-.13,1.33-.06,1.97.19.4.42.75,1.05,1.39.29,2.7.27,5.19,1.27,7.73,2.12.18.07.35.15.53.22.99,0,1.88.4,2.77.76.17.59.42.9.95.3.72-.12,1.27.39,1.92.54-.01.36-.03.72-.04,1.08Z"/>
  <path class="cls-7" d="m511.36,679.58c.01-.36.03-.72.04-1.08,1.71-.14,3.28.57,4.91.85,9.25,1.6,18.1.12,26.72-3.3,10.86-4.31,20.63-10.46,29.58-17.89,12.17-10.1,22.55-21.86,31.55-34.85,1.44-2.08,2.76-4.26,4.13-6.39-.38,3.06-1.84,5.74-3.05,8.49-3.91,8.94-9.56,16.72-16.34,23.71-10.32,10.63-22.1,19.27-35.44,25.73-6.9,3.34-14.23,4.97-21.88,5.54-6.48.48-12.89-.03-19.33-.55-.31-.02-.6-.17-.9-.26Z"/>
  <path class="cls-7" d="m438.59,722.75c2.02-.25,4-.77,6.06-.71.55.02,1.12-.05,1.51.47-2.51.64-5.04.41-7.57.24Z"/>
  <path class="cls-7" d="m494.15,674.09c-1.12.72-2.23.73-3.35,0,1.12-.47,2.23-.45,3.35,0Z"/>
  <path class="cls-7" d="m432.28,721.2c-.05.57.04,1.09.41,1.55-.75.27-1.52.17-2.44.08.35-1.03,1.24-1.28,2.03-1.63Z"/>
  <path class="cls-7" d="m450.49,722.47c0-.17.02-.33.03-.5,1.59.03,3.19.06,4.78.09-1.56.61-3.19.46-4.81.41Z"/>
  <path class="cls-7" d="m488.84,674.27c-.4.41-.74,1.05-1.39.31.4-.4.87-.47,1.39-.31Z"/>
  <path class="cls-7" d="m497.51,674.57c-.64.76-1,.13-1.39-.29.52-.17.99-.1,1.39.29Z"/>
  <path class="cls-7" d="m509.49,677.96c-.54.6-.79.29-.95-.3.39-.13.7,0,.95.3Z"/>
  <path class="cls-7" d="m608.73,615.95c.1.29,0,.49-.28.59-.11-.29,0-.49.28-.59Z"/>
  <path class="cls-7" d="m486.43,674.78c-.18.07-.35.14-.53.21.12-.21.29-.3.53-.21Z"/>
  <path class="cls-7" d="m505.76,676.91c-.18-.07-.35-.15-.53-.22.25-.09.41,0,.53.22Z"/>
</svg>