<?xml version="1.0" encoding="UTF-8"?>
<svg id="_图层_1" data-name="图层 1" xmlns="http://www.w3.org/2000/svg" viewBox="0 0 960 960">
  <defs>
    <style>
      .cls-1 {
        fill: #bb813d;
      }

      .cls-1, .cls-2, .cls-3, .cls-4, .cls-5, .cls-6, .cls-7, .cls-8, .cls-9, .cls-10, .cls-11 {
        stroke-width: 0px;
      }

      .cls-2 {
        fill: #ffe459;
      }

      .cls-3 {
        fill: #bd3e97;
      }

      .cls-4 {
        fill: #ff72d8;
      }

      .cls-5 {
        fill: #b93996;
      }

      .cls-6 {
        fill: #be3f98;
      }

      .cls-7 {
        fill: #050304;
      }

      .cls-8 {
        fill: #f4d6aa;
      }

      .cls-9 {
        fill: #fe72d7;
      }

      .cls-10 {
        fill: #bc3c97;
      }

      .cls-11 {
        fill: #be4097;
      }
    </style>
  </defs>
  <path class="cls-7" d="m703.14,432.64c1.19-.95,2.03-2.2,2.89-3.4,3.94-5.45,7.38-11.22,10.89-16.94,6.46-10.51,12.15-21.39,16.76-32.85,3.19-7.94,6.85-15.69,11.81-22.73,10.15-14.4,24.15-22.83,41.36-25.85,9.21-1.62,17.97.23,26.08,4.98,12.49,7.32,20.63,18.16,25.64,31.54,5.11,13.65,5.84,27.72,4.14,42.07-3.06,25.77-13.8,48.37-28.34,69.45-18.29,26.52-41.89,47.53-68.25,65.63-9.36,6.42-19.02,12.39-28.93,17.95-9.01,5.06-18.33,9.45-28.16,12.69-2.33.77-3.64,2.03-4.57,4.33-10.74,26.6-25.37,50.88-43.97,72.73-16.53,19.41-35.8,35.62-57.72,48.59-19.37,11.46-40.33,18.88-62.4,23.15-11.42,2.21-22.95,3.5-34.57,2.93-7.53-.37-14.99,0-22.49.52-66.93,4.59-137.9-17.64-191.82-68.1-37.54-35.14-61.79-77.7-72.58-127.86-8.79-40.83-6.75-81.2,6.41-120.92,1.51-4.55,3.34-8.98,5.19-13.41,1.21-2.9,3.08-5.4,4.51-8.15,2.03-3.89,3.9-7.87,5.81-11.82,4.79-9.91,10.98-18.92,17.5-27.74,1.66-2.25,3.37-4.47,5-6.74,5.25-7.31,11.42-13.75,18.11-19.76,9.4-8.43,18.65-17.04,28.61-24.84,21.98-17.21,45.85-31.19,71.8-41.51,13.86-5.52,28.27-9.17,42.92-11.88,8.82-1.64,17.68-2.75,26.67-2.87,4.22-.06,8.43-.81,12.66-1.08,11.53-.75,23.03-.33,34.5.74,34.81,3.27,68.51,11.42,101.27,23.53,6.44,2.38,12.82,4.94,19.03,7.9,4.12,1.96,8.1,4.16,11.92,6.66,2.82,1.84,5.5,3.84,7.67,6.47.71.86,1.6,1.57,2.44,2.3,18.52,16.12,34.14,34.67,47.69,55.15,17.56,26.55,27.71,55.82,33.72,86.78.15.75.04,1.59.81,2.37Zm19.74-3.76c-.18.14-.43.25-.54.43-4.37,6.79-9.78,12.61-16.37,17.3-1,.71-1.12,1.53-1.02,2.67.43,4.93.89,9.87,1.08,14.81.32,8.22.28,16.45-.25,24.67-.54,8.3-1.45,16.55-2.71,24.76-2.32,15.02-5.75,29.79-10.53,44.22-.17.51-.52,1.03-.03,1.55.6.07,1.08-.27,1.59-.47,7.71-3.14,15.02-7.07,22.14-11.37,11.69-7.07,23.32-14.24,34.16-22.59,2.77-2.14,5.67-4.12,8.14-6.64.87-.29,1.47-.96,2.12-1.53,3.74-3.25,7.5-6.48,11.17-9.8,18.99-17.17,34.44-37.02,45.83-60.03,6.76-13.66,10.76-28.01,12.13-43.12,1.04-11.46-.08-22.66-4.56-33.39-3.96-9.48-9.92-17.27-18.86-22.59-5.44-3.24-11.3-4.6-17.49-3.48-13.47,2.45-24.47,9.02-32.4,20.35-4.33,6.19-7.52,13.01-10.32,19.98-4.66,11.6-10.27,22.7-16.85,33.32-1.73,2.78-3.42,5.59-5.12,8.39-.49.82-1.09,1.58-1.31,2.55Zm-52.29-58.53c-2.45-4.93-5.15-9.71-8.07-14.38-.12-.19-.32-.36-.66-.12-.04.15-.14.36-.15.58-.23,6.22-1.7,12.19-3.97,17.94-3.73,9.46-7.87,18.74-13.92,26.99-5.1,6.96-7.22,14.86-7.74,23.32-.39,6.36.5,12.59,1.84,18.79,1.46,6.73,3.81,13.2,5.59,19.84,2.69,10.05,3.29,20.14.88,30.35-1.79,7.59-4.64,14.78-7.88,21.83-3,6.55-7.49,12.06-12.08,17.51-3.56,4.23-6.97,8.55-8.89,13.85-1.18,3.25-1.81,6.62-2.41,10-.99,5.58-1.83,11.2-3.67,16.6-2.63,7.7-7.04,14.07-13.61,18.98-4.97,3.71-10.32,6.68-15.98,9.16-4.61,2.02-9.16,4.17-13.61,6.53-5,2.66-8.27,6.64-10.33,11.81-1.81,4.53-3.43,9.13-4.66,13.85-1.89,7.24-4.71,14.05-8.55,20.5-5.29,8.86-12.22,15.95-21.28,20.93-3.86,2.12-7.75,4.17-11.81,5.86-4.64,1.93-8.31,4.97-11.55,8.72-3.82,4.43-7.3,9.12-10.51,13.99-3.35,5.1-7.44,9.37-12.65,12.56-.42.26-1.08.42-.98,1.16.63.32,1.27.18,1.89.19,4.16.06,8.32.15,12.47.12,1.34-.01,2.68.6,4.01-.01,15.05-.02,29.8-2.25,44.19-6.58,26.23-7.9,49.7-21.04,70.66-38.53,21.42-17.87,39.11-39,53.33-63.04,20.3-34.32,31.61-71.47,34.99-111.07,1.67-19.57,1.14-39.14-1.82-58.59-2.2-14.49-5.44-28.73-10.57-42.49-3.48-9.36-7.76-18.35-12.49-27.13Zm-464.68,108.83c0,15.14,1.35,30.16,4.11,45.07,11.78,63.72,52.89,122.11,106.27,154.28,43.1,25.97,89.66,37.82,139.83,35.99,1.69-.06,3.32-.27,4.87-1.06,7.02-3.59,13.15-8.16,17.31-15.06,2.4-3.97,4.98-7.84,8-11.37,4.23-4.93,8.66-9.7,14.54-12.7,4.06-2.07,8.09-4.17,12.09-6.36,1.4-.77,2.86-1.46,4.35-2,6.27-2.26,10.89-6.49,14.7-11.83,5.37-7.54,8.83-15.87,11.03-24.82,1.33-5.44,3.08-10.76,5.36-15.88,2.77-6.24,6.94-11.23,12.82-14.8,3.69-2.24,7.43-4.4,11.34-6.23,3.91-1.83,7.87-3.56,11.52-5.89,6.25-3.97,11.66-8.71,14.42-15.86.89-2.32,1.68-4.67,2.19-7.09.83-3.99,1.62-7.99,2.39-11.99,1.57-8.15,4.82-15.54,10.01-22.05,1.89-2.38,3.8-4.74,5.72-7.09,3.36-4.1,6.31-8.45,8.45-13.32,1.83-4.18,3.53-8.4,4.95-12.73,2.49-7.65,3.31-15.44,2.13-23.43-.62-4.2-1.64-8.31-2.73-12.4-2.17-8.12-4.19-16.27-4.77-24.68-.98-14.24,1.24-27.78,9.46-39.81,5.36-7.84,9.36-16.36,13.09-25.03,2.71-6.29,4.56-12.85,4.34-19.76-.19-5.89-1.84-11.34-6.52-15.41-1.03-.9-1.89-1.94-2.73-3.02-8.58-11.1-18.09-21.34-28.52-30.72-2.93-2.64-6.1-4.89-9.61-6.69-4.76-2.44-9.48-4.98-14.11-7.67-2.63-1.53-5.37-2.83-8.17-4.02-13.25-5.62-26.77-10.51-40.58-14.54-12.13-3.54-24.49-6.09-37.02-7.8-8.15-1.11-16.28-2.43-24.45-3.43-6.26-.77-12.58-1.09-18.86-1.78-7.49-.82-14.98-1.01-22.5-.47-3.51.25-7.03.27-10.55.1-2.72-.13-5.43-.04-8.15.18-5.83.48-11.57,1.52-17.3,2.63-13.61,2.63-27,6.09-39.82,11.4-26.03,10.78-50.43,24.55-73.45,40.77-7.46,5.25-14.57,10.9-21.33,17.06-6.34,5.78-12.47,11.71-17.71,18.51-2.15,2.79-4.28,5.58-6.38,8.41-6.13,8.29-12.39,16.49-17.3,25.61-2.42,4.5-4.91,8.98-7.43,13.42-1.67,2.94-2.86,6.04-3.8,9.28-7.19,24.86-11.65,50.13-11.54,76.09Z"/>
  <path class="cls-4" d="m205.92,479.18c-.12-25.97,4.35-51.23,11.54-76.09.94-3.25,2.13-6.34,3.8-9.28,2.53-4.45,5.01-8.92,7.43-13.42,4.91-9.12,11.17-17.32,17.3-25.61,2.09-2.83,4.23-5.62,6.38-8.41,5.24-6.81,11.36-12.73,17.71-18.51,6.76-6.16,13.88-11.8,21.33-17.06,23.02-16.23,47.42-29.99,73.45-40.77,12.82-5.31,26.21-8.77,39.82-11.4,5.73-1.11,11.47-2.15,17.3-2.63,2.71-.22,5.43-.31,8.15-.18,3.52.17,7.04.15,10.55-.1,7.52-.54,15.01-.35,22.5.47,6.27.69,12.59,1.01,18.86,1.78,8.17,1,16.29,2.32,24.45,3.43,12.53,1.7,24.89,4.26,37.02,7.8,13.81,4.03,27.33,8.93,40.58,14.54,2.8,1.19,5.54,2.49,8.17,4.02,4.63,2.69,9.34,5.23,14.11,7.67,3.51,1.8,6.68,4.05,9.61,6.69,10.43,9.38,19.94,19.62,28.52,30.72.83,1.08,1.69,2.12,2.73,3.02,4.68,4.07,6.33,9.51,6.52,15.41.22,6.91-1.63,13.47-4.34,19.76-3.73,8.67-7.73,17.19-13.09,25.03-8.22,12.03-10.44,25.57-9.46,39.81.58,8.41,2.6,16.57,4.77,24.68,1.09,4.09,2.11,8.2,2.73,12.4,1.18,7.99.36,15.78-2.13,23.43-1.41,4.34-3.11,8.56-4.95,12.73-2.14,4.88-5.08,9.23-8.45,13.32-1.93,2.35-3.83,4.72-5.72,7.09-5.18,6.51-8.44,13.9-10.01,22.05-.77,4-1.56,8-2.39,11.99-.51,2.43-1.29,4.78-2.19,7.09-2.76,7.15-8.17,11.89-14.42,15.86-3.65,2.32-7.62,4.06-11.52,5.89-3.92,1.83-7.65,3.98-11.34,6.23-5.88,3.57-10.06,8.56-12.82,14.8-2.28,5.13-4.02,10.45-5.36,15.88-2.2,8.95-5.66,17.28-11.03,24.82-3.81,5.34-8.43,9.57-14.7,11.83-1.5.54-2.96,1.24-4.35,2-4,2.19-8.03,4.29-12.09,6.36-5.88,3-10.31,7.76-14.54,12.7-3.02,3.53-5.6,7.4-8,11.37-4.17,6.9-10.29,11.47-17.31,15.06-1.55.79-3.17.99-4.87,1.06-50.17,1.84-96.73-10.02-139.83-35.99-53.38-32.16-94.5-90.56-106.27-154.28-2.76-14.91-4.1-29.93-4.11-45.07Zm242.56,188.62c.85,3.21,4.5,6.29,8.24,6.69,3.61.38,7.12-.06,10.52-1.56,5.39-2.37,9.74-6.04,13.64-10.32,3.33-3.65,5.91-7.74,6.8-12.68.29-1.61.65-3.31-.38-4.85.19-.69.36-1.38.56-2.07,2.37-8.16-2.78-14.19-8.6-16.19-4.25-1.46-8.46-1.12-12.69.1-7.34,2.12-13.26,6.5-18.75,11.6-3.33,3.08-5.98,6.65-7.72,10.84-2.45,5.92-1.58,11.54,2.91,15.55,1.6,1.43,3.58,2.05,5.46,2.89Zm131.48-284.4c3.31,4.26,10.63,4.47,14.3-.33,2.1-2.75,2.79-6.03,3-9.4.26-4.19-.63-8.23-1.93-12.17-.51-1.55-.88-3.25-2.13-4.48-.41-3.98-1.11-7.9-2.61-11.64-1.93-4.8-4.83-8.82-9.39-11.44-2.82-1.62-5.87-2.55-9.16-2.18-6.25.71-10.14,4.37-12.12,10.14-1.71,4.97-2.18,10.08-1.54,15.34.72,5.95,2.25,11.59,5.5,16.67.82,1.28,1.67,2.54,2.61,3.73,3.43,4.36,7.93,6.29,13.47,5.75Zm-269.3,187.03c-2.93-4.14-6.27-7.85-10.62-10.58-2.93-1.84-5.98-3.35-9.35-4.22-7.5-1.92-13.96,1.49-17.13,8.7-2.97,6.75-3.21,13.8-1.71,20.91,1.24,5.88,3.75,11.18,7.83,15.69,1.98,2.19,3.85,4.48,5.85,6.65,2.82,3.06,5.76,5.99,9.45,8.04,2.71,1.51,5.56,2.4,8.69,2.25,1.87-.09,3.54-.89,5.28-1.45,5.13.7,8.73-1.66,11.4-5.79,1.76-2.73,2.63-5.82,2.95-8.98,1.03-10.15-2.21-19.15-7.97-27.32-1.16-1.64-2.53-3.32-4.68-3.91Zm243.43-38.95c.52,3.61,2.7,6.1,5.65,7.89,3.79,2.29,7.88,2.15,12.01.93,6.45-1.91,11.41-5.89,15.45-11.12,3.04-3.93,5.5-8.23,7.55-12.74,2.48-5.48,4.22-11.14,4.09-17.3-.08-3.6-1.18-6.71-3.16-9.6-.54-.79-1.15-1.54-2.17-1.78-.21-4.94-2.34-9.05-5.53-12.68-3.27-3.73-7.51-5.5-12.35-5.22-5.59.32-10.68,2.41-15.39,5.46-2.6,1.69-4.18,4.37-6.4,6.42-5.14,4.74-8.77,10.5-11.33,16.98-1.92,4.86-3.34,9.84-3.18,15.11.22,7.44,3.38,13,10.59,15.83,1.41.55,2.77,1.21,4.16,1.82Zm-204.37-188.99c.05-1.12.03-2.24.18-3.34.25-1.78-.01-3.52-.45-5.2-2.08-7.86-10.69-13.24-18.72-11.82-4.89.86-9.22,2.99-13.37,5.59-6.71,4.2-11.72,10.03-15.94,16.6-4.41,6.87-7.65,14.35-11.19,21.68-2.33,4.83-4.27,9.81-5.03,15.15-.68,4.8.03,9.22,3.82,12.72,1.71,1.57,3.82,2.26,5.95,2.93.11.87.73,1.42,1.36,1.9,1.88,1.43,4,2.23,6.38,2.41,4.18.31,8.07-.67,11.76-2.54,7.68-3.89,14.38-9.02,20.07-15.53,4.64-5.31,8.64-11.01,11.61-17.43,3.21-6.94,4.6-14.2,4.06-21.83-.03-.49-.09-.95-.49-1.3Z"/>
  <path class="cls-8" d="m670.6,370.35c4.73,8.78,9,17.78,12.49,27.13,5.13,13.77,8.37,28.01,10.57,42.49,2.96,19.45,3.49,39.02,1.82,58.59-3.38,39.6-14.69,76.75-34.99,111.07-14.22,24.04-31.91,45.16-53.33,63.04-20.96,17.49-44.43,30.64-70.66,38.53-14.39,4.33-29.14,6.56-44.19,6.58-.39-.27-.96-.02-1.49-.69,2.86-2.54,3.78-6.28,5.56-9.54.27-.49.57-.96.86-1.44,3.01-4.99,5.97-10.02,9.05-14.96,2.16-3.47,4.69-6.63,7.93-9.21,2.27-1.8,4.73-3.25,7.2-4.73,4.72-2.83,9.67-5.23,13.94-8.82,5.74-4.81,10.27-10.49,13.36-17.29,2.68-5.89,5.17-11.86,7.4-17.93,3.45-9.35,9.61-16.03,18.85-19.9,8.94-3.75,17.43-8.29,25.27-14.06,6.27-4.62,11.61-9.97,14.97-17.12,2.86-6.09,4.31-12.52,4.58-19.2.17-4.31.06-8.63.02-12.95-.02-1.91.53-3.58,1.47-5.22,2.58-4.45,5.92-8.31,9.3-12.15,2.7-3.05,5.41-6.09,7.99-9.24,4.59-5.61,7.82-12.04,10.94-18.52,5.14-10.67,6.02-21.86,4.11-33.43-1.23-7.43-3.38-14.6-5.68-21.75-1.69-5.24-3.71-10.37-5.23-15.68-1.3-4.58-2.19-9.17-1.12-13.91,1.68-7.5,4.73-14.38,9.31-20.58,2.76-3.73,5.92-7.12,8.85-10.7,4.26-5.22,8.21-10.62,10.16-17.2.13-.44.46-.83.7-1.24Z"/>
  <path class="cls-9" d="m722.89,428.88c.22-.96.81-1.73,1.31-2.55,1.7-2.8,3.39-5.61,5.12-8.39,6.58-10.62,12.19-21.72,16.85-33.32,2.8-6.97,5.99-13.8,10.32-19.98,7.92-11.32,18.93-17.9,32.4-20.35,6.2-1.13,12.06.24,17.49,3.48,8.95,5.32,14.9,13.11,18.86,22.59,4.48,10.73,5.59,21.93,4.56,33.39-1.37,15.11-5.37,29.46-12.13,43.12-11.39,23.01-26.83,42.86-45.83,60.03-3.67,3.32-7.43,6.55-11.17,9.8-.66.57-1.26,1.24-2.12,1.53-3.31-2.89-6.21-6.18-8.88-9.65-5.87-7.62-10.7-15.84-14.36-24.76-3.01-7.33-5.18-14.9-7.01-22.59-1.29-5.43-2.45-10.88-3.26-16.39-.72-4.87-1.57-9.75-1.59-14.71,0-.49-.05-.96-.54-1.24Z"/>
  <path class="cls-5" d="m722.89,428.88c.49.28.54.75.54,1.24.01,4.96.87,9.84,1.59,14.71.81,5.51,1.98,10.96,3.26,16.39,1.82,7.69,4,15.26,7.01,22.59,3.66,8.92,8.49,17.14,14.36,24.76,2.68,3.47,5.57,6.76,8.88,9.65-2.47,2.51-5.37,4.5-8.14,6.64-10.84,8.35-22.47,15.52-34.16,22.59-7.11,4.3-14.42,8.24-22.14,11.37-.51.21-.98.55-1.59.47-.49-.52-.14-1.05.03-1.55,4.78-14.44,8.22-29.2,10.53-44.22,1.27-8.21,2.17-16.46,2.71-24.76.53-8.22.57-16.45.25-24.67-.19-4.94-.65-9.88-1.08-14.81-.1-1.15.01-1.96,1.02-2.67,6.59-4.68,12-10.5,16.37-17.3.12-.18.36-.29.54-.43Z"/>
  <path class="cls-1" d="m670.6,370.35c-.24.41-.57.79-.7,1.24-1.95,6.58-5.9,11.98-10.16,17.2-2.93,3.59-6.09,6.97-8.85,10.7-4.58,6.2-7.62,13.08-9.31,20.58-1.07,4.74-.18,9.33,1.12,13.91,1.51,5.31,3.54,10.43,5.23,15.68,2.3,7.14,4.46,14.31,5.68,21.75,1.91,11.56,1.03,22.75-4.11,33.43-3.12,6.48-6.35,12.92-10.94,18.52-2.58,3.15-5.29,6.19-7.99,9.24-3.39,3.83-6.72,7.69-9.3,12.15-.95,1.64-1.49,3.31-1.47,5.22.05,4.32.16,8.64-.02,12.95-.27,6.68-1.72,13.11-4.58,19.2-3.35,7.15-8.69,12.5-14.97,17.12-7.83,5.77-16.33,10.32-25.27,14.06-9.24,3.87-15.4,10.55-18.85,19.9-2.24,6.07-4.73,12.04-7.4,17.93-3.09,6.8-7.62,12.48-13.36,17.29-4.27,3.58-9.23,5.99-13.94,8.82-2.46,1.48-4.93,2.93-7.2,4.73-3.24,2.58-5.77,5.74-7.93,9.21-3.08,4.95-6.04,9.97-9.05,14.96-.29.48-.59.95-.86,1.44-1.78,3.26-2.7,7-5.56,9.54.53.68,1.1.42,1.49.69-1.33.62-2.68,0-4.01.01-4.16.04-8.31-.06-12.47-.12-.62,0-1.26.13-1.89-.19-.1-.75.56-.9.98-1.16,5.21-3.19,9.29-7.47,12.65-12.56,3.2-4.87,6.69-9.56,10.51-13.99,3.24-3.75,6.91-6.79,11.55-8.72,4.06-1.69,7.95-3.74,11.81-5.86,9.06-4.98,15.99-12.06,21.28-20.93,3.85-6.45,6.66-13.26,8.55-20.5,1.24-4.72,2.85-9.32,4.66-13.85,2.06-5.17,5.33-9.15,10.33-11.81,4.46-2.37,9-4.51,13.61-6.53,5.66-2.48,11.01-5.45,15.98-9.16,6.58-4.91,10.98-11.28,13.61-18.98,1.85-5.4,2.68-11.01,3.67-16.6.6-3.38,1.23-6.75,2.41-10,1.92-5.29,5.33-9.62,8.89-13.85,4.59-5.45,9.08-10.96,12.08-17.51,3.24-7.06,6.09-14.25,7.88-21.83,2.41-10.21,1.81-20.3-.88-30.35-1.78-6.64-4.13-13.11-5.59-19.84-1.34-6.19-2.23-12.42-1.84-18.79.52-8.46,2.64-16.36,7.74-23.32,6.05-8.26,10.19-17.54,13.92-26.99,2.27-5.75,3.74-11.72,3.97-17.94,0-.22.11-.43.15-.58.34-.25.54-.08.66.12,2.92,4.66,5.62,9.45,8.07,14.38Z"/>
  <path class="cls-2" d="m294.96,396.81c-2.13-.68-4.24-1.36-5.95-2.93-3.79-3.5-4.5-7.92-3.82-12.72.76-5.35,2.7-10.32,5.03-15.15,3.54-7.32,6.78-14.8,11.19-21.68,4.22-6.58,9.23-12.4,15.94-16.6,4.15-2.6,8.48-4.73,13.37-5.59,8.03-1.41,16.64,3.96,18.72,11.82.44,1.68.7,3.42.45,5.2-.15,1.1-.13,2.23-.18,3.34-1.12,3.23-2.09,6.49-3.64,9.57-4.36,8.67-9.63,16.71-16.14,23.9-5.41,5.98-11.17,11.61-18.08,15.9-5.17,3.21-10.62,5.49-16.89,4.95Z"/>
  <path class="cls-2" d="m554.08,531.48c-1.39-.61-2.75-1.27-4.16-1.82-7.21-2.82-10.37-8.39-10.59-15.83-.16-5.27,1.26-10.25,3.18-15.11,2.56-6.48,6.19-12.23,11.33-16.98,2.22-2.05,3.8-4.73,6.4-6.42,4.7-3.05,9.8-5.14,15.39-5.46,4.83-.28,9.07,1.49,12.35,5.22,3.19,3.64,5.32,7.74,5.53,12.69-.52,11.09-4.16,21.09-10.66,30.03-4.29,5.9-9.94,10.08-16.77,12.69-3.92,1.5-7.91,1.76-12,.99Z"/>
  <path class="cls-2" d="m308.96,616.43c-1.74.56-3.41,1.36-5.28,1.45-3.13.15-5.98-.74-8.69-2.25-3.69-2.06-6.63-4.99-9.45-8.04-2-2.17-3.87-4.46-5.85-6.65-4.08-4.5-6.59-9.81-7.83-15.69-1.5-7.11-1.26-14.16,1.71-20.91,3.17-7.21,9.63-10.62,17.13-8.7,3.37.86,6.42,2.38,9.35,4.22,4.34,2.73,7.69,6.44,10.62,10.58.21.52.37,1.06.64,1.54,4.58,8.42,6.38,17.46,5.89,26.97-.35,6.93-2.25,13.18-8.23,17.48Z"/>
  <path class="cls-2" d="m579.96,383.4c-5.54.54-10.03-1.39-13.47-5.75-.94-1.19-1.79-2.45-2.61-3.73-3.25-5.09-4.78-10.72-5.5-16.67-.64-5.26-.17-10.37,1.54-15.34,1.98-5.77,5.87-9.43,12.12-10.14,3.29-.37,6.34.56,9.16,2.18,4.56,2.62,7.47,6.64,9.39,11.44,1.5,3.74,2.2,7.66,2.61,11.64-.04,1.74-.08,3.49-.1,5.23-.04,3.77-.71,7.42-2.06,10.93-1.34,3.49-3.45,6.41-6.68,8.43-1.37.85-2.95,1.14-4.4,1.79Z"/>
  <path class="cls-2" d="m448.48,667.8c-1.88-.85-3.87-1.47-5.46-2.89-4.49-4.01-5.36-9.63-2.91-15.55,1.73-4.2,4.39-7.76,7.72-10.84,5.5-5.1,11.42-9.48,18.75-11.6,4.23-1.22,8.44-1.56,12.69-.1,5.82,2,10.97,8.02,8.6,16.19-.2.69-.37,1.38-.56,2.07-1.62,1.96-2.92,4.16-4.72,5.99-4.05,4.12-8.52,7.69-13.41,10.74-6.32,3.95-12.95,6.93-20.7,5.99Z"/>
  <path class="cls-10" d="m554.08,531.48c4.09.77,8.07.51,12-.99,6.83-2.61,12.48-6.78,16.77-12.69,6.5-8.95,10.13-18.95,10.66-30.03,1.02.23,1.63.98,2.17,1.78,1.97,2.89,3.08,6,3.16,9.6.14,6.16-1.6,11.82-4.09,17.3-2.04,4.51-4.51,8.81-7.55,12.74-4.04,5.23-9,9.21-15.45,11.12-4.13,1.22-8.22,1.36-12.01-.93-2.96-1.79-5.13-4.28-5.65-7.89Z"/>
  <path class="cls-3" d="m294.96,396.81c6.27.54,11.72-1.74,16.89-4.95,6.91-4.29,12.67-9.92,18.08-15.9,6.51-7.19,11.78-15.24,16.14-23.9,1.55-3.08,2.52-6.35,3.64-9.57.39.35.45.81.49,1.3.53,7.63-.86,14.89-4.06,21.83-2.96,6.42-6.97,12.11-11.61,17.43-5.68,6.51-12.39,11.64-20.07,15.53-3.69,1.87-7.59,2.85-11.76,2.54-2.37-.18-4.5-.98-6.38-2.41-.63-.48-1.24-1.02-1.36-1.9Z"/>
  <path class="cls-3" d="m448.48,667.8c7.75.94,14.38-2.05,20.7-5.99,4.88-3.05,9.36-6.62,13.41-10.74,1.81-1.84,3.11-4.03,4.72-5.99,1.04,1.54.67,3.23.38,4.85-.89,4.95-3.47,9.03-6.8,12.68-3.91,4.28-8.25,7.95-13.64,10.32-3.41,1.5-6.91,1.94-10.52,1.56-3.74-.39-7.39-3.48-8.24-6.69Z"/>
  <path class="cls-11" d="m308.96,616.43c5.98-4.31,7.88-10.56,8.23-17.48.48-9.51-1.31-18.55-5.89-26.97-.26-.49-.43-1.03-.64-1.54,2.15.59,3.53,2.27,4.68,3.91,5.76,8.17,9,17.17,7.97,27.32-.32,3.16-1.19,6.25-2.95,8.98-2.67,4.13-6.26,6.49-11.4,5.79Z"/>
  <path class="cls-6" d="m579.96,383.4c1.45-.64,3.03-.93,4.4-1.79,3.23-2.02,5.34-4.93,6.68-8.43,1.35-3.51,2.03-7.16,2.06-10.93.02-1.74.07-3.49.1-5.23,1.25,1.23,1.61,2.92,2.13,4.48,1.3,3.94,2.19,7.98,1.93,12.17-.21,3.37-.9,6.65-3,9.4-3.67,4.8-10.99,4.58-14.3.33Z"/>
</svg>