<?xml version="1.0" encoding="UTF-8"?>
<svg id="_图层_1" data-name="图层 1" xmlns="http://www.w3.org/2000/svg" viewBox="0 0 960 960">
  <defs>
    <style>
      .cls-1 {
        fill: #c04198;
      }

      .cls-1, .cls-2, .cls-3, .cls-4, .cls-5, .cls-6, .cls-7, .cls-8, .cls-9, .cls-10, .cls-11 {
        stroke-width: 0px;
      }

      .cls-2 {
        fill: #bb813d;
      }

      .cls-3 {
        fill: #ffe459;
      }

      .cls-4 {
        fill: #bd3d97;
      }

      .cls-5 {
        fill: #ff72d8;
      }

      .cls-6 {
        fill: #b93996;
      }

      .cls-7 {
        fill: #040303;
      }

      .cls-8 {
        fill: #050304;
      }

      .cls-9 {
        fill: #f4d6aa;
      }

      .cls-10 {
        fill: #fe72d7;
      }

      .cls-11 {
        fill: #bc3c97;
      }
    </style>
  </defs>
  <path class="cls-5" d="m244.94,377.34c2.59-3.54,5.17-7.08,7.77-10.61,5.77-7.85,11.87-15.41,18.4-22.65,4.65-5.16,9.29-10.33,14.35-15.09,6.86-6.44,13.63-12.98,21.18-18.63,2.47,2.51,4.22,2.67,7.14.64.79-.55,1.55-1.14,2.28-1.76,6.95-5.92,14.37-11.23,21.88-16.38,23.89-16.35,50.48-25.6,79.04-29.45,10.97-1.48,21.98-1.87,33.03-1.01,1.2.09,2.4.15,3.59-.07,3.07-.57,5.29-2.88,5.58-5.79.3-3.02-1.49-5.8-4.49-6.9-.98-.36-2-.53-3.04-.64-.78-.08-1.61.07-2.33-.38.33-.41.8-.51,1.28-.53,1.84-.06,3.66-.32,5.48-.46,9.73-.77,19.48-.92,29.21-.46,24.92,1.19,48.96,6.48,72.01,16.13,17.2,7.2,33.05,16.68,47.64,28.26,7.77,6.17,14.97,12.97,21.7,20.25,2.1,2.27,4.4,4.42,6.03,7.1-.21.24-.4.49-.63.7-2.74,2.66-3.17,5.89-1.11,9.09.6.94,1.34,1.79,2.06,2.65,26.04,31.22,41.36,67.12,46.88,107.3.36,2.59.52,2.32-1.91,3.26-1.42.55-2.69,1.4-3.94,2.27-3.87,2.74-7.36,5.91-10.39,9.55-6.85,8.21-10.54,17.62-10.53,28.39,0,2.96-.04,5.92-.06,8.87-.06,8.68-3.02,16.27-8.66,22.82-2.24,2.6-4.64,5.07-7.04,7.53-6.24,6.37-10.93,13.72-14.2,22.01-2.32,5.89-4.07,11.96-5.68,18.06-2.91,10.98-8.52,20.4-15.73,29.06-6.44,7.74-14.4,13.04-23.98,15.99-4.12,1.27-8.25,2.53-12.38,3.78-7.82,2.37-14.52,6.54-20.26,12.35-3.61,3.65-6.79,7.65-10.06,11.58-6.68,8.03-15.01,13.82-24.43,18.15-3.53,1.62-7.24,2.48-11.13,2.63-5.93.24-11.83-.05-17.71-.81-6.34-.82-12.64-1.92-19.03-2.38-14.24-1.03-27.47,1.88-39.47,9.9-5.26,3.52-10.36,7.23-15.1,11.41-5.22,4.6-10.37,9.27-15.51,13.95-6.85,6.25-14.5,11.27-23.02,14.95-3.85,1.66-7.85,2.69-12.05,2.94-5.19.3-10.39.31-15.58.42-1.63.03-3.14-.29-4.65-.93-45.85-19.54-80.8-51.1-103.71-95.41-22.44-43.41-28.24-89.52-20.4-137.5,3.95-24.16,11.73-47.09,22.58-69.02,2.94-5.94,5.73-11.96,8.56-17.96,1.09-2.3,1.67-4.67.51-7.15Zm180.58-62.6c.18-.16.35-.32.53-.48,2.64-2.18,5.34-4.31,7.59-6.93,5.21-6.08,3.43-14.41-3.81-17.81-3.97-1.86-8.17-1.59-12.24-.9-11.12,1.87-20.97,6.58-29.43,14.06-2.83,2.5-5.28,5.35-6.8,8.87-1.69,3.9-.64,7.81,2.65,10.52,1.51,1.25,3.26,1.99,5,2.78.58,1.9,2.23,2.61,3.81,3.33,3.26,1.5,6.79,1.37,10.12.77,8.28-1.5,15.49-5.21,21.16-11.6.69-.78,1.42-1.52,1.46-2.65l-.03.03Zm138.13,257.1c.18-.77.37-1.55.55-2.32,1.31-5.54-1.44-10.46-6.81-12.29-3.64-1.24-7.25-.63-10.87.07-4.97.96-9.57,2.96-14.26,4.79-7.89,3.07-14.2,8.16-19.76,14.35-1.5,1.67-2.68,3.58-3.53,5.67-1.8,4.42-.62,8.88,3.12,11.78,1.49,1.15,3.26,1.65,5.03,2.14.24,3.56,2.85,5,5.66,6.02,2.66.97,5.52.84,8.27.29,8.57-1.7,16.44-5.15,23.29-10.53,6.35-4.99,9.7-11.68,9.3-19.96Zm13.16-226.3c-.04-.88-.1-1.75-.13-2.63-.2-6.09-1.92-11.68-5.95-16.33-4-4.61-8.83-7.72-15.29-6.54-3.87.71-7.41,2.44-9.48,5.92-4.71,7.94-6.78,16.51-5.2,25.74,1.7,9.93,6.88,17.03,16.78,20.17,3.47,1.52,6.98,1.36,10.41-.03,4.98-2.02,8.05-5.82,9.69-10.85,1.71-5.25,1.98-10.44-.83-15.45Zm-282.67,281.05c.15,4.36,1.85,7.99,4.98,11.01,7.03,6.81,16.56,5.19,22.07-1.63,3.71-4.59,5.36-10.08,5.53-15.98.2-.77.38-1.55.6-2.31,2.11-7.31,2.81-14.72,1.29-22.23-1.14-5.64-3.21-10.8-7.39-15.02-5.73-5.8-14.34-5.78-20.08.06-.89.91-1.73,1.92-2.77,2.64-2.1,1.47-3.58,3.41-4.74,5.62-4.64,8.84-4.9,18.17-3.13,27.74.66,3.58,2.26,6.79,3.64,10.1Zm30.67-223.68c.35-.43.67-.89,1.05-1.29,2.88-3.04,4.69-6.6,5.31-10.76.29-1.93-.13-3.62-1.4-5.11-.46-.55-.88-1.13-1.34-1.68-4.93-5.77-10.44-10.79-17.68-13.51-8.33-3.13-16.96-4.99-25.81-5.81-2.87-.27-5.74,0-8.52.84-4.18,1.27-6.82,3.89-7.46,8.39-.21,1.49.39,3.05-.4,4.47-2.55.58-2.98,2.72-3.19,4.76-.32,3.1-.09,6.22.68,9.26,2.09,8.23,6.29,15.12,13.14,20.25,3.34,2.5,7.02,4.38,11.1,5.43,3.69.95,7.44.8,11.18.7,5.81-.15,11.07-2.2,16.01-5.09,1.35-.79,2.66-1.79,3.65-3.07,1.79-2.32,3.94-4.48,3.68-7.78Z"/>
  <path class="cls-7" d="m244.94,377.34c1.16,2.48.57,4.85-.51,7.15-2.83,6-5.62,12.02-8.56,17.96-10.85,21.92-18.63,44.86-22.58,69.02-7.84,47.99-2.05,94.1,20.4,137.5,22.91,44.31,57.86,75.87,103.71,95.41,1.5.64,3.01.96,4.65.93,5.19-.11,10.39-.11,15.58-.42,4.2-.25,8.2-1.28,12.05-2.94,8.52-3.68,16.16-8.7,23.02-14.95,5.14-4.69,10.29-9.36,15.51-13.95,4.74-4.18,9.84-7.89,15.1-11.41,11.99-8.02,25.22-10.92,39.47-9.9,6.39.46,12.69,1.56,19.03,2.38,5.88.76,11.78,1.05,17.71.81,3.89-.15,7.6-1.01,11.13-2.63,9.42-4.32,17.75-10.12,24.43-18.15,3.27-3.93,6.46-7.93,10.06-11.58,5.74-5.8,12.44-9.98,20.26-12.35,4.13-1.25,8.26-2.51,12.38-3.78,9.58-2.95,17.53-8.25,23.98-15.99,7.21-8.66,12.82-18.08,15.73-29.06,1.61-6.1,3.36-12.17,5.68-18.06,3.27-8.29,7.96-15.64,14.2-22.01,2.4-2.45,4.8-4.93,7.04-7.53,5.63-6.54,8.59-14.14,8.66-22.82.02-2.96.06-5.92.06-8.87-.02-10.77,3.67-20.18,10.53-28.39,3.03-3.63,6.52-6.81,10.39-9.55,1.24-.88,2.51-1.73,3.94-2.27,2.44-.94,2.27-.66,1.91-3.26-5.52-40.18-20.84-76.08-46.88-107.3-.72-.86-1.46-1.71-2.06-2.65-2.05-3.2-1.63-6.43,1.11-9.09.22-.22.42-.47.63-.7,4.35-1.76,7.47-.02,10.26,3.31,18.57,22.13,32.34,46.92,41.22,74.41,9.74,30.16,12.91,61.04,10.21,92.57-2.13,24.87-8.01,48.85-17.19,72.04-.26.67-.52,1.34-.75,2.02-.04.13.03.29.07.59,1-.05,1.41-.9,1.95-1.46,7.55-7.96,14.39-16.51,20.92-25.31,4-5.4,7.84-10.91,11.42-16.59,9.89-15.7,22.91-28.48,37.24-40.03,6.76-5.45,14.46-9.06,22.98-10.87,11.74-2.5,21.84.66,30.37,8.94,7.8,7.58,11.94,16.85,12.44,27.74.4,8.79-.99,17.36-2.95,25.89-5.65,24.55-14.83,47.62-29.35,68.31-20.61,29.39-46.21,53.33-78.23,70.01-18.45,9.61-37.97,15.95-58.67,18.53-6.42.8-12.83,1.73-19.27,2.41-10.7,1.13-21.22-.13-31.69-2.23-2.74-.55-5.46-1.19-8.11-2.12-1.44-.51-2.91-1.03-3.96-2.16-.83-.9-1.42-.62-2.22-.04-1.68,1.23-3.39,2.4-5.12,3.56-31.83,21.32-66.47,35.82-104.24,42.53-46.35,8.23-91.61,4.49-135.4-13.21-68.9-27.84-118.18-87.1-133.16-159.85-8.71-42.32-5.59-83.96,7.51-124.97,3.85-12.05,8.61-23.73,14.17-35.09,2.78-5.68,6.03-11.09,9.58-16.32,1.03-1.52,2.13-2.99,3.38-4.35,2.73-2.95,6.73-2.92,8.87.18Zm297.54,314.4l.09-.04c.4.08.67-.09.84-.45l.11-.06c.39.08.65-.08.81-.44l.13-.07c.28.09.44-.04.52-.3,9.33-4.97,18.23-10.62,26.86-16.71,60.35-42.65,102.82-110.76,109.16-186.51.5-5.97.94-11.95.69-17.96.14-4.74.15-9.48-.36-14.69-3.48,3.24-6.37,6.31-8.85,9.73-3.3,4.55-5.36,9.58-5.78,15.27-.29,3.92-.17,7.83-.2,11.74-.06,10.69-3.48,20.22-9.81,28.76-2.67,3.61-5.82,6.8-8.99,9.96-6.06,6.05-10.4,13.14-13.06,21.25-1.17,3.57-2.37,7.14-3.28,10.77-3.33,13.34-9.46,25.19-18.19,35.81-7.64,9.3-16.78,16.36-28.15,20.44-4.82,1.73-9.74,3.12-14.65,4.54-7.4,2.14-13.36,6.35-18.31,12.14-3.07,3.58-6.04,7.25-9.21,10.74-6.86,7.55-15.15,13.22-24.23,17.77-6.61,3.31-13.59,4.98-21.02,5.03-7.94.05-15.8-.68-23.63-1.85-6.09-.91-12.18-1.85-18.36-1.6-7.77.32-15.18,2.01-21.93,6.1-3.83,2.32-7.56,4.8-11.09,7.55-6.82,5.31-13.13,11.22-19.44,17.1-8.63,8.03-18.26,14.5-29.17,19.01-.46.19-1,.29-1.25.9.49.16.86.31,1.25.39,10.4,2.23,20.85,4.1,31.47,4.95,20.43,1.63,40.74.7,60.92-2.86,3.68-.65,7.42-1.09,10.97-2.39h.05c1.49.02,2.9-.33,4.24-.99h.06c.69.12,1.32,0,1.86-.47.17-.04.34-.08.51-.11.54.16,1.01.02,1.4-.37h.06c.69.12,1.31-.02,1.85-.49l.07-.02c1.19,0,2.31-.27,3.32-.91.17-.04.33-.08.5-.12.54.15.99,0,1.37-.4l.08-.02c.55.14,1.02,0,1.41-.42h.05c1.18-.03,2.28-.33,3.27-.99l.07-.02c.55.13,1.01-.02,1.39-.44l.06-.02c.55.13,1.02-.02,1.4-.45.16-.05.33-.09.49-.14.4.14.71,0,.95-.33.16-.05.33-.1.49-.14.4.14.71,0,.95-.34.16-.05.32-.1.49-.15.4.13.71-.01.95-.34.16-.05.33-.1.49-.15.4.13.7-.01.93-.34.17-.05.33-.11.5-.16.4.13.69-.01.92-.33l.07-.02c.55.11.99-.05,1.34-.48l.08-.03c.9,0,1.7-.28,2.37-.89.16-.06.33-.11.49-.17.39.12.68-.02.91-.35l.08-.03c.42.11.73-.04.96-.39l.46-.16c.41.12.7-.04.92-.37l.06-.02c.54.1.97-.07,1.3-.51l.11-.04c.41.11.71-.04.93-.38.17-.06.33-.13.5-.19.38.11.66-.01.86-.34l.12-.04c.41.11.7-.05.92-.39l.06-.02c.42.1.73-.05.95-.41.15-.06.31-.12.46-.17.4.11.68-.04.89-.38l.09-.03c.41.1.71-.06.92-.41.16-.07.33-.14.49-.2.26.12.42.01.51-.24l.46-.18c.39.1.67-.05.87-.39l.1-.04c.41.1.7-.07.91-.41l.06-.02c.42.1.72-.07.93-.43.16-.07.32-.14.48-.2.27.11.43,0,.51-.25.15-.06.3-.12.46-.19.39.1.66-.05.84-.39l.12-.05c.4.1.68-.06.87-.41l.1-.04c.41.09.69-.08.89-.42l.08-.03c.41.09.7-.08.9-.43l.07-.03c.42.09.71-.09.91-.44l.06-.03c.42.08.71-.09.91-.45l.05-.02c.42.08.71-.09.91-.45l.05-.02c.42.08.71-.09.91-.46l.05-.02c.42.08.71-.09.9-.46.16-.08.32-.16.49-.25.25.11.4.01.47-.24.16-.09.33-.17.49-.26.25.11.4.02.46-.23l.06-.03c.42.08.7-.1.89-.46l.06-.03c.41.08.69-.11.88-.46l.07-.04c.41.08.68-.1.86-.46Zm136.93-25.28c2.32-.93,4.65-1.82,6.94-2.8,12.87-5.47,24.79-12.55,35.98-20.93,17.55-13.15,32.71-28.65,45.62-46.31,15.94-21.81,25.58-46.35,30.9-72.7,1.16-5.74,1.78-11.53,1.43-17.4-.47-7.95-3.89-14.42-9.92-19.52-4.39-3.71-9.44-5.23-15.18-4.24-6.93,1.2-13.09,4.12-18.62,8.38-2.47,1.9-4.8,3.98-7.17,6-11.15,9.51-20.78,20.34-28.54,32.8-1.73,2.78-3.62,5.47-5.48,8.16-8.13,11.71-16.93,22.88-26.68,33.28-2.24,2.39-4.6,4.66-6.91,6.98-.62.05-.93.57-1.36.91-2.24,1.8-4.46,3.64-6.72,5.41-1.98,1.56-4.19,2.65-6.76,2.81-1.46.09-2.22.89-2.88,2.12-18.15,33.65-42.3,62.29-72.18,86.13-.41.32-1.03.52-.99,1.22.33.31.74.27,1.12.33,4.59.67,9.22.91,13.85,1.13,5.51.26,11.05.52,16.53-.01,10.25-1,20.47-2.33,30.62-4.17,9.05-1.64,17.88-4.1,26.41-7.58Z"/>
  <path class="cls-8" d="m449.31,248.63c.72.45,1.55.3,2.33.38,1.04.11,2.06.28,3.04.64,3,1.1,4.8,3.88,4.49,6.9-.29,2.91-2.51,5.21-5.58,5.79-1.19.22-2.39.16-3.59.07-11.05-.86-22.06-.46-33.03,1.01-28.56,3.85-55.15,13.1-79.04,29.45-7.52,5.14-14.93,10.46-21.88,16.38-.73.62-1.49,1.21-2.28,1.76-2.92,2.04-4.67,1.87-7.14-.64-.77-2.65.29-4.85,1.73-6.94,5.06-7.37,11.08-13.84,18.3-19.13,13.56-9.94,28.39-17.5,44.13-23.3,24.8-9.14,50.38-13.5,76.84-12.35.56.02,1.11,0,1.67,0Z"/>
  <path class="cls-3" d="m268.56,378.44c.79-1.43.19-2.98.4-4.47.64-4.5,3.28-7.12,7.46-8.39,2.78-.85,5.65-1.11,8.52-.84,8.85.82,17.48,2.69,25.81,5.81,7.24,2.72,12.75,7.74,17.68,13.51.47.54.88,1.13,1.34,1.68,1.27,1.49,1.69,3.19,1.4,5.11-.63,4.16-2.44,7.72-5.31,10.76-.38.4-.7.86-1.05,1.3-.53.48-1.06.96-1.6,1.44-2.76,2.46-5.94,3.94-9.62,4.49-3.54.53-7.02.23-10.46-.51-8.41-1.82-16.46-4.59-23.67-9.43-3.36-2.25-6.15-5.05-8.31-8.5-2.31-3.69-2.91-7.71-2.59-11.95Z"/>
  <path class="cls-3" d="m294.14,626.58c-1.38-3.31-2.98-6.52-3.64-10.1-1.77-9.57-1.51-18.91,3.13-27.74,1.16-2.21,2.65-4.15,4.74-5.62,1.03-.72,1.87-1.73,2.77-2.64,5.74-5.85,14.35-5.87,20.08-.06,4.17,4.23,6.25,9.38,7.39,15.02,1.52,7.51.82,14.92-1.29,22.23-.22.76-.4,1.54-.6,2.31-.55.53-.61,1.28-.87,1.94-1.17,2.98-2.48,5.9-4.39,8.49-3.36,4.57-7.59,7.54-13.62,6.82-4.3-.52-7.52-2.94-10.25-6.09-1.25-1.44-2.31-3.03-3.46-4.56Z"/>
  <path class="cls-3" d="m557.54,371.87c-9.9-3.14-15.07-10.24-16.78-20.17-1.59-9.23.49-17.8,5.2-25.74,2.07-3.49,5.61-5.22,9.48-5.92,6.46-1.18,11.3,1.93,15.29,6.54,4.03,4.65,5.75,10.23,5.95,16.33.03.88.08,1.75.13,2.63-.42,2.43-.52,4.9-1.06,7.32-.96,4.33-2.75,8.32-5.04,12.08-2.99,4.9-7.31,7.43-13.18,6.94Z"/>
  <path class="cls-3" d="m517.13,596.01c-1.77-.49-3.54-.99-5.03-2.14-3.75-2.9-4.93-7.35-3.12-11.78.85-2.09,2.03-4,3.53-5.67,5.56-6.19,11.87-11.27,19.76-14.35,4.69-1.83,9.29-3.82,14.26-4.79,3.62-.7,7.23-1.31,10.87-.07,5.38,1.83,8.12,6.76,6.81,12.29-.18.77-.37,1.55-.55,2.32-2.22,3.73-4.87,7.05-8.27,9.82-6.21,5.07-13.33,8.43-20.76,11.22-5.62,2.11-11.36,3.78-17.49,3.14Z"/>
  <path class="cls-3" d="m389,324.84c-1.74-.8-3.48-1.54-5-2.78-3.29-2.7-4.35-6.62-2.65-10.52,1.53-3.52,3.98-6.37,6.8-8.87,8.46-7.48,18.32-12.18,29.43-14.06,4.08-.69,8.28-.96,12.24.9,7.24,3.4,9.02,11.74,3.81,17.81-2.25,2.62-4.95,4.74-7.59,6.93-.26.07-.45.21-.53.48,0,0,.03-.03.03-.03-1.13.26-1.9,1.12-2.85,1.69-10.37,6.27-21.27,10.42-33.71,8.45Z"/>
  <path class="cls-11" d="m268.56,378.44c-.32,4.24.27,8.26,2.59,11.95,2.16,3.45,4.96,6.24,8.31,8.5,7.21,4.84,15.26,7.61,23.67,9.43,3.44.75,6.92,1.05,10.46.51,3.67-.55,6.86-2.04,9.62-4.49.54-.48,1.07-.96,1.6-1.44.26,3.29-1.89,5.46-3.68,7.77-.99,1.28-2.29,2.28-3.65,3.07-4.94,2.88-10.2,4.93-16.01,5.09-3.74.1-7.49.25-11.18-.7-4.08-1.05-7.76-2.92-11.1-5.43-6.85-5.13-11.05-12.02-13.14-20.25-.77-3.04-1-6.16-.68-9.26.21-2.04.65-4.17,3.19-4.76Z"/>
  <path class="cls-4" d="m517.13,596.01c6.13.65,11.87-1.03,17.49-3.14,7.42-2.78,14.55-6.14,20.76-11.22,3.39-2.77,6.05-6.1,8.27-9.82.4,8.28-2.94,14.97-9.3,19.96-6.85,5.38-14.72,8.83-23.29,10.53-2.75.55-5.6.68-8.27-.29-2.81-1.02-5.43-2.46-5.66-6.02Z"/>
  <path class="cls-1" d="m294.14,626.58c1.15,1.52,2.21,3.12,3.46,4.56,2.73,3.15,5.95,5.57,10.25,6.09,6.02.72,10.25-2.25,13.62-6.82,1.9-2.58,3.22-5.51,4.39-8.49.26-.66.32-1.41.87-1.94-.17,5.91-1.83,11.39-5.53,15.98-5.5,6.81-15.04,8.43-22.07,1.63-3.13-3.03-4.83-6.66-4.98-11.01Z"/>
  <path class="cls-1" d="m389,324.84c12.44,1.98,23.33-2.18,33.71-8.45.94-.57,1.72-1.43,2.85-1.69-.04,1.13-.77,1.87-1.46,2.65-5.67,6.38-12.88,10.1-21.16,11.6-3.32.6-6.86.72-10.12-.77-1.58-.72-3.23-1.44-3.81-3.33Z"/>
  <path class="cls-1" d="m557.54,371.87c5.87.49,10.19-2.04,13.18-6.94,2.29-3.76,4.08-7.75,5.04-12.08.54-2.42.63-4.89,1.06-7.32,2.81,5.02,2.54,10.2.83,15.45-1.64,5.04-4.71,8.83-9.69,10.85-3.43,1.39-6.94,1.55-10.41.03Z"/>
  <path class="cls-1" d="m425.52,314.73c.08-.27.27-.42.53-.48-.18.16-.35.32-.53.48Z"/>
  <path class="cls-10" d="m681.77,578.16c2.31-2.32,4.67-4.59,6.91-6.98,9.76-10.4,18.56-21.57,26.68-33.28,1.87-2.69,3.75-5.38,5.48-8.16,7.76-12.47,17.4-23.29,28.54-32.8,2.37-2.02,4.71-4.1,7.17-6,5.53-4.27,11.69-7.18,18.62-8.38,5.74-1,10.79.53,15.18,4.24,6.04,5.1,9.45,11.56,9.92,19.52.35,5.87-.27,11.66-1.43,17.4-5.32,26.35-14.96,50.89-30.9,72.7-12.91,17.67-28.07,33.17-45.62,46.31-11.19,8.38-23.11,15.46-35.98,20.93-2.3.98-4.63,1.87-6.94,2.8-.85-.4-.92-1.17-1.08-1.98-.97-4.84-1.82-9.7-2.53-14.58-.83-5.68-1.7-11.34-1.76-17.09-.02-1.51-.03-3.02-.32-4.53-.2-1.08-.22-2.26,0-3.34.36-1.83.27-3.66.33-5.49.04-1.2-.03-2.41.11-3.59.59-5.3,1.15-10.6,1.89-15.88.49-3.46.9-6.96,2.36-10.21.39-.87.85-1.83.82-2.73-.09-2.69,1-4.97,2.14-7.26.25-.5.49-1.01.41-1.6Z"/>
  <path class="cls-9" d="m681.7,469.2c.25,6-.19,11.99-.69,17.96-6.35,75.75-48.81,143.86-109.16,186.51-8.62,6.1-17.53,11.75-26.86,16.71-.27-.07-.45.02-.52.3,0,0-.13.07-.13.07-.38-.05-.67.06-.81.44,0,0-.11.06-.11.06-.39-.05-.69.06-.84.45,0,0-.09.04-.09.04-.4-.06-.7.07-.86.46,0,0-.07.04-.07.03-.4-.06-.71.07-.88.46,0,0-.06.03-.06.03-.41-.06-.72.07-.89.46,0,0-.06.03-.06.03-.23-.08-.39-.01-.46.23-.16.09-.33.17-.49.26-.24-.08-.4-.01-.47.24-.16.08-.32.16-.49.25-.41-.07-.72.06-.9.46,0,0-.05.02-.05.02-.42-.07-.73.06-.91.46,0,0-.05.02-.05.02-.41-.07-.73.06-.91.45,0,0-.05.02-.05.02-.41-.07-.73.05-.91.45,0,0-.06.03-.06.03-.41-.07-.73.05-.91.44,0,0-.07.03-.07.03-.4-.07-.72.04-.9.43,0,0-.08.03-.08.03-.4-.07-.71.04-.89.42,0,0-.1.04-.1.04-.39-.07-.69.03-.87.41,0,0-.12.05-.12.05-.37-.07-.67.02-.85.39-.15.06-.3.12-.46.19-.25-.09-.43-.01-.51.25-.16.07-.32.14-.48.2-.41-.08-.73.03-.93.43,0,0-.06.02-.06.02-.4-.08-.72.02-.91.41,0,0-.1.04-.1.04-.38-.07-.69.01-.87.39-.15.06-.3.12-.46.18-.25-.09-.43-.02-.51.24-.16.07-.33.14-.49.2-.4-.09-.73.01-.92.41,0,0-.09.03-.09.03-.38-.08-.7,0-.89.38-.15.06-.31.12-.46.17-.42-.09-.74.02-.95.41,0,0-.06.02-.06.02-.4-.08-.72,0-.92.39,0,0-.12.04-.12.04-.36-.08-.67,0-.86.34-.17.06-.33.13-.5.19-.4-.09-.73,0-.93.38,0,0-.11.04-.11.04-.53-.06-1,.01-1.3.51,0,0-.06.02-.06.02-.39-.09-.72-.01-.92.37-.15.05-.31.1-.46.16-.41-.1-.75,0-.97.39,0,0-.08.03-.07.03-.38-.09-.7-.02-.91.35-.16.06-.33.11-.49.17-.92-.05-1.75.14-2.37.89,0,0-.08.03-.08.03-.53-.08-1.01-.01-1.34.48,0,0-.07.02-.06.02-.38-.1-.71-.03-.92.33-.17.05-.33.11-.5.16-.39-.1-.72-.04-.93.34-.16.05-.33.1-.49.15-.39-.11-.72-.04-.95.34-.16.05-.32.1-.49.15-.39-.11-.73-.04-.95.34-.16.05-.33.1-.49.14-.39-.11-.73-.04-.95.33-.16.05-.33.09-.49.14-.55-.11-1.04-.04-1.4.45,0,0-.06.02-.06.02-.54-.1-1.04-.05-1.39.44,0,0-.07.02-.07.02-1.19-.01-2.33.17-3.27.98,0,0-.05.01-.05.01-.55-.11-1.04-.06-1.41.42,0,0-.08.02-.08.02-.52-.1-1.02-.08-1.37.4-.17.04-.33.08-.5.12-1.2-.05-2.35.13-3.32.91,0,0-.07.02-.07.02-.68-.08-1.34-.09-1.85.48,0,0-.06.01-.06.01-.53-.11-1.03-.1-1.4.37-.17.04-.34.08-.51.11-.68-.1-1.34-.11-1.86.46,0,0-.06.01-.06.01-1.49-.02-2.94.17-4.24.98,0,0-.05,0-.04,0-.73-.16-1.44.01-2.13.16-11.58,2.48-23.26,4.1-35.09,4.83-13.51.84-26.99.55-40.45-.76-1.55-.15-3.08-.41-4.67-.62.3-.94,1.01-.96,1.57-1.17,5.16-1.95,9.64-4.95,13.54-8.82,6.7-6.66,12.48-14.1,18.38-21.44,3.25-4.05,6.62-7.99,11.28-10.58,4.47-2.48,8.87-5.07,13.94-6.24,9.33-2.15,18.71-1.54,28.1-.62,4.36.43,8.7,1.17,13.1,1.14,2.55-.01,5.1-.21,7.65-.35,6.51-.34,12.82-1.5,18.91-3.86,5.3-2.05,10.41-4.48,15.14-7.67,5.63-3.81,10.06-8.8,14.27-14.05,3.9-4.86,8-9.55,13.05-13.28,3.75-2.76,7.58-5.31,12.41-5.84,7.71-.84,14.98-3.12,21.77-6.89,6.27-3.49,11.84-7.81,16.45-13.36,4.61-5.55,8.35-11.69,12.28-17.7,2.27-3.47,4.42-7.03,6.04-10.87,3.17-7.53,5.28-15.4,7.62-23.19,1.53-5.09,3.44-10,6.92-14.08,1.91-2.24,4.08-4.28,6.18-6.35,3.2-3.15,6.07-6.56,8.45-10.38,4.01-6.42,7.05-13.18,8.35-20.74,1.14-6.67,2.46-13.34,4.19-19.89,1.36-5.15,3.82-9.78,7.15-13.94Z"/>
  <path class="cls-6" d="m681.77,578.16c.09.59-.16,1.09-.41,1.6-1.14,2.29-2.23,4.57-2.14,7.26.03.9-.43,1.87-.82,2.73-1.46,3.25-1.87,6.75-2.36,10.21-.75,5.28-1.3,10.58-1.89,15.88-.13,1.19-.07,2.4-.11,3.59-.06,1.83.02,3.66-.33,5.49-.21,1.08-.19,2.26,0,3.34.28,1.51.3,3.02.32,4.53.06,5.75.93,11.42,1.76,17.09.71,4.89,1.56,9.74,2.53,14.58.16.81.23,1.59,1.08,1.98-8.53,3.48-17.36,5.94-26.41,7.58-10.14,1.84-20.36,3.17-30.62,4.17-5.49.53-11.02.27-16.53.01-4.63-.21-9.26-.46-13.85-1.13-.38-.06-.79-.02-1.12-.33-.04-.7.58-.89.99-1.22,29.87-23.84,54.02-52.47,72.18-86.13.66-1.23,1.42-2.03,2.88-2.12,2.57-.15,4.78-1.25,6.76-2.81,2.26-1.78,4.48-3.61,6.72-5.41.43-.34.74-.86,1.36-.91Z"/>
  <path class="cls-2" d="m681.7,469.2c-3.33,4.16-5.79,8.79-7.15,13.94-1.73,6.56-3.05,13.22-4.19,19.89-1.29,7.56-4.34,14.31-8.35,20.74-2.38,3.82-5.25,7.23-8.45,10.38-2.11,2.07-4.27,4.11-6.18,6.35-3.48,4.09-5.39,8.99-6.92,14.08-2.34,7.79-4.45,15.67-7.62,23.19-1.62,3.85-3.77,7.4-6.04,10.87-3.93,6.01-7.68,12.15-12.28,17.7-4.61,5.55-10.18,9.87-16.45,13.36-6.79,3.78-14.06,6.05-21.77,6.89-4.83.53-8.66,3.08-12.41,5.84-5.06,3.73-9.16,8.42-13.05,13.28-4.21,5.25-8.64,10.25-14.27,14.05-4.73,3.2-9.83,5.62-15.14,7.67-6.09,2.36-12.39,3.52-18.91,3.86-2.55.13-5.09.33-7.65.35-4.4.02-8.74-.72-13.1-1.14-9.39-.92-18.77-1.53-28.1.62-5.06,1.17-9.47,3.76-13.94,6.24-4.66,2.59-8.03,6.53-11.28,10.58-5.9,7.35-11.68,14.79-18.38,21.44-3.9,3.88-8.38,6.87-13.54,8.82-.56.21-1.27.23-1.57,1.17,1.59.21,3.13.47,4.67.62,13.46,1.32,26.94,1.6,40.45.76,11.82-.73,23.51-2.35,35.09-4.83.7-.15,1.41-.32,2.13-.16-3.55,1.3-7.28,1.74-10.97,2.39-20.18,3.56-40.49,4.49-60.92,2.86-10.62-.85-21.07-2.72-31.47-4.95-.39-.08-.76-.24-1.25-.39.25-.61.79-.71,1.25-.9,10.92-4.5,20.55-10.97,29.17-19.01,6.32-5.88,12.62-11.78,19.44-17.1,3.54-2.75,7.26-5.23,11.09-7.55,6.75-4.09,14.16-5.78,21.93-6.1,6.18-.25,12.28.69,18.36,1.6,7.84,1.17,15.69,1.9,23.63,1.85,7.43-.05,14.42-1.72,21.02-5.03,9.08-4.55,17.36-10.22,24.23-17.77,3.17-3.49,6.14-7.16,9.21-10.74,4.95-5.78,10.92-10,18.31-12.14,4.91-1.42,9.83-2.81,14.65-4.54,11.37-4.08,20.51-11.14,28.15-20.44,8.74-10.63,14.86-22.47,18.19-35.81.91-3.64,2.11-7.21,3.28-10.77,2.67-8.11,7.01-15.2,13.06-21.25,3.17-3.16,6.32-6.35,8.99-9.96,6.32-8.55,9.74-18.07,9.81-28.76.02-3.91-.09-7.83.2-11.74.42-5.68,2.47-10.71,5.78-15.27,2.48-3.42,5.37-6.49,8.85-9.73.51,5.21.51,9.95.36,14.69Z"/>
  <path class="cls-2" d="m477.36,715.77c1.3-.81,2.75-1,4.24-.98-1.34.66-2.75,1-4.24.98Z"/>
  <path class="cls-2" d="m494.14,711.44c.95-.81,2.08-.99,3.27-.98-.99.66-2.09.96-3.27.98Z"/>
  <path class="cls-2" d="m487.41,713.33c.98-.78,2.12-.96,3.32-.91-1.02.64-2.13.92-3.32.91Z"/>
  <path class="cls-2" d="m508.99,706.58c.62-.74,1.45-.93,2.37-.89-.67.61-1.47.89-2.37.89Z"/>
  <path class="cls-2" d="m485.5,713.82c.51-.57,1.17-.56,1.85-.48-.53.47-1.15.61-1.85.48Z"/>
  <path class="cls-2" d="m481.66,714.78c.52-.57,1.18-.56,1.86-.46-.54.47-1.17.59-1.86.46Z"/>
  <path class="cls-2" d="m498.93,709.98c.36-.49.85-.56,1.4-.45-.38.43-.84.58-1.4.45Z"/>
  <path class="cls-2" d="m492.69,711.87c.37-.49.86-.53,1.41-.42-.39.42-.86.56-1.41.42Z"/>
  <path class="cls-2" d="m497.49,710.44c.36-.49.85-.54,1.39-.44-.38.42-.84.58-1.39.44Z"/>
  <path class="cls-2" d="m515.24,704.22c.31-.5.78-.57,1.3-.51-.33.44-.76.61-1.3.51Z"/>
  <path class="cls-2" d="m507.56,707.09c.33-.49.81-.56,1.34-.48-.35.43-.8.59-1.34.48Z"/>
  <path class="cls-2" d="m491.23,712.29c.36-.48.85-.5,1.37-.4-.38.4-.83.55-1.37.4Z"/>
  <path class="cls-2" d="m484.04,714.2c.38-.47.87-.48,1.4-.37-.4.39-.86.53-1.4.37Z"/>
  <path class="cls-2" d="m539.71,693.19c.17-.39.48-.53.89-.46-.19.36-.47.54-.89.46Z"/>
  <path class="cls-2" d="m530.09,697.9c.18-.38.48-.48.87-.41-.19.35-.47.51-.87.41Z"/>
  <path class="cls-2" d="m536.84,694.64c.18-.39.49-.53.9-.46-.2.36-.49.54-.9.46Z"/>
  <path class="cls-2" d="m534.92,695.59c.18-.39.5-.52.91-.45-.2.36-.49.53-.91.45Z"/>
  <path class="cls-2" d="m533.95,696.06c.18-.39.5-.52.91-.45-.2.36-.49.53-.91.45Z"/>
  <path class="cls-2" d="m532.99,696.53c.18-.39.5-.51.91-.44-.2.35-.49.53-.91.44Z"/>
  <path class="cls-2" d="m526.75,699.41c.2-.39.52-.51.93-.43-.21.35-.51.52-.93.43Z"/>
  <path class="cls-2" d="m525.78,699.85c.19-.39.51-.49.91-.41-.21.34-.5.51-.91.41Z"/>
  <path class="cls-2" d="m524.81,700.27c.18-.38.49-.46.87-.39-.2.34-.48.49-.87.39Z"/>
  <path class="cls-2" d="m518.08,703.09c.19-.35.49-.43.86-.34-.2.33-.48.46-.86.34Z"/>
  <path class="cls-2" d="m522.42,701.3c.2-.39.52-.49.92-.41-.22.35-.51.51-.92.41Z"/>
  <path class="cls-2" d="m520.04,702.29c.21-.39.54-.5.95-.41-.22.36-.53.51-.95.41Z"/>
  <path class="cls-2" d="m519.06,702.71c.2-.38.52-.47.92-.39-.22.34-.51.5-.92.39Z"/>
  <path class="cls-2" d="m535.88,695.12c.18-.4.5-.53.91-.46-.2.36-.49.54-.91.46Z"/>
  <path class="cls-2" d="m516.66,703.67c.2-.39.53-.47.93-.38-.22.34-.52.49-.93.38Z"/>
  <path class="cls-2" d="m514.26,704.61c.2-.38.53-.46.92-.37-.22.33-.52.49-.92.37Z"/>
  <path class="cls-2" d="m512.83,705.15c.22-.39.55-.49.97-.39-.23.35-.55.5-.97.39Z"/>
  <path class="cls-2" d="m531.06,697.45c.18-.39.49-.49.89-.42-.2.35-.48.52-.89.42Z"/>
  <path class="cls-2" d="m506.57,707.44c.22-.36.54-.43.92-.33-.23.32-.53.47-.92.33Z"/>
  <path class="cls-2" d="m505.14,707.95c.22-.37.55-.44.93-.34-.23.33-.53.47-.93.34Z"/>
  <path class="cls-2" d="m503.7,708.44c.22-.38.55-.44.95-.34-.24.33-.54.47-.95.34Z"/>
  <path class="cls-2" d="m502.27,708.92c.22-.38.56-.44.95-.34-.24.33-.55.47-.95.34Z"/>
  <path class="cls-2" d="m500.83,709.39c.23-.37.56-.44.95-.33-.24.33-.55.47-.95.33Z"/>
  <path class="cls-2" d="m521.45,701.71c.19-.38.5-.46.89-.38-.21.34-.49.49-.89.38Z"/>
  <path class="cls-2" d="m540.66,692.69c.17-.39.47-.52.88-.46-.19.36-.46.54-.88.46Z"/>
  <path class="cls-2" d="m511.85,705.52c.21-.36.53-.44.91-.35-.22.33-.51.47-.91.35Z"/>
  <path class="cls-2" d="m543.52,691.19c.15-.38.44-.49.81-.44-.16.35-.42.51-.81.44Z"/>
  <path class="cls-2" d="m542.57,691.69c.15-.38.45-.5.84-.45-.17.35-.44.53-.84.45Z"/>
  <path class="cls-2" d="m541.62,692.19c.16-.39.47-.51.86-.46-.18.35-.46.53-.86.46Z"/>
  <path class="cls-2" d="m532.02,696.99c.18-.39.5-.5.9-.43-.2.35-.49.52-.9.43Z"/>
  <path class="cls-2" d="m529.12,698.34c.17-.37.47-.46.85-.39-.18.34-.46.49-.85.39Z"/>
  <path class="cls-2" d="m528.15,698.78c.08-.27.26-.34.51-.25-.09.25-.25.36-.51.25Z"/>
  <path class="cls-2" d="m539.19,693.45c.07-.25.23-.31.46-.23-.07.25-.21.35-.46.23Z"/>
  <path class="cls-2" d="m538.23,693.94c.07-.25.23-.32.47-.24-.07.25-.21.35-.47.24Z"/>
  <path class="cls-2" d="m544.47,690.68c.07-.28.25-.37.52-.3-.08.26-.23.39-.52.3Z"/>
  <path class="cls-2" d="m523.84,700.69c.09-.26.27-.33.51-.24-.09.25-.25.35-.51.24Z"/>
</svg>