<svg xmlns="http://www.w3.org/2000/svg" xmlns:xlink="http://www.w3.org/1999/xlink" viewBox="0 0 743 244"><g><svg width="743" height="244" viewBox="0 0 743 244" fill="none" id="svg-167029896_9751">
<path d="M323.46 179.474V163.174H355.49C363.441 163.174 370.2 161.362 375.765 157.74C381.331 154.118 385.59 149.081 388.544 142.628C391.61 136.176 393.144 128.649 393.144 120.046C393.144 111.329 391.61 103.745 388.544 97.293C385.59 90.8408 381.331 85.8601 375.765 82.351C370.2 78.7287 363.441 76.9175 355.49 76.9175H323.46V60.6172H355.49C366.849 60.6172 376.617 63.1641 384.795 68.258C392.973 73.2386 399.277 80.2003 403.707 89.1428C408.137 97.9722 410.352 108.273 410.352 120.046C410.352 131.818 408.137 142.176 403.707 151.118C399.277 159.947 392.973 166.909 384.795 172.003C376.617 176.984 366.849 179.474 355.49 179.474H323.46ZM313.748 179.474V60.6172H330.786V179.474H313.748Z" fill="white"/>
<path d="M459.498 181.851C450.979 181.851 443.482 179.927 437.008 176.078C430.534 172.229 425.422 166.966 421.674 160.287C418.039 153.495 416.222 145.628 416.222 136.686C416.222 127.856 418.039 120.046 421.674 113.254C425.422 106.462 430.534 101.198 437.008 97.4628C443.482 93.6141 450.979 91.6897 459.498 91.6897C468.017 91.6897 475.513 93.6141 481.988 97.4628C488.462 101.198 493.516 106.462 497.151 113.254C500.899 120.046 502.774 127.856 502.774 136.686C502.774 145.628 500.899 153.495 497.151 160.287C493.516 167.079 488.462 172.399 481.988 176.248C475.513 179.983 468.017 181.851 459.498 181.851ZM459.498 166.06C464.723 166.06 469.266 164.872 473.128 162.494C477.103 160.117 480.17 156.721 482.328 152.307C484.6 147.892 485.736 142.742 485.736 136.855C485.736 130.743 484.6 125.536 482.328 121.234C480.17 116.819 477.103 113.424 473.128 111.046C469.266 108.556 464.723 107.311 459.498 107.311C454.273 107.311 449.673 108.556 445.697 111.046C441.835 113.424 438.769 116.819 436.497 121.234C434.339 125.536 433.26 130.686 433.26 136.686C433.26 142.685 434.339 147.892 436.497 152.307C438.769 156.721 441.835 160.117 445.697 162.494C449.673 164.872 454.273 166.06 459.498 166.06Z" fill="white"/>
<path d="M511.971 179.474V94.0669H528.157V116.989L523.557 115.461C525.261 110.594 527.816 106.405 531.224 102.896C534.631 99.2739 538.607 96.5006 543.15 94.5763C547.807 92.6519 552.748 91.6897 557.973 91.6897C564.107 91.6897 569.616 92.9915 574.5 95.595C579.384 98.1986 583.246 102.104 586.085 107.311C588.925 112.405 590.345 118.8 590.345 126.498V179.474H573.307V131.252C573.307 125.479 572.455 120.895 570.751 117.499C569.048 113.99 566.719 111.443 563.766 109.858C560.926 108.273 557.576 107.481 553.714 107.481C549.852 107.481 545.99 108.443 542.128 110.367C538.38 112.292 535.256 115.291 532.757 119.366C530.258 123.441 529.009 128.762 529.009 135.327V179.474H511.971Z" fill="white"/>
<path d="M680.805 94.0669V179.474H664.619V156.552L669.219 157.91C667.515 162.777 664.959 167.022 661.552 170.645C658.144 174.154 654.112 176.927 649.455 178.965C644.912 180.889 639.971 181.851 634.632 181.851C628.612 181.851 623.16 180.549 618.276 177.946C613.392 175.229 609.53 171.324 606.69 166.23C603.851 161.023 602.431 154.627 602.431 147.043V94.0669H619.469V142.289C619.469 147.949 620.264 152.533 621.854 156.042C623.558 159.551 625.886 162.098 628.839 163.683C631.793 165.155 635.2 165.89 639.062 165.89C642.924 165.89 646.729 164.928 650.477 163.004C654.339 161.079 657.52 158.08 660.018 154.005C662.517 149.93 663.767 144.666 663.767 138.214V94.0669H680.805Z" fill="white"/>
<path d="M728.159 179.474C720.321 179.474 713.961 176.984 709.076 172.003C704.306 167.022 701.921 160.287 701.921 151.797V71.4841H718.958V150.269C718.958 154.91 720.037 158.363 722.196 160.627C724.467 162.777 727.932 163.853 732.589 163.853H742.13L742.982 165.721V179.474H728.159ZM687.268 109.688V94.0669H742.982V109.688H687.268Z" fill="white"/>
<path d="M201.118 201.697C212.631 190.185 223.519 182.407 225.438 184.326C227.357 186.245 219.579 197.133 208.067 208.646C196.554 220.158 185.666 227.936 183.747 226.017C181.828 224.098 189.606 213.21 201.118 201.697Z" fill="url(#svg-167029896_9751_paint0_linear_3749_2800)"/>
<path d="M34.3543 34.9333C45.8669 23.4207 56.7552 15.6433 58.674 17.5621C60.5928 19.4809 52.8154 30.3692 41.3028 41.8818C29.7901 53.3945 18.9018 61.1718 16.983 59.2531C15.0643 57.3343 22.8416 46.446 34.3543 34.9333Z" fill="url(#svg-167029896_9751_paint1_linear_3749_2800)"/>
<path d="M85.0204 189.248C103.728 170.54 121.228 157.707 124.106 160.585C126.984 163.463 114.151 180.963 95.4431 199.671C76.7351 218.379 59.236 231.211 56.3579 228.333C53.4797 225.455 66.3123 207.956 85.0204 189.248Z" fill="url(#svg-167029896_9751_paint2_linear_3749_2800)"/>
<path d="M188.669 85.5994C207.377 66.8914 224.876 54.0587 227.754 56.9369C230.632 59.8151 217.8 77.3141 199.092 96.0222C180.383 114.73 162.884 127.563 160.006 124.685C157.128 121.807 169.961 104.307 188.669 85.5994Z" fill="url(#svg-167029896_9751_paint3_linear_3749_2800)"/>
<path d="M43.3294 147.557C62.0375 128.849 79.5366 116.016 82.4147 118.894C85.2929 121.772 72.4602 139.272 53.7522 157.98C35.0441 176.688 17.545 189.52 14.6669 186.642C11.7887 183.764 24.6214 166.265 43.3294 147.557Z" fill="url(#svg-167029896_9751_paint4_linear_3749_2800)"/>
<path d="M146.978 43.9085C165.686 25.2004 183.185 12.3678 186.063 15.2459C188.941 18.1241 176.109 35.6232 157.401 54.3312C138.693 73.0393 121.193 85.8719 118.315 82.9937C115.437 80.1156 128.27 62.6165 146.978 43.9085Z" fill="url(#svg-167029896_9751_paint5_linear_3749_2800)"/>
<path d="M58.095 175.64C75.0441 158.691 90.8581 147.025 93.4165 149.583C95.9749 152.142 84.3088 167.956 67.3596 184.905C50.4105 201.854 34.5965 213.52 32.0381 210.962C29.4798 208.404 41.1458 192.59 58.095 175.64Z" fill="url(#svg-167029896_9751_paint6_linear_3749_2800)"/>
<path d="M175.061 58.674C192.01 41.7249 207.824 30.0588 210.383 32.6172C212.941 35.1755 201.275 50.9895 184.326 67.9387C167.377 84.8878 151.563 96.5539 149.004 93.9955C146.446 91.4372 158.112 75.6232 175.061 58.674Z" fill="url(#svg-167029896_9751_paint7_linear_3749_2800)"/>
<path d="M181.141 181.141C212.641 149.641 240.251 126.18 242.809 128.738C245.368 131.296 221.906 158.906 190.406 190.406C158.906 221.906 131.296 245.368 128.738 242.809C126.18 240.251 149.641 212.641 181.141 181.141Z" fill="url(#svg-167029896_9751_paint8_linear_3749_2800)"/>
<path d="M52.5941 52.5941C84.094 21.0942 111.704 -2.36751 114.262 0.190852C116.82 2.74922 93.3586 30.3589 61.8587 61.8587C30.3589 93.3586 2.74922 116.82 0.190852 114.262C-2.36751 111.704 21.0942 84.094 52.5941 52.5941Z" fill="url(#svg-167029896_9751_paint9_linear_3749_2800)"/>
<path d="M158.169 158.948C200.327 116.79 237.095 85.2072 240.293 88.4052C243.491 91.6031 211.908 128.371 169.75 170.529C127.592 212.687 90.824 244.27 87.6261 241.072C84.4281 237.874 116.011 201.106 158.169 158.948Z" fill="url(#svg-167029896_9751_paint10_linear_3749_2800)"/>
<path d="M72.471 73.2501C114.629 31.0923 151.397 -0.490869 154.595 2.70709C157.793 5.90504 126.21 42.6731 84.0518 84.8309C41.894 126.989 5.12593 158.572 1.92798 155.374C-1.26998 152.176 30.3132 115.408 72.471 73.2501Z" fill="url(#svg-167029896_9751_paint11_linear_3749_2800)"/>
<defs>
<linearGradient id="svg-167029896_9751_paint0_linear_3749_2800" x1="0" y1="121.5" x2="243" y2="121.5" gradientUnits="userSpaceOnUse">
<stop stop-color="#2476F0"/>
<stop offset="0.5" stop-color="#A83DDA"/>
<stop offset="1" stop-color="#C88D58"/>
</linearGradient>
<linearGradient id="svg-167029896_9751_paint1_linear_3749_2800" x1="0" y1="121.5" x2="243" y2="121.5" gradientUnits="userSpaceOnUse">
<stop stop-color="#2476F0"/>
<stop offset="0.5" stop-color="#A83DDA"/>
<stop offset="1" stop-color="#C88D58"/>
</linearGradient>
<linearGradient id="svg-167029896_9751_paint2_linear_3749_2800" x1="0" y1="121.5" x2="243" y2="121.5" gradientUnits="userSpaceOnUse">
<stop stop-color="#2476F0"/>
<stop offset="0.5" stop-color="#A83DDA"/>
<stop offset="1" stop-color="#C88D58"/>
</linearGradient>
<linearGradient id="svg-167029896_9751_paint3_linear_3749_2800" x1="0" y1="121.5" x2="243" y2="121.5" gradientUnits="userSpaceOnUse">
<stop stop-color="#2476F0"/>
<stop offset="0.5" stop-color="#A83DDA"/>
<stop offset="1" stop-color="#C88D58"/>
</linearGradient>
<linearGradient id="svg-167029896_9751_paint4_linear_3749_2800" x1="0" y1="121.5" x2="243" y2="121.5" gradientUnits="userSpaceOnUse">
<stop stop-color="#2476F0"/>
<stop offset="0.5" stop-color="#A83DDA"/>
<stop offset="1" stop-color="#C88D58"/>
</linearGradient>
<linearGradient id="svg-167029896_9751_paint5_linear_3749_2800" x1="0" y1="121.5" x2="243" y2="121.5" gradientUnits="userSpaceOnUse">
<stop stop-color="#2476F0"/>
<stop offset="0.5" stop-color="#A83DDA"/>
<stop offset="1" stop-color="#C88D58"/>
</linearGradient>
<linearGradient id="svg-167029896_9751_paint6_linear_3749_2800" x1="0" y1="121.5" x2="243" y2="121.5" gradientUnits="userSpaceOnUse">
<stop stop-color="#2476F0"/>
<stop offset="0.5" stop-color="#A83DDA"/>
<stop offset="1" stop-color="#C88D58"/>
</linearGradient>
<linearGradient id="svg-167029896_9751_paint7_linear_3749_2800" x1="0" y1="121.5" x2="243" y2="121.5" gradientUnits="userSpaceOnUse">
<stop stop-color="#2476F0"/>
<stop offset="0.5" stop-color="#A83DDA"/>
<stop offset="1" stop-color="#C88D58"/>
</linearGradient>
<linearGradient id="svg-167029896_9751_paint8_linear_3749_2800" x1="0" y1="121.5" x2="243" y2="121.5" gradientUnits="userSpaceOnUse">
<stop stop-color="#2476F0"/>
<stop offset="0.5" stop-color="#A83DDA"/>
<stop offset="1" stop-color="#C88D58"/>
</linearGradient>
<linearGradient id="svg-167029896_9751_paint9_linear_3749_2800" x1="0" y1="121.5" x2="243" y2="121.5" gradientUnits="userSpaceOnUse">
<stop stop-color="#2476F0"/>
<stop offset="0.5" stop-color="#A83DDA"/>
<stop offset="1" stop-color="#C88D58"/>
</linearGradient>
<linearGradient id="svg-167029896_9751_paint10_linear_3749_2800" x1="0" y1="121.5" x2="243" y2="121.5" gradientUnits="userSpaceOnUse">
<stop stop-color="#2476F0"/>
<stop offset="0.5" stop-color="#A83DDA"/>
<stop offset="1" stop-color="#C88D58"/>
</linearGradient>
<linearGradient id="svg-167029896_9751_paint11_linear_3749_2800" x1="0" y1="121.5" x2="243" y2="121.5" gradientUnits="userSpaceOnUse">
<stop stop-color="#2476F0"/>
<stop offset="0.5" stop-color="#A83DDA"/>
<stop offset="1" stop-color="#C88D58"/>
</linearGradient>
</defs>
</svg></g></svg>