<?xml version="1.0" encoding="UTF-8"?>
<svg id="_图层_1" data-name="图层 1" xmlns="http://www.w3.org/2000/svg" viewBox="0 0 960 960">
  <defs>
    <style>
      .cls-1 {
        fill: #fefefe;
      }

      .cls-1, .cls-2, .cls-3, .cls-4, .cls-5, .cls-6, .cls-7, .cls-8, .cls-9, .cls-10, .cls-11, .cls-12, .cls-13, .cls-14, .cls-15 {
        stroke-width: 0px;
      }

      .cls-2 {
        fill: #f3d6aa;
      }

      .cls-3 {
        fill: #ff73d8;
      }

      .cls-4 {
        fill: #060505;
      }

      .cls-5 {
        fill: #040304;
      }

      .cls-6 {
        fill: #fff;
      }

      .cls-7 {
        fill: #050404;
      }

      .cls-8 {
        fill: #f2d4a9;
      }

      .cls-9 {
        fill: #ba813d;
      }

      .cls-10 {
        fill: #ba3997;
      }

      .cls-11 {
        fill: #fe72d7;
      }

      .cls-12 {
        fill: #fafbfb;
      }

      .cls-13 {
        fill: #b83b97;
      }

      .cls-14 {
        fill: #fcaae3;
      }

      .cls-15 {
        fill: #ffe35a;
      }
    </style>
  </defs>
  <path class="cls-7" d="m486.57,592.23c-10.05,13.12-23.16,21.79-38.86,26.67-7.42,2.31-15.06,3.58-22.73,4.69-10,1.44-20.02,2-30.11,1.09-13.84-1.24-27.04-4.8-39.37-11.23-8.38-4.38-15.58-10.34-21.35-17.86-6.16-8.03-9.59-17.08-9.38-27.33,0-.4-.05-.79-.08-1.19.12-3.96.59-7.89,1.07-11.75-.75-.23-1.2-.02-1.66.09-3.51.82-7.06,1.4-10.66,1.57-16.68.76-30.86-5.04-42.75-16.57-7.56-7.33-13.11-16.07-17.33-25.68-.28-.65-.36-1.4-.97-1.88-2.11-6.37-4.2-12.74-5.42-19.36-2.23-12.04-2.68-24.13-1.49-36.3,2.41-24.72,10.53-47.45,23.82-68.39,3.18-5.01,6.98-9.53,10.8-14.05.3-.05.49-.22.52-.54,0,0,.01-.02.01-.02.29-.03.43-.18.45-.47,0,0,.03-.03.03-.03.28-.03.43-.17.43-.46,0,0,.04-.04.04-.04.28-.01.43-.16.43-.44,0,0,.05-.05.05-.05.28,0,.42-.15.43-.43,0,0,.05-.05.05-.05.28,0,.42-.15.43-.43,0,0,.04-.04.04-.04,1.28-.94,2.43-2.02,3.39-3.29,0,0,.01-.01.01-.01.31,0,.47-.14.49-.45,0,0,0,0,0,0,.31,0,.49-.14.5-.46h0c.32.01.5-.13.51-.46,0,0-.01.01-.01.01.33.01.52-.13.52-.47,0,0-.01.02-.01.02,1.18-.54,2.15-1.33,2.87-2.42h0c.94-.13,1.48-.9,2.16-1.41,10.94-8.18,22.89-13.96,36.61-15.57,17.11-2,32.29,2.4,45.4,13.69.6.51,1.08,1.19,1.99,1.48,2.09-2.28,4.58-4.15,7.24-5.78,15.06-9.19,31.27-13.59,48.98-11.6,5.19.59,10.24,1.75,14.78,4.53,2.15,1.32,2.14,1.3,4.06-.5,7.26-6.83,15.22-12.69,24.22-17.04,11.23-5.43,23.02-8.06,35.54-6.98,2.15.18,4.31.18,6.46.26,3.44,1.02,6.95,1.78,10.33,3.02,13.74,5.07,24.51,13.91,32.72,25.91,8.86,12.93,14.12,27.33,16.85,42.7,4.31,24.34,2.04,48.24-4.95,71.81-.43,1.46-.87,2.91-1.31,4.36-.49.38-.62.87-.45,1.46,0,0,0-.03,0-.03-.56.31-.57.93-.76,1.44-4.88,12.96-11.46,24.97-20.1,35.8-9.84,12.33-21.54,22.46-35.64,29.71-4.35,2.23-8.87,4.02-13.56,5.39-.77.23-1.65.29-1.49,1.45.42,3.16-.64,6.17-.96,9.26-.14.28-.36.55-.07.86-.13.73-.27,1.45-.4,2.18-.27.17-.41.38-.14.67-.1.42-.19.84-.29,1.26-.27.18-.35.4-.13.68-.13.57-.26,1.15-.4,1.72-.27.17-.41.36-.15.66-.11.42-.21.84-.32,1.26-.27.16-.41.36-.16.65-.43,1.55-.85,3.1-1.28,4.65-.55.57-.67,1.28-.61,2.04-.41,1.19-.82,2.38-1.23,3.57-.27.18-.45.4-.24.74-.8,1.87-1.6,3.74-2.4,5.6,0,0-.15,0-.15,0l.07.14c-.13.28-.27.56-.4.83,0,0-.15-.01-.15-.01l.07.14c-.14.27-.29.55-.43.82,0,0-.15-.02-.15-.02l.07.14c-.15.27-.3.54-.45.81,0,0-.14-.01-.14-.01l.07.13c-.26.46-.53.92-.79,1.38,0,0-.15-.02-.15-.02l.06.13c-.17.26-.34.52-.51.78,0,0-.13-.02-.13-.02,0,0,.06.12.06.12-.09.16-.18.31-.27.47,0,0-.14-.02-.14-.02l.07.12c-.18.26-.36.51-.54.77,0,0-.13-.02-.13-.02l.06.12c-.1.15-.19.31-.29.46,0,0-.14-.03-.14-.03,0,0,.06.13.06.13-.19.25-.38.5-.56.75,0,0-.13-.03-.13-.03l.06.12Zm-89.66-64.41c-.76,4.26-.49,8.58-.73,12.86-.03.55.03,1.14-.14,1.65-.37,1.11-1.6,1.4-2.52.67-.59-.47-.89-1.14-1.02-1.85-.23-1.25-.36-2.52-.57-3.78-.55-3.21-.32-6.52-1.34-9.66-.04-2.79-.13-5.58-.1-8.37.01-1.05-.43-1.44-1.35-1.54-3.46-.36-6.68-1.51-9.73-3.15-.89-.48-1.43-.36-1.99.46-1.34,1.97-2.74,3.91-4.11,5.86-.33.34-.68.66-.98,1.04-10.09,12.71-22.01,23.14-37.07,29.61-1.09.47-1.3,1.19-1.39,2.21-.41,4.71-.27,9.41-.05,14.13.35,7.52,2.88,14.2,7.43,20.13,5.04,6.58,11.34,11.74,18.64,15.55,10.87,5.68,22.53,9,34.7,10.41,14.04,1.64,27.95.38,41.71-2.44,10.53-2.15,20.38-6.04,28.79-12.96,7.82-6.43,14.34-13.86,18.01-23.51,2.4-6.3,4.06-12.79,5.21-19.41.36-2.08.8-4.17.65-6.38-.97,0-1.75-.03-2.54,0-14.97.74-28.38-3.65-40.43-12.4-9.02-6.55-15.89-14.98-21.42-24.58-.59-1.03-1.02-2.17-1.88-3.03-.47-1.66-1.34-3.09-2.13-4.57-.34.17-.42.19-.47.24-.28.29-.56.57-.81.88-4.71,5.82-10.82,9.36-18.07,11.03-.78.18-1.55.38-2.34.53-.72.14-1.09.53-1.17,1.29-.32,3.01-.77,6.01-.8,9.05Zm172.83-109.79c-.04-7.16-.53-14.24-1.72-21.28-2.4-14.12-6.98-27.38-15.36-39.15-5.87-8.24-12.93-15.16-21.92-20.04-6-3.26-12.49-4.93-19.12-5.91-5.23-.77-10.53-.06-15.71,1.07-12.63,2.75-23.57,8.79-33.3,17.16-11.11,9.57-19.67,21.15-26.47,34.06-10.44,19.82-15.97,41.01-17.18,63.33-.42,7.75-.14,15.5.83,23.22.22,1.72.22,2.11,2.08,2.16,1.76.05,3.48.52,5.03,1.43,3.07,1.79,4.45,4.5,4.17,8.01-.08,1.02-.36,2.04-.64,3.04-.9,3.25-2.27,6.31-3.87,9.27-.5.92-.54,1.71-.15,2.71,4.16,10.44,9.84,19.89,17.96,27.76,11.26,10.92,24.68,16.22,40.42,15.34,8.26-.46,16.01-2.85,23.41-6.45,11.73-5.71,21.36-14.03,29.29-24.27,20.84-26.91,31.52-57.45,32.25-91.47Zm-316.43,48.7c-.02,12.93,1.01,22.53,3.37,31.96,2.54,10.16,6.32,19.79,12.47,28.34,6.15,8.56,13.92,15.17,23.87,18.94,11.3,4.29,22.75,4.1,34.06.27,19.5-6.6,33.4-20.15,44.73-36.76.51-.75.3-1.29-.08-1.95-2.88-5.06-3.61-10.47-2.92-16.21.77-6.41,3.84-11.04,9.76-13.75,2.77-1.27,5.6-2.37,8.58-2.99,1.32-.28,1.95-.91,2.18-2.13.07-.39.2-.77.3-1.16,4.5-17.37,5.82-34.96,3.64-52.78-1.2-9.8-3.57-19.32-7.58-28.38-4.09-9.25-9.52-17.56-17.26-24.2-10.04-8.61-21.61-12.88-34.9-11.79-8.66.71-16.66,3.63-24.16,7.94-9.4,5.4-17.35,12.51-24.34,20.73-21.35,25.12-31.1,54.47-31.73,83.92Zm157.85,5.41c-4.63-42.42,5.81-80.33,32.26-113.85-1.98-1.12-4-1.81-6.09-2.27-7.58-1.67-15.24-1.82-22.88-.69-10.99,1.62-21.06,5.76-30.44,11.64-1.51.95-1.75.88-.36,2.61,4.69,5.83,8.39,12.24,11.26,19.15,5.06,12.17,7.55,24.88,8.06,38.01.57,14.91-1.55,29.48-5.63,43.79-.18.64-.67,1.28-.24,2.2,4.64-.42,9.31-.65,14.07-.6Z"/>
  <path class="cls-11" d="m625.79,334.48c-3.69-.25-6.64-2.17-9.42-4.33-2.14-1.66-4.17-3.47-6.19-5.28-6.57-5.86-13.65-11.01-21.22-15.53-4.25-2.54-8.3-5.41-12.54-7.95-6.38-3.83-13.21-6.79-19.88-10.07-5.52-2.72-11.12-5.24-16.92-7.32-7-2.5-14.17-4.41-21.31-6.42-10.6-2.98-21.21-5.93-31.91-8.54-4.59-1.12-9.24-1.68-13.96-1.85-4.78-.17-9.57-.3-14.26-1.41-.83-.2-1.75-.26-2.36-.99,2.37-.48,4.52-1.5,6.62-2.67,5.24-2.93,10.18-6.32,15.03-9.84,21.76-15.79,42.36-33,62.17-51.15,13.5-12.36,26.45-25.3,39.78-37.84,6.65-6.25,13.66-12.05,21.19-17.22,3.49-2.4,7.07-4.66,10.83-6.63,4.21-2.21,8.67-3.63,13.37-4.41,5.39-.9,9.74.64,13.13,4.99,2.37,3.05,4.4,6.28,5.95,9.81,1.99,4.56,3.39,9.31,4.31,14.19,4.26,22.81,4.35,45.77,2.14,68.78-.95,9.87-2.85,19.6-4.58,29.36-3.87,21.86-9.66,43.18-18.09,63.74-1.14,2.78-1.98,5.55-1.85,8.57Zm13.76-122.71c-.03-2.08-.2-4.13-.39-6.2-.34-3.74-1.45-7.18-3.26-10.42-1.72-3.08-4.08-5.45-7.47-6.74-4.91-1.87-9.45-.68-13.81,1.59-4.11,2.15-7.76,5.01-11.28,8.04-3.75,3.22-7.48,6.46-11.23,9.69-4.95,4.28-9.89,8.56-14.52,13.2-5.7,5.71-11.37,11.45-16.92,17.3-6.1,6.43-12.44,12.63-18.98,18.62-1.53,1.4-3.01,2.87-4.72,4.04-1.47,1-2.27,2.42-2.83,4.03-.62,1.77-.25,3.41,1.1,4.61,1.58,1.42,3.52,2.3,5.71,1.83,1.53-.33,2.96-.29,4.48.08,3.71.91,7.44,1.77,11.18,2.53,10.67,2.15,19.96,7.05,28.12,14.14,6.26,5.44,12.62,10.75,19.43,15.51,3.84,2.69,7.52,2.56,11.05-.7,3.22-2.97,4.85-6.92,6.5-10.8,2.9-6.83,5.29-13.86,7.35-21,1.97-6.81,3.87-13.64,5.31-20.59,1.54-7.4,2.88-14.83,3.84-22.34.7-5.46,1.13-10.92,1.35-16.41Z"/>
  <path class="cls-11" d="m262.5,367.98c-.95-.22-1.2.57-1.61,1.12-3.27,4.33-5.99,9.06-9.51,13.19-3.34,3.91-4.95,8.7-7.18,13.18-2.78,5.56-4.68,11.53-8.01,16.83-2.04,3.25-4.64,5.64-8.55,6.34-2.04.36-3.95-.14-5.85-.75-.62-.2-1.15-.61-1.5-1.15-.7-1.12-1.33-2.28-1.99-3.43.9.36,1.75.68,2.6-.22.57-.6,1.49-.49,2.27-.65,2.13-.43,2.66-1.18,2.3-3.32-.11-.63-.33-1.23-.53-1.84-5.51-17.11-9.02-34.6-10.45-52.53-1.62-20.36-1.82-40.7-.07-61.06,1.4-16.28,3.79-32.37,8.29-48.11,3.5-12.23,7.39-24.31,13.05-35.74,1.46-2.94,3.07-5.79,5.18-8.33.71-.86,1.45-1.71,2.26-2.48,2.27-2.14,3.74-2.26,6.43-.61,1.3.8,2.44,1.8,3.53,2.86,2.35,2.29,4.46,4.8,6.5,7.37,5.21,6.58,10.02,13.45,14.71,20.42,6.47,9.61,12.97,19.2,19.52,28.76,8.34,12.16,17.78,23.41,28.47,33.59,1.62,1.55,3.3,3.01,5.18,4.25,2.17,1.44,4.47,2.46,7.14,2.41-.18.26-.32.55-.53.77-.81.8-.85,1.41.26,2.03,1.39.77,2.22,2.03,2.59,3.58.33,1.38,0,2.33-1.18,3.07-1.02.64-2.14,1.18-3.32,1.33-5.04.64-9.4,3-13.72,5.42-6.92,3.88-13.19,8.66-19.18,13.84-7,6.06-13.96,12.16-20.3,18.94-1.74,1.86-3.45,3.76-5.17,5.65-.37.41-.83.78-.64,1.44,0,0,.03-.07.03-.07-.37-.03-.53.15-.51.51l.03-.04c-.38.05-.46.35-.55.65.03.67-.55.92-.92,1.29-2.51,2.51-4.7,5.28-6.7,8.21-.34.49-.45,1.21-1.18,1.37-.51.13-.8.44-.76.99l.03-.04c-.55.14-.64.51-.5.99l.05-.03Zm9.68-26.15c1.07-1.15,1.97-1.95,2.66-2.9,1.24-1.69,2.72-3.14,4.21-4.58,4.31-4.15,8.43-8.49,12.87-12.52,6.58-5.97,13.5-11.44,21.08-16.07,1.52-.93,1.62-1.32.72-2.86-1.84-3.16-4.37-5.7-7.34-7.77-6-4.17-12.39-7.25-19.98-6.83-6.24.35-11.83,3.53-14.46,10.02-2.49,6.14-3.33,12.6-3.73,19.13-.33,5.44.27,10.83,1.45,16.14.58,2.62,1.1,5.28,2.52,8.24Z"/>
  <path class="cls-5" d="m625.79,334.48c-.12-3.02.72-5.8,1.85-8.57,8.43-20.56,14.23-41.88,18.09-63.74,1.73-9.76,3.63-19.49,4.58-29.36,2.22-23.01,2.13-45.97-2.14-68.78-.91-4.88-2.31-9.63-4.31-14.19-1.54-3.54-3.57-6.77-5.95-9.81-3.39-4.35-7.73-5.89-13.13-4.99-4.7.79-9.15,2.2-13.37,4.41-3.76,1.97-7.34,4.23-10.83,6.63-7.53,5.16-14.54,10.97-21.19,17.22-13.34,12.53-26.28,25.47-39.78,37.84-19.82,18.15-40.42,35.36-62.17,51.15-4.85,3.52-9.79,6.91-15.03,9.84-2.1,1.17-4.25,2.19-6.62,2.67-.31-.08-.61-.19-.93-.24-3.88-.55-6.43-4.96-3.42-9.29.69-.99,1.51-1.86,2.4-2.67,1.65-1.52,3.39-2.93,5.27-4.15,19.03-12.48,36.53-26.93,53.82-41.66,16.68-14.21,32.39-29.48,48.17-44.68,6.27-6.05,12.52-12.13,19.28-17.64,7.39-6.02,15.08-11.6,23.42-16.23,6.07-3.37,12.51-5.63,19.4-6.61,9.89-1.41,18.12,1.48,24.62,9.17,6.23,7.37,9.99,15.93,12.33,25.18,2.48,9.8,3.57,19.82,4.3,29.87,1.73,23.64.3,47.1-3.96,70.43-3.13,17.15-6.6,34.21-11.8,50.87-2.55,8.17-5.37,16.23-8.67,24.13-.43,1.03-.9,2.05-1.43,3.03-.82,1.51-1.99,2.69-3.49,3.54-4.11,2.34-7.72,1.04-9.32-3.37Z"/>
  <path class="cls-5" d="m334.67,298.08c-2.67.05-4.97-.97-7.14-2.41-1.88-1.24-3.56-2.71-5.18-4.25-10.69-10.18-20.13-21.42-28.47-33.59-6.55-9.55-13.05-19.15-19.52-28.76-4.69-6.96-9.5-13.83-14.71-20.42-2.04-2.57-4.14-5.08-6.5-7.37-1.09-1.06-2.23-2.06-3.53-2.86-2.69-1.65-4.17-1.53-6.43.61-.81.77-1.54,1.62-2.26,2.48-2.11,2.54-3.72,5.38-5.18,8.33-5.66,11.44-9.55,23.51-13.05,35.74-4.5,15.74-6.9,31.83-8.29,48.11-1.75,20.36-1.55,40.7.07,61.06,1.43,17.93,4.94,35.42,10.45,52.53.2.61.42,1.21.53,1.84.37,2.14-.17,2.89-2.3,3.32-.78.16-1.69.04-2.27.65-.86.9-1.7.58-2.6.22-1.3-.86-1.92-2.25-2.68-3.5-1.33-2.19-2.27-4.57-3.15-6.98-4.64-12.74-7.8-25.83-9.45-39.3-2.05-16.77-3.27-33.58-2.82-50.48.49-18.48,1.68-36.91,5.62-55.03,3.89-17.92,9.07-35.45,16.86-52.13,2.17-4.65,4.64-9.11,7.93-13.09,1.74-2.1,3.57-4.11,5.81-5.69,5.24-3.7,10.86-4.39,16.82-1.97,3.54,1.43,6.51,3.72,9.23,6.35,2.88,2.78,5.44,5.85,7.93,8.99,4.47,5.64,8.66,11.49,12.7,17.44,7.22,10.65,14.43,21.31,21.69,31.94,7.73,11.32,16.5,21.78,26.38,31.3,1.56,1.5,3.18,2.91,5.05,4.02.97.57,1.83,1.28,2.55,2.16,3.13,3.82,1.72,8.83-2.94,10.41-.38.13-.77.22-1.15.33Z"/>
  <path class="cls-14" d="m518.69,325.26c-2.15-.08-4.32-.07-6.46-.26-12.52-1.08-24.31,1.56-35.54,6.98-9,4.35-16.96,10.21-24.22,17.04-1.92,1.81-1.92,1.82-4.06.5-4.54-2.78-9.58-3.95-14.78-4.53-17.7-1.99-33.92,2.41-48.98,11.6-2.66,1.62-5.15,3.5-7.24,5.78-.91-.29-1.4-.97-1.99-1.48-13.11-11.29-28.29-15.69-45.4-13.69-13.72,1.61-25.68,7.39-36.61,15.57-.69.51-1.22,1.28-2.16,1.41.02-1.51,1.31-2.15,2.23-2.92,2.8-2.36,5.51-4.81,8.54-6.9,8.29-5.72,17.2-10,27.04-12.28,4.42-1.03,8.84-1.89,13.43-2.01,7.36-.19,14.61.29,21.63,2.59,4.68,1.53,8.9,3.92,12.29,7.6.54.59,1.14,1.12,1.68,1.71.61.67,1.12.61,1.83.05,3.02-2.39,6.32-4.31,9.8-5.94,7.97-3.75,16.23-6.57,24.98-7.88,2.83-.42,5.66-.99,8.53-.86,7.14.33,14.04,1.8,20.58,4.76.51.23,1,.51,1.51.73,1.06.46,1.98.28,2.83-.56,3.29-3.26,6.99-6.05,10.75-8.72,3.57-2.54,7.38-4.7,11.41-6.48,3.58-1.58,7.15-3.12,10.95-4.12,6.74-1.77,13.57-2.96,20.55-2.38,5.33.45,10.5,1.81,15.47,3.84.51.21,1.06.38,1.41.86Z"/>
  <path class="cls-13" d="m499.38,557.53c.32-3.09,1.38-6.1.96-9.26-.15-1.16.72-1.22,1.49-1.45,4.69-1.37,9.22-3.16,13.56-5.39,14.09-7.24,25.8-17.37,35.64-29.71,8.64-10.83,15.22-22.85,20.1-35.8.19-.51.2-1.12.76-1.44.09,2.03-.7,3.9-1.06,5.85-1.43,7.7-3.28,15.29-6.08,22.63-2.96,7.75-6.84,14.96-12.21,21.3-5.84,6.89-11.84,13.66-19.18,19.01-7.44,5.43-15.24,10.25-24.31,12.61-3.1.81-6.25,1.29-9.42,1.66-.08-.02-.16-.03-.25-.02Z"/>
  <path class="cls-13" d="m252.4,512.82c.61.48.68,1.24.97,1.88,4.22,9.61,9.77,18.36,17.33,25.68,11.89,11.53,26.07,17.33,42.75,16.57,3.6-.16,7.15-.74,10.66-1.57.46-.11.91-.32,1.66-.09-.48,3.86-.95,7.8-1.07,11.75-8.29,1.58-16.53.79-24.73-.68-12.74-2.28-22.99-8.94-31.16-18.7-7.95-9.49-13.27-20.42-16.11-32.51-.18-.77-.47-1.53-.29-2.35Z"/>
  <path class="cls-4" d="m591.12,473.04c-.31,4.78-1.53,10.09-4.69,14.82-1.51,2.26-2.96,4.55-4.51,6.77-.59.84-1.34,1.58-2.11,2.28-.77.7-1.72.86-2.67.36-.92-.49-1.35-1.32-1.39-2.36-.03-.91.31-1.73.61-2.55,2.9-7.79,5.3-15.73,6.94-23.88.16-.78.38-1.56.73-2.27.6-1.23,1.62-1.99,3.03-2.01,1.42-.02,2.41.74,3.06,1.96,1.01,1.91,1.05,3.99,1.01,6.88Z"/>
  <path class="cls-4" d="m263.68,366.07c.73-.16.84-.88,1.18-1.37,2-2.93,4.2-5.69,6.7-8.21.37-.37.95-.62.92-1.29.24-.17.51-.31.55-.65,0,0-.03.04-.03.04.3-.04.49-.19.51-.51,0,0-.02.07-.03.07,1.91-.92,3.81-1.84,5.72-2.76.5-.24.98-.53,1.5-.74,1.45-.58,2.49-.42,3.28.46.78.87.85,2.05-.01,3.3-1.54,2.23-2.99,4.55-4.8,6.54-4.28,4.73-8.44,9.55-12.28,14.64-.52.7-1.13,1.35-1.78,1.93-1.3,1.15-2.58,1.36-3.7.7-1.38-.82-1.56-2.13-1.34-3.55.24-1.51.93-2.87,1.52-4.26.34-.8.93-1.5.92-2.43,0,0-.05.03-.05.03.58-.12.51-.57.5-.99,0,0-.03.04-.03.04.52-.13.8-.44.76-.99Z"/>
  <path class="cls-4" d="m266.09,558.95c-.02-2.95,2.69-4.63,5.33-3.28.42.22.83.49,1.18.81,2.96,2.77,6.45,4.69,10.1,6.35,2.66,1.2,4.92,2.95,7.12,4.82,1.65,1.4,2.07,2.8,1.32,4.16-.81,1.46-2.73,2.1-4.56,1.44-.54-.19-1.07-.28-1.62-.33-7.19-.71-12.71-4.37-17.2-9.8-.97-1.18-1.65-2.56-1.66-4.16Z"/>
  <path class="cls-14" d="m291.25,364.17c-.72,1.08-1.69,1.87-2.87,2.42.38-1.49,1.16-2.51,2.87-2.42Z"/>
  <path class="cls-14" d="m286.39,368.43c-.95,1.28-2.1,2.35-3.39,3.29.71-1.53,1.73-2.73,3.39-3.29Z"/>
  <path class="cls-9" d="m495.45,574.14c-.07-.76.06-1.46.61-2.04.18.79-.19,1.42-.61,2.04Z"/>
  <path class="cls-9" d="m497.81,565.54c-.26-.29-.12-.49.15-.66.23.29.2.51-.15.66Z"/>
  <path class="cls-9" d="m498.77,561.23c-.27-.29-.14-.49.14-.67.25.28.21.51-.14.67Z"/>
  <path class="cls-9" d="m498.36,563.17c-.23-.28-.14-.5.13-.68.23.28.18.5-.13.68Z"/>
  <path class="cls-9" d="m499.38,557.53c.08-.01.17,0,.25.02-.08.29.04.66-.32.84-.29-.31-.07-.58.07-.86Z"/>
  <path class="cls-9" d="m497.33,567.45c-.25-.29-.11-.49.16-.65.23.29.19.51-.16.65Z"/>
  <path class="cls-9" d="m493.97,578.45c-.21-.34-.03-.56.24-.74.16.33.16.6-.24.74Z"/>
  <path class="cls-13" d="m571.89,474.51c-.17-.58-.04-1.08.45-1.46.14.58.1,1.09-.45,1.46Z"/>
  <path class="cls-14" d="m282.01,372.73c0,.28-.15.43-.43.44.01-.27.16-.42.43-.44Z"/>
  <path class="cls-14" d="m282.96,371.77c0,.28-.14.42-.43.43.01-.27.15-.42.43-.43Z"/>
  <path class="cls-14" d="m282.48,372.25c0,.28-.15.43-.43.43.01-.27.15-.42.43-.43Z"/>
  <path class="cls-14" d="m286.88,367.97c-.01.31-.18.46-.49.45.02-.3.18-.45.49-.45Z"/>
  <path class="cls-14" d="m287.38,367.5c-.01.32-.18.47-.5.46.01-.32.18-.47.5-.46Z"/>
  <path class="cls-14" d="m287.89,367.04c0,.33-.19.47-.51.47.01-.33.18-.48.51-.47Z"/>
  <path class="cls-14" d="m280.62,374.19c-.03.32-.21.48-.52.54.06-.29.21-.49.52-.54Z"/>
  <path class="cls-14" d="m281.08,373.7c-.01.29-.16.44-.45.47.02-.28.17-.43.45-.47Z"/>
  <path class="cls-14" d="m288.39,366.58c0,.34-.19.49-.52.47.02-.32.19-.48.52-.47Z"/>
  <path class="cls-14" d="m281.54,373.21c0,.28-.16.43-.43.46.01-.28.16-.43.43-.46Z"/>
  <polygon class="cls-9" points="491.5 584.18 491.42 584.05 491.57 584.06 491.65 584.2 491.5 584.18"/>
  <polygon class="cls-9" points="491.01 585.14 490.94 585 491.1 585.02 491.16 585.16 491.01 585.14"/>
  <polygon class="cls-9" points="490.51 586.08 490.44 585.94 490.59 585.96 490.66 586.1 490.51 586.08"/>
  <polygon class="cls-9" points="489.98 587.01 489.92 586.88 490.06 586.89 490.13 587.02 489.98 587.01"/>
  <polygon class="cls-9" points="489.11 588.5 489.04 588.37 489.19 588.39 489.25 588.53 489.11 588.5"/>
  <polygon class="cls-9" points="488.53 589.39 488.47 589.26 488.6 589.28 488.67 589.4 488.53 589.39"/>
  <polygon class="cls-9" points="488.18 589.96 488.11 589.84 488.26 589.85 488.32 589.98 488.18 589.96"/>
  <polygon class="cls-9" points="487.57 590.83 487.51 590.7 487.65 590.73 487.71 590.84 487.57 590.83"/>
  <polygon class="cls-9" points="487.2 591.38 487.14 591.26 487.28 591.28 487.34 591.42 487.2 591.38"/>
  <polygon class="cls-9" points="486.57 592.23 486.51 592.11 486.64 592.13 486.7 592.25 486.57 592.23"/>
  <path class="cls-1" d="m569.73,418.02c-.73,34.01-11.4,64.55-32.25,91.47-7.93,10.24-17.56,18.56-29.29,24.27-7.4,3.6-15.15,5.98-23.41,6.45-15.74.88-29.16-4.41-40.42-15.34-8.12-7.87-13.8-17.32-17.96-27.76-.4-1-.35-1.79.15-2.71,1.59-2.96,2.96-6.02,3.87-9.27.28-1,.56-2.02.64-3.04.28-3.52-1.1-6.22-4.17-8.01-1.55-.9-3.27-1.38-5.03-1.43-1.86-.05-1.86-.44-2.08-2.16-.97-7.72-1.25-15.46-.83-23.22,1.22-22.33,6.74-43.51,17.18-63.33,6.8-12.91,15.36-24.5,26.47-34.06,9.72-8.37,20.67-14.41,33.3-17.16,5.18-1.13,10.48-1.84,15.71-1.07,6.63.98,13.11,2.65,19.12,5.91,8.98,4.88,16.05,11.8,21.92,20.04,8.38,11.76,12.96,25.03,15.36,39.15,1.19,7.03,1.68,14.12,1.72,21.28Zm-81.82-8.43c-1.07-2.2-2.36-4.3-3.89-6.23-6.17-7.77-14.92-8.59-22.63-3.95-5,3.01-8.19,7.51-10.36,12.8-3.1,7.55-4.28,15.53-4.73,23.58-.44,7.81-.3,15.64.83,23.41.78,5.41,2.14,10.63,4.86,15.43,2.68,4.71,6.15,8.56,11.42,10.39,4.61,1.6,9.26,1.46,13.88.1,9.52-2.81,16.84-8.97,23.58-15.86,5.71-5.84,10.53-12.4,14.78-19.37,5.68-9.32,10.38-19.06,12.86-29.76,1.24-5.33,1.82-10.72.63-16.12-1.05-4.73-3.74-8.23-8.36-10.05-5.51-2.17-10.71-.87-15.64,1.74-5.77,3.06-10.57,7.4-15.08,12.08-.6.62-1.06,1.4-2.14,1.81Zm-43.62-17.04c0,4.08,3.15,6.27,6.42,5.02,1.05-.4,2.03-.94,2.83-1.75,1.69-1.7,3.5-3.3,5.01-5.14,2.17-2.65,4.74-4.69,7.8-6.17,1.79-.87,2.03-2.67.64-4.11-1.3-1.35-2.91-1.63-4.63-1.19-3.09.78-6.15,1.69-9.16,2.76-1.53.54-2.91,1.34-4.12,2.38-2.7,2.31-4.37,5.23-4.79,8.22Z"/>
  <path class="cls-1" d="m253.31,466.72c.64-29.45,10.38-58.8,31.73-83.92,6.99-8.22,14.94-15.34,24.34-20.73,7.5-4.31,15.5-7.23,24.16-7.94,13.29-1.09,24.86,3.18,34.9,11.79,7.74,6.64,13.17,14.95,17.26,24.2,4.01,9.06,6.38,18.58,7.58,28.38,2.18,17.82.86,35.41-3.64,52.78-.1.39-.23.77-.3,1.16-.23,1.23-.86,1.86-2.18,2.13-2.97.62-5.8,1.72-8.58,2.99-5.93,2.71-8.99,7.34-9.76,13.75-.69,5.74.04,11.15,2.92,16.21.38.67.59,1.21.08,1.95-11.33,16.61-25.23,30.17-44.73,36.76-11.32,3.83-22.76,4.01-34.06-.27-9.95-3.78-17.72-10.38-23.87-18.94-6.15-8.56-9.93-18.19-12.47-28.34-2.36-9.43-3.38-19.03-3.37-31.96Zm23.51-24.44c-.01,3.93.46,7.81.89,11.69.86,7.83,2.7,15.41,6,22.57,2.26,4.89,5.27,9.32,9.33,12.94,2.41,2.14,5.22,3.3,8.51,3.27,3.98-.03,7.21-1.9,10.27-4.12,5.39-3.93,9.96-8.72,14.32-13.74,5.36-6.18,9.9-12.92,13.81-20.1,4.49-8.25,7.72-17.01,10.5-25.95,1.73-5.58,3.09-11.21,2.75-17.16-.44-7.89-6.37-13.83-14.24-13.92-5.1-.06-9.78,1.49-14.07,4.1-4.45,2.71-8.45,6.01-12.14,9.7-.36.36-.54,1.13-1.26.82-.47-.21-.49-.78-.57-1.25-.57-3.47-2.38-6.23-4.97-8.52-2.26-1.99-4.98-2.99-7.93-2.79-3.18.22-5.95,1.63-8.3,3.86-2.59,2.45-4.66,5.26-6.17,8.47-4.51,9.54-6.45,19.65-6.71,30.14Z"/>
  <path class="cls-2" d="m422.69,509.36c.86.86,1.29,2,1.88,3.03,5.53,9.6,12.4,18.03,21.42,24.58,12.05,8.75,25.46,13.14,40.43,12.4.79-.04,1.58,0,2.54,0,.15,2.21-.29,4.3-.65,6.38-1.15,6.62-2.82,13.11-5.21,19.41-3.67,9.65-10.19,17.08-18.01,23.51-8.41,6.92-18.26,10.8-28.79,12.96-13.77,2.82-27.68,4.08-41.71,2.44-12.17-1.42-23.83-4.73-34.7-10.41-7.29-3.81-13.59-8.98-18.64-15.55-4.55-5.93-7.08-12.61-7.43-20.13-.22-4.72-.36-9.42.05-14.13.09-1.03.3-1.75,1.39-2.21,15.06-6.48,26.98-16.91,37.07-29.61.29-.37.65-.69.98-1.03,4.89,4.49,10.71,6.58,17.28,6.75,1.02,3.14.79,6.45,1.34,9.66.21,1.25.34,2.52.57,3.78.13.71.43,1.37,1.02,1.85.92.73,2.15.44,2.52-.67.17-.51.11-1.1.14-1.65.24-4.29-.03-8.6.73-12.86.96-.03,1.9-.1,2.84-.33,8.26-2.04,14.92-6.68,20.71-12.71,1.4-1.46,2.1-3.36,2.23-5.42Zm-11.62,67.44c0,.92,0,1.79,0,2.67,0,4.01.4,7.97,1.51,11.85.6,2.09,1.45,4.06,2.91,5.71,2.65,3,6.16,3.71,9.75,1.95,2.67-1.31,4.62-3.38,6.05-5.96,1.09-1.96,1.85-4.07,2.45-6.23,1.88-6.78,3.3-13.66,4.18-20.64.62-4.92,1.09-9.85.62-14.82-.13-1.37-.42-2.69-1.08-3.9-1.26-2.3-3.21-3.02-5.82-2.61-2.72.43-5.21,1.43-7.73,2.42-6.64,2.6-13.58,4.15-20.47,5.89-3.88.98-7.71,2.12-11.28,3.95-5.03,2.57-8.85,6.31-10.39,11.92-1.25,4.57.86,8.48,5.31,10.15,1.74.65,3.54.91,5.4.98,5.28.19,10.29-1.09,15.28-2.6,1.05-.32,2.05-.87,3.31-.73Z"/>
  <path class="cls-8" d="m411.16,472.13c-4.75-.05-9.43.18-14.07.6-.43-.92.06-1.56.24-2.2,4.08-14.32,6.21-28.88,5.63-43.79-.51-13.13-2.99-25.84-8.06-38.01-2.87-6.9-6.57-13.32-11.26-19.15-1.4-1.74-1.16-1.66.36-2.61,9.38-5.88,19.46-10.02,30.44-11.64,7.64-1.13,15.3-.98,22.88.69,2.09.46,4.11,1.15,6.09,2.27-26.45,33.52-36.89,71.43-32.26,113.85Z"/>
  <path class="cls-9" d="m422.69,509.36c-.13,2.06-.83,3.95-2.23,5.42-5.79,6.03-12.45,10.67-20.71,12.71-.94.23-1.89.3-2.84.33.03-3.04.48-6.04.8-9.05.08-.75.44-1.14,1.17-1.29.78-.16,1.56-.35,2.34-.53,7.25-1.67,13.36-5.2,18.07-11.03.25-.31.53-.59.81-.88.05-.05.14-.07.47-.24.78,1.47,1.66,2.91,2.13,4.57Z"/>
  <path class="cls-9" d="m390.59,527.72c-6.57-.17-12.4-2.26-17.28-6.75,1.38-1.95,2.77-3.89,4.12-5.86.56-.82,1.1-.94,1.99-.46,3.04,1.64,6.26,2.79,9.73,3.15.92.1,1.37.49,1.35,1.54-.04,2.79.06,5.58.1,8.37Z"/>
  <path class="cls-10" d="m639.55,211.77c-.22,5.49-.66,10.96-1.35,16.41-.96,7.51-2.3,14.94-3.84,22.34-1.44,6.95-3.35,13.78-5.31,20.59-2.06,7.14-4.44,14.16-7.35,21-1.65,3.88-3.27,7.82-6.5,10.8-3.53,3.26-7.21,3.38-11.05.7-6.81-4.76-13.16-10.07-19.43-15.51-8.16-7.09-17.45-11.98-28.12-14.14-3.75-.76-7.47-1.62-11.18-2.53-1.51-.37-2.95-.41-4.48-.08-2.19.46-4.13-.42-5.71-1.83-1.34-1.2-1.71-2.84-1.1-4.61.56-1.61,1.37-3.03,2.83-4.03,1.71-1.17,3.19-2.64,4.72-4.04,6.54-5.99,12.88-12.2,18.98-18.62,5.56-5.85,11.23-11.59,16.92-17.3,4.62-4.63,9.56-8.92,14.52-13.2,3.74-3.23,7.48-6.47,11.23-9.69,3.52-3.02,7.17-5.88,11.28-8.04,4.35-2.28,8.9-3.47,13.81-1.59,3.39,1.29,5.75,3.67,7.47,6.74,1.81,3.24,2.92,6.68,3.26,10.42.19,2.07.36,4.12.39,6.2Z"/>
  <path class="cls-10" d="m272.18,341.83c-1.42-2.96-1.93-5.62-2.52-8.24-1.18-5.31-1.78-10.7-1.45-16.14.4-6.53,1.25-12.99,3.73-19.13,2.63-6.49,8.22-9.68,14.46-10.02,7.59-.42,13.98,2.66,19.98,6.83,2.97,2.07,5.5,4.6,7.34,7.77.9,1.54.8,1.93-.72,2.86-7.57,4.64-14.5,10.1-21.08,16.07-4.44,4.03-8.56,8.37-12.87,12.52-1.49,1.44-2.97,2.89-4.21,4.58-.7.95-1.59,1.75-2.66,2.9Z"/>
  <path class="cls-6" d="m263.68,366.07c.04.56-.24.86-.76.99-.04-.56.25-.86.76-.99Z"/>
  <path class="cls-6" d="m262.95,367.02c0,.42.08.87-.5.99-.14-.48-.04-.85.5-.99Z"/>
  <path class="cls-6" d="m273.51,354.08c-.02.32-.21.47-.51.51-.02-.36.14-.53.51-.51Z"/>
  <path class="cls-6" d="m273.02,354.55c-.04.34-.3.48-.55.65.08-.3.17-.6.55-.65Z"/>
  <path class="cls-3" d="m487.92,409.6c1.07-.41,1.54-1.19,2.14-1.81,4.51-4.67,9.32-9.01,15.08-12.08,4.93-2.62,10.13-3.91,15.64-1.74,4.62,1.82,7.32,5.31,8.36,10.05,1.19,5.4.61,10.79-.63,16.12-2.48,10.7-7.18,20.44-12.86,29.76-4.25,6.98-9.07,13.54-14.78,19.37-6.74,6.89-14.06,13.06-23.58,15.86-4.63,1.36-9.28,1.5-13.88-.1-5.27-1.83-8.75-5.67-11.42-10.39-2.72-4.8-4.08-10.02-4.86-15.43-1.13-7.78-1.27-15.61-.83-23.41.45-8.05,1.63-16.03,4.73-23.58,2.17-5.3,5.37-9.8,10.36-12.8,7.71-4.64,16.46-3.83,22.63,3.95,1.53,1.93,2.82,4.03,3.89,6.23Zm-21.96,29.47c.25,2.02.35,4.33.81,6.6.25,1.26.6,2.48,1.07,3.67,2.11,5.4,7.64,7.7,12.95,5.42,1.55-.67,2.98-1.54,4.26-2.65,4.67-4.02,8.01-9.13,11.16-14.29,2.78-4.55-.1-9.9-5.31-10.63-1.91-.27-3.62.44-5.24,1.35-1.68.95-3.15,2.18-4.47,3.59-.43.46-1,1.09-1.63.57-1.61-1.34-3.69-1.44-5.5-2.25-3.11-1.4-5.93-.23-7.19,2.95-.68,1.72-.88,3.55-.92,5.68Z"/>
  <path class="cls-3" d="m444.29,392.55c.43-2.99,2.09-5.91,4.79-8.22,1.21-1.04,2.6-1.84,4.12-2.38,3.01-1.06,6.07-1.97,9.16-2.76,1.72-.44,3.33-.15,4.63,1.19,1.39,1.44,1.15,3.24-.64,4.11-3.06,1.49-5.63,3.52-7.8,6.17-1.51,1.85-3.32,3.44-5.01,5.14-.8.81-1.79,1.35-2.83,1.75-3.27,1.26-6.42-.93-6.42-5.02Z"/>
  <path class="cls-3" d="m276.82,442.28c.26-10.48,2.2-20.6,6.71-30.14,1.52-3.21,3.59-6.02,6.17-8.47,2.36-2.23,5.12-3.64,8.3-3.86,2.95-.2,5.67.79,7.93,2.79,2.59,2.28,4.4,5.05,4.97,8.52.08.48.09,1.05.57,1.25.72.31.91-.46,1.26-.82,3.68-3.69,7.69-6.99,12.14-9.7,4.3-2.62,8.97-4.17,14.07-4.1,7.87.1,13.8,6.04,14.24,13.92.33,5.95-1.02,11.58-2.75,17.16-2.78,8.94-6.01,17.7-10.5,25.95-3.91,7.18-8.44,13.92-13.81,20.1-4.36,5.02-8.93,9.81-14.32,13.74-3.06,2.23-6.29,4.09-10.27,4.12-3.29.03-6.11-1.13-8.51-3.27-4.06-3.61-7.08-8.04-9.33-12.94-3.3-7.16-5.14-14.74-6-22.57-.43-3.89-.9-7.77-.89-11.69Zm18.32.71c.11,3.67.41,7.32,1.04,10.94.37,2.12.89,4.21,1.96,6.12,2.12,3.82,6.17,5.29,10.22,3.73,1.75-.68,3.2-1.75,4.55-3.02,4.84-4.55,8.18-10.17,11.3-15.94.95-1.75,1.93-3.5,2.47-5.44.84-2.99.13-5.62-2.24-7.54-2.45-1.98-5.17-1.72-7.84-.23-.78.43-1.46.98-2.09,1.59-.91.9-1.8,1.81-2.69,2.72q-1.24,1.27-2.42-.07c-2.04-2.33-4.48-3.25-7.5-2.12-.6.23-1.22.32-1.86.37-2.42.16-3.91,1.47-4.42,3.89-.34,1.64-.59,3.3-.46,4.99Z"/>
  <path class="cls-4" d="m411.07,576.8c-1.25-.14-2.26.41-3.31.73-4.98,1.51-10,2.79-15.28,2.6-1.85-.07-3.66-.33-5.4-.98-4.45-1.67-6.56-5.57-5.31-10.15,1.53-5.61,5.36-9.34,10.39-11.92,3.57-1.83,7.4-2.97,11.28-3.95,6.89-1.73,13.83-3.29,20.47-5.89,2.53-.99,5.02-1.99,7.73-2.42,2.61-.41,4.56.31,5.82,2.61.66,1.21.96,2.53,1.08,3.9.47,4.97,0,9.9-.62,14.82-.88,6.98-2.3,13.86-4.18,20.64-.6,2.16-1.36,4.26-2.45,6.23-1.43,2.58-3.38,4.65-6.05,5.96-3.59,1.76-7.1,1.05-9.75-1.95-1.46-1.65-2.32-3.62-2.91-5.71-1.1-3.87-1.51-7.83-1.51-11.85,0-.87,0-1.75,0-2.67Zm7.77,1.73s-.01,0-.02,0c0,1.76-.07,3.52.02,5.27.13,2.48.48,4.93,1.39,7.26.9,2.32,1.82,2.49,3.66.78,1.33-1.23,2.04-2.83,2.64-4.5,1.26-3.55,1.92-7.24,2.65-10.92,1.47-7.45,2.33-14.98,2.46-22.58.05-2.82-.9-3.4-3.52-2.41-.22.08-.42.22-.63.34-5.68,3-11.76,4.92-17.9,6.66-4.06,1.15-8.16,2.18-12.07,3.83-2.38,1.01-4.54,2.33-6.27,4.29-1.01,1.15-1.81,2.42-2.3,3.89-.34,1.03-.09,1.73.95,2.07.6.2,1.22.36,1.85.45,2.56.4,5.1.08,7.62-.38,4.48-.81,8.78-2.33,13.16-3.53,3.86-1.06,6.22.66,6.31,4.71.03,1.6,0,3.19,0,4.79Z"/>
  <path class="cls-15" d="m465.95,439.07c.04-2.13.24-3.96.92-5.68,1.26-3.18,4.08-4.35,7.19-2.95,1.81.81,3.89.91,5.5,2.25.63.52,1.2-.11,1.63-.57,1.32-1.41,2.79-2.64,4.47-3.59,1.62-.91,3.33-1.61,5.24-1.35,5.2.73,8.08,6.08,5.31,10.63-3.15,5.16-6.49,10.27-11.16,14.29-1.28,1.1-2.71,1.98-4.26,2.65-5.31,2.29-10.84-.02-12.95-5.42-.46-1.19-.82-2.41-1.07-3.67-.46-2.28-.56-4.59-.81-6.6Z"/>
  <path class="cls-15" d="m295.13,442.99c-.13-1.69.12-3.35.46-4.99.5-2.42,2-3.73,4.42-3.89.65-.04,1.26-.14,1.86-.37,3.02-1.13,5.45-.21,7.5,2.12q1.18,1.34,2.42.07c.89-.91,1.78-1.83,2.69-2.72.63-.62,1.31-1.16,2.09-1.59,2.67-1.49,5.39-1.75,7.84.23,2.38,1.92,3.08,4.55,2.24,7.54-.54,1.94-1.52,3.68-2.47,5.44-3.11,5.77-6.45,11.39-11.3,15.94-1.35,1.27-2.8,2.34-4.55,3.02-4.04,1.57-8.09.09-10.22-3.73-1.07-1.92-1.59-4-1.96-6.12-.63-3.62-.92-7.27-1.04-10.94Z"/>
  <path class="cls-12" d="m418.83,578.53c0-1.6.03-3.19,0-4.79-.08-4.05-2.44-5.77-6.31-4.71-4.38,1.21-8.68,2.72-13.16,3.53-2.52.46-5.05.78-7.62.38-.62-.1-1.25-.26-1.85-.45-1.04-.34-1.29-1.04-.95-2.07.49-1.47,1.28-2.74,2.3-3.89,1.72-1.96,3.89-3.28,6.27-4.29,3.91-1.65,8.01-2.68,12.07-3.83,6.14-1.74,12.22-3.66,17.9-6.66.21-.11.41-.25.63-.34,2.62-.99,3.56-.41,3.52,2.41-.13,7.6-1,15.13-2.46,22.58-.72,3.68-1.39,7.37-2.65,10.92-.59,1.67-1.31,3.26-2.64,4.5-1.84,1.71-2.75,1.54-3.66-.78-.91-2.33-1.26-4.78-1.39-7.26-.09-1.75-.02-3.51-.02-5.27,0,0,.01,0,.02,0Z"/>
</svg>