<?xml version="1.0" encoding="UTF-8"?>
<svg id="_图层_1" data-name="图层 1" xmlns="http://www.w3.org/2000/svg" viewBox="0 0 960 960">
  <defs>
    <style>
      .cls-1 {
        fill: #fefefe;
      }

      .cls-1, .cls-2, .cls-3, .cls-4, .cls-5, .cls-6, .cls-7, .cls-8, .cls-9, .cls-10, .cls-11, .cls-12 {
        stroke-width: 0px;
      }

      .cls-2 {
        fill: #b63b97;
      }

      .cls-3 {
        fill: #f3d6aa;
      }

      .cls-4 {
        fill: #bb3a98;
      }

      .cls-5 {
        fill: #040304;
      }

      .cls-6 {
        fill: #060504;
      }

      .cls-7 {
        fill: #b63c96;
      }

      .cls-8 {
        fill: #040303;
      }

      .cls-9 {
        fill: #fa71d4;
      }

      .cls-10 {
        fill: #fdfdfd;
      }

      .cls-11 {
        fill: #fe72d7;
      }

      .cls-12 {
        fill: #fcaae3;
      }
    </style>
  </defs>
  <path class="cls-8" d="m591.66,427.49c.47.05.93.09,1.4.14,3.27.39,4.66,2.54,5.18,5.52.03,1.75.15,3.51.09,5.26-.23,6.82-1.54,13.48-3.28,20.05-4.71,17.75-13.13,33.55-25.22,47.38-12.82,14.67-28.12,25.96-46.09,33.56-5.01,2.12-10.19,3.77-15.48,5.02-1.18.28-1.79.6-1.61,2.03.33,2.72-.42,5.37-.89,8.03-.46,5.22-2.5,9.88-5.11,14.32-1.46,2.49-3.32,4.7-5.27,6.82-10.06,10.89-22.07,18.89-35.96,24-16.9,6.22-34.34,10.04-52.3,11.4-10.26.78-20.45-.13-30.56-1.9-7.55-1.32-15.11-2.68-22.42-5.07-3.73-1.22-7.36-2.7-10.69-4.79-11.83-7.4-17.81-17.98-17.35-32.04.04-1.36.13-2.71.19-4.07.35-1.79.72-3.58,1.05-5.38.33-1.75,1.05-3.44,1.09-5.34-.89.17-1.6.28-2.3.44-9.52,2.17-19.12,2.9-28.79,1.24-16.34-2.79-30.44-9.86-41.7-22.24-.57-.63-.92-1.52-1.88-1.74,0,0,.02.02.02.02.07-.35-.07-.54-.43-.55,0,0,.02.02.02.02.1-.5-.13-.78-.6-.89,0,0,0,.01,0,.01.06-.33-.08-.51-.41-.56-5.57-8.06-10.02-16.65-12.22-26.28-1.58-6.89-2.09-13.86-1.51-20.9.18-2.2-.16-4.5,1.33-6.43,2.02-1.59,4.41-2.17,6.89-2.48,5.08-.63,10.15-1.28,15.23-1.87,21.28-2.46,42.56-4.91,63.84-7.36,2.17-.25,2.18-.26,2.19-2.46.01-6.8.02-13.59.03-20.39,0-8.89.66-17.71,2.42-26.46,2.48-12.35,7.33-23.44,16.17-32.6,4.41-4.57,9.26-8.61,14.69-11.89,15.31-9.23,31.84-14.65,49.71-16.1,12.91-1.05,25.57.04,37.91,3.98,11.3,3.61,21.13,9.56,28.28,19.24,6.93,9.38,12.29,19.66,15.91,30.76,2.28,6.99,4.09,14.12,4.49,21.53.21,4.07.65,8.12,1.21,12.16.16,1.14.48,1.54,1.65,1.3,1.48-.31,3-.45,4.5-.7,25.61-4.35,51.31-8.09,76.98-11.98,3.23-.49,6.51-.68,9.63-1.78Zm-253.47,105.96c.53.8,1.09,1.58,1.59,2.4.94,1.52.93,1.55,2.44.74,12.37-6.66,22.29-15.97,29.91-27.76.77-1.2.73-2.07-.02-3.23-1.61-2.5-2.64-5.28-3.34-8.17-1.49-6.15.16-11.2,5.18-15.11,2.41-1.87,5-3.46,7.83-4.61,1.09-.44,1.67-1.03,1.72-2.25.09-2.15.36-4.3.48-6.45.09-1.6.04-1.61-1.58-1.5-.32.02-.64.07-.95.11-17.14,2.05-34.28,4.11-51.43,6.16-12.62,1.51-25.23,3.06-37.86,4.52-14.61,1.7-29.23,3.34-43.85,4.95-1.24.14-1.61.52-1.52,1.79.44,6.5,1.56,12.87,3.78,18.99,7.24,19.94,20.92,33.06,41.46,38.81.67.19,1.34.42,1.95.28.12-.23.2-.29.19-.36-.04-.4-.08-.8-.15-1.19-1.29-6.66.27-12.71,4.08-18.19,3.23-4.64,7.31-8.45,12.04-11.56,1.34-.88,2.8-1.53,4.32-2.04,6.05-2.05,14.01.3,17.22,7.86-4.25.85-8.22,2.44-11.95,4.65-1.31.77-2.52,1.67-3.49,2.86-3.21,3.93-1.9,9.29,2.78,11.26,1.88.79,3.85.92,5.86.69,3.75-.43,7.29-1.61,10.8-2.93.81-.31,1.58-.78,2.5-.7Zm171.3-34.6c-3.29,1.37-6.06,3.48-8.49,6.04-1.16,1.22-2.09,2.61-2.66,4.21-1.54,4.31.34,8.68,4.54,10.48,2.03.87,4.15,1.01,6.33.73,3.83-.5,7.4-1.82,10.95-3.26,1.73,2.4,3.22,4.96,4.52,7.61,1.19,2.42,1.16,2.43,3.48,1.28.29-.14.57-.28.86-.43,13.67-7.01,25.14-16.72,34.59-28.75,13.08-16.66,21.88-35.23,24.28-56.52.06-.52.37-1.1-.28-1.56-8.26,1.26-16.56,2.43-24.83,3.79-24.44,4.02-49.01,7.19-73.5,10.92-13.27,2.02-26.54,4.05-39.82,6.02-9.17,1.36-18.28,3.11-27.51,4.01-1.04.1-1.35.47-1.32,1.47.1,3.12.32,6.22.59,9.33.12,1.39.41,2.64,1.37,3.73.85.98,1.28,2.22,1.44,3.5.1.81.32,1.56.69,2.27,1.34,2.58,1.71,5.34,1.24,8.16-.27,1.6.05,2.98.65,4.41,3.4,8.08,8.42,15.01,14.71,21.09,8.24,7.97,17.89,13.33,29.08,15.89.45.1.91.36,1.49-.08-.17-.7-.35-1.45-.53-2.2-3.75-15.37,3.06-29.06,13.24-36.55,2.2-1.62,4.56-2.92,7.16-3.82,6.98-2.42,14.6,1.02,17.74,8.21Zm-114.69-24.64c1.63-.17,2.89-.3,4.14-.43,3.49-.38,6.95-1.07,10.49-.95,2.07.08,2.07.05,2.07-2.01,0-3.28-.03-6.55.56-9.8.55-3.07,2.23-5,5.29-5.8,2.94-.77,5.91-1.41,8.91-1.87,20.06-3.07,40.12-6.13,60.18-9.23,1.17-.18,2.7.1,3.4-.79.73-.93-.23-2.25-.37-3.42-.05-.4-.12-.79-.17-1.19-1.25-10.87-4.17-21.29-8.09-31.48-3.32-8.63-8.67-15.98-14.05-23.34-2.77-3.79-6.22-6.85-10.13-9.41-6.3-4.13-13.16-6.91-20.5-8.44-17.71-3.69-35.14-2.47-52.19,3.56-9.62,3.4-18.76,7.78-26.63,14.42-6.45,5.44-11.63,11.86-14.55,19.9-3.41,9.4-5,19.14-5.41,29.1-.37,9.02-.12,18.07-1.08,27.07-.02.16-.04.32-.05.48-.05.58.18.92.8.88.56-.04,1.11-.11,1.67-.17,5.08-.57,10.17-1.13,15.25-1.72,10.16-1.18,20.37-1.93,30.47-3.65,2.22-.38,4.47-.31,6.69.03,3.58.56,5.03,2.55,4.76,6.19-.29,3.9-.52,7.81-1.45,12.04Zm24.9,31.13c-.43.36-.69.53-.91.76-4.33,4.57-9.4,7.93-15.54,9.5-1.22.31-1.47,1.05-1.57,2.05-.78,7.78.47,15.28,3.06,22.61.44,1.25,1.13,1.46,2.36,1.27,7.66-1.19,14.94.45,22.04,3.18,1.5.58,2.85,1.46,3.87,2.75,2.52,3.19,1.21,7.44-2.67,8.67-1.41.45-2.84.45-4.26.1-2.48-.61-4.96-1.23-7.43-1.9-9.94-2.68-18.22.46-25.49,7.2-.88.82-1.69,1.7-2.8,2.22-2.55,1.2-5.08.02-5.81-2.71-.26-.95-.21-1.89,0-2.85.59-2.75,2.04-5.01,3.96-7,1.96-2.03,4.28-3.59,6.68-5.05,2.71-1.65,2.72-1.65,1.67-4.72-2.61-7.61-4.63-15.31-3.46-23.48.14-1-.32-1.22-1.2-1.26-3.46-.15-6.84-.73-10.03-2.11-.74-.32-1.2-.15-1.6.49-.34.54-.7,1.07-1.06,1.6-9.9,14.32-22.83,24.94-38.94,31.54-2.88,1.18-4.42,2.41-4.6,5.79-.28,5.26-1.22,10.48-.58,15.77,1.09,8.99,5.17,16.01,13.36,20.34,2.55,1.34,5.17,2.52,7.91,3.41,10.65,3.43,21.62,5.1,32.75,5.65,16.27.81,32.22-1.3,47.85-5.87,9.28-2.71,18.54-5.5,27.44-9.35,9.3-4.02,17.04-10.04,23.28-17.99,1.88-2.4,3.52-4.96,4.71-7.77,1.38-3.25,2.46-6.59,2.82-10.12.1-.94-.2-1.33-1.17-1.24-1.51.13-3.03.2-4.55.28-26.7,1.46-55.38-12.29-68.7-39.2-.39-.78-.82-1.54-1.36-2.56Z"/>
  <path class="cls-11" d="m502.73,281.55c-7.98-2.48-15.88-5.21-23.99-7.25-5.35-1.35-10.8-1.91-16.28-2.24-2.55-.15-5.08-.4-7.56-.97-1.51-.35-2.86-.98-3.47-2.57,3.26.58,5.94-.53,8.32-2.7,2.91-2.65,6.18-4.79,9.57-6.78,7.59-4.45,15.38-8.52,23.34-12.26,25.05-11.76,51.46-18.28,79-20.17,23.52-1.61,46.77.53,69.78,5.75,14.49,3.29,28.5,7.82,41.95,14.12,6.38,3,12.47,6.5,18.17,10.67,6.21,4.55,11.29,10.12,15.4,16.6,1.86,2.92,3.35,6.01,3.91,9.46.87,5.35-1.26,9.85-5.97,12.53-1.18.67-2.43,1.22-3.68,1.74-5.24,2.2-10.62,4.01-16.01,5.76-8.75,2.84-17.43,5.83-25.67,9.98-4.36,2.19-8.75,4.32-13.18,6.34-7.41,3.38-14.09,7.79-20.05,13.37-2.79,2.61-4.17,5.37-2.94,9.13-3.87.28-7.41-.92-10.83-2.53-8.1-3.81-15.89-8.21-23.73-12.5-1.36-.75-3.03-1.06-3.98-2.49,1.42-1.65,3.44-2.52,5.04-3.95,5.19-4.61,10.57-8.98,16.5-12.63,2.34-1.44,4.37-3.24,6.16-5.28,5.45-6.21,4.33-13.33-1.33-18.41-2.2-1.97-4.79-3.44-7.44-4.76-7.1-3.54-14.57-6.01-22.28-7.82-9.78-2.29-19.7-3.91-29.71-4.37-11.7-.54-23.45-.66-34.96,2.29-6.66,1.7-13.25,3.57-19.28,6.98-1.39.79-2.7,1.69-3.82,2.85-.58.6-1.06,1.19-.96,2.08Z"/>
  <path class="cls-11" d="m282.58,358.38c-.82,1.3-2.04,2.23-3.14,3.26-3.21,3-6.51,5.9-9.7,8.91-7.55,7.13-15.24,14.11-22.63,21.41-1.78,1.76-3.45,3.77-5.77,4.94-.02-.32-.06-.63-.07-.95-.11-4.31-2.86-6.95-7.17-6.92-1.29,0-2.54.31-3.78.58-10.94,2.32-21.87,4.69-32.81,6.97-4.22.88-8.49,1.63-12.84,1.19-3.13-.32-4.01-1.27-4.15-4.43-.04-.87.03-1.76.13-2.63.25-2.23.79-4.4,1.47-6.54,2.5-7.81,6.11-15.09,10.47-22.01,5.52-8.75,11.81-16.9,19.03-24.3,16.07-16.47,33.9-30.66,54.46-41.14,23.99-12.23,49.67-18.82,76.34-21.67,6.83-.73,13.71-.96,20.54.36,3.12.6,6.2.22,9.18-.85.61,3.05-.61,5.62-2.15,8.09-1.83,2.93-4.19,5.42-6.79,7.66-6.32,5.46-12.66,10.9-19.06,16.26-2.37,1.99-4.68,4.07-7.27,5.79-1.58-1.01-3.32-1.46-5.19-1.5-4.86-.1-9.69.11-14.52.88-8.47,1.34-16.59,3.84-24.57,6.85-9.56,3.61-18.77,7.99-27.64,13.08-5.12,2.94-10.13,6.05-14.81,9.65-2.08,1.6-3.99,3.46-5.34,5.76-1.02,1.74-1.81,3.64-1.4,5.68.67,3.27,2.55,5.64,5.8,6.71,3.68,1.21,7.51,1.36,11.32,1.12,1.5-.1,3.01-.23,4.52-.27,2.55-.07,5.06-.55,7.59-.77,3.33-.29,6.57-1.24,9.94-1.18Z"/>
  <path class="cls-5" d="m633.36,342.07c-1.23-3.76.15-6.52,2.94-9.13,5.96-5.58,12.64-9.99,20.05-13.37,4.44-2.02,8.82-4.15,13.18-6.34,8.24-4.14,16.93-7.13,25.67-9.98,5.4-1.76,10.78-3.56,16.01-5.76,1.25-.52,2.5-1.08,3.68-1.74,4.71-2.67,6.85-7.18,5.97-12.53-.56-3.46-2.05-6.54-3.91-9.46-4.11-6.48-9.19-12.06-15.4-16.6-5.7-4.17-11.79-7.67-18.17-10.67-13.44-6.31-27.46-10.84-41.95-14.12-23.01-5.22-46.26-7.36-69.78-5.75-27.54,1.88-53.95,8.4-79,20.17-7.97,3.74-15.75,7.81-23.34,12.26-3.39,1.99-6.66,4.13-9.57,6.78-2.39,2.17-5.07,3.28-8.32,2.7-.4-.26-.81-.52-1.2-.79-3.21-2.27-3.93-5.91-1.84-9.26.69-1.1,1.59-2,2.54-2.86,2.44-2.2,5.03-4.22,7.83-5.93,18.96-11.61,38.91-21.08,60.31-27.27,23.73-6.86,47.93-10.3,72.66-9.8,21.7.44,42.95,3.82,63.88,9.4,16.29,4.34,31.83,10.56,46.34,19.22,10.88,6.5,19.98,14.85,26.65,25.72,2.78,4.54,4.9,9.32,5.64,14.66,1.47,10.66-3.25,20.35-12.55,25.71-2.85,1.64-5.89,2.86-8.95,4.03-5.67,2.17-11.43,4.11-17.21,5.97-7.77,2.5-15.31,5.57-22.61,9.23-4.64,2.33-9.33,4.56-14.02,6.8-4.44,2.12-8.41,4.9-12,8.25-.93.87-1.88,1.75-2.91,2.49-3.5,2.49-7.24,1.96-9.99-1.32-.2-.24-.43-.46-.65-.69Z"/>
  <path class="cls-5" d="m372.15,274.56c-2.99,1.07-6.06,1.46-9.18.85-6.83-1.32-13.72-1.09-20.54-.36-26.67,2.85-52.35,9.44-76.34,21.67-20.56,10.48-38.39,24.67-54.46,41.14-7.22,7.4-13.51,15.56-19.03,24.3-4.37,6.92-7.97,14.21-10.47,22.01-.68,2.13-1.23,4.3-1.47,6.54-.1.87-.17,1.75-.13,2.63.14,3.16,1.02,4.11,4.15,4.43,4.35.45,8.62-.31,12.84-1.19,10.95-2.28,21.88-4.65,32.81-6.97,1.25-.27,2.49-.57,3.78-.58,4.31-.03,7.06,2.61,7.17,6.92,0,.32.04.63.07.95-1.43,3.55-4.24,5.1-7.85,5.83-12.37,2.5-24.71,5.2-37.09,7.67-5.11,1.02-10.3,1.41-15.49.36-7.88-1.59-12.59-6.71-13.61-14.68-.59-4.61.11-9.1,1.32-13.51,2.59-9.48,6.81-18.25,11.95-26.59,8.45-13.7,18.84-25.8,30.71-36.64,16.61-15.18,34.61-28.34,55.16-37.78,17.83-8.19,36.51-13.59,55.74-17.23,8.49-1.61,17.03-2.79,25.68-3.16,5.37-.22,10.7-.2,16.01.73,2.7.48,5.28,1.28,7.69,2.57.92.49,1.79,1.07,2.49,1.85,1.88,2.08,1.8,4.93-.21,6.88-.51.5-1.12.9-1.68,1.35Z"/>
  <path class="cls-4" d="m502.73,281.55c-.1-.89.38-1.48.96-2.08,1.12-1.17,2.43-2.06,3.82-2.85,6.03-3.42,12.62-5.28,19.28-6.98,11.51-2.95,23.26-2.83,34.96-2.29,10.01.46,19.93,2.08,29.71,4.37,7.71,1.81,15.18,4.28,22.28,7.82,2.65,1.32,5.24,2.79,7.44,4.76,5.67,5.08,6.78,12.2,1.33,18.41-1.79,2.04-3.82,3.83-6.16,5.28-5.92,3.65-11.31,8.02-16.5,12.63-1.6,1.42-3.62,2.3-5.04,3.95-1.57-.16-2.83-1.06-4.16-1.77-15.16-8.06-30.43-15.9-45.78-23.59-13.65-6.84-27.63-12.9-42.15-17.66Z"/>
  <path class="cls-12" d="m591.66,427.49c-3.11,1.1-6.4,1.29-9.63,1.78-25.68,3.88-51.38,7.63-76.98,11.98-1.5.25-3.01.39-4.5.7-1.17.24-1.49-.15-1.65-1.3-.55-4.04-.99-8.09-1.21-12.16-.39-7.41-2.2-14.54-4.49-21.53-3.62-11.1-8.98-21.37-15.91-30.76-7.15-9.68-16.98-15.63-28.28-19.24-12.34-3.94-25-5.03-37.91-3.98-17.86,1.45-34.4,6.87-49.71,16.1-5.43,3.27-10.28,7.31-14.69,11.89-8.84,9.17-13.69,20.26-16.17,32.6-1.76,8.75-2.42,17.56-2.42,26.46,0,6.8-.01,13.59-.03,20.39,0,2.19-.02,2.21-2.19,2.46-21.28,2.45-42.56,4.9-63.84,7.36-5.08.59-10.16,1.24-15.23,1.87-2.48.31-4.87.89-6.89,2.48-1.04-1.1-.37-2.11.26-3.01.85-1.19,2.03-1.95,3.46-2.44,4.32-1.51,8.81-2.15,13.29-2.8,5.27-.77,10.54-1.52,15.82-2.24,4.18-.57,8.36-1.08,12.54-1.61,4.65-.59,9.3-1.18,13.95-1.78,4.02-.52,8.06-.95,12.06-1.6,2.33-.38,4.77-.23,7.07-1.24-1.22-7.25-1.03-14.53-.68-21.77.32-6.67,1.69-13.25,3.51-19.7,2.04-7.25,4.77-14.22,8.3-20.87,3.87-7.28,8.53-13.99,13.98-20.22,6.65-7.59,14.38-13.8,22.98-18.93,9.32-5.55,19.35-9.35,30.02-11.46,7.5-1.48,15.07-1.81,22.63-1.32,9.26.6,18.26,2.73,26.93,6.12,7.92,3.1,15.31,7.13,22.02,12.4,5.11,4.01,9.6,8.63,13.88,13.49,3.6,4.08,6.73,8.5,9.66,13.07,3.03,4.72,5.45,9.75,7.44,14.99,2.63,6.96,4.32,14.17,5.54,21.49.39,2.35.67,4.72.93,7.09.14,1.29.74,1.49,1.94,1.28,6.35-1.08,12.7-2.1,19.12-2.76,4.82-.5,9.61-1.38,14.44-1.76,3.81-.3,7.6-.77,11.4-1.14,4.66-.45,9.33-.93,13.97-1.66,6.79-1.08,13.64-1.43,20.51-1.11,1.83.09,3.64.65,4.75,2.38Z"/>
  <path class="cls-4" d="m282.58,358.38c-3.37-.06-6.61.89-9.94,1.18-2.53.22-5.04.7-7.59.77-1.51.04-3.02.18-4.52.27-3.81.25-7.64.1-11.32-1.12-3.25-1.07-5.14-3.44-5.8-6.71-.42-2.04.38-3.93,1.4-5.68,1.35-2.31,3.26-4.16,5.34-5.76,4.68-3.6,9.69-6.72,14.81-9.65,8.87-5.09,18.08-9.47,27.64-13.08,7.98-3.01,16.1-5.51,24.57-6.85,4.84-.76,9.66-.98,14.52-.88,1.87.04,3.61.49,5.19,1.5-4.24,4.01-8.78,7.67-13.36,11.28-13.24,10.46-25.89,21.61-38.49,32.82-.78.69-1.52,1.41-2.45,1.91Z"/>
  <path class="cls-7" d="m505.75,554.48c.47-2.66,1.22-5.31.89-8.03-.17-1.43.43-1.75,1.61-2.03,5.29-1.25,10.46-2.9,15.48-5.02,17.97-7.6,33.27-18.89,46.09-33.56,12.09-13.83,20.51-29.63,25.22-47.38,1.74-6.57,3.06-13.23,3.28-20.05.06-1.75-.05-3.51-.09-5.26,2.47,1.22,3.14,3.47,3.27,5.96.12,2.33-.34,4.62-.72,6.9-1.76,10.57-5.33,20.56-9.81,30.25-7.62,16.47-17.86,31.17-30.15,44.49-8.06,8.73-16.89,16.57-26.73,23.23-5.24,3.55-10.8,6.55-16.84,8.56-3.74,1.24-7.52,2.18-11.51,1.94Z"/>
  <path class="cls-2" d="m253.76,530.15c.96.22,1.31,1.11,1.88,1.74,11.25,12.38,25.35,19.45,41.7,22.24,9.67,1.65,19.27.92,28.79-1.24.7-.16,1.41-.27,2.3-.44-.03,1.9-.76,3.59-1.09,5.34-.33,1.8-.7,3.59-1.05,5.38-10.32,1.87-20.6,1.14-30.7-1.16-14.9-3.39-26.8-11.71-36.26-23.6-1.69-2.12-3.25-4.36-4.84-6.56-.36-.5-.89-.96-.72-1.69Z"/>
  <path class="cls-2" d="m252.76,528.75c.47.12.7.39.6.89-.51-.09-.65-.43-.6-.89Z"/>
  <path class="cls-2" d="m252.36,528.2c.32.05.47.23.41.56-.34-.04-.45-.25-.41-.56Z"/>
  <path class="cls-2" d="m253.34,529.62c.36.01.5.2.43.55-.38,0-.49-.21-.43-.55Z"/>
  <path class="cls-3" d="m394.79,474.21c.93-4.23,1.16-8.14,1.45-12.04.27-3.64-1.19-5.63-4.76-6.19-2.22-.35-4.47-.41-6.69-.03-10.1,1.71-20.31,2.47-30.47,3.65-5.08.59-10.16,1.15-15.25,1.72-.56.06-1.11.13-1.67.17-.62.04-.85-.3-.8-.88.01-.16.04-.32.05-.48.96-9,.71-18.05,1.08-27.07.41-9.96,2-19.7,5.41-29.1,2.92-8.04,8.1-14.46,14.55-19.9,7.87-6.64,17.01-11.02,26.63-14.42,17.05-6.03,34.47-7.24,52.19-3.56,7.34,1.53,14.2,4.31,20.5,8.44,3.92,2.57,7.36,5.62,10.13,9.41,5.38,7.36,10.74,14.71,14.05,23.34,3.92,10.19,6.84,20.61,8.09,31.48.05.4.12.79.17,1.19.13,1.16,1.1,2.49.37,3.42-.7.89-2.24.61-3.4.79-20.06,3.1-40.12,6.15-60.18,9.23-3,.46-5.97,1.1-8.91,1.87-3.06.8-4.74,2.72-5.29,5.8-.59,3.25-.55,6.52-.56,9.8,0,2.06,0,2.08-2.07,2.01-3.54-.13-7,.56-10.49.95-1.25.14-2.51.26-4.14.43Zm17.19-42.35s.04,0,.06,0c0-1.6.05-3.2-.02-4.79-.06-1.36-.27-2.72-1.01-3.9-.83-1.31-2.01-2.07-3.6-1.9-1.59.17-2.63,1.11-3.11,2.61-.22.68-.32,1.4-.39,2.11-.43,4.05-.91,8.09-1.67,12.1-.19,1.01-.29,2.06-.29,3.09-.02,4.1,2.31,7.39,6.28,8.27,5.67,1.25,11.29.79,16.65-1.56,2.09-.92,3.12-2.71,2.87-4.52-.25-1.82-1.45-2.91-3.74-3.49-2.95-.74-5.92-1.26-8.95-1.55-3.24-.31-3.09.22-3.07-3.34,0-1.04,0-2.08,0-3.11Zm-15.69,2.7c0-2.24.01-4.48,0-6.72-.01-1.46-.28-2.87-.97-4.16-2.02-3.78-4.69-3.93-7.08-.4-1.07,1.58-1.37,3.39-1.54,5.23-.36,3.83-.27,7.66-.09,11.5.11,2.28.07,2.34-2.1,3.09-1.43.49-2.92.82-4.38,1.23-1.08.3-2.19.52-3.12,1.18-1.19.84-1.91,1.96-1.71,3.46.2,1.49,1.13,2.44,2.52,2.92,1.07.37,2.18.42,3.32.29,3.04-.33,5.91-1.31,8.83-2.16,4.08-1.19,6.01-3.93,6.34-8.04.2-2.48.11-4.95-.01-7.43Z"/>
  <path class="cls-1" d="m509.49,498.85c-3.13-7.19-10.76-10.63-17.74-8.21-2.59.9-4.96,2.2-7.16,3.82-10.18,7.49-16.99,21.18-13.24,36.55.18.75.36,1.51.53,2.2-.58.44-1.04.18-1.49.08-11.19-2.56-20.83-7.92-29.08-15.89-6.29-6.08-11.31-13.01-14.71-21.09-.6-1.43-.92-2.81-.65-4.41.47-2.82.1-5.58-1.24-8.16-.37-.72-.59-1.47-.69-2.27-.16-1.29-.59-2.53-1.44-3.5-.96-1.1-1.25-2.34-1.37-3.73-.27-3.11-.49-6.21-.59-9.33-.03-1.01.28-1.37,1.32-1.47,9.23-.9,18.34-2.65,27.51-4.01,13.28-1.97,26.55-4,39.82-6.02,24.49-3.73,49.06-6.9,73.5-10.92,8.27-1.36,16.58-2.54,24.83-3.79.65.46.33,1.04.28,1.56-2.4,21.28-11.21,39.86-24.28,56.52-9.44,12.03-20.92,21.74-34.59,28.75-.28.15-.57.29-.86.43-2.33,1.15-2.3,1.14-3.48-1.28-1.3-2.66-2.79-5.21-4.52-7.61-3.28-5.8-6.55-11.59-9.83-17.39-.2-.35-.45-.66-.84-.81Z"/>
  <path class="cls-3" d="m419.69,505.34c.55,1.02.98,1.78,1.36,2.56,13.32,26.91,42,40.66,68.7,39.2,1.52-.08,3.03-.15,4.55-.28.97-.08,1.27.31,1.17,1.24-.36,3.54-1.44,6.88-2.82,10.12-1.19,2.81-2.83,5.38-4.71,7.77-6.24,7.96-13.97,13.97-23.28,17.99-8.9,3.85-18.15,6.63-27.44,9.35-15.63,4.57-31.58,6.68-47.85,5.87-11.13-.56-22.1-2.22-32.75-5.65-2.75-.89-5.36-2.07-7.91-3.41-8.2-4.32-12.28-11.35-13.36-20.34-.64-5.29.3-10.52.58-15.77.18-3.38,1.72-4.61,4.6-5.79,16.11-6.6,29.04-17.22,38.94-31.54.36-.53.73-1.05,1.06-1.6.4-.64.86-.81,1.6-.49,3.2,1.39,6.57,1.96,10.03,2.11.88.04,1.34.26,1.2,1.26-1.17,8.17.85,15.87,3.46,23.48,1.05,3.07,1.04,3.07-1.67,4.72-2.39,1.46-4.72,3.02-6.68,5.05-1.92,1.99-3.36,4.26-3.96,7-.21.95-.25,1.9,0,2.85.74,2.73,3.26,3.9,5.81,2.71,1.11-.52,1.92-1.41,2.8-2.22,7.27-6.74,15.55-9.89,25.49-7.2,2.47.67,4.95,1.29,7.43,1.9,1.42.35,2.85.35,4.26-.1,3.87-1.23,5.19-5.48,2.67-8.67-1.02-1.29-2.37-2.17-3.87-2.75-7.1-2.74-14.38-4.37-22.04-3.18-1.22.19-1.91-.02-2.36-1.27-2.6-7.33-3.85-14.83-3.06-22.61.1-1,.35-1.74,1.57-2.05,6.14-1.57,11.21-4.93,15.54-9.5.21-.23.48-.4.91-.76Z"/>
  <path class="cls-10" d="m331.69,517.63c-3.22-7.56-11.18-9.9-17.22-7.86-1.52.52-2.98,1.16-4.32,2.04-4.73,3.1-8.81,6.91-12.04,11.56-3.82,5.49-5.37,11.53-4.08,18.19.08.39.11.79.15,1.19,0,.06-.07.13-.19.36-.61.13-1.28-.1-1.95-.28-20.55-5.75-34.23-18.87-41.46-38.81-2.22-6.11-3.34-12.49-3.78-18.99-.09-1.27.28-1.65,1.52-1.79,14.62-1.62,29.24-3.26,43.85-4.95,12.62-1.47,25.24-3.01,37.86-4.52,17.14-2.05,34.28-4.11,51.43-6.16.32-.04.63-.08.95-.11,1.62-.11,1.67-.11,1.58,1.5-.12,2.15-.39,4.3-.48,6.45-.05,1.23-.64,1.81-1.72,2.25-2.83,1.15-5.42,2.73-7.83,4.61-5.02,3.91-6.67,8.96-5.18,15.11.7,2.9,1.73,5.67,3.34,8.17.75,1.17.8,2.04.02,3.23-7.62,11.79-17.54,21.09-29.91,27.76-1.5.81-1.5.78-2.44-.74-.5-.81-1.06-1.6-1.59-2.39-1.69-3.1-2.46-6.55-3.7-9.82-.78-2.07-1.25-4.29-2.8-6Z"/>
  <path class="cls-9" d="m331.69,517.63c1.55,1.71,2.02,3.93,2.8,6,1.23,3.27,2.01,6.72,3.7,9.82-.92-.08-1.69.4-2.5.7-3.51,1.32-7.05,2.49-10.8,2.93-2.01.23-3.98.1-5.86-.69-4.68-1.97-5.99-7.33-2.78-11.26.97-1.19,2.19-2.08,3.49-2.86,3.73-2.21,7.7-3.79,11.95-4.65Z"/>
  <path class="cls-9" d="m509.49,498.85c.39.15.64.46.84.81,3.28,5.8,6.55,11.59,9.83,17.39-3.54,1.44-7.12,2.77-10.95,3.26-2.18.28-4.3.14-6.33-.73-4.2-1.8-6.08-6.17-4.54-10.48.57-1.6,1.5-2.99,2.66-4.21,2.43-2.57,5.21-4.67,8.49-6.04Z"/>
  <path class="cls-6" d="m411.99,431.86c0,1.04,0,2.08,0,3.11-.03,3.55-.17,3.03,3.07,3.34,3.04.29,6,.81,8.95,1.55,2.29.58,3.5,1.67,3.74,3.49.25,1.81-.78,3.61-2.87,4.52-5.36,2.36-10.98,2.82-16.65,1.56-3.97-.88-6.3-4.17-6.28-8.27,0-1.03.1-2.08.29-3.09.76-4.01,1.24-8.05,1.67-12.1.08-.71.18-1.43.39-2.11.48-1.5,1.52-2.44,3.11-2.61,1.6-.17,2.78.6,3.6,1.9.75,1.18.96,2.54,1.01,3.9.07,1.59.02,3.19.02,4.79-.02,0-.04,0-.06,0Z"/>
  <path class="cls-6" d="m396.29,434.56c.12,2.48.21,4.95.01,7.43-.33,4.1-2.26,6.85-6.34,8.04-2.92.85-5.79,1.83-8.83,2.16-1.13.12-2.24.08-3.32-.29-1.39-.48-2.32-1.44-2.52-2.92-.2-1.5.51-2.62,1.71-3.46.94-.66,2.04-.88,3.12-1.18,1.46-.4,2.95-.73,4.38-1.23,2.17-.75,2.21-.81,2.1-3.09-.18-3.84-.27-7.67.09-11.5.17-1.84.47-3.65,1.54-5.23,2.39-3.53,5.06-3.38,7.08.4.69,1.3.96,2.71.97,4.16.02,2.24,0,4.48,0,6.72Z"/>
</svg>