<?xml version="1.0" encoding="UTF-8"?>
<svg id="_图层_1" data-name="图层 1" xmlns="http://www.w3.org/2000/svg" viewBox="0 0 960 960">
  <defs>
    <style>
      .cls-1 {
        fill: #fefefe;
      }

      .cls-1, .cls-2, .cls-3, .cls-4, .cls-5, .cls-6, .cls-7, .cls-8, .cls-9, .cls-10, .cls-11, .cls-12, .cls-13, .cls-14 {
        stroke-width: 0px;
      }

      .cls-2 {
        fill: #040404;
      }

      .cls-3 {
        fill: #fdabe6;
      }

      .cls-4 {
        fill: #fc0000;
      }

      .cls-5 {
        fill: #fca9e2;
      }

      .cls-6 {
        fill: #860202;
      }

      .cls-7 {
        fill: #a50202;
      }

      .cls-8 {
        fill: #ba3997;
      }

      .cls-9 {
        fill: #f4d6aa;
      }

      .cls-10 {
        fill: #fdfdfd;
      }

      .cls-11 {
        fill: #fe72d7;
      }

      .cls-12 {
        fill: #b9803d;
      }

      .cls-13 {
        fill: #020101;
      }

      .cls-14 {
        fill: #f2d5a9;
      }
    </style>
  </defs>
  <path class="cls-2" d="m243.46,518.08c-1.99-4.36-4.02-8.69-5.48-13.27-5.51-17.32-6-34.86-2.2-52.56,3.21-14.94,9.17-28.72,17.74-41.37.44-.66.83-1.35,1.25-2.03.29-.09.45-.28.42-.59,0,0,0-.01,0-.01.4-.16.62-.44.58-.89,0,0-.02.02-.02.02.77-.36,1.09-1.13,1.57-1.74,10.6-13.67,23.28-24.8,39.13-32.04,18.31-8.36,37-10.06,56.13-2.98,1.24.46,1.86.06,2.64-.79,7-7.62,15.46-13.11,25.12-16.7,8.48-3.15,17.23-5.4,26.1-7.14,10.11-1.97,20.19-2.05,30.14.92,8.96,2.67,17.58,6.04,23.86,13.47.87,1.03,1.59.62,2.47.14,4.92-2.69,10.02-4.96,15.35-6.72,14.67-4.86,29.53-6,44.63-2.18,8.69,2.2,16.67,5.96,24.1,10.96,18.8,13.57,29.39,32.18,33.46,54.73,3.36,18.56,1.54,36.73-4.47,54.54-.3.88-.83,1.69-.79,2.68-.36.24-.43.65-.57,1.02-2.42,6.71-5.48,13.12-9.08,19.27-9.01,15.38-25.06,33.04-46.43,41.7-5.46,2.21-10.65,5.12-16.33,6.84-1.01.31-1.18.86-.87,1.8.71,2.11.45,4.26.2,6.41-.13,1.11-.23,2.22-.35,3.32-.14.46-.31.9-.41,1.37-1.75,8.22-5.48,15.43-10.85,21.88-9.69,11.63-21.72,19.6-36.23,23.94-22.93,6.86-46.27,9.35-70.11,6.91-8.75-.9-17.44-2.19-25.84-4.91-6.42-2.07-12.39-5.12-18.02-8.82-4.76-3.13-8.51-7.24-11.25-12.23-2.93-5.34-5.26-10.92-6.42-16.95-.4-2.05-.29-4.14-.55-6.2.16-2.82.46-5.64,1.15-8.63-1.08.27-1.77.42-2.46.61-9.13,2.49-18.37,3.2-27.76,1.89-16.49-2.3-29.95-10.05-40.71-22.64-3.44-4.02-6.21-8.49-8.89-13.03Zm147.26,6.36c.15-1.66.23-3.33.49-4.98.16-1.01-.14-1.49-1.09-1.71-3.17-.73-5.83-2.48-8.49-4.25-1.37-.91-2.6-2.92-4.04-2.56-1.52.38-2.11,2.62-3.21,3.98-.14.17-.14.44-.21.66-.9.45-1.35,1.34-1.95,2.07-10.2,12.3-22.4,22.05-36.88,28.89q-4.47,2.11-5.15,6.99c-.05.4-.06.8-.12,1.19-1.61,11.21,7.68,27.43,14.93,31.99.27.17.52.37.79.54,5.52,3.59,11.37,6.5,17.75,8.24,8.68,2.36,17.56,3.4,26.51,3.87,20.62,1.1,40.83-1.01,60.58-7.32,12.76-4.08,23.56-10.91,32.02-21.36,3.98-4.92,7-10.3,8.36-16.53.57-2.63.99-5.29.77-7.97-.29-.07-.44-.15-.58-.14-.48.05-.95.13-1.42.2-8.22,1.13-16.43,1.07-24.58-.5-18.37-3.55-33.11-13.01-44.62-27.66-.54-.69-.94-1.49-1.68-2.01-1.56-2.47-3.12-4.95-4.6-7.29-.59-.08-.81.17-1.05.37-3.51,3.05-7.19,5.84-11.58,7.54-.86.33-1.27.92-1.34,1.79-.16,1.98-.49,3.96-.19,5.95-.4.83-.28,1.73-.24,2.59.24,5.02.55,10.04,1.45,15,.29,1.58.44,3.18.16,4.76-.31,1.77-1.52,2.96-3.11,3.22-1.58.26-3.08-.5-3.96-2.08-.3-.55-.52-1.17-.69-1.78-.47-1.69-.93-3.38-1.34-5.09-1.31-5.47-1.53-11.04-1.67-16.63Zm178.93-87.57c.03-16.67-2.68-28.91-8.33-40.46-14.23-29.1-41.68-39.72-68.39-35.77-14.15,2.09-26.91,7.59-38.15,16.31-26.35,20.44-40.79,47.35-42.94,80.72-.44,6.8.03,13.58,1.15,20.31.28,1.7.3,1.68,2.09,1.8,1.43.1,2.87.19,4.3.35,3.03.33,4.94,2.13,5.9,4.9,1.33,3.85.76,7.58-1.15,11.09-.87,1.61-1.94,3.13-3.05,4.59-.63.84-.67,1.52-.17,2.38,1.24,2.13,2.37,4.36,3.7,6.42,11.66,18.04,28.26,28.02,49.67,29.73,14.39,1.15,27.9-2.3,40.8-8.51.36-.17.78-.3,1.05-.57,2.4-2.39,5.44-3.91,8.09-5.97,9.03-7.02,16.79-15.26,23.48-24.5,14.14-19.53,21.83-41.24,21.96-62.83Zm-327.81,38.7c.01,2.93.21,5.8.47,8.67,1,11.12,3.95,21.67,9.59,31.37,8.44,14.52,20.67,24.24,37.06,28.23,13.98,3.4,27.64,1.69,40.82-3.81,17.2-7.18,29.83-19.7,40.23-34.78.55-.8.53-1.37-.13-2.09-1.51-1.67-2.79-3.5-3.58-5.63-1.6-4.29-.51-8.29,3.04-11.18,1.31-1.07,2.78-1.88,4.31-2.57,1.97-.88,4.01-1.6,6.11-2.08,1.04-.24,1.64-.7,1.96-1.78,3.26-10.91,5.79-21.94,6.03-33.39.29-13.5-2.24-26.36-8.63-38.38-12.75-23.95-37.73-35.69-64.31-30.27-12.81,2.61-24.24,8.14-34.22,16.43-25.4,21.1-37.44,48.66-38.76,81.27Zm120.55-100.73c.19.57.56.75.89.96,13.52,8.46,22.83,20.42,28.49,35.15,8.24,21.45,8.9,43.33,2.82,65.45-.24.89-.81,1.74-.57,2.75h10.01c-3.17-21.75.26-42.47,8.82-62.42,8.56-19.94,21.46-36.53,39.06-49.42-1.61-2.01-3.45-3.43-5.5-4.51-11.05-5.82-22.69-8.49-35.19-6.56-8.31,1.28-16.44,3.36-24.5,5.7-7.6,2.2-14.54,5.77-20.97,10.34-1.16.82-2.26,1.73-3.35,2.56Z"/>
  <path class="cls-11" d="m632.79,337.48c-2.52.34-4.45-.89-6.24-2.42-8.98-7.69-18.26-14.97-28.28-21.27-11.29-7.1-23.03-13.39-35.09-19.12-15.03-7.13-30.51-13.05-46.36-18.03-9.67-3.03-19.53-5.25-29.49-7.14-10.54-2-21.12-3.14-31.85-2.81-1.2.04-2.38-.05-3.42-.77,2.5.07,4.43-1.11,6.13-2.8,1.99-1.98,3.8-4.11,5.52-6.32,6.52-8.41,12.69-17.07,18.48-25.99,16.12-24.82,30.82-50.48,44.53-76.7,1.96-3.75,3.82-7.55,6.02-11.18.09-.16.19-.32.28-.47,0,0-.01.02-.01.02,1.65.03,2.75-1.14,4.01-1.9,5.73-3.46,11.63-6.58,17.7-9.37,6.85-3.15,13.82-6.06,20.94-8.56,2.53-.89,5-2.07,7.74-2.26,1.19.85,1.97,2.07,2.84,3.19,11.61,14.95,20.48,31.41,26.77,49.25,2.18,6.17,4.17,12.41,6.22,18.63,3.74,11.34,6.11,22.99,7.86,34.77,1.27,8.54,1.7,17.16,2.19,25.78.66,11.49,1.18,22.97.64,34.49-.53,11.33-.99,22.66-1.07,34.01-.02,3.44-.04,6.87.54,10.28.44,2.57,1.36,4.91,3.39,6.68Zm-28.26-97.61c-.93-4.5-.26-9.79-.83-15.04-.34-3.15-.4-6.37-.74-9.53-.67-6.16-1.52-12.31-2.74-18.41-1.89-9.43-4.52-18.61-9.18-27.08-2.27-4.13-4.82-8.1-8.75-10.93-4.38-3.15-9.22-3.93-14.33-2.39-5.03,1.51-8.56,5.06-11.58,9.21-4.41,6.05-7.34,12.88-10.4,19.64-1.78,3.93-3.34,7.96-4.61,12.07-4.29,13.87-8.51,27.76-13.28,41.48-2.04,5.86-4.29,11.69-7.79,16.91-.5.74-.68,1.58-.78,2.48-.32,3,1.34,4.78,3.65,6.2,3.96,2.43,8.3,4.1,12.46,6.1,3.23,1.56,6.59,2.82,10.02,3.91,5.93,1.89,12.07,3.02,17.93,5.13,6.53,2.36,13.09,4.52,20,5.56,6.15.93,10.79-.89,14.16-6.12,1.66-2.58,2.58-5.48,3.41-8.4,2.78-9.84,2.81-19.99,3.39-30.8Z"/>
  <path class="cls-11" d="m363.07,270.72c.28,2.4-.6,4.34-2.32,5.97-2.04,1.92-4.44,3.35-6.67,5.02-3.5,2.63-7.05,5.18-10.59,7.75-.25.18-.57.27-.85.4-.36-2.12-.62-4.26-1.09-6.35-1.27-5.73-3.08-11.27-6.79-15.93-3.42-4.3-8.78-6.79-14.91-5.23-3.38.85-6.05,2.83-8.47,5.18-4.75,4.6-8.33,10.08-11.41,15.87-3.54,6.65-6.2,13.64-7.85,21.01-1.43,6.37-3.65,12.55-4.3,19.1-.07.69-.51,1.14-.94,1.62-2.17,2.45-4.34,4.89-6.49,7.35-4.09,4.68-8.24,9.32-11.93,14.33-3.6,4.89-7.07,9.87-9.59,15.42-1.05,2.32-2.13,4.65-2.17,7.28-.35.75-1.03,1.21-1.58,1.76-4.35,4.32-8.75,8.6-13.08,12.94-4.67,4.68-9.19,9.49-12.79,15.08-.7,1.08-1.58,2.01-2.95,2.23.39-2.89-.27-5.73-.38-8.59-.58-15.09-.54-30.18.63-45.24,1.07-13.77,2.23-27.54,4.73-41.14,1.63-8.87,3.63-17.66,5.97-26.37.53-.13.74-.57.98-.98,1.3-2.28,2.58-4.59,3.92-6.85,4.61-7.74,9.59-15.25,14.92-22.51,5.37-7.32,10.94-14.47,16.89-21.34,3.97-4.58,8.08-9.02,12.2-13.45,4.4-4.73,9.25-9.01,14.1-13.29,4-3.53,8.16-6.87,12.23-10.32,2.24-1.9,4.76-3.47,6.8-5.61,2.12,2.81,3.79,5.9,5.45,8.99,7.64,14.21,14.21,28.91,20.19,43.89,3.1,7.78,6.13,15.59,9.55,23.23,1.02,2.27,2.27,4.39,3.91,6.27,1.25,1.44,2.7,2.47,4.69,2.52Z"/>
  <path class="cls-2" d="m532.74,142.94c-2.2,3.62-4.06,7.43-6.02,11.18-13.71,26.22-28.41,51.88-44.53,76.7-5.79,8.92-11.96,17.58-18.48,25.99-1.71,2.21-3.53,4.34-5.52,6.32-1.7,1.7-3.63,2.87-6.13,2.8-4.38-1.75-5.18-4.68-2.45-8.68,22.75-33.28,43.78-67.6,62.75-103.17,5.04-9.45,9.74-19.07,14.89-28.46,2.93-5.34,6.19-10.45,10.08-15.14,1.59-1.91,3.26-3.73,5.09-5.41,8.76-7.98,19.07-10.23,30.51-8.2,3.84.68,7.24,2.45,10.41,4.68,3.63,2.55,6.69,5.69,9.59,9,6.4,7.3,11.85,15.28,16.79,23.61,7.73,13.04,13.7,26.87,18.47,41.27,4.8,14.51,9.17,29.1,11.55,44.24,1.18,7.51,2.02,15.05,2.45,22.64.86,15.32,1.85,30.64,1.11,46.01-.55,11.34-.88,22.68-1.04,34.03-.04,2.79-.3,5.59-.79,8.35-.35,1.93-1.14,3.64-2.48,5.1-1.73,1.89-3.7,2.74-6.21,1.67-2.03-1.77-2.95-4.11-3.39-6.69-.58-3.4-.57-6.84-.54-10.28.08-11.35.54-22.68,1.07-34.01.54-11.51.01-23-.64-34.49-.49-8.61-.93-17.23-2.19-25.78-1.75-11.79-4.13-23.44-7.86-34.77-2.05-6.22-4.04-12.46-6.22-18.63-6.29-17.84-15.16-34.3-26.77-49.25-.87-1.12-1.65-2.35-2.84-3.19-2.68-3.74-5.92-6.89-9.95-9.15-2.26-1.27-4.73-1.88-7.34-1.9-7.07-.05-12.81,2.66-17.43,8.04-6.51,7.58-11.32,16.2-15.67,25.1,0,0,.01-.02.01-.02-.22.08-.34.23-.28.47Z"/>
  <path class="cls-2" d="m237.23,280.17c-2.34,8.71-4.34,17.5-5.97,26.37-2.5,13.61-3.66,27.37-4.73,41.14-1.17,15.07-1.21,30.15-.63,45.24.11,2.87.76,5.71.38,8.59-.18.26-.35.53-.54.78-1.88,2.43-4.75,2.51-6.71.15-1.15-1.39-1.67-3.08-2.13-4.78-1.21-4.5-1.59-9.13-1.94-13.75-1.27-16.81-.28-33.56,1.22-50.3,1-11.15,2.18-22.29,4.52-33.25,6.99-32.8,15.86-65.05,28.53-96.17,4.39-10.78,9.95-20.92,16.58-30.47,1.82-2.63,3.78-5.16,5.98-7.49,5.36-5.7,11.92-9.36,19.47-11.18,6.83-1.65,13.33-.53,19.41,2.99,3.57,2.06,6.59,4.77,9.35,7.81,8.12,8.93,14.92,18.74,20.26,29.58,7.03,14.28,13.22,28.92,18.57,43.92,1.83,5.12,3.74,10.2,5.56,15.33,1.34,3.79,2.22,7.66,1.8,11.75-.22,2.12-.97,3.68-3.14,4.3-1.99-.05-3.44-1.08-4.69-2.52-1.64-1.88-2.89-4-3.91-6.27-3.43-7.65-6.45-15.46-9.55-23.23-5.98-14.98-12.55-29.68-20.19-43.89-1.66-3.09-3.33-6.18-5.45-8.99-3.62-5.77-7.78-11.11-12.72-15.81-.69-.66-1.47-1.23-2.27-1.76-4.03-2.7-8.3-3.42-12.99-1.82-5.55,1.89-10.01,5.21-13.57,9.82-6.07,7.88-11.26,16.3-15.25,25.41-7.08,16.18-12.81,32.86-17.8,49.79-2.8,9.49-5.31,19.06-7.45,28.73Z"/>
  <path class="cls-8" d="m256.69,369.5c.04-2.63,1.12-4.97,2.17-7.28,2.52-5.55,5.99-10.53,9.59-15.42,3.69-5.02,7.83-9.65,11.93-14.33,2.15-2.46,4.32-4.91,6.49-7.35.43-.48.87-.93.94-1.62.64-6.54,2.87-12.73,4.3-19.1,1.65-7.37,4.32-14.36,7.85-21.01,3.08-5.79,6.66-11.27,11.41-15.87,2.42-2.34,5.09-4.32,8.47-5.18,6.14-1.55,11.49.94,14.91,5.23,3.71,4.66,5.52,10.2,6.79,15.93.47,2.1.73,4.23,1.09,6.35-3.19,2.52-6.38,5.04-9.58,7.54-6.92,5.41-13.5,11.23-19.89,17.24-18.25,17.18-35.97,34.9-53.78,52.53-.84.83-1.52,1.87-2.69,2.33Z"/>
  <path class="cls-5" d="m547,362.57c-7.42-4.99-15.4-8.76-24.1-10.96-15.1-3.82-29.96-2.68-44.63,2.18-5.32,1.76-10.43,4.04-15.35,6.72-.89.48-1.6.9-2.47-.14-6.28-7.44-14.9-10.8-23.86-13.47-9.95-2.97-20.03-2.9-30.14-.92-8.87,1.73-17.62,3.98-26.1,7.14-9.67,3.59-18.12,9.08-25.12,16.7-.78.85-1.41,1.24-2.64.79-19.13-7.08-37.83-5.39-56.13,2.98-15.85,7.24-28.53,18.37-39.13,32.04-.48.62-.8,1.39-1.57,1.74-.25-1.24.54-2.14,1.06-3.09,4.31-7.77,10.06-14.42,16.74-20.18,6.66-5.74,14-10.51,22.11-14.1,7.86-3.48,16-5.88,24.46-7.18,6.47-.99,13.03-1.43,19.56-.94,2.6.2,5.25.08,7.84.73,1.13.28,2.29.29,3.34-.7,4.12-3.9,8.63-7.32,13.51-10.23,6.18-3.68,12.47-7.14,19.36-9.33,4.87-1.54,9.83-2.58,14.91-3.24,5.16-.67,10.31-.86,15.5-.9,9.38-.06,18.57,1.2,27.64,3.58,6.84,1.8,13.3,4.42,19.3,8.18.93.59,1.76.78,2.89.27,5.48-2.47,11.26-3.91,17.19-4.88,6.72-1.1,13.46-1.37,20.24-1.42,8.92-.07,17.4,1.78,25.58,5.22,4.04,1.7,8.16,3.27,11.86,5.68,2.61,1.7,5.05,3.62,7.24,5.85.52.53.97,1.07.91,1.87Z"/>
  <path class="cls-8" d="m501.79,554.87c.12-1.11.22-2.22.35-3.32.24-2.15.5-4.3-.2-6.41-.31-.93-.14-1.49.87-1.8,5.68-1.72,10.87-4.62,16.33-6.84,21.37-8.66,37.43-26.32,46.43-41.7,3.6-6.15,6.66-12.56,9.08-19.27.13-.37.2-.78.57-1.02.02,1.95-.67,3.76-1.23,5.57-4.6,14.94-12.15,28.28-22.04,40.33-7.08,8.63-15.05,16.32-24.18,22.77-4.77,3.37-9.79,6.33-15.18,8.63-3.47,1.48-7.03,2.63-10.79,3.06Z"/>
  <path class="cls-8" d="m243.46,518.08c2.68,4.53,5.45,9.01,8.89,13.03,10.76,12.6,24.22,20.34,40.71,22.64,9.39,1.31,18.63.61,27.76-1.89.68-.19,1.38-.34,2.46-.61-.69,2.99-1,5.8-1.15,8.63-3.08.39-6.16.88-9.25,1.15-11.72,1.03-23.31.46-34.49-3.56-12.57-4.52-22.69-12.22-29.71-23.73-2.47-4.05-4.35-8.35-5.15-13.06-.15-.86-.34-1.73-.06-2.6Z"/>
  <path class="cls-5" d="m255.77,407.34c.04.45-.18.73-.58.89-.05-.46.07-.8.58-.89Z"/>
  <path class="cls-5" d="m255.18,408.25c.02.31-.13.5-.42.59-.02-.31.11-.52.42-.59Z"/>
  <path class="cls-1" d="m569.65,436.87c-.13,21.59-7.82,43.3-21.96,62.83-6.69,9.24-14.45,17.48-23.48,24.5-2.65,2.06-5.68,3.58-8.09,5.97-.27.27-.69.39-1.05.57-12.9,6.21-26.41,9.65-40.8,8.51-21.41-1.71-38.01-11.69-49.67-29.73-1.33-2.06-2.45-4.29-3.7-6.42-.5-.86-.46-1.55.17-2.38,1.11-1.46,2.17-2.98,3.05-4.59,1.91-3.51,2.48-7.25,1.15-11.09-.96-2.77-2.87-4.57-5.9-4.9-1.43-.16-2.87-.25-4.3-.35-1.79-.12-1.81-.11-2.09-1.8-1.12-6.73-1.59-13.51-1.15-20.31,2.15-33.36,16.59-60.27,42.94-80.72,11.24-8.72,23.99-14.22,38.15-16.31,26.71-3.95,54.16,6.67,68.39,35.77,5.65,11.55,8.36,23.8,8.33,40.46Zm-54.58,17.54c2-10.56,3.97-21.12,5.5-31.76.6-4.18.87-8.39.4-12.62.14-1.66-.04-3.28-.5-4.88-.51-5.52-2.31-10.56-5.56-15.07-5.43-7.54-17.93-11.97-26.05-7.96-.35.17-.76.22-1.15.32-5.34,1.35-9.8,4.16-13.52,8.19-2.84,3.07-5.06,6.57-6.9,10.31-3.23,6.55-5.54,13.42-7.17,20.52-3.24,14.04-4.99,28.29-5.65,42.67-.24,5.34-.15,10.69.68,15.99.29,4.32.92,8.57,2.5,12.63.77,3.78,2.32,7.28,4.12,10.65,5.49,10.28,15.07,15.24,26.62,13.77,8.99-1.15,15.38-5.78,18.66-14.37.6-1.56,1.12-3.16,1.53-4.78,2.63-10.24,3.28-20.77,4.52-31.21.66-4.13,1.31-8.27,1.97-12.4Z"/>
  <path class="cls-10" d="m241.84,475.57c1.31-32.61,13.35-60.17,38.76-81.27,9.98-8.29,21.42-13.82,34.22-16.43,26.58-5.42,51.56,6.32,64.31,30.27,6.4,12.02,8.92,24.88,8.63,38.38-.24,11.45-2.77,22.48-6.03,33.39-.32,1.08-.92,1.54-1.96,1.78-2.1.48-4.14,1.2-6.11,2.08-1.53.69-3,1.5-4.31,2.57-3.55,2.89-4.64,6.89-3.04,11.18.79,2.13,2.07,3.96,3.58,5.63.66.72.68,1.29.13,2.09-10.4,15.08-23.04,27.59-40.23,34.78-13.19,5.51-26.85,7.21-40.82,3.81-16.4-3.99-28.62-13.71-37.06-28.23-5.64-9.7-8.59-20.25-9.59-31.37-.26-2.86-.46-5.74-.47-8.67Zm101.21,1.85c.31-1.28.49-2.58.36-3.9.17-1.18.37-2.36.5-3.55,1.51-13.73,2.58-27.49,3.29-41.28.14-2.7.39-5.41.09-8.12.2-2.53-.03-5.02-.58-7.48-.99-6.73-3.69-12.47-9.31-16.64-8.13-6.04-17.13-7.49-26.8-5.14-7.29,1.77-12.9,6.14-17.29,12.12-3.71,5.06-6.37,10.68-8.32,16.64-2.65,8.13-4.78,16.39-6.03,24.87-1.95,13.27-2.7,26.53-.23,39.82,1.12,6.05,2.52,12.02,4.96,17.71,3.53,9.26,8.91,17.24,16.36,23.81,1.38,1.22,2.96,2.17,4.61,2.98,3.25,1.6,6.67,2.16,10.24,1.57,8.04-1.31,14.14-5.62,18.54-12.36,4.91-7.52,7.17-15.93,8.05-24.78.94-5.38,1.37-10.8,1.56-16.25Z"/>
  <path class="cls-9" d="m418.89,516.08c.74.51,1.15,1.32,1.68,2.01,11.51,14.65,26.25,24.1,44.62,27.66,8.15,1.58,16.36,1.63,24.58.5.47-.06.95-.15,1.42-.2.14-.01.29.07.58.14.22,2.68-.2,5.34-.77,7.97-1.36,6.23-4.38,11.61-8.36,16.53-8.46,10.45-19.26,17.28-32.02,21.36-19.75,6.31-39.96,8.42-60.58,7.32-8.95-.48-17.83-1.51-26.51-3.87-6.38-1.74-12.23-4.65-17.75-8.24-.27-.17-.52-.37-.79-.54-7.25-4.56-16.54-20.78-14.93-31.99.06-.4.06-.8.12-1.19q.67-4.89,5.15-6.99c14.47-6.84,26.67-16.59,36.88-28.89.61-.73,1.05-1.62,1.95-2.07-.03.71.45,1.15.85,1.64,2.7,3.35,6.26,5.22,10.39,6.2,1.77.42,3.64.25,5.33,1.01.14,5.59.36,11.16,1.67,16.63.41,1.7.87,3.4,1.34,5.09.17.61.38,1.23.69,1.78.88,1.59,2.37,2.35,3.96,2.08,1.59-.27,2.8-1.46,3.11-3.22.28-1.59.13-3.18-.16-4.76-.9-4.96-1.21-9.97-1.45-15-.04-.87-.16-1.76.24-2.59,1.94.16,3.77-.35,5.6-.89,4.98-1.45,9.13-4.35,13.16-7.47Zm-18.23,51.42c.12,0,.6.05,1.07,0,2.63-.3,4.49-2.25,4.36-4.52-.13-2.22-1.99-3.71-4.77-3.65-2.23.04-4.45.4-6.58,1.07-2.06.65-3.05,2.16-2.8,3.91.23,1.64,1.5,2.69,3.6,2.88,1.59.15,3.18.2,5.13.32Z"/>
  <path class="cls-14" d="m362.39,374.84c1.08-.83,2.19-1.73,3.35-2.56,6.44-4.57,13.38-8.14,20.97-10.34,8.06-2.33,16.19-4.41,24.5-5.7,12.5-1.93,24.15.74,35.19,6.56,2.05,1.08,3.89,2.5,5.5,4.51-17.6,12.88-30.5,29.47-39.06,49.42-8.56,19.94-11.98,40.67-8.82,62.42h-10.01c-.24-1.02.33-1.86.57-2.75,6.09-22.12,5.42-44.01-2.82-65.45-5.66-14.73-14.98-26.69-28.49-35.15-.34-.21-.7-.39-.89-.96Z"/>
  <path class="cls-12" d="m418.89,516.08c-4.03,3.12-8.18,6.02-13.16,7.47-1.83.53-3.66,1.05-5.6.89-.3-2,.04-3.97.19-5.95.07-.86.48-1.45,1.34-1.79,4.39-1.7,8.07-4.49,11.58-7.54.23-.2.46-.45,1.05-.37,1.48,2.35,3.04,4.82,4.6,7.29Z"/>
  <path class="cls-12" d="m390.72,524.43c-1.69-.76-3.56-.59-5.33-1.01-4.13-.99-7.69-2.85-10.39-6.2-.4-.49-.87-.94-.85-1.64.07-.22.08-.49.21-.66,1.1-1.35,1.69-3.6,3.21-3.98,1.44-.36,2.67,1.66,4.04,2.56,2.66,1.77,5.32,3.51,8.49,4.25.96.22,1.25.7,1.09,1.71-.26,1.64-.33,3.32-.49,4.98Z"/>
  <path class="cls-8" d="m604.53,239.87c-.58,10.81-.6,20.96-3.39,30.8-.83,2.92-1.74,5.82-3.41,8.4-3.37,5.23-8.01,7.05-14.16,6.12-6.91-1.05-13.47-3.2-20-5.56-5.86-2.12-12-3.25-17.93-5.13-3.43-1.09-6.78-2.35-10.02-3.91-4.17-2-8.51-3.67-12.46-6.1-2.3-1.42-3.97-3.2-3.65-6.2.1-.9.28-1.74.78-2.48,3.5-5.22,5.75-11.05,7.79-16.91,4.77-13.71,8.99-27.61,13.28-41.48,1.27-4.11,2.83-8.14,4.61-12.07,3.06-6.76,6-13.59,10.4-19.64,3.02-4.15,6.55-7.7,11.58-9.21,5.11-1.54,9.95-.76,14.33,2.39,3.93,2.83,6.48,6.8,8.75,10.93,4.66,8.47,7.29,17.65,9.18,27.08,1.22,6.09,2.07,12.24,2.74,18.41.34,3.16.41,6.38.74,9.53.56,5.25-.11,10.54.83,15.04Z"/>
  <path class="cls-5" d="m533,142.49c4.36-8.91,9.16-17.52,15.67-25.1,4.62-5.38,10.35-8.09,17.43-8.04,2.61.02,5.08.63,7.34,1.9,4.03,2.26,7.27,5.4,9.95,9.15-2.74.19-5.21,1.37-7.74,2.26-7.12,2.5-14.08,5.41-20.94,8.56-6.07,2.79-11.97,5.92-17.7,9.37-1.26.76-2.36,1.94-4.01,1.9Z"/>
  <path class="cls-5" d="m532.74,142.94c-.06-.25.06-.39.28-.47-.09.16-.19.32-.28.47Z"/>
  <path class="cls-3" d="m237.23,280.17c2.14-9.67,4.65-19.24,7.45-28.73,5-16.93,10.73-33.61,17.8-49.79,3.98-9.11,9.18-17.53,15.25-25.41,3.55-4.61,8.01-7.93,13.57-9.82,4.69-1.6,8.96-.87,12.99,1.82.79.53,1.58,1.1,2.27,1.76,4.95,4.7,9.1,10.04,12.72,15.81-2.04,2.14-4.56,3.71-6.8,5.61-4.07,3.45-8.23,6.78-12.23,10.32-4.84,4.28-9.7,8.56-14.1,13.29-4.12,4.43-8.23,8.87-12.2,13.45-5.95,6.87-11.52,14.02-16.89,21.34-5.33,7.26-10.31,14.77-14.92,22.51-1.35,2.26-2.62,4.56-3.92,6.85-.24.42-.45.86-.98.98Z"/>
  <path class="cls-13" d="m455.14,480.12c-.83-5.31-.93-10.65-.68-15.99.66-14.38,2.41-28.63,5.65-42.67,1.64-7.09,3.94-13.97,7.17-20.52,1.85-3.74,4.06-7.24,6.9-10.31,3.72-4.03,8.18-6.84,13.52-8.19.39-.1.8-.15,1.15-.32,8.11-4.01,20.62.42,26.05,7.96,3.25,4.51,5.05,9.55,5.56,15.07-3.27,2.14-6.58,4.22-9.8,6.44-3.42,2.36-6.67,4.95-9.57,7.94-2.9,2.98-4.51,6.37-3.26,10.64.36,1.22.06,2.38-.75,3.37-.7.87-1.4,1.75-2.16,2.56-4.42,4.75-9.27,9.01-14.59,12.73-1.11.78-2.23,1.55-3.12,2.6-1.6,1.86-2.04,3.95-1.05,6.23.48,1.09,1.09,2.13,1.7,3.16.78,1.3,1.65,2.55,2.41,3.86.73,1.25.03,2.39-1.42,2.33-.47-.02-.94-.2-1.39-.36-1.66-.58-3.3-1.19-4.96-1.78-4.56-1.63-8.13.15-9.44,4.84-.56,1.99-.81,4.07-1.2,6.1-1.64.66-3.18,1.49-4.31,2.89-.64.79-1.52,1.11-2.43,1.41Z"/>
  <path class="cls-7" d="m513.1,466.8c-1.24,10.44-1.88,20.97-4.52,31.21-.42,1.62-.94,3.22-1.53,4.78-3.28,8.59-9.67,13.22-18.66,14.37-11.54,1.48-21.13-3.48-26.62-13.77-1.8-3.37-3.35-6.87-4.13-10.65,2.18-.97,3.57-2.67,4.42-4.85.96,1.06,1.98,2.07,2.88,3.18,2.6,3.25,5.98,3.58,9.74,2.76,5.24-1.15,10.17-3.23,15.2-5.01,1.05-.37,2.13-.75,3.07-1.33,4.16-2.57,5.79-6.53,3.56-10.53-1.09-1.96-2.77-3.52-4.89-4.43-1.17-.5-1.39-1.16-.7-2.19.26-.39.48-.82.72-1.23.69.81,1.61.62,2.45.47,1.48-.26,2.95-.61,4.42-.96,4.8-1.14,9.63-1.99,14.6-1.83Z"/>
  <path class="cls-4" d="m491.64,469.12c-.24.41-.46.83-.72,1.23-.69,1.03-.47,1.69.7,2.19,2.12.91,3.8,2.47,4.89,4.43,2.23,4,.6,7.96-3.56,10.53-.94.58-2.02.96-3.07,1.33-5.03,1.79-9.96,3.86-15.2,5.01-3.75.82-7.13.49-9.74-2.76-.89-1.11-1.91-2.13-2.88-3.18-.5-1.28-.62-2.62-.61-3.99,0-2.7,0-5.41.43-8.09.39-2.04.64-4.11,1.2-6.1,1.31-4.69,4.88-6.47,9.44-4.84,1.65.59,3.3,1.2,4.96,1.78.45.16.92.34,1.39.36,1.44.06,2.14-1.09,1.42-2.33-.76-1.31-1.64-2.55-2.41-3.86-.61-1.03-1.22-2.07-1.7-3.16-.99-2.28-.55-4.37,1.05-6.23.89-1.04,2.01-1.82,3.12-2.6,5.32-3.72,10.17-7.98,14.59-12.73.76-.82,1.45-1.7,2.16-2.56.81-.99,1.11-2.15.75-3.37-1.25-4.27.36-7.65,3.26-10.64,2.9-2.99,6.15-5.58,9.57-7.94,3.22-2.22,6.53-4.3,9.8-6.44.46,1.59.64,3.22.5,4.88-5.94,4.09-11.29,8.85-16.16,14.15-.22.23-.4.5-.59.75-.72.95-1.05,1.96-.48,3.12.14.28.21.6.32.9,1.42,3.98.63,7.47-2.15,10.66-4.96,5.69-10.52,10.68-16.71,14.98-1.55,1.08-1.55,1.18-.34,2.52.7.77,1.43,1.5,2.19,2.21,1.65,1.54,3.03,3.27,4.11,5.25.35,1.5.75,2.99.47,4.55Z"/>
  <path class="cls-13" d="m491.17,464.56c-1.08-1.98-2.46-3.72-4.11-5.25-.76-.71-1.5-1.44-2.19-2.21-1.21-1.33-1.22-1.44.34-2.52,6.19-4.3,11.75-9.29,16.71-14.98,2.78-3.19,3.56-6.67,2.15-10.66-.11-.3-.18-.62-.32-.9-.57-1.16-.24-2.17.48-3.12.19-.25.38-.52.59-.75,4.87-5.3,10.22-10.07,16.16-14.15.47,4.22.2,8.43-.4,12.61-1.53,10.64-3.5,21.2-5.5,31.76-3.2.97-6.2,2.43-9.26,3.76-4.88,2.13-9.76,4.26-14.65,6.4Z"/>
  <path class="cls-6" d="m491.17,464.56c4.88-2.13,9.76-4.27,14.65-6.4,3.05-1.33,6.06-2.79,9.26-3.76-.66,4.13-1.31,8.27-1.97,12.4-4.96-.16-9.8.69-14.6,1.83-1.47.35-2.93.7-4.42.96-.84.15-1.76.33-2.45-.47.28-1.56-.12-3.06-.47-4.56Z"/>
  <path class="cls-6" d="m461.88,475.82c-.43,2.68-.42,5.38-.43,8.09,0,1.37.12,2.7.61,3.99-.86,2.18-2.24,3.88-4.42,4.85-1.58-4.06-2.21-8.31-2.5-12.62.91-.3,1.79-.61,2.43-1.41,1.13-1.4,2.67-2.23,4.31-2.89Z"/>
  <path class="cls-13" d="m283.69,502.46c-2.44-5.68-3.84-11.65-4.96-17.71-2.47-13.29-1.72-26.56.23-39.82,1.25-8.48,3.38-16.74,6.03-24.87,1.94-5.96,4.6-11.58,8.32-16.64,4.38-5.98,9.99-10.35,17.29-12.12,9.67-2.35,18.67-.89,26.8,5.14,5.62,4.17,8.32,9.91,9.31,16.64-5.64,6.93-11.29,13.85-16.92,20.79-.65.8-1.23,1.67-1.79,2.54-1.84,2.83-2.09,5.69.19,8.39.84,1,.43,1.45-.35,2.09-1.85,1.51-3.71,3.03-5.46,4.66-4.61,4.3-9.22,8.61-13.53,13.21-2.8,2.98-2.91,5.04-1.06,8.43,2.99,5.46,3.27,3.66-1.91,7.5-.79.58-1.6.63-2.49.4-1.86-.47-3.71-.92-5.58-1.37-3.47-.83-5.61.01-7.6,2.95-.98,1.45-1.35,3.04-1.33,4.76.05,4,.49,7.96,1.23,11.89-2.27.79-4.05,2.56-6.42,3.13Z"/>
  <path class="cls-7" d="m283.69,502.46c2.37-.57,4.15-2.34,6.42-3.13.35.45.51.97.64,1.52.36,1.58,1.09,3.01,2.12,4.24,2.51,3,5.84,3.06,9.19,2.06,4.12-1.23,8.15-2.74,12.2-4.19,1.42-.51,2.81-1.13,4.16-1.81,3.57-1.8,5.67-5.92,3.63-10.08-.31-.64-.73-1.25-.67-2.02.15-.29.34-.52.67-.62,2.04-.63,4.04-1.48,6.12-1.81,1.36-.21,2.72-.87,4.18-.44,2.89.85,5.42,2.13,6.65,5.15.45,1.11,1.18,2.07,2.48,2.34-.87,8.85-3.13,17.26-8.05,24.78-4.4,6.74-10.5,11.05-18.54,12.36-3.57.58-6.99.02-10.24-1.57-1.65-.81-3.23-1.77-4.61-2.98-7.44-6.56-12.83-14.55-16.36-23.81Z"/>
  <path class="cls-4" d="m321.38,489.06c-.06.77.36,1.38.67,2.02,2.03,4.16-.06,8.28-3.63,10.08-1.35.68-2.74,1.3-4.16,1.81-4.05,1.45-8.08,2.96-12.2,4.19-3.35,1-6.68.94-9.19-2.06-1.03-1.23-1.75-2.66-2.12-4.24-.13-.56-.29-1.07-.64-1.52-.74-3.93-1.18-7.89-1.23-11.89-.02-1.72.35-3.31,1.33-4.76,1.99-2.94,4.13-3.79,7.6-2.95,1.86.45,3.72.9,5.58,1.37.89.22,1.7.18,2.49-.4,5.18-3.84,4.89-2.04,1.91-7.5-1.85-3.39-1.74-5.45,1.06-8.43,4.32-4.6,8.92-8.91,13.53-13.21,1.75-1.63,3.61-3.15,5.46-4.66.78-.64,1.19-1.09.35-2.09-2.28-2.7-2.03-5.55-.19-8.39.56-.87,1.14-1.74,1.79-2.54,5.63-6.94,11.28-13.86,16.92-20.79.55,2.47.78,4.96.58,7.48-4.34,5.63-8.73,11.22-13.02,16.89-1.93,2.55-1.84,2.61.47,4.98,2,2.05,2.08,4.28.14,6.36-.7.75-1.54,1.39-2.34,2.05-6.06,5.01-11.16,10.97-16.53,16.67-.65.69-.56,1.2.18,1.75,1.53,1.16,2.93,2.48,4.25,3.87,2.13,2.24,3.25,4.87,2.97,8.01-.75,2.01-1.5,4.01-3.29,5.39-.77.59-.6,1.22.07,1.76.36.29.79.51,1.19.76Z"/>
  <path class="cls-13" d="m323.41,481.16c.28-3.14-.84-5.76-2.97-8.01-1.32-1.39-2.72-2.71-4.25-3.87-.74-.56-.82-1.07-.18-1.75,5.37-5.7,10.46-11.66,16.53-16.67.8-.66,1.63-1.3,2.34-2.05,1.94-2.07,1.86-4.31-.14-6.36-2.31-2.37-2.4-2.44-.47-4.98,4.29-5.67,8.67-11.26,13.02-16.89.3,2.71.05,5.42-.09,8.12-.71,13.79-1.78,27.55-3.29,41.28-.13,1.19-.33,2.36-.5,3.55-1.7-.4-3.44-.74-5.15-.44-2.15.37-4.39.8-5.3,3.27-1.1.75-2.24,1.49-3.38,2.13-1.94,1.09-3.74,2.65-6.16,2.68Z"/>
  <path class="cls-6" d="m323.41,481.16c2.42-.03,4.22-1.59,6.16-2.68,1.14-.64,2.28-1.38,3.38-2.13.47,0,.99.11,1.4-.04,1.88-.7,3.71-.32,5.56.13,1.07.26,1.96,1.05,3.13.99-.19,5.45-.62,10.88-1.56,16.25-1.3-.27-2.03-1.23-2.48-2.34-1.23-3.02-3.76-4.29-6.65-5.15-1.46-.43-2.82.23-4.18.44-2.08.32-4.09,1.18-6.12,1.81-.33.1-.52.33-.67.62-.4-.25-.83-.46-1.19-.75-.67-.54-.83-1.17-.07-1.76,1.79-1.38,2.54-3.38,3.29-5.39Z"/>
  <path class="cls-2" d="m343.04,477.42c-1.16.06-2.06-.73-3.13-.99-1.85-.45-3.68-.83-5.56-.13-.42.15-.93.04-1.4.04.91-2.47,3.16-2.9,5.3-3.27,1.71-.3,3.45.04,5.15.44.13,1.32-.05,2.62-.36,3.9Z"/>
  <path class="cls-2" d="m400.66,567.5c-1.95-.12-3.54-.17-5.13-.32-2.1-.19-3.36-1.24-3.6-2.88-.25-1.75.74-3.26,2.8-3.91,2.13-.67,4.35-1.03,6.58-1.07,2.78-.05,4.64,1.44,4.77,3.65.14,2.27-1.72,4.22-4.36,4.52-.47.05-.95,0-1.07,0Z"/>
</svg>