<?xml version="1.0" encoding="UTF-8"?>
<svg id="_图层_1" data-name="图层 1" xmlns="http://www.w3.org/2000/svg" viewBox="0 0 960 960">
  <defs>
    <style>
      .cls-1 {
        fill: #fcaae2;
      }

      .cls-1, .cls-2, .cls-3, .cls-4, .cls-5, .cls-6, .cls-7, .cls-8, .cls-9, .cls-10, .cls-11, .cls-12, .cls-13 {
        stroke-width: 0px;
      }

      .cls-2 {
        fill: #010101;
      }

      .cls-3 {
        fill: #fdabe6;
      }

      .cls-4 {
        fill: #040304;
      }

      .cls-5 {
        fill: #f3d5aa;
      }

      .cls-6 {
        fill: #070405;
      }

      .cls-7 {
        fill: #fd71d6;
      }

      .cls-8 {
        fill: #ba3997;
      }

      .cls-9 {
        fill: #fdfdfd;
      }

      .cls-10 {
        fill: #fe72d7;
      }

      .cls-11 {
        fill: #b83b97;
      }

      .cls-12 {
        fill: #f2d5a9;
      }

      .cls-13 {
        fill: #120f0f;
      }
    </style>
  </defs>
  <path class="cls-13" d="m248.13,540.28c-12.14-18.79-18.94-39.52-21.95-61.54-1.4-10.22-1.74-20.53-.71-30.84.26-2.64.74-5.22,2.49-7.37,2.75-2.22,6.03-3.16,9.4-3.94,10.28-2.38,20.69-4.08,31.1-5.77,18.61-3.02,37.12-6.6,55.67-9.98,1.18-.22,1.62-.63,1.57-1.84-.12-2.57.26-5.1.79-7.61,1.76-8.4,5.68-15.73,11.04-22.34,8.04-9.91,18.03-17.4,29.28-23.22,25.33-13.11,52.06-18.01,80.32-13.16,11.27,1.93,21.63,6.23,30.68,13.33,9.11,7.14,14.96,16.28,16.6,27.9.27,1.92.3,1.93,2.18,1.58,18.15-3.35,36.3-6.7,54.45-10.04,12.1-2.23,24.2-4.43,36.3-6.67,2.53-.47,4.93-.43,7.05,1.29.03.28.23.41.46.51.07.29.23.44.54.36,0,0-.02-.01-.02-.01.23,1.18.99,2.16,1.21,3.36.98,5.34,1.89,10.7,2.12,16.13.36,8.47.14,16.92-.83,25.36-1.27,11.08-3.72,21.87-7.31,32.41-5.86,17.19-14.62,32.8-25.9,47-10.33,13.01-22.79,23.46-37.75,30.82-5.46,2.68-11.07,4.99-16.94,6.63-1.45.41-2.15,1.14-2.2,2.61-.05,1.67-.16,3.35-.24,5.02-.34.38-.35.87-.44,1.34-1.99,10.41-6.44,19.69-13.05,27.93-11.36,14.15-25.7,24.27-42.42,31.13-16.96,6.97-34.61,10.15-52.91,9.11-14.18-.8-27.79-4.06-40.41-10.82-11.63-6.23-20.96-14.79-26.98-26.7-.18-.35-.45-.65-.68-.97-.85-2.74-2.06-5.35-2.7-8.16-.68-3-.73-2.98-3.66-1.89-12.04,4.47-24.19,4.77-36.42.89-13.69-4.34-24.53-12.8-33.57-23.73-2.02-2.45-3.88-5.03-5.82-7.56,0,0-.09-.15-.09-.15.1-.26,0-.39-.27-.41Zm144.98-1.02c-.66-8.2-1.87-16.37-1.13-24.63.11-1.21-.43-1.53-1.47-1.62-2.57-.22-5.02-.94-7.45-1.74-1.59-.52-1.6-.51-2.32.97-1.65,3.37-3.26,6.77-4.96,10.11-9.39,18.47-22.51,33.49-40.65,43.83-1.11.63-1.15,1.2-.73,2.28,3.28,8.41,8.15,15.72,14.94,21.71,11.06,9.76,24.12,15.22,38.5,17.66,17.66,3,35.06,1.51,52.11-3.88,15.56-4.91,29.52-12.68,40.98-24.42,8.75-8.96,15.03-19.44,17.79-31.81.18-.81.61-1.64.09-2.51-.63.08-1.18.16-1.73.23-.56.07-1.11.13-1.67.19-21.77,2.61-40.97-3.39-57.67-17.43-7.95-6.68-13.8-15.04-18.46-24.27-.38-.75-.82-1.47-1.21-2.18-.97.38-1.43,1.06-2.02,1.58-4.56,4-9.58,7.18-15.46,8.9-1.76.52-1.72.53-1.83,2.45-.3,5.22.48,10.37,1.13,15.52.29,2.28.31,4.6.91,6.87.78-.07,1.49-.13,2.2-.19-1.02,1-2.37.41-3.54.74-2.1.6-4.22,1.09-6.33,1.63Zm-119.22-96.42c-.41-.56-.97-.43-1.53-.33-1.1.2-2.2.39-3.3.59-10.31,1.8-20.62,3.62-31.06,4.59-1.6.15-1.64.17-1.51,1.94.31,4.22.58,8.46,1.03,12.67,1.4,13.05,3.36,26,7.2,38.6,3.9,12.78,9.31,24.84,17.33,35.61,5.45,7.32,11.86,13.6,19.78,18.26,10.06,5.92,20.85,7.81,32.33,5.75,11.4-2.04,20.97-7.59,29.15-15.6,11.26-11.03,19.97-23.86,26.56-38.17.84-1.83.87-2.93-.62-4.52-5.16-5.53-4.75-12.94.74-18.17,2.3-2.2,5.02-3.73,8.06-4.56,1.77-.49,2.55-1.4,2.97-3.19,2.68-11.47,4.35-23.09,5.11-34.83.34-5.26.47-10.54.38-15.82-.03-1.63-.09-1.65-1.63-1.46-.24.03-.47.07-.71.11-8.43,1.41-16.87,2.79-25.3,4.26-4.17.73-8.38,1.21-12.49,2.27-4.66.42-9.22,1.5-13.85,2.15-3.61.51-7.17,1.27-10.79,1.72-3.69.46-7.35,1.15-11.03,1.72-4.54.7-9.08,1.39-13.63,2.08-3.76.58-7.51,1.17-11.27,1.74-2.43.36-4.83.88-7.27,1.23-1.56.22-3.39-.06-4.63,1.38Zm186.68-26.88c-3.2.24-6.3,1.04-9.45,1.59-11.33,1.99-22.57,4.55-34.05,5.64-1.22.12-1.6.7-1.82,1.77-.82,3.92-1.41,7.87-1.71,11.86-.59,7.85.14,15.66.75,23.47.35,4.55.95,9.06,1.74,13.55.26,1.45.71,2.49,2.37,2.8,1.33.25,2.54.95,3.67,1.72,3.59,2.45,5.01,6.32,3.81,10.49-.42,1.46-.99,2.89-1.78,4.18-.67,1.09-.57,2-.04,3.12,3.43,7.3,7.89,13.9,13.45,19.73,6.87,7.21,14.76,12.94,24.28,16.24,11.06,3.84,22.38,4.43,33.84,2.52,12.51-2.08,23.85-7.1,34.25-14.26,28.91-19.91,47.51-46.92,55.73-81.05,3.53-14.64,4.05-29.41,1.56-44.28-.42-2.52-.42-2.53-3-2.05-8.88,1.63-17.77,3.23-26.65,4.92-4.55.87-9.15,1.48-13.64,2.66-2.14.12-4.23.61-6.33,1-5.83,1.08-11.66,2.21-17.5,3.26-3.43.62-6.85,1.27-10.27,1.93-6.6,1.27-13.25,2.31-19.87,3.52-6.69,1.22-13.38,2.48-20.06,3.78-3.1.6-6.27.9-9.28,1.91Zm-68.9,60.35c.55.07.79.14,1.01.11,4.04-.53,8.09-1.03,12.18-1.05,1.45,0,1.23-.82,1.01-1.75-2.29-9.62-2.75-19.45-3.19-29.28-.41-9.1,1.33-17.99,3.03-26.86.13-.7.36-1.4.65-2.05.86-1.97,2.32-3.21,4.51-3.5.87-.11,1.76-.18,2.6-.42,11.34-3.15,22.97-4.92,34.52-7.08,11.39-2.13,22.8-4.19,34.19-6.3,1.93-.36,1.9-.38,1.72-2.34-.58-6.15-2.83-11.6-6.68-16.42-4.86-6.08-11.11-10.28-18.2-13.31-9.98-4.26-20.44-6.29-31.24-6.67-16.81-.59-32.91,2.73-48.41,9.05-13.05,5.33-24.65,12.85-34.09,23.42-5.87,6.58-10.45,13.93-12.55,22.62-.37,1.52-.84,3.05-.7,4.66.96.28,1.72-.01,2.48-.14,17.02-2.88,34.05-5.76,51.07-8.63,1.59-.27,3.18-.4,4.78-.15,4,.62,6.28,3.8,5.54,7.76-.21,1.12-.24,2.21-.16,3.34,1.02,14.09.33,28.12-1.74,42.09-.63,4.27-1.49,8.49-2.33,12.89Z"/>
  <path class="cls-10" d="m632.79,337.48c-2.52.34-4.45-.89-6.24-2.42-8.98-7.69-18.26-14.97-28.28-21.27-11.29-7.1-23.03-13.39-35.09-19.12-15.03-7.13-30.51-13.05-46.36-18.03-9.67-3.03-19.53-5.25-29.49-7.14-10.54-2-21.12-3.14-31.85-2.81-1.2.04-2.38-.05-3.42-.77,2.5.07,4.43-1.11,6.13-2.8,1.99-1.98,3.8-4.11,5.52-6.32,6.52-8.41,12.69-17.07,18.48-25.99,16.12-24.82,30.82-50.48,44.53-76.7,1.96-3.75,3.82-7.56,6.02-11.18.09-.16.19-.31.28-.47v.02c1.64.03,2.74-1.15,4-1.91,5.73-3.46,11.63-6.58,17.7-9.37,6.85-3.15,13.82-6.06,20.94-8.56,2.53-.89,5-2.07,7.74-2.26,1.2.84,1.97,2.07,2.84,3.19,11.61,14.95,20.48,31.41,26.77,49.25,2.18,6.17,4.17,12.41,6.22,18.63,3.74,11.34,6.11,22.99,7.86,34.77,1.27,8.54,1.7,17.16,2.19,25.78.66,11.49,1.18,22.97.64,34.49-.53,11.33-.99,22.66-1.07,34.01-.02,3.44-.04,6.87.54,10.28.44,2.57,1.36,4.91,3.39,6.69Zm-28.25-97.71c-.69-4.98-.42-10.58-.88-16.14-.35-4.29-.7-8.58-1.2-12.84-.63-5.37-1.57-10.7-2.68-16-1.84-8.8-4.5-17.3-8.85-25.19-2.24-4.05-4.77-7.94-8.64-10.71-4.39-3.14-9.22-3.93-14.33-2.38-5.03,1.52-8.57,5.06-11.57,9.22-4.39,6.06-7.38,12.86-10.41,19.64-1.76,3.94-3.34,7.96-4.61,12.07-4.23,13.64-8.39,27.3-13.06,40.79-2.11,6.1-4.44,12.14-8.02,17.59-.49.75-.67,1.58-.77,2.48-.33,3,1.35,4.78,3.66,6.19,4.23,2.6,8.87,4.38,13.33,6.52,2.94,1.41,6.03,2.5,9.16,3.48,6.54,2.06,13.32,3.29,19.75,5.74,5.91,2.25,11.93,3.95,18.19,4.95,6.13.98,10.79-.89,14.15-6.12,1.66-2.58,2.58-5.48,3.4-8.4,2.8-9.92,2.81-20.15,3.39-30.89Z"/>
  <path class="cls-10" d="m256.69,369.5c-.35.75-1.03,1.21-1.58,1.76-4.35,4.32-8.75,8.6-13.08,12.94-4.67,4.68-9.19,9.49-12.79,15.08-.7,1.08-1.59,1.99-2.96,2.23.39-2.89-.27-5.73-.38-8.59-.58-15.09-.54-30.18.63-45.24,1.07-13.77,2.23-27.54,4.73-41.14,1.63-8.87,3.63-17.66,5.97-26.37.53-.13.74-.57.98-.98,1.3-2.28,2.58-4.59,3.92-6.85,4.61-7.74,9.59-15.25,14.92-22.51,5.37-7.32,10.94-14.47,16.89-21.34,3.97-4.58,8.08-9.02,12.2-13.45,4.4-4.73,9.25-9.01,14.1-13.29,4-3.53,8.16-6.87,12.23-10.32,2.24-1.9,4.76-3.47,6.8-5.61,2.12,2.81,3.79,5.9,5.45,8.99,7.64,14.21,14.21,28.91,20.19,43.89,3.1,7.78,6.13,15.59,9.55,23.23,1.02,2.27,2.27,4.39,3.91,6.27,1.25,1.44,2.7,2.47,4.69,2.52.28,2.4-.6,4.34-2.32,5.97-2.04,1.92-4.44,3.35-6.67,5.02-3.5,2.63-7.05,5.18-10.59,7.75-.25.18-.57.27-.85.4-.36-2.12-.62-4.26-1.09-6.35-1.27-5.73-3.08-11.27-6.79-15.93-3.42-4.3-8.78-6.79-14.91-5.23-3.38.85-6.05,2.83-8.47,5.18-4.75,4.6-8.33,10.08-11.41,15.87-3.54,6.65-6.2,13.64-7.85,21.01-1.43,6.37-3.65,12.55-4.3,19.1-.07.69-.51,1.14-.94,1.62-2.17,2.45-4.34,4.89-6.49,7.35-4.09,4.68-8.24,9.32-11.93,14.33-3.6,4.89-7.07,9.87-9.59,15.42-1.05,2.32-2.13,4.65-2.17,7.28Z"/>
  <path class="cls-4" d="m532.74,142.94c-2.2,3.62-4.06,7.43-6.02,11.18-13.71,26.22-28.41,51.88-44.53,76.7-5.79,8.92-11.96,17.58-18.48,25.99-1.71,2.21-3.53,4.34-5.52,6.32-1.7,1.7-3.63,2.87-6.13,2.8-4.38-1.75-5.18-4.67-2.45-8.68,22.75-33.28,43.78-67.6,62.75-103.17,5.04-9.45,9.74-19.07,14.89-28.46,2.93-5.34,6.19-10.45,10.08-15.14,1.59-1.91,3.26-3.73,5.09-5.41,8.76-7.98,19.07-10.23,30.51-8.2,3.84.68,7.24,2.45,10.41,4.68,3.63,2.55,6.69,5.69,9.59,9,6.44,7.37,11.94,15.42,16.91,23.82,7.68,12.98,13.6,26.74,18.35,41.06,4.8,14.51,9.17,29.1,11.55,44.24,1.18,7.51,2.02,15.05,2.45,22.64.87,15.32,1.85,30.64,1.11,46.01-.55,11.34-.88,22.68-1.04,34.03-.04,2.79-.3,5.59-.79,8.35-.35,1.93-1.14,3.64-2.48,5.1-1.73,1.89-3.7,2.74-6.21,1.67-2.03-1.77-2.95-4.11-3.39-6.69-.58-3.4-.57-6.84-.54-10.28.08-11.35.54-22.68,1.07-34.01.54-11.51.01-23-.64-34.49-.49-8.61-.93-17.23-2.19-25.78-1.75-11.79-4.13-23.44-7.86-34.77-2.05-6.22-4.04-12.46-6.22-18.63-6.29-17.84-15.16-34.3-26.77-49.25-.87-1.12-1.64-2.35-2.84-3.19-2.68-3.74-5.92-6.89-9.94-9.15-2.26-1.27-4.73-1.88-7.34-1.9-7.07-.05-12.81,2.66-17.42,8.04-6.51,7.58-11.31,16.2-15.67,25.1,0,0,.01-.02.01-.02-.22.08-.33.22-.28.47Z"/>
  <path class="cls-4" d="m363.07,270.72c-1.99-.05-3.44-1.08-4.69-2.52-1.64-1.88-2.89-4-3.91-6.27-3.43-7.65-6.45-15.46-9.55-23.23-5.98-14.98-12.55-29.68-20.19-43.89-1.66-3.09-3.33-6.18-5.45-8.99-3.62-5.77-7.78-11.11-12.72-15.81-.69-.66-1.47-1.23-2.27-1.76-4.03-2.7-8.3-3.42-12.99-1.82-5.55,1.89-10.01,5.21-13.57,9.82-6.07,7.88-11.27,16.3-15.25,25.41-7.08,16.18-12.81,32.86-17.8,49.79-2.8,9.49-5.31,19.06-7.45,28.73-2.34,8.71-4.34,17.5-5.97,26.37-2.5,13.61-3.66,27.37-4.73,41.14-1.17,15.07-1.21,30.15-.63,45.24.11,2.87.76,5.71.38,8.59-.18.26-.35.53-.54.78-1.88,2.44-4.74,2.51-6.71.15-1.16-1.39-1.67-3.08-2.13-4.78-1.21-4.5-1.59-9.13-1.94-13.75-1.27-16.81-.28-33.56,1.22-50.3,1-11.15,2.18-22.29,4.52-33.25,6.99-32.8,15.86-65.05,28.53-96.17,4.39-10.78,9.95-20.92,16.58-30.47,1.82-2.63,3.78-5.16,5.98-7.49,5.36-5.7,11.92-9.36,19.48-11.18,6.83-1.65,13.33-.53,19.41,2.99,3.57,2.06,6.59,4.77,9.35,7.81,8.12,8.93,14.92,18.74,20.26,29.58,7.03,14.28,13.22,28.92,18.57,43.92,1.83,5.12,3.74,10.2,5.56,15.33,1.34,3.79,2.22,7.66,1.8,11.75-.22,2.12-.98,3.68-3.14,4.3Z"/>
  <path class="cls-8" d="m256.69,369.5c.04-2.63,1.12-4.97,2.17-7.28,2.52-5.55,5.99-10.53,9.59-15.42,3.69-5.02,7.83-9.65,11.93-14.33,2.15-2.46,4.32-4.91,6.49-7.35.43-.48.87-.93.94-1.62.64-6.54,2.87-12.73,4.3-19.1,1.65-7.37,4.32-14.36,7.85-21.01,3.08-5.79,6.66-11.27,11.41-15.87,2.42-2.34,5.09-4.32,8.47-5.18,6.14-1.55,11.49.94,14.91,5.23,3.71,4.66,5.52,10.2,6.79,15.93.47,2.1.73,4.23,1.09,6.35-3.19,2.52-6.38,5.04-9.58,7.54-7.37,5.76-14.32,11.98-21.12,18.39-16.09,15.16-31.71,30.81-47.47,46.31-1.99,1.96-3.94,3.96-5.93,5.92-.56.55-1.03,1.24-1.85,1.48Z"/>
  <path class="cls-1" d="m594.39,380.06c-2.11-1.72-4.52-1.76-7.05-1.29-12.1,2.24-24.2,4.44-36.3,6.67-18.15,3.34-36.3,6.7-54.45,10.04-1.88.35-1.91.34-2.18-1.58-1.64-11.62-7.49-20.76-16.6-27.9-9.06-7.1-19.41-11.4-30.68-13.33-28.26-4.85-55,.06-80.32,13.16-11.25,5.82-21.25,13.31-29.28,23.22-5.36,6.61-9.28,13.95-11.04,22.34-.53,2.51-.9,5.04-.79,7.61.05,1.21-.39,1.62-1.57,1.84-18.55,3.38-37.06,6.96-55.67,9.98-10.41,1.69-20.81,3.39-31.1,5.77-3.36.78-6.64,1.72-9.4,3.94-.08-2.73.19-3.17,2.72-3.97,4.11-1.31,8.37-1.94,12.57-2.82,8.63-1.83,17.3-3.53,25.93-5.33,7.47-1.56,14.94-3.18,22.39-4.82,8.62-1.89,17.24-3.84,25.86-5.76.16-.03.31-.08.46-.12,3.69-.96,3.8-.94,4.39-4.64.95-5.88,2.86-11.45,5.46-16.76,3.02-6.18,6.93-11.8,11.4-17.06,7.12-8.37,15.67-14.97,25.05-20.53,8.4-4.99,17.35-8.74,26.76-11.47,5.83-1.69,11.76-2.8,17.75-3.65,5.06-.72,10.18-.57,15.29-.6,12.28-.07,24.09,2.36,35.39,7.02,7.39,3.05,14.22,7.14,20.37,12.39,8.5,7.25,14.85,15.95,18.97,26.32.77,1.94,1.17,2.12,3.23,1.72,8.82-1.7,17.62-3.51,26.46-5.08,8.77-1.56,17.54-3.07,26.28-4.78,8.97-1.75,17.99-3.27,26.98-4.91,1.8-.33,3.6-.68,5.37-1.15,1.11-.3,2.22-.3,3.33-.27,3.42.09,5.09,2.53,4.02,5.82Z"/>
  <path class="cls-11" d="m507.55,550.26c.08-1.67.18-3.35.24-5.02.05-1.47.75-2.2,2.2-2.61,5.86-1.64,11.48-3.95,16.94-6.63,14.96-7.36,27.42-17.8,37.75-30.82,11.28-14.2,20.03-29.81,25.9-47,3.6-10.54,6.05-21.34,7.31-32.41.97-8.44,1.19-16.89.83-25.36-.23-5.44-1.15-10.79-2.12-16.13-.22-1.2-.97-2.18-1.21-3.36,1.71-.16,2.56,1,3.39,2.21,5.03,7.34,6.93,15.72,8.09,24.34.89,6.62.45,13.24-.02,19.87-.81,11.3-2.76,22.36-6.75,33-6.56,17.51-15.61,33.58-27.43,48.11-9.15,11.24-19.39,21.26-31.59,29.15-8.59,5.56-17.8,9.72-27.84,11.93-1.87.41-3.75.84-5.69.73Z"/>
  <path class="cls-11" d="m248.49,540.84c1.94,2.52,3.79,5.11,5.82,7.56,9.04,10.93,19.88,19.39,33.57,23.73,12.22,3.88,24.38,3.58,36.42-.89,2.92-1.09,2.98-1.11,3.66,1.89.64,2.81,1.85,5.42,2.7,8.16-4.79,1.99-9.87,2.69-14.98,2.96-16.47.87-30.98-4.19-43.67-14.69-9.42-7.79-16.91-17.16-23.11-27.63-.2-.34-.46-.66-.41-1.1Z"/>
  <path class="cls-11" d="m595.4,380.93c-.31.08-.47-.08-.54-.36.3-.06.51.03.54.36Z"/>
  <path class="cls-11" d="m248.13,540.28c.27.02.36.15.27.41-.27-.02-.36-.15-.27-.41Z"/>
  <path class="cls-9" d="m543.87,400.57c4.49-1.18,9.09-1.79,13.64-2.66,8.87-1.69,17.76-3.29,26.65-4.92,2.58-.47,2.58-.47,3,2.05,2.5,14.87,1.97,29.64-1.56,44.28-8.22,34.13-26.82,61.14-55.73,81.05-10.41,7.17-21.74,12.18-34.25,14.26-11.46,1.91-22.78,1.32-33.84-2.52-9.51-3.3-17.4-9.03-24.28-16.24-5.56-5.83-10.01-12.43-13.45-19.73-.53-1.13-.63-2.03.04-3.12.79-1.29,1.36-2.72,1.78-4.18,1.2-4.17-.22-8.04-3.81-10.49-1.13-.77-2.34-1.48-3.67-1.72-1.67-.31-2.12-1.35-2.37-2.8-.79-4.49-1.39-9.01-1.74-13.55-.61-7.81-1.34-15.62-.75-23.47.3-3.99.89-7.94,1.71-11.86.22-1.07.6-1.65,1.82-1.77,11.48-1.09,22.72-3.65,34.05-5.64,3.14-.55,6.25-1.35,9.45-1.59-.9,6.11-.95,12.25-.57,18.4.33,5.26.87,10.5,1.5,15.74,1.72,14.29,5.93,27.75,13.14,40.24,2.53,4.38,5.37,8.51,9.01,12.05,4.41,4.29,9.55,7.19,15.71,8.05,4.38.61,8.75.39,13.12-.33,7.26-1.21,12.66-4.98,16.21-11.43,1.63-2.95,2.87-6.05,3.84-9.27,2.85-9.46,3.93-19.22,4.81-29.01.34-2.53.41-5.08.59-7.62.49-6.98,1.08-13.96,1.63-20.94.71-6.58,1.52-13.15,2.63-19.68.65-3.85,1.6-7.66,1.68-11.59Z"/>
  <path class="cls-9" d="m346.35,430.82c4.11-1.05,8.32-1.54,12.49-2.27,8.42-1.47,16.86-2.84,25.3-4.26.24-.04.47-.09.71-.11,1.54-.18,1.6-.17,1.63,1.46.09,5.28-.04,10.56-.38,15.82-.76,11.74-2.42,23.36-5.11,34.83-.42,1.79-1.2,2.7-2.97,3.19-3.03.84-5.75,2.37-8.06,4.56-5.49,5.24-5.9,12.64-.74,18.17,1.48,1.59,1.46,2.7.62,4.52-6.59,14.31-15.3,27.14-26.56,38.17-8.18,8.01-17.75,13.56-29.15,15.6-11.48,2.06-22.26.16-32.33-5.75-7.92-4.65-14.33-10.94-19.78-18.26-8.02-10.77-13.43-22.83-17.33-35.61-3.84-12.59-5.81-25.55-7.2-38.6-.45-4.21-.72-8.44-1.03-12.67-.13-1.77-.09-1.8,1.51-1.94,10.44-.97,20.75-2.79,31.06-4.59,1.1-.19,2.2-.39,3.3-.59.56-.1,1.12-.23,1.53.33-.04.87-.11,1.75-.12,2.62-.03,6.73.82,13.38,1.6,20.05,1.31,11.16,3.85,22.01,8.11,32.42,3.33,8.12,7.68,15.59,13.86,21.93,4.8,4.92,10.59,7.87,17.27,9.18,9.46,1.85,17.51-2.08,21.88-10.69,1.49-2.93,2.61-6,3.25-9.23,1.7-8.56,2.33-17.24,2.69-25.94.08-2.55.03-5.12.27-7.65.56-5.88.15-11.79.7-17.67.06-.55.13-1.11.18-1.66.62-7.22,1.06-14.46,2.49-21.58.25-1.26.33-2.52.27-3.8Z"/>
  <path class="cls-12" d="m402.98,536.89c-.71.06-1.41.12-2.2.19-.6-2.27-.62-4.59-.91-6.87-.65-5.15-1.43-10.3-1.13-15.52.11-1.91.07-1.93,1.83-2.45,5.87-1.72,10.9-4.9,15.46-8.9.59-.52,1.06-1.2,2.02-1.58.4.71.84,1.43,1.21,2.18,4.65,9.23,10.51,17.59,18.46,24.27,16.7,14.04,35.9,20.04,57.67,17.43.56-.07,1.11-.12,1.67-.19.55-.07,1.1-.14,1.73-.23.52.87.09,1.7-.09,2.51-2.75,12.38-9.03,22.85-17.79,31.81-11.47,11.74-25.42,19.5-40.98,24.42-17.05,5.38-34.45,6.87-52.11,3.88-14.38-2.44-27.44-7.9-38.5-17.66-6.79-5.99-11.65-13.3-14.94-21.71-.42-1.08-.38-1.65.73-2.28,18.14-10.34,31.26-25.36,40.65-43.83,1.7-3.35,3.31-6.74,4.96-10.11.72-1.48.72-1.5,2.32-.97,2.43.8,4.89,1.53,7.45,1.74,1.04.09,1.58.41,1.47,1.62-.73,8.26.47,16.43,1.13,24.63-.61.57-1.43.67-2.17.96-7.26,2.92-14.59,5.7-21.1,10.19-2.33,1.61-4.25,3.35-5.07,6.35-.93,3.41-1.04,6.59.42,9.8,3.74,8.15,9.57,14.26,17.68,18.17,3.97,1.91,8.04,3.55,12.3,4.69,11.2,3.01,21.89,1.83,31.84-4.27,8.54-5.23,15.29-12.3,20.33-20.96,1.7-2.91,3.02-5.97,3.75-9.29,1.24-5.67-.44-10.2-4.99-13.78-2.84-2.23-6.12-3.44-9.56-4.23-7.77-1.8-15.67-2.06-23.6-1.64-2.55.13-5.1.38-7.56,1.15-.82-.09-1.59.06-2.3.47l-.1.02Z"/>
  <path class="cls-5" d="m391.67,476.31c.84-4.4,1.69-8.62,2.33-12.89,2.08-13.97,2.76-27.99,1.74-42.09-.08-1.12-.05-2.22.16-3.34.74-3.96-1.54-7.13-5.54-7.76-1.59-.25-3.19-.12-4.78.15-17.02,2.88-34.05,5.76-51.07,8.63-.77.13-1.53.42-2.48.14-.14-1.61.33-3.14.7-4.66,2.11-8.69,6.68-16.04,12.55-22.62,9.44-10.58,21.05-18.1,34.09-23.42,15.5-6.33,31.6-9.64,48.41-9.05,10.8.38,21.26,2.41,31.24,6.67,7.09,3.03,13.34,7.23,18.2,13.31,3.85,4.81,6.1,10.27,6.68,16.42.18,1.96.22,1.99-1.72,2.34-11.4,2.1-22.8,4.17-34.19,6.3-11.55,2.15-23.17,3.93-34.52,7.08-.84.23-1.73.3-2.6.42-2.19.29-3.64,1.53-4.51,3.5-.29.65-.51,1.35-.65,2.05-1.7,8.88-3.44,17.76-3.03,26.86.44,9.82.9,19.65,3.19,29.28.22.93.44,1.74-1.01,1.75-4.09.02-8.13.52-12.18,1.05-.22.03-.46-.05-1.01-.11Z"/>
  <path class="cls-2" d="m537.34,460.39c-.88,9.79-1.96,19.54-4.81,29.01-.97,3.22-2.21,6.32-3.84,9.27-3.56,6.45-8.95,10.22-16.21,11.43-4.37.73-8.74.94-13.12.33-6.16-.86-11.3-3.76-15.71-8.05-3.64-3.54-6.48-7.67-9.01-12.05-7.22-12.49-11.42-25.95-13.14-40.24-.63-5.23-1.17-10.47-1.5-15.74-.38-6.16-.33-12.29.57-18.4,3.02-1.01,6.18-1.3,9.28-1.91,6.68-1.3,13.36-2.56,20.06-3.78,6.62-1.2,13.26-2.25,19.87-3.52,3.42-.66,6.84-1.31,10.27-1.93,5.84-1.05,11.66-2.18,17.5-3.26,2.1-.39,4.18-.88,6.33-1-.08,3.93-1.03,7.74-1.68,11.59-1.11,6.53-1.92,13.1-2.63,19.68-.47.1-.93.22-1.4.29-8.82,1.38-16.46,5.33-23.46,10.7-1.85,1.41-3.44,3.09-4.54,5.18-2.22,4.21-1.3,8.88,2.35,11.86,1.77,1.45,3.82,2.28,6.06,2.69,5.22.94,10.32.35,15.34-1.21,1.13-.35,2.19-.98,3.44-.93Z"/>
  <path class="cls-2" d="m342.44,483.18c-.36,8.7-.99,17.38-2.69,25.94-.64,3.23-1.76,6.3-3.25,9.23-4.37,8.61-12.42,12.55-21.88,10.69-6.68-1.31-12.47-4.26-17.27-9.18-6.18-6.34-10.53-13.81-13.86-21.93-4.27-10.41-6.81-21.26-8.11-32.42-.78-6.67-1.64-13.32-1.6-20.05,0-.87.08-1.75.12-2.62,1.24-1.44,3.07-1.16,4.63-1.38,2.44-.34,4.84-.86,7.27-1.23,3.76-.56,7.51-1.16,11.27-1.74,4.54-.7,9.09-1.38,13.63-2.08,3.68-.57,7.34-1.26,11.03-1.72,3.62-.45,7.19-1.21,10.79-1.72,4.63-.66,9.19-1.73,13.85-2.15.06,1.28-.01,2.54-.27,3.8-1.44,7.12-1.87,14.36-2.49,21.58-.05.55-.12,1.11-.18,1.66-.62.12-1.25.24-1.87.35-7.19,1.2-13.86,3.63-19.6,8.26-1.5,1.21-2.89,2.51-3.9,4.17-2.5,4.12-1.41,8.87,2.64,11.49,1.7,1.1,3.6,1.68,5.6,1.95,2.3.31,4.61.3,6.92.2,3.11-.13,6.16-.76,9.25-1.11Z"/>
  <path class="cls-6" d="m405.39,536.4c2.46-.77,5.02-1.01,7.56-1.15,7.93-.41,15.83-.16,23.6,1.64,3.44.8,6.72,2,9.56,4.23,4.55,3.57,6.23,8.11,4.99,13.78-.73,3.32-2.05,6.39-3.75,9.29-5.05,8.66-11.79,15.72-20.33,20.96-9.95,6.09-20.64,7.27-31.84,4.27-4.25-1.14-8.33-2.78-12.3-4.69-8.11-3.9-13.95-10.01-17.68-18.17-1.47-3.2-1.35-6.38-.42-9.8.82-3.01,2.74-4.75,5.07-6.35,6.51-4.49,13.84-7.27,21.1-10.19.73-.3,1.56-.39,2.17-.96,2.11-.54,4.24-1.03,6.33-1.63,1.17-.33,2.53.26,3.54-.74,0,0,.1-.02.1-.02.78-.07,1.66.28,2.3-.47Zm39.19,14.93c-.94.57-1.07,1.33-1.44,1.92-2.13,3.39-4.86,6.15-8.42,7.99-4.14,2.13-8.48,1.06-11.28-2.67-1.07-1.43-1.74-3.05-2.2-4.76-.71-2.64-.99-5.33-.98-8.06,0-2.85.44-2.68-2.74-2.54-4.47.19-8.92.69-13.31,1.59-10.94,2.24-21.26,6.3-31.45,10.73-.86.37-1.42.94-1.89,1.72-1.38,2.33-1.42,4.68-.26,7.09,1.96,4.11,4.64,7.64,8.35,10.34,5.95,4.33,12.52,7.46,19.69,9.02,9.89,2.15,19.22.64,27.59-5.4,2.53-1.83,4.97-3.76,7.24-5.9,4.57-4.29,7.83-9.45,10.04-15.29.68-1.8,1.2-3.64,1.09-5.77Zm-15.52-8.16q-4.96-.1-4.56,3.87c.05.48.06.96.13,1.43.33,2.21.61,4.44,1.64,6.46,1.41,2.77,3.7,3.46,6.36,1.89,2.09-1.23,3.79-2.91,5.18-4.89.82-1.18,1.6-2.38,2.42-3.56,1.49-2.15,1.49-2.22-.99-3.3-.94-.41-1.94-.74-2.94-.98-2.72-.66-5.51-.85-7.22-.91Z"/>
  <path class="cls-8" d="m604.53,239.77c-.57,10.74-.58,20.97-3.39,30.89-.82,2.92-1.74,5.82-3.4,8.4-3.37,5.23-8.03,7.11-14.15,6.12-6.25-1-12.28-2.7-18.19-4.95-6.42-2.45-13.21-3.68-19.75-5.74-3.13-.99-6.22-2.07-9.16-3.48-4.46-2.14-9.09-3.93-13.33-6.52-2.3-1.41-3.98-3.19-3.66-6.19.1-.9.28-1.74.77-2.48,3.58-5.45,5.91-11.49,8.02-17.59,4.66-13.5,8.83-27.16,13.06-40.79,1.27-4.11,2.85-8.13,4.61-12.07,3.03-6.78,6.02-13.57,10.41-19.64,3.01-4.16,6.54-7.7,11.57-9.22,5.11-1.54,9.95-.76,14.33,2.38,3.87,2.77,6.4,6.66,8.64,10.71,4.35,7.89,7.01,16.39,8.85,25.19,1.11,5.3,2.05,10.64,2.68,16,.5,4.26.85,8.56,1.2,12.84.46,5.57.19,11.16.88,16.14Z"/>
  <path class="cls-3" d="m533.01,142.49c4.36-8.91,9.16-17.52,15.67-25.1,4.62-5.38,10.35-8.09,17.42-8.04,2.61.02,5.08.63,7.34,1.9,4.03,2.26,7.27,5.4,9.94,9.15-2.74.18-5.21,1.37-7.74,2.26-7.12,2.5-14.08,5.41-20.94,8.56-6.07,2.79-11.97,5.92-17.7,9.37-1.26.76-2.36,1.94-4.01,1.91Z"/>
  <path class="cls-3" d="m532.74,142.94c-.06-.25.06-.39.28-.47-.09.16-.19.31-.28.47Z"/>
  <path class="cls-3" d="m237.23,280.17c2.14-9.67,4.65-19.24,7.45-28.73,5-16.93,10.72-33.61,17.8-49.79,3.98-9.11,9.18-17.53,15.25-25.41,3.55-4.61,8.01-7.93,13.57-9.82,4.69-1.6,8.96-.87,12.99,1.82.79.53,1.58,1.1,2.27,1.76,4.95,4.7,9.1,10.04,12.72,15.81-2.04,2.14-4.56,3.71-6.8,5.61-4.07,3.45-8.23,6.78-12.23,10.32-4.84,4.28-9.7,8.56-14.1,13.29-4.12,4.43-8.23,8.87-12.2,13.45-5.95,6.87-11.52,14.02-16.89,21.34-5.33,7.26-10.31,14.77-14.92,22.51-1.35,2.26-2.62,4.56-3.92,6.85-.24.42-.45.86-.98.98Z"/>
  <path class="cls-7" d="m537.34,460.39c-1.24-.05-2.3.58-3.44.93-5.02,1.57-10.12,2.16-15.34,1.21-2.23-.4-4.29-1.24-6.06-2.69-3.64-2.98-4.56-7.65-2.35-11.86,1.1-2.09,2.7-3.76,4.54-5.18,6.99-5.36,14.64-9.31,23.46-10.7.47-.07.93-.19,1.4-.29-.55,6.98-1.14,13.96-1.63,20.94-.18,2.54-.25,5.09-.59,7.62Z"/>
  <path class="cls-7" d="m342.44,483.18c-3.08.35-6.13.98-9.25,1.11-2.32.1-4.62.11-6.92-.2-2-.27-3.89-.85-5.6-1.95-4.05-2.62-5.13-7.37-2.64-11.49,1.01-1.66,2.4-2.97,3.9-4.17,5.74-4.63,12.42-7.06,19.6-8.26.63-.11,1.25-.23,1.87-.35-.55,5.88-.15,11.79-.7,17.67-.24,2.54-.19,5.1-.27,7.65Z"/>
  <path class="cls-13" d="m405.39,536.4c-.65.75-1.52.4-2.3.47.72-.41,1.49-.56,2.3-.47Z"/>
  <path class="cls-7" d="m444.58,551.33c.11,2.13-.41,3.98-1.09,5.77-2.21,5.84-5.47,10.99-10.04,15.29-2.27,2.14-4.71,4.07-7.24,5.9-8.37,6.05-17.7,7.55-27.59,5.4-7.16-1.56-13.73-4.69-19.69-9.02-3.7-2.7-6.38-6.23-8.35-10.34-1.15-2.41-1.12-4.76.26-7.09.47-.79,1.03-1.35,1.89-1.72,10.19-4.43,20.51-8.49,31.45-10.73,4.39-.9,8.84-1.4,13.31-1.59,3.19-.13,2.75-.31,2.74,2.54,0,2.73.27,5.43.98,8.06.46,1.71,1.13,3.33,2.2,4.76,2.8,3.74,7.14,4.8,11.28,2.67,3.57-1.84,6.3-4.6,8.42-7.99.37-.59.5-1.35,1.44-1.92Z"/>
  <path class="cls-9" d="m429.06,543.17c1.71.05,4.5.25,7.22.91,1,.24,2,.57,2.94.98,2.48,1.08,2.48,1.15.99,3.3-.82,1.18-1.6,2.38-2.42,3.56-1.39,1.99-3.09,3.66-5.18,4.89-2.65,1.57-4.95.88-6.36-1.89-1.03-2.02-1.3-4.25-1.64-6.46-.07-.47-.08-.95-.13-1.43q-.4-3.97,4.56-3.87Z"/>
</svg>