<?xml version="1.0" encoding="UTF-8"?>
<svg id="_图层_1" data-name="图层 1" xmlns="http://www.w3.org/2000/svg" viewBox="0 0 960 960">
  <defs>
    <style>
      .cls-1 {
        fill: #bb813d;
      }

      .cls-1, .cls-2, .cls-3, .cls-4, .cls-5, .cls-6, .cls-7, .cls-8, .cls-9, .cls-10, .cls-11, .cls-12, .cls-13, .cls-14 {
        stroke-width: 0px;
      }

      .cls-2 {
        fill: #fd72d7;
      }

      .cls-3 {
        fill: #040304;
      }

      .cls-4 {
        fill: #fca9e2;
      }

      .cls-5 {
        fill: #040303;
      }

      .cls-6 {
        fill: #ffe25b;
      }

      .cls-7 {
        fill: #050304;
      }

      .cls-8 {
        fill: #ba3997;
      }

      .cls-9 {
        fill: #fdfdfd;
      }

      .cls-10 {
        fill: #fe72d7;
      }

      .cls-11 {
        fill: #b83b97;
      }

      .cls-12 {
        fill: #fcfcfc;
      }

      .cls-13 {
        fill: #fb71d4;
      }

      .cls-14 {
        fill: #f2d5a9;
      }
    </style>
  </defs>
  <path class="cls-5" d="m513.27,544.33c-.5,1.04-.42,2.19-.61,3.28-2.1,11.72-7.54,21.82-15.02,30.92-1.62,1.97-3.31,3.92-5.16,5.67-13.6,12.95-28.82,23.2-47.05,28.66-10.34,3.1-20.68,6.11-31.32,8.06-11.37,2.09-22.76,1.89-34.16.63-7.87-.87-15.68-2.15-23.26-4.56-11.95-3.79-21.98-10.68-30.5-19.68-7.06-7.46-10.84-16.5-10.91-26.9-.01-1.59.18-3.18.28-4.78,1.04-3.91,1.97-7.85,4.24-11.58-1.5-.12-2.57.16-3.65.31-6.52.92-13.05.99-19.57.07-13.95-1.97-25.69-8.32-35.71-18.05-8.1-7.86-13.87-17.27-18.09-27.66-1.37-3.38-2.51-6.86-3.76-10.3-1.4-6.23-2.87-12.45-3.55-18.83-1.89-17.73-.16-35.1,4.97-52.15,3.15-10.45,7.46-20.39,13.27-29.66,1.02-1.62,2.06-3.24,3.24-4.75,1.18-1.51,2.17-2.88,2.15-5.04-.02-2.78,2.86-4.43,5.55-3.56.68.22,1.3.6,1.95.9,2.45,2.44,5.23,4.42,8.28,6.04,4.03,2.14,8.24,3.87,12.59,5.26,12.36,3.95,25.05,6.45,37.83,8.55,1.49.25,1.55.21,2.14-1.76,3.52-11.64,10.04-21.51,18.06-30.47,3.77-4.21,8.25-7.54,13.34-10.01,6.58-3.19,13.44-4.52,20.72-3.14,3.97.75,7.61,2.37,11.21,4.12,4.98,2.42,10.04,2.81,15.33.89,5.64-2.04,11.19-4.27,16.6-6.87,7.35-3.53,15.06-5.74,23.15-6.63,7.96-.87,15.59.11,22.88,3.64,8.55,4.14,15.95,9.71,21.82,17.22,5.89,7.53,10.81,15.59,13.53,24.94.3.15.66-.04,1.03-.16,11.68-3.95,23.06-8.54,33.68-14.89,10.52-6.29,20.49-13.3,29.41-21.74,1.78-.77,3.66-.98,5.57-1.16,2.15-.2,3.72.62,4.85,2.38.51.8.95,1.66,1.4,2.5,5.95,11.06,9.49,22.91,11.54,35.26.29,1.73.59,3.45.89,5.18-.12,2.4.43,4.76.53,7.15.39,9.68.05,19.3-1.33,28.91-2.55,17.77-8.16,34.46-17.27,49.92-8.41,14.27-19.51,26.03-33.65,34.78-7.96,4.92-16.61,8.15-25.73,10.1-1.24.26-1.77.69-1.71,2.03.09,2.31,0,4.62-.02,6.94Zm-86.75-49.75c-.85-1.93-1.96-3.7-3.14-5.45-.27.2-.43.27-.52.39-6.9,9.67-15.47,17.13-27.09,20.58-.89.26-1.3.81-1.37,1.72-.21,3.1-.69,6.19.07,9.28-.06,2.87.63,5.64.96,8.46,1.01-.02,1.65-.55,2.32-.94,2.49-1.44,4.97-2.89,7.42-4.41,4.24-2.64,8.79-4.56,13.6-5.86,3.34-.9,6.72-1.42,10.2-.92,7.64,1.1,13.84,4.89,18.88,10.51,8.07,8.98,12.43,19.7,13.4,31.66.57,7.07-1.74,13.29-7.65,17.69-4.75,3.54-10.13,4.55-15.92,3.45-3.63-.69-7.07-2-10.51-3.27-6.16-2.26-12.47-3.36-19.05-2.77-1.22.11-2.09.49-2.86,1.4-1.87,2.19-3.56,4.52-5.22,6.87-3.05,4.33-7.15,7.25-12.08,9.07-4.52,1.67-9.17,1.99-13.93,1.4-10.57-1.31-19.75-10.05-21.21-20.56-.82-5.92-.18-11.84,1.51-17.56,2.76-9.32,8.56-15.93,17.85-19.26,2.56-.92,5.17-1.64,7.84-2.17,3.03-.6,6.08-1.15,9.26-2.15-1.64-3.3-2.03-6.8-2.68-10.24.04-3.09-.2-6.19.1-9.28.08-.86-.2-1.35-1.06-1.53-1.71-.35-3.4-.78-5.01-1.49-.97-.43-1.44.04-1.88.84-.95,1.73-1.97,3.42-2.96,5.13-4.72,7.2-10.33,13.62-16.94,19.15-7.22,6.04-15.1,11.01-23.81,14.63-.95.39-1.92.69-2.47,1.74-1.69,3.27-3.55,6.45-4.81,9.91-1.35,3.72-2.15,7.55-1.7,11.52.85,7.49,4.37,13.71,9.84,18.68,6.67,6.07,14.18,10.89,22.84,13.74,6.57,2.16,13.34,3.23,20.18,4.01,10.46,1.2,20.89,1.12,31.3-.6,12.74-2.12,25-5.98,37.23-10,12.08-3.97,22.95-10.09,32.83-17.99,8.58-6.86,15.2-15.22,18.99-25.7,1.81-5,2.28-10.1,1.96-15.34-.1-1.65-.15-1.65-1.89-1.67-.64,0-1.28.02-1.92.02-14.23-.09-27.49-3.61-39.64-11.13-12.18-7.54-21.86-17.6-29.73-29.48-.48-.72-.81-1.57-1.55-2.1Zm39.36-78.15c-2.93.27-5.47.54-8.01.72-12.15.9-24.27,1.13-36.33-1.08-1.8-.33-1.84-.3-1.99,1.56-.12,1.59-.18,3.19-.22,4.79-.14,6.24.16,12.47.9,18.67,2.15,18.06,7.81,34.89,17.69,50.2,9.5,14.73,22.15,25.72,38.74,31.87,16.23,6.02,32.24,5.62,48-1.66,9.3-4.3,17.67-10.01,24.88-17.29,18.57-18.74,29.06-41.46,32.35-67.48,2.6-20.55.26-40.67-6.63-60.23-.36-1.03-.76-2.04-1.13-3.04-.97.17-1.37.83-1.89,1.3-7.18,6.43-15,11.94-23.59,16.33-6.55,3.35-13.3,6.26-20.09,9.08-.52.21-1.03.43-1.55.63-.63.24-.86.65-.63,1.31.7,2.02.46,4.11.48,6.18.03,4.25.42,8.47,1.14,12.64,1.44,8.23,3.97,16.12,7.62,23.65,2.25,4.64,3.8,9.48,4.41,14.62,1.1,9.23-1.13,17.44-7.48,24.39-3.09,3.39-6.55,6.33-10.53,8.63-16.45,9.49-34.89,7-49.47-3.99-5.63-4.24-9.25-9.83-11.11-16.63-3.63-13.33-3.41-26.71-.59-40.13,1.07-5.09,2.63-10.03,5.04-15.05Zm-200.23-17.89c-.29.37-.5.6-.67.86-5.64,9.05-10.41,18.53-13.83,28.65-6.93,20.46-9.11,41.3-4.54,62.59,2.96,13.78,8.61,26.31,18.47,36.55,14.89,15.45,32.84,20.84,53.79,15.48,11.18-2.86,20.68-8.78,29.24-16.31,7.78-6.84,14.45-14.69,20.86-22.79.87-1.1.97-1.83.11-3.08-5.11-7.46-3.46-15.54,4.09-20.57,2.53-1.69,5.21-3.16,8.07-4.17,1.88-.66,2.68-1.81,3.21-3.67,2.76-9.67,4.18-19.53,4.52-29.55.25-7.44-.2-14.86-1.37-22.23-.28-1.78-.31-1.81-2.13-1.46-9.06,1.74-18.23,2.31-27.44,2.34-2.57.01-2.25-.44-3.11,2.19-2.81,8.69-3.95,17.59-3.76,26.7.17,8.15.26,16.31.06,24.46-.11,4.6-1.02,9.05-2.53,13.37-7.47,21.4-33.33,29.64-51.82,16.51-6.64-4.72-11.36-10.94-14.33-18.5-4.24-10.78-4.95-21.89-3.13-33.25,2.19-13.71,7.07-26.51,13.06-38.94.3-.62.83-1.16.74-2.07-9.65-3.32-19.17-7.01-27.57-13.11Zm227.78,1.82c-2.69-4.16-4.67-8.5-6.99-12.68-5.45-9.84-13.38-16.98-23.21-22.23-4.8-2.56-9.82-3.68-15.24-3.29-6.86.49-13.38,2.16-19.55,5.24-6.01,3-12.14,5.73-18.44,8.06-7.95,2.95-15.81,2.68-23.6-.61-1.91-.81-3.81-1.67-5.76-2.38-5.16-1.88-10.32-1.85-15.45.2-4.22,1.69-7.93,4.18-11.08,7.42-7.08,7.29-12.8,15.52-16.8,24.9-.2.47-.66.96-.06,1.74,4.22.28,8.6.66,12.98.84,10.08.41,20.14.25,30.13-1.41,3.7-.61,3.69-.66,2.51-4.21-1.11-3.33-2.39-6.61-3.17-10.05-.6-2.64.12-4.66,1.96-5.64,1.94-1.03,4.05-.44,5.91,1.72,1.25,1.46,2.35,3.03,3.26,4.73,1.78,3.32,3.15,6.81,4.35,10.38.34,1,.73,1.93,1.45,2.72,1.57,1.74,2,3.79,1.47,6.03-.25,1.05-.2,2.03-.02,3.07,1.12,6.55,1.91,13.13,1.93,19.78.04,11.65-1.53,23.1-4.52,34.36-.22.81-.37,1.64-.61,2.7,6.97-.87,13.69-1.75,20.43-1.2.21-.64-.01-1.08-.15-1.53-6.15-20.08-7.28-40.49-4.01-61.18.85-5.37,2-10.68,3.82-15.82.51-1.43,1.02-2.87,2-4.06.99-1.19,2.23-1.83,3.81-1.36,1.58.47,2.27,1.67,2.42,3.23.13,1.36-.07,2.71-.32,4.05-.66,3.61-1.32,7.23-1.96,10.85-.35,1.98-.33,2,1.6,2.18,5.09.5,10.21.73,15.32.81,14.85.24,29.51-1.52,44.03-4.53,3.81-.79,7.61-1.61,11.52-2.84Zm-132.71,167.13c-.18,3.32.3,6.66,2.28,9.68,3.25,4.96,8.03,7.24,13.74,7.55,6.52.35,12.28-1.61,16.91-6.44,2.15-2.25,4.24-4.58,6.72-6.49,4.33-3.31,8.95-5.34,14.66-4.32,4.97.88,9.85,1.99,14.6,3.68,3.16,1.12,6.32,2.25,9.66,2.75,7.23,1.07,12.85-3.75,12.78-11.01-.01-1.12-.05-2.25-.24-3.34-1.45-8.12-4.28-15.7-9-22.52-2.75-3.97-6.35-6.94-10.62-9.11-2.94-1.49-6.04-1.95-9.31-1.31-4.68.92-9.07,2.53-13.09,5.11-3.16,2.03-6.3,4.08-9.59,5.9-2.4,1.32-4.9,2.32-7.62,2.76-4.41.72-8.83,1.43-13.23,2.24-9.66,1.78-15.97,7.88-17.91,17.3-.5,2.43-.77,4.89-.73,7.56Zm-45.29-109.42c-.5-.71-.29-1.35-.32-1.95-.24-5.6-1.67-10.87-4.28-15.83-.6-1.14-1.33-2.19-2.33-3.02-.72-.59-1.53-.87-2.44-.39-.89.48-1.19,1.26-1.07,2.21.06.47.17.95.34,1.39,1.37,3.65,1.72,7.45,1.77,11.31.05,4.05-1.32,7.5-4.28,10.3-1.34,1.26-2.71,2.49-3.99,3.8-3.05,3.1-4.01,6.85-3.14,11.04.86,4.13,2.5,7.92,5.4,11.07.72.78,1.2,1.68,1.71,2.59,1.21,2.17,3,3.72,5.27,4.7,7.62,3.29,17.34-2.28,18.3-10.51.17-1.44.45-2.83.92-4.2,1.25-3.64,1.53-7.34.53-11.09-.27-.99-.3-1.82.49-2.64.97-1,1.41-2.32,1.68-3.66.6-2.99.76-6.02.61-9.07-.06-1.21-.37-2.37-.98-3.43-1.04-1.79-2.63-3-4.44-3.89-1.54-.76-2.45.83-3.69,1.19-.08.02-.15.05-.23.08-1.72.73-2.87,2.03-3.55,3.72-.44,1.11-.71,2.29-1.05,3.43-.29.95-.39,1.99-1.21,2.83Zm187.54-12.14c-.63-3.09-1.29-5.55-1.62-8.1-.82-6.37-5.91-11.95-12.11-13.42-2.1-.5-4.13-.35-6.07.6-4.48,2.19-4.97,7.58-.96,10.54,1.04.77,2.25,1.2,3.41,1.72,1.98.88,2.02,1.06,1.29,3.03-1.16,3.16-2.92,6.03-4.24,9.12-1.95,4.56-3.02,9.29-2.42,14.25,1.93,15.9,17.02,18.97,26.26,13.05,5.41-3.48,8.01-10.3,5.99-16.09-.67-1.91-.76-3.67-.33-5.59,1.11-4.97-.03-9.67-1.93-14.24-.24-.58-.62-1.12-1.05-1.59-.79-.86-1.76-1.46-2.98-.98-1.13.44-1.39,1.4-1.38,2.54.01,1.73-.75,3.19-1.86,5.15Zm8.16-18.73c-.02-2.17-1.79-3.96-3.95-4-2.27-.04-4.1,1.85-4.02,4.13.07,2.17,1.91,3.92,4.06,3.88,2.18-.04,3.93-1.83,3.91-4.01Zm-179.86,11.21c-.03-1.93-1.66-3.4-3.64-3.31-1.88.08-3.32,1.58-3.28,3.42.03,1.92,1.68,3.42,3.64,3.33,1.86-.09,3.32-1.62,3.29-3.44Z"/>
  <path class="cls-10" d="m646.21,341.47c3,5,.67,11.05-3.44,12.61-2.36.89-4.72.76-6.99-.24-1.38-.61-2.73-1.36-3.95-2.24-6.28-4.56-13.09-8.25-19.63-12.4-9.5-6.03-19.07-11.95-28.42-18.23-10.23-6.87-20.78-13.14-31.93-18.38-9.39-4.41-18.78-8.86-28.33-12.9-10.96-4.63-22.26-8.34-33.78-11.37-5.79-1.52-11.4-3.65-17.16-5.27-7.21-2.03-14.44-4.01-21.82-5.4-.21-.04-.4-.23-.6-.35,4-.56,5.67-2.26,6.2-6.34.3-2.31.3-4.63.08-6.94-1.18-12.42-1.56-24.89-1.81-37.35-.24-11.78.6-23.49,2.62-35.1,1.28-7.33,2.97-14.58,5.91-21.45,2.75-6.42,6.1-9.94,15.68-9.34.32.02.64.07.95.1,5.05.52,9.87,1.95,14.55,3.87,10.04,4.13,19.28,9.61,27.82,16.33,14.6,11.49,27.43,24.68,38.72,39.41,9.01,11.75,17.23,24.03,25.15,36.52,10.41,16.41,20.37,33.09,28.7,50.66,6.74,14.21,13.47,28.46,18.25,43.51.39,1.23,1.01,2.35,1.9,3.3,3.28,3.49,8.44,2.74,10.58-1.54.25-.49.26-1.1.73-1.49Zm-169.38-114.24c.15,3.5,0,7,.41,10.51.49,4.19.83,8.39,1.56,12.55.47,2.67,1.04,5.32,2,7.87.94,2.49,2.3,3.31,4.84,3.37,2.09.05,4.09-.7,6.18-.53,4.36.35,8.76.49,13.09,1.07,10.72,1.43,20.79,4.87,30.03,10.52,12.12,7.41,24.22,14.89,33.92,25.52,1,1.1,2.25,1.77,3.63,2.23,4.31,1.44,9.05-2.42,8.45-6.91-.17-1.27-.68-2.46-1.31-3.58-2.29-4.11-4.58-8.22-6.88-12.33-5.43-9.67-11.1-19.19-17.46-28.29-5.82-8.32-12.41-15.99-19.31-23.4-5.39-5.79-11.13-11.21-17.44-16.01-4.44-3.37-8.82-6.87-14.08-8.95-4.67-1.84-9.44-2.98-14.47-1.77-5.89,1.41-10.05,4.78-11.62,10.8-1.48,5.68-1.63,11.5-1.52,17.34Z"/>
  <path class="cls-2" d="m394.19,267.37c-2.6,2.05-5.67,3.25-8.62,4.64-1.73.82-3.44,1.66-5.1,2.62-6.01,3.48-12.08,6.85-18.05,10.39-8.58,5.1-16.77,10.78-24.93,16.53-7.44,5.25-14.55,10.9-21.66,16.57-13.09,10.43-24.75,22.4-36.21,34.51-9.53,10.07-18.82,20.4-27.13,31.56-4.19,5.63-8.78,10.96-12.42,16.99-2.68,4.44-5.35,8.89-8.3,13.16-.75,1.09-1.4,2.35-2.91,2.62.92-1.59,1.59-3.28,2.1-5.05,1.79-6.22,3.62-12.43,5.43-18.64,7.13-24.49,16.91-47.91,28.66-70.51,22.47-43.19,49.23-83.55,80.32-121.04,7.09-8.56,14.22-17.08,22.14-24.89,5.41-5.35,11.2-10.25,17.67-14.31,1.97-1.23,4.03-2.29,6.31-2.85,3.07-.76,4.61-.09,6.11,2.71,1.15,2.14,1.67,4.49,2.05,6.86.79,4.91.9,9.87.76,14.83-.51,17.53-2.52,34.9-5.81,52.13-1.44,7.54-2.85,15.07-3.68,22.71-.37,3.44.4,6.33,3.25,8.47Zm-26.68-28.93c.25-2.02-.17-4.01-.56-5.94-.52-2.62-1.65-5-3.93-6.63-3.46-2.48-7.15-2.45-10.91-.87-5.51,2.31-9.77,6.29-13.66,10.68-3.76,4.23-7.36,8.6-10.81,13.08-4.09,5.3-8.27,10.53-12.17,15.97-7.09,9.88-12.97,20.5-18.48,31.31-3.74,7.34-7.52,14.61-12.36,21.3-.51.7-.98,1.43-1.25,2.3-.73,2.3-.23,4.24,1.51,5.87,1.74,1.64,3.74,1.59,5.79.78,1.58-.62,2.88-1.74,4.05-2.93,3.19-3.26,6.77-6.08,10.21-9.04,6.53-5.61,13.45-10.75,20.38-15.84,10.66-7.84,21.51-15.42,32.33-23.04,3.2-2.25,5.36-5.17,6.61-8.84,1.07-3.12,1.44-6.34,1.9-9.58.87-6.17.69-12.4,1.32-18.58Z"/>
  <path class="cls-7" d="m394.19,267.37c-2.86-2.14-3.62-5.04-3.25-8.47.82-7.64,2.24-15.18,3.68-22.71,3.29-17.22,5.3-34.59,5.81-52.13.14-4.96.03-9.91-.76-14.83-.38-2.37-.91-4.72-2.05-6.86-1.5-2.8-3.04-3.47-6.11-2.71-2.28.56-4.34,1.62-6.31,2.85-6.47,4.05-12.25,8.96-17.67,14.31-7.92,7.82-15.04,16.34-22.14,24.89-31.09,37.49-57.85,77.85-80.32,121.04-11.75,22.6-21.53,46.02-28.66,70.51-1.81,6.21-3.64,12.42-5.43,18.64-.51,1.77-1.18,3.46-2.1,5.05,0,0,0-.01,0-.01-.3-.02-.47.12-.49.42-.36.18-.71.37-1.07.52-3.33,1.35-6.55-.2-7.53-3.67-.42-1.48-.4-3-.25-4.52.87-8.96,3.03-17.63,5.7-26.19,8.35-26.72,19.74-52.12,33.03-76.73,22.57-41.79,49.21-80.79,79.68-117.2,5.85-6.99,11.83-13.87,18.19-20.4,5.48-5.63,11.39-10.76,17.77-15.34,3.52-2.52,7.2-4.76,11.27-6.3,2.49-.94,5.04-1.58,7.7-1.67,6.34-.21,11.3,2.39,14.98,7.49,3.13,4.34,4.44,9.35,5.22,14.53.94,6.27.95,12.59.72,18.91-.69,18.74-3.13,37.26-6.66,55.66-1.13,5.89-2.14,11.8-2.76,17.76-.12,1.11-.3,2.22-.71,3.27-1.34,3.46-4.49,5.12-8.08,4.25-.46-.11-.92-.24-1.38-.37Z"/>
  <path class="cls-3" d="m646.21,341.47c-.47.38-.48.99-.73,1.49-2.15,4.28-7.3,5.03-10.58,1.54-.89-.95-1.51-2.07-1.9-3.3-4.78-15.05-11.51-29.29-18.25-43.51-8.33-17.57-18.3-34.25-28.7-50.66-7.92-12.49-16.14-24.77-25.15-36.52-11.29-14.73-24.12-27.92-38.72-39.41-8.54-6.72-17.78-12.2-27.82-16.33-4.67-1.93-9.49-3.35-14.55-3.87-.32-.03-.63-.08-.95-.1-9.58-.6-12.94,2.92-15.68,9.34-2.94,6.87-4.63,14.11-5.91,21.45-2.02,11.61-2.86,23.31-2.62,35.1.25,12.47.63,24.93,1.81,37.35.22,2.31.22,4.63-.08,6.94-.53,4.08-2.19,5.78-6.2,6.34-3.33-.68-4.92-3.02-5.79-6.05-1.15-4.02-1.64-8.15-1.9-12.3-.93-15-1.76-30.02-1.11-45.06.62-14.58,2.61-28.98,7.15-42.92.69-2.12,1.48-4.22,2.36-6.28,5.27-12.45,14.81-18.46,29.46-17.26,7.41.61,14.41,2.81,21.2,5.73,10.94,4.7,20.92,10.94,30.26,18.32,17.97,14.2,33.07,31.05,46.35,49.6,16.82,23.5,31.92,48.06,45.33,73.67,4.3,8.21,8.12,16.67,11.7,25.22,2.8,6.71,6.02,13.25,8.46,20.1,1.31,3.68,2.72,7.36,2.57,11.38Z"/>
  <path class="cls-4" d="m568.2,360.35c-8.92,8.44-18.9,15.45-29.41,21.74-10.62,6.35-22.01,10.94-33.68,14.89-.37.12-.73.31-1.03.16-2.71-9.35-7.64-17.41-13.53-24.94-5.87-7.51-13.26-13.08-21.82-17.22-7.28-3.53-14.92-4.51-22.88-3.64-8.1.88-15.8,3.1-23.15,6.63-5.4,2.59-10.95,4.83-16.6,6.87-5.29,1.91-10.34,1.53-15.33-.89-3.6-1.75-7.24-3.36-11.21-4.12-7.28-1.38-14.14-.05-20.72,3.14-5.1,2.47-9.57,5.79-13.34,10.01-8.03,8.96-14.55,18.83-18.06,30.47-.6,1.97-.65,2-2.14,1.76-12.78-2.1-25.47-4.6-37.83-8.55-4.34-1.39-8.55-3.12-12.59-5.26-3.05-1.62-5.83-3.6-8.28-6.04.24-.04.51-.02.7-.14,2.97-1.89,5.89-1.18,8.9-.03,3.66,1.39,7.23,2.97,10.81,4.53,4.07,1.77,8.4,2.44,12.71,3.21,3.99.72,8,1.32,12.03,1.78,2.37.27,4.79.15,7.18.2.83.02,1.23-.47,1.57-1.21,3.86-8.4,9.07-15.91,15.12-22.87,5.26-6.05,11.91-9.99,19.26-12.91,4.7-1.87,9.61-2.94,14.64-3.24,3.5-.2,6.97.48,10.42,1.09,5.78,1.04,11.22,3.1,16.38,5.85,1.79.95,3.18.98,5.08.09,9.25-4.31,18.34-9.01,28.08-12.21,7.05-2.31,14.24-3.72,21.64-3,9.03.88,17.69,3.01,25.52,8.01,6.57,4.19,12.53,9.03,17.94,14.62,2.94,3.04,5.89,6.07,9.13,8.82,1.87,1.59,3.41,3.58,5.06,5.41.85.95,1.66,1.4,3.09,1.05,3.26-.8,6.45-1.79,9.61-2.89,3.24-1.13,6.48-2.26,9.69-3.45,3.07-1.14,6.03-2.54,8.84-4.21,5.92-3.52,12.34-6.02,18.43-9.2,1.98-1.04,3.92-2.15,5.91-3.17,1.2-.62,2.44-1.2,3.86-1.11Z"/>
  <path class="cls-11" d="m513.27,544.33c.02-2.31.12-4.63.02-6.94-.05-1.34.47-1.76,1.71-2.03,9.13-1.95,17.78-5.18,25.73-10.1,14.14-8.75,25.24-20.51,33.65-34.78,9.11-15.46,14.71-32.16,17.27-49.92,1.38-9.61,1.72-19.23,1.33-28.91-.1-2.39-.65-4.74-.53-7.15,2.71,5.4,4.25,11.18,5.26,17.09,2.39,14.02,1.27,27.88-2.37,41.55-5.85,21.94-16.66,41.09-32.81,57.08-9.95,9.85-21.35,17.51-34.9,21.63-4.69,1.42-9.47,2.27-14.36,2.47Z"/>
  <path class="cls-11" d="m239.01,498.42c1.25,3.44,2.39,6.92,3.76,10.3,4.22,10.39,10,19.8,18.09,27.66,10.02,9.73,21.77,16.08,35.71,18.05,6.52.92,13.05.86,19.57-.07,1.08-.15,2.15-.43,3.65-.31-2.27,3.72-3.2,7.67-4.24,11.58-11.64,1.94-22.96.69-33.73-4.1-15.73-7-27.19-18.4-34.43-34.07-4.08-8.83-6.78-18.06-8.36-27.63-.08-.46-.03-.94-.03-1.42Z"/>
  <path class="cls-2" d="m228.39,417.37c.02-.3.19-.44.49-.42-.01.31-.18.45-.49.42Z"/>
  <path class="cls-9" d="m465.87,416.43c-2.41,5.03-3.97,9.96-5.04,15.05-2.81,13.42-3.04,26.79.59,40.13,1.85,6.8,5.48,12.39,11.11,16.63,14.58,10.99,33.02,13.48,49.47,3.99,3.98-2.3,7.44-5.24,10.53-8.63,6.35-6.95,8.57-15.16,7.48-24.39-.61-5.13-2.17-9.98-4.41-14.62-3.65-7.53-6.18-15.42-7.62-23.65-.73-4.17-1.11-8.4-1.14-12.64-.02-2.07.23-4.16-.48-6.18-.23-.65,0-1.07.63-1.31.52-.2,1.04-.42,1.55-.63,6.79-2.82,13.54-5.73,20.09-9.08,8.59-4.4,16.41-9.9,23.59-16.33.52-.47.92-1.12,1.89-1.3.37,1,.77,2.01,1.13,3.04,6.88,19.56,9.22,39.67,6.63,60.23-3.29,26.03-13.78,48.74-32.35,67.48-7.21,7.28-15.58,12.99-24.88,17.29-15.76,7.28-31.77,7.68-48,1.66-16.59-6.15-29.23-17.14-38.74-31.87-9.88-15.31-15.54-32.15-17.69-50.2-.74-6.2-1.04-12.42-.9-18.67.04-1.6.1-3.2.22-4.79.14-1.86.18-1.89,1.99-1.56,12.06,2.21,24.18,1.98,36.33,1.08,2.54-.19,5.08-.46,8.01-.72Z"/>
  <path class="cls-9" d="m265.65,398.54c8.4,6.1,17.92,9.79,27.57,13.11.09.91-.44,1.45-.74,2.07-6,12.43-10.87,25.23-13.06,38.94-1.82,11.35-1.11,22.47,3.13,33.25,2.97,7.56,7.69,13.78,14.33,18.5,18.49,13.13,44.35,4.89,51.82-16.51,1.51-4.33,2.42-8.77,2.53-13.37.2-8.15.11-16.31-.06-24.46-.19-9.11.95-18.01,3.76-26.7.85-2.64.53-2.18,3.11-2.19,9.21-.04,18.37-.6,27.44-2.34,1.82-.35,1.84-.32,2.13,1.46,1.18,7.36,1.63,14.79,1.37,22.23-.34,10.02-1.76,19.88-4.52,29.55-.53,1.86-1.33,3.01-3.21,3.67-2.86,1.01-5.54,2.48-8.07,4.17-7.55,5.03-9.2,13.11-4.09,20.57.86,1.25.76,1.98-.11,3.08-6.41,8.1-13.08,15.96-20.86,22.79-8.57,7.53-18.06,13.46-29.24,16.31-20.95,5.35-38.91-.04-53.79-15.48-9.86-10.23-15.51-22.77-18.47-36.55-4.58-21.29-2.39-42.12,4.54-62.59,3.42-10.11,8.19-19.59,13.83-28.65.16-.26.38-.5.67-.86Z"/>
  <path class="cls-14" d="m386.6,521.52c.65,3.44,1.04,6.94,2.68,10.24-3.18,1-6.23,1.54-9.26,2.15-2.67.53-5.28,1.25-7.84,2.17-9.28,3.33-15.09,9.94-17.85,19.26-1.69,5.72-2.33,11.64-1.51,17.56,1.45,10.51,10.64,19.25,21.21,20.56,4.76.59,9.41.27,13.93-1.4,4.93-1.82,9.03-4.73,12.08-9.07,1.65-2.35,3.35-4.68,5.22-6.87.78-.91,1.64-1.29,2.86-1.4,6.58-.59,12.89.51,19.05,2.77,3.45,1.26,6.89,2.58,10.51,3.27,5.78,1.09,11.17.08,15.92-3.45,5.91-4.4,8.23-10.62,7.65-17.69-.97-11.96-5.33-22.68-13.4-31.66-5.04-5.62-11.25-9.41-18.88-10.51-3.48-.5-6.86.02-10.2.92-4.81,1.3-9.36,3.22-13.6,5.86-2.44,1.52-4.92,2.98-7.42,4.41-.67.39-1.31.92-2.32.94-.34-2.82-1.02-5.59-.96-8.46.81.01,1.57-.25,2.34-.47,9.6-2.77,16.92-8.77,22.97-16.45,2.42-3.07,4.5-6.39,6.74-9.6.74.54,1.07,1.38,1.55,2.1,7.87,11.88,17.55,21.94,29.73,29.48,12.15,7.52,25.41,11.04,39.64,11.13.64,0,1.28-.03,1.92-.02,1.74.02,1.79.02,1.89,1.67.33,5.23-.15,10.34-1.96,15.34-3.78,10.47-10.41,18.83-18.99,25.7-9.88,7.9-20.76,14.02-32.83,17.99-12.23,4.02-24.49,7.88-37.23,10-10.41,1.73-20.84,1.81-31.3.6-6.84-.79-13.61-1.85-20.18-4.01-8.66-2.85-16.17-7.67-22.84-13.74-5.47-4.98-8.98-11.19-9.84-18.68-.45-3.97.34-7.81,1.7-11.52,1.26-3.47,3.13-6.65,4.81-9.91.54-1.06,1.52-1.35,2.47-1.74,8.71-3.61,16.59-8.58,23.81-14.63,6.61-5.53,12.22-11.95,16.94-19.15,1.04.2,1.52,1.11,2.15,1.78,2.38,2.51,5.27,4,8.67,4.55Z"/>
  <path class="cls-14" d="m493.43,400.37c-3.91,1.23-7.71,2.05-11.52,2.84-14.52,3.01-29.17,4.77-44.03,4.53-5.12-.08-10.23-.32-15.32-.81-1.92-.19-1.94-.21-1.6-2.18.64-3.62,1.3-7.23,1.96-10.85.25-1.34.45-2.69.32-4.05-.15-1.56-.83-2.76-2.42-3.23-1.58-.47-2.82.17-3.81,1.36-.98,1.19-1.5,2.63-2,4.06-1.82,5.14-2.97,10.45-3.82,15.82-3.28,20.69-2.14,41.1,4.01,61.18.14.45.36.89.15,1.53-6.74-.56-13.46.33-20.43,1.2.24-1.07.39-1.89.61-2.7,2.99-11.26,4.56-22.71,4.52-34.36-.02-6.65-.81-13.24-1.93-19.78-.18-1.04-.23-2.03.02-3.07.53-2.24.1-4.29-1.47-6.03-.72-.79-1.11-1.72-1.45-2.72-1.2-3.56-2.57-7.06-4.35-10.38-.91-1.7-2-3.27-3.26-4.73-1.86-2.16-3.97-2.75-5.91-1.72-1.84.98-2.56,3-1.96,5.64.78,3.44,2.06,6.72,3.17,10.05,1.19,3.55,1.2,3.6-2.51,4.21-9.98,1.66-20.05,1.82-30.13,1.41-4.38-.18-8.76-.56-12.98-.84-.59-.78-.14-1.27.06-1.74,4-9.38,9.72-17.61,16.8-24.9,3.15-3.24,6.85-5.73,11.08-7.42,5.13-2.05,10.29-2.08,15.45-.2,1.95.71,3.85,1.57,5.76,2.38,7.79,3.29,15.64,3.56,23.6.61,6.3-2.34,12.43-5.07,18.44-8.06,6.17-3.08,12.69-4.75,19.55-5.24,5.42-.39,10.44.73,15.24,3.29,9.83,5.25,17.76,12.38,23.21,22.23,2.31,4.18,4.3,8.52,6.99,12.68Z"/>
  <path class="cls-12" d="m360.72,567.49c-.04-2.67.23-5.14.73-7.56,1.94-9.42,8.25-15.52,17.91-17.3,4.4-.81,8.81-1.52,13.23-2.24,2.72-.44,5.22-1.44,7.62-2.76,3.29-1.81,6.43-3.87,9.59-5.9,4.02-2.58,8.41-4.19,13.09-5.11,3.27-.64,6.37-.18,9.31,1.31,4.28,2.17,7.88,5.14,10.62,9.11,4.72,6.82,7.55,14.4,9,22.52.2,1.09.23,2.23.24,3.34.07,7.25-5.55,12.08-12.78,11.01-3.34-.5-6.5-1.62-9.66-2.75-4.75-1.69-9.63-2.8-14.6-3.68-5.71-1.01-10.33,1.01-14.66,4.32-2.49,1.9-4.57,4.24-6.72,6.49-4.62,4.83-10.39,6.79-16.91,6.44-5.71-.31-10.49-2.59-13.74-7.55-1.98-3.02-2.46-6.36-2.28-9.68Zm9.77-6.36c-1.67.03-3.59.52-5.3,1.63-1.73,1.12-2.27,3.14-1.41,4.81.8,1.55,2.71,2.32,4.52,1.75.6-.19,1.27-.44,1.67-.89,1.04-1.16,2.21-1.07,3.48-.63,1.36.47,2.72.9,4.07,1.4,3.11,1.15,5.97.6,8.6-1.28,1.43-1.02,2.77-2.16,4.15-3.23,1.79-1.39,3.76-2.45,6.03-2.74,2.94-.37,5.69-1.52,8.62-1.96.72-.11,1.39-.37,1.96-.84.8-.67,1.19-1.52.87-2.55-.31-1.01-1.13-1.14-2.08-1.21-1.5-.12-3.04-.24-4.47-.67-4.86-1.48-8.95,0-12.67,3.04-1.42,1.16-2.74,2.44-4.11,3.66-3.76,3.34-3.06,3.45-7.84,1.29-1.83-.83-3.68-1.54-6.09-1.57Zm58.26-3.81c3.61-.59,7.23-1.17,10.84-1.78.38-.06.76-.25,1.09-.47,1.31-.88,1.39-2.44.17-3.42-.3-.24-.69-.4-1.05-.55-2.75-1.1-5.58-1.95-8.46-2.56-2.65-.56-5.26-.04-7.57,1.47-1.22.8-1.85,1.96-1.71,3.47.15,1.53,1.11,2.43,2.44,2.98,1.35.56,2.79.65,4.25.87Z"/>
  <path class="cls-13" d="m315.44,458.07c.81-.84.92-1.88,1.21-2.83.35-1.15.61-2.33,1.05-3.43.68-1.69,1.83-2.99,3.55-3.72.07-.03.15-.06.23-.08,1.25-.36,2.16-1.95,3.69-1.19,1.81.89,3.4,2.1,4.44,3.89.61,1.05.92,2.21.98,3.43.15,3.05-.01,6.08-.61,9.07-.27,1.34-.71,2.66-1.68,3.66-.79.82-.75,1.64-.49,2.64,1,3.74.73,7.45-.53,11.09-.47,1.37-.75,2.76-.92,4.2-.96,8.23-10.69,13.8-18.3,10.51-2.27-.98-4.06-2.53-5.27-4.7-.51-.91-.99-1.81-1.71-2.59-2.9-3.15-4.54-6.94-5.4-11.07-.87-4.19.09-7.94,3.14-11.04,1.29-1.31,2.66-2.54,3.99-3.8,2.96-2.8,4.33-6.25,4.28-10.3-.04-3.86-.4-7.66-1.77-11.31-.17-.44-.28-.92-.34-1.39-.12-.95.17-1.74,1.07-2.21.91-.48,1.72-.2,2.44.39,1,.82,1.74,1.88,2.33,3.02,2.61,4.95,4.04,10.23,4.28,15.83.03.59-.18,1.23.32,1.95Zm2.6,19.74c.04-1.31-.35-2.52-.95-3.65-1.24-2.32-4.02-3.75-6.59-3.44-2.6.31-4.79,2.34-5.41,5.02-.84,3.62,1.93,8.19,5.53,9.12.87.23,1.72.2,2.57-.1,3.01-1.07,4.87-3.73,4.85-6.95Z"/>
  <path class="cls-13" d="m502.98,445.93c1.11-1.96,1.87-3.43,1.86-5.15,0-1.14.24-2.09,1.38-2.54,1.22-.48,2.19.11,2.98.98.42.46.81,1.01,1.05,1.59,1.9,4.57,3.04,9.27,1.93,14.24-.43,1.92-.34,3.68.33,5.59,2.02,5.79-.57,12.61-5.99,16.09-9.23,5.92-24.33,2.86-26.26-13.05-.6-4.95.47-9.69,2.42-14.25,1.32-3.08,3.08-5.96,4.24-9.12.73-1.98.69-2.15-1.29-3.03-1.17-.52-2.37-.95-3.41-1.72-4.01-2.96-3.52-8.35.96-10.54,1.94-.95,3.97-1.1,6.07-.6,6.2,1.47,11.29,7.04,12.11,13.42.33,2.54.99,5,1.62,8.1Zm3.68,14.49c.16-2.49-1.02-4.38-2.97-5.86-3.08-2.34-8.92-1.16-10.47,2.15-.54,1.15-1.13,2.25-1.78,3.35-1.32,2.19-1.57,4.52-.09,6.78,1.39,2.13,3.43,3.02,5.94,2.85,2.23-.15,4.16-1.04,5.83-2.49,2.05-1.77,3.7-3.77,3.55-6.78Z"/>
  <path class="cls-1" d="m426.52,494.58c-2.24,3.21-4.32,6.53-6.74,9.6-6.05,7.68-13.37,13.68-22.97,16.45-.77.22-1.52.49-2.34.47-.75-3.09-.28-6.19-.07-9.28.06-.91.48-1.45,1.37-1.72,11.62-3.45,20.19-10.92,27.09-20.58.09-.12.25-.19.52-.39,1.18,1.75,2.29,3.52,3.14,5.45Z"/>
  <path class="cls-1" d="m386.6,521.52c-3.4-.55-6.29-2.04-8.67-4.55-.63-.67-1.11-1.58-2.15-1.78.99-1.71,2.01-3.4,2.96-5.13.44-.8.91-1.26,1.88-.84,1.61.7,3.3,1.14,5.01,1.49.87.18,1.14.67,1.06,1.53-.29,3.09-.06,6.18-.1,9.28Z"/>
  <path class="cls-13" d="m511.14,427.2c.02,2.18-1.73,3.98-3.91,4.01-2.16.04-3.99-1.71-4.06-3.88-.08-2.29,1.76-4.17,4.02-4.13,2.16.04,3.93,1.83,3.95,4Z"/>
  <path class="cls-13" d="m331.27,438.41c.03,1.82-1.43,3.35-3.29,3.44-1.96.1-3.61-1.41-3.64-3.33-.03-1.84,1.41-3.34,3.28-3.42,1.98-.09,3.61,1.39,3.64,3.31Z"/>
  <path class="cls-8" d="m476.83,227.23c-.11-5.83.04-11.66,1.52-17.34,1.57-6.02,5.73-9.39,11.62-10.8,5.03-1.2,9.8-.07,14.47,1.77,5.27,2.08,9.64,5.58,14.08,8.95,6.31,4.79,12.05,10.22,17.44,16.01,6.9,7.41,13.49,15.08,19.31,23.4,6.36,9.1,12.03,18.62,17.46,28.29,2.3,4.11,4.59,8.22,6.88,12.33.63,1.12,1.14,2.31,1.31,3.58.6,4.49-4.13,8.35-8.45,6.91-1.38-.46-2.63-1.13-3.63-2.23-9.7-10.64-21.8-18.11-33.92-25.52-9.24-5.65-19.31-9.08-30.03-10.52-4.33-.58-8.73-.71-13.09-1.07-2.09-.17-4.09.58-6.18.53-2.54-.07-3.9-.88-4.84-3.37-.96-2.55-1.53-5.2-2-7.87-.73-4.16-1.07-8.36-1.56-12.55-.41-3.51-.26-7.01-.41-10.51Z"/>
  <path class="cls-8" d="m367.51,238.44c-.63,6.17-.45,12.4-1.32,18.58-.46,3.24-.83,6.46-1.9,9.58-1.26,3.67-3.41,6.58-6.61,8.84-10.82,7.62-21.68,15.2-32.33,23.04-6.93,5.1-13.85,10.23-20.38,15.84-3.44,2.96-7.02,5.78-10.21,9.04-1.16,1.19-2.47,2.3-4.05,2.93-2.05.81-4.05.86-5.79-.78-1.74-1.64-2.24-3.57-1.51-5.87.27-.87.74-1.6,1.25-2.3,4.83-6.69,8.62-13.96,12.36-21.3,5.51-10.81,11.39-21.43,18.48-31.31,3.9-5.43,8.09-10.67,12.17-15.97,3.45-4.48,7.05-8.85,10.81-13.08,3.89-4.38,8.14-8.36,13.66-10.68,3.76-1.58,7.45-1.61,10.91.87,2.28,1.63,3.41,4.01,3.93,6.63.38,1.94.8,3.92.56,5.94Z"/>
  <path class="cls-7" d="m370.49,561.14c2.41.03,4.26.74,6.09,1.57,4.79,2.17,4.09,2.06,7.84-1.29,1.37-1.22,2.69-2.5,4.11-3.66,3.72-3.04,7.81-4.53,12.67-3.04,1.43.44,2.97.56,4.47.67.95.07,1.77.2,2.08,1.21.32,1.03-.07,1.89-.87,2.55-.56.47-1.23.73-1.96.84-2.92.43-5.67,1.58-8.62,1.96-2.27.29-4.24,1.35-6.03,2.74-1.38,1.08-2.73,2.21-4.15,3.23-2.63,1.89-5.49,2.43-8.6,1.28-1.34-.5-2.71-.93-4.07-1.4-1.28-.44-2.44-.53-3.48.63-.4.44-1.07.7-1.67.89-1.81.57-3.73-.2-4.52-1.75-.86-1.67-.32-3.68,1.41-4.81,1.71-1.11,3.63-1.6,5.3-1.63Z"/>
  <path class="cls-7" d="m428.75,557.33c-1.46-.22-2.9-.31-4.25-.87-1.33-.55-2.3-1.45-2.44-2.98-.14-1.5.49-2.67,1.71-3.47,2.31-1.51,4.92-2.03,7.57-1.47,2.88.61,5.72,1.46,8.46,2.56.37.15.75.3,1.05.55,1.21.98,1.13,2.54-.17,3.42-.32.22-.71.41-1.09.47-3.61.61-7.22,1.19-10.84,1.78Z"/>
  <path class="cls-6" d="m318.04,477.8c.03,3.21-1.84,5.87-4.84,6.95-.86.31-1.7.33-2.57.1-3.6-.93-6.37-5.5-5.53-9.12.62-2.68,2.81-4.71,5.41-5.02,2.57-.31,5.35,1.12,6.59,3.44.6,1.13,1,2.34.95,3.65Z"/>
  <path class="cls-6" d="m506.66,460.41c.15,3.01-1.5,5.01-3.55,6.78-1.67,1.44-3.61,2.34-5.83,2.49-2.51.17-4.55-.73-5.94-2.85-1.47-2.26-1.22-4.59.09-6.78.66-1.09,1.24-2.19,1.78-3.35,1.55-3.31,7.39-4.48,10.47-2.15,1.95,1.48,3.14,3.38,2.97,5.86Z"/>
</svg>