<?xml version="1.0" encoding="UTF-8"?>
<svg id="_图层_1" data-name="图层 1" xmlns="http://www.w3.org/2000/svg" viewBox="0 0 960 960">
  <defs>
    <style>
      .cls-1 {
        fill: #bb823d;
      }

      .cls-1, .cls-2, .cls-3, .cls-4, .cls-5, .cls-6, .cls-7, .cls-8, .cls-9, .cls-10, .cls-11, .cls-12, .cls-13 {
        stroke-width: 0px;
      }

      .cls-2 {
        fill: #030303;
      }

      .cls-3 {
        fill: #bb3a98;
      }

      .cls-4 {
        fill: #fdabe6;
      }

      .cls-5 {
        fill: #fcaae4;
      }

      .cls-6 {
        fill: #040304;
      }

      .cls-7 {
        fill: #fca9e2;
      }

      .cls-8 {
        fill: #b73b96;
      }

      .cls-9 {
        fill: #040303;
      }

      .cls-10 {
        fill: #ba3997;
      }

      .cls-11 {
        fill: #f4d6aa;
      }

      .cls-12 {
        fill: #fdfdfd;
      }

      .cls-13 {
        fill: #fe72d7;
      }
    </style>
  </defs>
  <path class="cls-11" d="m498.53,481.92c-1.01,1.6-.33,3.37-.49,5.06-1.16-.3-1.88-1.46-3.09-1.66-.09.19-.21.32-.2.44.02.56.06,1.12.12,1.67,1.29,12.18,1.63,24.39,1.19,36.63-.41,11.45-2.13,22.55-7.17,33-4.89,10.15-11.26,19.09-20.03,26.27-11.32,9.27-24.51,14.64-38.46,18.23-14.9,3.83-30.16,4.49-45.47,3.9-8.08-.31-16.1-1.27-23.91-3.44-12.89-3.58-23.25-10.66-30.44-22.17-4.53-7.25-6.03-14.86-3.53-23.14.53-1.76.93-3.56.66-5.43-.16-1.15.32-1.75,1.47-2.03,2.25-.56,4.45-1.28,6.6-2.15,14.8-6,26.86-15.59,36.7-28.07.54-.68.93-1.5,1.73-1.95,1.43,2.77,3.94,4.2,6.64,5.43,2.72,1.24,5.67,1.34,8.53,1.88.08.47.16.94.24,1.41.67,3.95,1.73,7.76,3.83,11.22,1.11,1.83,2.59,3.21,4.68,3.86,2.18.67,3.78-.02,4.66-2.1.67-1.58.89-3.22.49-4.91-.33-1.39-.74-2.77-1.05-4.16-.54-2.4-1.33-4.76-1.25-7.26.82-.28,1.65-.56,2.47-.86,10.54-3.74,16.91-11.44,20.58-21.69.97-2.7.78-5.3-.94-7.69.1-1.01.22-2,.52-3.01,1.36-4.63-.5-9.48-4.51-12.21-1.61-1.1-3.4-1.76-5.31-2.1-4.77-.84-9.56-.54-14.34-.19-1.65.12-3.3.25-4.9.38-.35-1.05.1-1.77.29-2.52,5.17-20.81,6.13-41.66.78-62.6-.58-2.28-1.81-3.66-3.93-4.38-1.22-.41-2.47-.66-3.76-.64-2.8.05-5.6.04-8.39.19-12.69.68-25.37,1.42-38.06,2.12-.86.05-1.74.28-2.59-.09-.22-.58,0-1.11.12-1.65.87-3.66,2.87-6.75,5.07-9.7,6.46-8.67,14.17-16.05,23.17-22.04,14.97-9.97,31.43-16.28,49.04-19.71,6.21-1.21,12.46-2.09,18.81-1.69,15.32.96,28.32,7.07,39.43,17.57,6.56,6.21,11.04,13.59,13.51,22.25.92,3.23,1.76,6.48,2.36,9.78.21,1.14.45,2.28.7,3.57,1.73-.82,2.89-2.12,4.48-2.66.36,2.17.73,4.34,1.09,6.51-2.55,2.06-5.5,3.51-8.22,5.31-11.11,7.36-22.17,14.81-33.23,22.24-.86.58-1.71,1.19-2.46,1.9-3.29,3.1-3.35,7.44-.06,10.54,1.39,1.31,2.96,2.43,4.52,3.54,7.8,5.56,15.66,11.04,23.43,16.64,5.89,4.24,11.92,8.27,17.9,12.37Zm-82.21,86.66c.88-.07,1.76-.09,2.62-.21,12.13-1.71,22.09-11.32,24.27-23.4.29-1.59.29-3.18-.39-4.7-1.34-3.01-4.4-3.89-7.15-2.04-1.45.97-2.34,2.37-3.01,3.94-.81,1.91-1.56,3.85-2.44,5.73-2.68,5.78-7.31,9.13-13.41,10.58-1.47.35-2.99.52-4.46.88-2.21.54-3.44,1.81-3.65,3.61-.23,2,.84,3.74,2.94,4.74,1.48.7,3.05.9,4.67.88Z"/>
  <path class="cls-2" d="m374.2,517.08c-.8.45-1.19,1.27-1.73,1.95-9.84,12.49-21.89,22.08-36.7,28.07-2.15.87-4.35,1.59-6.6,2.15-1.15.29-1.64.88-1.47,2.03.26,1.87-.13,3.67-.66,5.43-2.5,8.28-1.01,15.89,3.53,23.14,7.19,11.5,17.55,18.58,30.44,22.17,7.81,2.17,15.84,3.13,23.91,3.44,15.31.59,30.57-.07,45.47-3.9,13.95-3.58,27.14-8.96,38.46-18.23,8.77-7.18,15.14-16.13,20.03-26.27,5.04-10.45,6.76-21.55,7.17-33,.44-12.24.1-24.45-1.19-36.63-.06-.56-.1-1.11-.12-1.67,0-.13.11-.25.2-.44,1.21.2,1.93,1.36,3.09,1.66,2.83,2.22,5.92,4.05,8.92,6.01,1.03.67,1.55,1.36,1.61,2.65.62,13.68.15,27.32-1.34,40.93-1,9.06-3.6,17.69-7.54,25.88-7.03,14.61-16.9,26.85-30.42,36-6.6,4.47-13.93,7.44-21.27,10.39-9.95,3.99-20.38,5.97-30.97,7.12-15.71,1.71-31.42,1.76-47.1-.43-11.8-1.65-22.83-5.35-32.62-12.32-8.11-5.78-14.25-13.24-18.66-22.12-3.02-6.08-4.23-12.53-3.41-19.31.08-.63.08-1.27.11-1.91.62-2.77,1.23-5.53,1.84-8.24-1.01-.46-1.81-.27-2.6-.26-3.84.05-7.66-.14-11.45-.83-12.51-2.26-23.07-8.2-32.12-17-7.56-7.36-12.96-16.17-17.21-25.74-1.36-3.05-2.54-6.18-3.8-9.27-1.82-6.29-3.57-12.59-4.57-19.07-3.18-20.59-2.35-40.89,4.32-60.78.08-.23.19-.45.21-.69.27-2.93,2.06-4.54,4.69-5.43,1.51-.17,3.01-.37,4.52-.49,15.62-1.26,31.28-1.98,46.92-2.82,7.19-.38,14.37-.75,21.56-1.14,2.51-.14,2.21-.26,2.17-2.35-.07-3.69,1.1-7.08,2.76-10.32,2.27-4.42,4.97-8.57,8.06-12.46,8.81-11.08,19.76-19.52,32.31-25.91,15.37-7.82,31.63-12.95,48.71-15.36,8.6-1.21,17.21-1.19,25.77.61,14.76,3.11,27.08,10.54,37.93,20.85,9.54,9.07,14.85,20.24,17.54,32.89.25,1.18.11,1.9-.97,2.57-2.17,1.34-4.25,2.81-6.36,4.23-1.59.54-2.75,1.84-4.48,2.66-.26-1.29-.5-2.43-.7-3.57-.6-3.31-1.43-6.55-2.36-9.78-2.47-8.66-6.95-16.04-13.51-22.25-11.1-10.51-24.1-16.61-39.43-17.57-6.35-.4-12.6.48-18.81,1.69-17.61,3.43-34.07,9.74-49.04,19.71-8.99,5.99-16.71,13.37-23.17,22.04-2.2,2.95-4.21,6.04-5.07,9.7-.13.54-.34,1.07-.12,1.65.84.37,1.73.14,2.59.09,12.69-.7,25.37-1.44,38.06-2.12,2.79-.15,5.59-.13,8.39-.19,1.29-.02,2.55.22,3.76.64,2.12.72,3.35,2.1,3.93,4.38,5.35,20.95,4.39,41.8-.78,62.6-.19.75-.64,1.47-.29,2.52,1.6-.12,3.25-.26,4.9-.38,4.79-.35,9.57-.65,14.34.19,1.91.34,3.7,1,5.31,2.1,4.01,2.73,5.86,7.58,4.51,12.21-.3,1.01-.41,2-.52,3.01-1.81,4.5-4.67,8.27-8.11,11.64-3.79,3.7-7.98,6.81-12.82,9.02-.79.36-1.66.64-1.65,1.78.03,2.61-.2,5.23.47,7.8-.08,2.51.72,4.86,1.25,7.26.31,1.4.72,2.77,1.05,4.16.4,1.69.18,3.33-.49,4.91-.88,2.07-2.48,2.77-4.66,2.1-2.09-.64-3.57-2.03-4.68-3.86-2.1-3.46-3.16-7.28-3.83-11.22-.08-.47-.16-.94-.24-1.41-.15-2.22-.32-4.45-.16-6.68.08-1.14-.38-1.5-1.48-1.61-3.37-.35-6.59-1.22-9.49-3.04-.61-.38-1.17-.54-1.6.23-.73,1.31-1.93,2.33-2.44,3.79Zm-28.97-68.07c-8.02-.44-15.7,1.11-23.15,3.95-2.17.83-4.21,1.92-5.98,3.46-5.42,4.73-4.4,12.2,2.08,15.31,2.03.98,4.22,1.43,6.42,1.81,5.76,1,11.59,1.02,17.41,1.07-.06,2.17-.57,4.27-.93,6.39-1.38,8.24-3.72,16.19-7.57,23.64-1.55,3.01-3.43,5.77-6.04,7.97-3.65,3.07-7.81,4.18-12.52,3.35-3.62-.63-6.85-2.12-9.84-4.19-4.29-2.97-7.6-6.8-10.06-11.39-7.62-14.2-11.59-29.36-11.91-45.46-.23-11.29.43-22.51,3.11-33.55-.67-.42-1.4-.19-2.1-.16-8.71.29-17.4.89-26.12.88-1.57,0-1.59.94-1.79,1.95-1.92,9.74-3.36,19.53-3.58,29.47-.35,15.42,1.74,30.44,7.36,44.88,4.75,12.21,11.73,22.94,21.85,31.32,15.45,12.78,32.66,15.7,51.34,8.05,15.94-6.53,26.65-18.88,35.79-32.88.48-.73.3-1.32-.06-1.99-.96-1.76-1.65-3.63-2.14-5.58-2.49-9.78,3.51-19.41,13.44-21.28,1.58-.3,2.1-1.01,2.47-2.34,4.14-14.91,5.93-30.08,5.25-45.54-.15-3.43-.54-6.85-.9-10.27-.2-1.86-.27-1.85-2.06-1.7-1.11.09-2.23.19-3.35.25-10.06.5-20.12.99-30.18,1.48-1.95.1-1.96.1-2.33,1.88-.98,4.78-1.77,9.58-2.3,14.43-.54,4.92-1.07,9.85-1.61,14.77Z"/>
  <path class="cls-13" d="m632.79,337.48c-2.52.34-4.45-.89-6.24-2.42-8.98-7.69-18.26-14.97-28.28-21.27-11.29-7.1-23.03-13.39-35.09-19.12-15.03-7.13-30.51-13.05-46.36-18.03-9.67-3.03-19.53-5.25-29.49-7.14-10.54-2-21.12-3.14-31.85-2.81-1.2.04-2.38-.04-3.42-.77,2.5.07,4.42-1.11,6.13-2.8,1.99-1.98,3.8-4.11,5.52-6.32,6.42-8.28,12.51-16.8,18.22-25.59,16.1-24.75,30.77-50.32,44.46-76.47,2.07-3.96,4.04-7.98,6.36-11.81.09-.16.19-.32.28-.47,0,0-.01.02-.01.02,1.65.03,2.75-1.15,4.01-1.9,5.73-3.46,11.63-6.58,17.7-9.37,6.85-3.15,13.82-6.06,20.94-8.56,2.53-.89,5-2.07,7.74-2.26,1.73,1.45,2.98,3.31,4.31,5.09,10.91,14.55,19.38,30.42,25.38,47.58,2.13,6.11,4.12,12.26,6.14,18.41,3.74,11.34,6.11,22.99,7.86,34.77,1.27,8.54,1.7,17.16,2.19,25.78.66,11.49,1.18,22.97.64,34.49-.53,11.33-.99,22.66-1.07,34.01-.02,3.44-.04,6.87.54,10.28.44,2.57,1.36,4.91,3.39,6.68Zm-28.27-97.85c-.96-4.34-.24-9.55-.81-14.72-.35-3.15-.43-6.37-.75-9.53-.62-6.25-1.52-12.47-2.76-18.64-1.88-9.35-4.5-18.45-9.12-26.85-2.27-4.13-4.79-8.12-8.73-10.95-4.45-3.2-9.35-4-14.55-2.4-4.94,1.52-8.4,5.03-11.38,9.09-4.43,6.04-7.36,12.87-10.42,19.63-1.78,3.93-3.34,7.96-4.61,12.06-4.28,13.79-8.46,27.61-13.2,41.25-2.07,5.94-4.35,11.83-7.84,17.15-.49.75-.72,1.56-.82,2.47-.34,2.98,1.29,4.77,3.56,6.25,2.89,1.89,6.15,3.03,9.21,4.59,6.43,3.28,13.22,5.58,20.19,7.38,5.1,1.32,10.15,2.74,15.08,4.63,5.59,2.15,11.4,3.59,17.36,4.31,3.99.49,7.54-.54,10.52-3.45,3.18-3.1,4.51-7.1,5.68-11.17,2.84-9.91,2.85-20.14,3.4-31.11Z"/>
  <path class="cls-13" d="m363.07,270.72c.28,2.4-.6,4.34-2.32,5.97-2.04,1.92-4.44,3.35-6.67,5.02-3.5,2.63-7.05,5.18-10.59,7.75-.25.18-.57.27-.85.4-.36-2.12-.62-4.26-1.09-6.35-1.27-5.73-3.08-11.27-6.79-15.93-3.42-4.3-8.78-6.79-14.91-5.24-3.38.85-6.05,2.83-8.47,5.18-4.75,4.6-8.33,10.08-11.41,15.87-3.54,6.65-6.2,13.64-7.85,21.01-1.43,6.37-3.65,12.55-4.3,19.1-.07.69-.52,1.14-.94,1.62-2.17,2.45-4.34,4.89-6.49,7.35-4.09,4.68-8.24,9.32-11.93,14.33-3.6,4.89-7.07,9.87-9.59,15.42-1.05,2.32-2.14,4.65-2.17,7.28-.35.74-1.03,1.21-1.59,1.76-4.35,4.32-8.75,8.6-13.08,12.94-4.67,4.68-9.19,9.49-12.79,15.08-.7,1.08-1.59,1.99-2.96,2.23.39-2.89-.27-5.73-.38-8.59-.58-15.09-.54-30.18.63-45.24,1.07-13.77,2.23-27.54,4.73-41.14,1.63-8.87,3.63-17.66,5.97-26.37.53-.13.74-.57.98-.98,1.3-2.28,2.58-4.59,3.92-6.85,4.61-7.74,9.59-15.25,14.92-22.51,5.37-7.32,10.94-14.47,16.89-21.34,3.97-4.58,8.08-9.02,12.2-13.45,4.4-4.73,9.25-9.01,14.1-13.29,4-3.53,8.16-6.87,12.23-10.32,2.24-1.9,4.76-3.47,6.8-5.61,2.12,2.81,3.79,5.9,5.45,8.99,7.64,14.21,14.21,28.91,20.19,43.89,3.1,7.78,6.13,15.59,9.55,23.23,1.02,2.27,2.27,4.39,3.91,6.27,1.25,1.44,2.7,2.47,4.69,2.52Z"/>
  <path class="cls-6" d="m532.74,142.95c-2.32,3.83-4.28,7.85-6.36,11.81-13.69,26.15-28.36,51.72-44.46,76.47-5.71,8.78-11.8,17.31-18.22,25.59-1.71,2.21-3.53,4.34-5.52,6.32-1.7,1.7-3.63,2.87-6.13,2.8-4.38-1.75-5.18-4.68-2.45-8.68,22.89-33.47,44.03-68.01,63.09-103.81,4.92-9.24,9.52-18.64,14.55-27.82,2.92-5.34,6.18-10.45,10.08-15.14,1.59-1.91,3.26-3.73,5.09-5.41,8.76-7.98,19.07-10.23,30.51-8.2,3.84.68,7.24,2.45,10.42,4.68,3.63,2.55,6.69,5.69,9.59,9,6.4,7.3,11.85,15.28,16.79,23.61,7.73,13.04,13.7,26.86,18.47,41.27,4.8,14.51,9.17,29.1,11.55,44.24,1.18,7.51,2.02,15.05,2.45,22.64.87,15.32,1.85,30.64,1.11,46.01-.55,11.34-.87,22.68-1.04,34.03-.04,2.79-.3,5.59-.79,8.35-.35,1.93-1.14,3.64-2.48,5.1-1.73,1.89-3.7,2.74-6.21,1.67-2.03-1.77-2.95-4.11-3.39-6.69-.58-3.4-.57-6.84-.54-10.28.08-11.35.54-22.68,1.07-34.01.54-11.51.01-23-.64-34.49-.49-8.61-.93-17.23-2.19-25.78-1.75-11.79-4.13-23.44-7.86-34.77-2.02-6.14-4.01-12.3-6.14-18.41-6-17.17-14.47-33.03-25.38-47.58-1.33-1.78-2.58-3.64-4.31-5.09-2.68-3.75-5.92-6.89-9.94-9.15-2.26-1.27-4.73-1.88-7.34-1.9-7.07-.05-12.81,2.66-17.43,8.04-6.51,7.58-11.32,16.2-15.68,25.1,0,0,.01-.02.01-.02-.22.08-.34.23-.28.47Z"/>
  <path class="cls-6" d="m363.07,270.72c-1.99-.05-3.44-1.08-4.69-2.52-1.64-1.88-2.89-4-3.91-6.27-3.43-7.65-6.45-15.46-9.55-23.23-5.98-14.98-12.55-29.68-20.19-43.89-1.66-3.09-3.33-6.18-5.45-8.99-3.62-5.77-7.78-11.11-12.72-15.81-.69-.66-1.47-1.23-2.27-1.76-4.03-2.7-8.3-3.42-12.99-1.82-5.55,1.89-10.01,5.21-13.57,9.82-6.07,7.88-11.26,16.3-15.25,25.41-7.08,16.18-12.81,32.86-17.8,49.79-2.8,9.49-5.31,19.06-7.45,28.73-2.34,8.71-4.34,17.5-5.97,26.37-2.5,13.61-3.66,27.37-4.73,41.14-1.17,15.07-1.21,30.15-.63,45.24.11,2.87.76,5.71.38,8.59-.18.26-.35.53-.54.78-1.88,2.43-4.75,2.51-6.71.15-1.15-1.39-1.67-3.08-2.13-4.78-1.21-4.5-1.59-9.13-1.94-13.75-1.27-16.81-.28-33.56,1.22-50.3,1-11.15,2.18-22.29,4.52-33.25,7-32.8,15.86-65.05,28.53-96.17,4.39-10.78,9.95-20.92,16.58-30.47,1.82-2.63,3.78-5.16,5.98-7.49,5.36-5.7,11.92-9.36,19.48-11.18,6.83-1.65,13.33-.53,19.42,2.99,3.57,2.06,6.59,4.77,9.35,7.81,8.12,8.93,14.92,18.74,20.26,29.58,7.03,14.28,13.22,28.92,18.57,43.92,1.83,5.12,3.74,10.2,5.55,15.33,1.34,3.79,2.22,7.66,1.8,11.75-.22,2.12-.98,3.68-3.14,4.3Z"/>
  <path class="cls-9" d="m498.53,481.92c-5.98-4.1-12.01-8.13-17.9-12.37-7.77-5.6-15.63-11.08-23.43-16.64-1.56-1.11-3.13-2.23-4.52-3.54-3.29-3.1-3.23-7.44.06-10.54.75-.71,1.6-1.32,2.46-1.9,11.07-7.43,22.12-14.89,33.23-22.24,2.72-1.8,5.66-3.25,8.22-5.31,4.21-2.72,8.26-5.66,12.39-8.49,7.82-5.35,15.75-10.55,23.59-15.87,2.17-1.47,4.41-2.5,7.07-2.46.58.25,1.15.55,1.75.75,3.39,1.12,5.09,5.93,2.41,9.66-.85,1.19-2,2.05-3.2,2.86-9.56,6.4-19.1,12.84-28.68,19.2-4.84,3.21-9.5,6.69-14.59,9.5-1.59.59-2.92,1.63-4.23,2.63-3.05,2.32-6.05,4.68-9.27,6.78-4.61,3.01-9.16,6.11-13.73,9.2-.5.34-1.19.53-1.33,1.3.16.17.3.37.48.5,9.43,6.84,18.94,13.54,28.75,19.84.18.16.34.34.53.49,13.65,10.4,27.77,20.16,41.71,30.15,1.04.74,2.09,1.49,2.99,2.39,2.51,2.53,2.83,6.08.88,8.72-1.88,2.55-5.29,3.34-8.4,1.91-.65-.3-1.27-.67-1.86-1.08-7.38-5.19-14.8-10.32-22.08-15.64-3.99-2.92-7.78-6.12-11.87-8.92-.46-.31-.95-.59-1.42-.88Z"/>
  <path class="cls-3" d="m256.69,369.51c.03-2.63,1.12-4.97,2.17-7.28,2.52-5.56,5.99-10.53,9.59-15.42,3.69-5.02,7.83-9.66,11.93-14.33,2.15-2.46,4.32-4.91,6.49-7.35.43-.48.87-.93.94-1.62.64-6.54,2.87-12.73,4.3-19.1,1.65-7.37,4.32-14.37,7.85-21.01,3.08-5.79,6.66-11.27,11.41-15.87,2.42-2.34,5.09-4.32,8.47-5.18,6.14-1.55,11.49.94,14.91,5.24,3.71,4.66,5.52,10.2,6.79,15.93.47,2.1.73,4.23,1.09,6.35-3.19,2.52-6.37,5.04-9.58,7.54-7.18,5.6-13.97,11.65-20.59,17.9-18.05,17.04-35.62,34.58-53.25,52.05-.78.78-1.42,1.75-2.52,2.16Z"/>
  <path class="cls-7" d="m539.7,382.58c-2.66-.05-4.9.99-7.07,2.46-7.84,5.33-15.77,10.52-23.59,15.87-4.13,2.83-8.19,5.77-12.39,8.49-.36-2.17-.73-4.34-1.09-6.51,2.12-1.42,4.19-2.9,6.36-4.23,1.08-.67,1.22-1.39.97-2.57-2.7-12.65-8.01-23.82-17.54-32.89-10.85-10.32-23.17-17.75-37.93-20.85-8.55-1.8-17.17-1.82-25.77-.61-17.08,2.4-33.34,7.54-48.71,15.36-12.55,6.38-23.5,14.82-32.31,25.91-3.09,3.89-5.79,8.04-8.06,12.46-1.66,3.24-2.83,6.63-2.76,10.32.04,2.09.35,2.22-2.17,2.35-7.19.39-14.37.75-21.56,1.14-15.65.83-31.3,1.55-46.92,2.82-1.51.12-3.01.33-4.52.49-.06-1.77.98-2.77,2.42-3.52,2.3-1.2,4.79-1.8,7.31-2.14,5.67-.76,11.33-1.61,17.06-2.04,6.42-.48,12.83-1.2,19.23-1.9,4.98-.54,9.93-1.36,14.92-1.77,3.09-.26,6.18-.86,9.3-.59,1.42.12,2.18-.48,2.76-1.74,1.73-3.78,3.65-7.46,5.91-10.96,3.12-4.83,6.54-9.42,10.27-13.8,2.44-2.87,5.03-5.58,7.78-8.13,6.57-6.09,13.7-11.44,21.49-15.9,7.3-4.17,14.87-7.74,22.92-10.21,6.02-1.85,12.13-3.29,18.4-4.06,4.83-.59,9.67-1.06,14.54-.86,8.29.33,16.48,1.33,24.48,3.72,9.36,2.79,17.92,7.13,25.72,12.98,1.78,1.34,3.46,2.81,5.14,4.28,3.43,3.01,6.46,6.39,9.59,9.69,4.99,5.27,8.66,11.42,11.64,18.01.72,1.59.61,3.27.63,4.95.02,1.46.33,1.66,1.5.98,6.35-3.68,12.68-7.39,19.02-11.09,2.17-1.27,4.35-2.31,7.01-1.53,1.89.56,3.29,1.58,4.06,3.4.41.97.84,1.9,1.96,2.24Z"/>
  <path class="cls-8" d="m250,498.53c1.26,3.09,2.44,6.22,3.8,9.27,4.26,9.56,9.65,18.38,17.21,25.74,9.05,8.8,19.6,14.74,32.12,17,3.79.69,7.61.88,11.45.83.79-.01,1.59-.21,2.6.26-.6,2.71-1.22,5.48-1.84,8.24-7.56.77-15,.1-22.26-2.12-12.08-3.71-21.37-11.2-28.63-21.38-7.32-10.26-11.63-21.76-13.96-34.07-.23-1.24-.68-2.47-.5-3.77Z"/>
  <path class="cls-11" d="m498.05,464.78c-9.8-6.29-19.32-13-28.75-19.84-.19-.14-.33-.33-.48-.5.13-.77.83-.96,1.33-1.3,4.56-3.08,9.12-6.18,13.73-9.2,3.21-2.1,6.22-4.46,9.27-6.78,1.32-1,2.65-2.04,4.23-2.63.69,8.09.89,16.22.47,24.31-.28,5.34.45,10.62.2,15.93Z"/>
  <path class="cls-6" d="m416.31,568.59c-1.62.02-3.19-.18-4.67-.88-2.1-1-3.17-2.74-2.94-4.74.21-1.79,1.45-3.07,3.65-3.61,1.47-.36,2.99-.53,4.46-.88,6.1-1.45,10.73-4.8,13.41-10.58.87-1.88,1.62-3.82,2.44-5.73.67-1.57,1.56-2.97,3.01-3.94,2.75-1.85,5.8-.97,7.15,2.04.68,1.52.67,3.11.39,4.7-2.18,12.08-12.14,21.69-24.27,23.4-.87.12-1.75.14-2.62.21Z"/>
  <path class="cls-1" d="m400.97,522.45c-.67-2.57-.44-5.19-.47-7.8-.01-1.14.85-1.42,1.65-1.78,4.84-2.2,9.03-5.32,12.82-9.02,3.44-3.37,6.3-7.14,8.11-11.64,1.73,2.39,1.91,4.98.94,7.69-3.67,10.25-10.04,17.96-20.58,21.69-.82.29-1.65.57-2.47.86Z"/>
  <path class="cls-1" d="m374.2,517.08c.51-1.46,1.71-2.47,2.44-3.79.43-.78.99-.62,1.6-.23,2.9,1.82,6.12,2.7,9.49,3.04,1.1.11,1.57.46,1.48,1.61-.16,2.23,0,4.46.16,6.68-2.86-.54-5.82-.64-8.53-1.88-2.7-1.23-5.21-2.66-6.64-5.43Z"/>
  <path class="cls-12" d="m345.24,449.01c.53-4.92,1.06-9.85,1.61-14.77.53-4.85,1.33-9.66,2.3-14.43.37-1.79.38-1.79,2.33-1.88,10.06-.49,20.12-.98,30.18-1.48,1.12-.06,2.23-.15,3.35-.25,1.78-.15,1.86-.16,2.06,1.7.36,3.42.75,6.84.9,10.27.68,15.45-1.11,30.63-5.25,45.54-.37,1.34-.89,2.04-2.47,2.34-9.93,1.87-15.93,11.49-13.44,21.28.5,1.95,1.18,3.81,2.14,5.58.36.67.54,1.25.06,1.99-9.14,14.01-19.85,26.35-35.79,32.88-18.68,7.65-35.89,4.73-51.34-8.05-10.12-8.38-17.1-19.11-21.85-31.32-5.62-14.44-7.7-29.46-7.36-44.88.22-9.94,1.66-19.74,3.58-29.47.2-1.01.23-1.95,1.79-1.95,8.71,0,17.41-.59,26.12-.88.69-.02,1.42-.25,2.1.16-2.68,11.04-3.34,22.26-3.11,33.55.33,16.1,4.29,31.26,11.91,45.46,2.46,4.59,5.78,8.42,10.06,11.39,2.99,2.07,6.23,3.56,9.84,4.19,4.71.82,8.87-.28,12.52-3.35,2.61-2.2,4.49-4.96,6.04-7.97,3.85-7.46,6.18-15.4,7.57-23.64.36-2.12.87-4.23.93-6.4.26-1,.43-2,.56-3.03.53-4.23,1.19-8.45,1.7-12.68.4-3.29.64-6.59.95-9.89Z"/>
  <path class="cls-13" d="m345.24,449.01c-.31,3.3-.56,6.6-.95,9.89-.51,4.23-1.17,8.45-1.7,12.68-.13,1.03-.3,2.03-.56,3.03-5.82-.05-11.64-.07-17.41-1.07-2.2-.38-4.39-.84-6.42-1.81-6.48-3.11-7.5-10.58-2.08-15.31,1.76-1.54,3.81-2.63,5.98-3.46,7.45-2.85,15.13-4.4,23.15-3.95Z"/>
  <path class="cls-10" d="m604.52,239.63c-.55,10.97-.56,21.21-3.4,31.11-1.17,4.07-2.5,8.07-5.68,11.17-2.98,2.91-6.53,3.93-10.52,3.45-5.95-.72-11.76-2.16-17.36-4.31-4.93-1.89-9.98-3.32-15.08-4.63-6.97-1.8-13.76-4.1-20.19-7.38-3.05-1.56-6.32-2.69-9.21-4.59-2.27-1.49-3.91-3.27-3.56-6.25.1-.9.33-1.72.82-2.47,3.49-5.31,5.78-11.2,7.84-17.15,4.74-13.64,8.93-27.46,13.2-41.25,1.27-4.11,2.83-8.14,4.61-12.06,3.07-6.76,5.99-13.59,10.42-19.63,2.98-4.06,6.44-7.57,11.38-9.09,5.19-1.6,10.1-.8,14.55,2.4,3.93,2.83,6.45,6.82,8.73,10.95,4.62,8.4,7.24,17.5,9.12,26.85,1.24,6.17,2.14,12.39,2.76,18.64.32,3.16.4,6.38.75,9.53.57,5.17-.15,10.38.81,14.72Z"/>
  <path class="cls-5" d="m533,142.49c4.36-8.91,9.16-17.52,15.68-25.1,4.62-5.38,10.35-8.09,17.43-8.04,2.61.02,5.08.63,7.34,1.9,4.03,2.26,7.27,5.4,9.94,9.15-2.74.18-5.21,1.37-7.74,2.26-7.12,2.5-14.08,5.41-20.94,8.56-6.07,2.79-11.97,5.92-17.7,9.37-1.26.76-2.36,1.94-4.01,1.9Z"/>
  <path class="cls-5" d="m532.74,142.95c-.06-.25.06-.39.28-.47-.09.16-.19.32-.28.47Z"/>
  <path class="cls-4" d="m237.23,280.17c2.14-9.67,4.65-19.24,7.45-28.73,5-16.93,10.72-33.61,17.8-49.79,3.98-9.11,9.18-17.53,15.25-25.41,3.55-4.61,8.01-7.93,13.57-9.82,4.69-1.6,8.96-.87,12.99,1.82.79.53,1.58,1.1,2.27,1.76,4.95,4.7,9.1,10.04,12.72,15.81-2.04,2.14-4.56,3.71-6.8,5.61-4.07,3.45-8.23,6.78-12.23,10.32-4.84,4.28-9.7,8.56-14.1,13.29-4.12,4.43-8.23,8.87-12.2,13.45-5.95,6.87-11.52,14.02-16.89,21.34-5.33,7.26-10.31,14.77-14.92,22.51-1.35,2.26-2.62,4.56-3.92,6.85-.24.42-.45.86-.98.98Z"/>
</svg>