<?xml version="1.0" encoding="UTF-8"?>
<svg id="_图层_1" data-name="图层 1" xmlns="http://www.w3.org/2000/svg" viewBox="0 0 960 960">
  <defs>
    <style>
      .cls-1 {
        fill: #fefefe;
      }

      .cls-1, .cls-2, .cls-3, .cls-4, .cls-5, .cls-6, .cls-7, .cls-8, .cls-9, .cls-10, .cls-11, .cls-12, .cls-13, .cls-14, .cls-15 {
        stroke-width: 0px;
      }

      .cls-2 {
        fill: #bc823d;
      }

      .cls-3 {
        fill: #bb3a98;
      }

      .cls-4 {
        fill: #fdabe6;
      }

      .cls-5 {
        fill: #040304;
      }

      .cls-6 {
        fill: #f3d5aa;
      }

      .cls-7 {
        fill: #fca9e2;
      }

      .cls-8 {
        fill: #fe72d8;
      }

      .cls-9 {
        fill: #f2d4a9;
      }

      .cls-10 {
        fill: #040303;
      }

      .cls-11 {
        fill: #ba3997;
      }

      .cls-12 {
        fill: #fc71d6;
      }

      .cls-13 {
        fill: #fe72d7;
      }

      .cls-14 {
        fill: #b83b97;
      }

      .cls-15 {
        fill: #fe71d7;
      }
    </style>
  </defs>
  <path class="cls-10" d="m250.58,523.42c-3.52-5.15-6.76-10.45-9.29-16.17-5.79-13.1-7.96-26.88-7.85-41.1.18-23.57,6.27-45.58,17.62-66.19.46-.83.89-1.69,1.33-2.53.3-.13.45-.36.42-.69,0,0,0,0,0,0,.38-.19.57-.5.53-.93v.02c.7-.45.97-1.23,1.39-1.89,4.59-7.15,9.79-13.82,15.62-20,9.39-9.95,20.23-17.84,32.99-22.96,10.48-4.21,21.34-6.07,32.62-5.03,12.19,1.13,23.05,5.59,32.53,13.38.84.69,1.45,1.47,2.83.55,7.33-4.9,15.42-8.01,24.04-9.76,8.42-1.71,16.95-2.2,25.52-1.94,3.43.11,6.87.33,10.28.67,1.97.2,3.16-.5,4.39-2.05,10.64-13.35,23.52-23.97,39.31-30.63,24.63-10.39,48.85-9.61,72.42,3.44.34.19.66.46,1.09.41h0c.35.57.88.89,1.54.97.17.16.33.35.52.47,18.11,11.99,29.78,28.82,36.95,49.05,2.76,7.79,4.4,15.84,5.61,23.99.02.55-.02,1.11.06,1.66.53,3.8.83,7.62.92,11.46.18,8.01-.43,15.96-1.34,23.91-1.75,15.27-6.2,29.64-13.45,43.21-8.56,16.03-19.74,29.81-34.28,40.78-7.91,5.97-16.43,10.77-26.15,13.16-.95.23-1.12.68-1.09,1.48.05,1.6.1,3.21-.75,4.67-.63.22-1.38-.12-1.94.42-2.34.82-3.26.34-3.9-2.08-.12-.46-.16-.94-.23-1.42-.44-2.92-.8-5.85-1.34-8.76-1.86-10.08-5.71-19.26-12.66-26.95-6.4-7.08-14.46-10.56-23.98-10.68-11.85-.16-21.84,4.56-30.82,11.87-1.6,1.3-3.03,2.86-5.1,3.47-1.13.33-2.24.43-3.09-.57-.84-.97-.86-2.13-.11-3.09.89-1.14.31-1.68-.59-2.23-.61-.37-1.08-.95-1.81-1.12-1.93-2.07-4.14-3.85-5.81-6.12-.32.23-.4.27-.45.33-8.23,10.67-18.89,17.47-32.13,20.13-.97.2-1.3.74-1.54,1.56-.68,2.35-.61,4.73-.28,7.12.14,2.81.77,5.51,1.6,8.2.39,1.27,1,1.72,2.31,1.89,6.41.82,12.81.55,19.09-.69,5.73-1.13,11.1-3.11,15.8-6.97,8.53-7,17.82-12.97,27.11-18.91,2.83-1.81,5.83-3.3,9.06-4.3,6.05-1.88,11.64-1.18,16.85,2.53,2.68,1.91,5.19,4,7.4,6.44,3.45,3.8,6.34,8.01,9.16,12.28,4.84,7.36,5.87,15.38,4.5,23.9-.78,4.85-2.8,9.32-4.3,13.94-1.29,3.97-3.19,7.65-5.36,11.21-3.54,5.78-8.06,10.73-12.93,15.36-17.72,16.84-38.78,26.43-63.14,28.59-9.74.86-19.49.49-29.17-.93-7.59-1.11-15.14-2.45-22.33-5.28-20.58-8.12-35.22-21.8-41.33-43.68-1.73-6.19-2.31-12.35-1.53-18.72,1.57-12.73,11.97-22.26,24.79-22.56,4.73-.11,9.44.32,14.06,1.25,7.67,1.54,15.3,3.26,22.96,4.9.53.11,1.07.39,1.72-.06-.97-3.01-1.04-6.21-1.77-9.31.25-2.05-.18-4.15.47-6.16.4-1.23-.18-1.74-1.32-1.94-2.73-.48-5.09-1.75-7.28-3.39-.41-.31-.71-.87-1.47-.74-.96,1.77-1.99,3.55-1.96,5.71-1.12,1.51-2.66,1.91-4.45,1.71-2.46-.27-4.92-.54-7.39-.77-4.76-.45-9.51-1.11-14.33-.44-7.84,1.09-14.78,4.42-21.48,8.38-2.29,1.35-4.09,3.3-5.66,5.45-4.42,6.07-6.91,12.87-8.01,20.28-.52,3.49-.37,7.2-2.59,10.28-1.64.17-2.32-.85-2.59-2.21-.3-1.55-.47-3.12-.71-4.78-.46.05-.84.09-1.21.14-5.49.8-10.98.77-16.44-.13-13.57-2.24-24.84-8.72-34.18-18.72-1.41-1.51-2.78-3.04-4.17-4.56,0,0,0,.02,0,.02.08-.28,0-.46-.31-.51Zm82.62-93.24c-8.79,1.01-16.89,4-24.31,8.78-4.82,3.11-8.88,7.03-11.8,12.02-1.26,2.15-2.17,4.44-2.14,7.01.04,3.53,2.05,6.29,5.4,7.37,2.1.68,4.25.62,6.4.3,2.77-.41,5.46-1.13,8.12-2.01,6.91-2.27,13.52-5.26,20.16-8.2.87-.39,1.69-.92,2.66-1.04.42,1.62.86,3.24,1.26,4.87,2.13,8.6,4.59,17.13,5.78,25.95.51,3.8,1.03,7.6.25,11.45-.33,1.63-.92,3.18-1.35,4.68.28.36.53.27.75.21,7.09-1.71,14.12-1.19,21.12.55,1.31.33,2.81,1.23,3.87.86,1.25-.43,1.19-2.46,2.04-3.6.67-.9.52-1.66.12-2.63-3.51-8.63-1.46-16.45,5.74-22.26.49-.4,1.2-.65,1.35-1.31.49-2.12,1.74-3.96,2.27-6.04,1.23-4.79,2.61-9.54,3.66-14.39,2.93-13.59,3.66-27.22,1.18-40.95-2.48-13.74-7.34-26.44-16.22-37.42-7.68-9.49-17.19-16.16-29.15-19.04-11.5-2.77-22.7-1.37-33.61,2.87-14.32,5.57-26.16,14.67-36.16,26.16-12.42,14.28-20.8,30.79-25.85,48.97-5.27,18.97-6.2,38.09-1.51,57.35,2.89,11.89,7.73,22.84,15.85,32.13,7.12,8.15,15.84,13.77,26.37,16.59,6.81,1.82,13.7,2.13,20.68,1.78,1.2-.06,1.4-.59,1.56-1.57,1.09-6.47,3.64-12.38,6.93-18.01.34-.58.99-1.08.74-2.03-5.65.14-10.5-2.18-15.2-5.06-8.65-5.29-14.45-12.88-18.53-22.01-7.13-15.94-10.44-32.65-10.26-50.08.08-7.8,1.17-15.43,3.56-22.89,3.19-9.99,8.6-18.49,16.59-25.33,3.47-2.97,7.41-4.95,11.89-5.9,11.45-2.44,20.41,2.28,24.83,13.14.75,1.85,1.39,3.74,1.86,5.69,1.85,7.56,2.46,15.29,3.09,23.01Zm198.23-27.8c-4.94-.1-9.67.97-14.31,2.54-7.52,2.54-14.27,6.37-20.02,11.89-1.8,1.73-3.35,3.66-4.31,5.99-2.11,5.14.28,10.37,5.55,12.15,1.29.44,2.63.67,4,.7,1.84.04,3.67-.02,5.5-.22,4.84-.53,9.68-1.12,14.53-1.52,3.49-.29,6.98-.87,10.5-.63.64,5.48,1.24,10.96,1.94,16.43.97,7.51,1.16,14.99-.87,22.37-1.72,6.23-4.14,12.14-8.99,16.66-4.87,4.53-10.42,7.86-17.37,8.96,4.93,7.58,7.63,15.85,9.27,24.43.83.07,1.3-.27,1.82-.45,3.03-1.1,5.64-2.99,8.46-4.48,12.2-6.44,22.47-15.18,30.98-26.01,15.96-20.31,24.6-43.6,27.23-69.07,1.85-17.92-.9-35.39-7.74-52.14-5.88-14.41-14.46-26.87-26.96-36.33-17.17-13-36.31-17.51-57.45-12.76-14.52,3.26-27.25,10.1-38.27,19.97-24.66,22.09-37.46,50.07-40.38,82.78-1.21,13.57.22,26.96,3.17,40.24.58,2.6,1.39,3.99,4.28,4.58,5.37,1.1,7.9,5.18,6.8,10.56-.41,2,.28,2.95,1.65,3.98,3.81,2.84,8.08,4.46,12.78,5.03,1.98.24,3.71-.07,5.42-1.24,5.59-3.84,11.74-6.42,18.42-7.73,1.47-.29,3.02-.15,4.5-.72-.12-.27-.18-.51-.32-.69-3.12-4.12-5.25-8.75-6.94-13.6-3.57-10.27-5.38-20.87-6.09-31.68-1.04-15.87,1.7-31.21,6.79-46.18,2.34-6.86,5.73-13.18,10.51-18.69,6.6-7.61,14.75-12.67,24.7-14.59,9.3-1.79,17.22.68,23.54,7.91,3.29,3.77,5.37,8.1,6.41,12.96,2.03,9.48,1.62,19.07,1.25,28.65Zm-46.48,109.06c-.76,1.95-1.53,3.94-2.33,5.92-2.4,5.91-5.57,11.32-10.27,15.73-3.24,3.04-6.81,5.54-11.11,6.87-2.25.7-4.53,1.03-6.85.54-4.66-.97-7.2-4.17-8.63-8.44-1.08-3.23-1.14-6.59-1.11-9.96.02-2.39.48-4.74.61-7.5-2.82,1.77-5.41,3.25-7.74,5.21-6.41,5.39-13.31,10-21.6,11.94-8.16,1.91-16.43,2.28-24.76,1.06-4.11-.6-8.19-1.39-12.25-2.24-1.19-.25-1.84-.03-2.44,1.13-1.7,3.26-3.23,6.6-4.59,10.01-1.32,3.34-2.58,6.71-3.96,10.03-1.33,3.21-3.21,6.07-5.9,8.34-3.78,3.19-8.21,3.5-12.42.89-2-1.24-3.59-2.93-4.97-4.81-3.87-5.29-6.54-11.14-7.89-17.57-.35-1.69-.61-3.39-.96-5.34-2.37,1.97-3.27,4.4-3.66,7.02-.81,5.41-.9,10.79.34,16.19,1.71,7.38,4.09,14.41,8.81,20.52,8.1,10.49,18.41,17.82,30.88,22.2,4.16,1.46,8.46,2.35,12.78,3.14,12.52,2.31,25.13,2.73,37.71,1.01,20.05-2.75,37.47-11.36,52.53-24.76,5.08-4.52,9.73-9.46,13.24-15.39,3.89-6.56,5.92-13.79,7.56-21.11,1.03-4.6,1.33-9.42-.37-13.98-2.32-6.19-6.02-11.59-10.26-16.62-.03-.04-.14-.03-.38-.06Zm-57.27-154.43c-18.58-2.78-36.35-1.77-52.8,7.97.07.72.5.99.81,1.33,3.5,3.77,6.33,8.01,8.76,12.54,5.98,11.13,9.41,22.99,10.58,35.57,1.51,16.23.38,32.23-3.89,47.98-.56,2.05-1.12,4.11-1.78,6.54,7.54-1.61,14.88-2.16,22.36-1.64-11.02-39.18-4.39-75.57,15.95-110.28Zm44.21,145.15c-2.24.03-4.21.36-6.08,1.11-5.35,2.15-10.39,4.9-15.22,8.04-.48.31-.93.55-.82,1.28.54,3.74.05,7.5.25,11.25.12,2.24.34,4.47,1.03,6.61,1.36,4.25,4.08,5.62,8.36,4.25,2.62-.84,4.92-2.26,7.05-3.98,4.6-3.72,7.63-8.54,9.85-13.94,1.34-3.25,2.39-6.61,3.99-9.74.31-.6.31-.98-.22-1.42-2.45-2.02-5-3.76-8.18-3.46Zm-117.62,24.27c-1.52,0-3.03-.05-4.55,0-2.99.11-5.83.79-8.46,2.29-.77.44-1.24.93-1.12,1.87.07.55.05,1.12.11,1.67.83,6.91,3.05,13.34,6.65,19.29,1.07,1.78,2.28,3.47,3.81,4.9,3.21,2.98,6.38,2.86,9.39-.33,2.25-2.38,3.53-5.29,4.49-8.35,1.12-3.57,2.16-7.17,3.45-10.69.82-2.24,1.54-4.53,2.3-6.79.25-.74.36-1.35-.72-1.56-5.08-.99-10.1-2.36-15.34-2.3Zm140.63-77.22c1.61-.21,3.45-.37,5.25-.7,1.61-.29,2.97-1.15,4.07-2.38,2.06-2.32,1.3-4.86-1.71-5.64-3.83-.99-7.24.24-10.47,2.16-.62.37-1.06.96-1.38,1.63-1.01,2.09.08,4.32,2.36,4.78.54.11,1.11.09,1.88.15Zm-188.99,26.64c-1.37.02-2.8.16-4.13.76-2.13.97-3.02,3.28-2.03,5.15.97,1.84,3.12,2.39,5.18,1.27,1.2-.65,2.23-1.55,3.16-2.54.86-.91,1.47-1.93.91-3.24-.57-1.34-1.75-1.48-3.09-1.4Z"/>
  <path class="cls-13" d="m632.66,337.55c-2.23.28-4.04-.69-5.69-2.01-4.11-3.29-8.17-6.64-12.27-9.93-7.55-6.05-15.62-11.34-23.93-16.27-9.14-5.43-18.6-10.25-28.18-14.83-9.95-4.75-20.14-8.9-30.5-12.66-10.96-3.97-22.07-7.44-33.45-9.99-8.48-1.9-17.01-3.49-25.64-4.56-5.64-.7-11.31-.65-16.98-.59-1.51.01-3.02.06-4.37-.8,2.5.16,4.46-.96,6.18-2.65,1.89-1.85,3.61-3.85,5.23-5.93,7.03-9.01,13.63-18.34,19.83-27.94,15.88-24.58,30.39-49.96,43.92-75.89,1.84-3.53,3.55-7.14,5.71-10.49.87-.03,1.43-.68,2.09-1.09,2.97-1.86,6-3.61,9.1-5.24,9.46-4.97,19.15-9.43,29.19-13.1,3.35-1.22,6.68-2.6,10.23-3.21,1.96,1.79,3.47,3.95,5.03,6.07,10.66,14.45,18.96,30.15,24.84,47.11,2.04,5.89,3.96,11.82,5.9,17.74,4.42,13.5,7.14,27.36,8.74,41.45.9,7.95,1.2,15.94,1.66,23.92.57,9.98.88,19.96.38,29.96-.56,11.18-.91,22.36-1.11,33.55-.06,3.2.03,6.4.42,9.58.37,2.99,1.22,5.78,3.67,7.81Zm-28.67-97.15c.26-4.91-.13-9.77-.43-14.63-.17-2.7-.21-5.43-.6-8.1-.25-1.67-.21-3.34-.46-5-.72-4.72-1.35-9.45-2.22-14.14-1.84-9.94-4.53-19.57-9.35-28.52-2.01-3.74-4.45-7.17-7.58-10.1-4.62-4.33-12.2-5.2-17.44-2.71-4.47,2.13-7.74,5.55-10.5,9.54-4.63,6.68-7.7,14.15-10.87,21.56-3.96,9.27-6.31,19.08-9.5,28.61-3.22,9.6-5.75,19.45-9.83,28.74-1.47,3.34-2.7,6.8-4.91,9.83-2.09,2.86-1.28,6.36,1.63,8.38.85.59,1.75,1.12,2.68,1.57,3.44,1.68,6.93,3.28,10.36,4.98,4.38,2.17,8.98,3.75,13.68,5.03,7.15,1.96,14.3,3.9,21.26,6.52,4.77,1.8,9.79,2.88,14.87,3.44,4.19.47,7.94-.64,10.86-3.82,1.52-1.66,2.69-3.56,3.52-5.67,2.6-6.59,3.73-13.5,4.35-20.5.44-5,.77-10.03.49-15.03Z"/>
  <path class="cls-8" d="m362.96,270.69c-.31,1.15-.08,2.37-.61,3.5-.51,1.1-1.12,2.11-2.11,2.84-5.62,4.13-11.26,8.24-16.9,12.35-.31.23-.7.35-1.05.53-.35-3.17-.8-6.32-1.7-9.38-1.63-5.55-3.63-10.92-8.09-14.95-5.07-4.58-11.98-4.82-17.46-1.23-2.69,1.76-4.95,4.07-6.98,6.52-6.86,8.28-11.8,17.67-14.72,27.97-2.21,7.79-4.57,15.59-5.66,23.67-.14,1.06-.33,2.16-1.25,3.02-1.75,1.63-3.31,3.45-4.88,5.26-4.38,5.06-8.92,9.99-12.88,15.39-4.29,5.85-8.5,11.77-11.16,18.62-.59,1.51-1.04,3.01-.87,4.65-1.59,2-3.47,3.72-5.35,5.43-6.66,6.07-12.93,12.5-18.73,19.39-1.02,1.22-1.93,2.53-2.8,3.86-.95,1.45-1.89,2.97-3.76,3.44.13-1.51.11-3.02-.04-4.54-.37-3.74-.46-7.49-.54-11.24-.26-13.58-.07-27.15,1.03-40.7,1.4-17.2,3.12-34.36,7.16-51.19,1.1-4.57,1.99-9.2,3.39-13.69.61-.31.85-.91,1.18-1.46,2.44-4.11,4.8-8.27,7.36-12.29,7.36-11.55,15.31-22.68,24.12-33.19,4.86-5.8,9.79-11.52,15.09-16.92,2.52-2.57,5.07-5.09,7.62-7.62,1.36-1.35,2.67-2.75,4.11-4.02,2.93-2.57,5.96-5.02,8.89-7.58,4.43-3.87,8.98-7.59,13.77-11.01,2.05,2.57,3.57,5.47,5.11,8.34,7.63,14.13,14.19,28.77,20.16,43.68,3.14,7.85,6.2,15.74,9.63,23.48,1.11,2.5,2.45,4.84,4.31,6.86,1.24,1.35,2.68,2.25,4.58,2.22Z"/>
  <path class="cls-6" d="m431.3,493.69c.73.17,1.21.75,1.81,1.12.91.56,1.49,1.1.59,2.23-.75.96-.73,2.12.11,3.09.85,1,1.97.9,3.09.57,2.07-.61,3.5-2.17,5.1-3.47,8.99-7.31,18.97-12.03,30.82-11.87,9.52.13,17.57,3.6,23.98,10.68,6.95,7.69,10.8,16.86,12.66,26.95.54,2.9.9,5.84,1.34,8.76.07.47.11.96.23,1.42.65,2.42,1.56,2.9,3.9,2.08.71.19,1.41.13,2.1-.13,1.53.42,2.85,1.15,3.71,2.55.27.43.65.63,1.14.66,0,2.56.23,5.08.88,7.57.45,1.74-.16,3.52-.47,5.2-1.63,8.74-5.03,16.78-10.2,24.03-2.5,3.5-5.2,6.87-8.11,10.02-2.32,2.51-4.86,4.86-7.48,7.05-4.65,3.88-9.26,7.81-14.35,11.11-6.73,4.36-13.86,7.86-21.45,10.48-7.08,2.45-14.14,4.97-21.46,6.64-6.13,1.39-12.26,2.7-18.54,3.34-4.6.47-9.2.75-13.81.97-3.42.16-6.84.36-10.27.33-11.46-.11-22.65-1.95-33.63-5.21-10.51-3.12-20.16-7.98-29-14.42-8.08-5.89-14.98-12.92-19.46-22.01-3.35-6.81-5.41-13.96-5.13-21.65.05-1.52.02-3.04.03-4.55.57-.95.45-2.06.74-3.07,2.22-3.08,2.07-6.78,2.59-10.28,1.09-7.4,3.59-14.21,8.01-20.28,1.57-2.15,3.37-4.09,5.66-5.45,6.7-3.95,13.64-7.29,21.48-8.38,4.82-.67,9.56,0,14.33.44,2.46.23,4.93.5,7.39.77,1.79.2,3.33-.2,4.45-1.71,2.78,4.08,6.72,6.1,11.56,6.51.73,3.09.8,6.3,1.77,9.31-.65.45-1.19.17-1.72.06-7.65-1.64-15.28-3.36-22.96-4.9-4.63-.93-9.33-1.36-14.06-1.25-12.82.3-23.22,9.83-24.79,22.56-.78,6.37-.2,12.53,1.53,18.72,6.11,21.87,20.75,35.56,41.33,43.68,7.19,2.83,14.74,4.17,22.33,5.28,9.68,1.42,19.43,1.79,29.17.93,24.35-2.16,45.41-11.74,63.14-28.59,4.88-4.63,9.4-9.58,12.93-15.36,2.18-3.56,4.07-7.24,5.36-11.21,1.5-4.63,3.52-9.09,4.3-13.94,1.38-8.51.35-16.54-4.5-23.9-2.82-4.28-5.71-8.48-9.16-12.28-2.21-2.44-4.72-4.52-7.4-6.44-5.21-3.72-10.81-4.42-16.85-2.53-3.23,1.01-6.23,2.49-9.06,4.3-9.29,5.94-18.58,11.92-27.11,18.91-4.7,3.86-10.08,5.84-15.8,6.97-6.29,1.24-12.68,1.51-19.09.69-1.31-.17-1.92-.62-2.31-1.89-.82-2.69-1.46-5.39-1.6-8.2,2.79.03,5.58-.16,8.32-.65,10.65-1.93,19.49-7.22,26.93-14.91,2.07-2.14,4.28-4.32,4.95-7.46Z"/>
  <path class="cls-5" d="m532.52,143c-2.17,3.35-3.87,6.96-5.71,10.49-13.54,25.94-28.04,51.31-43.92,75.89-6.2,9.6-12.8,18.93-19.83,27.94-1.62,2.08-3.34,4.08-5.23,5.93-1.72,1.69-3.67,2.81-6.18,2.65-4.12-1.81-4.97-4.7-2.45-8.39,21.62-31.62,41.73-64.16,59.93-97.87,5.24-9.7,10.21-19.54,15.34-29.3,3.68-7.01,7.61-13.88,12.73-19.97,1.44-1.72,2.95-3.37,4.58-4.9,8.86-8.3,19.36-10.71,31.07-8.55,4.84.89,8.92,3.4,12.67,6.48,3.35,2.76,6.25,5.95,8.99,9.29,10.37,12.61,18.54,26.57,25.31,41.4,4.33,9.48,7.35,19.42,10.7,29.24,4.97,14.58,8.25,29.54,10.19,44.8.79,6.19,1.15,12.41,1.54,18.63,1.1,17.56,1.43,35.13.37,52.71-.43,7.1-.42,14.22-.56,21.33-.06,2.96-.24,5.91-.63,8.84-.3,2.26-1,4.34-2.57,6.08-1.71,1.89-3.65,2.82-6.19,1.83-2.45-2.03-3.3-4.82-3.67-7.81-.39-3.18-.48-6.37-.42-9.58.2-11.19.55-22.38,1.11-33.55.5-10,.18-19.98-.38-29.96-.45-7.98-.75-15.97-1.66-23.92-1.6-14.09-4.32-27.95-8.74-41.45-1.94-5.92-3.86-11.86-5.9-17.74-5.87-16.97-14.18-32.67-24.84-47.11-1.56-2.11-3.07-4.28-5.03-6.07-2.56-3.53-5.62-6.53-9.36-8.79-2.51-1.52-5.27-2.24-8.22-2.21-6.69.05-12.23,2.5-16.68,7.56-6.88,7.81-11.84,16.8-16.36,26.08Z"/>
  <path class="cls-5" d="m237.03,280.2c-1.41,4.49-2.3,9.12-3.39,13.69-4.04,16.83-5.76,33.98-7.16,51.19-1.1,13.55-1.29,27.12-1.03,40.7.07,3.75.17,7.51.54,11.24.15,1.51.17,3.02.04,4.54-.18.26-.35.53-.55.78-1.91,2.4-4.76,2.44-6.71.05-1.03-1.26-1.54-2.78-1.97-4.33-1.61-5.74-1.89-11.66-2.28-17.56-.95-14.4-.08-28.76,1.09-43.1.87-10.67,1.97-21.33,3.88-31.87,2.68-14.79,6.56-29.3,10.32-43.84,5.07-19.6,11.72-38.67,19.19-57.46,4.33-10.89,10.01-21.05,16.69-30.67,1.69-2.43,3.5-4.76,5.5-6.95,5.4-5.9,12.07-9.68,19.78-11.56,6.82-1.66,13.33-.57,19.42,2.94,3.57,2.05,6.61,4.75,9.36,7.79,7.49,8.27,13.98,17.24,19.06,27.21,7.52,14.76,13.92,29.99,19.54,45.56,2.01,5.56,4.04,11.11,6.01,16.68,1.26,3.57,2.02,7.23,1.66,11.05-.19,2.05-.86,3.74-3.05,4.4-1.9.03-3.34-.87-4.58-2.22-1.85-2.03-3.2-4.37-4.31-6.86-3.43-7.74-6.49-15.63-9.63-23.48-5.96-14.91-12.52-29.54-20.16-43.68-1.55-2.87-3.07-5.77-5.11-8.34-3.87-6.29-8.25-12.18-13.92-16.95-4.44-3.73-9.49-4.57-15.04-2.45-5.33,2.03-9.57,5.38-12.98,9.87-7.36,9.66-13.27,20.13-17.72,31.42-7.55,19.11-14.19,38.52-19.16,58.48-1.14,4.57-2.49,9.08-3.31,13.73Z"/>
  <path class="cls-3" d="m256.66,369.43c-.17-1.64.29-3.14.87-4.65,2.66-6.85,6.86-12.77,11.16-18.62,3.96-5.4,8.49-10.34,12.88-15.39,1.57-1.81,3.13-3.63,4.88-5.26.92-.86,1.11-1.97,1.25-3.02,1.09-8.08,3.45-15.88,5.66-23.67,2.91-10.29,7.86-19.69,14.72-27.97,2.03-2.45,4.29-4.76,6.98-6.52,5.48-3.59,12.39-3.35,17.46,1.23,4.46,4.03,6.46,9.4,8.09,14.95.9,3.06,1.36,6.21,1.7,9.38-2.4,2.35-5.25,4.16-7.89,6.22-10.59,8.29-20.47,17.37-30.11,26.72-15.55,15.08-31.03,30.23-46.36,45.53-.39.39-.85.72-1.27,1.07Z"/>
  <path class="cls-7" d="m548.36,320.02c-.44.05-.75-.22-1.09-.41-23.58-13.04-47.8-13.83-72.42-3.44-15.79,6.67-28.67,17.28-39.31,30.63-1.23,1.55-2.42,2.25-4.39,2.05-3.42-.34-6.85-.56-10.28-.67-8.57-.26-17.1.23-25.52,1.94-8.62,1.75-16.71,4.86-24.04,9.76-1.38.92-1.99.14-2.83-.55-9.48-7.78-20.34-12.25-32.53-13.38-11.27-1.04-22.14.82-32.62,5.03-12.75,5.12-23.59,13.01-32.99,22.96-5.83,6.18-11.03,12.85-15.62,20-.42.66-.69,1.44-1.4,1.89-.02-1.88,1.15-3.3,1.98-4.8,6.24-11.27,14.21-21.18,23.78-29.78,4.16-3.73,8.83-6.8,13.66-9.61,7.29-4.24,15.04-7.34,23.26-9.23,4.66-1.07,9.36-1.86,14.17-1.81,4.7.05,9.43-.22,14.09.57,5.43.92,10.74,2.32,15.85,4.42,4.15,1.7,8.12,3.73,11.78,6.33.88.63,1.69.68,2.62.06,4.15-2.74,8.55-4.97,13.25-6.59,4-1.38,8.09-2.29,12.29-2.89,4.7-.67,9.4-.32,14.1-.46,4.27-.13,8.39.72,12.49,1.77,2.52.64,2.49.63,3.89-1.52,2.17-3.35,4.66-6.48,7.4-9.37,6.49-6.85,13.4-13.22,21.48-18.2,7.61-4.7,15.8-7.88,24.58-9.61,7.01-1.38,14.09-1.78,21.18-1.32,6.83.44,13.53,1.86,20.16,3.64,7.94,2.13,14.77,6.32,21.44,10.88.64.44,1.35.88,1.6,1.72Z"/>
  <path class="cls-14" d="m521.9,538.33c-.49-.03-.88-.22-1.14-.66-.86-1.39-2.18-2.12-3.7-2.55,0-.12-.05-.22-.15-.3.84-1.46.8-3.07.75-4.67-.03-.8.14-1.24,1.09-1.48,9.71-2.39,18.23-7.19,26.15-13.16,14.54-10.97,25.72-24.76,34.28-40.78,7.25-13.57,11.7-27.94,13.45-43.21.91-7.95,1.52-15.91,1.34-23.91-.09-3.84-.38-7.66-.92-11.46-.08-.55-.04-1.11-.06-1.66,2.17,6.29,3.63,12.76,4.25,19.37,3.18,34.04-6.16,64.53-26.49,91.76-7.87,10.55-17.52,19.24-29.08,25.7-5.71,3.19-11.71,5.5-18.19,6.48-.55.08-1.12.12-1.57.52Z"/>
  <path class="cls-14" d="m310.19,554.17c-.29,1.01-.17,2.13-.74,3.07-13.36,2.86-26.04.51-38.25-5.1-7.23-3.32-12.63-8.59-15.98-15.86-1.83-3.98-3.48-8.04-4.34-12.37,1.39,1.52,2.77,3.05,4.17,4.56,9.34,9.99,20.61,16.48,34.18,18.72,5.46.9,10.96.92,16.44.13.38-.05.76-.09,1.21-.14.24,1.66.4,3.24.71,4.78.27,1.36.95,2.39,2.59,2.21Z"/>
  <path class="cls-7" d="m549.89,320.99c-.67-.09-1.19-.4-1.54-.98.79-.1,1.22.35,1.54.98Z"/>
  <path class="cls-7" d="m253.34,395.8c.04.43-.15.74-.53.93-.07-.45.06-.79.53-.93Z"/>
  <path class="cls-7" d="m252.8,396.74c.03.33-.11.56-.42.69-.03-.33.1-.57.42-.69Z"/>
  <path class="cls-14" d="m250.58,523.42c.3.05.39.23.31.51-.3-.05-.39-.23-.31-.51Z"/>
  <path class="cls-1" d="m531.43,402.38c.37-9.59.78-19.17-1.25-28.65-1.04-4.86-3.12-9.19-6.41-12.96-6.32-7.23-14.24-9.71-23.54-7.91-9.95,1.92-18.1,6.98-24.7,14.59-4.78,5.51-8.18,11.83-10.51,18.69-5.09,14.97-7.83,30.31-6.79,46.18.71,10.81,2.52,21.41,6.09,31.68,1.69,4.86,3.82,9.48,6.94,13.6.13.18.19.41.32.69-1.49.57-3.03.43-4.5.72-6.68,1.31-12.83,3.89-18.42,7.73-1.71,1.18-3.44,1.48-5.42,1.24-4.7-.57-8.97-2.18-12.78-5.03-1.37-1.02-2.06-1.98-1.65-3.98,1.1-5.37-1.43-9.45-6.8-10.56-2.89-.59-3.71-1.98-4.28-4.58-2.95-13.28-4.38-26.67-3.17-40.24,2.92-32.71,15.73-60.7,40.38-82.78,11.02-9.87,23.75-16.71,38.27-19.97,21.14-4.74,40.28-.23,57.45,12.76,12.5,9.46,21.08,21.92,26.96,36.33,6.84,16.75,9.59,34.21,7.74,52.14-2.63,25.47-11.27,48.76-27.23,69.07-8.51,10.84-18.78,19.57-30.98,26.01-2.82,1.49-5.43,3.38-8.46,4.48-.52.19-.99.53-1.82.45-1.64-8.58-4.33-16.85-9.27-24.43,6.95-1.09,12.51-4.42,17.37-8.96,4.85-4.52,7.27-10.43,8.99-16.66,2.03-7.38,1.84-14.86.87-22.37-.71-5.47-1.3-10.95-1.94-16.43-.63-6.07-1.05-12.16-1.25-18.26-.14-4.21-.13-8.42-.19-12.62Z"/>
  <path class="cls-1" d="m333.2,430.18c-.63-7.72-1.24-15.45-3.09-23.01-.48-1.94-1.11-3.83-1.86-5.69-4.42-10.87-13.38-15.59-24.83-13.14-4.48.96-8.42,2.94-11.89,5.9-7.99,6.83-13.39,15.34-16.59,25.33-2.38,7.45-3.48,15.09-3.56,22.89-.18,17.43,3.13,34.13,10.26,50.08,4.09,9.13,9.89,16.73,18.53,22.01,4.7,2.88,9.55,5.19,15.2,5.06.25.94-.4,1.44-.74,2.03-3.29,5.63-5.84,11.54-6.93,18.01-.17.98-.37,1.51-1.56,1.57-6.98.35-13.87.04-20.68-1.78-10.52-2.82-19.24-8.44-26.37-16.59-8.12-9.3-12.96-20.24-15.85-32.13-4.68-19.25-3.76-38.38,1.51-57.35,5.05-18.18,13.42-34.7,25.85-48.97,10-11.49,21.84-20.59,36.16-26.16,10.91-4.25,22.11-5.64,33.61-2.87,11.95,2.88,21.47,9.55,29.15,19.04,8.88,10.98,13.74,23.68,16.22,37.42,2.48,13.73,1.74,27.36-1.18,40.95-1.04,4.85-2.43,9.6-3.66,14.39-.53,2.08-1.78,3.92-2.27,6.04-.15.66-.86.91-1.35,1.31-7.21,5.81-9.25,13.63-5.74,22.26.4.97.55,1.73-.12,2.63-.85,1.14-.79,3.16-2.04,3.6-1.06.37-2.56-.54-3.87-.86-7-1.74-14.03-2.26-21.12-.55-.22.05-.47.15-.75-.21.43-1.5,1.02-3.05,1.35-4.68.78-3.84.26-7.64-.25-11.45-1.19-8.81-3.65-17.34-5.78-25.95-.4-1.63-.84-3.25-1.26-4.87-.13-.62-.26-1.23-.4-1.84-1.69-7.4-3.03-14.87-4.1-22.39Z"/>
  <path class="cls-15" d="m484.95,511.43c.25.04.35.02.38.06,4.24,5.03,7.94,10.43,10.26,16.62,1.71,4.56,1.4,9.38.37,13.98-1.63,7.32-3.66,14.55-7.56,21.11-3.52,5.93-8.16,10.87-13.24,15.39-15.06,13.4-32.48,22.01-52.53,24.76-12.58,1.72-25.19,1.3-37.71-1.01-4.32-.8-8.62-1.69-12.78-3.14-12.47-4.37-22.78-11.71-30.88-22.2-4.71-6.11-7.1-13.13-8.81-20.52-1.25-5.4-1.16-10.79-.34-16.19.39-2.62,1.29-5.06,3.66-7.02.35,1.95.61,3.65.96,5.34,1.34,6.43,4.01,12.27,7.89,17.57,1.38,1.88,2.97,3.57,4.97,4.81,4.21,2.61,8.64,2.3,12.42-.89,2.68-2.27,4.56-5.13,5.9-8.34,1.38-3.32,2.64-6.68,3.96-10.03,1.35-3.42,2.89-6.75,4.59-10.01.6-1.15,1.25-1.38,2.44-1.13,4.06.85,8.14,1.64,12.25,2.24,8.33,1.21,16.59.85,24.76-1.06,8.29-1.94,15.19-6.55,21.6-11.94,2.33-1.96,4.92-3.44,7.74-5.21-.13,2.76-.6,5.11-.61,7.5-.03,3.37.03,6.73,1.11,9.96,1.43,4.27,3.98,7.47,8.63,8.44,2.32.49,4.61.15,6.85-.54,4.3-1.33,7.86-3.83,11.11-6.87,4.7-4.41,7.87-9.82,10.27-15.73.8-1.98,1.56-3.97,2.33-5.92Z"/>
  <path class="cls-9" d="m427.68,357.01c-20.34,34.72-26.98,71.1-15.95,110.28-7.48-.52-14.83.04-22.36,1.64.66-2.43,1.22-4.49,1.78-6.54,4.27-15.75,5.39-31.74,3.89-47.98-1.17-12.58-4.6-24.44-10.58-35.57-2.43-4.53-5.26-8.76-8.76-12.54-.31-.34-.75-.61-.81-1.33,16.45-9.74,34.22-10.75,52.8-7.97Z"/>
  <path class="cls-12" d="m531.43,402.38c.06,4.21.06,8.42.19,12.62.2,6.1.62,12.19,1.25,18.26-3.53-.24-7.01.35-10.5.63-4.85.4-9.69.99-14.53,1.52-1.83.2-3.66.26-5.5.22-1.37-.03-2.7-.26-4-.7-5.27-1.78-7.66-7.01-5.55-12.15.96-2.33,2.51-4.26,4.31-5.99,5.75-5.51,12.5-9.35,20.02-11.89,4.64-1.57,9.37-2.63,14.31-2.54Z"/>
  <path class="cls-12" d="m333.2,430.18c1.06,7.52,2.41,14.99,4.1,22.39.14.61.27,1.23.4,1.84-.97.12-1.79.65-2.66,1.04-6.63,2.94-13.25,5.92-20.16,8.2-2.66.87-5.35,1.6-8.12,2.01-2.15.31-4.29.38-6.4-.3-3.35-1.08-5.36-3.84-5.4-7.37-.03-2.57.88-4.85,2.14-7.01,2.92-4.99,6.98-8.91,11.8-12.02,7.42-4.78,15.51-7.76,24.31-8.78Z"/>
  <path class="cls-1" d="m471.89,502.16c3.17-.3,5.73,1.43,8.18,3.46.53.44.53.82.22,1.42-1.6,3.13-2.66,6.5-3.99,9.74-2.22,5.4-5.25,10.22-9.85,13.94-2.13,1.72-4.43,3.14-7.05,3.98-4.27,1.37-6.99,0-8.36-4.25-.69-2.14-.91-4.37-1.03-6.61-.2-3.75.29-7.51-.25-11.25-.11-.73.35-.97.82-1.28,4.83-3.14,9.87-5.89,15.22-8.04,1.87-.75,3.84-1.08,6.08-1.11Z"/>
  <path class="cls-1" d="m354.27,526.43c5.24-.05,10.26,1.31,15.34,2.3,1.09.21.97.82.72,1.56-.76,2.27-1.47,4.55-2.3,6.79-1.29,3.52-2.33,7.12-3.45,10.69-.96,3.07-2.24,5.97-4.49,8.35-3.01,3.19-6.18,3.31-9.39.33-1.53-1.42-2.73-3.12-3.81-4.9-3.59-5.95-5.82-12.38-6.65-19.29-.07-.55-.04-1.12-.11-1.67-.12-.94.35-1.43,1.12-1.87,2.63-1.5,5.47-2.18,8.46-2.29,1.51-.06,3.03,0,4.55,0Z"/>
  <path class="cls-2" d="m431.3,493.69c-.67,3.13-2.88,5.32-4.95,7.46-7.44,7.69-16.28,12.98-26.93,14.91-2.74.5-5.53.68-8.32.65-.33-2.39-.4-4.76.28-7.12.24-.82.57-1.36,1.54-1.56,13.24-2.66,23.9-9.47,32.13-20.13.05-.06.13-.1.45-.33,1.67,2.26,3.88,4.05,5.81,6.12Z"/>
  <path class="cls-12" d="m494.9,449.21c-.77-.06-1.34-.04-1.88-.15-2.28-.46-3.37-2.69-2.36-4.78.32-.66.76-1.26,1.38-1.63,3.24-1.93,6.64-3.15,10.47-2.16,3.02.78,3.77,3.32,1.71,5.64-1.09,1.23-2.46,2.08-4.07,2.38-1.8.33-3.64.49-5.25.7Z"/>
  <path class="cls-2" d="m385.65,515.8c-4.84-.42-8.78-2.43-11.56-6.51-.03-2.16,1.01-3.94,1.96-5.71.76-.13,1.06.44,1.47.74,2.19,1.64,4.55,2.91,7.28,3.39,1.14.2,1.71.71,1.32,1.94-.65,2.01-.23,4.11-.47,6.16Z"/>
  <path class="cls-12" d="m305.91,475.85c1.33-.07,2.51.07,3.09,1.4.56,1.3-.06,2.33-.91,3.24-.93.99-1.96,1.89-3.16,2.54-2.06,1.12-4.21.57-5.18-1.27-.99-1.88-.11-4.18,2.03-5.15,1.33-.6,2.76-.74,4.13-.76Z"/>
  <path class="cls-2" d="m516.9,534.83c.1.07.15.17.15.3-.69.26-1.39.31-2.1.13.56-.54,1.32-.2,1.95-.42Z"/>
  <path class="cls-11" d="m603.99,240.39c.28,5-.05,10.02-.49,15.03-.61,7-1.74,13.91-4.35,20.5-.83,2.1-2,4.01-3.52,5.67-2.93,3.19-6.67,4.29-10.86,3.82-5.08-.57-10.1-1.65-14.87-3.44-6.96-2.62-14.11-4.56-21.26-6.52-4.7-1.29-9.3-2.86-13.68-5.03-3.43-1.7-6.92-3.3-10.36-4.98-.93-.45-1.83-.98-2.68-1.57-2.91-2.02-3.73-5.52-1.63-8.38,2.21-3.02,3.44-6.49,4.91-9.83,4.08-9.29,6.61-19.14,9.83-28.74,3.19-9.53,5.54-19.34,9.5-28.61,3.17-7.41,6.25-14.88,10.87-21.56,2.77-3.99,6.03-7.41,10.5-9.54,5.24-2.49,12.81-1.62,17.44,2.71,3.13,2.93,5.56,6.36,7.58,10.1,4.81,8.95,7.51,18.58,9.35,28.52.87,4.7,1.5,9.43,2.22,14.14.25,1.65.22,3.33.46,5,.4,2.67.44,5.4.6,8.1.3,4.86.69,9.71.43,14.63Z"/>
  <path class="cls-4" d="m532.52,143c4.52-9.28,9.47-18.27,16.36-26.08,4.46-5.06,10-7.51,16.68-7.56,2.96-.02,5.71.7,8.22,2.21,3.73,2.26,6.8,5.26,9.36,8.79-3.55.61-6.88,1.99-10.23,3.21-10.04,3.67-19.73,8.13-29.19,13.1-3.1,1.63-6.14,3.38-9.1,5.24-.66.41-1.23,1.06-2.09,1.09Z"/>
  <path class="cls-4" d="m237.03,280.2c.82-4.64,2.17-9.16,3.31-13.73,4.98-19.96,11.62-39.37,19.16-58.48,4.46-11.29,10.37-21.77,17.72-31.42,3.42-4.49,7.66-7.84,12.98-9.87,5.55-2.11,10.59-1.28,15.04,2.45,5.68,4.77,10.05,10.66,13.92,16.95-4.79,3.42-9.34,7.14-13.77,11.01-2.93,2.56-5.96,5.01-8.89,7.58-1.44,1.26-2.75,2.66-4.11,4.02-2.55,2.53-5.1,5.06-7.62,7.62-5.3,5.4-10.23,11.12-15.09,16.92-8.81,10.51-16.75,21.64-24.12,33.19-2.57,4.03-4.93,8.18-7.36,12.29-.33.55-.57,1.15-1.18,1.46Z"/>
</svg>