<?xml version="1.0" encoding="UTF-8"?>
<svg id="_图层_1" data-name="图层 1" xmlns="http://www.w3.org/2000/svg" viewBox="0 0 960 960">
  <defs>
    <style>
      .cls-1 {
        fill: #fb71d5;
      }

      .cls-1, .cls-2, .cls-3, .cls-4, .cls-5, .cls-6, .cls-7, .cls-8, .cls-9, .cls-10, .cls-11, .cls-12, .cls-13, .cls-14 {
        stroke-width: 0px;
      }

      .cls-2 {
        fill: #f3d6aa;
      }

      .cls-3 {
        fill: #030303;
      }

      .cls-4 {
        fill: #bb3a98;
      }

      .cls-5 {
        fill: #fdabe6;
      }

      .cls-6 {
        fill: #040304;
      }

      .cls-7 {
        fill: #fca9e2;
      }

      .cls-8 {
        fill: #050404;
      }

      .cls-9 {
        fill: #fe72d8;
      }

      .cls-10 {
        fill: #ba813d;
      }

      .cls-11 {
        fill: #b63b96;
      }

      .cls-12 {
        fill: #ba3997;
      }

      .cls-13 {
        fill: #fdfdfd;
      }

      .cls-14 {
        fill: #fe72d7;
      }
    </style>
  </defs>
  <path class="cls-3" d="m539.33,378.9c2.1.97,4.22,1.89,6.3,2.91,10.21,5,18.09,12.43,23.56,22.43,6.89,12.6,11.02,25.97,11.48,40.41.36,11.19.52,22.38-.51,33.53-1.27,13.85-3.57,27.55-6.62,41.13-.33,1.49-.49,2.79.4,4.3,1.54,2.65.35,5.9-2.39,7.34-.63.33-1.35.47-2.02.7-3.43.11-6.82-.19-10.2-.83-14.58-2.74-29.26-4.77-44.11-5.32-1.27-.05-2.55-.05-3.83-.11-.86-.04-1.42.22-1.35,1.19.16,2.17-.44,4.27-.51,6.41-.96,3.87-1.92,7.74-2.89,11.61-1.03,4.11-2.16,8.19-3.55,12.19-6.07,17.53-17.35,30.92-32.8,40.92-11.37,7.36-23.94,11.6-37.22,13.96-9.8,1.74-19.63,2.67-29.58,1.96-21.29-1.53-41.07-7.75-59.02-19.37-14.38-9.32-21.39-23.06-23.11-39.78-.43-4.18.42-8.28,1.23-12.35.47-1.27,1-2.51,1.38-3.8.38-1.26,1.32-2.36,1.19-3.76-.95-.37-1.83-.19-2.7-.18-15.59.16-31.16.61-46.7,2.05-6.92.64-13.85,1.23-20.78,1.68-4.29.28-8.59.82-12.91.24-.83-.28-1.68-.51-2.47-.87-1.08-.49-1.86-1.39-1.97-2.55-.34-3.58-1.31-7.04-1.67-10.62-1.3-13.02.35-25.81,2.65-38.57,2.02-11.18,4.78-22.14,9.24-32.63.09-.21.1-.46.14-.7.57-.6.73-1.41,1.05-2.13,2.81-6.46,6.07-12.68,9.99-18.54,8.85-13.23,20.25-23.61,34.55-30.68,14.89-7.36,30.43-12.06,47.3-10.94,1.01.07,1.6-.22,2.09-1.14,1.83-3.5,4.45-6.42,7.16-9.26,6.04-6.31,13.19-11.11,20.87-15.12,23.65-12.37,48.77-17.83,75.44-15.8,11.15.85,21.42,4.24,30.64,10.65,4.71,3.28,8.89,7.09,11.66,12.19.79,1.45,1.63,1.83,3.22,1.59,11.3-1.71,22.47-.61,33.57,1.74,4.69.99,9.21,2.59,13.8,3.94Zm-151.58,139.71c-.24,1.17-.46,2.35-.73,3.52-.41,1.82-.42,3.53.23,5.38,1.15,3.26-.78,6.66-4.13,7.82-1.47.51-2.98.53-4.5.39-1.59-.15-3.18-.31-4.78-.39-12.3-.6-24.6-.87-36.91-1.06-2.32-.04-2.31-.02-2.82,2.13-.31,1.32-.66,2.63-.99,3.95-.87,3.49-1.72,7.01-1.64,10.63.22,9.9,3.37,18.8,9.42,26.64,3.67,4.76,8.33,8.38,13.51,11.33,17.94,10.24,37.23,15.52,57.9,15.52,9.23,0,18.28-1.62,27.26-3.68,11.6-2.65,21.99-7.95,31.26-15.14,11.18-8.66,19.1-19.88,23.25-33.57,1.72-5.66,3.14-11.4,4.46-17.16.57-2.5,1.02-5.01,1.25-7.56.18-1.98.15-2.04-1.82-2.01-5.43.09-10.87.22-16.3.35-17.6.43-35.1,2.06-52.55,4.29-5.47.7-10.93,1.48-16.39,2.22-1.29.18-2.56.15-3.8-.25-2.12-.67-3.17-2.44-2.78-4.65.09-.54.42-1.09.19-1.64-1.23-2.92-1.22-6.08-1.8-9.13-.01-2.23,0-4.46-.05-6.69-.03-1.44-.15-1.55-1.53-1.12-3.92,1.21-7.89,1.97-12.01,1.3-1.07-.17-1.63.19-1.83,1.29-.42,2.43-.92,4.84-1.38,7.26Zm-25.63-10.53c.08,3.84.08,7.67-.09,11.51-.08,1.74-.09,1.79,1.56,1.83,4.4.12,8.79.36,13.16.89,1.32.16,1.86-.3,2.12-1.54.76-3.76,1.61-7.5,2.39-11.25.43-2.05.4-2.05-1.51-3.1-.77-.42-1.55-.83-2.27-1.34-5.99-4.18-10.28-9.57-11.69-16.9-1.72-8.97,2.93-16.05,11.8-18.12,2.26-.53,4.56-.86,6.89-.84,1.28.01,1.64-.5,1.63-1.7-.04-3.76.15-7.52-.04-11.27-.46-9.24-2.12-18.29-5.69-26.85-4.8-11.5-12.5-20.37-24.28-25.22-6.24-2.57-12.84-3.25-19.49-3.45-10.32-.31-20.14,2.08-29.72,5.67-19.7,7.38-34.54,20.3-44.42,38.9-1.95,3.67-3.71,7.43-5.34,11.26-4.41,10.36-6.97,21.23-8.9,32.28-2.19,12.48-3.52,25.01-2.95,37.7.09,1.92.09,1.94,1.91,1.53,6.48-1.48,13.04-2.45,19.63-3.23,11.67-1.38,23.38-2.39,35.11-3.21,1.91-.13,1.93-.15,2.17-2.04.6-4.6.96-9.22.96-13.87,0-6.56.01-13.11.02-19.67,0-7.28.33-14.55,1.5-21.75,1.3-7.99,3.34-15.79,6.67-23.2,2.28-5.06,5.53-9.33,10.32-12.31,2.56-1.59,5.3-2.61,8.32-2.78,5.01-.28,9.22,1.55,12.8,4.97,2.82,2.69,4.77,5.98,6.48,9.44,5.38,10.88,8.26,22.46,9.61,34.46.56,5,1.19,10,1.05,15.05-.4-.04-.8-.05-1.19-.12-9.12-1.47-18-.41-26.71,2.47-2.05.68-4.05,1.51-5.81,2.8-4.91,3.61-4.33,9.96,1.16,12.6,1.83.88,3.79,1.25,5.79,1.38,5.36.36,10.7.05,16.05-.28,3.67-.23,7.3-.91,10.99-.71Zm198.12-20.65c-8.14-.37-16.29-.67-24.43,0-4.3.36-8.6.78-12.73,2.14-3.44,1.13-5.13,3.17-5.1,5.88.03,2.76,1.95,4.85,5.44,5.86,2,.58,4.06.85,6.14,1.02,7.66.62,15.33.43,23,.18,1.58-.05,3.18-.35,4.75.15-1.24,4.69-2.47,9.38-4.8,13.85,3.49.47,6.74.9,9.91,1.66,1.21.29,1.7-.03,2.02-1.23,1.16-4.41,2.08-8.87,2.56-13.41,2.08-19.38,1.83-38.79.51-58.19-.83-12.21-4.12-23.72-10.04-34.48-3.56-6.47-8.44-11.59-14.76-15.38-3.16-1.89-6.44-3.54-9.89-4.85-7.66-2.9-15.58-4.77-23.69-5.84-6.93-.92-13.87-.95-20.78.21-11.27,1.88-20.99,6.96-29.64,14.29-7.46,6.33-13.27,14.03-18.37,22.3-9.25,15.02-15.64,31.24-20.18,48.24-.35,1.31-.05,1.74,1.14,2.27,5.59,2.45,7.79,7.24,6.14,13.14-.7,2.49-1.91,4.73-3.41,6.83-2.62,3.66-5.67,6.93-9.17,9.75-.87.7-1.32,1.46-1.44,2.59-.4,3.74-.72,7.48-.78,11.24-.04,2.21-.23,4.44.05,6.65.33,0,.58.05.8,0,12.01-2.81,24.21-4.41,36.47-5.55,15.05-1.4,30.12-2.38,45.23-2.76.32,0,.64-.04.96-.03.75.02,1.06-.3,1.29-1.06,2.97-9.94,4.26-20.14,4.91-30.45.61-9.65.91-19.32,1.35-28.98.24-5.27.57-10.53,1.46-15.74,1.65-9.62,6.65-16.99,14.81-22.26,5.35-3.46,11.12-4.22,17.23-2.49,5.84,1.65,10.41,5.11,14.04,9.9,5.19,6.84,8.17,14.6,9.59,23,1.71,10.09,1.44,20.23.72,30.37-.26,3.74-.47,7.5-1.32,11.18Zm-209.82-96.17c14.32,2.98,25.4,10.31,33.44,22.26,6.88,10.22,10.07,21.65,11.45,33.71.76,6.61.68,13.25.41,19.88-.1,2.37.06,2.04,2.02,2.16,3.75.22,7.5.49,11.25.73,1.76.11,1.75.11,2.27-1.62,1.41-4.75,2.7-9.54,4.25-14.24,5.86-17.72,13.99-34.31,25.17-49.32,9.23-12.39,20.92-21.69,35.3-27.5.35-.14.78-.18.99-.67-.06-.17-.1-.42-.24-.59-.5-.62-1.01-1.24-1.57-1.81-3.93-3.96-8.46-7.04-13.64-9.16-6.43-2.64-13.15-3.89-20.04-4.45-23.3-1.89-45.55,1.86-66.56,12.33-8.35,4.16-16.11,9.17-22.66,15.89-.64.66-1.45,1.22-1.83,2.4Z"/>
  <path class="cls-14" d="m632.33,337.64c-2.38.43-4.21-.77-5.84-2.19-13.59-11.86-28.31-22.04-44.15-30.67-21.11-11.49-43.08-20.91-66.05-27.98-10.91-3.36-22.02-5.86-33.29-7.76-9.15-1.54-18.33-2.41-27.61-2.26-1,.02-2.09.32-2.97-.49,2.5-.35,4.41-1.71,6.1-3.5,1.81-1.92,3.54-3.91,5.14-6,6.53-8.49,12.75-17.2,18.57-26.18,16.13-24.89,30.84-50.59,44.56-76.88,1.88-3.6,3.65-7.27,5.8-10.73,1.1-.26,2.06-.84,3-1.44,4.55-2.94,9.39-5.38,14.2-7.86,4.16-2.15,8.53-3.92,12.84-5.77,6.65-2.86,13.4-5.44,20.34-7.53,1.9,1.73,3.38,3.82,4.89,5.86,10.75,14.47,19.12,30.22,25.05,47.25,1.97,5.66,3.79,11.37,5.68,17.05,4.58,13.78,7.4,27.94,9.04,42.35.91,8.03,1.21,16.09,1.67,24.15.57,9.98.87,19.95.37,29.95-.56,11.17-.9,22.36-1.1,33.54-.06,3.12.07,6.23.41,9.33.32,2.93,1.27,5.59,3.35,7.75Zm-28.24-95.47c-.12-5.95-.17-10.09-.42-14.24-.29-4.85-.72-9.7-1.19-14.53-.59-6.01-1.58-11.99-2.82-17.91-1.97-9.41-4.79-18.53-9.68-26.89-2.06-3.53-4.35-6.87-7.75-9.31-5.33-3.83-10.94-4.47-16.9-1.57-5.1,2.48-8.4,6.74-11.32,11.37-2.43,3.86-4.37,7.98-6.28,12.1-2.59,5.58-5.03,11.23-6.82,17.11-3.97,13.05-8.04,26.07-12.42,38.99-2.2,6.49-4.75,12.86-8.35,18.75-1.7,2.78-1.29,5.04,1.02,7.33.8.8,1.69,1.45,2.71,1.94,3.46,1.65,6.95,3.25,10.37,4.97,4.87,2.46,10.04,4.1,15.25,5.63,5.43,1.59,10.99,2.74,16.29,4.77,2.98,1.14,6.01,2.15,9.09,2.98,4.25,1.14,8.51,2.08,12.96,1.87,2.67-.13,4.9-1.09,6.9-2.89,2.47-2.22,3.88-5.05,5.01-8.05,2.3-6.09,3.19-12.5,3.76-18.92.45-5.08.81-10.19.61-13.49Z"/>
  <path class="cls-9" d="m362.62,271.01c.76,3.27-1.11,5.28-3.42,7.02-2.28,1.73-4.61,3.39-6.93,5.06-3.35,2.4-6.56,5.01-10.06,7.21-.21-5.41-1.7-10.55-3.66-15.52-1.72-4.34-4.13-8.3-8.41-10.71-3.24-1.82-6.6-2.66-10.32-1.65-4.53,1.23-7.93,4.13-10.84,7.54-6.71,7.86-11.62,16.8-14.8,26.61-2.72,8.41-4.86,16.99-6.43,25.71-.19,1.05-.28,2.16-1.11,3.09-3.26,3.61-6.45,7.28-9.67,10.92-5.52,6.23-10.57,12.78-14.93,19.86-2.05,3.33-3.88,6.8-5.03,10.57-.28.91-.72,1.82.06,2.7-6.63,6.46-13.35,12.84-19.68,19.6-2.89,3.08-5.71,6.25-7.95,9.87-.8,1.29-1.63,2.6-3.36,2.79-.04-1.68,0-3.36-.15-5.02-.3-3.51-.39-7.02-.47-10.54-.38-15.52.11-31.01,1.48-46.48,1.36-15.38,3.14-30.7,6.75-45.74,1.06-4.42,1.9-8.89,3.3-13.23.42-.29.47-.68.34-1.13l-.1.03c.98-.24,1.24-1.16,1.7-1.86.43-.66.71-1.43,1.12-2.11,3.95-6.55,8.03-13,12.37-19.3,2.67-3.87,5.31-7.75,8.21-11.44,4.37-5.57,8.74-11.13,13.39-16.48,3.82-4.38,7.84-8.58,11.69-12.93,3.87-4.36,8.48-7.98,12.57-12.13.17-.17.34-.34.53-.49,4.76-3.98,9.48-8,14.29-11.91,1.96-1.6,3.85-3.35,6.21-4.4,2.22,2.84,3.86,6.04,5.55,9.19,6.99,13.1,13.12,26.6,18.68,40.37,3.46,8.58,6.75,17.22,10.52,25.68,1.01,2.27,2.19,4.42,3.8,6.34,1.28,1.53,2.74,2.65,4.77,2.91Z"/>
  <path class="cls-6" d="m632.33,337.64c-2.08-2.17-3.04-4.82-3.35-7.75-.34-3.1-.46-6.21-.41-9.33.2-11.19.54-22.37,1.1-33.54.5-10,.2-19.97-.37-29.95-.46-8.06-.76-16.13-1.67-24.15-1.64-14.41-4.46-28.57-9.04-42.35-1.89-5.69-3.71-11.4-5.68-17.05-5.93-17.03-14.29-32.78-25.05-47.25-1.52-2.04-2.99-4.13-4.89-5.86-2.55-3.53-5.65-6.49-9.4-8.72-2.39-1.42-5.01-2.16-7.77-2.1-5.76.12-11.07,1.52-15.21,5.88-.94.98-1.92,1.93-2.8,2.96-6.32,7.41-10.92,15.9-15.18,24.58-2.15,3.46-3.92,7.12-5.8,10.73-13.72,26.28-28.43,51.99-44.56,76.88-5.82,8.99-12.04,17.7-18.57,26.18-1.61,2.09-3.33,4.08-5.14,6-1.69,1.79-3.6,3.15-6.1,3.5-3.6-.12-6.28-4.43-3.37-8.36,4.52-6.11,8.43-12.63,12.61-18.96,13.32-20.14,25.97-40.68,37.81-61.73,8.27-14.7,16.13-29.61,23.89-44.58,3.16-6.1,6.42-12.16,10.48-17.74,2.97-4.09,6.21-7.92,10.12-11.16,11.99-9.94,29.85-9.92,41.78.08,3.45,2.89,6.44,6.22,9.26,9.7,9.93,12.24,17.85,25.7,24.44,39.99,4.47,9.68,7.59,19.84,11.02,29.9,5,14.66,8.3,29.7,10.25,45.04.77,6.11,1.14,12.26,1.52,18.4,1.09,17.57,1.45,35.14.38,52.73-.43,7.18-.42,14.38-.57,21.58-.06,2.88-.24,5.75-.61,8.61-.29,2.26-.95,4.36-2.52,6.1-1.82,2.04-3.89,3.04-6.59,1.76Z"/>
  <path class="cls-8" d="m236.99,280.68c-1.4,4.33-2.24,8.81-3.3,13.23-3.62,15.04-5.39,30.36-6.75,45.74-1.37,15.47-1.86,30.96-1.48,46.48.09,3.52.17,7.03.47,10.54.14,1.67.1,3.35.15,5.02-.22.33-.42.68-.67,1-1.77,2.23-4.44,2.33-6.4.24-1.12-1.2-1.67-2.71-2.12-4.25-1.14-3.85-1.58-7.82-1.94-11.81-1.29-14.38-.88-28.75.19-43.12.87-11.8,1.98-23.58,3.9-35.26,2.18-13.26,5.62-26.24,8.86-39.27,5.38-21.58,12.35-42.65,20.53-63.33,4.43-11.2,10.11-21.72,16.94-31.62,1.82-2.63,3.76-5.17,5.93-7.53,5.54-6,12.38-9.79,20.29-11.6,6.51-1.49,12.7-.33,18.51,2.91,3.74,2.09,6.89,4.9,9.75,8.06,8.17,8.98,14.99,18.88,20.35,29.79,7.05,14.36,13.24,29.08,18.61,44.15,1.82,5.12,3.72,10.21,5.53,15.33,1.23,3.49,2,7.06,1.71,10.81-.18,2.33-.88,4.2-3.42,4.81-2.03-.25-3.5-1.38-4.77-2.91-1.61-1.92-2.79-4.07-3.8-6.34-3.77-8.45-7.05-17.1-10.52-25.68-5.56-13.76-11.69-27.27-18.68-40.37-1.69-3.16-3.32-6.36-5.55-9.19-3.87-6.28-8.32-12.08-13.84-17.01-.42-.37-.88-.69-1.34-1-4.11-2.77-8.47-3.43-13.22-1.81-5.64,1.93-10.09,5.39-13.66,10.08-7.1,9.33-12.9,19.4-17.26,30.29-7.78,19.43-14.54,39.21-19.61,59.53-1.08,4.32-2.46,8.56-3.15,12.97,0,0,.1-.03.1-.03-.41.29-.38.71-.34,1.13Z"/>
  <path class="cls-4" d="m257.06,369.43c-.78-.88-.34-1.79-.06-2.7,1.15-3.77,2.98-7.24,5.03-10.57,4.36-7.08,9.41-13.63,14.93-19.86,3.22-3.64,6.41-7.31,9.67-10.92.84-.93.92-2.04,1.11-3.09,1.57-8.71,3.71-17.3,6.43-25.71,3.18-9.81,8.09-18.75,14.8-26.61,2.92-3.42,6.32-6.31,10.84-7.54,3.72-1.01,7.08-.17,10.32,1.65,4.28,2.41,6.69,6.36,8.41,10.71,1.96,4.97,3.45,10.11,3.66,15.52-3.76,2.95-7.54,5.89-11.29,8.86-6.33,5-12.31,10.4-18.19,15.91-16.35,15.35-32.18,31.23-48.17,46.95-2.5,2.46-4.99,4.93-7.49,7.4Z"/>
  <path class="cls-7" d="m539.33,378.9c-4.59-1.34-9.1-2.95-13.8-3.94-11.1-2.35-22.27-3.45-33.57-1.74-1.59.24-2.43-.13-3.22-1.59-2.77-5.09-6.95-8.91-11.66-12.19-9.22-6.41-19.49-9.8-30.64-10.65-26.67-2.03-51.79,3.43-75.44,15.8-7.68,4.02-14.83,8.81-20.87,15.12-2.71,2.83-5.33,5.75-7.16,9.26-.48.92-1.07,1.21-2.09,1.14-16.86-1.12-32.4,3.58-47.3,10.94-14.3,7.07-25.7,17.45-34.55,30.68-3.92,5.86-7.18,12.08-9.99,18.54-.31.72-.48,1.53-1.05,2.13-1.04-2.15-.02-4.22.34-6.27,1-5.76,3.75-10.83,6.72-15.75,5.43-8.98,11.88-17.18,19.52-24.39,9.79-9.24,21.25-15.45,34.44-18.22,6.72-1.41,13.58-1.85,20.45-1.57,2.01.08,3.44-.35,4.59-2.18,1.22-1.94,2.76-3.69,4.3-5.42,5.02-5.63,11.32-9.54,17.73-13.29,4.27-2.5,8.6-4.89,13.07-7.03,11.92-5.71,24.33-9.92,37.32-12.43,4.93-.95,9.9-1.46,14.88-1.97,5.03-.51,10.06-.57,15.06-.28,6.9.4,13.75,1.45,20.46,3.25,7.79,2.09,15.48,4.48,22.7,8.13,4.29,2.17,8.13,5.03,11.16,8.82,1.28,1.6,2.73,2.38,4.92,2.28,5.36-.26,10.61.78,15.87,1.67,3.85.65,7.65,1.5,11.39,2.61,5.79,1.72,11.11,4.37,15.96,7.97.18.14.3.36.45.55Z"/>
  <path class="cls-11" d="m242.09,538.37c4.31.58,8.62.05,12.91-.24,6.93-.46,13.86-1.04,20.78-1.68,15.53-1.44,31.11-1.89,46.7-2.05.87,0,1.75-.19,2.7.18.13,1.41-.81,2.51-1.19,3.76-.39,1.29-.92,2.54-1.38,3.8-4.69-.34-9.36-1-14.08-1-8.23,0-16.41.68-24.61,1.19-4.3.27-8.6.57-12.9.69-7.58.21-15.16.3-22.73.43-1.03.02-2.09.05-3.1-.1-3.17-.46-3.99-1.83-3.09-4.98Z"/>
  <path class="cls-11" d="m509.54,533.01c.07-2.15.67-4.25.51-6.41-.07-.97.49-1.23,1.35-1.19,1.27.05,2.55.06,3.83.11,14.85.55,29.52,2.58,44.11,5.32,3.38.63,6.77.94,10.2.83-.12.28-.38.29-.61.29-.99,0-1.27.32-1.25,1.43.07,3.54-2.45,5.83-6,5.52-1.5-.13-3-.48-4.45-.92-13.68-4.16-27.71-5.42-41.94-5.07-1.92.05-3.83.08-5.75.12Z"/>
  <path class="cls-13" d="m560.25,487.44c.85-3.68,1.05-7.43,1.32-11.18.72-10.14.99-20.28-.72-30.37-1.42-8.41-4.41-16.16-9.59-23-3.63-4.79-8.2-8.25-14.04-9.9-6.11-1.73-11.88-.96-17.23,2.49-8.15,5.27-13.15,12.64-14.81,22.26-.89,5.22-1.22,10.47-1.46,15.74-.44,9.66-.73,19.33-1.35,28.98-.65,10.31-1.94,20.51-4.91,30.45-.23.76-.54,1.08-1.29,1.06-.32-.01-.64.02-.96.03-15.11.38-30.18,1.36-45.23,2.76-12.26,1.14-24.46,2.75-36.47,5.55-.22.05-.47,0-.8,0-.28-2.21-.09-4.44-.05-6.65.06-3.76.38-7.5.78-11.24.12-1.13.57-1.89,1.44-2.59,3.51-2.82,6.55-6.09,9.17-9.75,1.5-2.09,2.71-4.34,3.41-6.83,1.65-5.9-.54-10.69-6.14-13.14-1.19-.52-1.49-.96-1.14-2.27,4.54-17,10.92-33.22,20.18-48.24,5.1-8.27,10.91-15.97,18.37-22.3,8.64-7.33,18.37-12.42,29.64-14.29,6.92-1.15,13.85-1.13,20.78-.21,8.11,1.08,16.03,2.94,23.69,5.84,3.44,1.31,6.73,2.95,9.89,4.85,6.32,3.79,11.2,8.91,14.76,15.38,5.92,10.76,9.2,22.27,10.04,34.48,1.32,19.41,1.57,38.81-.51,58.19-.49,4.53-1.4,8.99-2.56,13.41-.32,1.2-.81,1.52-2.02,1.23-3.17-.77-6.42-1.19-9.91-1.66,2.33-4.47,3.56-9.16,4.8-13.84,1.25-5.03,2.47-10.06,2.93-15.24Z"/>
  <path class="cls-13" d="m361.83,489.94c.14-5.05-.48-10.05-1.05-15.05-1.35-12-4.23-23.58-9.61-34.46-1.71-3.46-3.67-6.74-6.48-9.44-3.58-3.42-7.78-5.26-12.8-4.97-3.02.17-5.76,1.2-8.32,2.78-4.79,2.97-8.04,7.24-10.32,12.31-3.34,7.41-5.37,15.2-6.67,23.2-1.17,7.2-1.5,14.47-1.5,21.75,0,6.56-.02,13.11-.02,19.67,0,4.64-.36,9.26-.96,13.87-.25,1.89-.26,1.91-2.17,2.04-11.73.82-23.43,1.83-35.11,3.21-6.59.78-13.15,1.74-19.63,3.23-1.81.42-1.82.39-1.91-1.53-.56-12.69.77-25.22,2.95-37.7,1.94-11.05,4.49-21.91,8.9-32.28,1.63-3.83,3.39-7.58,5.34-11.26,9.88-18.6,24.72-31.52,44.42-38.9,9.58-3.59,19.4-5.98,29.72-5.67,6.66.2,13.26.88,19.49,3.45,11.77,4.85,19.48,13.72,24.28,25.22,3.57,8.56,5.23,17.61,5.69,26.85.19,3.75,0,7.51.04,11.27.01,1.2-.35,1.71-1.63,1.7-2.32-.02-4.62.31-6.89.84-8.87,2.06-13.52,9.15-11.8,18.12,1.4,7.33,5.7,12.72,11.69,16.9.72.5,1.5.91,2.27,1.34,1.91,1.05,1.94,1.05,1.51,3.1-.78,3.75-1.63,7.5-2.39,11.25-.25,1.24-.8,1.7-2.12,1.54-4.37-.52-8.76-.76-13.16-.89-1.65-.05-1.65-.1-1.56-1.83.18-3.84.18-7.67.09-11.51,0-5.76,0-11.52,0-17.29,0-.32-.05-.62-.29-.87Z"/>
  <path class="cls-2" d="m404.55,516.57c.58,3.05.57,6.21,1.8,9.13.23.55-.1,1.09-.19,1.64-.38,2.2.66,3.97,2.78,4.65,1.23.39,2.51.42,3.8.25,5.46-.75,10.92-1.52,16.39-2.22,17.45-2.23,34.95-3.86,52.55-4.29,5.43-.13,10.87-.26,16.3-.35,1.97-.03,2,.02,1.82,2.01-.23,2.55-.68,5.06-1.25,7.56-1.32,5.76-2.74,11.5-4.46,17.16-4.15,13.69-12.07,24.91-23.25,33.57-9.27,7.18-19.66,12.48-31.26,15.14-8.99,2.05-18.03,3.68-27.26,3.68-20.66,0-39.96-5.28-57.9-15.52-5.18-2.96-9.84-6.58-13.51-11.33-6.04-7.84-9.2-16.74-9.42-26.64-.08-3.62.77-7.14,1.64-10.63.33-1.32.67-2.63.99-3.95.51-2.15.5-2.17,2.82-2.13,12.31.2,24.62.46,36.91,1.06,1.6.08,3.19.24,4.78.39,1.53.14,3.04.12,4.5-.39,3.35-1.16,5.28-4.56,4.13-7.82-.65-1.85-.65-3.56-.23-5.38.26-1.17.49-2.34.73-3.52,2.9,1.37,5.85,1.66,8.99.79,2.68-.75,5.27-1.71,7.8-2.84Zm29.89,70.77c6.61-.26,13.04-1.47,18.97-4.48,7.79-3.96,13.05-10.27,15.51-18.62,2.46-8.32-2.25-15.74-10.56-17.23-2.13-.38-4.28-.48-6.45-.27-4.4.43-8.62,1.65-12.84,2.88-6.9,2.01-13.57,4.75-20.51,6.63-.46.12-.95.28-1.31.57-3.87,3.14-8.07,8.73-6.38,15.26,1.04,4.01,3.15,7.36,6.53,9.76,5.08,3.6,10.7,5.68,17.03,5.5Z"/>
  <path class="cls-2" d="m350.43,391.27c.39-1.18,1.19-1.74,1.83-2.4,6.56-6.72,14.31-11.73,22.66-15.89,21.01-10.48,43.26-14.22,66.56-12.33,6.89.56,13.62,1.81,20.04,4.45,5.17,2.12,9.71,5.2,13.64,9.16.56.57,1.07,1.19,1.57,1.81.14.17.17.42.24.59-.21.49-.65.53-.99.67-14.38,5.82-26.06,15.11-35.3,27.5-11.18,15.01-19.31,31.6-25.17,49.32-1.55,4.7-2.84,9.49-4.25,14.24-.51,1.72-.51,1.73-2.27,1.62-3.75-.24-7.5-.51-11.25-.73-1.96-.11-2.12.21-2.02-2.16.28-6.63.35-13.27-.41-19.88-1.39-12.06-4.58-23.49-11.45-33.71-8.04-11.94-19.12-19.27-33.44-22.26Z"/>
  <path class="cls-1" d="m361.83,489.94c.24.24.29.54.29.87,0,5.76,0,11.53,0,17.29-3.69-.21-7.33.48-10.99.71-5.35.33-10.69.64-16.05.28-2.01-.13-3.97-.5-5.79-1.38-5.49-2.64-6.07-8.99-1.16-12.6,1.76-1.29,3.76-2.12,5.81-2.8,8.71-2.88,17.59-3.94,26.71-2.47.39.06.79.08,1.19.12Z"/>
  <path class="cls-1" d="m560.25,487.44c-.45,5.18-1.67,10.22-2.93,15.24-1.57-.5-3.17-.2-4.75-.15-7.67.25-15.34.44-23-.18-2.08-.17-4.13-.44-6.14-1.02-3.49-1.01-5.41-3.1-5.44-5.86-.03-2.71,1.66-4.75,5.1-5.88,4.13-1.36,8.43-1.78,12.73-2.14,8.14-.68,16.29-.38,24.43,0Z"/>
  <path class="cls-10" d="m404.55,516.57c-2.54,1.12-5.12,2.09-7.8,2.84-3.14.87-6.09.58-8.99-.79.47-2.42.96-4.84,1.38-7.26.19-1.11.76-1.47,1.83-1.29,4.12.66,8.08-.1,12.01-1.3,1.38-.42,1.5-.32,1.53,1.12.04,2.23.04,4.46.05,6.69Z"/>
  <path class="cls-12" d="m604.09,242.17c.21,3.31-.15,8.41-.61,13.49-.57,6.43-1.46,12.83-3.76,18.92-1.13,3-2.54,5.83-5.01,8.05-2,1.79-4.22,2.75-6.9,2.89-4.45.22-8.71-.73-12.96-1.87-3.09-.83-6.11-1.83-9.09-2.98-5.3-2.03-10.86-3.19-16.29-4.77-5.21-1.52-10.37-3.17-15.25-5.63-3.42-1.73-6.91-3.33-10.37-4.97-1.02-.49-1.91-1.14-2.71-1.94-2.31-2.29-2.71-4.55-1.02-7.33,3.6-5.9,6.15-12.26,8.35-18.75,4.38-12.92,8.45-25.94,12.42-38.99,1.79-5.88,4.23-11.53,6.82-17.11,1.92-4.12,3.85-8.24,6.28-12.1,2.92-4.63,6.23-8.89,11.32-11.37,5.96-2.9,11.57-2.25,16.9,1.57,3.39,2.43,5.69,5.78,7.75,9.31,4.89,8.36,7.71,17.48,9.68,26.89,1.24,5.92,2.23,11.9,2.82,17.91.47,4.83.9,9.67,1.19,14.53.25,4.15.3,8.29.42,14.24Z"/>
  <path class="cls-7" d="m532.61,143c4.26-8.69,8.86-17.17,15.18-24.58.88-1.03,1.86-1.98,2.8-2.96,4.14-4.36,9.45-5.76,15.21-5.88,2.76-.06,5.39.68,7.77,2.1,3.75,2.23,6.85,5.18,9.4,8.72-6.94,2.09-13.69,4.67-20.34,7.53-4.31,1.85-8.67,3.62-12.84,5.77-4.8,2.48-9.64,4.92-14.2,7.86-.94.61-1.89,1.18-3,1.44Z"/>
  <path class="cls-5" d="m237.22,279.58c.69-4.41,2.07-8.65,3.15-12.97,5.07-20.32,11.83-40.1,19.61-59.53,4.36-10.88,10.16-20.96,17.26-30.29,3.57-4.69,8.03-8.15,13.66-10.08,4.75-1.63,9.11-.96,13.22,1.81.46.31.93.63,1.34,1,5.52,4.93,9.98,10.73,13.84,17.01-2.36,1.05-4.25,2.8-6.21,4.4-4.81,3.92-9.54,7.93-14.29,11.91-.18.15-.36.32-.53.49-4.09,4.15-8.7,7.76-12.57,12.13-3.86,4.35-7.87,8.54-11.69,12.93-4.65,5.35-9.02,10.91-13.39,16.48-2.9,3.69-5.55,7.58-8.21,11.44-4.34,6.3-8.43,12.75-12.37,19.3-.41.68-.69,1.45-1.12,2.11-.46.7-.72,1.62-1.7,1.86Z"/>
  <path class="cls-5" d="m236.99,280.68c-.05-.42-.07-.84.34-1.13.13.45.08.85-.34,1.13Z"/>
  <path class="cls-8" d="m434.44,587.33c-6.33.18-11.95-1.9-17.03-5.5-3.39-2.4-5.5-5.75-6.53-9.76-1.69-6.53,2.51-12.12,6.38-15.26.36-.29.85-.45,1.31-.57,6.94-1.88,13.61-4.63,20.51-6.63,4.22-1.23,8.44-2.45,12.84-2.88,2.17-.21,4.32-.11,6.45.27,8.31,1.49,13.02,8.91,10.56,17.23-2.47,8.35-7.72,14.66-15.51,18.62-5.93,3.01-12.36,4.22-18.97,4.48Zm5.77-30.18c-.77-.22-1.28.01-1.81.15-4.56,1.16-9.1,2.42-13.7,3.43-2.27.5-4.18,1.53-5.94,2.93-1.58,1.26-2.39,2.96-2.44,5-.09,3.22,1.33,5.81,3.73,7.69,3.9,3.05,8.28,5.08,13.39,5.13,5.34.05,10.48-1,15.41-3,6.49-2.64,10.4-7.75,12.85-14.08.65-1.68,1.03-3.52.17-5.5-.76,1.19-1.4,2.28-2.14,3.31-2.11,2.93-4.72,5.18-8.34,6.05-5.43,1.3-10.19-1.88-11.07-7.39-.19-1.19-.14-2.38-.12-3.72Zm18.33-1.94c-.41-.57-.92-.54-1.38-.63-2.97-.57-5.88-.09-8.79.46-3.51.66-3.58.75-3.13,4.31.05.39.13.79.24,1.17.74,2.54,2.54,3.57,5.13,2.96,2.23-.52,3.82-1.94,5.06-3.77.99-1.45,1.89-2.95,2.87-4.51Z"/>
  <path class="cls-1" d="m440.21,557.15c-.01,1.34-.07,2.53.12,3.72.87,5.51,5.64,8.69,11.07,7.39,3.62-.87,6.23-3.12,8.34-6.05.74-1.02,1.37-2.12,2.14-3.31.86,1.98.48,3.82-.17,5.5-2.45,6.33-6.35,11.44-12.85,14.08-4.93,2.01-10.07,3.05-15.41,3-5.11-.04-9.49-2.08-13.39-5.13-2.4-1.88-3.83-4.47-3.73-7.69.06-2.04.87-3.73,2.44-5,1.75-1.4,3.66-2.43,5.94-2.93,4.59-1.01,9.13-2.27,13.7-3.43.53-.14,1.05-.37,1.81-.15Z"/>
  <path class="cls-13" d="m458.53,555.21c-.99,1.56-1.89,3.06-2.87,4.51-1.24,1.83-2.83,3.24-5.06,3.77-2.59.61-4.39-.42-5.13-2.96-.11-.38-.19-.78-.24-1.17-.45-3.56-.38-3.65,3.13-4.31,2.91-.55,5.82-1.03,8.79-.46.46.09.97.06,1.38.63Z"/>
</svg>