<?xml version="1.0" encoding="UTF-8"?>
<svg id="_图层_1" data-name="图层 1" xmlns="http://www.w3.org/2000/svg" viewBox="0 0 960 960">
  <defs>
    <style>
      .cls-1 {
        fill: #b77f3c;
      }

      .cls-1, .cls-2, .cls-3, .cls-4, .cls-5, .cls-6, .cls-7, .cls-8, .cls-9, .cls-10, .cls-11, .cls-12, .cls-13, .cls-14 {
        stroke-width: 0px;
      }

      .cls-2 {
        fill: #f3d5a9;
      }

      .cls-3 {
        fill: #bb3a98;
      }

      .cls-4 {
        fill: #fdabe6;
      }

      .cls-5 {
        fill: #040304;
      }

      .cls-6 {
        fill: #030203;
      }

      .cls-7 {
        fill: #f3d5aa;
      }

      .cls-8 {
        fill: #050304;
      }

      .cls-9 {
        fill: #ba3997;
      }

      .cls-10 {
        fill: #fdfdfd;
      }

      .cls-11 {
        fill: #fc71d6;
      }

      .cls-12 {
        fill: #fe72d7;
      }

      .cls-13 {
        fill: #b73a96;
      }

      .cls-14 {
        fill: #fcaae3;
      }
    </style>
  </defs>
  <path class="cls-6" d="m446.73,349.76c.22.1.42.24.65.29,6.73,1.39,12.67,4.42,18.01,8.69.55.44,1.18.79,1.77,1.18,2.12,2.05,4.74,3.54,6.67,5.78,1.15,1.34,2.1,1.6,3.85.94,14.01-5.26,28.55-7.53,43.49-6.9,15.39.64,28.93,6.12,40.59,16.21.47.41.83.99,1.5,1.13h0c.01.34.2.48.51.52,1.74,1.96,3.57,3.87,5.22,5.91,7.95,9.81,13.5,20.93,17.16,32.93,5.42,17.77,7.91,35.98,7.08,54.59-.26,5.9-.56,11.8-1.14,17.68-.24,2.39-.46,2.38,2.01,2.73,1.58.22,3.15.51,4.72.83,1.58.32,3.06.9,4.35,1.91,3.52,2.76,3.47,7.27-.11,9.98-.38.29-.75.58-1.13.88-2.44.62-4.89.59-7.36.13-1.34-.25-2.68-.44-4.02-.68-9.06-1.64-18.18-2.57-27.4-2.75-17.84-.36-35.64.59-53.46,1.21-.32.01-.64.04-.96.07-.94.09-1.22.57-.96,1.47.9,3.08,1.09,6.29,1.83,9.4.08,1.49.16,2.98.24,4.47-.23,3.22-.22,6.45,0,9.67-.11,1.42-.21,2.84-.32,4.25-.34.53-.42,1.08-.15,1.66-.11.73-.22,1.45-.33,2.18-.32.35-.41.74-.16,1.17-.11.57-.22,1.14-.32,1.71-.32.34-.45.71-.19,1.15-.12.57-.24,1.15-.35,1.72-.28.18-.42.39-.14.69-.1.41-.2.83-.3,1.24-.29.18-.39.4-.15.69-.11.41-.22.82-.33,1.23-.29.17-.41.39-.16.68-.12.42-.23.84-.35,1.26-.55.6-.69,1.31-.57,2.09-.13.43-.25.85-.38,1.27-.94,2.03-1.66,4.14-2.11,6.33-.23.56-.45,1.12-.67,1.68-.31.17-.48.39-.27.75-.24.55-.47,1.1-.71,1.64-.3.16-.5.37-.29.73-1.52,3.58-3.28,7.05-5.3,10.38,0,0-.15-.02-.15-.02l.06.14c-1.87,3.14-3.92,6.16-6.23,8.99-.36.02-.51.21-.45.56-.8.92-1.6,1.84-2.39,2.76,0,0-.13-.04-.13-.04l.04.14c-.12.13-.24.26-.36.39,0,0-.14-.04-.14-.04l.04.14c-.12.13-.25.27-.37.4,0,0-.14-.04-.14-.04,0,0,.04.14.04.14-.13.13-.25.26-.37.4,0,0-.14-.04-.14-.04l.04.14c-.13.13-.26.26-.39.39,0,0-.14-.04-.14-.04l.04.14c-.13.13-.26.26-.39.39,0,0-.14-.05-.14-.05l.04.14c-.13.13-.26.26-.39.39,0,0-.14-.05-.14-.05l.04.14c-.13.13-.26.26-.39.38,0,0-.14-.05-.14-.05l.04.14c-.13.12-.27.25-.4.37,0,0-.13-.05-.13-.05,0,0,.04.14.04.14-.13.12-.27.25-.4.37,0,0-.13-.05-.13-.05l.03.14c-.13.12-.27.25-.4.37,0,0-.13-.05-.13-.05l.03.14c-.13.12-.26.24-.4.36,0,0-.13-.05-.13-.05l.04.13c-.58.5-1.15,1-1.73,1.5,0,0-.13-.05-.13-.05l.04.14c-.14.11-.29.23-.43.34,0,0-.13-.06-.13-.06l.03.14c-.14.11-.29.23-.43.34,0,0-.12-.06-.12-.06l.02.14c-.14.11-.28.23-.42.34,0,0-.1-.06-.1-.06,0,0,.03.11.03.11-.25.2-.5.4-.75.6,0,0-.13-.06-.13-.06l.04.14c-.15.11-.3.22-.45.33,0,0-.13-.06-.13-.06,0,0,.03.14.03.14-.14.11-.29.22-.43.33,0,0-.12-.06-.12-.06l.03.13c-.25.2-.49.39-.74.59,0,0-.13-.06-.13-.06,0,0,.03.14.03.14-.15.11-.3.22-.45.32,0,0-.13-.06-.13-.06l.03.14c-.15.11-.29.21-.44.32,0,0-.12-.06-.12-.06l.03.13c-.25.19-.5.39-.75.58,0,0-.12-.06-.12-.06l.03.14c-.15.11-.31.21-.46.32,0,0-.13-.06-.13-.06,0,0,.03.14.03.14-.15.11-.29.21-.44.32,0,0-.11-.07-.11-.07l.03.13c-.26.19-.51.37-.77.56,0,0-.13-.06-.13-.06l.03.14c-.16.1-.31.21-.46.31,0,0-.12-.07-.12-.07,0,0,.02.14.02.14-.17.12-.33.23-.5.35-.23-.09-.36-.05-.31.24-.17.11-.34.22-.51.33,0,0-.12-.07-.12-.07l.02.14c-.17.11-.34.23-.5.34-.24-.1-.36-.05-.31.23-.17.11-.35.21-.52.32,0,0-.12-.07-.12-.07l.02.14c-.17.11-.34.22-.51.33-.23-.1-.36-.06-.31.23-.18.11-.35.21-.53.32,0,0-.12-.07-.12-.07v.14c-.16.11-.33.22-.5.33-.22-.1-.36-.07-.32.22-.17.1-.35.21-.52.31,0,0-.11-.07-.11-.07l.02.13c-.27.17-.54.34-.81.51,0,0-.12-.07-.12-.07l.02.14c-.18.1-.35.21-.53.31-.23-.11-.36-.06-.32.22-.18.1-.36.2-.53.29,0,0-.11-.08-.11-.08v.13c-.26.16-.54.33-.81.49,0,0-.12-.07-.12-.07l.02.14c-.19.11-.38.21-.57.31-.53-.02-.97.14-1.18.68-.22.11-.44.22-.65.33-.24-.14-.34-.06-.32.21-.19.09-.37.18-.56.27,0,0-.1-.08-.1-.08v.13c-.31.17-.62.33-.93.49-.4-.09-.68.06-.85.44-.33.16-.65.32-.98.48,0,0-.11-.08-.11-.08v.14c-.18.09-.37.19-.55.28-.18-.12-.32-.13-.32.15-.34.16-.67.32-1.01.48-.23-.15-.34-.09-.33.19-.22.09-.43.18-.64.27-.22-.14-.35-.1-.34.18-.23.09-.46.19-.68.28-.54-.09-.95.1-1.25.55-.24.11-.49.21-.73.32-.31-.12-.57-.11-.65.29-.23.09-.46.17-.69.25-.2-.14-.34-.13-.35.16-.23.09-.46.17-.69.26-.31-.13-.57-.12-.67.28-.25.09-.5.17-.75.25-.64-.05-1.19.18-1.66.61-.27.09-.54.19-.81.28-.83-.12-1.53.33-2.28.56-9.21,2.85-18.62,4.43-28.25,4.77-11.5.4-22.76-1.37-33.95-3.74-4.84-1.02-9.5-2.64-14.27-3.9-.27-.09-.54-.18-.8-.26-.54-.58-1.24-.78-2.02-.77-.24-.09-.49-.18-.73-.27,0-.29-.15-.29-.35-.15-.24-.08-.47-.16-.71-.24-.09-.4-.34-.41-.66-.28-.23-.09-.46-.18-.69-.27,0-.29-.14-.3-.34-.16-.22-.08-.45-.16-.67-.24,0-.28-.11-.33-.33-.17-.35-.15-.7-.29-1.04-.44,0-.29-.14-.27-.33-.14-.22-.09-.44-.18-.65-.26.01-.29-.12-.3-.33-.17-.22-.09-.44-.17-.66-.26.01-.28-.11-.33-.33-.18-.23-.09-.46-.19-.68-.28-.06-.39-.31-.43-.62-.31-.22-.11-.45-.22-.67-.32,0-.27-.14-.27-.33-.15-.21-.1-.42-.21-.63-.31,0-.28-.14-.28-.33-.16-.21-.11-.42-.21-.63-.31,0-.28-.13-.28-.33-.17-.19-.1-.38-.19-.56-.29,0,0,.01-.14.01-.14l-.12.08c-.29-.15-.57-.3-.86-.46,0,0,.02-.13.02-.13l-.11.08c-.19-.09-.38-.18-.56-.27.02-.25-.07-.35-.31-.21-.2-.11-.41-.21-.61-.32.04-.27-.08-.32-.31-.21-.18-.1-.36-.21-.55-.31,0,0,.02-.14.02-.14l-.12.07c-.27-.17-.54-.34-.81-.5,0,0,.02-.13.02-.13l-.11.07c-.18-.1-.36-.21-.54-.31.05-.28-.08-.32-.3-.22-.17-.11-.35-.23-.52-.34,0,0,.02-.13.02-.13l-.12.07c-.18-.11-.36-.21-.53-.32.05-.27-.07-.33-.3-.23-.17-.12-.34-.23-.51-.35,0,0,.02-.13.02-.13l-.12.06c-.16-.1-.32-.21-.48-.31,0,0,.03-.13.03-.13l-.12.06c-.25-.19-.5-.38-.75-.57,0,0,.03-.12.03-.12,0,0-.12.06-.12.06-.15-.11-.3-.22-.44-.33,0,0,.03-.13.03-.13l-.13.06c-.15-.11-.3-.22-.45-.33,0,0,.04-.13.04-.13l-.13.06c-.24-.2-.49-.4-.73-.6,0,0,.04-.12.04-.12l-.11.06c-.14-.12-.28-.23-.42-.34,0,0,.03-.13.03-.13l-.13.05c-10.12-8.06-16.04-18.59-18.24-31.27-1.17-6.73-.26-13.34,1.4-19.89.4-1.6.85-3.18,1.27-4.77,1.75-4.91,3.56-9.79,5.74-14.55-1-.41-1.71-.16-2.39,0-4.37.96-8.76,1.83-13.08,2.96-22.33,5.87-44.23,13.17-66.21,20.17-2.52.8-5.03,1.58-7.67,1.8-1.04-.17-2.08-.33-3.12-.5-.11-.13-.25-.18-.42-.15-.08-.3-.25-.44-.57-.33-.06-.14-.16-.2-.3-.18,0,0-.02-.18-.02-.18l-.18.03c-.41-.44-.82-.88-1.23-1.32-.65-1.52-.86-3.09-.58-4.72.41-.72.81-1.43,1.21-2.15.22.03.31-.06.25-.28.14,0,.2-.08.2-.22.22.04.31-.04.26-.27.14,0,.21-.06.22-.2.23.04.34-.05.32-.29h.12s.04-.13.04-.13c.26.04.39-.08.41-.34,0,0,.08-.06.08-.06.58-.11,1.02-.42,1.33-.92,0,0,.1-.06.1-.06,1.3-.51,2.59-1.08,3.77-1.85.18-.06.36-.12.54-.18.73.01,1.37-.33,2.03-.58,1.19-.46.55-1.03.08-1.58-1.75-4.34-3.5-8.67-5.25-13.01-.03-.93-.37-1.76-.86-2.53-.3-1.1-.57-2.2-1.11-3.21.04-.84-.21-1.58-.68-2.27-.13-.88-.35-1.73-.74-2.53.16-.34.06-.61-.21-.84.02-.39-.06-.75-.3-1.07.18-.33.08-.61-.18-.85-.09-.36-.17-.72-.26-1.07.18-.33.07-.61-.18-.85.03-.54-.04-1.07-.32-1.54.17-.48.06-.92-.22-1.32.04-.54-.04-1.07-.3-1.55.17-.47.09-.92-.18-1.33.05-.54,0-1.06-.25-1.55.19-.63.07-1.23-.21-1.81.04-1.01-.04-2.01-.32-2.98.19-.94.12-1.87-.15-2.78,0-3.25,0-6.51,0-9.76.27-.91.36-1.82.15-2.75.29-1.14.37-2.3.34-3.48.28-.6.38-1.21.19-1.85.28-.63.33-1.3.29-1.98.28-.43.38-.89.19-1.38.26-.47.32-.97.27-1.5.28-.43.4-.88.22-1.38.27-.46.33-.97.29-1.49.29-.37.36-.78.23-1.22.09-.22.21-.43.26-.66,2.46-11.81,7.27-22.72,13.72-32.79,16.59-25.92,39.61-43.55,69.28-52.16,11.67-3.39,23.49-4.75,35.48-1.58.91.24,1.49,0,2.1-.67,1.73-1.89,3.63-3.6,5.66-5.17,8.15-6.28,16.91-11.48,26.59-15.07,5.85-2.17,11.79-4.03,17.82-5.61,11.66-3.05,23.44-4,35.4-2.1,2.04.32,4.05.92,6.13.99Zm-110.77,74.78c-3.49,13.3-7.15,26.54-12.91,39.08-1.84,4-3.96,7.85-6.53,11.43-2.4,3.34-5.23,6.25-8.69,8.5-7.5,4.89-15.24,4.42-22.11-1.34-3.36-2.82-5.91-6.27-7.88-10.16-3.18-6.28-4.85-13-5.81-19.92-1.36-9.77-.5-19.46,1.19-29.11.13-.72.4-1.44.17-2.24-.85.27-1.17.86-1.61,1.3-8.01,8.22-14.11,17.72-18.91,28.11-6.5,14.07-8.57,28.87-7.41,44.2.95,12.55,4.69,24.44,8.97,36.19.6,1.65.66,1.65,2.43,1.1,8.63-2.65,17.29-5.21,25.88-8,26.87-8.73,54.32-14.55,82.51-16.75,1.64-.13,3.27-.29,5.1-.45-1.07-2.58-1.81-5-2.13-7.55-1.17-9.4,3.23-17.69,11.73-21.91,1.28-.64,2.62-1.2,3.98-1.64,1.09-.36,1.43-.96,1.45-2.09.11-8.33-.39-16.62-1.34-24.89-1.34-11.67-4.82-22.8-8.89-33.77-1.59-4.29-3.79-8.27-6.46-12-4.4-6.16-10.2-10.25-17.5-12.27-4.06-1.12-4-1.17-5.32,2.76-1.09,3.25-1.81,6.62-3.36,9.71-3.68-.64-7.32-.27-10.94.41-10.48,1.96-18.84,7.56-25.95,15.25-.59.64-1.11,1.37-1.53,2.13-2.23,4.02-.48,8.39,3.89,9.79,2.19.7,4.42.55,6.64.22,3.48-.53,6.89-1.36,10.24-2.42,3.72-1.17,7.41-2.44,11.12-3.67Zm72.7,94.85c-3.52-2.37-3.98-6.17-1.11-9.33.43-.47.9-.91,1.41-1.29.68-.51.99-1.07.38-1.8-.54-.65-1.03-.09-1.45.18-3.03,1.96-6.22,3.58-9.6,4.85-.84.32-1.3.87-1.43,1.74-.58,3.86-1.38,7.69-1.45,11.61-.72,3.92-.26,7.91-1.06,11.75.43.14.58.22.73.22.56,0,1.12-.03,1.68-.06,9.69-.61,18.95,1.05,27.64,5.45,1.3.66,1.98.32,2.85-.6,3.31-3.46,6.58-6.98,10.37-9.94,2.09-1.63,4.25-3.13,6.7-4.16,6.41-2.7,13.51-1.1,17.91,4.01,6.02,7.01,6.37,18.29.69,25.56-5.16,6.61-12.07,9.44-20.37,9.06-.87-.04-1.75-.29-2.61,0-3,1.01-5.5-.05-7.75-1.93-1.59-1.33-3.08-2.79-4.63-4.17-8.74-7.76-18.97-11.58-30.64-11.7-6.42-.07-12.5,1.43-18.46,3.63-2.4.88-4.78,1.82-7.3,2.31-.79.16-1.57.3-2.38.19-2.9-.42-4.06-3.18-2.33-5.54.53-.72,1.2-1.29,1.95-1.76,5.3-3.29,10.69-6.4,16.67-8.33.6-.19,1.28-.2,1.68-.79-.38-1.13-.82-2.25-1.12-3.4-.32-1.23-.6-2.5-.71-3.76-.2-2.14-.25-4.3-.36-6.45.1-1.35.24-2.7.28-4.05.04-1.54-.07-1.71-1.62-1.56-2.71.26-5.43.09-8.14.26-1.18.08-2.39-.13-3.52.4-9.83.53-19.59,1.66-29.32,3.1-1.63.24-2.5.98-3.14,2.44-3.73,8.46-6.28,17.25-7.64,26.39-.72,4.82-.54,9.58,1.01,14.22,2.73,8.15,7.18,15.12,14.12,20.37,3.65,2.76,7.52,5.13,11.7,7.01,4.46,2,9.06,3.59,13.72,5.05,11.81,3.7,23.9,6.02,36.28,6.21,26.79.42,49.27-9.93,68.49-28.1,1.45-1.37,2.78-2.87,4.04-4.42,10.84-13.31,15.86-28.82,17.19-45.72.57-7.32-.52-14.51-1.56-21.71-.17-1.2-.94-1.09-1.75-1.02-4.22.38-8.45.69-12.66,1.17-15.67,1.79-31.06,5.1-46.42,8.61-7.17,1.64-14.15,4-21.29,5.74-1.9.46-3.76.76-5.66.06Zm113.73-109.3c-3.28,9.59-6.25,19.3-9.96,28.74-1,2.53-2.17,4.98-3.47,7.37-3.74,6.86-8.77,12.55-15.28,16.91-2.54,1.7-5.22,3.11-8.17,3.94-7.21,2.02-13.59.61-19-4.7-2.95-2.9-5.14-6.3-6.86-10.04-3.48-7.6-5.16-15.62-5.23-23.95-.11-12.56,1.83-24.83,5.34-36.88.18-.62.66-1.24.18-2.09-.56.34-1.04.61-1.49.91-6.91,4.53-13.23,9.78-18.96,15.75-3,3.12-5.72,6.46-7.98,10.17-3.88,6.37-7.06,13.08-9.37,20.17-3.72,11.46-4.7,23.29-4.76,35.26,0,1.3.65,1.77,1.62,2.31,4.13,2.3,5.9,5.89,5.62,10.56-.11,1.78-.63,3.45-1.33,5.08-.94,2.21-2.13,4.29-3.49,6.28-.4.59-.96,1.16-.83,1.93.31,1.95.26,3.97,1.01,5.86.31-.04.56-.04.78-.11,10.22-2.94,20.62-5.13,31.03-7.26,14.58-2.98,29.26-5.18,44.14-6.07,12.29-.74,24.59-1.19,36.89-1.6,15.34-.51,30.69-.92,46,.6,1.55.15,1.6.13,1.71-1.45.24-3.35.4-6.7.63-10.05,1.02-14.69.07-29.23-3.07-43.62-3.28-15.03-9.01-28.97-18.42-41.24-4.75-6.18-10.64-11.01-17.59-14.55-.77-.39-1.51-.88-2.51-1.02-.22.41-.42.84-.65,1.24-2.03,3.52-4.2,6.95-6.81,10.09-.96-.63-2.08-.81-3.18-.95-11.41-1.49-21.66,1.44-30.89,8.2-1.1.81-2.01,1.83-2.71,3.01-1.25,2.13-1.59,4.38-.5,6.64,1.64,3.39,4.13,5.84,7.97,6.66,3.01.65,6.03.55,9.06.22,3.59-.39,7.01-1.53,10.52-2.3Zm-158.2-28.81c.53.73,1.16.92,1.71,1.24,3.84,2.22,7.2,5.02,10.16,8.32,4.44,4.93,7.76,10.53,10.29,16.64,6.21,15,9.69,30.58,10.08,46.84.13,5.2.26,10.39.07,15.58-.09,2.33-.05,2.35,2.35,2.05,1.67-.21,3.34-.26,5.02-.26,1.64,0,1.66-.02,1.77-1.7.25-3.67.39-7.34.73-11,1.08-11.68,3.7-22.96,8.07-33.91,6.85-17.16,18.08-30.73,32.84-41.57,4.19-3.08,8.51-5.96,12.98-8.61.67-.39,1.48-.61,1.97-1.57-2.41-1.91-4.86-3.82-7.27-5.78-3.09-2.51-6.59-4.18-10.4-5.28-5.49-1.59-11.11-2.22-16.81-2.37-8.23-.22-16.22,1.31-24.15,3.31-12.96,3.27-25.23,8.12-36.31,15.74-1.05.72-2.18,1.34-3.13,2.34Zm68.12,166.16c2.97,2.06,5.61,4.16,7.55,6.89,1.26,1.77,2.77,2.47,4.8,2.48.64,0,1.28.07,1.91.05,8.74-.4,14.93-7.77,11.1-17.11-1.56-3.79-5.22-5.48-9.21-4.48-2.28.57-4.25,1.78-6.15,3.11-3.61,2.53-6.69,5.64-9.99,9.07Z"/>
  <path class="cls-12" d="m632.49,337.58c-2.08.4-3.71-.52-5.24-1.76-4.21-3.43-8.38-6.9-12.64-10.26-9.17-7.24-19.01-13.48-29.19-19.2-13.81-7.77-28.08-14.58-42.81-20.39-13.3-5.25-26.82-9.88-40.76-13.19-8.69-2.06-17.46-3.85-26.32-4.96-6.57-.82-13.19-1.23-19.83-1.05-1.07.03-2.25.37-3.2-.5,2.42-.26,4.38-1.42,5.98-3.2,1.6-1.78,3.25-3.53,4.73-5.41,7.01-8.92,13.55-18.19,19.72-27.72,16.02-24.76,30.63-50.35,44.28-76.49,1.84-3.53,3.57-7.13,5.69-10.5.76.02,1.38-.35,1.99-.73,6.81-4.29,13.93-7.99,21.25-11.34,8.84-4.05,17.87-7.54,27.12-10.47.83.53,1.34,1.36,1.93,2.1,6.44,7.99,11.97,16.58,16.83,25.62,6.16,11.45,10.63,23.57,14.74,35.87,4.78,14.3,8.48,28.82,10.52,43.75,1.1,8.09,1.53,16.23,2,24.37.66,11.58,1.19,23.15.65,34.75-.54,11.42-.98,22.84-1.08,34.28-.02,3.04.03,6.07.42,9.1.36,2.77,1.32,5.25,3.22,7.33Zm-28.02-96.61c.06-1.92-.31-3.83-.33-5.72-.08-7.27-.73-14.48-1.48-21.69-.54-5.23-1.37-10.41-2.29-15.58-1.48-8.27-3.74-16.32-7.34-23.94-2.26-4.78-4.82-9.35-8.66-13.1-5.91-5.79-13.92-6.62-20.78-2.11-3.12,2.05-5.52,4.78-7.69,7.79-3.2,4.43-5.46,9.37-7.8,14.26-3.32,6.92-6.03,14.09-8.25,21.43-3.98,13.13-7.99,26.26-12.65,39.16-1.76,4.86-3.76,9.66-6.57,14.06-2.07,3.23-1.49,7.11,2.54,9.28,3.24,1.75,6.6,3.22,9.89,4.85,3.8,1.88,7.67,3.59,11.73,4.79,5.58,1.65,11.21,3.13,16.78,4.82,3.97,1.2,7.84,2.7,11.81,3.89,4.51,1.35,9.05,2.5,13.84,2.39,4.24-.1,7.52-1.8,9.89-5.3,2.27-3.36,3.52-7.15,4.49-11.02,2.33-9.27,2.39-18.77,2.86-28.23Z"/>
  <path class="cls-12" d="m363.02,270.98c.48,2.56-.53,4.7-2.43,6.14-5.65,4.29-11.45,8.39-17.2,12.55-.19.14-.44.18-.66.27-.06-.23-.13-.46-.18-.7-.8-4.06-1.43-8.16-2.83-12.08-1.52-4.26-3.49-8.24-6.92-11.31-3.05-2.73-6.65-4.24-10.74-3.76-3.72.44-6.92,2.22-9.7,4.81-7.24,6.73-11.95,15.1-15.82,24.01-2.29,5.27-3.81,10.8-5.08,16.41-1.23,5.43-2.99,10.74-3.65,16.3-.1.81-.52,1.5-1.11,2.08-3.81,3.76-7.08,8-10.62,11.99-5.31,5.98-10.17,12.29-14.21,19.19-2.01,3.43-4.03,6.9-4.9,10.87-.14.63-.42,1.23.19,1.76-4.17,4.52-8.88,8.49-13.2,12.86-4.39,4.43-8.6,9-12.46,13.9-.69.88-1.21,1.88-1.91,2.75-.88,1.1-1.61,2.43-3.23,2.64.25-3.05-.35-6.06-.47-9.09-.63-16.4-.38-32.77,1-49.13,1.31-15.54,2.85-31.05,6.33-46.29,1.3-5.68,2.46-11.39,4.12-16.98.77-.37,1.14-1.12,1.51-1.8,1.54-2.88,3.25-5.67,4.95-8.46,4.69-7.69,9.72-15.16,15.11-22.37,4.38-5.86,8.87-11.64,13.68-17.18,3.66-4.21,7.24-8.48,11.16-12.45,6.05-6.13,12.01-12.36,18.69-17.84,3.75-3.08,7.48-6.18,11.16-9.35,1.86-1.6,4.16-2.7,5.64-4.74,2.53,3.4,4.51,7.14,6.48,10.87,7.2,13.64,13.48,27.69,19.19,42.01,3.1,7.78,6.13,15.6,9.56,23.25,1.02,2.27,2.26,4.39,3.89,6.28,1.25,1.45,2.71,2.46,4.68,2.59Z"/>
  <path class="cls-5" d="m632.49,337.58c-1.9-2.08-2.86-4.56-3.22-7.33-.39-3.02-.45-6.06-.42-9.1.09-11.43.54-22.86,1.08-34.28.54-11.6.02-23.18-.65-34.75-.47-8.14-.9-16.28-2-24.37-2.04-14.94-5.74-29.46-10.52-43.75-4.11-12.31-8.59-24.42-14.74-35.87-4.86-9.03-10.39-17.62-16.83-25.62-.6-.74-1.1-1.58-1.93-2.1-2.36-3.26-5.21-6.03-8.58-8.22-3.34-2.17-7-2.85-10.98-2.52-6.19.51-11.02,3.37-15.01,7.97-6.6,7.61-11.39,16.33-15.8,25.31-2.13,3.38-3.85,6.97-5.69,10.5-13.65,26.14-28.26,51.72-44.28,76.49-6.16,9.53-12.7,18.79-19.72,27.72-1.48,1.88-3.12,3.63-4.73,5.41-1.6,1.78-3.55,2.94-5.98,3.2-.15-.04-.31-.08-.46-.12-3.62-.87-5.32-4.6-2.8-8.09,4.56-6.28,8.59-12.91,12.86-19.38,13.19-19.94,25.7-40.28,37.45-61.11,8.64-15.32,16.77-30.9,24.9-46.49,3.77-7.24,7.8-14.32,13.09-20.6,1.6-1.9,3.27-3.72,5.13-5.37,9.06-8.08,19.63-10.22,31.28-7.76,4.48.95,8.26,3.36,11.76,6.23,3.23,2.65,6.04,5.71,8.7,8.91,7.24,8.69,13.45,18.09,18.81,28.03,5.63,10.43,10.31,21.26,14.1,32.51,5.18,15.4,9.97,30.87,12.47,46.98,1.17,7.52,2,15.06,2.44,22.64.89,15.56,1.86,31.13,1.07,46.73-.56,11.02-.84,22.05-1.01,33.08-.04,2.8-.3,5.59-.77,8.35-.33,1.94-1.06,3.68-2.41,5.13-2.39,2.56-4.21,2.79-6.6,1.64Z"/>
  <path class="cls-8" d="m237.32,280.17c-1.66,5.59-2.83,11.3-4.12,16.98-3.48,15.24-5.02,30.75-6.33,46.29-1.38,16.36-1.63,32.73-1,49.13.12,3.03.71,6.04.47,9.09-.23.33-.44.67-.68.98-1.77,2.27-4.4,2.41-6.38.33-1.2-1.26-1.74-2.85-2.21-4.47-1.38-4.79-1.76-9.74-2.13-14.68-1.25-16.72-.25-33.38,1.25-50.03,1-11.07,2.17-22.12,4.48-33,6.99-32.87,15.87-65.18,28.56-96.36,4.36-10.7,9.87-20.77,16.43-30.26,1.82-2.63,3.76-5.17,5.94-7.51,5.81-6.21,12.94-10.1,21.26-11.7,6.48-1.25,12.54.19,18.17,3.53,3.54,2.1,6.52,4.86,9.27,7.9,7.98,8.83,14.67,18.52,19.94,29.2,7.04,14.27,13.22,28.91,18.57,43.89,1.83,5.11,3.73,10.2,5.55,15.32,1.35,3.79,2.23,7.65,1.85,11.74-.2,2.2-1.01,3.78-3.21,4.44-1.96-.13-3.42-1.14-4.68-2.59-1.64-1.89-2.88-4.01-3.89-6.28-3.43-7.65-6.45-15.46-9.56-23.25-5.71-14.32-11.99-28.37-19.19-42.01-1.97-3.73-3.95-7.47-6.49-10.87-3.61-5.78-7.78-11.12-12.74-15.81-.58-.55-1.23-1.03-1.88-1.48-4.22-2.95-8.71-3.64-13.64-1.91-5.55,1.95-9.93,5.37-13.46,10-7.46,9.78-13.43,20.41-17.92,31.86-6.97,17.79-13.26,35.8-18.02,54.32-1.47,5.72-3.11,11.4-4.24,17.21Z"/>
  <path class="cls-3" d="m257.15,369.51c-.61-.53-.33-1.12-.19-1.76.88-3.97,2.89-7.44,4.9-10.87,4.04-6.9,8.9-13.2,14.21-19.19,3.54-3.99,6.81-8.23,10.62-11.99.59-.58,1.01-1.26,1.11-2.08.67-5.56,2.42-10.87,3.65-16.3,1.28-5.62,2.79-11.14,5.08-16.41,3.87-8.91,8.59-17.29,15.82-24.01,2.78-2.59,5.98-4.37,9.7-4.81,4.08-.48,7.69,1.03,10.74,3.76,3.43,3.07,5.4,7.05,6.92,11.31,1.4,3.92,2.04,8.02,2.83,12.08.05.23.12.46.18.7-1.67,1.85-3.81,3.13-5.77,4.63-11.39,8.69-21.94,18.35-32.21,28.3-15.6,15.13-31.14,30.33-46.52,45.68-.34.34-.71.64-1.07.96Z"/>
  <path class="cls-14" d="m446.73,349.76c-2.09-.06-4.09-.66-6.13-.99-11.96-1.9-23.74-.95-35.4,2.1-6.03,1.58-11.97,3.44-17.82,5.61-9.68,3.59-18.44,8.79-26.59,15.07-2.03,1.57-3.93,3.28-5.66,5.17-.6.66-1.18.91-2.1.67-11.99-3.18-23.81-1.81-35.48,1.58-29.67,8.61-52.68,26.24-69.28,52.16-6.45,10.07-11.26,20.97-13.72,32.79-.05.23-.17.44-.26.66-.19.12-.38.25-.57.37-1.8-2.36-1.74-5.1-1.37-7.79.88-6.43,3-12.54,5.36-18.55,2.54-6.46,5.39-12.79,9.08-18.69,2.11-3.38,4.49-6.58,7.14-9.56,1.48-1.67,2.89-3.4,4.44-5.01,4.78-4.95,9.96-9.43,15.52-13.46,5.49-3.99,11.14-7.71,17.26-10.7,6.84-3.35,14-5.76,21.29-7.85,5.82-1.67,11.78-2.74,17.73-3.77,5.02-.86,10.11-1.44,15.23-1.05,1.91.15,3.34-.55,4.78-1.67,6.48-5.05,13.14-9.88,20.6-13.41,8.76-4.14,17.9-7.03,27.51-8.57,7.29-1.17,14.58-1.61,21.91-1.27,4.84.22,9.64,1.01,14.38,2.06,3.59.79,7.1,1.78,10.5,3.18.59.24,1.24.36,1.63.93Z"/>
  <path class="cls-13" d="m239.31,550.91c2.65-.22,5.15-1,7.67-1.8,21.99-7.01,43.89-14.3,66.21-20.17,4.32-1.14,8.71-2,13.08-2.96.68-.15,1.39-.4,2.39,0-2.18,4.76-3.99,9.64-5.74,14.55-2.99-.08-5.84.83-8.75,1.31-12.69,2.09-25.16,5.34-37.81,7.61-9.04,1.62-18.08,3.24-27.1,4.93-1.72.32-3.49.45-5.24.45-2.44,0-4.39-.88-4.98-3.56.11-.11.19-.23.25-.37Z"/>
  <path class="cls-13" d="m509.62,513.86c-.74-3.11-.93-6.32-1.83-9.4-.26-.9.02-1.38.96-1.47.32-.03.64-.06.96-.07,17.81-.62,35.62-1.57,53.46-1.21,9.22.19,18.34,1.11,27.4,2.75,1.34.24,2.68.43,4.02.68,2.46.46,4.91.49,7.36-.13.62,2.57-.16,4.64-2.4,6.17-1.93,1.31-4.05,1.69-6.38,1.39-4.99-.64-9.88-1.86-14.9-2.29-8.76-.75-17.53-.92-26.31-.64-5.02.16-10.05.4-15.07.61-9.19.39-18.27,1.66-27.25,3.6Z"/>
  <path class="cls-14" d="m563.26,377.07c-.68-.14-1.03-.72-1.5-1.13-11.66-10.09-25.19-15.57-40.59-16.21-14.94-.63-29.47,1.65-43.49,6.9-1.74.65-2.7.39-3.85-.94-1.93-2.24-4.55-3.73-6.67-5.78,2.2-.07,3.78-1.61,5.65-2.45,4.63-2.08,9.45-3.23,14.45-3.92,9.5-1.31,19.05-1.73,28.61-1.36,11.43.45,22.4,2.93,32.55,8.4,3.16,1.71,6.12,3.74,8.87,6.06.97.82,1.87,1.74,2.48,2.89,1.3,2.44,2.97,4.72,3.49,7.52Z"/>
  <path class="cls-1" d="m365.03,610.38c4.77,1.26,9.43,2.88,14.27,3.9,11.2,2.37,22.45,4.13,33.95,3.74,9.63-.33,19.04-1.92,28.25-4.77.74-.23,1.45-.68,2.28-.56-4.56,2-9.41,2.92-14.24,3.9-15.63,3.15-31.16,2-46.64-1.17-5.72-1.17-11.37-2.56-16.89-4.5-.35-.12-.83-.05-.98-.53Z"/>
  <path class="cls-1" d="m509.86,528.01c-.22-3.23-.23-6.45,0-9.67.44,3.23.45,6.45,0,9.67Z"/>
  <path class="cls-1" d="m503.55,557.32c.45-2.2,1.17-4.3,2.11-6.33-.31,2.24-1.03,4.35-2.11,6.33Z"/>
  <path class="cls-2" d="m232.89,543.55c-.28,1.63-.06,3.21.58,4.72-1.48-1.52-1.66-3-.58-4.72Z"/>
  <path class="cls-2" d="m241.2,536.8c-1.18.77-2.46,1.33-3.77,1.85.9-1.33,2.23-1.81,3.77-1.85Z"/>
  <path class="cls-2" d="m243.85,534.46c.47.55,1.11,1.12-.08,1.58-.66.25-1.29.59-2.03.58.11-.43.43-.64.82-.71.83-.14,1.11-.74,1.28-1.45Z"/>
  <path class="cls-2" d="m232.27,478.85c.21.93.11,1.85-.15,2.75-.55-.95-.61-1.88.15-2.75Z"/>
  <path class="cls-2" d="m232.12,491.36c.28.92.35,1.84.15,2.78-.81-.89-.7-1.82-.15-2.78Z"/>
  <path class="cls-2" d="m239.31,550.91c-.06.14-.15.26-.25.37-1.01-.13-2.1.05-2.87-.87,1.04.17,2.08.33,3.12.5Z"/>
  <path class="cls-1" d="m506.04,549.72c-.12-.78.02-1.49.57-2.09.2.8-.17,1.45-.57,2.09Z"/>
  <path class="cls-2" d="m235.95,513.44c.47.68.72,1.43.68,2.27-.7-.61-1.03-1.34-.68-2.27Z"/>
  <path class="cls-2" d="m237.74,518.92c.49.78.82,1.61.86,2.53-.9-.64-1.04-1.53-.86-2.53Z"/>
  <path class="cls-2" d="m232.8,473.52c.19.64.09,1.26-.19,1.85-.57-.68-.56-1.31.19-1.85Z"/>
  <path class="cls-2" d="m232.6,497.12c.28.58.4,1.18.21,1.81-.78-.52-.76-1.14-.21-1.81Z"/>
  <path class="cls-1" d="m509.39,533.92c-.27-.58-.19-1.13.15-1.66.25.58.21,1.13-.15,1.66Z"/>
  <path class="cls-1" d="m362.21,609.34c.78,0,1.47.2,2.02.77-.76-.04-1.48-.16-2.02-.77Z"/>
  <path class="cls-2" d="m233.06,500.48c.27.42.35.86.18,1.33-.59-.37-.68-.81-.18-1.33Z"/>
  <path class="cls-2" d="m233.54,503.36c.28.41.39.84.22,1.32-.63-.35-.71-.79-.22-1.32Z"/>
  <path class="cls-2" d="m233.78,467.28c.17.5.06.96-.22,1.38-.51-.56-.42-1.01.22-1.38Z"/>
  <path class="cls-1" d="m508.9,537.27c-.25-.43-.16-.82.16-1.17.25.43.19.82-.16,1.17Z"/>
  <path class="cls-1" d="m508.39,540.13c-.25-.44-.13-.81.19-1.15.23.43.2.82-.19,1.15Z"/>
  <path class="cls-1" d="m444.59,612.41c.47-.43,1.01-.66,1.66-.61-.43.55-1.02.63-1.66.61Z"/>
  <path class="cls-1" d="m460.43,605.27c.21-.54.64-.7,1.18-.68-.19.58-.65.69-1.18.68Z"/>
  <path class="cls-2" d="m233.28,470.16c.19.5.09.95-.19,1.38-.52-.54-.43-1,.19-1.38Z"/>
  <path class="cls-1" d="m450.79,609.98c.3-.45.72-.64,1.25-.55-.25.57-.72.64-1.25.55Z"/>
  <path class="cls-2" d="m233.73,464.94c.19-.13.38-.25.57-.37.13.45.06.86-.23,1.22-.37-.18-.36-.51-.34-.85Z"/>
  <path class="cls-2" d="m237.33,538.71c-.31.5-.75.81-1.33.92.11-.78.66-.95,1.33-.92Z"/>
  <path class="cls-1" d="m501.62,562.13c-.21-.37-.01-.57.29-.73.15.34.14.62-.29.73Z"/>
  <path class="cls-1" d="m507.9,542.53c-.27-.3-.14-.51.14-.69.26.29.22.52-.14.69Z"/>
  <path class="cls-2" d="m234.08,506.23c.25.24.36.52.18.85-.51-.19-.74-.44-.18-.85Z"/>
  <path class="cls-1" d="m507.45,544.46c-.25-.29-.14-.51.15-.69.23.29.18.52-.15.69Z"/>
  <path class="cls-1" d="m506.96,546.37c-.25-.3-.13-.51.16-.68.23.3.18.52-.16.68Z"/>
  <path class="cls-1" d="m489.55,582.19c-.06-.36.09-.54.45-.56.08.38-.05.58-.45.56Z"/>
  <path class="cls-2" d="m235,510.08c.26.23.37.5.21.84-.49-.18-.75-.41-.21-.84Z"/>
  <path class="cls-1" d="m457.01,607.06c.17-.37.45-.53.85-.44-.14.44-.44.55-.85.44Z"/>
  <path class="cls-1" d="m502.61,559.76c-.21-.36-.04-.58.27-.75.16.34.14.61-.27.75Z"/>
  <path class="cls-2" d="m234.52,508.16c.26.24.36.51.18.85-.48-.19-.73-.43-.18-.85Z"/>
  <path class="cls-1" d="m353.08,605.5c.32-.11.56-.08.62.31-.33.13-.54.04-.62-.31Z"/>
  <path class="cls-1" d="m359.77,608.39c.31-.12.57-.11.66.28-.33.16-.55.06-.66-.28Z"/>
  <path class="cls-1" d="m449.41,610.59c.08-.4.34-.41.65-.29-.11.35-.32.45-.65.29Z"/>
  <path class="cls-1" d="m447,611.55c.1-.4.36-.41.67-.28-.12.35-.34.45-.67.28Z"/>
  <path class="cls-1" d="m346.75,602.2c.23-.11.35-.06.31.21-.25.15-.31.02-.31-.21Z"/>
  <path class="cls-1" d="m347.66,602.73c.24-.14.33-.04.31.21-.24.13-.34.05-.31-.21Z"/>
  <path class="cls-1" d="m463.74,603.37c-.04-.28.09-.33.32-.22,0,.24-.06.37-.32.22Z"/>
  <path class="cls-1" d="m351.1,604.55c.2-.12.33-.12.33.16-.23.2-.31.08-.33-.16Z"/>
  <path class="cls-1" d="m352.07,605.02c.19-.12.33-.12.33.15-.23.2-.31.09-.33-.15Z"/>
  <path class="cls-1" d="m470.44,599.04c-.06-.29.08-.33.31-.24.02.25-.04.37-.31.24Z"/>
  <path class="cls-1" d="m459.46,605.81c-.02-.27.08-.35.32-.21.02.27-.09.34-.32.21Z"/>
  <path class="cls-1" d="m354.38,606.09c.22-.15.34-.1.33.18-.23.15-.34.09-.33-.18Z"/>
  <path class="cls-1" d="m355.37,606.53c.21-.13.34-.12.33.17-.23.18-.32.08-.33-.17Z"/>
  <path class="cls-1" d="m342.92,599.79c.23-.1.35-.04.3.23-.26.13-.32,0-.3-.23Z"/>
  <path class="cls-1" d="m356.36,606.97c.19-.12.33-.15.33.14-.23.22-.3.08-.33-.14Z"/>
  <path class="cls-1" d="m357.73,607.55c.22-.15.34-.11.33.17-.22.14-.34.12-.33-.17Z"/>
  <path class="cls-1" d="m350.15,604.07c.2-.11.34-.11.33.17-.24.19-.31.07-.33-.17Z"/>
  <path class="cls-1" d="m455.05,608.03c0-.28.14-.27.32-.15-.02.25-.1.35-.32.15Z"/>
  <path class="cls-1" d="m469.02,600.01c-.05-.28.07-.33.31-.23.02.24-.04.37-.31.23Z"/>
  <path class="cls-1" d="m453.7,608.7c0-.27.1-.34.33-.19.02.29-.11.32-.33.19Z"/>
  <path class="cls-1" d="m361.13,608.92c.2-.14.34-.14.35.15-.23.2-.32.1-.35-.15Z"/>
  <path class="cls-1" d="m452.72,609.15c0-.29.12-.33.34-.18,0,.28-.11.34-.34.18Z"/>
  <path class="cls-1" d="m344.37,600.74c.23-.1.35-.06.3.22-.26.14-.32.01-.3-.22Z"/>
  <path class="cls-1" d="m467.57,600.97c-.05-.29.08-.33.31-.23.01.24-.05.37-.31.23Z"/>
  <path class="cls-2" d="m235.2,549.93c.32-.1.49.03.57.33-.32.11-.53.03-.57-.33Z"/>
  <path class="cls-1" d="m448.36,611.01c0-.3.15-.3.35-.16-.03.26-.12.35-.35.16Z"/>
  <path class="cls-1" d="m466.11,601.9c-.04-.29.09-.32.32-.22.01.25-.06.37-.32.22Z"/>
  <path class="cls-1" d="m358.73,607.96c.2-.14.34-.13.34.16-.23.19-.32.09-.34-.16Z"/>
  <polygon class="cls-1" points="339.83 597.55 339.96 597.49 339.92 597.62 339.79 597.68 339.83 597.55"/>
  <polygon class="cls-1" points="472.68 597.44 472.65 597.31 472.76 597.38 472.79 597.52 472.68 597.44"/>
  <polygon class="cls-1" points="340.38 597.95 340.5 597.89 340.47 598.03 340.34 598.09 340.38 597.95"/>
  <polygon class="cls-1" points="471.81 598.08 471.78 597.94 471.91 598 471.94 598.14 471.81 598.08"/>
  <polygon class="cls-1" points="340.91 598.35 341.03 598.29 341 598.42 340.89 598.49 340.91 598.35"/>
  <polygon class="cls-1" points="471.25 598.46 471.23 598.32 471.35 598.39 471.36 598.53 471.25 598.46"/>
  <polygon class="cls-1" points="341.75 598.99 341.87 598.93 341.84 599.06 341.72 599.12 341.75 598.99"/>
  <path class="cls-14" d="m563.78,377.59c-.31-.03-.5-.18-.51-.51.32.02.47.22.51.51Z"/>
  <polygon class="cls-1" points="342.32 599.37 342.44 599.3 342.42 599.44 342.3 599.51 342.32 599.37"/>
  <polygon class="cls-1" points="469.83 599.44 469.81 599.3 469.93 599.37 469.95 599.52 469.83 599.44"/>
  <path class="cls-2" d="m235.92,539.69c-.01.26-.15.38-.41.34.02-.26.16-.36.41-.34Z"/>
  <path class="cls-2" d="m235.36,540.16c.02.23-.09.33-.32.29-.01-.23.1-.32.32-.29Z"/>
  <polygon class="cls-1" points="343.75 600.33 343.87 600.27 343.85 600.4 343.73 600.47 343.75 600.33"/>
  <polygon class="cls-1" points="468.39 600.41 468.37 600.27 468.49 600.34 468.51 600.48 468.39 600.41"/>
  <path class="cls-2" d="m234.82,540.65c.04.22-.04.31-.26.27,0,0,.05-.21.05-.21l.21-.05Z"/>
  <path class="cls-2" d="m234.36,541.13c.06.22-.03.31-.25.28-.05-.21.04-.3.25-.28Z"/>
  <polygon class="cls-1" points="345.21 601.27 345.31 601.19 345.29 601.32 345.19 601.4 345.21 601.27"/>
  <polygon class="cls-1" points="466.94 601.35 466.93 601.21 467.04 601.28 467.06 601.43 466.94 601.35"/>
  <polygon class="cls-2" points="234.71 549.6 234.89 549.56 234.9 549.75 234.73 549.76 234.71 549.6"/>
  <polygon class="cls-1" points="496.23 572.63 496.17 572.49 496.32 572.51 496.39 572.65 496.23 572.63"/>
  <polygon class="cls-1" points="487.07 585.05 487.03 584.91 487.16 584.95 487.21 585.09 487.07 585.05"/>
  <polygon class="cls-1" points="465.5 602.26 465.48 602.13 465.59 602.21 465.6 602.35 465.5 602.26"/>
  <polygon class="cls-1" points="486.61 585.54 486.57 585.4 486.71 585.44 486.76 585.58 486.61 585.54"/>
  <polygon class="cls-1" points="464.58 602.84 464.56 602.7 464.69 602.77 464.71 602.92 464.58 602.84"/>
  <polygon class="cls-1" points="348.54 603.21 348.64 603.14 348.63 603.27 348.52 603.35 348.54 603.21"/>
  <polygon class="cls-1" points="486.15 586.03 486.11 585.9 486.25 585.94 486.29 586.08 486.15 586.03"/>
  <polygon class="cls-1" points="349.48 603.72 349.6 603.65 349.58 603.79 349.47 603.87 349.48 603.72"/>
  <polygon class="cls-1" points="463.11 603.72 463.1 603.59 463.2 603.67 463.21 603.81 463.11 603.72"/>
  <polygon class="cls-1" points="485.68 586.52 485.64 586.39 485.78 586.43 485.82 586.57 485.68 586.52"/>
  <polygon class="cls-1" points="462.18 604.28 462.16 604.14 462.28 604.21 462.31 604.36 462.18 604.28"/>
  <polygon class="cls-1" points="485.2 587 485.16 586.87 485.3 586.91 485.34 587.05 485.2 587"/>
  <polygon class="cls-1" points="484.72 587.48 484.68 587.35 484.82 587.39 484.86 587.53 484.72 587.48"/>
  <polygon class="cls-1" points="484.24 587.96 484.2 587.82 484.34 587.87 484.38 588.01 484.24 587.96"/>
  <polygon class="cls-1" points="483.76 588.44 483.72 588.3 483.86 588.35 483.9 588.49 483.76 588.44"/>
  <polygon class="cls-1" points="483.26 588.9 483.23 588.76 483.36 588.81 483.4 588.95 483.26 588.9"/>
  <polygon class="cls-1" points="482.77 589.36 482.73 589.22 482.86 589.27 482.9 589.42 482.77 589.36"/>
  <polygon class="cls-1" points="346.11 601.83 346.23 601.76 346.2 601.89 346.08 601.96 346.11 601.83"/>
  <polygon class="cls-1" points="482.26 589.82 482.23 589.68 482.36 589.73 482.4 589.87 482.26 589.82"/>
  <polygon class="cls-1" points="481.78 590.25 481.74 590.13 481.87 590.18 481.91 590.31 481.78 590.25"/>
  <polygon class="cls-1" points="479.96 591.84 479.92 591.7 480.06 591.75 480.1 591.89 479.96 591.84"/>
  <polygon class="cls-1" points="479.43 592.26 479.4 592.12 479.53 592.18 479.56 592.32 479.43 592.26"/>
  <polygon class="cls-1" points="455.92 607.6 455.92 607.46 456.03 607.54 456.04 607.69 455.92 607.6"/>
  <polygon class="cls-1" points="478.9 592.68 478.88 592.54 479 592.6 479.03 592.75 478.9 592.68"/>
  <polygon class="cls-1" points="478.41 593.08 478.39 592.97 478.48 593.02 478.51 593.15 478.41 593.08"/>
  <polygon class="cls-1" points="477.57 593.76 477.53 593.62 477.66 593.68 477.7 593.82 477.57 593.76"/>
  <polygon class="cls-1" points="477.02 594.17 477 594.03 477.12 594.09 477.15 594.24 477.02 594.17"/>
  <polygon class="cls-1" points="476.51 594.57 476.48 594.44 476.6 594.5 476.63 594.64 476.51 594.57"/>
  <polygon class="cls-1" points="475.68 595.23 475.65 595.09 475.77 595.16 475.81 595.29 475.68 595.23"/>
  <polygon class="cls-1" points="475.13 595.63 475.1 595.49 475.23 595.56 475.26 595.7 475.13 595.63"/>
  <polygon class="cls-1" points="474.6 596.02 474.57 595.89 474.69 595.95 474.71 596.09 474.6 596.02"/>
  <polygon class="cls-1" points="338.5 596.46 338.63 596.41 338.6 596.54 338.47 596.6 338.5 596.46"/>
  <polygon class="cls-1" points="473.76 596.67 473.73 596.53 473.85 596.6 473.89 596.73 473.76 596.67"/>
  <polygon class="cls-1" points="339.02 596.89 339.13 596.83 339.1 596.95 338.99 597.01 339.02 596.89"/>
  <polygon class="cls-1" points="473.2 597.06 473.18 596.92 473.3 596.99 473.33 597.13 473.2 597.06"/>
  <polygon class="cls-1" points="458.81 606.13 458.8 606 458.9 606.08 458.9 606.22 458.81 606.13"/>
  <path class="cls-10" d="m532.12,388.59c2.61-3.13,4.78-6.56,6.81-10.09.23-.4.43-.82.65-1.24.99.14,1.74.62,2.51,1.02,6.95,3.54,12.84,8.37,17.59,14.55,9.42,12.28,15.15,26.21,18.42,41.24,3.14,14.39,4.09,28.94,3.07,43.62-.23,3.35-.39,6.7-.63,10.05-.11,1.58-.16,1.61-1.71,1.45-15.32-1.52-30.67-1.11-46-.6-12.3.41-24.6.86-36.89,1.6-14.88.89-29.56,3.09-44.14,6.07-10.41,2.13-20.81,4.32-31.03,7.26-.23.06-.47.07-.78.11-.75-1.89-.7-3.91-1.01-5.86-.12-.77.43-1.34.83-1.93,1.36-1.98,2.54-4.06,3.49-6.28.69-1.63,1.22-3.3,1.33-5.08.29-4.66-1.49-8.26-5.62-10.56-.97-.54-1.63-1.01-1.62-2.31.06-11.96,1.04-23.8,4.76-35.26,2.31-7.1,5.49-13.8,9.37-20.17,2.25-3.71,4.98-7.04,7.98-10.17,5.73-5.96,12.04-11.22,18.96-15.75.46-.3.93-.57,1.49-.91.48.85,0,1.47-.18,2.09-3.51,12.04-5.45,24.32-5.34,36.88.08,8.33,1.75,16.35,5.23,23.95,1.71,3.74,3.91,7.14,6.86,10.04,5.41,5.31,11.78,6.72,19,4.7,2.95-.83,5.63-2.24,8.17-3.94,6.51-4.36,11.55-10.05,15.28-16.91,1.3-2.39,2.48-4.84,3.47-7.37,3.72-9.44,6.68-19.15,9.96-28.74,2.34-6.01,4.67-12.02,7.78-17.7.68-1.24,1.74-2.31,1.96-3.79Z"/>
  <path class="cls-7" d="m384.55,524.93c.11,2.15.17,4.31.36,6.45.12,1.27.4,2.53.71,3.76.3,1.15.74,2.26,1.12,3.4-.4.59-1.09.6-1.68.79-5.98,1.93-11.37,5.04-16.67,8.33-.75.46-1.42,1.04-1.95,1.76-1.73,2.36-.57,5.12,2.33,5.54.8.12,1.59-.03,2.38-.19,2.52-.5,4.9-1.43,7.3-2.31,5.96-2.2,12.04-3.7,18.46-3.63,11.67.12,21.9,3.94,30.64,11.7,1.55,1.38,3.04,2.83,4.63,4.17,2.25,1.88,4.75,2.94,7.75,1.93.87-.29,1.74-.04,2.61,0,8.3.38,15.21-2.45,20.37-9.06,5.68-7.27,5.33-18.55-.69-25.56-4.39-5.11-11.5-6.71-17.91-4.01-2.45,1.03-4.61,2.53-6.7,4.16-3.79,2.97-7.06,6.48-10.37,9.94-.88.92-1.55,1.26-2.85.6-8.69-4.4-17.95-6.06-27.64-5.45-.56.03-1.12.06-1.68.06-.15,0-.3-.09-.73-.22.8-3.84.34-7.83,1.06-11.75,4.11-.96,7.88-2.71,11.34-5.1.6-.42,1.23-.66,1.91-.86,1.89.7,3.76.4,5.66-.06,7.15-1.74,14.12-4.1,21.29-5.74,15.35-3.51,30.75-6.82,46.42-8.61,4.21-.48,8.44-.79,12.66-1.17.81-.07,1.57-.18,1.75,1.02,1.04,7.2,2.14,14.39,1.56,21.71-1.32,16.9-6.35,32.41-17.19,45.72-1.26,1.55-2.6,3.05-4.04,4.42-19.21,18.16-41.7,28.52-68.49,28.1-12.38-.2-24.47-2.51-36.28-6.21-4.65-1.46-9.26-3.05-13.72-5.05-4.18-1.87-8.04-4.25-11.7-7.01-6.94-5.25-11.39-12.22-14.12-20.37-1.55-4.64-1.73-9.39-1.01-14.22,1.36-9.14,3.91-17.93,7.64-26.39.64-1.46,1.51-2.2,3.14-2.44,9.73-1.44,19.49-2.57,29.32-3.1,1.66.31,3.32-.02,4.98-.03.91,0,1.67.05,2.28.92,1.42,2.02,3.51,3.16,5.75,4.06Z"/>
  <path class="cls-10" d="m342.5,402.81c1.55-3.09,2.27-6.47,3.36-9.71,1.32-3.93,1.26-3.88,5.32-2.76,7.3,2.02,13.1,6.11,17.5,12.27,2.67,3.73,4.87,7.71,6.46,12,4.07,10.96,7.54,22.09,8.89,33.77.95,8.27,1.46,16.56,1.34,24.89-.02,1.13-.36,1.73-1.45,2.09-1.36.45-2.7,1.01-3.98,1.64-8.5,4.21-12.89,12.5-11.73,21.91.32,2.55,1.06,4.97,2.13,7.55-1.83.16-3.46.33-5.1.45-28.19,2.2-55.64,8.02-82.51,16.75-8.59,2.79-17.25,5.35-25.88,8-1.77.54-1.82.54-2.43-1.1-4.28-11.74-8.02-23.63-8.97-36.19-1.16-15.32.91-30.12,7.41-44.2,4.8-10.4,10.9-19.89,18.91-28.11.43-.44.76-1.03,1.61-1.3.23.8-.04,1.52-.17,2.24-1.69,9.65-2.56,19.33-1.19,29.11.96,6.92,2.64,13.65,5.81,19.92,1.97,3.89,4.52,7.34,7.88,10.16,6.87,5.76,14.62,6.24,22.11,1.34,3.46-2.26,6.29-5.16,8.69-8.5,2.57-3.58,4.69-7.43,6.53-11.43,5.76-12.54,9.42-25.78,12.91-39.08,1.4-4.6,2.85-9.18,4.17-13.8.76-2.65,1.9-5.18,2.37-7.92Z"/>
  <path class="cls-2" d="m364.18,381.26c.96-1,2.08-1.62,3.13-2.34,11.07-7.62,23.35-12.47,36.31-15.74,7.92-2,15.92-3.53,24.15-3.31,5.69.15,11.31.78,16.81,2.37,3.81,1.1,7.31,2.77,10.4,5.28,2.41,1.96,4.86,3.87,7.27,5.78-.49.96-1.31,1.18-1.97,1.57-4.48,2.65-8.79,5.54-12.98,8.61-14.76,10.84-25.99,24.4-32.84,41.57-4.37,10.95-7,22.23-8.07,33.91-.34,3.66-.48,7.34-.73,11-.11,1.68-.13,1.7-1.77,1.7-1.68,0-3.35.05-5.02.26-2.4.3-2.44.28-2.35-2.05.19-5.2.06-10.39-.07-15.58-.39-16.26-3.87-31.84-10.08-46.84-2.53-6.11-5.86-11.71-10.29-16.64-2.97-3.29-6.33-6.09-10.16-8.32-.54-.31-1.18-.5-1.71-1.24Z"/>
  <path class="cls-11" d="m342.5,402.81c-.47,2.74-1.62,5.27-2.37,7.92-1.32,4.62-2.77,9.2-4.17,13.8-3.7,1.23-7.4,2.49-11.12,3.67-3.35,1.06-6.76,1.89-10.24,2.42-2.22.34-4.45.48-6.64-.22-4.37-1.4-6.12-5.78-3.89-9.79.42-.76.94-1.49,1.53-2.13,7.11-7.7,15.47-13.29,25.95-15.25,3.62-.68,7.27-1.05,10.94-.41Z"/>
  <path class="cls-11" d="m532.12,388.59c-.22,1.48-1.28,2.55-1.96,3.79-3.11,5.68-5.43,11.69-7.78,17.7-3.5.77-6.93,1.9-10.52,2.3-3.03.33-6.05.43-9.06-.22-3.84-.82-6.33-3.27-7.97-6.66-1.09-2.26-.75-4.52.5-6.64.7-1.18,1.61-2.21,2.71-3.01,9.22-6.76,19.48-9.69,30.89-8.2,1.09.14,2.21.32,3.18.95Z"/>
  <path class="cls-11" d="m432.3,547.42c3.3-3.43,6.37-6.55,9.99-9.07,1.9-1.33,3.87-2.54,6.15-3.11,4-1,7.66.69,9.21,4.48,3.84,9.34-2.36,16.71-11.1,17.11-.63.03-1.27-.04-1.91-.05-2.02,0-3.54-.71-4.8-2.48-1.94-2.73-4.58-4.84-7.55-6.89Z"/>
  <path class="cls-1" d="m408.66,519.38c-.68.2-1.31.44-1.91.86-3.46,2.4-7.23,4.14-11.34,5.1.07-3.92.87-7.75,1.45-11.61.13-.87.59-1.42,1.43-1.74,3.37-1.27,6.57-2.89,9.6-4.85.42-.27.91-.83,1.45-.18.6.73.3,1.29-.38,1.8-.51.38-.98.82-1.41,1.29-2.87,3.16-2.41,6.97,1.11,9.33Z"/>
  <path class="cls-1" d="m384.55,524.93c-2.24-.9-4.33-2.04-5.75-4.06-.61-.86-1.37-.93-2.28-.92-1.66.01-3.32.35-4.98.03,1.13-.53,2.35-.33,3.52-.4,2.71-.17,5.43,0,8.14-.26,1.55-.15,1.66.02,1.62,1.56-.04,1.35-.18,2.7-.28,4.05Z"/>
  <path class="cls-9" d="m604.47,240.98c-.48,9.46-.54,18.96-2.86,28.23-.97,3.88-2.22,7.66-4.49,11.02-2.37,3.51-5.65,5.21-9.89,5.3-4.79.11-9.33-1.05-13.84-2.39-3.97-1.19-7.85-2.69-11.81-3.89-5.57-1.68-11.2-3.17-16.78-4.82-4.07-1.2-7.94-2.92-11.73-4.79-3.29-1.63-6.65-3.09-9.89-4.85-4.02-2.18-4.6-6.05-2.54-9.28,2.81-4.4,4.82-9.2,6.57-14.06,4.66-12.91,8.67-26.03,12.65-39.16,2.22-7.34,4.93-14.51,8.25-21.43,2.34-4.89,4.6-9.83,7.8-14.26,2.17-3,4.57-5.73,7.69-7.79,6.86-4.51,14.87-3.67,20.78,2.11,3.83,3.76,6.4,8.32,8.66,13.1,3.6,7.63,5.85,15.67,7.34,23.94.93,5.17,1.75,10.35,2.29,15.58.75,7.22,1.4,14.43,1.48,21.69.02,1.89.39,3.8.33,5.72Z"/>
  <path class="cls-14" d="m532.88,142.96c4.4-8.97,9.19-17.7,15.8-25.31,4-4.61,8.82-7.46,15.01-7.97,3.97-.33,7.64.35,10.98,2.52,3.37,2.19,6.21,4.96,8.58,8.22-9.26,2.93-18.29,6.43-27.12,10.47-7.32,3.35-14.44,7.04-21.25,11.34-.61.38-1.23.75-1.99.73Z"/>
  <path class="cls-4" d="m237.32,280.17c1.13-5.81,2.77-11.48,4.24-17.21,4.75-18.52,11.05-36.54,18.02-54.32,4.49-11.45,10.45-22.08,17.92-31.86,3.53-4.62,7.91-8.04,13.46-10,4.93-1.73,9.42-1.04,13.64,1.91.65.46,1.3.94,1.88,1.48,4.96,4.69,9.13,10.02,12.74,15.81-1.49,2.04-3.78,3.14-5.64,4.74-3.68,3.16-7.41,6.27-11.16,9.35-6.68,5.48-12.64,11.71-18.69,17.84-3.91,3.97-7.5,8.24-11.16,12.45-4.81,5.53-9.3,11.31-13.68,17.18-5.39,7.21-10.41,14.68-15.11,22.37-1.7,2.79-3.41,5.57-4.95,8.46-.36.68-.74,1.43-1.51,1.8Z"/>
</svg>