<?xml version="1.0" encoding="UTF-8"?>
<svg id="_图层_1" data-name="图层 1" xmlns="http://www.w3.org/2000/svg" viewBox="0 0 960 960">
  <defs>
    <style>
      .cls-1 {
        fill: #fefefe;
      }

      .cls-1, .cls-2, .cls-3, .cls-4, .cls-5, .cls-6, .cls-7, .cls-8, .cls-9, .cls-10, .cls-11, .cls-12, .cls-13, .cls-14 {
        stroke-width: 0px;
      }

      .cls-2 {
        fill: #bb3a98;
      }

      .cls-3 {
        fill: #010101;
      }

      .cls-4 {
        fill: #fdabe6;
      }

      .cls-5 {
        fill: #040304;
      }

      .cls-6 {
        fill: #f3d5aa;
      }

      .cls-7 {
        fill: #fca9e2;
      }

      .cls-8 {
        fill: #b9813d;
      }

      .cls-9 {
        fill: #ba3997;
      }

      .cls-10 {
        fill: #f4d6aa;
      }

      .cls-11 {
        fill: #fdfdfd;
      }

      .cls-12 {
        fill: #fe72d7;
      }

      .cls-13 {
        fill: #b83b97;
      }

      .cls-14 {
        fill: #120f0f;
      }
    </style>
  </defs>
  <path class="cls-14" d="m594.45,380.01c.92,1.17,1.64,2.45,2.22,3.82.12,1.03.14,2.08.36,3.09.88,4.07,1.38,8.21,1.61,12.35.85,15.17-.44,30.18-4,44.96-5.48,22.75-15.72,43.17-30.32,61.41-10.54,13.17-23.29,23.66-38.58,30.94-5.13,2.44-10.39,4.57-15.87,6.09-1.36.38-2.01,1.05-2.08,2.45-.11,2.07-.34,4.13-.51,6.2-1.17,4.9-2.53,9.72-4.63,14.33-4.36,9.54-10.89,17.44-18.5,24.51-13.39,12.46-29.23,20.44-46.7,25.37-12.48,3.53-25.22,5-38.17,4.29-14.52-.8-28.43-4.06-41.32-11.04-11.37-6.16-20.52-14.59-26.49-26.22-.11-.21-.27-.39-.4-.59-1.52-3.45-2.75-7-3.62-10.68.07-.76-.43-1-1-.84-.8.23-1.55.63-2.32.96-.41-.13-.78.03-1.15.17-9.79,3.64-19.8,4.1-29.95,1.91-12.56-2.72-23.08-9.16-32.22-18-7.12-6.89-12.84-14.86-17.61-23.52-6.8-12.34-11.47-25.47-14.49-39.21-.18-.83-.09-1.78-.73-2.48-2-10.78-3.15-21.64-3.02-32.62.04-3.28.18-6.54.52-9.8.25-2.4.75-4.73,2.01-6.83,2.38-2.13,5.21-3.3,8.29-4.05,4.35-1.06,8.72-1.99,13.12-2.8,16.58-3.06,33.26-5.49,49.82-8.65,8.48-1.62,16.96-3.17,25.45-4.71,1-.18,1.54-.42,1.54-1.62.04-10.14,3.76-19.01,9.53-27.13,4.24-5.97,9.28-11.24,15.14-15.6,28.98-21.56,61.38-29.48,97.03-23.75,10.38,1.67,19.96,5.66,28.53,11.84,10.18,7.34,16.8,16.94,18.53,29.59.23,1.65.27,1.67,1.93,1.36,7.78-1.43,15.56-2.86,23.34-4.3,22.47-4.14,44.94-8.26,67.41-12.43,2.62-.49,5.07-.43,7.31,1.21Zm-203.43,133.3c-2.83-.72-5.75-1.1-8.48-2.21-.85-.35-1.31.08-1.65.84-.71,1.58-1.46,3.15-2.19,4.72-1.02,1.99-2.02,3.99-3.05,5.98-9.39,18.27-22.4,33.18-40.38,43.47-1.14.65-1.35,1.26-.86,2.46,2.47,6.04,5.56,11.68,9.92,16.58,8.24,9.26,18.48,15.39,30.12,19.33,13.16,4.45,26.7,5.58,40.47,4.41,19.85-1.69,38.07-7.98,54.42-19.45,11.51-8.08,20.33-18.41,26.03-31.32,1.56-3.52,2.65-7.19,3.47-10.95.4-1.85.3-1.93-1.51-1.74-.72.07-1.43.16-2.14.25-5.81.76-11.66.93-17.46.15-23.78-3.22-42.17-14.88-54.85-35.35-.71-1.15-1.42-2.3-2.13-3.45-.69-1.85-1.68-3.52-2.8-5.32-5.75,5.04-11.55,9.62-19.28,10.65,0-1.91-.04-3.82.02-5.72.03-.99-.17-1.91-.55-2.78-1.07-2.44-3.33-2.64-4.69-.93-.65.82-1.29,1.59-1.5,2.64-.5,2.56-1.13,5.1-.94,7.74Zm-115.97-71.01c-.97-.2-1.9.09-2.84.26-11.42,1.98-22.81,4.11-34.37,5.12-1.14.1-1.51.5-1.41,1.63.39,4.3.62,8.61,1.07,12.9,1.33,12.49,3.18,24.89,6.71,36.98,3.9,13.37,9.43,25.98,17.77,37.23,5.48,7.39,11.96,13.74,19.95,18.41,10,5.84,20.71,7.72,32.1,5.7,11.4-2.02,20.94-7.59,29.18-15.53,7.59-7.31,13.87-15.66,19.4-24.6,2.9-4.7,5.32-9.65,7.66-14.65.56-1.21.62-2.09-.54-2.88-.19-.13-.34-.34-.5-.52-5.12-5.72-4.79-13.12.8-18.4,2.38-2.24,5.2-3.72,8.31-4.6,1.51-.43,2.19-1.2,2.54-2.72,3.92-16.66,5.72-33.54,5.58-50.64-.02-2.07-.06-2.1-1.99-1.77-10.95,1.84-21.91,3.7-32.86,5.54-.71.12-1.44.14-2.01.67-.8-.09-1.56-.02-2.36.13-4.21.77-8.43,1.46-12.65,2.17-4.45.75-8.9,1.5-13.36,2.21-4.54.72-9.08,1.42-13.63,2.09-3.76.55-7.54,1.01-11.3,1.59-4.62.71-9.23,1.46-13.83,2.29-2.49.45-5.05.47-7.45,1.37Zm269.1-41.66c-2.41-.04-4.69.73-7.03,1.12-5.47.9-10.88,2.11-16.33,3.11-7.48,1.37-14.97,2.65-22.45,4.01-7.56,1.37-15.11,2.75-22.65,4.22-3.8.74-7.68,1.17-11.39,2.33-.89-.34-1.74.01-2.59.16-2.68.46-5.34.99-8.02,1.47-12.19,2.17-24.29,4.93-36.64,6.14-1.25.12-1.58.76-1.79,1.8-.84,4-1.46,8.02-1.72,12.1-.61,9.46.35,18.85,1.28,28.24.29,2.94.86,5.85,1.29,8.77.19,1.27.62,2.19,2.11,2.47,1.41.27,2.7.98,3.89,1.81,3.58,2.46,5.02,6.34,3.76,10.49-.44,1.44-1.05,2.86-1.78,4.18-.63,1.12-.52,2.01,0,3.13,3.36,7.15,7.72,13.63,13.12,19.38,7.92,8.44,17.2,14.75,28.49,17.81,9.8,2.65,19.74,2.98,29.72,1.32,12.59-2.09,24.01-7.1,34.48-14.32,28.9-19.91,47.5-46.93,55.72-81.05,3.52-14.64,4.05-29.41,1.55-44.28-.42-2.49-.41-2.51-2.77-2.07-12.5,2.29-25,4.59-37.49,6.91-.93.17-1.91.2-2.74.77Zm-152.45,75.56c.4.13.55.24.69.23,4.21-.45,8.41-1.03,12.66-1.06,1.36-.01,1.01-.9.83-1.67-2.26-9.39-2.68-18.98-3.18-28.56-.49-9.42,1.27-18.63,3.06-27.82.11-.54.29-1.08.49-1.6.87-2.18,2.41-3.52,4.8-3.8.87-.1,1.76-.2,2.6-.44,9.57-2.66,19.35-4.28,29.09-6.08,13.13-2.42,26.26-4.82,39.38-7.24,1.98-.37,1.95-.39,1.78-2.3-.68-7.48-3.86-13.78-9.01-19.14-3.98-4.14-8.66-7.32-13.85-9.73-8.49-3.94-17.44-6.21-26.74-7.13-11.88-1.19-23.63-.3-35.25,2.38-14.87,3.44-28.77,9.09-41.13,18.2-8.06,5.94-14.99,12.95-20.09,21.65-2.73,4.66-4.73,9.6-5.63,14.95-.13.75-.51,1.54.13,2.32.63-.09,1.26-.16,1.89-.27,17.1-2.89,34.2-5.78,51.3-8.68,1.59-.27,3.18-.41,4.77-.17,4.01.6,6.34,3.78,5.6,7.71-.23,1.2-.24,2.37-.15,3.57,1,14.02.31,27.96-1.75,41.85-.63,4.27-1.49,8.49-2.3,12.83Z"/>
  <path class="cls-12" d="m632.79,337.48c-2.52.34-4.45-.89-6.24-2.42-8.98-7.69-18.26-14.97-28.28-21.27-11.29-7.1-23.03-13.39-35.09-19.12-15.03-7.13-30.51-13.05-46.36-18.03-9.67-3.03-19.53-5.25-29.49-7.14-10.54-2-21.12-3.14-31.85-2.81-1.2.04-2.38-.05-3.42-.77,2.5.07,4.43-1.11,6.13-2.8,1.99-1.98,3.8-4.11,5.52-6.32,6.52-8.41,12.69-17.07,18.48-25.99,16.12-24.82,30.82-50.48,44.53-76.7,1.96-3.75,3.82-7.56,6.02-11.18.09-.16.19-.31.28-.47v.02c1.64.03,2.74-1.15,4-1.91,5.73-3.46,11.63-6.58,17.7-9.37,6.85-3.15,13.82-6.06,20.94-8.56,2.53-.89,5-2.07,7.74-2.26,1.2.84,1.97,2.07,2.84,3.19,11.61,14.95,20.48,31.41,26.77,49.25,2.18,6.17,4.17,12.41,6.22,18.63,3.74,11.34,6.11,22.99,7.86,34.77,1.27,8.54,1.7,17.16,2.19,25.78.66,11.49,1.18,22.97.64,34.49-.53,11.33-.99,22.66-1.07,34.01-.02,3.44-.04,6.87.54,10.28.44,2.57,1.36,4.91,3.39,6.69Zm-28.26-97.59c-.97-4.47-.24-9.76-.82-15.01-.34-3.15-.41-6.37-.74-9.53-.66-6.25-1.53-12.47-2.77-18.64-1.88-9.35-4.51-18.45-9.13-26.85-2.27-4.13-4.81-8.1-8.74-10.94-4.45-3.22-9.36-3.97-14.55-2.35-4.94,1.54-8.39,5.05-11.37,9.11-4.42,6.04-7.35,12.87-10.42,19.64-1.78,3.93-3.34,7.96-4.61,12.07-4.27,13.79-8.47,27.61-13.2,41.25-2.06,5.94-4.35,11.83-7.86,17.14-.49.74-.7,1.57-.8,2.47-.33,2.99,1.3,4.79,3.61,6.22,3.95,2.45,8.3,4.09,12.46,6.11,3.23,1.56,6.58,2.83,10.02,3.91,6.54,2.06,13.33,3.29,19.75,5.74,5.98,2.29,12.09,3.97,18.42,5.01,5.66.93,10.47-.98,13.68-5.73,1.82-2.69,2.81-5.72,3.68-8.79,2.79-9.84,2.83-19.99,3.4-30.82Z"/>
  <path class="cls-12" d="m363.07,270.72c.28,2.4-.6,4.34-2.32,5.97-2.04,1.92-4.44,3.35-6.67,5.02-3.5,2.63-7.05,5.18-10.59,7.75-.25.18-.57.27-.85.4-.36-2.12-.62-4.26-1.09-6.35-1.27-5.73-3.08-11.27-6.79-15.93-3.42-4.3-8.78-6.79-14.91-5.24-3.38.85-6.05,2.83-8.47,5.18-4.75,4.6-8.33,10.08-11.41,15.87-3.54,6.65-6.2,13.64-7.85,21.01-1.43,6.37-3.65,12.55-4.3,19.1-.07.69-.52,1.14-.94,1.62-2.17,2.45-4.34,4.89-6.49,7.35-4.09,4.68-8.24,9.32-11.93,14.33-3.6,4.89-7.07,9.87-9.59,15.42-1.05,2.32-2.14,4.65-2.17,7.28-.35.74-1.03,1.21-1.59,1.76-4.35,4.32-8.75,8.6-13.08,12.94-4.67,4.68-9.19,9.49-12.79,15.08-.7,1.08-1.59,1.99-2.96,2.23.39-2.89-.27-5.73-.38-8.59-.58-15.09-.54-30.18.63-45.24,1.07-13.77,2.23-27.54,4.73-41.14,1.63-8.87,3.63-17.66,5.97-26.37.53-.13.74-.57.98-.98,1.3-2.28,2.58-4.59,3.92-6.85,4.61-7.74,9.59-15.25,14.92-22.51,5.37-7.32,10.94-14.47,16.89-21.34,3.97-4.58,8.08-9.02,12.2-13.45,4.4-4.73,9.25-9.01,14.1-13.29,4-3.53,8.16-6.87,12.23-10.32,2.24-1.9,4.76-3.47,6.8-5.61,2.12,2.81,3.79,5.9,5.45,8.99,7.64,14.21,14.21,28.91,20.19,43.89,3.1,7.78,6.13,15.59,9.55,23.23,1.02,2.27,2.27,4.39,3.91,6.27,1.25,1.44,2.7,2.47,4.69,2.52Z"/>
  <path class="cls-5" d="m532.74,142.94c-2.2,3.62-4.06,7.43-6.02,11.18-13.71,26.22-28.41,51.88-44.53,76.7-5.79,8.92-11.96,17.58-18.48,25.99-1.71,2.21-3.53,4.34-5.52,6.32-1.7,1.7-3.63,2.87-6.13,2.8-4.38-1.75-5.18-4.67-2.45-8.68,22.79-33.35,43.87-67.73,62.86-103.39,5-9.38,9.67-18.93,14.78-28.24,2.93-5.33,6.19-10.45,10.08-15.14,1.59-1.91,3.26-3.73,5.09-5.41,8.76-7.98,19.07-10.23,30.51-8.2,3.84.68,7.24,2.45,10.41,4.68,3.63,2.55,6.69,5.69,9.59,9,6.4,7.3,11.85,15.28,16.79,23.61,7.73,13.04,13.7,26.87,18.47,41.27,4.8,14.51,9.17,29.1,11.55,44.24,1.18,7.51,2.02,15.05,2.45,22.64.87,15.32,1.85,30.64,1.11,46.01-.55,11.34-.88,22.68-1.04,34.03-.04,2.79-.3,5.59-.79,8.35-.35,1.93-1.14,3.64-2.48,5.1-1.73,1.89-3.7,2.74-6.21,1.67-2.03-1.77-2.95-4.11-3.39-6.69-.58-3.4-.57-6.84-.54-10.28.08-11.35.54-22.68,1.07-34.01.54-11.51.01-23-.64-34.49-.49-8.61-.93-17.23-2.19-25.78-1.75-11.79-4.13-23.44-7.86-34.77-2.05-6.22-4.04-12.46-6.22-18.63-6.29-17.84-15.16-34.3-26.77-49.25-.87-1.12-1.64-2.35-2.84-3.19-2.68-3.74-5.92-6.89-9.94-9.15-2.26-1.27-4.73-1.88-7.34-1.9-7.07-.05-12.81,2.66-17.42,8.04-6.51,7.58-11.31,16.2-15.67,25.1,0,0,.01-.02.01-.02-.22.08-.33.22-.28.47Z"/>
  <path class="cls-5" d="m363.07,270.72c-1.99-.05-3.44-1.08-4.69-2.52-1.64-1.88-2.89-4-3.91-6.27-3.43-7.65-6.45-15.46-9.55-23.23-5.98-14.98-12.55-29.68-20.19-43.89-1.66-3.09-3.33-6.18-5.45-8.99-3.62-5.77-7.78-11.11-12.72-15.81-.69-.66-1.47-1.23-2.27-1.76-4.03-2.7-8.3-3.42-12.99-1.82-5.55,1.89-10.01,5.21-13.57,9.82-6.07,7.88-11.27,16.3-15.25,25.41-7.08,16.18-12.81,32.86-17.8,49.79-2.8,9.49-5.31,19.06-7.45,28.73-2.34,8.71-4.34,17.5-5.97,26.37-2.5,13.61-3.66,27.37-4.73,41.14-1.17,15.07-1.21,30.15-.63,45.24.11,2.87.76,5.71.38,8.59-.18.26-.35.53-.54.78-1.88,2.43-4.75,2.51-6.71.15-1.15-1.39-1.67-3.08-2.13-4.78-1.21-4.5-1.59-9.13-1.94-13.75-1.27-16.81-.28-33.56,1.22-50.3,1-11.15,2.18-22.29,4.52-33.25,6.99-32.8,15.86-65.05,28.53-96.17,4.39-10.78,9.95-20.92,16.58-30.47,1.82-2.63,3.78-5.16,5.98-7.49,5.36-5.7,11.92-9.36,19.48-11.18,6.83-1.65,13.33-.53,19.41,2.99,3.57,2.06,6.59,4.77,9.35,7.81,8.12,8.93,14.92,18.74,20.26,29.58,7.03,14.28,13.22,28.92,18.57,43.92,1.83,5.12,3.74,10.2,5.56,15.33,1.34,3.79,2.22,7.66,1.8,11.75-.22,2.12-.98,3.68-3.14,4.3Z"/>
  <path class="cls-2" d="m256.69,369.51c.03-2.63,1.12-4.97,2.17-7.28,2.52-5.56,5.99-10.53,9.59-15.42,3.69-5.02,7.83-9.66,11.93-14.33,2.15-2.46,4.32-4.91,6.49-7.35.43-.48.87-.93.94-1.62.64-6.54,2.87-12.73,4.3-19.1,1.65-7.37,4.32-14.37,7.85-21.01,3.08-5.79,6.66-11.27,11.41-15.87,2.42-2.34,5.09-4.32,8.47-5.18,6.14-1.55,11.49.94,14.91,5.24,3.71,4.66,5.52,10.2,6.79,15.93.47,2.1.73,4.23,1.09,6.35-3.19,2.52-6.37,5.04-9.58,7.54-7.18,5.6-13.97,11.66-20.59,17.9-18.06,17.04-35.62,34.58-53.25,52.05-.78.78-1.42,1.75-2.52,2.16Z"/>
  <path class="cls-7" d="m594.45,380.01c-2.23-1.63-4.69-1.69-7.31-1.21-22.47,4.17-44.94,8.29-67.41,12.43-7.78,1.43-15.56,2.87-23.34,4.3-1.66.3-1.7.29-1.93-1.36-1.74-12.65-8.36-22.25-18.53-29.59-8.57-6.18-18.15-10.18-28.53-11.84-35.64-5.73-68.04,2.19-97.03,23.75-5.86,4.36-10.9,9.63-15.14,15.6-5.77,8.12-9.49,16.99-9.53,27.13,0,1.19-.54,1.43-1.54,1.62-8.49,1.54-16.98,3.09-25.45,4.71-16.56,3.16-33.25,5.59-49.82,8.65-4.4.81-8.77,1.74-13.12,2.8-3.08.75-5.91,1.92-8.29,4.05-.68-2.55-.12-3.96,2.24-5.33,1.67-.97,3.52-1.5,5.38-1.98,7.63-1.99,15.36-3.5,23.03-5.29,12.94-3.02,25.98-5.57,39-8.19,7.1-1.43,14.19-2.88,21.28-4.34,1.16-.24,1.92-.75,2.12-2.17,1.01-6.95,3.58-13.37,7.05-19.44,4.41-7.7,10.28-14.23,16.82-20.12,5.45-4.92,11.5-9.07,17.9-12.73,6.89-3.94,14.08-7.18,21.64-9.54,7.3-2.28,14.73-3.99,22.32-5.09,8.59-1.25,17.2-1.09,25.8-.77,5.86.22,11.69,1.3,17.4,2.84,6.1,1.64,11.99,3.87,17.67,6.61,5.99,2.89,11.34,6.73,16.38,11.11,4.69,4.07,8.63,8.69,11.94,13.91,1.21,1.91,1.92,4.03,2.92,6.02.87,1.72.99,1.76,2.74,1.47,7.77-1.26,15.54-2.46,23.3-3.74,6.2-1.02,12.37-2.17,18.57-3.16,3.92-.63,7.88-1.05,11.82-1.59,4.17-.57,8.34-1.18,12.51-1.75,4.02-.55,8.04-1.08,12.06-1.61,2.84-.37,5.69-.67,8.51-1.13,3.67-.59,6.21,1.28,6.57,4.99Z"/>
  <path class="cls-13" d="m507.28,551.31c.18-2.06.4-4.13.51-6.2.08-1.4.72-2.07,2.08-2.45,5.48-1.53,10.74-3.65,15.87-6.09,15.29-7.28,28.03-17.77,38.58-30.94,14.6-18.23,24.84-38.66,30.32-61.41,3.56-14.79,4.85-29.79,4-44.96-.23-4.14-.74-8.27-1.61-12.35-.22-1.01-.24-2.06-.36-3.09,1.43.48,1.77,1.7,2.04,2.98,3.08,14.55,2.84,29.18,1.1,43.87-.99,8.41-2.05,16.8-3.93,25.07-3.01,13.21-7.02,26.08-13.11,38.21-9.26,18.44-21.52,34.36-39.22,45.55-9.73,6.15-20.33,9.96-31.72,11.56-1.5.21-3.03.18-4.54.26Z"/>
  <path class="cls-13" d="m327.46,571.29c.86,3.67,2.09,7.23,3.62,10.68-17.93,4.17-35.22,1.87-51.97-5.31-5.85-2.51-10.88-6.36-15.49-10.72-12.43-11.75-21.26-25.82-27.01-41.88-3.69-10.32-6.6-20.85-8.49-31.64-.12-.7-.36-1.4-.14-2.12.64.71.55,1.65.73,2.48,3.02,13.74,7.69,26.87,14.49,39.21,4.77,8.66,10.49,16.63,17.61,23.52,9.14,8.84,19.66,15.28,32.22,18,10.15,2.2,20.16,1.73,29.95-1.91.38-.14.74-.3,1.15-.17,1.11-.04,2.22-.08,3.32-.12Z"/>
  <path class="cls-1" d="m544.15,400.63c.82-.57,1.81-.6,2.74-.77,12.5-2.31,24.99-4.61,37.49-6.91,2.36-.43,2.35-.42,2.77,2.07,2.5,14.87,1.97,29.64-1.55,44.28-8.21,34.13-26.82,61.14-55.72,81.05-10.48,7.22-21.89,12.23-34.48,14.32-9.98,1.66-19.91,1.33-29.72-1.32-11.29-3.06-20.57-9.37-28.49-17.81-5.4-5.75-9.76-12.23-13.12-19.38-.52-1.12-.63-2.01,0-3.13.73-1.32,1.34-2.74,1.78-4.18,1.26-4.15-.18-8.04-3.76-10.49-1.2-.82-2.49-1.54-3.89-1.81-1.49-.28-1.92-1.2-2.11-2.47-.43-2.93-1-5.84-1.29-8.77-.93-9.39-1.89-18.78-1.28-28.24.26-4.08.88-8.1,1.72-12.1.22-1.04.55-1.68,1.79-1.8,12.35-1.2,24.45-3.97,36.64-6.14,2.68-.48,5.34-1.01,8.02-1.47.85-.15,1.71-.5,2.59-.16-.11.38-.24.76-.33,1.15-1.47,6.49-2.15,13.08-2.63,19.7-1.21,16.57,1.29,32.52,7.82,47.79,3.68,8.6,9.48,15.56,17.18,20.8,6.37,4.33,13.44,6.61,21.31,5.63,7.19-.89,12.34-4.48,15.09-11.3,1.41-3.5,2.46-7.1,3.13-10.8,1.58-8.73,2.06-17.62,3.71-26.34.19-1.18.4-2.35.58-3.53.77-5.12,1.6-10.23,2.28-15.36.32-2.36.99-4.67,1.01-7.08.18-.52.4-1.04.52-1.57,1.98-8.87,4.21-17.67,7.39-26.21.77-2.08,1.48-4.2,2.21-6.3.19-.07.29-.18.16-.39.29-.26.39-.61.42-.98Z"/>
  <path class="cls-10" d="m420.75,507.01c.71,1.15,1.42,2.3,2.14,3.45,12.68,20.48,31.07,32.14,54.85,35.35,5.8.78,11.65.61,17.46-.15.71-.09,1.43-.18,2.14-.25,1.81-.19,1.91-.1,1.51,1.74-.82,3.76-1.91,7.43-3.47,10.95-5.7,12.91-14.52,23.24-26.03,31.32-16.36,11.48-34.57,17.76-54.42,19.45-13.77,1.17-27.31.04-40.47-4.41-11.64-3.94-21.88-10.07-30.12-19.33-4.36-4.9-7.45-10.55-9.92-16.58-.49-1.2-.28-1.8.86-2.46,17.97-10.29,30.99-25.2,40.38-43.47,1.02-1.99,2.03-3.99,3.05-5.98.63,0,1.22.07,1.81.4,3.22,1.82,6.7,2.62,10.38,2.56.28,2.7.48,5.41.85,8.09.86,6.18,2.25,12.23,4.5,18.06-.9.47-1.66.09-2.41-.08-3.41-.78-6.35-2.56-9.27-4.37-1.22-.76-2.42-1.58-3.84-1.91-2.15-.49-3.82.94-3.72,3.14.06,1.34.74,2.43,1.48,3.48,3.09,4.39,7.16,7.51,12.34,9,6.38,1.84,12.78,1.74,19.11-.3,7.84-2.52,13.52-7.96,18.76-13.98.21-.24.37-.52.53-.8,1.12-1.99.89-4.13-.58-5.49-1.45-1.34-3.63-1.42-5.53-.14-.59.4-1.14.88-1.66,1.37-1.24,1.13-2.45,2.29-3.67,3.44-3.44,3.25-7.42,5.49-12.06,6.56-1,.23-1.38.06-1.7-.95-2.69-8.52-5-17.11-5.64-26.07,4.64-.7,8.9-2.42,12.93-4.77,3.38-1.98,6.48-4.35,9.46-6.89Z"/>
  <path class="cls-11" d="m349.64,430.45c.57-.53,1.3-.55,2.01-.67,10.95-1.85,21.9-3.7,32.86-5.54,1.93-.32,1.97-.29,1.99,1.77.15,17.1-1.65,33.98-5.58,50.64-.36,1.52-1.04,2.29-2.54,2.72-3.11.88-5.93,2.36-8.31,4.6-5.6,5.27-5.93,12.67-.8,18.4.16.18.3.39.5.52,1.15.79,1.1,1.67.54,2.88-2.34,5-4.76,9.94-7.66,14.65-5.53,8.94-11.81,17.29-19.4,24.6-8.24,7.94-17.78,13.51-29.18,15.53-11.39,2.02-22.11.14-32.1-5.7-8-4.67-14.47-11.02-19.95-18.41-8.34-11.25-13.87-23.86-17.77-37.23-3.53-12.09-5.38-24.49-6.71-36.98-.46-4.29-.68-8.6-1.07-12.9-.1-1.13.26-1.53,1.41-1.63,11.56-1.01,22.95-3.15,34.37-5.12.94-.16,1.87-.46,2.84-.26-.77,5.95-1.32,11.89-.77,17.91.45,5.02,1.35,9.96,2.09,14.93,1.69,11.28,4.9,22.1,9.95,32.35,3,6.09,7.01,11.41,12.12,15.89,3.3,2.89,7.06,4.91,11.29,6.06,7.67,2.08,18.28.87,23.7-10.34,2.22-4.58,3.61-9.37,4.31-14.38.97-6.89,1.2-13.84,1.77-20.76.25-2.99.45-5.99.76-8.98.54-5.19,1.14-10.38,1.72-15.56.88-4.95,1.72-9.91,2.95-14.79,1.22-4.83,3.11-9.45,4.67-14.17Z"/>
  <path class="cls-6" d="m391.7,476.19c.82-4.33,1.67-8.56,2.3-12.83,2.06-13.89,2.75-27.83,1.75-41.85-.09-1.2-.07-2.38.15-3.57.74-3.93-1.59-7.11-5.6-7.71-1.59-.24-3.19-.1-4.77.17-17.1,2.9-34.2,5.79-51.3,8.68-.63.11-1.26.18-1.89.27-.64-.78-.26-1.57-.13-2.32.9-5.35,2.9-10.29,5.63-14.95,5.1-8.7,12.03-15.7,20.09-21.65,12.36-9.11,26.26-14.77,41.13-18.2,11.62-2.69,23.37-3.57,35.25-2.38,9.3.93,18.25,3.19,26.74,7.13,5.2,2.41,9.87,5.59,13.85,9.73,5.16,5.36,8.33,11.66,9.01,19.14.17,1.91.2,1.93-1.78,2.3-13.13,2.42-26.26,4.82-39.38,7.24-9.75,1.79-19.53,3.42-29.09,6.08-.84.23-1.73.34-2.6.44-2.39.28-3.94,1.61-4.8,3.8-.21.52-.39,1.05-.49,1.6-1.79,9.19-3.54,18.39-3.06,27.82.5,9.58.92,19.17,3.18,28.56.18.77.53,1.66-.83,1.67-4.25.03-8.45.61-12.66,1.06-.14.02-.29-.09-.69-.23Z"/>
  <path class="cls-3" d="m544.15,400.63c-.03.37-.13.72-.42.98-.14.1-.19.23-.16.39-.74,2.1-1.44,4.21-2.21,6.3-3.17,8.54-5.41,17.33-7.39,26.21-.12.54-.35,1.05-.52,1.57-1.53-.06-3.03.22-4.52.49-7.16,1.29-13.92,3.6-19.78,8.08-1.53,1.17-2.97,2.44-3.96,4.13-1.84,3.14-1.33,6.69,1.32,9.18,1.31,1.23,2.87,2.01,4.56,2.57,2.44.8,4.96,1.2,7.5,1.54,3.68.49,7.34.13,11.01-.01-1.65,8.72-2.13,17.61-3.71,26.34-.67,3.7-1.71,7.31-3.13,10.8-2.76,6.82-7.9,10.4-15.09,11.3-7.86.98-14.93-1.3-21.31-5.63-7.7-5.23-13.5-12.2-17.18-20.8-6.54-15.28-9.03-31.23-7.82-47.79.48-6.63,1.16-13.21,2.63-19.7.09-.39.22-.77.33-1.15,3.72-1.16,7.59-1.59,11.39-2.33,7.54-1.47,15.09-2.85,22.65-4.22,7.48-1.36,14.97-2.64,22.45-4.01,5.45-1,10.87-2.21,16.33-3.11,2.34-.39,4.62-1.16,7.03-1.12Z"/>
  <path class="cls-3" d="m339.53,483.96c-.56,6.92-.8,13.87-1.77,20.76-.71,5.01-2.1,9.8-4.31,14.38-5.43,11.21-16.03,12.43-23.7,10.34-4.23-1.15-8-3.17-11.29-6.06-5.11-4.48-9.12-9.8-12.12-15.89-5.06-10.25-8.26-21.07-9.95-32.35-.74-4.97-1.64-9.92-2.09-14.93-.54-6.02,0-11.96.77-17.91,2.4-.9,4.97-.92,7.45-1.37,4.6-.83,9.21-1.57,13.83-2.29,3.76-.58,7.54-1.03,11.3-1.59,4.55-.67,9.09-1.37,13.63-2.09,4.46-.71,8.91-1.46,13.36-2.21,4.22-.71,8.44-1.39,12.65-2.17.8-.15,1.57-.22,2.36-.13-1.56,4.72-3.45,9.33-4.67,14.17-1.23,4.88-2.08,9.84-2.95,14.79-8.15.28-15.6,2.96-22.71,6.75-1.91,1.02-3.71,2.2-5.29,3.68-2.5,2.35-4.27,5.05-3.35,8.67.94,3.7,3.77,5.35,7.23,6.15,3.45.8,6.95.74,10.47.59,3.75-.16,7.42-.99,11.15-1.29Z"/>
  <path class="cls-5" d="m398.37,518.68c.65,8.96,2.95,17.55,5.64,26.07.32,1.01.69,1.18,1.7.95,4.64-1.07,8.62-3.31,12.06-6.56,1.22-1.15,2.43-2.31,3.67-3.44.53-.49,1.07-.97,1.66-1.37,1.9-1.27,4.07-1.2,5.53.14,1.47,1.36,1.7,3.51.58,5.49-.16.28-.32.56-.53.8-5.23,6.03-10.92,11.46-18.76,13.98-6.33,2.04-12.73,2.14-19.11.3-5.18-1.49-9.25-4.61-12.34-9-.74-1.05-1.42-2.13-1.48-3.48-.1-2.2,1.57-3.63,3.72-3.14,1.42.33,2.62,1.15,3.84,1.91,2.92,1.81,5.86,3.59,9.27,4.37.76.17,1.51.55,2.41.08-2.25-5.83-3.65-11.89-4.5-18.06-.37-2.69-.58-5.39-.85-8.09.04-2.1.09-4.21.13-6.31-.19-2.64.44-5.18.94-7.74.21-1.06.85-1.82,1.5-2.64,1.36-1.71,3.62-1.51,4.69.93.38.86.58,1.79.55,2.78-.06,1.91-.02,3.81-.02,5.72-.76,2.08-.14,4.22-.31,6.33Z"/>
  <path class="cls-8" d="m398.37,518.68c.16-2.11-.45-4.25.31-6.33,7.73-1.03,13.53-5.61,19.28-10.65,1.12,1.8,2.11,3.47,2.8,5.32-2.98,2.54-6.07,4.91-9.46,6.89-4.03,2.35-8.29,4.07-12.93,4.77Z"/>
  <path class="cls-8" d="m391.02,513.3c-.04,2.1-.09,4.21-.13,6.31-3.69.06-7.16-.74-10.38-2.56-.58-.33-1.18-.39-1.81-.4.73-1.57,1.48-3.14,2.19-4.72.34-.76.8-1.19,1.65-.84,2.73,1.12,5.65,1.49,8.48,2.21Z"/>
  <path class="cls-11" d="m327.46,571.29c-1.11.04-2.22.08-3.32.12.77-.33,1.52-.73,2.32-.96.57-.16,1.07.07,1,.84Z"/>
  <path class="cls-9" d="m604.53,239.89c-.56,10.84-.6,20.99-3.4,30.82-.87,3.07-1.86,6.1-3.68,8.79-3.21,4.75-8.02,6.67-13.68,5.73-6.32-1.04-12.44-2.73-18.42-5.01-6.42-2.45-13.2-3.68-19.75-5.74-3.43-1.08-6.79-2.35-10.02-3.91-4.16-2.01-8.51-3.66-12.46-6.11-2.31-1.43-3.94-3.23-3.61-6.22.1-.9.3-1.73.8-2.47,3.51-5.31,5.79-11.2,7.86-17.14,4.74-13.64,8.93-27.46,13.2-41.25,1.27-4.11,2.83-8.14,4.61-12.07,3.06-6.76,5.99-13.59,10.42-19.64,2.98-4.07,6.43-7.58,11.37-9.11,5.19-1.61,10.09-.86,14.55,2.35,3.93,2.83,6.47,6.81,8.74,10.94,4.62,8.4,7.25,17.5,9.13,26.85,1.24,6.17,2.12,12.4,2.77,18.64.33,3.16.4,6.38.74,9.53.58,5.25-.15,10.54.82,15.01Z"/>
  <path class="cls-4" d="m533.01,142.49c4.36-8.91,9.16-17.52,15.67-25.1,4.62-5.38,10.35-8.09,17.42-8.04,2.61.02,5.08.63,7.34,1.9,4.03,2.26,7.27,5.4,9.94,9.15-2.74.18-5.21,1.37-7.74,2.26-7.12,2.5-14.08,5.41-20.94,8.56-6.07,2.79-11.97,5.92-17.7,9.37-1.26.76-2.36,1.94-4.01,1.91Z"/>
  <path class="cls-4" d="m532.74,142.94c-.06-.25.06-.39.28-.47-.09.16-.19.31-.28.47Z"/>
  <path class="cls-4" d="m237.23,280.17c2.14-9.67,4.65-19.24,7.45-28.73,5-16.93,10.73-33.61,17.8-49.79,3.98-9.11,9.18-17.53,15.25-25.41,3.55-4.61,8.01-7.93,13.57-9.82,4.69-1.6,8.96-.87,12.99,1.82.79.53,1.58,1.1,2.27,1.76,4.95,4.7,9.1,10.04,12.72,15.81-2.04,2.14-4.56,3.71-6.8,5.61-4.07,3.45-8.23,6.78-12.23,10.32-4.84,4.28-9.7,8.56-14.1,13.29-4.12,4.43-8.23,8.87-12.2,13.45-5.95,6.87-11.52,14.02-16.89,21.34-5.33,7.26-10.31,14.77-14.92,22.51-1.35,2.26-2.62,4.56-3.92,6.85-.24.42-.45.86-.98.98Z"/>
  <path class="cls-12" d="m529.56,462.05c-3.67.14-7.33.5-11.01.01-2.54-.34-5.06-.74-7.5-1.54-1.68-.55-3.25-1.33-4.56-2.57-2.64-2.49-3.16-6.04-1.32-9.18.99-1.69,2.43-2.96,3.96-4.13,5.86-4.48,12.62-6.79,19.78-8.08,1.49-.27,2.99-.55,4.52-.49-.02,2.4-.69,4.72-1.01,7.08-.69,5.13-1.51,10.24-2.28,15.36-.18,1.18-.39,2.36-.58,3.53Z"/>
  <path class="cls-14" d="m543.56,402c-.03-.17.03-.3.16-.39.13.21.03.32-.16.39Z"/>
  <path class="cls-12" d="m339.53,483.96c-3.73.31-7.4,1.13-11.15,1.29-3.52.15-7.02.21-10.47-.59-3.46-.8-6.29-2.45-7.23-6.15-.92-3.62.85-6.33,3.35-8.67,1.58-1.48,3.38-2.66,5.29-3.68,7.11-3.79,14.56-6.47,22.71-6.75-.58,5.19-1.18,10.37-1.72,15.56-.31,2.99-.51,5.99-.76,8.98Z"/>
</svg>