<?xml version="1.0" encoding="UTF-8"?>
<svg id="_图层_1" data-name="图层 1" xmlns="http://www.w3.org/2000/svg" viewBox="0 0 960 960">
  <defs>
    <style>
      .cls-1 {
        fill: #fb71d5;
      }

      .cls-1, .cls-2, .cls-3, .cls-4, .cls-5, .cls-6, .cls-7, .cls-8, .cls-9, .cls-10, .cls-11, .cls-12, .cls-13, .cls-14 {
        stroke-width: 0px;
      }

      .cls-2 {
        fill: #fdfefe;
      }

      .cls-3 {
        fill: #f3d6aa;
      }

      .cls-4 {
        fill: #bb3a98;
      }

      .cls-5 {
        fill: #040304;
      }

      .cls-6 {
        fill: #fca9e2;
      }

      .cls-7 {
        fill: #b73c96;
      }

      .cls-8 {
        fill: #040303;
      }

      .cls-9 {
        fill: #ba813d;
      }

      .cls-10 {
        fill: #f9f9f9;
      }

      .cls-11 {
        fill: #ba3997;
      }

      .cls-12 {
        fill: #f4d6aa;
      }

      .cls-13 {
        fill: #fdfdfd;
      }

      .cls-14 {
        fill: #fe72d7;
      }
    </style>
  </defs>
  <path class="cls-8" d="m560.64,524.9c2.97,1.92,3.54,4.13,1.79,7.3-.81,1.47-1.73,2.87-2.67,4.27-.55.82-.64,1.34.11,2.23,2.07,2.43,3.99,4.99,5.88,7.57,3.03,4.14,4.38,8.82,4.35,13.94-.02,4.49-1.86,8.04-5.48,10.64-6.53,4.68-13.55,5.31-20.89,2.21-3.79-1.6-7.12-3.97-9.96-6.95-.82-.86-1.34-1.06-2.34-.27-1.88,1.48-3.88,2.81-5.83,4.22-.44.32-1.04.6-.62,1.32,1.98,3.41,1.18,7.04.64,10.55-.77,5.03-2.86,9.63-5.65,13.88-1.41,2.16-3.23,3.96-5.28,5.53-3.59,2.75-7.58,3.67-11.98,2.61-7.22-1.74-12.59-5.7-15.25-12.86-.08-.21-.22-.41-.36-.67-4.27,1.4-8.51,2.78-12.75,4.17-1.37.45-2.73.92-4.11,1.3-.91.25-1.34.62-1.16,1.67.43,2.5-.1,4.92-.85,7.31-1.08,3.44-2.35,6.79-4.14,9.93-4.35,7.62-13.38,11.62-21.9,9.4-6.29-1.64-11.63-4.85-15.1-10.61-1.38-2.28-2.32-4.72-2.43-7.46-.25-.07-.47-.2-.69-.18-3.98.39-7.95.81-11.93,1.17-1.08.1-1.57.47-1.97,1.6-1.86,5.33-4.49,10.24-8.62,14.21-3.68,3.55-8.01,5.88-13.09,6.47-6.59.76-12.08-1.77-16.55-6.48-2.85-3.01-4.6-6.71-5.67-10.7-.43-1.62-.65-3.3-.07-5.13-3.03-.69-6.04-.73-9-1.17-.53-.08-.94.09-1.05.69-.5,2.63-2.16,4.63-3.83,6.55-4.38,5.02-9.75,8.49-16.39,9.66-7,1.23-12.6-1.32-16.74-6.93-4.1-5.57-5.16-11.96-4.16-18.69.19-1.27-.12-1.66-1.18-2.08-3.04-1.2-6.05-2.49-9.04-3.82-.85-.38-1.39-.26-2.13.31-3.55,2.73-7.28,5.21-11.44,6.94-2.9,1.21-5.91,2.09-9.07,1.94-5.97-.29-10.18-3.38-12.88-8.61-1.08-2.08-1.7-4.33-1.9-6.65-.56-6.66-.47-13.27,2.11-19.59.31-.76.26-1.32-.21-1.99-.77-1.11-1.47-2.28-2.16-3.45-.45-.76-.8-1.57-.84-2.47-.1-2.14,1.59-3.24,3.51-2.25,1.45.76,2.44,2.05,3.52,3.22,5.73,6.2,12.13,11.59,19.28,16.09,12.33,7.76,25.62,13.32,39.66,17.14.22.06.46,0,.73,0,.07-.74-.51-1.12-.85-1.59-4.23-5.77-7.02-12.15-8.2-19.22-.21-1.25-.43-2.49-.93-3.67.03-3.34-.35-6.68-.05-10.03.07-.73-.31-1.01-1.02-.91-.4.06-.79.09-1.19.17-6.5,1.25-13.02,1.28-19.55.34-8.79-1.27-16.78-4.52-23.85-9.91-6.98-5.33-12.92-11.68-17.77-18.99-15.06-22.71-19.51-47.88-16.96-74.6.4-4.2,1.13-8.37,1.71-12.55,1.05-3.92,1.79-7.92,3.2-11.74.55-1.49,1.67-3.07,1.46-4.44-.22-1.45-2.36-1.9-3.54-2.94-1.2-1.06-2.42-2.08-3.36-3.38-1.02-1.43-1.65-2.96-.72-4.67.95-1.75,2.53-2.01,4.32-1.67.16.03.32.02.48.04,6.69,3.78,13.67,6.9,21.04,9.14,17.76,5.4,36.07,6.81,54.48,7.46,1.68.06,1.67-.02,1.79-1.96,1.22-19.55,8.85-35.94,23.92-48.7,9.38-7.94,19.98-13.77,31.34-18.27,17.17-6.81,34.97-9.05,53.38-7.75,16.61,1.17,31.86,6.53,46.43,14.11,6.47,3.36,12.24,7.82,17.29,13.16,7.1,7.51,10.66,16.77,13.29,26.5.71,2.61,1.04,5.3,1.53,7.92.98.19,1.72-.18,2.47-.37,7.51-1.92,14.95-4.11,22.28-6.64,12.95-4.46,25.57-9.66,37.37-16.69,5.37-3.2,10.51-6.73,14.87-11.26,2.05-2.13,4.38-3.43,7.4-3.3,4.62,1.7,6.44,5.17,4.83,9.17-.51,1.27-1.3,2.36-2.27,3.3-1.41,1.38-2.87,2.72-4.31,4.07-1.76,1.36-3.49,2.76-5.29,4.07-.8.58-.94,1.15-.52,2.03.89,1.87,1.69,3.79,2.32,5.77,2.95,9.36,4.41,18.95,4.65,28.75.31,12.84-1.81,25.3-5.95,37.42-6.73,19.68-17.83,36.52-33.22,50.49-12.13,11.01-26.02,18.98-41.76,23.63-1.68.5-3.39.92-5.1,1.31-.94.21-1.37.66-1.28,1.65.11,1.19.14,2.39.21,3.58.17,9.05-3.99,16.67-8.1,24.28.44.26.71.08.99-.06,13.96-6.9,26.9-15.24,38.05-26.23,5.07-4.99,9.4-10.59,13.61-16.29,1.23-1.19,1.68-2.83,2.5-4.26,1.7-3,2.97-3.69,6.35-3.31Zm-217.1-56.5c-6.7-.58-12.84,1.11-18.45,4.72-2.38,1.53-4.31,3.57-5.8,5.99-3.04,4.96-1.63,10.27,3.49,13.04,2.51,1.36,5.23,1.91,8.07,2.05,3.3.16,6.53-.34,9.76-.93.02,2.26-.57,4.43-.99,6.62-1.2,6.16-3.1,12.06-6.61,17.35-2.25,3.39-5.08,6.16-8.76,7.98-4.74,2.35-9.53,2.46-14.29.04-3.34-1.7-6.04-4.15-8.28-7.14-1.88-2.5-3.37-5.24-4.72-8.05-5.01-10.43-7.73-21.49-8.58-32.98-.91-12.42.05-24.75,2.7-36.93.36-1.67.37-1.68-1.31-2.04-2.03-.44-4.07-.83-6.09-1.29-9.12-2.1-18.11-4.61-26.82-8.31-.18.45-.37.79-.47,1.16-4.45,15.91-6.63,32.05-5,48.59,1.19,12.03,4.05,23.61,9.29,34.53,6.59,13.72,16.32,24.3,30.48,30.52,8.78,3.86,17.83,5.55,27.35,3.96,8.73-1.46,16.68-4.92,23.86-10.07,12.52-8.98,21.41-20.91,27.98-34.71.45-.94.54-1.75.03-2.71-.82-1.56-1.33-3.25-1.72-4.97-1.35-5.96.14-10.92,5.22-14.57,1.1-.79,2.21-1.61,3.42-2.19,1.21-.58,1.78-1.41,2.04-2.68,2.59-12.36,3.58-24.82,2.45-37.42-.16-1.77-.18-1.81-1.81-1.38-9.77,2.55-19.71,4.09-29.78,4.74-1.06.07-1.55.38-1.73,1.47-1.08,6.7-2.82,13.28-3.84,20-.28,1.87-.27,3.81-1.08,5.59Zm31.67,45.77c-4.01,6.76-8.53,13.13-13.9,18.89-8.74,9.38-18.88,16.72-31.03,21.06-1.35.48-1.59,1.17-1.54,2.46.22,5.31,1.36,10.44,2.75,15.54,2.21,8.08,6.7,14.59,13.29,19.7,1.52,1.18,3.06,2.31,4.56,3.51.71.57,1.47.89,2.37,1.04,8.12,1.38,16.29,2.37,24.51,2.86,21.58,1.29,42.97-.39,64.18-4.34,12.89-2.4,25.54-5.79,37.78-10.56.81-.32,1.75-.57,2.35-1.14,2.21-2.08,4.71-3.86,6.53-6.33,4.44-6.01,8.16-12.41,10.72-19.45,1.02-2.8,1.56-5.7,1.69-8.67.07-1.56.06-1.59-1.53-1.45-5.74.5-11.48.76-17.24.22-17.25-1.62-32.19-8.3-44.72-20.3-5.59-5.35-9.95-11.65-13.86-18.28-.76-1.48-1.51-2.98-2.29-4.45-.88-1.67-.9-1.66-2.28-.23-.17.17-.33.35-.49.53-5.08,5.48-11.04,9.41-18.6,10.5-.71.1-1.19.32-1.3,1.12-.29,2.21-.92,4.37-.78,6.63-.41,1.73-.29,3.48-.27,5.23.06,5.2,1.01,10.3,1.8,15.42.33,2.12.75,4.23,1.08,6.36.19,1.18-.06,2.24-1.23,2.85-.95.5-1.95.17-2.93-.94-.37-.42-.69-.88-.96-1.37-1.62-2.85-3-5.78-3.85-8.97-1.63-6.13-2.26-12.37-2.4-18.68.32-2.21.63-4.42.97-6.62.12-.79.08-1.37-.88-1.62-3.59-.93-6.84-2.6-9.94-4.93-1.04,1.51-1.87,2.93-2.59,4.42Zm149.51-58.49c-7.39-.69-14.06,1.29-20.16,5.41-1.19.81-2.31,1.71-3.25,2.81-4.17,4.87-2.89,11.4,2.81,14.31,1.95.99,4.05,1.46,6.22,1.6,4.42.28,8.76-.21,13.05-1.31.75-.19,1.49-.6,2.32-.31.08,4.4-.11,8.79-.41,13.18-.2,2.87-.66,5.71-1.46,8.49-1.33,4.64-3.85,8.41-8.09,10.88-4.81,2.8-10,3.77-15.47,2.79-6.51-1.17-11.91-4.51-16.61-9.02-6-5.76-10.2-12.66-12.55-20.66-3.67-12.51-4.44-25.29-3.59-38.23.23-3.49.87-6.92,1.62-10.39-1.2-.25-2.22-.03-3.24.06-10.44.99-20.9,1.35-31.38.86-3.51-.17-7.02-.4-10.51-.89-1.02-.14-1.59-.01-1.84,1.19-2.45,11.92-3.22,23.89-1.62,36,.23,1.71.71,2.98,2.2,3.95,1.73,1.12,2.69,2.86,3.38,4.81,1.08,3.08,1.09,6.14-.1,9.14-.58,1.47-.4,2.72.15,4.13,7.48,19.39,28.36,40.99,60.44,42.82,13.3.76,25.89-2.25,37.85-7.91,15.34-7.25,27.88-17.96,38.05-31.47,14.31-19.01,21.95-40.46,23.05-64.19.51-10.97-1.33-21.66-4.73-32.08-.06-.19-.32-.31-.53-.51-9.36,5.65-19.21,10.21-29.34,14.18-8.48,3.33-17.13,6.18-25.88,8.73-1.85.54-1.85.56-1.49,2.44.53,2.76.72,5.54.69,8.35-.06,5.44.02,10.87.31,16.3.08,1.51.32,3.02.1,4.54Zm-134.99,18.52c2.27-.25,4.16-.49,6.06-.67,4.47-.41,8.94-.47,13.42-.14,1.2.09,1.55-.29,1.44-1.47-.2-2.07-.36-4.15-.39-6.22-.14-10.21,1-20.26,3.68-30.12.49-1.8.48-1.84-1.26-2.26-2.57-.62-5.08-1.42-7.44-2.62-1.37-.7-2.61-1.56-3.53-2.82-2.61-3.58-.81-8.23,3.52-9.12.95-.2,1.91-.25,2.86-.09,1.42.25,2.85.44,4.24.8,10.45,2.74,21.11,3.54,31.85,3.49,13.14-.06,26.18-1.33,39.14-3.42,5.05-.82,10.07-1.81,15.1-2.74.94-.17,1.89-.23,1.5-1.75-1.56-6.03-2.83-12.14-4.8-18.06-1.73-5.19-4.54-9.68-8.46-13.47-4.7-4.53-10-8.25-15.9-11.01-7.47-3.49-15.18-6.44-23.2-8.33-11.77-2.77-23.74-3.09-35.76-2.04-18.37,1.6-35.2,7.59-50.67,17.57-15.01,9.7-24.43,23.17-27.74,40.82-.5,2.66-1.07,5.3-1.33,8.02.86.4,1.66.25,2.44.25,8.33-.04,16.61-.76,24.85-1.89,10.24-1.41,20.34-3.4,29.82-7.77.36-.17.74-.29,1.12-.41,3.51-1.07,6.92.25,8.39,3.26,1.52,3.1.39,6.69-2.77,8.75-1.28.84-2.7,1.39-4.11,1.96-1.83.74-1.98.44-1.62,2.75,1.28,8.25,1.47,16.55,1.03,24.87-.24,4.54-.78,9.05-1.51,13.9Zm40.46,130.85c-.07,1.11.41,1.86.82,2.63,2.77,5.14,7.27,8,12.8,9.21,4.69,1.03,10.56-.76,12.98-6.59,1.38-3.32,2.82-6.6,3.88-10.04.15-.47.66-.95.03-1.61-10.03,2.66-20.27,4.66-30.51,6.4Zm-59.24,2.22c1.5,4.52,3.02,8.5,6.27,11.38,5.52,4.89,11.18,5.14,16.72,1.01,4-2.99,6.43-7.15,8.69-11.86-10.62.24-20.94.27-31.68-.52Zm167.5-46.91c2.89,2.03,5.43,3.83,8.31,5.04,4.31,1.81,8.54,1.66,12.63-.72,1.37-.8,2.45-1.91,2.69-3.49.4-2.61.55-5.27-.41-7.8-1.4-3.69-3.82-6.72-6.61-9.72-5.02,6.1-10.42,11.58-16.6,16.69Zm-189.42,44.32c-9.72-1.58-18.89-3.85-28.04-6.89-.09,2.38.27,4.43.63,6.46.48,2.7,1.38,5.26,3.11,7.44,2.53,3.2,5.8,4.78,9.89,3.93,6.4-1.33,10.9-5.26,14.42-10.94Zm-74.84-34.88c-.73,6.06-.79,11.5.57,16.9.16.61.38,1.22.65,1.8,1.76,3.77,4.88,5.36,8.97,4.61,3.93-.73,7.33-2.63,10.6-4.81.5-.33,1.2-.5,1.3-1.35-7.94-4.62-15.32-10.01-22.08-17.14Zm244.3,4.8c-8.54,5.1-16.95,9.45-25.75,13.28,1.5,2.75,3.34,4.96,5.95,6.31,6.22,3.2,9.68,3.28,14.25-3.38,3.19-4.65,4.86-10,5.55-16.21Z"/>
  <path class="cls-14" d="m644.88,351.15c-1.89,1.15-3.58.19-5.12-.68-1.51-.86-2.89-2-4.21-3.15-5.44-4.69-11.09-9.17-16.01-14.43-5.27-5.64-11.53-10.09-17.68-14.66-9.87-7.34-20.1-14.17-30.36-20.95-6.8-4.49-13.89-8.52-21.15-12.24-8.79-4.5-18.06-7.66-27.71-9.76-9.04-1.97-17.93-4.62-27.02-6.38-5.17-1-10.38-1.69-15.62-2.21-6.35-.63-12.7-1.23-19-2.21-1.58-.25-3.18-.31-4.74-.65-1.78-.38-3.62-.75-4.83-2.34,4.75,1.52,9.11.2,13.34-1.9,1.72-.85,3.38-1.81,5.07-2.72,18.15-9.78,34.87-21.67,51.03-34.42,14.44-11.39,28.34-23.43,42.42-35.26,14.57-12.24,29.28-24.3,44.82-35.31,6.66-4.72,13.59-9.02,20.99-12.49,3.56-1.67,7.25-2.96,11.18-3.43,4.92-.59,9.16.78,12.71,4.25,2.14,2.09,3.81,4.52,5.2,7.14,2.07,3.9,3.65,7.99,4.88,12.23,3.56,12.3,4.94,24.91,5.17,37.66.3,17.32-1.4,34.5-4.47,51.53-5.61,31.1-13.62,61.63-22.21,92.01-1.4,4.97-.71,7.38,3.34,10.36Zm.41-118.46c-.04-6.97-.59-12.83-1.37-18.68-.61-4.52-1.35-9.01-3.01-13.26-1.76-4.52-4.5-8.27-9.49-9.77-3.54-1.07-6.93-.52-10.3.74-4.37,1.63-8.32,4.05-12.24,6.52-13.33,8.41-25.37,18.52-37.5,28.5-7.59,6.25-15.42,12.13-23.58,17.59-5,3.35-9.6,7.13-13.78,11.45-1.32,1.36-2.19,2.86-2.61,4.74-.94,4.28.27,6.5,4.48,7.74,2.68.79,5.35,1.55,7.92,2.69,4.89,2.17,9.76,4.4,14.76,6.29,9.12,3.45,17.4,8.31,25.17,14.14,7.01,5.26,13.76,10.9,21.09,15.73,1.66,1.1,3.33,2.24,5.2,2.95,3.51,1.33,6.95,1.43,10.34-.57,3.24-1.91,5.27-4.82,7.04-7.97,3.22-5.73,5.6-11.83,7.7-18.03,3.31-9.75,5.98-19.66,7.94-29.79,1.42-7.31,1.93-14.67,2.22-21.02Z"/>
  <path class="cls-14" d="m248.94,380.01c-5.73,7.75-11.36,15.56-16.12,23.97-.74,1.31-1.62,2.57-2.53,3.77-1.53,2.01-3.44,2.55-5.88,1.8,3.18-1.94,3.87-3.55,2.96-7.19-2.08-8.32-2.35-16.75-1.55-25.24.72-7.67,2.59-15.1,4.75-22.48,5.67-19.38,14.21-37.52,24.53-54.77,17.39-29.05,39.27-54.35,65.19-76.14,11.5-9.67,24.11-17.64,37.56-24.28,8.11-4,16.5-7.33,25.4-9.22,2.98-.63,5.99-1.02,9.05-.75,3.81.35,5.2,1.99,4.99,5.83-.11,2.01-.66,3.93-1.32,5.83-1.81,5.22-4.12,10.22-6.53,15.19-4.11,8.49-8.68,16.74-13.05,25.09-3.94,7.52-7.02,15.41-10.07,23.31-2.06,5.33.43,9.2,6.03,9.92.15.02.3.1.45.16-.22,1.52-1.42,2.25-2.53,2.99-.86.57-1.82,1.01-2.75,1.46-9.48,4.63-18.69,9.72-27.7,15.2-.67.41-1.32.92-2.15,1.01.06-1.06.53-2,.94-2.95.8-1.84,1.45-3.72,1.82-5.69,1.22-6.52-1.83-11.9-8.38-13.4-4.39-1.01-8.57-.13-12.65,1.33-7.11,2.53-13.09,6.92-18.58,11.97-4.17,3.83-7.96,8.05-11.61,12.39-6.38,7.58-11.91,15.78-17.42,23.98-3.91,5.82-7.45,11.88-10.88,18.02-5.9,10.54-10.16,21.64-12.23,33.54-.3,1.74-.65,3.62.28,5.36Z"/>
  <path class="cls-5" d="m644.88,351.15c-4.05-2.98-4.74-5.39-3.34-10.36,8.59-30.38,16.6-60.91,22.21-92.01,3.07-17.02,4.77-34.2,4.47-51.53-.22-12.75-1.6-25.36-5.17-37.66-1.23-4.23-2.81-8.33-4.88-12.23-1.39-2.63-3.06-5.05-5.2-7.14-3.56-3.47-7.8-4.84-12.71-4.25-3.94.47-7.62,1.76-11.18,3.43-7.4,3.48-14.33,7.77-20.99,12.49-15.53,11.01-30.25,23.08-44.82,35.31-14.08,11.82-27.98,23.87-42.42,35.26-16.15,12.74-32.88,24.63-51.03,34.42-1.69.91-3.35,1.87-5.07,2.72-4.23,2.09-8.59,3.42-13.34,1.9-3.83-3.52-2.85-7.71.81-9.99,1.9-1.18,3.78-2.41,5.76-3.44,20.08-10.46,38.45-23.47,56.14-37.51,14.47-11.48,28.43-23.57,42.58-35.43,13.67-11.45,27.5-22.69,42.01-33.08,7.1-5.08,14.42-9.78,22.23-13.7,5.53-2.78,11.24-5.01,17.44-5.76,9.32-1.13,17.38,1.48,24.13,8.04,3.72,3.61,6.47,7.9,8.7,12.54,3.77,7.84,6.02,16.15,7.62,24.67,2.67,14.22,3.26,28.56,2.68,42.99-.89,22.22-4.82,43.98-9.57,65.64-4.59,20.93-10.29,41.58-15.68,62.3-.56,2.16-1.25,4.3-1.98,6.41-1.71,5.02-4.11,6.51-9.42,5.98Z"/>
  <path class="cls-5" d="m372.78,274.81c-.15-.05-.29-.14-.45-.16-5.61-.72-8.09-4.6-6.03-9.92,3.05-7.9,6.13-15.79,10.07-23.31,4.37-8.35,8.95-16.6,13.05-25.09,2.4-4.96,4.72-9.97,6.53-15.19.66-1.89,1.21-3.81,1.32-5.83.21-3.84-1.18-5.49-4.99-5.83-3.05-.28-6.07.11-9.05.75-8.89,1.89-17.28,5.22-25.4,9.22-13.45,6.64-26.06,14.61-37.56,24.28-25.92,21.79-47.8,47.09-65.19,76.14-10.32,17.25-18.87,35.39-24.53,54.77-2.16,7.37-4.03,14.81-4.75,22.48-.8,8.48-.53,16.92,1.55,25.24.91,3.64.22,5.25-2.96,7.19-3.42.39-5.61-1.37-7.17-4.16-2.02-3.63-2.67-7.66-3.28-11.7-2.05-13.54-.28-26.76,3.11-39.88,4.14-16.04,10.75-31.07,18.18-45.8,13.14-26.07,30.56-49.04,50.46-70.25,8.16-8.7,16.83-16.86,26.02-24.45,17.35-14.3,36.38-25.72,57.67-33.17,6.35-2.22,12.84-3.91,19.62-4.2,3.13-.13,6.23.06,9.25.99,7.15,2.18,11.82,7.95,12.46,15.4.37,4.3-.4,8.44-1.78,12.49-2.9,8.5-6.9,16.5-10.99,24.47-1.61,3.13-3.22,6.25-4.94,9.32-5.24,9.36-9.72,19.08-13.44,29.14-1.27,3.43-3.23,5.96-6.8,7.07Z"/>
  <path class="cls-4" d="m248.94,380.01c-.94-1.74-.59-3.62-.28-5.36,2.07-11.9,6.34-23,12.23-33.54,3.43-6.13,6.97-12.2,10.88-18.02,5.51-8.2,11.04-16.39,17.42-23.98,3.65-4.34,7.44-8.56,11.61-12.39,5.49-5.05,11.47-9.44,18.58-11.97,4.08-1.45,8.26-2.34,12.65-1.33,6.54,1.51,9.6,6.88,8.38,13.4-.37,1.96-1.02,3.85-1.82,5.69-.41.94-.88,1.89-.94,2.95-.84.88-1.87,1.5-2.88,2.14-16.29,10.41-31.25,22.46-45.11,35.94-12.12,11.78-23.25,24.42-33.93,37.48-2.38,2.9-4.54,5.98-6.8,8.98Z"/>
  <path class="cls-6" d="m594.94,375.52c-3.02-.13-5.35,1.17-7.4,3.3-4.36,4.53-9.5,8.06-14.87,11.26-11.8,7.02-24.42,12.23-37.37,16.69-7.33,2.53-14.77,4.71-22.28,6.64-.75.19-1.49.56-2.47.37-.49-2.62-.82-5.31-1.53-7.92-2.63-9.74-6.18-18.99-13.29-26.5-5.05-5.34-10.82-9.8-17.29-13.16-14.57-7.57-29.82-12.93-46.43-14.11-18.41-1.3-36.21.94-53.38,7.75-11.36,4.5-21.97,10.34-31.34,18.27-15.07,12.76-22.71,29.15-23.92,48.7-.12,1.94-.11,2.02-1.79,1.96-18.41-.65-36.71-2.07-54.48-7.46-7.37-2.24-14.34-5.36-21.04-9.14,2.26-.24,4.43.15,6.59.81,8.46,2.57,16.96,5.03,25.58,7.02,6.82,1.58,13.57,3.61,20.53,4.38,3.91.44,7.87,1.19,11.89.36,1.92-.4,3.96-.17,5.93-.57,1.77-.36,1.9-.35,1.97-2.03.37-7.99,2.44-15.54,5.68-22.82,3.68-8.25,8.8-15.47,14.95-22.06,5.09-5.45,10.75-10.19,16.88-14.37,6.75-4.6,14.03-8.23,21.65-11.19,8.81-3.41,17.92-5.55,27.28-6.81,7.16-.96,14.34-1.21,21.49-.77,12.8.78,25.21,3.47,37.06,8.55,9.3,3.99,18.13,8.81,25.85,15.33,6.29,5.31,11.75,11.47,16.01,18.63,3.43,5.76,5.6,11.97,7.36,18.38.52,1.9.55,2.03,2.37,1.46,8.59-2.68,17.36-4.78,25.58-8.63,6.6-3.09,12.88-6.68,19.16-10.33,3.04-1.76,6.12-3.45,9.2-5.13,2.6-1.42,4.71-3.62,7.43-4.79,3.22-1.38,6.07-3.56,9.51-4.43,3.39-.86,6.5-.5,8.91,2.38Z"/>
  <path class="cls-7" d="m560.64,524.9c-3.38-.38-4.65.31-6.35,3.31-.81,1.43-1.27,3.07-2.5,4.26-1.07-.45-1.56.52-2.19.98-9.57,6.85-19.98,11.96-31.34,15.11-3.62,1-7.33,1.57-11.02,2.21-.07-1.19-.09-2.39-.21-3.58-.09-.99.34-1.44,1.28-1.65,1.71-.39,3.42-.82,5.1-1.31,15.74-4.65,29.63-12.62,41.76-23.63,15.39-13.97,26.5-30.81,33.22-50.49,4.14-12.12,6.26-24.58,5.95-37.42-.24-9.79-1.7-19.39-4.65-28.75-.63-1.99-1.43-3.9-2.32-5.77-.42-.87-.27-1.44.52-2.03,1.8-1.31,3.53-2.71,5.29-4.07,1.37,7.86,2.91,15.7,3.82,23.63,3.03,26.62-.18,52.26-12.09,76.52-5.62,11.45-13.22,21.45-22.38,30.29-.73.7-1.69,1.25-1.89,2.39Z"/>
  <path class="cls-7" d="m244.23,440.96c-.58,4.18-1.31,8.35-1.71,12.55-2.55,26.72,1.9,51.88,16.96,74.6,4.85,7.31,10.79,13.66,17.77,18.99,7.07,5.4,15.06,8.64,23.85,9.91,6.53.94,13.05.91,19.55-.34.39-.08.79-.11,1.19-.17.7-.1,1.08.19,1.02.91-.3,3.35.08,6.69.05,10.03-2.07.16-4.13.42-6.2.46-7.29.16-14.28-1.39-21.11-3.81-15.45-5.47-27.38-15.48-37.07-28.48-5.39-7.24-8.86-15.31-11.29-23.91-2.89-10.24-5.37-20.57-6.58-31.15-1.33-11.57-1.49-23.13,1.62-34.51.48-1.76.92-3.55,1.97-5.1Z"/>
  <path class="cls-2" d="m524.73,455.68c.22-1.52-.02-3.03-.1-4.54-.29-5.43-.38-10.86-.31-16.3.03-2.81-.16-5.59-.69-8.35-.36-1.88-.36-1.9,1.49-2.44,8.75-2.54,17.4-5.4,25.88-8.73,10.13-3.98,19.98-8.54,29.34-14.18.21.2.47.32.53.51,3.4,10.42,5.24,21.11,4.73,32.08-1.1,23.73-8.74,45.19-23.05,64.19-10.17,13.51-22.71,24.22-38.05,31.47-11.96,5.66-24.54,8.67-37.85,7.91-32.08-1.83-52.95-23.43-60.44-42.82-.55-1.42-.73-2.67-.15-4.13,1.19-3,1.19-6.06.1-9.14-.68-1.95-1.65-3.69-3.38-4.81-1.49-.97-1.97-2.24-2.2-3.95-1.61-12.1-.84-24.08,1.62-36,.25-1.2.82-1.34,1.84-1.19,3.49.49,6.99.73,10.51.89,10.48.5,20.94.13,31.38-.86,1.02-.1,2.04-.31,3.24-.06-.76,3.47-1.4,6.9-1.62,10.39-.84,12.93-.07,25.72,3.59,38.23,2.35,8,6.54,14.9,12.55,20.66,4.7,4.5,10.1,7.85,16.61,9.02,5.47.98,10.66,0,15.47-2.79,4.23-2.46,6.76-6.24,8.09-10.88.8-2.78,1.26-5.61,1.46-8.49.3-4.39.49-8.78.41-13.18-.23-7.51-.2-15.03-.99-22.52Z"/>
  <path class="cls-12" d="m387.64,522.92c.15,6.31.77,12.55,2.4,18.68.85,3.19,2.23,6.13,3.85,8.97.27.48.59.95.96,1.37.98,1.11,1.98,1.44,2.93.94,1.16-.61,1.42-1.67,1.23-2.85-.34-2.12-.75-4.23-1.08-6.36-.79-5.12-1.74-10.22-1.8-15.42-.02-1.75-.15-3.51.27-5.23,2.66-.13,5.12-1.09,7.59-1.96,6.63-2.34,12.65-5.6,16.97-11.38.31-.41.71-.62,1.18-.76,3.91,6.63,8.27,12.93,13.86,18.28,12.53,12,27.47,18.68,44.72,20.3,5.76.54,11.5.28,17.24-.22,1.59-.14,1.6-.12,1.53,1.45-.14,2.97-.67,5.87-1.69,8.67-2.56,7.04-6.28,13.45-10.72,19.45-1.82,2.47-4.32,4.25-6.53,6.33-.61.57-1.54.82-2.35,1.14-12.24,4.78-24.89,8.17-37.78,10.56-21.21,3.94-42.6,5.63-64.18,4.34-8.22-.49-16.39-1.48-24.51-2.86-.9-.15-1.66-.47-2.37-1.04-1.5-1.2-3.05-2.33-4.56-3.51-6.59-5.11-11.08-11.62-13.29-19.7-1.4-5.1-2.54-10.23-2.75-15.54-.05-1.3.18-1.98,1.54-2.46,12.15-4.34,22.29-11.69,31.03-21.06,5.36-5.75,9.89-12.13,13.9-18.88,1.33.4,1.41,1.81,2.17,2.69,2.77,3.17,6.31,4.94,10.26,6.06Z"/>
  <path class="cls-3" d="m389.74,474.2c.72-4.85,1.27-9.36,1.51-13.9.44-8.33.25-16.62-1.03-24.87-.36-2.31-.21-2.01,1.62-2.75,1.41-.57,2.83-1.12,4.11-1.96,3.16-2.06,4.29-5.66,2.77-8.75-1.47-3-4.88-4.33-8.39-3.26-.38.12-.76.24-1.12.41-9.48,4.37-19.58,6.36-29.82,7.77-8.24,1.13-16.52,1.86-24.85,1.89-.78,0-1.59.16-2.44-.25.26-2.72.83-5.36,1.33-8.02,3.31-17.64,12.72-31.12,27.74-40.82,15.46-9.99,32.3-15.97,50.67-17.57,12.02-1.05,23.99-.73,35.76,2.04,8.02,1.89,15.73,4.84,23.2,8.33,5.9,2.76,11.2,6.48,15.9,11.01,3.92,3.79,6.73,8.27,8.46,13.47,1.97,5.93,3.24,12.03,4.8,18.06.39,1.52-.56,1.58-1.5,1.75-5.03.93-10.05,1.92-15.1,2.74-12.96,2.1-26,3.36-39.14,3.42-10.75.05-21.41-.74-31.85-3.49-1.39-.36-2.82-.55-4.24-.8-.96-.17-1.91-.11-2.86.09-4.33.9-6.13,5.54-3.52,9.12.92,1.26,2.16,2.12,3.53,2.82,2.36,1.2,4.87,2.01,7.44,2.62,1.74.42,1.75.46,1.26,2.26-2.68,9.87-3.82,19.92-3.68,30.12.03,2.08.19,4.15.39,6.22.11,1.18-.24,1.56-1.44,1.47-4.47-.33-8.95-.26-13.42.14-1.89.17-3.78.41-6.06.67Z"/>
  <path class="cls-13" d="m343.54,468.4c.81-1.77.79-3.72,1.08-5.59,1.02-6.72,2.76-13.3,3.84-20,.18-1.09.67-1.4,1.73-1.47,10.07-.65,20.01-2.2,29.78-4.74,1.63-.43,1.65-.39,1.81,1.38,1.13,12.6.14,25.06-2.45,37.42-.27,1.28-.84,2.1-2.04,2.68-1.21.58-2.32,1.4-3.42,2.19-5.07,3.65-6.57,8.61-5.22,14.57.39,1.72.9,3.41,1.72,4.97.5.96.41,1.77-.03,2.71-6.57,13.8-15.46,25.72-27.98,34.71-7.18,5.15-15.13,8.61-23.86,10.07-9.51,1.59-18.56-.1-27.35-3.96-14.16-6.22-23.9-16.8-30.48-30.52-5.24-10.92-8.1-22.49-9.29-34.53-1.63-16.55.56-32.68,5-48.59.1-.37.29-.72.47-1.16,8.71,3.69,17.7,6.21,26.82,8.31,2.02.47,4.07.85,6.09,1.29,1.68.36,1.68.37,1.31,2.04-2.65,12.18-3.61,24.51-2.7,36.93.84,11.49,3.56,22.54,8.58,32.98,1.35,2.81,2.84,5.55,4.72,8.05,2.24,2.98,4.94,5.44,8.28,7.14,4.76,2.42,9.55,2.3,14.29-.04,3.67-1.82,6.5-4.59,8.76-7.98,3.51-5.29,5.41-11.19,6.61-17.35.43-2.19,1.01-4.36.99-6.62.15-.78.35-1.56.45-2.34.48-3.79,1.05-7.57,1.36-11.37.31-3.73,1.23-7.39,1.12-11.15Z"/>
  <path class="cls-10" d="m507.24,550.76c3.69-.65,7.4-1.21,11.02-2.21,11.36-3.14,21.76-8.25,31.34-15.11.64-.46,1.13-1.42,2.19-.98-4.21,5.7-8.55,11.29-13.61,16.29-11.15,10.98-24.09,19.33-38.05,26.23-.28.14-.56.32-.99.06,4.11-7.61,8.27-15.24,8.1-24.28Z"/>
  <path class="cls-1" d="m524.73,455.68c.79,7.49.76,15.01.99,22.52-.83-.3-1.57.12-2.32.31-4.29,1.1-8.63,1.59-13.05,1.31-2.17-.14-4.27-.61-6.22-1.6-5.7-2.91-6.98-9.44-2.81-14.31.94-1.1,2.06-2,3.25-2.81,6.09-4.13,12.77-6.1,20.16-5.41Z"/>
  <path class="cls-1" d="m343.54,468.4c.12,3.77-.81,7.43-1.12,11.15-.31,3.8-.88,7.58-1.36,11.37-.1.79-.3,1.56-.45,2.34-3.23.59-6.46,1.09-9.76.93-2.83-.14-5.56-.69-8.07-2.05-5.12-2.77-6.54-8.08-3.49-13.04,1.49-2.42,3.42-4.45,5.8-5.99,5.61-3.61,11.75-5.3,18.45-4.72Z"/>
  <path class="cls-10" d="m430.2,605.04c10.24-1.73,20.47-3.73,30.51-6.4.63.66.12,1.14-.03,1.61-1.06,3.44-2.51,6.72-3.88,10.04-2.42,5.83-8.28,7.61-12.98,6.59-5.52-1.21-10.03-4.07-12.8-9.21-.41-.77-.89-1.52-.82-2.63Z"/>
  <path class="cls-10" d="m370.96,607.26c10.74.79,21.06.77,31.68.52-2.26,4.71-4.69,8.87-8.69,11.86-5.54,4.13-11.2,3.88-16.72-1.01-3.25-2.88-4.77-6.85-6.27-11.38Z"/>
  <path class="cls-10" d="m538.46,560.34c6.18-5.11,11.58-10.6,16.6-16.69,2.79,3.01,5.21,6.03,6.61,9.72.96,2.53.81,5.19.41,7.8-.24,1.58-1.32,2.69-2.69,3.49-4.09,2.38-8.32,2.54-12.63.72-2.88-1.21-5.42-3.01-8.31-5.04Z"/>
  <path class="cls-10" d="m349.04,604.67c-3.52,5.68-8.02,9.61-14.42,10.94-4.09.85-7.36-.74-9.89-3.93-1.72-2.18-2.63-4.74-3.11-7.44-.36-2.03-.72-4.08-.63-6.46,9.15,3.05,18.33,5.32,28.04,6.89Z"/>
  <path class="cls-10" d="m274.2,569.79c6.76,7.13,14.14,12.53,22.08,17.14-.09.85-.8,1.02-1.3,1.35-3.27,2.18-6.66,4.08-10.6,4.81-4.09.76-7.21-.84-8.97-4.61-.27-.58-.49-1.18-.65-1.8-1.37-5.4-1.3-10.84-.57-16.9Z"/>
  <path class="cls-10" d="m518.49,574.59c-.69,6.21-2.35,11.56-5.55,16.21-4.57,6.66-8.03,6.58-14.25,3.38-2.61-1.35-4.46-3.56-5.95-6.31,8.81-3.83,17.21-8.18,25.75-13.28Z"/>
  <path class="cls-9" d="m422.14,508.92c-.47.13-.87.35-1.18.76-4.32,5.78-10.34,9.04-16.97,11.38-2.47.87-4.92,1.83-7.59,1.96-.14-2.26.49-4.42.78-6.63.11-.8.59-1.01,1.3-1.12,7.55-1.09,13.52-5.02,18.6-10.5.16-.18.32-.35.49-.53,1.38-1.43,1.4-1.44,2.28.23.78,1.47,1.53,2.97,2.29,4.45Z"/>
  <path class="cls-9" d="m387.64,522.92c-3.95-1.12-7.49-2.89-10.26-6.06-.76-.87-.84-2.29-2.17-2.69.72-1.49,1.55-2.92,2.59-4.43,3.1,2.34,6.35,4,9.94,4.93.96.25,1,.83.88,1.62-.34,2.2-.65,4.41-.97,6.62Z"/>
  <path class="cls-11" d="m645.3,232.69c-.28,6.35-.8,13.71-2.22,21.02-1.96,10.12-4.63,20.04-7.94,29.79-2.1,6.2-4.48,12.3-7.7,18.03-1.77,3.15-3.8,6.06-7.04,7.97-3.39,2-6.83,1.9-10.34.57-1.88-.71-3.54-1.85-5.2-2.95-7.33-4.83-14.08-10.47-21.09-15.73-7.77-5.83-16.05-10.69-25.17-14.14-5-1.89-9.87-4.12-14.76-6.29-2.57-1.14-5.24-1.9-7.92-2.69-4.21-1.24-5.43-3.47-4.48-7.74.41-1.87,1.29-3.37,2.61-4.74,4.18-4.32,8.78-8.1,13.78-11.45,8.15-5.46,15.99-11.34,23.58-17.59,12.12-9.98,24.17-20.1,37.5-28.5,3.92-2.47,7.87-4.89,12.24-6.52,3.37-1.26,6.76-1.8,10.3-.74,4.99,1.5,7.73,5.24,9.49,9.77,1.65,4.24,2.4,8.74,3.01,13.26.79,5.85,1.33,11.71,1.37,18.68Z"/>
</svg>