<?xml version="1.0" encoding="UTF-8"?>
<svg id="_图层_1" data-name="图层 1" xmlns="http://www.w3.org/2000/svg" viewBox="0 0 960 960">
  <defs>
    <style>
      .cls-1 {
        fill: #b9813e;
      }

      .cls-1, .cls-2, .cls-3, .cls-4, .cls-5, .cls-6, .cls-7, .cls-8, .cls-9, .cls-10, .cls-11, .cls-12, .cls-13, .cls-14 {
        stroke-width: 0px;
      }

      .cls-2 {
        fill: #fba9e1;
      }

      .cls-3 {
        fill: #bb3a98;
      }

      .cls-4 {
        fill: #010101;
      }

      .cls-5 {
        fill: #fdabe6;
      }

      .cls-6 {
        fill: #040304;
      }

      .cls-7 {
        fill: #f3d5aa;
      }

      .cls-8 {
        fill: #fe72d8;
      }

      .cls-9 {
        fill: #ba3997;
      }

      .cls-10 {
        fill: #f4d6aa;
      }

      .cls-11 {
        fill: #fdfdfd;
      }

      .cls-12 {
        fill: #fe72d7;
      }

      .cls-13 {
        fill: #b83b97;
      }

      .cls-14 {
        fill: #120f0f;
      }
    </style>
  </defs>
  <path class="cls-14" d="m507.15,550.64c-1.16,5.32-2.66,10.52-4.97,15.48-4.19,8.98-10.33,16.49-17.45,23.26-13.57,12.9-29.72,21.15-47.62,26.16-14.39,4.03-29.05,5.4-43.93,3.8-12.84-1.37-25.1-4.75-36.44-11.09-11.75-6.58-20.91-15.66-26.66-27.97-.1-.21-.28-.38-.43-.57-.71-2.86-1.87-5.59-2.41-8.49-.13-.71-.53-.94-1.2-.73-.53.17-1.05.39-1.57.59-5.65,2.11-11.47,3.47-17.51,3.68-12.54.44-23.99-3.06-34.5-9.78-9.15-5.85-16.53-13.53-22.84-22.31-.49-.68-.69-1.65-1.68-1.91-.51-1.42-1.36-2.65-2.15-3.92-8.5-13.73-13.9-28.68-17.45-44.36-3.08-13.64-4.21-27.44-3.41-41.4.09-1.51.29-3.02.45-4.53.24-2.18.9-4.21,2.24-5.98,2.75-2.22,6.02-3.23,9.39-3.96,3.83-.82,7.64-1.72,11.49-2.4,14.87-2.61,29.76-5.1,44.63-7.73,10.23-1.81,20.42-3.79,30.64-5.63,1.16-.21,1.64-.58,1.59-1.81-.08-2.16.23-4.3.61-6.43,1.51-8.45,5.27-15.87,10.5-22.59,7.13-9.15,16.04-16.22,26.02-21.99,14.62-8.46,30.32-13.78,47.09-16.01,13.26-1.77,26.45-1.72,39.57,1.09,10.86,2.33,20.84,6.64,29.46,13.75,8.66,7.15,14.15,16.16,15.56,27.45.19,1.51.21,1.52,1.83,1.23,2.6-.46,5.19-.94,7.78-1.42,27.58-5.08,55.16-10.13,82.72-15.28,3.7-.69,6.81-.3,9.11,2.97.03.05.15.04.23.06,0,0-.08.06-.08.06,1.14,5.14,2.03,10.33,2.47,15.58.55,6.62.53,13.23.11,19.87-.56,8.79-1.78,17.47-3.78,26.04-5.04,21.56-14.45,41.07-27.75,58.7-10.79,14.3-23.89,25.92-40.11,33.82-5.54,2.7-11.2,5.08-17.15,6.73-1.36.38-2,1.04-2.02,2.49-.03,1.83-.26,3.65-.4,5.48Zm-231.36-108.76c-12.68,2.15-25.31,4.64-38.15,5.77-1.28.11-1.61.55-1.49,1.79.35,3.42.53,6.85.86,10.27,1.26,13.06,3.13,26.03,6.73,38.68,3.78,13.32,9.21,25.89,17.36,37.17,5.05,6.99,10.99,13.09,18.25,17.83,10.67,6.95,22.25,9.37,34.81,7.08,10.11-1.85,18.9-6.46,26.43-13.3,12.91-11.72,22.49-25.88,29.59-41.76.43-.97.33-1.61-.44-2.31-.65-.59-1.22-1.27-1.74-1.98-3.68-4.96-3.44-11.22.6-15.89,1.92-2.22,4.28-3.83,6.97-4.95,1.03-.43,2.09-.82,3.16-1.11,1.06-.29,1.62-.9,1.76-1.99.07-.55.27-1.08.4-1.63,3.75-16.27,5.54-32.76,5.32-49.46,0-.63.13-1.28-.27-1.94-1.25-.19-2.48.26-3.72.46-9.93,1.64-19.86,3.3-29.79,4.99-.98.17-2.13.09-2.67,1.25-1.73-1.09-3.43-.04-5.08.2-5.24.75-10.44,1.83-15.68,2.63-5.55.86-11.08,1.84-16.66,2.54-5.02.63-10.01,1.47-15,2.31-3.82.65-7.68,1.02-11.48,1.79-3.33.68-6.72,1.06-10.08,1.58Zm144.48,64.63c-.68-1.67-1.51-3.25-2.5-4.69-.23.06-.32.06-.38.11-5.22,4.78-10.91,8.75-17.9,10.53-.66.17-.88.63-.87,1.24.02,1.66-.26,3.33.09,4.99-.29,1.11-.14,2.24-.02,3.34.45,4.29.96,8.57,1.46,12.85.68,5.79.96,11.62,1.88,17.38.16,1.03.5,1.68,1.51,2.18,4.51,2.24,8.71,5.02,12.93,7.74,1.29.83,2.35,1.9,3.25,3.14.83,1.15,1.42,2.36.69,3.77-.77,1.49-2.14,1.8-3.66,1.73-2.04-.09-3.93-.7-5.66-1.75-2.73-1.65-5.43-3.36-8.16-5.01-2.16-1.31-1.7-1.66-3.97.46-2.22,2.07-4.25,4.33-6.07,6.77-1.03,1.38-2.32,2.42-4.03,2.84-2.27.55-3.95-.68-4.16-3.03-.13-1.41.24-2.7,1.02-3.86,2.43-3.67,5-7.25,8.42-10.07,1.15-.94,1.3-1.85,1.02-3.11-.74-3.35-1.41-6.72-1.8-10.13-.88-7.77-1.57-15.56-1.99-23.38.1-1.91.1-3.83.35-5.72.15-1.16-.2-1.64-1.29-1.76-2.79-.31-5.49-1.01-8.12-1.96-.71-.26-1.25-.18-1.55.58-.86,2.14-2.2,4.07-2.81,6.32-1.19,1.43-1.8,3.19-2.64,4.81-9.38,18.18-22.38,32.99-40.23,43.29-1.48.85-1.46.88-.79,2.62,3.45,9,8.87,16.58,16.29,22.74,10.07,8.37,21.72,13.37,34.46,15.89,16.93,3.35,33.72,2.37,50.32-2.13,15.91-4.31,30.26-11.66,42.41-22.88,10.52-9.71,17.88-21.41,20.9-35.6.09-.44.38-.91-.17-1.49-.98.11-2.08.2-3.17.35-28.89,3.78-56.97-9.59-72.23-34.4-.96-1.56-1.9-3.14-2.85-4.71Zm41.94-90.98c-3.93.7-7.87,1.4-11.8,2.09-11.09,1.96-22.1,4.46-33.34,5.53-1.41.13-1.86.75-2.12,2.03-1.1,5.42-1.79,10.88-1.87,16.41-.09,7.05.6,14.05,1.19,21.06.32,3.82.92,7.61,1.57,11.4.26,1.48.86,2.25,2.32,2.56,1.17.25,2.24.83,3.27,1.47,3.96,2.48,5.48,6.51,4.13,10.97-.44,1.46-1.03,2.87-1.82,4.16-.57.94-.49,1.71-.04,2.68,3.25,6.92,7.43,13.23,12.56,18.9,14.94,16.51,33.66,22.8,55.52,20.34,12.11-1.37,23.3-5.55,33.57-12.04,28.29-17.87,47.58-42.74,57.56-74.71,5.49-17.6,7.16-35.51,3.91-53.76-.37-2.06-.37-2.09-2.36-1.72-7.47,1.36-14.94,2.73-22.4,4.12-4.55.85-9.1,1.75-13.65,2.62-.24,0-.48-.02-.72.03-7.55,1.42-15.09,2.86-22.64,4.28-5.83,1.1-11.67,2.19-17.51,3.28-3.5.66-7,1.33-10.51,1.97-6,1.09-12,2.15-18,3.24-5.61,1.02-11.22,2.06-16.83,3.09Zm-56.47,59.79c.04-.46.13-.71.08-.93-2.21-8.49-2.56-17.22-3.22-25.9-.76-10.06.68-19.94,2.62-29.77.2-1.02.42-2.05.79-3.01.84-2.18,2.38-3.58,4.79-3.8,1.36-.12,2.67-.48,3.99-.81,4.11-1.02,8.2-2.12,12.37-2.89,18.16-3.35,36.32-6.69,54.48-10.04,2.16-.4,2.17-.41,1.98-2.61-.55-6.25-2.97-11.73-6.92-16.56-4.28-5.24-9.63-9.1-15.71-11.95-10.58-4.97-21.8-7.23-33.42-7.67-12.59-.48-24.86,1.39-36.9,4.97-14.91,4.44-28.47,11.35-40.06,21.86-6.28,5.7-11.49,12.23-15.16,19.91-1.77,3.7-3.05,7.56-3.57,11.64-.2,1.58-.14,1.63,1.47,1.42.32-.04.63-.12.94-.18,17.02-2.88,34.05-5.76,51.07-8.64,1.58-.27,3.18-.39,4.78-.14,3.63.57,6.2,3.44,5.62,6.82-.44,2.51-.14,4.93-.03,7.39.76,16.86-.47,33.55-3.95,50.07-.12.59-.4,1.18-.09,1.97,4.71-.58,9.36-1.14,14.05-1.16Z"/>
  <path class="cls-12" d="m632.66,337.55c-2.23.28-4.04-.69-5.69-2.01-4.11-3.29-8.17-6.64-12.27-9.94-7.55-6.05-15.62-11.34-23.93-16.27-9.14-5.43-18.6-10.25-28.18-14.83-9.95-4.75-20.14-8.9-30.5-12.66-10.96-3.97-22.07-7.44-33.45-9.99-8.48-1.9-17.01-3.49-25.64-4.56-5.64-.7-11.31-.65-16.98-.59-1.51.01-3.02.06-4.37-.8,2.5.16,4.46-.96,6.18-2.65,1.89-1.85,3.61-3.85,5.23-5.93,7.03-9.01,13.63-18.34,19.83-27.94,15.88-24.58,30.39-49.96,43.92-75.89,1.84-3.53,3.55-7.14,5.71-10.49,1.01-.13,1.7-.85,2.49-1.36,4.62-2.99,9.5-5.56,14.42-7.98,7.5-3.68,15.14-7.1,23.03-9.91,3.52-1.25,6.98-2.69,10.68-3.39,1.96,1.79,3.47,3.95,5.03,6.07,10.66,14.45,18.96,30.15,24.84,47.11,2.04,5.89,3.96,11.82,5.9,17.74,4.42,13.5,7.14,27.36,8.74,41.45.9,7.95,1.2,15.94,1.66,23.92.57,9.98.88,19.96.38,29.96-.56,11.18-.91,22.36-1.11,33.55-.06,3.2.03,6.4.42,9.58.37,2.99,1.22,5.78,3.67,7.81Zm-28.62-97.2c-.18-3.9-.06-7.8-.33-11.72-.4-5.8-.93-11.58-1.51-17.37-.48-4.85-1.31-9.63-2.22-14.39-1.43-7.45-3.4-14.76-6.54-21.71-2.54-5.63-5.49-10.98-10.1-15.27-4.64-4.31-12.2-5.2-17.44-2.7-4.47,2.13-7.73,5.55-10.5,9.54-4.63,6.68-7.69,14.15-10.87,21.56-3.76,8.75-6,18.01-8.99,27.01-3.35,10.06-6.01,20.37-10.27,30.11-1.49,3.42-2.7,6.99-4.99,10.05-1.12,1.48-1.46,3.27-.79,5.23.75,2.19,2.44,3.29,4.27,4.29,3.23,1.75,6.65,3.14,9.92,4.8,5.3,2.7,10.88,4.56,16.6,6.09,6.47,1.73,12.9,3.59,19.2,5.91,4.94,1.82,10.07,3.04,15.32,3.6,3.16.34,6.18-.17,8.87-2.11,2.64-1.9,4.3-4.47,5.48-7.39,2.65-6.57,3.74-13.5,4.36-20.49.44-5,.76-10.03.53-15.07Z"/>
  <path class="cls-8" d="m256.66,369.43c-1.59,2-3.47,3.72-5.35,5.43-6.66,6.07-12.93,12.5-18.73,19.39-1.02,1.22-1.93,2.53-2.8,3.86-.95,1.45-1.89,2.97-3.76,3.44.13-1.51.11-3.02-.04-4.54-.37-3.74-.46-7.49-.54-11.24-.26-13.58-.07-27.15,1.03-40.7,1.4-17.2,3.12-34.36,7.16-51.19,1.1-4.57,1.99-9.2,3.39-13.69.61-.31.85-.91,1.18-1.46,2.44-4.11,4.8-8.27,7.36-12.29,7.36-11.55,15.31-22.68,24.12-33.19,4.86-5.8,9.79-11.52,15.09-16.92,2.52-2.57,5.07-5.09,7.62-7.62,1.36-1.35,2.67-2.75,4.11-4.02,2.93-2.57,5.96-5.02,8.89-7.58,4.43-3.87,8.98-7.59,13.77-11.01,2.05,2.57,3.57,5.47,5.11,8.34,7.63,14.13,14.19,28.77,20.16,43.68,3.14,7.85,6.2,15.74,9.63,23.48,1.11,2.5,2.45,4.84,4.31,6.86,1.24,1.35,2.68,2.25,4.58,2.22-.31,1.15-.08,2.37-.61,3.5-.51,1.1-1.12,2.11-2.11,2.84-5.62,4.13-11.26,8.24-16.9,12.35-.31.23-.7.35-1.05.53-.35-3.17-.8-6.32-1.7-9.38-1.61-5.47-3.6-10.73-7.9-14.8-4.88-4.62-12.61-5.14-18.02-1.09-2.96,2.21-5.49,4.84-7.78,7.73-5.97,7.53-10.39,15.94-13.1,25.1-2.44,8.23-4.89,16.49-6.1,25.04-.15,1.06-.33,2.16-1.25,3.02-1.75,1.63-3.31,3.45-4.87,5.26-4.38,5.06-8.92,9.99-12.88,15.39-4.29,5.85-8.5,11.77-11.16,18.62-.59,1.51-1.04,3.01-.87,4.65Z"/>
  <path class="cls-6" d="m632.66,337.55c-2.44-2.03-3.3-4.82-3.67-7.81-.39-3.18-.48-6.37-.42-9.58.2-11.19.55-22.38,1.11-33.55.5-10,.18-19.98-.38-29.96-.45-7.98-.75-15.97-1.66-23.92-1.6-14.09-4.32-27.95-8.74-41.45-1.94-5.92-3.86-11.86-5.9-17.74-5.87-16.97-14.18-32.67-24.84-47.11-1.56-2.11-3.07-4.28-5.03-6.07-2.56-3.53-5.62-6.53-9.36-8.79-2.51-1.52-5.27-2.24-8.22-2.21-6.69.05-12.23,2.5-16.68,7.56-6.88,7.81-11.84,16.81-16.36,26.08-2.17,3.35-3.87,6.96-5.71,10.49-13.54,25.94-28.05,51.31-43.92,75.89-6.2,9.6-12.8,18.93-19.83,27.94-1.62,2.08-3.34,4.08-5.23,5.93-1.72,1.69-3.67,2.81-6.18,2.65-4.12-1.81-4.97-4.7-2.45-8.39,21.57-31.55,41.64-64.03,59.81-97.66,5.28-9.77,10.29-19.68,15.45-29.51,3.68-7.01,7.61-13.88,12.73-19.97,1.44-1.72,2.95-3.37,4.58-4.9,8.86-8.3,19.36-10.71,31.07-8.55,4.84.89,8.92,3.4,12.67,6.48,3.35,2.76,6.25,5.95,8.99,9.29,10.37,12.61,18.54,26.57,25.31,41.4,4.33,9.48,7.35,19.42,10.7,29.24,4.97,14.58,8.25,29.53,10.19,44.8.87,6.9,1.18,13.85,1.66,20.79,1.28,18.29,1.03,36.58.11,54.87-.3,5.98-.32,11.98-.44,17.98-.05,2.64-.27,5.27-.61,7.88-.29,2.26-1,4.34-2.57,6.08-1.71,1.89-3.65,2.82-6.19,1.82Z"/>
  <path class="cls-6" d="m362.96,270.69c-1.9.03-3.34-.87-4.58-2.22-1.85-2.03-3.2-4.37-4.31-6.86-3.43-7.74-6.49-15.63-9.63-23.48-5.96-14.91-12.52-29.54-20.16-43.68-1.55-2.87-3.07-5.77-5.11-8.34-3.87-6.29-8.25-12.18-13.92-16.95-4.44-3.73-9.49-4.57-15.04-2.45-5.33,2.03-9.57,5.38-12.98,9.87-7.36,9.66-13.27,20.14-17.72,31.42-7.55,19.11-14.19,38.52-19.16,58.48-1.14,4.57-2.49,9.08-3.31,13.73-1.41,4.49-2.3,9.12-3.39,13.69-4.04,16.83-5.76,33.98-7.16,51.19-1.1,13.55-1.29,27.12-1.03,40.7.07,3.75.17,7.51.54,11.24.15,1.51.17,3.02.04,4.54-.18.26-.35.53-.55.78-1.91,2.4-4.76,2.44-6.71.05-1.03-1.26-1.54-2.78-1.97-4.33-1.61-5.74-1.89-11.66-2.28-17.56-.95-14.4-.08-28.76,1.09-43.1.87-10.67,1.97-21.33,3.88-31.88,2.68-14.79,6.56-29.3,10.32-43.84,5.07-19.6,11.72-38.67,19.19-57.46,4.33-10.89,10.01-21.06,16.69-30.67,1.69-2.43,3.5-4.76,5.5-6.95,5.4-5.9,12.07-9.68,19.78-11.56,6.83-1.66,13.33-.56,19.42,2.94,3.64,2.1,6.72,4.87,9.52,7.96,7.93,8.76,14.63,18.35,19.89,28.95,7.04,14.19,13.19,28.75,18.55,43.65,2,5.56,4.04,11.11,6.01,16.68,1.26,3.57,2.02,7.23,1.66,11.05-.19,2.05-.87,3.74-3.05,4.4Z"/>
  <path class="cls-3" d="m256.66,369.43c-.17-1.64.29-3.14.87-4.65,2.66-6.85,6.86-12.77,11.16-18.62,3.96-5.4,8.49-10.34,12.88-15.39,1.57-1.81,3.13-3.63,4.87-5.26.92-.86,1.1-1.97,1.25-3.02,1.22-8.55,3.67-16.81,6.1-25.04,2.71-9.15,7.13-17.56,13.1-25.1,2.29-2.89,4.82-5.52,7.78-7.73,5.41-4.05,13.14-3.53,18.02,1.09,4.3,4.07,6.29,9.33,7.9,14.8.9,3.06,1.36,6.21,1.7,9.38-2.4,2.35-5.25,4.16-7.89,6.22-10.59,8.29-20.47,17.37-30.11,26.72-15.55,15.08-31.03,30.23-46.36,45.53-.39.39-.85.72-1.27,1.07Z"/>
  <path class="cls-2" d="m595.88,381.88c-.08-.02-.19-.01-.23-.06-2.3-3.27-5.41-3.66-9.11-2.97-27.56,5.14-55.14,10.2-82.72,15.28-2.59.48-5.18.96-7.78,1.42-1.62.29-1.64.27-1.83-1.23-1.41-11.29-6.9-20.3-15.56-27.45-8.62-7.12-18.59-11.42-29.46-13.75-13.12-2.82-26.31-2.86-39.57-1.09-16.77,2.23-32.46,7.55-47.09,16.01-9.98,5.77-18.89,12.84-26.02,21.99-5.23,6.72-8.99,14.14-10.5,22.59-.38,2.12-.7,4.27-.61,6.43.05,1.24-.43,1.6-1.59,1.81-10.22,1.84-20.41,3.82-30.64,5.63-14.87,2.63-29.76,5.12-44.63,7.73-3.85.68-7.67,1.58-11.49,2.4-3.38.73-6.64,1.73-9.39,3.96-1.49-1.41-1.51-2.22-.08-3.44.95-.81,2.13-1.12,3.27-1.41,13.89-3.51,27.82-6.85,41.85-9.76,10.28-2.13,20.51-4.52,30.77-6.79,4.04-.89,8.07-1.81,12.13-2.59,1.56-.3,2.28-.96,2.62-2.56,2.09-9.92,7.09-18.44,13.43-26.13,8.15-9.88,18.11-17.67,29.2-24.05,9.04-5.21,18.59-9.2,28.57-12.16,6.03-1.79,12.17-3.13,18.43-3.91,5.45-.68,10.91-1.42,16.4-1.31,13.23.26,26.14,2.36,38.5,7.31,10.5,4.21,19.44,10.62,26.86,19.11,4.07,4.66,7.19,9.95,9.28,15.8.61,1.69.61,1.73,2.53,1.38,4.54-.83,9.06-1.71,13.6-2.55,6.8-1.25,13.61-2.47,20.41-3.73,5.16-.96,10.31-1.97,15.47-2.95,7.34-1.4,14.69-2.78,22.02-4.2,5.7-1.1,11.43-2.11,17.05-3.56.87-.23,1.73-.31,2.6-.26,3.97.21,6.03,3.91,4.1,7.38-.31.55-.82,1-.81,1.69Z"/>
  <path class="cls-13" d="m507.15,550.64c.14-1.83.38-3.65.4-5.48.02-1.45.66-2.11,2.02-2.49,5.94-1.65,11.61-4.04,17.15-6.73,16.22-7.9,29.32-19.52,40.11-33.82,13.31-17.63,22.72-37.14,27.75-58.7,2-8.57,3.22-17.25,3.78-26.04.42-6.63.44-13.25-.11-19.87-.44-5.26-1.33-10.44-2.47-15.58,1.85.16,2.74,1.49,3.45,2.95.92,1.88,1.4,3.91,1.88,5.93,1.58,6.62,2.49,13.34,2.88,20.13,1.22,21.62-3.19,42.25-10.99,62.27-5.92,15.22-13.79,29.34-24.14,42.01-9.86,12.08-21.28,22.32-35.43,29.18-8.28,4.02-16.97,6.57-26.31,6.24Z"/>
  <path class="cls-13" d="m247.97,540.76c.99.25,1.19,1.23,1.68,1.91,6.3,8.78,13.68,16.46,22.84,22.31,10.51,6.72,21.96,10.22,34.5,9.78,6.04-.21,11.86-1.57,17.51-3.68.52-.2,1.04-.41,1.57-.59.66-.22,1.07.02,1.2.73.54,2.91,1.7,5.63,2.41,8.49-1.17,1.49-2.85,1.96-4.6,2.24-5.5.88-11.03.68-16.48-.22-19.58-3.23-36.51-11.84-50.78-25.6-4.11-3.96-7.48-8.54-9.48-13.98-.16-.44-.24-.92-.36-1.38Z"/>
  <path class="cls-11" d="m548.4,399.66c4.55-.88,9.09-1.77,13.65-2.62,7.46-1.39,14.93-2.76,22.4-4.12,1.99-.36,2-.34,2.36,1.72,3.25,18.25,1.59,36.16-3.91,53.76-9.98,31.98-29.27,56.84-57.56,74.71-10.27,6.49-21.46,10.67-33.57,12.04-21.86,2.46-40.58-3.83-55.52-20.34-5.13-5.67-9.31-11.98-12.56-18.9-.45-.96-.53-1.74.04-2.68.79-1.3,1.38-2.7,1.82-4.16,1.35-4.46-.17-8.49-4.13-10.97-1.02-.64-2.1-1.22-3.27-1.47-1.46-.31-2.07-1.08-2.32-2.56-.66-3.78-1.25-7.57-1.57-11.4-.59-7.01-1.28-14.01-1.19-21.06.07-5.53.77-10.99,1.87-16.41.26-1.28.72-1.9,2.12-2.03,11.24-1.07,22.25-3.57,33.34-5.53,3.93-.7,7.87-1.39,11.8-2.09-.3,7.43-.68,14.85-.88,22.28-.44,16.21,2.14,32.02,6.91,47.46,2.38,7.72,6.28,14.74,12,20.51,11.63,11.75,29.37,10.5,39.35-2.56,2.99-3.92,5.17-8.24,6.72-12.91,1.97-5.93,3.21-12.04,4.31-18.17.69-3.85,1.64-7.65,2.01-11.56.11-.2.29-.39.33-.61,1.75-9.2,3.49-18.4,5.23-27.6.28-1.08.58-2.15.83-3.23,2.3-10.1,5.61-19.87,9.39-29.5Z"/>
  <path class="cls-10" d="m391.39,520.56c.42,7.81,1.11,15.6,1.99,23.38.39,3.41,1.06,6.78,1.8,10.13.28,1.26.13,2.17-1.02,3.11-3.42,2.81-5.99,6.4-8.42,10.07-.77,1.16-1.14,2.45-1.02,3.86.21,2.34,1.89,3.58,4.16,3.03,1.71-.42,2.99-1.46,4.03-2.84,1.82-2.44,3.85-4.69,6.07-6.77,2.27-2.12,1.81-1.77,3.97-.46,2.73,1.66,5.43,3.36,8.16,5.01,1.73,1.05,3.62,1.66,5.66,1.75,1.52.07,2.89-.25,3.66-1.73.73-1.41.14-2.62-.69-3.77-.9-1.24-1.96-2.31-3.25-3.14-4.22-2.73-8.42-5.51-12.93-7.74-1.01-.5-1.35-1.15-1.51-2.18-.92-5.76-1.2-11.59-1.88-17.38-.5-4.28-1.01-8.56-1.46-12.85-.11-1.1-.27-2.23.02-3.34,5.41-.91,10.37-2.91,14.89-6.06,2.51-1.75,4.36-4.18,6.67-6.11.95,1.57,1.88,3.15,2.85,4.71,15.26,24.81,43.34,38.18,72.23,34.4,1.09-.14,2.18-.24,3.17-.35.54.58.26,1.04.17,1.49-3.02,14.18-10.37,25.89-20.9,35.6-12.15,11.21-26.5,18.56-42.41,22.88-16.6,4.5-33.4,5.48-50.32,2.13-12.74-2.52-24.39-7.52-34.46-15.89-7.41-6.16-12.84-13.74-16.29-22.74-.67-1.74-.68-1.77.79-2.62,17.85-10.3,30.85-25.11,40.23-43.29.84-1.62,1.45-3.38,2.64-4.81,2.08,1.35,4.31,2.37,6.8,2.52,2.2.14,4.42.02,6.62.02Z"/>
  <path class="cls-11" d="m349.78,430.84c.54-1.16,1.69-1.08,2.67-1.25,9.93-1.68,19.86-3.35,29.79-4.99,1.24-.2,2.46-.65,3.72-.46.4.66.26,1.31.27,1.94.22,16.7-1.56,33.19-5.32,49.46-.13.54-.33,1.08-.4,1.63-.14,1.09-.69,1.7-1.76,1.99-1.07.3-2.13.69-3.16,1.11-2.7,1.12-5.06,2.74-6.97,4.95-4.04,4.67-4.28,10.93-.6,15.89.52.7,1.09,1.39,1.74,1.98.77.7.87,1.34.44,2.31-7.09,15.89-16.68,30.04-29.59,41.76-7.53,6.84-16.31,11.45-26.43,13.3-12.55,2.29-24.14-.12-34.81-7.08-7.26-4.73-13.2-10.84-18.25-17.83-8.15-11.28-13.58-23.85-17.36-37.17-3.59-12.65-5.47-25.62-6.73-38.68-.33-3.42-.52-6.85-.86-10.27-.13-1.24.21-1.67,1.49-1.79,12.83-1.13,25.46-3.62,38.15-5.77.04,2.96-.5,5.88-.52,8.84-.08,11.34,1.66,22.44,3.85,33.52,2.03,10.3,5.63,19.96,10.83,29.06,3.33,5.82,7.56,10.89,12.6,15.29,3.28,2.87,6.92,5.15,11.09,6.52,11.53,3.79,22.74-1.31,27.39-12.5.61-1.47,1.13-2.99,1.58-4.52,3.3-11.23,4.19-22.76,4.06-34.4.37-2.07-.16-4.11-.18-6.16-.05-4.77-.04-9.53,0-14.3.02-1.97.55-3.93.21-5.92.32-3.8.54-7.61.99-11.39.6-5.04,1.38-10.06,2.09-15.09Z"/>
  <path class="cls-7" d="m405.73,475.33c-4.69.02-9.34.58-14.05,1.16-.31-.79-.04-1.38.09-1.97,3.48-16.52,4.72-33.22,3.95-50.07-.11-2.46-.41-4.87.03-7.39.59-3.37-1.99-6.25-5.62-6.82-1.59-.25-3.19-.12-4.78.14-17.02,2.88-34.05,5.76-51.07,8.64-.32.05-.63.14-.94.18-1.61.21-1.68.17-1.47-1.42.53-4.08,1.81-7.94,3.57-11.64,3.67-7.68,8.88-14.21,15.16-19.91,11.59-10.51,25.15-17.42,40.06-21.86,12.04-3.58,24.31-5.45,36.9-4.97,11.62.44,22.84,2.7,33.42,7.67,6.08,2.86,11.43,6.71,15.71,11.95,3.94,4.83,6.36,10.31,6.92,16.56.19,2.2.19,2.21-1.98,2.61-18.16,3.35-36.32,6.7-54.48,10.04-4.17.77-8.26,1.86-12.37,2.89-1.32.33-2.63.68-3.99.81-2.41.22-3.95,1.62-4.79,3.8-.37.96-.59,1.99-.79,3.01-1.94,9.83-3.38,19.71-2.62,29.77.66,8.68,1,17.41,3.22,25.9.06.21-.03.46-.08.93Z"/>
  <path class="cls-4" d="m532.61,460.6c-.37,3.9-1.32,7.71-2.01,11.56-1.1,6.13-2.34,12.24-4.31,18.17-1.55,4.66-3.73,8.99-6.72,12.91-9.98,13.06-27.72,14.31-39.35,2.56-5.71-5.77-9.61-12.8-12-20.51-4.77-15.44-7.35-31.25-6.91-47.46.2-7.43.58-14.85.88-22.28,5.61-1.03,11.22-2.07,16.83-3.09,6-1.09,12-2.15,18-3.24,3.51-.64,7.01-1.31,10.51-1.97,5.84-1.09,11.67-2.18,17.51-3.28,7.55-1.42,15.09-2.86,22.64-4.28.23-.04.48-.02.72-.03-3.78,9.63-7.09,19.4-9.39,29.5-.25,1.08-.55,2.15-.83,3.23-1.09.21-2.2.37-3.27.65-11.01,2.82-21.05,7.74-30.49,13.98-.53.35-1.02.77-1.49,1.2-4.91,4.48-3.61,11,2.65,13.25.75.27,1.53.44,2.31.6,1.73.35,3.48.44,5.24.44,6.56-.01,13.04-.8,19.5-1.89Z"/>
  <path class="cls-4" d="m349.78,430.84c-.7,5.03-1.49,10.05-2.09,15.09-.45,3.78-.67,7.59-.98,11.39-5.16,1.07-10.27,2.34-15.23,4.18-4.15,1.55-8.04,3.54-11.41,6.46-1.46,1.26-2.8,2.63-3.76,4.32-2.39,4.22-1.2,8.91,2.91,11.48,1.51.95,3.17,1.49,4.92,1.81,5.62,1.02,11.15.24,16.68-.74,1.96-.35,3.84-1.08,5.86-1.14.13,11.64-.76,23.16-4.06,34.4-.45,1.53-.96,3.05-1.58,4.52-4.65,11.19-15.86,16.29-27.39,12.5-4.17-1.37-7.81-3.65-11.09-6.52-5.03-4.4-9.27-9.47-12.6-15.29-5.2-9.1-8.79-18.76-10.83-29.06-2.19-11.08-3.93-22.18-3.85-33.52.02-2.96.56-5.88.52-8.84,3.36-.51,6.75-.9,10.08-1.57,3.81-.77,7.66-1.14,11.48-1.79,4.99-.85,9.98-1.68,15-2.31,5.58-.7,11.11-1.68,16.66-2.54,5.24-.81,10.43-1.88,15.68-2.63,1.65-.24,3.35-1.29,5.08-.2Z"/>
  <path class="cls-1" d="m420.27,506.51c-2.32,1.93-4.17,4.37-6.67,6.11-4.52,3.15-9.47,5.14-14.89,6.06-.35-1.66-.07-3.33-.09-4.99,0-.61.21-1.07.87-1.24,6.98-1.78,12.68-5.74,17.9-10.53.05-.05.15-.05.38-.11.99,1.45,1.83,3.02,2.5,4.69Z"/>
  <path class="cls-1" d="m391.39,520.56c-2.21,0-4.42.12-6.62-.02-2.49-.16-4.72-1.17-6.8-2.52.61-2.25,1.94-4.18,2.81-6.32.31-.76.84-.84,1.55-.58,2.63.95,5.33,1.65,8.12,1.96,1.09.12,1.44.6,1.29,1.76-.24,1.89-.24,3.81-.35,5.72Z"/>
  <path class="cls-9" d="m604.04,240.34c.23,5.04-.09,10.06-.53,15.07-.62,6.99-1.7,13.92-4.36,20.49-1.18,2.92-2.84,5.5-5.48,7.39-2.7,1.94-5.71,2.45-8.87,2.11-5.25-.56-10.38-1.79-15.32-3.6-6.3-2.32-12.72-4.18-19.2-5.91-5.71-1.53-11.29-3.4-16.6-6.09-3.27-1.66-6.69-3.04-9.92-4.8-1.83-1-3.52-2.1-4.27-4.29-.67-1.96-.32-3.74.79-5.23,2.3-3.06,3.5-6.63,4.99-10.05,4.26-9.74,6.92-20.05,10.27-30.11,2.99-9.01,5.23-18.27,8.99-27.01,3.18-7.41,6.25-14.88,10.87-21.56,2.77-3.99,6.03-7.41,10.5-9.54,5.24-2.5,12.81-1.61,17.44,2.7,4.61,4.29,7.55,9.64,10.1,15.27,3.14,6.95,5.11,14.26,6.54,21.71.92,4.76,1.75,9.54,2.22,14.39.57,5.79,1.11,11.57,1.51,17.37.27,3.91.16,7.82.33,11.72Z"/>
  <path class="cls-5" d="m532.52,143c4.52-9.28,9.47-18.27,16.36-26.08,4.46-5.06,10-7.51,16.68-7.56,2.96-.02,5.71.7,8.22,2.21,3.73,2.26,6.8,5.26,9.36,8.79-3.7.7-7.16,2.14-10.68,3.39-7.89,2.81-15.53,6.23-23.03,9.91-4.92,2.42-9.8,4.99-14.42,7.98-.79.51-1.49,1.23-2.49,1.36Z"/>
  <path class="cls-5" d="m237.03,280.2c.82-4.64,2.17-9.16,3.31-13.73,4.98-19.96,11.62-39.37,19.16-58.48,4.46-11.29,10.37-21.77,17.72-31.42,3.42-4.49,7.66-7.84,12.98-9.87,5.55-2.11,10.59-1.28,15.04,2.45,5.68,4.77,10.05,10.66,13.92,16.95-4.79,3.42-9.34,7.14-13.77,11.01-2.93,2.56-5.96,5.01-8.89,7.58-1.44,1.26-2.75,2.66-4.11,4.02-2.55,2.53-5.1,5.06-7.62,7.62-5.3,5.4-10.23,11.12-15.09,16.92-8.81,10.51-16.75,21.64-24.12,33.19-2.57,4.03-4.92,8.19-7.36,12.29-.33.55-.57,1.15-1.18,1.46Z"/>
  <path class="cls-12" d="m532.61,460.6c-6.45,1.09-12.94,1.88-19.5,1.89-1.76,0-3.51-.09-5.24-.44-.78-.16-1.57-.33-2.31-.6-6.26-2.25-7.56-8.77-2.65-13.25.47-.43.96-.85,1.49-1.2,9.44-6.24,19.49-11.16,30.49-13.98,1.08-.28,2.18-.44,3.27-.65-1.74,9.2-3.48,18.4-5.24,27.6-.04.22-.22.41-.33.61Z"/>
  <path class="cls-12" d="m346.67,483.7c-2.01.06-3.9.8-5.86,1.14-5.53.98-11.06,1.75-16.68.74-1.75-.32-3.41-.86-4.92-1.81-4.11-2.57-5.3-7.26-2.91-11.48.96-1.69,2.3-3.06,3.76-4.32,3.37-2.92,7.26-4.91,11.41-6.46,4.95-1.85,10.06-3.11,15.23-4.18.34,1.99-.2,3.95-.22,5.92-.04,4.77-.04,9.53,0,14.3.02,2.05.55,4.09.18,6.16Z"/>
</svg>