<?xml version="1.0" encoding="UTF-8"?>
<svg id="_图层_1" data-name="图层 1" xmlns="http://www.w3.org/2000/svg" viewBox="0 0 960 960">
  <defs>
    <style>
      .cls-1 {
        fill: #fdfefe;
      }

      .cls-1, .cls-2, .cls-3, .cls-4, .cls-5, .cls-6, .cls-7, .cls-8, .cls-9, .cls-10, .cls-11, .cls-12, .cls-13, .cls-14 {
        stroke-width: 0px;
      }

      .cls-2 {
        fill: #00fb00;
      }

      .cls-3 {
        fill: #f3d6aa;
      }

      .cls-4 {
        fill: #fdabe6;
      }

      .cls-5 {
        fill: #010201;
      }

      .cls-6 {
        fill: #01d903;
      }

      .cls-7 {
        fill: #016102;
      }

      .cls-8 {
        fill: #050404;
      }

      .cls-9 {
        fill: #b9813d;
      }

      .cls-10 {
        fill: #018701;
      }

      .cls-11 {
        fill: #ba3997;
      }

      .cls-12 {
        fill: #fdfdfd;
      }

      .cls-13 {
        fill: #fe72d7;
      }

      .cls-14 {
        fill: #f2d5a9;
      }
    </style>
  </defs>
  <path class="cls-8" d="m250.39,529.21c-.83-1.34-1.62-2.71-2.5-4.02-7.74-11.5-12.28-24.21-13.73-37.91-3.66-34.57,7.35-64.33,30.21-90.02,7.28-8.18,15.75-14.94,25.29-20.32.34-.19.64-.46.96-.69.47,0,.88-.1,1.09-.58,0,0-.02,0-.02,0,.43.05.78-.07.97-.5,0,0,0,0,0,0,.43.05.78-.06.96-.49,0,0,0,0,0,0,.43.05.78-.05.97-.48,0,0,0,0,0,0,.43.06.79-.03.97-.48,0,0,0,0,0,0,.43.06.8,0,.98-.47,0,0-.01,0-.01,0,.93.06,1.66-.52,2.45-.85,17.59-7.32,35.4-8.56,53.47-1.9,1.31.48,2.02.21,2.85-.77,1.87-2.19,4.01-4.11,6.26-5.92,5.9-4.75,12.36-8.55,19.53-10.99,11.58-3.96,23.31-7.62,35.62-8.07,16.53-.61,31.68,3.33,43.76,15.55.06.06.12.11.17.17.54.71,1.13.67,1.87.25,1.32-.75,2.67-1.44,4.03-2.11,14.51-7.1,29.75-10.51,45.95-8.92,1.43.14,2.85.3,4.28.46.6.25,1.21.49,1.89.35.32.05.64.1.96.15.43.33.9.49,1.44.36.18.03.36.06.54.1.41.31.86.5,1.38.38.18.04.35.07.53.11.25.26.55.39.91.28.31.08.63.15.94.23.26.3.58.44.98.33.17.04.34.08.51.12.25.29.54.44.93.34.17.05.35.09.52.14.24.29.53.45.92.35.17.05.33.09.5.14.24.31.54.47.94.38,7.63,3.01,14.7,6.97,21.03,12.22,14.16,11.75,22.99,26.78,27.39,44.51,4.86,19.58,3.82,38.97-2.08,58.17-.32,1.04-.94,2-.83,3.16-.65.57-.69,1.42-.95,2.15-2.64,7.31-5.81,14.38-9.87,21.02-11.24,18.39-26,32.8-46.17,41.3-5.44,2.29-10.65,5.13-16.33,6.85-.99.3-1.21.83-.89,1.79.74,2.19.45,4.43.19,6.65-.1.87-.37,1.72-.27,2.61-.92.88-.48,2.1-.74,3.15-1.72,6.94-4.76,13.2-9.16,18.81-9.93,12.65-22.56,21.25-38.01,25.83-22.88,6.78-46.15,9.24-69.92,6.79-8.68-.89-17.28-2.19-25.61-4.87-6.42-2.07-12.4-5.12-18.03-8.81-4.76-3.12-8.52-7.23-11.27-12.22-2.98-5.41-5.38-11.07-6.45-17.19-.31-1.8-.38-3.65-.55-5.47.19-2.98.39-5.97,1.13-8.86-.38-.09-.46-.13-.53-.11-.62.14-1.24.28-1.85.45-7.14,1.96-14.39,2.81-21.8,2.43-18.91-.97-34.39-8.84-46.68-23.14-.45-.53-.73-1.26-1.51-1.45,0,0,.02.03.02.03.03-.36-.09-.56-.48-.5Zm167.06-15.08c-.82-1.98-2.14-3.65-3.24-5.42-.92.13-1.31.8-1.85,1.24-2.78,2.28-5.56,4.67-8.94,5.91-2.55.94-3.51,2.44-3.31,4.97.04.55.04,1.11.05,1.66-.49,1.56-.32,3.17-.27,4.76.16,5.84.92,11.62,1.74,17.39.25,1.78.5,1.92,2.25,2.09,4.05.4,8.11.78,12.15,1.27,2.46.3,4.86.92,7.18,1.81,1.43.55,2.76,1.27,3.79,2.43,2.18,2.44,1.96,5.54-.61,7.56-.74.58-1.61,1.04-2.48,1.43-1.97.88-4.01,1.59-6.12,2.05-9.47,2.04-19.05,3.17-28.75,3.25-1.85.02-3.67-.18-5.49-.44-1.51-.21-2.98-.61-4.28-1.45-2.82-1.82-3.14-4.98-.71-7.29.63-.6,1.36-1.11,2.08-1.61,4.33-3.08,9.05-5.32,14.3-6.59-1.66-3.54-2.41-7.21-3.11-10.89-.97-5.05-1.04-10.16-1.06-15.27.15-1.26.24-2.53.46-3.78.16-.95-.27-1.3-1.09-1.48-3.59-.79-6.5-2.9-9.48-4.9-1.06-.71-1.92-2.44-3.26-1.87-1.1.47-1.81,1.92-2.27,3.21-.82.43-1.2,1.26-1.74,1.94-10.43,13.09-23.12,23.35-38.28,30.51-4.12,1.95-4.13,1.93-4.87,6.41-.09.55-.12,1.11-.2,1.67-1.61,11.22,7.68,27.44,14.93,32,.27.17.52.37.79.54,5.53,3.59,11.37,6.5,17.75,8.24,8.68,2.36,17.56,3.4,26.52,3.87,20.62,1.1,40.84-1.01,60.59-7.32,12.76-4.08,23.56-10.91,32.02-21.36,3.98-4.92,7-10.31,8.35-16.53.57-2.63,1.01-5.29.75-7.98-.29-.06-.44-.13-.59-.12-.48.05-.95.14-1.42.2-8.22,1.12-16.43,1.07-24.58-.51-19.17-3.73-34.31-13.81-45.91-29.4-.57-.76-.96-1.67-1.81-2.2Zm152.21-79.83c.08-15.43-3.36-29.95-11.27-43.3-14.58-24.61-39.81-33.94-64.9-30.45-14.5,2.01-27.54,7.67-39.02,16.63-26.06,20.36-40.38,47.08-42.61,80.15-.46,6.88.04,13.73,1.1,20.55.26,1.7.34,1.86,2.04,1.9,1.52.04,3.03.17,4.54.36,2.9.38,4.79,2.1,5.72,4.79,1.37,3.93.79,7.73-1.19,11.31-.81,1.46-1.74,2.88-2.8,4.18-.86,1.05-.83,1.91-.17,3,.95,1.57,1.71,3.25,2.68,4.81,11.26,18.17,27.5,28.62,48.75,30.86,15.12,1.6,29.35-1.97,42.92-8.53.21-.1.45-.2.62-.36,2.53-2.48,5.7-4.09,8.46-6.26,9.13-7.16,16.96-15.55,23.68-24.96,13.8-19.34,21.31-40.8,21.45-64.68Zm-327.83,41.44c.11,4.29.36,8.52.96,12.71,1.83,12.81,6.21,24.61,14.31,34.83,9.73,12.27,22.38,19.6,37.92,21.67,12.93,1.73,25.31-.53,37.12-5.96,16.04-7.37,27.96-19.39,37.85-33.69.64-.92.5-1.52-.2-2.28-1.3-1.42-2.39-3-3.18-4.77-2.11-4.75-.93-9.23,3.27-12.3.9-.66,1.87-1.24,2.87-1.73,2.29-1.15,4.71-1.99,7.21-2.57.97-.22,1.48-.72,1.77-1.68,3.38-11.21,5.93-22.56,6.08-34.34.17-13.68-2.59-26.66-9.31-38.69-12.86-23.05-37.5-34.36-63.36-29.14-12.89,2.6-24.42,8.12-34.47,16.46-25.49,21.15-37.54,48.78-38.82,81.49Zm120.36-100.73c.54.39.78.59,1.05.76,13.3,8.31,22.56,20.02,28.24,34.46,8.52,21.63,9.25,43.74,3.13,66.12-.25.91-.78,1.76-.6,2.87,1.68,0,3.35.04,5.02-.01,1.63-.05,3.29.32,5-.19-3.16-21.68.28-42.33,8.8-62.21,8.56-19.96,21.46-36.57,39-49.41-.42-.91-1.06-1.41-1.67-1.9-.99-.8-1.98-1.65-3.09-2.27-9.73-5.37-20.1-8.36-31.27-7.42-11.85,1-23.3,4.03-34.47,8.02-6.96,2.48-13.22,6.36-19.15,11.19Zm56.57,180.46c-6.45-4.75-25.62-2.72-32.44,3.52,11.08-.48,21.74-1.13,32.44-3.52Z"/>
  <path class="cls-13" d="m632.79,337.48c-2.52.34-4.45-.89-6.24-2.42-9.21-7.9-18.77-15.36-29.08-21.79-11.05-6.88-22.51-13.01-34.28-18.6-15.03-7.13-30.51-13.05-46.36-18.02-9.67-3.03-19.53-5.25-29.49-7.14-10.54-2-21.12-3.14-31.85-2.81-1.2.04-2.38-.05-3.42-.77,2.5.07,4.43-1.11,6.13-2.8,1.99-1.98,3.8-4.11,5.52-6.32,6.52-8.41,12.69-17.07,18.48-25.99,16.12-24.83,30.82-50.48,44.53-76.71,1.96-3.75,3.82-7.56,6.02-11.18.09-.16.19-.31.28-.47,0,0-.01.02-.01.02,1.65.03,2.75-1.15,4.01-1.91,5.73-3.46,11.63-6.58,17.7-9.37,6.85-3.15,13.82-6.06,20.93-8.56,2.53-.89,5-2.07,7.74-2.26,1.2.84,1.97,2.07,2.84,3.19,11.61,14.95,20.48,31.41,26.77,49.25,2.18,6.17,4.17,12.41,6.22,18.63,3.74,11.34,6.11,22.99,7.86,34.77,1.27,8.54,1.7,17.16,2.19,25.78.66,11.49,1.18,22.97.64,34.49-.53,11.33-.99,22.66-1.07,34.01-.02,3.44-.04,6.87.54,10.28.44,2.57,1.36,4.91,3.39,6.68Zm-28.25-97.6c.23-1.48-.51-3.75-.46-6.07.13-6.15-.52-12.27-1.1-18.37-.6-6.25-1.53-12.47-2.77-18.64-1.88-9.35-4.49-18.45-9.1-26.86-2.27-4.13-4.81-8.1-8.71-10.96-4.44-3.26-9.34-4.02-14.53-2.45-4.95,1.5-8.43,5-11.41,9.06-4.43,6.04-7.37,12.86-10.44,19.63-1.78,3.93-3.34,7.95-4.62,12.06-4.3,13.87-8.51,27.77-13.28,41.48-2.04,5.86-4.28,11.69-7.75,16.93-.49.74-.74,1.55-.85,2.46-.37,2.98,1.23,4.81,3.51,6.28,3.58,2.3,7.58,3.76,11.37,5.63,5.23,2.58,10.74,4.48,16.39,5.94,5.02,1.3,10.09,2.45,14.92,4.35,6.04,2.38,12.26,4.06,18.66,4.99,4.31.63,8.19-.41,11.36-3.71,3.01-3.13,4.28-7.05,5.42-11.05,2.79-9.76,2.79-19.83,3.38-30.69Z"/>
  <path class="cls-13" d="m256.69,369.5c-.35.75-1.03,1.21-1.58,1.76-4.35,4.32-8.75,8.6-13.08,12.94-4.67,4.68-9.19,9.49-12.79,15.08-.7,1.08-1.58,2.01-2.95,2.23.39-2.89-.27-5.73-.38-8.59-.58-15.09-.54-30.18.63-45.24,1.07-13.77,2.23-27.54,4.73-41.14,1.63-8.87,3.63-17.66,5.97-26.37.53-.13.74-.57.98-.98,1.3-2.28,2.58-4.59,3.92-6.85,4.61-7.74,9.59-15.25,14.92-22.51,5.37-7.32,10.94-14.47,16.89-21.34,3.97-4.58,8.08-9.02,12.2-13.45,4.4-4.73,9.25-9.01,14.1-13.29,4-3.53,8.16-6.87,12.23-10.32,2.24-1.9,4.76-3.47,6.8-5.61,2.12,2.81,3.79,5.9,5.45,8.99,7.64,14.21,14.21,28.91,20.19,43.89,3.1,7.78,6.13,15.59,9.55,23.23,1.02,2.27,2.27,4.39,3.91,6.27,1.25,1.44,2.7,2.47,4.69,2.52.28,2.4-.6,4.34-2.33,5.97-2.04,1.92-4.44,3.35-6.67,5.02-3.5,2.63-7.05,5.18-10.59,7.75-.25.18-.57.27-.85.4-.36-2.12-.62-4.26-1.09-6.35-1.27-5.73-3.08-11.27-6.79-15.93-3.42-4.3-8.78-6.79-14.91-5.23-3.38.85-6.05,2.83-8.47,5.18-4.75,4.6-8.33,10.08-11.41,15.87-3.54,6.65-6.2,13.64-7.85,21.01-1.43,6.37-3.65,12.55-4.3,19.1-.07.69-.51,1.14-.94,1.62-2.17,2.45-4.34,4.89-6.49,7.35-4.09,4.68-8.24,9.32-11.93,14.33-3.6,4.89-7.07,9.87-9.59,15.42-1.05,2.32-2.13,4.65-2.17,7.28Z"/>
  <path class="cls-8" d="m632.79,337.48c-2.03-1.77-2.95-4.11-3.39-6.68-.58-3.4-.57-6.84-.54-10.28.08-11.35.54-22.68,1.07-34.01.54-11.51.01-23-.64-34.49-.49-8.61-.93-17.23-2.19-25.78-1.75-11.79-4.13-23.44-7.86-34.77-2.05-6.22-4.04-12.46-6.22-18.63-6.29-17.84-15.16-34.3-26.77-49.25-.87-1.12-1.64-2.35-2.84-3.19-2.68-3.74-5.92-6.89-9.94-9.15-2.26-1.27-4.73-1.88-7.34-1.9-7.07-.05-12.8,2.66-17.42,8.04-6.51,7.58-11.31,16.2-15.67,25.1,0,0,.01-.02.01-.02-.22.08-.33.22-.28.47-2.2,3.62-4.06,7.43-6.02,11.18-13.71,26.23-28.41,51.88-44.53,76.71-5.79,8.92-11.96,17.58-18.48,25.99-1.71,2.21-3.53,4.34-5.52,6.32-1.7,1.7-3.63,2.87-6.13,2.8-4.38-1.75-5.18-4.68-2.45-8.68,22.75-33.28,43.78-67.6,62.75-103.18,5.04-9.45,9.74-19.07,14.89-28.46,2.93-5.34,6.19-10.45,10.08-15.14,1.59-1.91,3.26-3.73,5.09-5.41,8.76-7.98,19.07-10.23,30.51-8.19,3.84.68,7.24,2.45,10.41,4.68,3.63,2.55,6.69,5.69,9.59,9.01,6.44,7.37,11.94,15.42,16.91,23.82,7.68,12.98,13.6,26.74,18.35,41.06,4.8,14.51,9.17,29.1,11.55,44.24,1.18,7.51,2.02,15.05,2.45,22.64.87,15.32,1.85,30.64,1.11,46.01-.55,11.34-.87,22.68-1.04,34.03-.04,2.79-.3,5.59-.79,8.35-.35,1.93-1.14,3.64-2.48,5.1-1.73,1.89-3.71,2.74-6.21,1.67Z"/>
  <path class="cls-8" d="m363.07,270.72c-1.99-.05-3.44-1.08-4.69-2.52-1.64-1.88-2.89-4-3.91-6.27-3.43-7.65-6.45-15.46-9.55-23.23-5.98-14.98-12.55-29.68-20.19-43.89-1.66-3.09-3.33-6.18-5.45-8.99-3.62-5.77-7.78-11.11-12.72-15.81-.69-.66-1.47-1.23-2.27-1.76-4.03-2.7-8.3-3.42-12.99-1.82-5.55,1.89-10.01,5.21-13.57,9.82-6.07,7.88-11.26,16.3-15.25,25.41-7.08,16.18-12.81,32.86-17.8,49.79-2.8,9.49-5.31,19.06-7.45,28.73-2.34,8.71-4.34,17.5-5.97,26.37-2.5,13.61-3.66,27.37-4.73,41.14-1.17,15.07-1.21,30.15-.63,45.24.11,2.87.76,5.71.38,8.59-.18.26-.35.53-.54.78-1.88,2.44-4.74,2.51-6.71.15-1.16-1.39-1.67-3.08-2.13-4.78-1.21-4.5-1.59-9.13-1.94-13.75-1.27-16.81-.28-33.56,1.22-50.3,1-11.15,2.18-22.29,4.52-33.25,6.99-32.8,15.86-65.05,28.53-96.17,4.39-10.78,9.95-20.92,16.58-30.47,1.82-2.63,3.78-5.16,5.98-7.49,5.36-5.7,11.92-9.36,19.48-11.18,6.83-1.65,13.33-.53,19.41,2.99,3.57,2.06,6.59,4.77,9.35,7.81,8.12,8.93,14.92,18.74,20.26,29.58,7.03,14.28,13.22,28.92,18.57,43.92,1.83,5.12,3.74,10.2,5.56,15.33,1.34,3.79,2.22,7.66,1.8,11.75-.22,2.12-.98,3.68-3.14,4.3Z"/>
  <path class="cls-11" d="m256.69,369.5c.04-2.63,1.12-4.97,2.17-7.28,2.52-5.55,5.99-10.53,9.59-15.42,3.69-5.02,7.83-9.65,11.93-14.33,2.15-2.46,4.32-4.91,6.49-7.35.43-.48.87-.93.94-1.62.64-6.54,2.87-12.73,4.3-19.1,1.65-7.37,4.32-14.36,7.85-21.01,3.08-5.79,6.66-11.27,11.41-15.87,2.42-2.34,5.09-4.32,8.47-5.18,6.14-1.55,11.49.94,14.91,5.23,3.71,4.66,5.52,10.2,6.79,15.93.47,2.1.73,4.23,1.09,6.35-3.19,2.52-6.38,5.04-9.58,7.54-7.3,5.71-14.2,11.88-20.94,18.23-15.92,14.99-31.37,30.47-46.96,45.81-2.22,2.18-4.4,4.4-6.61,6.59-.56.55-1.03,1.24-1.85,1.48Z"/>
  <path class="cls-4" d="m516.75,350.2c-1.43-.15-2.85-.32-4.28-.46-16.2-1.59-31.43,1.81-45.95,8.92-1.36.67-2.71,1.36-4.03,2.11-.74.42-1.33.46-1.87-.25-.05-.06-.11-.11-.17-.17-12.08-12.23-27.23-16.16-43.76-15.55-12.31.45-24.04,4.11-35.62,8.07-7.17,2.45-13.63,6.25-19.53,10.99-2.25,1.81-4.39,3.73-6.26,5.92-.84.98-1.54,1.25-2.85.77-18.07-6.67-35.88-5.43-53.47,1.9-.8.33-1.52.91-2.45.85,1.27-1.69,3.29-2.19,5.06-2.97,6.35-2.8,12.88-5.12,19.66-6.73,6.37-1.51,12.75-1.77,19.22-.97,1.73.21,3.5.15,5.22.54,1.62.37,2.96-.3,4.16-1.32,4.65-3.95,9.9-6.96,15.2-9.92,7.86-4.39,16.15-7.61,24.93-9.55,5.9-1.31,11.84-2.32,17.9-2.81,3.99-.32,7.97-.29,11.95-.37,6.11-.11,12.03,1.13,17.89,2.71,4.56,1.22,8.99,2.8,13.18,4.97,2.55,1.32,5.03,2.79,7.45,4.32,1.13.72,2,.86,3.28.25,5.8-2.78,11.97-4.24,18.33-5.1,4.82-.65,9.64-1.39,14.48-1.29,6.3.13,12.52,1.1,18.44,3.47,1.26.5,2.58.85,3.87,1.26-.01.14,0,.27,0,.41Z"/>
  <path class="cls-11" d="m501.85,554.38c-.09-.89.17-1.74.27-2.61.26-2.22.55-4.46-.19-6.65-.32-.95-.1-1.49.89-1.79,5.68-1.72,10.89-4.56,16.33-6.85,20.17-8.5,34.93-22.91,46.17-41.3,4.06-6.64,7.23-13.71,9.87-21.02.26-.73.3-1.59.95-2.15.04,2.91-.84,5.67-1.55,8.43-4.94,19.05-13.79,36.09-27.24,50.47-9.63,10.29-21.16,17.93-34.86,21.93-3.47,1.01-7.04,1.34-10.63,1.54Z"/>
  <path class="cls-11" d="m250.85,529.68c.78.2,1.06.93,1.51,1.45,12.3,14.3,27.77,22.17,46.68,23.14,7.4.38,14.66-.47,21.8-2.43.61-.17,1.23-.3,1.85-.45.07-.02.15.03.53.11-.74,2.9-.94,5.88-1.13,8.86-2.46.23-4.92.54-7.39.69-12.13.74-23.95-.83-35.2-5.5-11.94-4.96-21.22-13.16-28.02-24.15-.32-.52-.79-1.03-.64-1.75Z"/>
  <path class="cls-14" d="m516.75,350.2c-.02-.14-.02-.27,0-.41.68.14,1.39.19,1.89.76-.68.14-1.28-.1-1.89-.35Z"/>
  <path class="cls-14" d="m521.03,351.06c-.54.13-1.01-.02-1.44-.36.54-.13,1.06-.15,1.44.36Z"/>
  <path class="cls-14" d="m522.95,351.53c-.53.12-.97-.06-1.38-.38.53-.12,1.03-.13,1.38.38Z"/>
  <path class="cls-14" d="m524.39,351.92c-.37.11-.66-.03-.91-.28.37-.11.69-.08.91.28Z"/>
  <path class="cls-14" d="m526.31,352.48c-.4.11-.72-.03-.98-.33.4-.1.75-.07.98.33Z"/>
  <path class="cls-14" d="m527.75,352.94c-.39.1-.69-.05-.93-.34.39-.1.72-.05.93.34Z"/>
  <path class="cls-14" d="m529.19,353.43c-.39.1-.68-.06-.92-.35.39-.09.72-.04.92.35Z"/>
  <path class="cls-14" d="m530.63,353.95c-.4.09-.7-.07-.94-.38.4-.09.74-.03.94.38Z"/>
  <path class="cls-4" d="m291.72,375.67c-.21.47-.62.58-1.09.58.22-.45.57-.69,1.09-.58Z"/>
  <path class="cls-4" d="m293.62,374.7c-.19.43-.54.54-.96.49.16-.47.51-.6.96-.49Z"/>
  <path class="cls-4" d="m294.58,374.22c-.19.43-.54.53-.97.48.16-.48.51-.59.97-.48Z"/>
  <path class="cls-4" d="m292.67,375.18c-.19.43-.53.54-.97.5.16-.47.51-.6.97-.5Z"/>
  <path class="cls-4" d="m295.55,373.75c-.18.45-.54.53-.97.48.17-.48.51-.6.97-.48Z"/>
  <path class="cls-4" d="m296.52,373.28c-.18.47-.55.53-.98.47.17-.49.52-.6.98-.47Z"/>
  <path class="cls-11" d="m250.39,529.21c.4-.07.52.14.48.5-.34,0-.44-.22-.48-.5Z"/>
  <path class="cls-1" d="m569.66,434.3c-.15,23.88-7.65,45.34-21.45,64.68-6.72,9.42-14.55,17.81-23.68,24.96-2.77,2.17-5.93,3.78-8.46,6.26-.17.16-.4.26-.62.36-13.57,6.57-27.8,10.13-42.92,8.53-21.25-2.25-37.5-12.7-48.75-30.86-.97-1.56-1.73-3.24-2.68-4.81-.66-1.09-.69-1.95.17-3,1.06-1.29,1.99-2.71,2.8-4.18,1.98-3.58,2.56-7.38,1.19-11.31-.94-2.7-2.82-4.41-5.72-4.79-1.5-.2-3.02-.33-4.54-.36-1.71-.04-1.78-.19-2.04-1.9-1.05-6.82-1.56-13.67-1.1-20.55,2.23-33.07,16.55-59.79,42.61-80.15,11.48-8.97,24.52-14.62,39.02-16.63,25.1-3.49,50.32,5.85,64.9,30.45,7.91,13.35,11.35,27.86,11.27,43.3Zm-59.36,55.1c.42-1.91.8-3.83.75-5.8.65-3.31,1-6.65,1.23-10.01.28-1.97.58-3.95.85-5.92,1.7-12.43,4.11-24.73,6.26-37.08,1.25-7.18,2.22-14.37,1.66-21.68-.33-4.32-1.12-8.55-2.7-12.6-4.84-12.37-17.17-18.19-29.76-14.06-.3.1-.62.14-.93.22-4.93,1.25-9.12,3.77-12.68,7.36-3.24,3.27-5.69,7.09-7.71,11.19-2.94,5.97-5.07,12.23-6.71,18.67-2.58,10.17-4.01,20.53-5.12,30.93-1.13,10.59-1.59,21.19-.13,31.79.57,4.19,1.28,8.36,2.91,12.3,1.22,4.32,2.96,8.39,5.68,11.99.2.34.37.71.61,1.01,9.35,11.92,24.14,11.75,33.85,6.12,2.21-1.28,4.16-2.94,5.44-5.24,1.12-1.14,1.92-2.46,2.37-4,2.49-4.77,3.44-9.96,4.15-15.21Z"/>
  <path class="cls-12" d="m241.83,475.74c1.28-32.7,13.33-60.34,38.82-81.49,10.05-8.34,21.58-13.86,34.47-16.46,25.86-5.22,50.5,6.09,63.36,29.14,6.72,12.04,9.48,25.01,9.31,38.69-.15,11.78-2.7,23.13-6.08,34.34-.29.96-.8,1.45-1.77,1.68-2.5.58-4.91,1.42-7.21,2.57-1,.5-1.97,1.08-2.87,1.73-4.2,3.07-5.37,7.55-3.27,12.3.78,1.77,1.87,3.35,3.18,4.77.7.76.84,1.36.2,2.28-9.89,14.3-21.81,26.32-37.85,33.69-11.81,5.43-24.19,7.68-37.12,5.96-15.53-2.07-28.19-9.4-37.92-21.67-8.1-10.22-12.48-22.01-14.31-34.83-.6-4.2-.85-8.43-.96-12.71Zm99.24,20.82c.44-1.39.65-2.81.59-4.26.36-.57.33-1.23.39-1.86.98-10.34,1.88-20.7,2.94-31.03,1.06-10.34,1.6-20.72,2.23-31.09.35-5.83.54-11.68-.83-17.43-1.38-5.75-3.96-10.73-8.86-14.37-8.2-6.1-17.26-7.62-27.03-5.19-7.29,1.81-12.89,6.2-17.25,12.2-3.7,5.08-6.32,10.72-8.29,16.67-3.96,11.97-6.3,24.24-7.37,36.81-1.24,14.63.31,28.88,5.02,42.78,1.51,4.46,3.34,8.8,6.11,12.67.38,1.11,1.05,2.02,1.87,2.84,1.32,2.33,2.92,4.45,4.86,6.3,1.65,2.39,3.84,4.22,6.17,5.88,2.15,1.53,4.47,2.81,7.12,3.2,9.52,1.39,16.83-2.48,22.73-9.65,1.26-1.27,2.29-2.68,2.96-4.35,3.02-4.7,4.84-9.85,5.73-15.34.6-1.54.91-3.14.92-4.79Z"/>
  <path class="cls-3" d="m390.78,523c.03,5.11.1,10.22,1.06,15.27.7,3.68,1.45,7.34,3.11,10.89-5.25,1.27-9.97,3.52-14.3,6.59-.71.51-1.45,1.01-2.08,1.61-2.43,2.31-2.12,5.47.71,7.29,1.3.84,2.77,1.23,4.28,1.45,1.82.26,3.64.46,5.49.44,9.7-.09,19.27-1.21,28.75-3.25,2.11-.46,4.15-1.17,6.12-2.05.87-.39,1.73-.85,2.48-1.43,2.57-2.01,2.79-5.12.61-7.56-1.04-1.16-2.36-1.89-3.79-2.43-2.32-.89-4.72-1.51-7.18-1.81-4.04-.49-8.1-.87-12.15-1.27-1.75-.17-2-.31-2.25-2.09-.82-5.77-1.59-11.55-1.74-17.39-.04-1.59-.21-3.2.27-4.76,6.52-1.21,12.23-4.11,17.28-8.37.85.53,1.25,1.44,1.81,2.2,11.6,15.59,26.73,25.67,45.91,29.4,8.15,1.59,16.36,1.64,24.58.51.47-.06.95-.15,1.42-.2.14-.02.3.06.59.12.26,2.69-.18,5.35-.75,7.98-1.35,6.23-4.37,11.62-8.35,16.53-8.46,10.45-19.26,17.29-32.02,21.36-19.75,6.31-39.97,8.42-60.59,7.32-8.95-.48-17.83-1.51-26.52-3.87-6.39-1.74-12.23-4.65-17.75-8.24-.27-.17-.52-.37-.79-.54-7.25-4.56-16.54-20.78-14.93-32,.08-.55.11-1.11.2-1.67.73-4.48.74-4.47,4.87-6.41,15.16-7.16,27.85-17.41,38.28-30.51.54-.68.92-1.51,1.74-1.94,1.88,3.49,5.04,5.39,8.54,6.84,2.28.95,4.73,1.33,7.1,1.97Z"/>
  <path class="cls-14" d="m362.19,375.01c5.92-4.83,12.19-8.71,19.15-11.19,11.16-3.98,22.62-7.01,34.47-8.02,11.17-.95,21.54,2.05,31.27,7.42,1.11.61,2.09,1.47,3.09,2.27.62.5,1.26,1,1.67,1.9-17.55,12.84-30.45,29.44-39,49.41-8.52,19.88-11.96,40.54-8.8,62.21-1.71.51-3.37.14-5,.19-1.67.05-3.34.01-5.02.01-.18-1.1.35-1.96.6-2.87,6.13-22.38,5.39-44.49-3.13-66.12-5.69-14.44-14.95-26.16-28.24-34.46-.26-.17-.51-.37-1.05-.76Z"/>
  <path class="cls-14" d="m418.76,555.47c-10.7,2.39-21.37,3.04-32.44,3.52,6.82-6.24,25.99-8.27,32.44-3.52Z"/>
  <path class="cls-9" d="m417.44,514.13c-5.05,4.25-10.75,7.16-17.28,8.37-.02-.55-.01-1.11-.05-1.66-.2-2.53.75-4.03,3.31-4.97,3.38-1.25,6.15-3.64,8.94-5.91.54-.44.93-1.11,1.85-1.24,1.1,1.76,2.42,3.44,3.24,5.42Z"/>
  <path class="cls-9" d="m390.78,523c-2.37-.65-4.82-1.02-7.1-1.97-3.5-1.45-6.66-3.35-8.54-6.84.47-1.29,1.18-2.75,2.27-3.21,1.33-.57,2.19,1.16,3.26,1.87,2.98,1.99,5.89,4.1,9.48,4.9.82.18,1.25.53,1.09,1.48-.22,1.25-.31,2.52-.46,3.78Z"/>
  <path class="cls-11" d="m604.54,239.89c-.59,10.86-.59,20.93-3.38,30.69-1.14,3.99-2.41,7.92-5.42,11.05-3.17,3.3-7.05,4.33-11.36,3.71-6.4-.93-12.62-2.62-18.66-4.99-4.83-1.9-9.9-3.05-14.92-4.35-5.66-1.46-11.16-3.36-16.39-5.94-3.79-1.87-7.79-3.32-11.37-5.63-2.29-1.47-3.88-3.3-3.51-6.28.11-.9.36-1.71.85-2.46,3.48-5.23,5.71-11.06,7.75-16.93,4.77-13.71,8.98-27.61,13.28-41.48,1.27-4.11,2.84-8.14,4.62-12.06,3.06-6.76,6-13.59,10.44-19.63,2.98-4.06,6.46-7.56,11.41-9.06,5.19-1.57,10.1-.81,14.53,2.45,3.9,2.86,6.44,6.83,8.71,10.96,4.61,8.41,7.22,17.51,9.1,26.86,1.24,6.17,2.17,12.39,2.77,18.64.58,6.1,1.23,12.22,1.1,18.37-.05,2.32.69,4.59.46,6.07Z"/>
  <path class="cls-4" d="m533.01,142.49c4.36-8.91,9.16-17.52,15.67-25.1,4.62-5.38,10.35-8.09,17.42-8.04,2.61.02,5.08.63,7.34,1.9,4.03,2.26,7.27,5.4,9.94,9.15-2.74.18-5.21,1.37-7.74,2.26-7.12,2.5-14.08,5.41-20.93,8.56-6.07,2.79-11.97,5.92-17.7,9.37-1.26.76-2.36,1.94-4.01,1.91Z"/>
  <path class="cls-4" d="m532.74,142.94c-.06-.24.06-.39.28-.47-.09.16-.19.31-.28.47Z"/>
  <path class="cls-4" d="m237.23,280.17c2.14-9.67,4.65-19.24,7.45-28.73,5-16.93,10.73-33.61,17.8-49.79,3.98-9.11,9.18-17.53,15.25-25.41,3.55-4.61,8.01-7.93,13.57-9.82,4.69-1.6,8.96-.87,12.99,1.82.79.53,1.58,1.1,2.27,1.76,4.95,4.7,9.1,10.04,12.72,15.81-2.04,2.14-4.56,3.71-6.8,5.61-4.07,3.45-8.23,6.78-12.23,10.32-4.84,4.28-9.7,8.56-14.1,13.29-4.12,4.43-8.23,8.87-12.2,13.45-5.95,6.87-11.52,14.02-16.89,21.34-5.33,7.26-10.31,14.77-14.92,22.51-1.35,2.26-2.62,4.56-3.92,6.85-.24.42-.45.86-.98.98Z"/>
  <path class="cls-5" d="m458.21,494.72c-1.64-3.94-2.34-8.11-2.91-12.31-1.45-10.6-1-21.2.13-31.79,1.11-10.41,2.54-20.77,5.12-30.93,1.64-6.44,3.77-12.7,6.71-18.67,2.02-4.11,4.48-7.93,7.71-11.19,3.56-3.59,7.76-6.11,12.68-7.36.31-.08.63-.12.93-.22,12.59-4.12,24.92,1.7,29.76,14.06,1.59,4.05,2.38,8.28,2.7,12.6.55,7.31-.41,14.51-1.66,21.68-2.15,12.35-4.56,24.65-6.26,37.08-.27,1.98-.56,3.95-.85,5.92-2.03-.29-4.07-.74-6.13-.45-4.77.68-9.52,1.42-14.28,2.14.47-4.06,1.59-7.98,2.53-11.95.39-1.63.83-3.25.79-4.95-.08-3.28-2.08-5.36-5.37-5.54-1.04-.06-2.08,0-3.11-.12-2.04-.24-2.24-.48-2.25-2.59-.02-3.53.72-6.99,1.14-10.47.13-1.07.87-1.39,1.73-1.73,3.12-1.22,6.23-2.49,9.33-3.77.88-.37,1.76-.78,2.56-1.29,3.75-2.36,4.67-6.42,2.31-10.17-.51-.8-1.14-1.55-1.79-2.25-1.92-2.07-4.24-3.64-6.69-5.01-2.92-1.64-6.04-2.93-8.76-4.93-.56-.42-1.27-.67-1.95-.9-3.13-1.06-5.16-.5-7.24,2.05-.81.98-1.51,2.06-2.17,3.16-3.1,5.16-5.38,10.7-7.43,16.34-.38,1.05-.63,2.14-.66,3.28-.08,3.54,1.87,6.13,5.33,6.97,1.49.36,3,.5,4.51.17,1.02-.22,1.54.06,1.37,1.2-.16,1.11-.27,2.22-.38,3.33-.22,2.31-.36,4.62.11,6.92.96,4.65,3.85,7.18,8.62,7.54.7.05,1.45-.14,2.17.35,0,.27.06.59,0,.89-1.17,5.47-2.13,10.97-2.98,16.49-.66-.03-1.23.23-1.83.47-6.87,2.78-12.66,7.22-18.36,11.83-1.71,1.38-3.08,3.21-5.17,4.12Z"/>
  <path class="cls-2" d="m483.57,478.3c.85-5.52,1.81-11.03,2.98-16.49.06-.3,0-.62,0-.89-.72-.49-1.47-.3-2.17-.35-4.77-.35-7.66-2.88-8.62-7.54-.47-2.3-.33-4.61-.11-6.92.1-1.11.22-2.23.38-3.33.16-1.15-.35-1.43-1.37-1.2-1.52.33-3.02.2-4.51-.17-3.45-.84-5.41-3.43-5.33-6.97.03-1.14.28-2.23.66-3.28,2.05-5.64,4.33-11.18,7.43-16.34.66-1.09,1.36-2.17,2.17-3.16,2.09-2.55,4.12-3.1,7.24-2.05.68.23,1.39.48,1.95.9,2.72,2.01,5.84,3.3,8.76,4.93,2.45,1.37,4.76,2.94,6.69,5.01.65.7,1.28,1.44,1.79,2.25,2.37,3.74,1.44,7.8-2.31,10.17-.81.51-1.68.92-2.56,1.29-3.1,1.28-6.21,2.54-9.33,3.77-.86.34-1.6.65-1.73,1.73-.42,3.49-1.16,6.94-1.14,10.47.01,2.11.2,2.35,2.25,2.59,1.03.12,2.07.06,3.11.12,3.3.18,5.29,2.26,5.37,5.54.04,1.7-.4,3.32-.79,4.95-.94,3.96-2.06,7.88-2.52,11.95-.34,1.18-.19,2.38-.2,3.58-.62,2.5-.13,3.96,2.31,5.57,2.57,1.7,4.61,3.78,5.85,6.62.12.28.37.5.56.74.05.23.06.48.14.69,1.46,3.57,2.97,7.11,5.04,10.38.35.56.64,1.07.59,1.74-.45,1.53-1.24,2.86-2.37,4-.64-.03-1.27-.07-1.76-.59-1.15-1.21-2.4-2.34-3.45-3.64-2.41-2.96-4.18-6.33-5.86-9.74-.69-1.72-1.76-3.08-3.3-4.21-1.44-1.05-2.9-2.12-3.93-3.71-1.02-1.57-1.11-3.41-1.83-5.05-.03-1.12-.05-2.25-.08-3.37Z"/>
  <path class="cls-6" d="m492.71,494.63c1.68,3.41,3.45,6.78,5.86,9.74,1.05,1.29,2.3,2.42,3.45,3.64.49.52,1.12.56,1.76.59-1.28,2.3-3.23,3.96-5.44,5.24-9.71,5.63-24.49,5.8-33.85-6.12-.24-.31-.41-.67-.61-1.01,0,0,.07-.21.07-.21.42.1.8,0,1.08-.32,2.24-2.48,5.31-3.5,8.34-4.28,6.71-1.74,12.97-4.63,19.33-7.27Z"/>
  <path class="cls-7" d="m483.57,478.3c.03,1.12.05,2.25.08,3.37-.72.52-1.65.42-2.42.9-2.19,1.38-4.42,2.7-6.43,4.34-2.44,1.98-4.96,3.88-6.63,6.63-1.12,1.84-1.73,3.73-.34,5.75.6.86.79,1.99-.05,2.6-1.25.9-1.71,2.43-3.02,3.23-.46.28-.83.75-.79,1.39,0,0-.07.21-.07.21-2.72-3.61-4.46-7.68-5.68-11.99,2.09-.91,3.46-2.73,5.17-4.12,5.7-4.61,11.49-9.04,18.36-11.83.6-.24,1.17-.5,1.83-.47Z"/>
  <path class="cls-10" d="m500.38,491.79c-.19-.25-.44-.47-.56-.74-1.24-2.84-3.28-4.92-5.85-6.62-2.44-1.61-2.93-3.06-2.31-5.57,3.39-.14,6.79-.9,10.16.39,1.12.43,2.28,1.16,3.62.7,1.23,1.22,3.45,1,4.21,2.92.23.59.8.73,1.4.73.05,1.97-.33,3.89-.75,5.8-3.42.34-6.76.98-9.92,2.4Z"/>
  <path class="cls-7" d="m511.05,483.6c-.6,0-1.17-.14-1.4-.73-.76-1.92-2.98-1.7-4.21-2.92-1.34.46-2.5-.27-3.62-.7-3.37-1.29-6.77-.53-10.16-.39.01-1.2-.14-2.4.2-3.58,4.76-.72,9.52-1.46,14.28-2.14,2.06-.29,4.1.16,6.13.45-.22,3.36-.57,6.7-1.23,10.01Z"/>
  <path class="cls-6" d="m500.38,491.79c3.16-1.42,6.5-2.06,9.92-2.4-.71,5.25-1.66,10.44-4.15,15.21.06-.67-.23-1.18-.59-1.74-2.07-3.27-3.58-6.81-5.04-10.38-.09-.21-.1-.46-.14-.69Z"/>
  <path class="cls-5" d="m288.7,512.47c-2.77-3.87-4.59-8.21-6.11-12.67-4.71-13.9-6.26-28.15-5.02-42.78,1.06-12.57,3.4-24.84,7.37-36.81,1.97-5.96,4.59-11.59,8.29-16.67,4.36-6,9.96-10.39,17.25-12.2,9.77-2.43,18.83-.91,27.03,5.19,4.9,3.64,7.48,8.62,8.86,14.37,1.38,5.75,1.18,11.6.83,17.43-.62,10.37-1.16,20.75-2.23,31.09-1.06,10.34-1.97,20.69-2.94,31.03-.06.63-.03,1.29-.39,1.86-2.6-.7-5.21-1.3-7.91-1.47-4.73-.29-9.07,1.14-13.33,2.94-1.94-1.78-2.27-4.18-2.32-6.58-.09-4.31-.1-8.63.24-12.94.2-2.56.16-5.12-.62-7.6-.78-2.49-2.35-3.68-4.94-3.73-1.44-.03-2.88.09-4.31.14-3.05.12-3.07.12-2.76-2.95.44-4.37.99-8.73,1.34-13.11.11-1.4.58-2.16,1.85-2.7,3.75-1.59,7.41-3.4,11.2-4.89,3.27-1.28,4.5-4.12,5.87-6.89.45-.9.11-1.89-.29-2.79-.53-1.2-1.4-2.14-2.51-2.83-1.36-.84-2.8-1.55-4.11-2.46-4.5-3.12-9.36-5.45-14.64-6.91-1.24-.35-2.38-.19-3.42.55-.92.65-1.7,1.47-2.31,2.42-4.37,6.83-7.87,14.1-10.49,21.76-1.63,4.76,1.52,8.3,6.54,7.67.67-.08,1.34-.54,2.03-.16.32.78.01,1.47-.06,2.17-.41,3.89-1.18,7.76-.77,11.69.61,5.84,4.52,8.63,10.21,7.28,1.7-.4,3.35-1.05,5.03-1.57,1.72-.53,1.91-.44,2.17,1.36.21,1.42.35,2.86.39,4.29.07,3.04.12,6.08.05,9.11-.1,4.12.33,8.13,1.92,11.97-1-.11-1.9.32-2.74.72-3.51,1.68-7.04,3.34-10.44,5.24-2.97,1.66-5.83,3.51-8.49,5.7-1.85,1.52-3.29,3.47-5.33,4.74Z"/>
  <path class="cls-2" d="m315.7,496.07c-1.59-3.84-2.02-7.85-1.92-11.97.07-3.04.02-6.08-.05-9.11-.03-1.43-.18-2.87-.39-4.29-.27-1.8-.45-1.89-2.17-1.36-1.68.51-3.33,1.16-5.03,1.57-5.7,1.35-9.6-1.45-10.21-7.28-.41-3.94.35-7.81.77-11.69.07-.7.39-1.39.06-2.17-.69-.38-1.36.08-2.03.16-5.02.63-8.17-2.91-6.54-7.67,2.62-7.66,6.13-14.92,10.49-21.76.61-.95,1.38-1.76,2.31-2.42,1.04-.74,2.18-.9,3.42-.55,5.28,1.47,10.14,3.79,14.64,6.91,1.31.91,2.75,1.62,4.11,2.46,1.11.69,1.98,1.62,2.51,2.83.4.89.74,1.88.29,2.79-1.38,2.77-2.61,5.61-5.87,6.89-3.79,1.49-7.45,3.3-11.2,4.89-1.27.54-1.74,1.3-1.85,2.7-.34,4.38-.89,8.74-1.34,13.11-.31,3.06-.29,3.06,2.76,2.95,1.44-.06,2.88-.17,4.31-.14,2.59.05,4.16,1.24,4.94,3.73.78,2.48.82,5.05.62,7.6-.34,4.31-.32,8.63-.24,12.94.05,2.4.38,4.8,2.32,6.58,1.29,1.45,3.18,1.71,4.84,2.42,2.39,1.55,3.57,3.89,4.27,6.55.14.52.02,1.13.55,1.5.57,3.11,1.26,6.18,2.81,9,.6,1.1,1.32,2.18,1.54,3.45-.67,1.66-1.71,3.08-2.96,4.35-1-.06-1.55-.81-2.08-1.47-1.85-2.32-3.23-4.9-4.1-7.73-.53-1.72-.94-3.47-1.4-5.21-.44-5.16-1.34-6.4-5.55-7.71-.89-.94-1.57-2.07-2.63-2.85Z"/>
  <path class="cls-6" d="m323.88,506.63c.46,1.74.87,3.49,1.4,5.21.87,2.83,2.25,5.42,4.1,7.73.53.66,1.08,1.42,2.08,1.47-5.9,7.16-13.22,11.04-22.73,9.65-2.65-.39-4.97-1.67-7.12-3.2-2.33-1.66-4.52-3.49-6.17-5.88,1.25-1.49,3.34-1.86,4.56-3.39,1.28-1.62,3.03-2.6,4.91-3.27,6.52-2.34,12.66-5.55,18.99-8.33Z"/>
  <path class="cls-10" d="m323.88,506.63c-6.33,2.78-12.46,5.99-18.99,8.33-1.88.67-3.63,1.65-4.91,3.27-1.22,1.54-3.3,1.91-4.56,3.39-1.94-1.85-3.54-3.97-4.86-6.3.29-.11.66-.13.87-.33,1.92-1.83,3.71-3.79,5.92-5.31,2.68-1.85,5.12-4.03,8.07-5.51,4.17-2.09,8.44-3.9,12.9-5.23,4.21,1.3,5.11,2.55,5.55,7.71Z"/>
  <path class="cls-7" d="m318.33,498.92c-4.47,1.34-8.74,3.15-12.9,5.23-2.95,1.48-5.39,3.66-8.07,5.51-2.2,1.52-4,3.48-5.92,5.31-.21.2-.58.23-.87.33-.81-.82-1.49-1.74-1.87-2.84,2.04-1.28,3.48-3.23,5.33-4.74,2.66-2.19,5.52-4.04,8.49-5.7,3.4-1.89,6.93-3.55,10.44-5.24.84-.4,1.74-.83,2.74-.72,1.07.78,1.74,1.91,2.63,2.85Z"/>
  <path class="cls-10" d="m330.07,504.24c-.53-.37-.42-.99-.55-1.5-.7-2.66-1.87-5-4.27-6.55.06-.4.15-.87.58-.95,2.01-.38,4.02-.95,6.04-.95,1.27,0,2.68-.27,3.86.18,1.78.68,3.8.79,5.34,2.09,0,1.65-.32,3.25-.92,4.79-3.56.28-6.78,1.7-10.08,2.89Z"/>
  <path class="cls-6" d="m330.07,504.24c3.3-1.19,6.52-2.61,10.08-2.89-.88,5.5-2.71,10.64-5.73,15.34-.23-1.28-.94-2.35-1.54-3.45-1.55-2.82-2.23-5.89-2.81-9Z"/>
  <path class="cls-7" d="m341.06,496.56c-1.53-1.31-3.55-1.41-5.34-2.09-1.18-.45-2.59-.18-3.86-.18-2.01,0-4.03.57-6.04.95-.42.08-.51.55-.58.95-1.67-.7-3.55-.97-4.85-2.42,4.26-1.79,8.6-3.23,13.33-2.94,2.7.17,5.32.76,7.91,1.47.06,1.46-.15,2.88-.59,4.26Z"/>
  <path class="cls-10" d="m463.96,506.5c-.04-.64.33-1.11.79-1.39,1.31-.8,1.77-2.34,3.02-3.23.84-.61.65-1.73.05-2.6-1.39-2.02-.78-3.9.34-5.75,1.67-2.74,4.19-4.65,6.63-6.63,2.01-1.63,4.24-2.95,6.43-4.34.77-.49,1.7-.38,2.42-.9.72,1.64.82,3.47,1.83,5.05,1.03,1.59,2.49,2.66,3.93,3.71,1.54,1.12,2.61,2.48,3.3,4.21-6.36,2.64-12.61,5.52-19.33,7.27-3.04.79-6.1,1.8-8.34,4.28-.28.31-.66.41-1.08.32Z"/>
</svg>