<?xml version="1.0" encoding="UTF-8"?>
<svg id="_图层_1" data-name="图层 1" xmlns="http://www.w3.org/2000/svg" viewBox="0 0 960 960">
  <defs>
    <style>
      .cls-1 {
        fill: #fefefe;
      }

      .cls-1, .cls-2, .cls-3, .cls-4, .cls-5, .cls-6, .cls-7, .cls-8, .cls-9, .cls-10, .cls-11, .cls-12, .cls-13 {
        stroke-width: 0px;
      }

      .cls-2 {
        fill: #b73b97;
      }

      .cls-3 {
        fill: #fba9e1;
      }

      .cls-4 {
        fill: #f3d6aa;
      }

      .cls-5 {
        fill: #bb3a98;
      }

      .cls-6 {
        fill: #fdabe6;
      }

      .cls-7 {
        fill: #040304;
      }

      .cls-8 {
        fill: #030203;
      }

      .cls-9 {
        fill: #050404;
      }

      .cls-10 {
        fill: #ba813d;
      }

      .cls-11 {
        fill: #ba3997;
      }

      .cls-12 {
        fill: #f4d6aa;
      }

      .cls-13 {
        fill: #fe72d7;
      }
    </style>
  </defs>
  <path class="cls-9" d="m501.36,563.71c-.25.4-.57.78-.75,1.21-4.58,10.98-12.2,19.58-21.23,27.07-9.17,7.61-19.7,12.63-30.87,16.54-21.29,7.44-43.2,9.9-65.61,8.36-8.62-.59-17.13-1.99-25.4-4.63-8.8-2.81-16.31-7.62-22.56-14.41-6.66-7.23-10.63-15.67-11.23-25.57,0-3.31.37-6.59,1.15-10.12-3.41.76-6.44,1.38-9.51,1.8-9.21,1.25-18.31.8-27.21-2-12.65-3.97-22.53-11.69-30.05-22.54-.53-.76-.81-1.77-1.89-2.05-.21-.51-.37-1.05-.64-1.53-11.82-20.99-13.31-43.06-6.89-65.94,1.4-4.99,3.28-9.82,5.55-14.49.55-1.13,1.01-2.29,1.36-3.5.76-.01.77-.72,1.01-1.16,1.71-3.08,3.5-6.1,5.51-8.98,10.29-14.76,23.43-26.1,40.09-33.13,8.94-3.77,18.29-5.61,28-5.61,1.91,0,1.92,0,2.56-1.9.67-1.98,1.66-3.8,2.82-5.53,2.54-3.8,5.42-7.32,8.64-10.56,22.46-22.58,49.75-33.84,81.46-34.51,10.94-.23,21.72,1.17,32.03,4.99,12.34,4.56,20.65,13.3,25.37,25.51.71,1.83.65,1.85,2.63,1.36.31-.08.62-.15.93-.23,13.92-3.52,27.93-4.07,42.04-1.3,3.04.6,6.06,1.33,9.09,2,0,0,0,0,0,0,.39.49.93.54,1.5.5,3.18,1.26,6.42,2.41,9.54,3.81,19.63,8.82,34.2,22.77,42.47,42.79,7.92,19.17,7.68,38.6.96,58.08-1.64,4.77-3.73,9.34-6.14,13.77-.49.91-.92,1.86-1.37,2.79-.62.31-.81.97-1.14,1.49-7.1,11.08-15.9,20.54-26.64,28.17-15.54,11.05-32.69,17.82-51.77,19.44-1.85.16-1.89.16-1.94,1.9-.06,1.94-.62,3.77-1.16,5.6-.25.84-.74,1.6-.75,2.5Zm-101.77-41.27c-.55,2.27-.3,4.59-.23,6.88.1,3.11-.85,5.96-1.73,8.84-.37,1.22-1.21,2.05-2.59,2.1-1.26.05-2.19-.57-2.63-1.69-1.02-2.57-2.29-5.09-2.4-7.94-.11-2.86-.2-5.72-.31-8.57.24-2.29.46-4.59.75-6.87.14-1.09-.19-1.69-1.33-1.73-.4-.02-.79-.11-1.19-.13-1.71-.06-3.52-1.81-4.91-.75-1.25.96-1.69,2.98-2.49,4.53-.46.75-.92,1.5-1.38,2.24-10.62,16.87-24.14,30.53-42.66,38.69-1.02.45-1.69,1.13-2.16,2.11-.49,1.02-.79,2.08-.92,3.2-1.14,9.76,1.57,18.37,7.98,25.76,5.47,6.31,12.23,10.7,20.29,13.03,15.73,4.53,31.79,5.29,47.99,4.03,13.32-1.04,26.15-4.36,38.62-9.03,11.13-4.17,21.08-10.28,29.42-18.87,6.38-6.57,11.54-13.88,14.2-22.75.13-.43.48-.84.06-1.44-.46-.05-1-.14-1.56-.17-5.59-.4-11.12-1.19-16.54-2.64-22.2-5.96-39.73-18.24-51.64-38.14-.28-.47-.47-1.02-.98-1.33-1.51-3.19-3.01-6.38-4.49-9.49-.35.07-.45.06-.5.1-4.57,4.01-9.31,7.75-15.16,9.77-.58.2-.89.6-.95,1.24-.28,3.01-.82,6-.55,9.04Zm188.97-63.25c-.1-1.92-.18-3.83-.32-5.75-.94-13.6-5.42-25.94-13.73-36.73-14.26-18.54-33.55-27.55-56.59-28.97-13.42-.82-26.55,1.12-38.99,6.22-31.98,13.09-52.7,35.83-59.34,70.36-.48,2.48-.84,4.97-.6,7.59.23,2.54,1.26,3.34,3.58,3.96,6.09,1.64,8.23,6.96,5.35,12.57-.88,1.72-2.02,3.29-3.33,4.67-1.22,1.29-1.23,2.46-.65,4.09,6.63,18.66,19.27,31.86,37.02,40.09,19.5,9.04,39.79,10,60.4,4.38,22.3-6.09,40.13-18.66,53.06-37.89,9.05-13.45,14.05-28.26,14.15-44.6Zm-335.08,37.43c.08,6.67.99,13.14,2.78,19.48,4.38,15.62,13.61,27.35,28.25,34.5,14.92,7.28,30.24,7.55,45.54,1.35,20.51-8.31,35.01-23.02,44.56-42.83.49-1.02.28-1.52-.61-2.13-2.38-1.64-4.53-3.57-6.04-6.08-2.41-4.02-2.41-8.02.25-11.94,1.78-2.62,4.09-4.69,6.8-6.31,2.13-1.28,4.4-2.3,6.8-2.93,1.36-.36,1.9-1,1.95-2.47.15-5.04.14-10.07-.45-15.09-1.16-9.91-4-19.27-9.57-27.6-12.5-18.69-29.92-26.68-52.27-23.5-9.73,1.39-18.73,4.96-26.81,10.43-26.57,17.97-39.53,43.48-41.17,75.12Zm220.07-110.31c-1.77-2.85-3.38-5.5-5.05-8.11-1.91-3-4.37-5.47-7.2-7.63-5.75-4.38-12.34-6.66-19.35-7.84-19.58-3.28-38.57-.72-56.93,6.45-16.34,6.38-29.81,16.87-41.24,30.06-1.19,1.37-2.35,2.78-3.25,4.55.89.23,1.57.41,2.25.57,19.53,4.33,33.76,15.41,42.4,33.46,5.64,11.77,7.83,24.26,7.05,37.27-.12,2.03-.09,2.09,1.88,1.71,3.45-.66,6.92-1.24,10.43-1.53,2.07-.17,4.14-.3,6.21-.44.67-.05,1.29-.13,1.33-1.01.1-2.15.8-4.21.8-6.4.01-8.07,1.53-15.9,4.33-23.45,9.3-25.03,26.23-43.12,50.11-54.85,1.93-.95,3.92-1.79,6.22-2.83Z"/>
  <path class="cls-13" d="m632.49,337.58c-2.08.4-3.71-.52-5.24-1.76-4.21-3.43-8.38-6.9-12.64-10.26-9.44-7.43-19.57-13.79-30.03-19.66-12-6.73-24.36-12.74-37.08-17.96-18.27-7.49-36.93-13.81-56.4-17.47-6.59-1.24-13.17-2.51-19.84-3.11-5.24-.47-10.51-.78-15.8-.58-.99.04-2.09.32-2.96-.5,2.42-.26,4.38-1.42,5.98-3.2,1.6-1.78,3.25-3.53,4.73-5.41,7.01-8.92,13.55-18.19,19.72-27.72,16.02-24.77,30.63-50.35,44.28-76.49,1.84-3.53,3.56-7.13,5.69-10.5.49,0,.9-.2,1.33-.45,7.12-4.22,14.35-8.21,21.91-11.63,8.85-4.01,17.87-7.53,27.12-10.46.84.52,1.34,1.36,1.94,2.1,6.44,7.99,11.97,16.58,16.83,25.62,6.16,11.45,10.63,23.57,14.74,35.87,4.78,14.3,8.48,28.82,10.52,43.75,1.1,8.09,1.53,16.23,2,24.37.67,11.58,1.19,23.15.65,34.75-.54,11.42-.98,22.84-1.08,34.28-.02,3.04.03,6.07.42,9.1.36,2.77,1.32,5.25,3.22,7.33Zm-28.04-96.65c.17-1.85-.32-3.66-.33-5.48-.03-8.7-.88-17.33-1.94-25.96-.76-6.17-1.88-12.27-3.27-18.32-1.43-6.25-3.52-12.28-6.28-18.04-2.2-4.61-4.82-8.98-8.62-12.57-5.56-5.26-13.6-6.05-20.05-1.98-4.83,3.05-8.11,7.46-10.79,12.29-5.55,10-10.04,20.5-13.34,31.47-3.95,13.14-7.97,26.26-12.65,39.16-1.76,4.86-3.75,9.66-6.56,14.06-2.26,3.53-1.22,7.02,2.4,9.12,3.95,2.28,8.16,4.03,12.25,6.02,2.86,1.39,5.81,2.65,8.88,3.54,10.03,2.91,20.07,5.75,29.97,9.12,4.2,1.43,8.61,2.32,13.15,2.18,4.14-.13,7.37-1.75,9.73-5.15,2.36-3.41,3.61-7.27,4.61-11.23,2.35-9.27,2.35-18.78,2.83-28.23Z"/>
  <path class="cls-13" d="m363.02,270.98c.48,2.56-.53,4.7-2.43,6.14-5.65,4.29-11.45,8.39-17.2,12.55-.19.14-.44.18-.66.27-.06-.23-.13-.46-.18-.7-.8-4.06-1.43-8.16-2.83-12.08-1.52-4.26-3.5-8.22-6.91-11.32-2.98-2.71-6.56-4.1-10.51-3.77-3.64.3-6.84,2-9.58,4.5-7.43,6.76-12.24,15.27-16.17,24.34-2.29,5.28-3.81,10.8-5.08,16.41-1.23,5.43-2.99,10.74-3.65,16.3-.1.81-.52,1.5-1.11,2.08-3.81,3.76-7.08,8-10.62,11.99-5.31,5.98-10.17,12.29-14.21,19.19-2.01,3.43-4.02,6.9-4.9,10.87-.14.63-.42,1.23.19,1.76-4.17,4.52-8.88,8.49-13.2,12.86-4.39,4.43-8.6,9-12.46,13.9-.69.88-1.21,1.88-1.91,2.75-.88,1.1-1.61,2.43-3.23,2.64.25-3.05-.34-6.05-.47-9.08-.81-19.02-.15-38,1.65-56.95,1.29-13.6,2.97-27.15,6.12-40.47,1.17-4.96,2.15-9.97,3.66-14.84.26-.29.58-.55.78-.88,1.93-3.2,3.84-6.42,5.77-9.62,4.61-7.64,9.61-15.02,14.94-22.16,4.42-5.92,8.95-11.76,13.81-17.35,3.4-3.9,6.71-7.88,10.32-11.57,6.3-6.43,12.52-12.95,19.5-18.68,3.74-3.07,7.48-6.17,11.15-9.33,1.86-1.6,4.15-2.69,5.64-4.74,2.53,3.4,4.51,7.14,6.48,10.87,7.2,13.64,13.48,27.69,19.19,42.01,3.1,7.78,6.13,15.6,9.56,23.25,1.02,2.27,2.26,4.39,3.89,6.28,1.25,1.45,2.71,2.45,4.68,2.59Z"/>
  <path class="cls-7" d="m632.49,337.58c-1.9-2.08-2.87-4.56-3.22-7.33-.39-3.02-.45-6.06-.42-9.1.09-11.43.54-22.86,1.08-34.28.54-11.6.02-23.18-.65-34.75-.47-8.14-.9-16.29-2-24.37-2.04-14.94-5.74-29.46-10.52-43.75-4.11-12.31-8.59-24.42-14.74-35.87-4.86-9.03-10.39-17.62-16.83-25.62-.6-.74-1.1-1.58-1.94-2.1-2.36-3.26-5.21-6.02-8.58-8.22-3.34-2.17-7-2.84-10.98-2.52-6.19.51-11.01,3.37-15.01,7.97-6.6,7.61-11.39,16.33-15.79,25.31-2.13,3.37-3.85,6.97-5.69,10.5-13.65,26.14-28.26,51.72-44.28,76.49-6.16,9.53-12.7,18.79-19.72,27.72-1.48,1.88-3.12,3.63-4.73,5.41-1.6,1.78-3.55,2.94-5.98,3.2-1.19-.27-2.28-.73-3.15-1.61-1.72-1.76-1.79-4.25.03-6.78,4.35-6.03,8.22-12.39,12.32-18.58,13.86-20.93,26.96-42.32,39.25-64.22,8.14-14.5,15.77-29.26,23.48-43.99,3.79-7.23,7.8-14.32,13.1-20.6,1.6-1.9,3.27-3.72,5.13-5.37,9.06-8.08,19.63-10.22,31.28-7.76,4.48.95,8.26,3.36,11.76,6.22,3.42,2.8,6.37,6.06,9.16,9.46,10.2,12.44,18.28,26.18,24.98,40.78,4.32,9.4,7.34,19.25,10.68,29,4.87,14.19,8.17,28.74,10.19,43.59,1.35,9.91,1.61,19.91,2.26,29.88,1.08,16.31.32,32.6-.29,48.9-.2,5.35-.24,10.71-.36,16.06-.07,3.2-.29,6.39-.81,9.55-.32,1.94-1.06,3.68-2.41,5.13-2.38,2.55-4.2,2.79-6.6,1.64Z"/>
  <path class="cls-7" d="m363.02,270.98c-1.96-.13-3.42-1.14-4.68-2.59-1.64-1.89-2.88-4.01-3.89-6.28-3.43-7.65-6.45-15.46-9.56-23.25-5.71-14.32-11.99-28.37-19.19-42.01-1.97-3.73-3.95-7.47-6.49-10.87-3.61-5.78-7.78-11.11-12.73-15.8-.58-.55-1.23-1.03-1.88-1.48-4.21-2.95-8.71-3.65-13.63-1.92-5.54,1.95-9.93,5.36-13.46,9.98-7.46,9.77-13.42,20.4-17.92,31.84-7.28,18.52-13.75,37.3-18.63,56.6-1.27,5.03-2.76,10-3.66,15.12-1.52,4.88-2.49,9.88-3.66,14.84-3.14,13.32-4.82,26.86-6.12,40.47-1.8,18.95-2.46,37.93-1.65,56.95.13,3.03.71,6.03.47,9.08-.23.33-.44.67-.68.98-1.77,2.27-4.4,2.41-6.38.33-1.08-1.13-1.61-2.55-2.06-4.01-1.48-4.77-1.86-9.72-2.24-14.66-1.29-16.8-.31-33.54,1.19-50.27,1-11.15,2.18-22.28,4.51-33.23,6.99-32.87,15.87-65.18,28.56-96.36,4.36-10.7,9.87-20.77,16.43-30.26,1.77-2.57,3.67-5.04,5.78-7.34,5.58-6.08,12.49-9.91,20.49-11.7,6.61-1.48,12.86-.23,18.7,3.12,3.72,2.13,6.83,4.98,9.68,8.14,7.98,8.83,14.67,18.52,19.94,29.2,7.04,14.27,13.22,28.91,18.57,43.89,1.83,5.11,3.73,10.2,5.55,15.32,1.35,3.79,2.22,7.65,1.85,11.74-.2,2.2-1.03,3.76-3.21,4.43Z"/>
  <path class="cls-5" d="m257.15,369.51c-.61-.53-.33-1.12-.19-1.76.88-3.97,2.89-7.44,4.9-10.87,4.04-6.9,8.9-13.2,14.21-19.19,3.54-3.99,6.81-8.23,10.62-11.99.59-.58,1.01-1.26,1.11-2.08.67-5.56,2.42-10.87,3.65-16.3,1.28-5.62,2.79-11.14,5.08-16.41,3.93-9.07,8.75-17.57,16.17-24.34,2.74-2.5,5.94-4.2,9.58-4.5,3.95-.33,7.53,1.06,10.51,3.77,3.41,3.1,5.39,7.06,6.91,11.32,1.4,3.92,2.04,8.02,2.83,12.08.05.23.12.46.18.7-1.67,1.85-3.81,3.13-5.77,4.63-11.38,8.7-21.94,18.34-32.21,28.3-15.6,15.13-31.14,30.33-46.52,45.68-.34.34-.71.64-1.07.96Z"/>
  <path class="cls-3" d="m537.81,382.86c-3.03-.67-6.05-1.41-9.09-2-14.11-2.77-28.12-2.23-42.04,1.3-.31.08-.62.15-.93.23-1.98.49-1.92.47-2.63-1.36-4.72-12.21-13.03-20.94-25.37-25.51-10.31-3.81-21.09-5.22-32.03-4.99-31.72.67-59,11.93-81.46,34.51-3.22,3.24-6.1,6.76-8.64,10.56-1.16,1.73-2.15,3.55-2.82,5.53-.64,1.9-.65,1.9-2.56,1.9-9.71,0-19.06,1.84-28,5.61-16.66,7.03-29.8,18.37-40.09,33.13-2.01,2.88-3.81,5.91-5.51,8.98-.24.43-.25,1.14-1.01,1.16.03-2.05.77-3.91,1.58-5.73,3.09-6.97,7.08-13.44,11.96-19.25,3.79-4.52,8.19-8.49,13-11.97,4.14-3,8.45-5.73,12.98-8.09,6.83-3.55,14.08-5.99,21.58-7.65,2.71-.6,5.42-1.29,8.21-1.53,1.1-.09,1.8-.76,2.47-1.66,4.76-6.4,9.83-12.54,15.54-18.14,4.42-4.34,9.59-7.64,14.74-10.97,8.44-5.46,17.83-8.86,27.13-12.45,6.79-2.62,13.77-4.55,20.89-5.94,4.28-.84,8.59-1.56,12.99-1.76,2.38-.11,4.76-.4,7.15-.33,8.31.21,16.49,1.33,24.47,3.69,5.21,1.54,10.31,3.35,15.13,5.9,7.78,4.12,14.66,9.31,19.77,16.61.86,1.23,1.92,1.83,3.45,1.59,6.27-.98,12.6-.61,18.88-.42,7.25.22,14.44,1.18,21.3,3.76,2.86,1.07,5.45,2.65,8.04,4.22.4.24.78.57.92,1.07Z"/>
  <path class="cls-2" d="m501.36,563.71c0-.91.5-1.67.75-2.5.54-1.84,1.1-3.66,1.16-5.6.05-1.74.1-1.75,1.94-1.9,19.08-1.63,36.23-8.39,51.77-19.44,10.74-7.63,19.54-17.09,26.64-28.17.34-.53.52-1.18,1.14-1.49.22.98-.13,1.89-.37,2.81-1.07,4.04-2.69,7.87-5.05,11.31-6.2,9.07-13.25,17.39-21.87,24.28-10.84,8.66-23.18,14.29-36.53,17.78-6.41,1.67-12.91,2.91-19.58,2.94Z"/>
  <path class="cls-2" d="m256.23,537.37c1.07.27,1.36,1.28,1.89,2.05,7.52,10.85,17.4,18.56,30.05,22.54,8.89,2.8,17.99,3.24,27.21,2,3.07-.41,6.1-1.03,9.51-1.8-.78,3.53-1.15,6.81-1.15,10.12-3.79.59-7.56,1.1-11.42,1.14-11.53.13-22.03-3.06-31.74-9.22-7.61-4.83-13.91-10.95-19-18.35-1.89-2.75-3.8-5.49-5.33-8.47Z"/>
  <path class="cls-3" d="m539.3,383.36c-.57.04-1.11,0-1.5-.5.61-.16,1.11-.01,1.5.5Z"/>
  <path class="cls-1" d="m588.56,459.19c-.1,16.34-5.1,31.15-14.15,44.6-12.93,19.22-30.75,31.8-53.06,37.89-20.6,5.62-40.9,4.66-60.4-4.38-17.75-8.23-30.4-21.43-37.02-40.09-.58-1.62-.56-2.8.65-4.09,1.31-1.39,2.45-2.95,3.33-4.67,2.88-5.61.74-10.94-5.35-12.57-2.32-.62-3.36-1.42-3.58-3.96-.23-2.63.13-5.11.6-7.59,6.64-34.52,27.37-57.27,59.34-70.36,12.45-5.1,25.57-7.04,38.99-6.22,23.04,1.42,42.32,10.43,56.59,28.97,8.31,10.8,12.79,23.13,13.73,36.73.13,1.91.21,3.83.32,5.75Zm-53.42-3.85c-2.25-1.81-4.82-2.79-7.67-3.09-2.7-.29-5.4-.64-8.1-.93-15.53-1.67-29.09,3.57-41.69,12.03-2.53,1.7-4.68,3.88-6.23,6.56-2.74,4.72-1.94,10.03,2.06,13.75,1.61,1.49,3.49,2.52,5.52,3.31,3.38,1.33,6.91,1.97,10.49,2.37,15.51,1.73,30.25-1.08,44.32-7.65,2.61-1.22,5.2-2.47,7.38-4.41,1.55-1,2.78-2.33,3.8-3.83,3.18-4.67,2.21-10.43-2.16-14.03-2.32-1.91-5.02-2.98-7.73-4.09Z"/>
  <path class="cls-1" d="m253.49,496.62c1.64-31.64,14.59-57.15,41.17-75.12,8.09-5.47,17.09-9.04,26.81-10.43,22.35-3.19,39.77,4.81,52.27,23.5,5.57,8.33,8.41,17.69,9.57,27.6.59,5.02.61,10.04.45,15.09-.04,1.46-.59,2.11-1.95,2.47-2.4.64-4.67,1.65-6.8,2.93-2.71,1.62-5.02,3.69-6.8,6.31-2.66,3.92-2.67,7.91-.25,11.94,1.51,2.52,3.65,4.44,6.04,6.08.89.61,1.1,1.11.61,2.13-9.54,19.81-24.05,34.52-44.56,42.83-15.29,6.2-30.62,5.93-45.54-1.35-14.64-7.15-23.87-18.88-28.25-34.5-1.78-6.35-2.7-12.82-2.78-19.48Zm89.1-4.37c1.82-1.5,2.99-3.48,3.78-5.64.79-2.17,1.14-4.39.6-6.76-.6-2.67-2.02-4.76-3.82-6.69-2.57-2.24-5.52-3.76-8.8-4.69-4.2-1.19-8.47-1.58-12.8-1.32-3.82.23-7.65.49-11.47.65-6.89.29-13.12,2.62-18.7,6.62-5.73,4.11-9.93,9.47-12.3,16.13-3.16,8.89,1.06,16.67,10.17,19.02,3.28.85,6.62.97,9.99.69,4.39-.36,8.7-1.16,12.96-2.25,9.2-2.35,17.9-5.84,25.66-11.43,1.75-1.26,3.45-2.57,4.74-4.33Z"/>
  <path class="cls-4" d="m421.24,511.79c.51.31.7.86.98,1.33,11.91,19.9,29.44,32.18,51.64,38.14,5.42,1.45,10.95,2.24,16.54,2.64.55.04,1.1.12,1.56.17.43.6.07,1.01-.06,1.44-2.67,8.87-7.82,16.18-14.2,22.75-8.34,8.59-18.29,14.7-29.42,18.87-12.47,4.67-25.29,7.99-38.62,9.03-16.21,1.26-32.26.5-47.99-4.03-8.06-2.32-14.82-6.71-20.29-13.03-6.4-7.39-9.11-16-7.98-25.76.13-1.12.43-2.18.92-3.2.47-.98,1.14-1.66,2.16-2.11,18.51-8.16,32.04-21.83,42.66-38.69.47-.74.92-1.49,1.38-2.24,2.87,2,5.75,3.99,9.17,4.95.1,2.86.2,5.72.31,8.57.11,2.85,1.37,5.37,2.4,7.94.44,1.11,1.37,1.74,2.63,1.69,1.38-.05,2.22-.88,2.59-2.1.88-2.88,1.83-5.74,1.73-8.84-.07-2.28-.32-4.6.23-6.88.32,0,.65.04.96-.01,6.6-1.09,12.49-3.81,17.76-7.88,1.05-.81,2.29-1.49,2.94-2.76Zm-41.08,61.74c-.36,1.16-1.26,1.89-1.84,2.82-3.57,5.75-1.21,11.91,5.3,13.8,2.11.61,4.27.75,6.41.51,3.17-.36,6.33-.86,9.49-1.33,2.68-.4,5.38-.77,7.98-1.57,1.43-.44,2.6-1.21,3.28-2.59.39-.79.42-1.54-.17-2.23-.6-.7-1.42-.85-2.17-.43-1.2.67-2.47.59-3.73.58-2.48-.03-4.96-.05-7.42-.24-3.17-.23-6.26-.92-9.27-1.86.03-.92.64-1.25,1.09-1.68,1.64-1.54,3.53-2.74,5.44-3.91.95-.58,1.92-1.15,2.72-1.95,1.47-1.49,2.01-3.27,1.36-5.28-.66-2.03-2.23-3.09-4.27-3.36-1.02-.13-2.07-.04-3.11.04-2.48.2-4.95.22-7.42-.09-.49-.06-1.17.17-1.45-.7,1.61-1.64,3.62-2.74,5.73-3.69,2.93-1.31,6.04-2.06,9.15-2.77,1.42-.33,2.78-.79,3.94-1.67,1.24-.94,1.22-2.01,0-2.94-.98-.75-2.15-1.02-3.33-1.25-3.18-.65-6.36-.58-9.53.04-5.73,1.12-10.8,3.55-14.56,8.12-3.83,4.65-2.36,10.16,3.18,12.52,1.01.43,2.08.73,3.2,1.12Z"/>
  <path class="cls-12" d="m473.56,386.31c-2.3,1.04-4.28,1.88-6.22,2.83-23.88,11.73-40.81,29.82-50.11,54.85-2.8,7.55-4.32,15.38-4.33,23.45,0,2.19-.7,4.25-.8,6.4-.04.89-.66.97-1.33,1.01-2.07.14-4.15.26-6.21.44-3.51.29-6.97.86-10.43,1.53-1.97.38-2,.32-1.88-1.71.78-13.02-1.41-25.5-7.05-37.27-8.65-18.05-22.88-29.14-42.4-33.46-.69-.15-1.36-.34-2.25-.57.9-1.77,2.06-3.18,3.25-4.55,11.43-13.19,24.9-23.68,41.24-30.06,18.36-7.18,37.35-9.73,56.93-6.45,7.01,1.17,13.61,3.46,19.35,7.84,2.83,2.16,5.29,4.63,7.2,7.63,1.66,2.61,3.28,5.26,5.05,8.11Z"/>
  <path class="cls-10" d="m421.24,511.79c-.65,1.27-1.89,1.95-2.94,2.76-5.26,4.07-11.16,6.79-17.76,7.88-.31.05-.64.01-.96.01-.27-3.04.27-6.03.55-9.04.06-.63.38-1.04.95-1.24,5.85-2.02,10.59-5.76,15.16-9.77.05-.04.15-.03.5-.1,1.47,3.12,2.98,6.31,4.49,9.49Z"/>
  <path class="cls-10" d="m389.71,522.06c-3.43-.96-6.3-2.96-9.17-4.95.8-1.55,1.24-3.58,2.49-4.53,1.39-1.06,3.2.7,4.91.75.4.01.79.11,1.19.13,1.15.05,1.47.64,1.33,1.73-.29,2.29-.5,4.58-.75,6.87Z"/>
  <path class="cls-11" d="m604.45,240.93c-.48,9.45-.48,18.96-2.83,28.23-1,3.95-2.25,7.82-4.61,11.23-2.36,3.4-5.59,5.02-9.73,5.15-4.54.14-8.95-.75-13.15-2.18-9.89-3.37-19.94-6.21-29.97-9.12-3.07-.89-6.02-2.15-8.88-3.54-4.09-1.99-8.3-3.74-12.25-6.02-3.63-2.1-4.66-5.59-2.4-9.12,2.82-4.4,4.81-9.2,6.56-14.06,4.67-12.9,8.69-26.02,12.65-39.16,3.3-10.97,7.79-21.47,13.34-31.47,2.68-4.82,5.96-9.23,10.79-12.29,6.44-4.07,14.49-3.28,20.05,1.98,3.79,3.59,6.41,7.96,8.62,12.57,2.76,5.76,4.85,11.79,6.28,18.04,1.39,6.06,2.5,12.15,3.27,18.32,1.06,8.63,1.92,17.26,1.94,25.96,0,1.82.5,3.63.33,5.48Z"/>
  <path class="cls-6" d="m532.88,142.96c4.4-8.97,9.19-17.7,15.79-25.31,4-4.61,8.82-7.46,15.01-7.97,3.97-.33,7.64.34,10.98,2.52,3.37,2.19,6.21,4.96,8.58,8.22-9.25,2.93-18.27,6.45-27.12,10.46-7.56,3.42-14.79,7.41-21.91,11.63-.43.25-.84.44-1.33.45Z"/>
  <path class="cls-6" d="m237.31,280.31c.9-5.12,2.39-10.09,3.66-15.12,4.88-19.3,11.35-38.09,18.63-56.6,4.5-11.44,10.46-22.06,17.92-31.84,3.53-4.62,7.91-8.03,13.46-9.98,4.93-1.73,9.42-1.03,13.63,1.92.65.46,1.3.94,1.88,1.48,4.96,4.69,9.12,10.02,12.73,15.8-1.48,2.04-3.78,3.14-5.64,4.74-3.67,3.16-7.4,6.26-11.15,9.33-6.98,5.73-13.21,12.25-19.5,18.68-3.61,3.69-6.93,7.67-10.32,11.57-4.86,5.58-9.39,11.42-13.81,17.35-5.33,7.14-10.33,14.52-14.94,22.16-1.93,3.2-3.83,6.42-5.77,9.62-.2.33-.52.59-.78.88Z"/>
  <path class="cls-8" d="m541.22,477.29c-2.18,1.94-4.78,3.19-7.38,4.41-14.08,6.57-28.81,9.38-44.32,7.65-3.59-.4-7.12-1.05-10.49-2.37-2.02-.79-3.91-1.82-5.52-3.31-4-3.72-4.8-9.03-2.06-13.75,1.56-2.68,3.7-4.86,6.23-6.56,12.6-8.45,26.16-13.69,41.69-12.03,2.7.29,5.4.64,8.1.93,2.86.31,5.43,1.28,7.67,3.09-.49.85-1.44.96-2.2,1.34-2.52,1.25-4.9,2.69-6.7,4.93-3.98,4.96-2.65,11.18,3.02,14.09,2.25,1.16,4.69,1.55,7.18,1.6,1.59.04,3.19,0,4.78-.01Z"/>
  <path class="cls-13" d="m541.22,477.29c-1.59,0-3.19.05-4.78.01-2.5-.06-4.93-.45-7.18-1.6-5.67-2.91-7-9.13-3.02-14.09,1.79-2.24,4.17-3.67,6.7-4.93.77-.38,1.72-.49,2.2-1.34,2.71,1.11,5.41,2.17,7.73,4.09,4.36,3.6,5.34,9.36,2.16,14.03-1.02,1.5-2.25,2.83-3.8,3.83Z"/>
  <path class="cls-8" d="m342.58,492.25c-1.29,1.76-2.99,3.07-4.74,4.33-7.76,5.59-16.45,9.08-25.66,11.43-4.26,1.09-8.57,1.89-12.96,2.25-3.37.27-6.7.15-9.99-.69-9.11-2.35-13.33-10.13-10.17-19.02,2.36-6.66,6.56-12.02,12.3-16.13,5.58-4,11.81-6.32,18.7-6.62,3.83-.16,7.65-.42,11.47-.65,4.33-.26,8.61.13,12.8,1.32,3.28.93,6.23,2.45,8.8,4.69-.31,1.18-1.29.69-1.98.73-5.7.32-10.97,1.91-15.74,5.08-1.07.71-2.09,1.47-2.93,2.45-3,3.49-2.35,8.23,1.48,10.8,1.07.72,2.25,1.19,3.51,1.47,2.05.45,4.1.46,6.19.25,3.03-.3,5.93-1.21,8.92-1.68Z"/>
  <path class="cls-13" d="m342.58,492.25c-2.99.47-5.9,1.38-8.92,1.68-2.08.21-4.14.2-6.19-.25-1.26-.28-2.44-.75-3.51-1.47-3.83-2.57-4.48-7.31-1.48-10.8.84-.98,1.86-1.74,2.93-2.45,4.77-3.17,10.05-4.76,15.74-5.08.69-.04,1.68.44,1.98-.73,1.8,1.93,3.22,4.02,3.82,6.69.53,2.38.19,4.6-.6,6.76-.79,2.16-1.95,4.14-3.78,5.64Z"/>
  <path class="cls-9" d="m380.16,573.53c-1.13-.39-2.19-.69-3.2-1.12-5.54-2.36-7.01-7.87-3.18-12.52,3.76-4.57,8.83-7,14.56-8.12,3.17-.62,6.35-.69,9.53-.04,1.18.24,2.35.5,3.33,1.25,1.22.94,1.23,2,0,2.94-1.16.88-2.52,1.35-3.94,1.67-3.11.72-6.22,1.46-9.15,2.77-2.11.95-4.12,2.04-5.73,3.69.29.87.96.64,1.45.7,2.47.31,4.94.29,7.42.09,1.03-.08,2.09-.17,3.11-.04,2.05.27,3.62,1.32,4.27,3.36.65,2,.1,3.78-1.36,5.28-.79.81-1.76,1.37-2.72,1.95-1.91,1.17-3.8,2.37-5.44,3.91-.45.42-1.06.76-1.09,1.68,3,.94,6.09,1.62,9.27,1.86,2.47.18,4.95.2,7.42.24,1.26.02,2.54.1,3.73-.58.75-.42,1.57-.27,2.17.43.59.69.56,1.45.17,2.23-.68,1.39-1.85,2.15-3.28,2.59-2.61.8-5.3,1.17-7.98,1.57-3.16.47-6.31.98-9.49,1.33-2.15.24-4.31.1-6.41-.51-6.51-1.89-8.87-8.05-5.3-13.8.58-.93,1.49-1.66,1.84-2.82Z"/>
</svg>