<?xml version="1.0" encoding="UTF-8"?>
<svg id="_图层_1" data-name="图层 1" xmlns="http://www.w3.org/2000/svg" viewBox="0 0 960 960">
  <defs>
    <style>
      .cls-1 {
        fill: #fefefe;
      }

      .cls-1, .cls-2, .cls-3, .cls-4, .cls-5, .cls-6, .cls-7, .cls-8, .cls-9, .cls-10, .cls-11, .cls-12, .cls-13 {
        stroke-width: 0px;
      }

      .cls-2 {
        fill: #ba823d;
      }

      .cls-3 {
        fill: #030303;
      }

      .cls-4 {
        fill: #bb3a98;
      }

      .cls-5 {
        fill: #fdabe6;
      }

      .cls-6 {
        fill: #040304;
      }

      .cls-7 {
        fill: #fe72d8;
      }

      .cls-8 {
        fill: #050304;
      }

      .cls-9 {
        fill: #ba3997;
      }

      .cls-10 {
        fill: #f4d6aa;
      }

      .cls-11 {
        fill: #fc71d6;
      }

      .cls-12 {
        fill: #fe72d7;
      }

      .cls-13 {
        fill: #fcaae3;
      }
    </style>
  </defs>
  <path class="cls-3" d="m550.8,381.39c2.95.98,5.99,1.69,8.9,2.82,12.22,4.72,21.19,12.83,26.5,24.91,6.54,14.88,7.72,30.09,3.84,45.92-4.83,19.67-13.81,37.22-25.87,53.32-3.08,4.11-6.66,7.76-10.33,11.33-.57.55-1.21,1.03-1.77,1.5.41,1.06,1.22,1.04,1.83,1.3,5.22,2.23,10.55,4.23,14.99,7.91.68.56,1.4,1.08,1.89,1.82,1.33,2.02.68,4.16-1.53,5.14-.99.43-2.02.43-3.06.39-3.69-.14-7.32-.61-10.9-1.52-.77-.2-1.56-.33-2.34-.49-5.7-1.48-11.39-3.03-17.11-4.42-8.46-2.06-16.93-4.05-25.57-5.26-1.74-.24-1.94-.1-1.57,1.5.55,2.42.71,4.89,1.04,7.34.04,6.28-.83,12.42-2.93,18.37-3.22,9.15-8.69,16.92-15.35,23.79-9.57,9.86-20.59,17.64-33.7,22.26-13.03,4.59-25.96,9.49-39.46,12.61-9.98,2.3-20.03,4.35-30.33,4.07-17.91-.48-34.21-5.84-48.6-16.67-5.02-3.78-9.26-8.34-13.08-13.29-3.72-4.82-5.53-10.39-6.29-16.35-.87-6.72-.47-13.4.82-20.03.21-1.07.39-2.15.59-3.22,1.14-3.33,2.21-6.69,3.95-10.17-1.11.16-1.74.21-2.35.35-6.23,1.36-12.46,2.73-18.69,4.11-14.03,3.12-27.9,6.79-41.16,12.45-1.67.71-3.44,1.25-4.96,2.29-.61.17-1.22.38-1.84.5-1.11.22-2.09-.05-2.72-1.05-.62-.99-.47-1.99.19-2.92.77-1.07,1.88-1.71,2.99-2.35,3.88-2.24,8-3.98,12.13-5.7,1.17-.49,2.44-.77,3.56-1.65-2.04-.88-4.02-1.7-5.98-2.56-3.59-1.58-6.98-3.51-10.2-5.77-8.74-6.12-13.66-14.55-15.52-24.96-1.36-7.61-.75-15.13.66-22.64.72-3.85,1.67-7.65,2.66-11.44,2.41-9.22,6.25-17.77,11.58-25.65.35-.52.64-1.1.96-1.65.28-.08.42-.25.39-.55,0,0,.03-.05.03-.05.37-.17.59-.44.56-.87h0c.59-.19.77-.76,1.1-1.19,17.37-22.65,39.34-38.81,66.71-47.35,3.12-.97,6.28-1.85,9.44-2.7.85-.23,1.42-.42,1.41-1.51-.04-2.97,1.19-5.59,2.56-8.13,1.61-2.97,3.68-5.61,5.87-8.15,9.64-11.17,21.53-19.19,34.99-25.02,12.87-5.57,26.37-8.69,40.26-10.2,16.9-1.84,32.98.85,47.96,9.12,13.24,7.31,22.43,18.02,26.92,32.58.47,1.51.48,1.54,2.17,1.04,6.14-1.82,12.38-3.14,18.73-3.96,8.1-1.05,16.21-1.63,24.38-.83,3.58.35,7.09,1.08,10.65,1.53Zm-175.72,51.64c-2.25-.74-4.55-.8-6.88-.6-7.17.61-13.69,3.06-19.69,6.96-1.95,1.27-3.74,2.75-5.16,4.61-4.3,5.64-2.38,12.24,4.27,14.73,2.13.8,4.34,1.02,6.6,1.02,3.71,0,7.3-.76,10.9-1.52-2.44,7-5.75,13.5-10.8,19.02-.27.29-.56.57-.85.85-6.86,6.58-15.31,7.66-23.51,2.86-7.52-4.4-12.47-10.85-14.79-19.27-1.61-5.84-1.91-11.83-1.69-17.84.42-11.34,2.46-22.38,6.41-33.04.13-.34.4-.7.13-1.09-.16-.04-.32-.13-.44-.09-.68.21-1.37.44-2.04.7-20.05,7.87-36.57,20.49-49.87,37.34-6.91,8.75-11.98,18.46-14.53,29.42-.98,4.21-1.92,8.41-2.6,12.67-.98,6.11-1.3,12.23-.11,18.36,1.2,6.2,3.54,11.79,8.43,16.02,7.06,6.1,15.03,10.44,24.16,12.66,2.89.7,5.51.46,8.35-.38,17.53-5.2,35.2-9.89,52.9-14.5,7.11-1.85,14.16-4.03,21.59-4.18.78-.02,1.35-.24,1.77-.96,1.02-1.72,2.19-3.34,3.1-5.13.6-1.18.66-2.04-.29-3.21-3.82-4.69-4.45-9.98-2.28-15.55,2.09-5.39,5.84-9.33,11.18-11.57,1.53-.64,2.18-1.58,2.61-3.06,2.56-8.76,4.68-17.61,5.45-26.73.72-8.48.68-16.93-1.24-25.28-.7-3.03-1.5-6.02-3.04-8.76-.7.38-.78,1.08-1.06,1.63-2.34,4.63-4.66,9.27-6.99,13.91Zm4.69,87.14c-.58,1.49-1.35,2.93-1.71,4.47-.96,4.15-3.79,6.05-7.72,6.32-4.23.29-8.44.86-12.66,1.01-6.97.24-13.85,1.18-20.75,2.05-1.68.21-2.69.9-3.45,2.44-4.82,9.75-6.32,20-5.08,30.77.73,6.35,3.22,11.71,7.44,16.52,6.01,6.85,13.08,12.18,21.26,16.07,11.19,5.32,22.91,7.92,35.35,6.62,7.49-.79,14.84-2.28,22.14-4.1,13.62-3.39,26.54-8.73,39.47-14.05,10.21-4.2,19.05-10.44,27.04-17.91,7.08-6.61,12.23-14.5,14.77-23.98,1.74-6.49,2.33-13.03,1.42-19.71-.22-1.57.3-2.05-2.21-2.22-7.74-.53-15.47-1.05-23.23-1.09-16.8-.09-33.57.51-50.29,2.15-.96.09-1.91.15-2.85-.12-2.2-.64-2.84-2.81-1.28-4.48.53-.58,1.22-1.01,1.92-1.57-1.22-1.1-2.4-2.15-3.58-3.21-.51-.6-.98-1.24-1.53-1.8-1-1.01-1.4-3.02-2.7-3.13-1.33-.1-2.76,1.01-4.14,1.61-7.02,3.1-14.34,4.12-21.95,3.2-1.32-.16-2.81-1.16-3.9-.43-1.14.77-1.19,2.52-1.67,3.86-.08.22-.09.46-.13.7Zm142.93-83.66c-3.29,7.68-7.23,14.97-12.8,21.27-3.15,3.56-6.65,6.69-11.06,8.64-9.45,4.18-21.79,2.87-28.56-9.48-.85-1.54-1.54-3.16-2.08-4.84-1.1-3.37-1.63-6.83-1.87-10.35-.83-12.07,1.71-23.51,6.41-34.56.25-.58.87-1.12.5-1.96-.38.19-.67.31-.94.47-23.63,13.97-40.83,33.55-51.45,58.89-1.17,2.8-2.12,5.69-2.8,8.66-.18.81-.53,1.64-.25,2.63,2.06-.02,4.06.05,6,.56,5.98,1.55,9.08,6.58,7.76,12.61-.77,3.51-2.49,6.56-4.73,9.32-1.82,2.24-3.82,4.32-6.06,6.13-1.04.84-1.06,1.51-.4,2.59,2.08,3.41,4.98,6.02,8.01,8.52.59.49,1.16.34,1.79.21,1.8-.38,3.6-.75,5.41-1.05,11.78-1.93,23.66-2.76,35.57-3.05,14.25-.34,28.45.25,42.61,1.97,7.23.88,14.4,2.06,21.51,3.62.76.17,1.52.57,2.14-.35,2.08-3.03,5.09-5.05,7.96-7.21,5.13-3.87,9.87-8.13,13.67-13.36,9.43-13.01,16.35-27.2,20.34-42.83,3.76-14.69,2.66-28.82-4.13-42.45-5.74-11.52-15.55-17.4-27.65-20.19-1-.23-1.42.09-1.81.97-.73,1.69-1.86,3.17-2.9,4.68-3.49,5.07-6.99,10.13-9.67,15.71-.17.35-.47.63-.71.94-.79-.07-1.59-.22-2.37-.2-8.49.23-16.04,3.07-22.69,8.31-.5.39-.94.86-1.36,1.34-4.66,5.3-2.54,12.38,4.28,14.24,2.18.59,4.4.69,6.64.4,1.89-.25,3.78-.53,5.68-.8Zm-178.54-43.8c.87.38,1.63.04,2.4-.05,4.05-.46,8.11-.8,12.2-.65,16.79.62,30.75,11.06,35.97,26.98,2.03,6.18,3.14,12.55,3.47,19.05.63,12.56-.89,24.89-3.94,37.05-.19.75-.62,1.48-.26,2.39.42.19.89.05,1.35,0,3.5-.35,6.99-.73,10.49-1.06,1.91-.18,1.95-.14,2.3-1.97.82-4.25,1.94-8.42,3.59-12.41,9.06-21.97,22.71-40.46,41.76-54.82,8.96-6.75,18.47-12.61,28.76-17.15.95-.42,1.61-.74,1.2-2.08-3.6-11.8-10.28-21.16-21.11-27.4-10.36-5.97-21.51-8.8-33.43-8.91-6.91-.06-13.71.8-20.5,1.93-11.97,1.99-23.53,5.29-34.29,11.04-10.06,5.37-18.82,12.35-25.92,21.32-1.63,2.06-3.2,4.17-4.04,6.74Z"/>
  <path class="cls-12" d="m632.66,337.55c-2.23.28-4.04-.69-5.69-2.01-4.11-3.29-8.17-6.64-12.27-9.94-7.55-6.05-15.62-11.34-23.93-16.27-9.14-5.43-18.6-10.25-28.18-14.83-9.95-4.75-20.14-8.9-30.5-12.66-10.96-3.97-22.07-7.44-33.45-9.99-8.48-1.9-17.01-3.49-25.64-4.56-5.64-.7-11.31-.65-16.98-.59-1.51.01-3.02.06-4.37-.8,2.5.16,4.46-.96,6.18-2.65,1.89-1.85,3.61-3.85,5.23-5.93,7.03-9.01,13.63-18.34,19.83-27.94,15.88-24.58,30.39-49.96,43.92-75.89,1.84-3.53,3.55-7.14,5.71-10.49,1.01-.12,1.7-.84,2.49-1.35,4.62-2.99,9.5-5.56,14.42-7.98,7.5-3.68,15.14-7.1,23.03-9.91,3.52-1.26,6.99-2.69,10.68-3.4,1.95,1.79,3.47,3.96,5.03,6.07,10.66,14.45,18.96,30.15,24.84,47.11,2.04,5.89,3.96,11.82,5.9,17.74,4.42,13.5,7.14,27.36,8.74,41.45.9,7.95,1.2,15.94,1.66,23.92.57,9.98.88,19.96.38,29.96-.56,11.18-.91,22.36-1.11,33.55-.06,3.2.03,6.4.42,9.58.37,2.99,1.22,5.78,3.67,7.81Zm-28.63-97.25c-.16-3.9-.04-7.8-.33-11.72-.43-5.8-.92-11.58-1.5-17.37-.49-4.84-1.31-9.62-2.24-14.38-1.43-7.37-3.36-14.6-6.46-21.48-2.54-5.64-5.46-10.98-10.02-15.32-4.65-4.43-12.34-5.35-17.63-2.82-4.39,2.1-7.67,5.42-10.34,9.37-5.85,8.67-9.92,18.23-13.35,28.03-3.32,9.48-6.13,19.14-9.17,28.72-.82,2.59-1.63,5.17-2.46,7.75-2.78,8.58-5.78,17.08-10.49,24.85-.91,1.51-1.13,3.05-.55,4.8.73,2.2,2.44,3.32,4.3,4.26,3.28,1.66,6.66,3.1,9.92,4.79,5.21,2.71,10.73,4.53,16.36,6.04,6.55,1.76,13.05,3.63,19.43,5.97,4.94,1.81,10.07,3.03,15.32,3.6,3.27.35,6.35-.3,9.07-2.29,2.54-1.86,4.12-4.42,5.27-7.27,2.62-6.49,3.71-13.34,4.32-20.25.45-5.08.81-10.19.54-15.3Z"/>
  <path class="cls-7" d="m362.96,270.69c-.31,1.15-.08,2.37-.61,3.5-.51,1.1-1.12,2.11-2.11,2.84-5.62,4.13-11.26,8.24-16.9,12.34-.31.23-.7.35-1.05.53-.35-3.17-.8-6.32-1.7-9.38-1.61-5.47-3.6-10.73-7.9-14.8-4.88-4.62-12.61-5.14-18.02-1.09-2.96,2.21-5.49,4.84-7.78,7.73-5.97,7.53-10.39,15.94-13.1,25.1-2.44,8.23-4.89,16.49-6.1,25.04-.15,1.06-.33,2.16-1.25,3.02-1.75,1.63-3.31,3.45-4.87,5.26-4.38,5.06-8.92,9.99-12.88,15.39-4.29,5.85-8.5,11.77-11.16,18.62-.59,1.51-1.04,3.01-.87,4.65-1.59,2-3.47,3.72-5.35,5.43-6.66,6.07-12.93,12.5-18.73,19.39-1.02,1.22-1.93,2.53-2.8,3.86-.95,1.45-1.89,2.97-3.76,3.44.13-1.51.11-3.02-.04-4.54-.37-3.74-.46-7.49-.54-11.24-.26-13.58-.07-27.15,1.03-40.7,1.4-17.2,3.12-34.36,7.16-51.19,1.1-4.57,1.99-9.2,3.39-13.69.61-.31.85-.92,1.18-1.46,2.44-4.11,4.8-8.27,7.36-12.29,7.36-11.55,15.31-22.68,24.12-33.19,4.86-5.8,9.79-11.52,15.09-16.92,2.52-2.57,5.07-5.09,7.62-7.62,1.36-1.35,2.67-2.75,4.11-4.02,2.93-2.57,5.96-5.02,8.89-7.58,4.43-3.87,8.98-7.59,13.77-11.01,2.05,2.57,3.57,5.47,5.11,8.34,7.64,14.13,14.19,28.77,20.16,43.68,3.14,7.85,6.2,15.74,9.63,23.48,1.11,2.5,2.45,4.84,4.31,6.86,1.24,1.35,2.68,2.25,4.58,2.22Z"/>
  <path class="cls-6" d="m632.66,337.55c-2.44-2.03-3.3-4.82-3.67-7.81-.39-3.18-.48-6.37-.42-9.58.2-11.19.55-22.38,1.11-33.55.5-10,.18-19.98-.38-29.96-.45-7.98-.75-15.97-1.66-23.92-1.6-14.09-4.32-27.95-8.74-41.45-1.94-5.92-3.86-11.86-5.9-17.74-5.87-16.97-14.18-32.67-24.84-47.11-1.56-2.11-3.07-4.28-5.03-6.07-2.56-3.53-5.62-6.53-9.36-8.79-2.51-1.52-5.27-2.24-8.23-2.21-6.69.05-12.23,2.5-16.69,7.56-6.88,7.81-11.84,16.81-16.36,26.09-2.16,3.36-3.87,6.96-5.71,10.49-13.54,25.94-28.04,51.31-43.92,75.89-6.2,9.6-12.8,18.93-19.83,27.94-1.62,2.08-3.34,4.08-5.23,5.93-1.72,1.69-3.67,2.81-6.18,2.65-4.12-1.81-4.97-4.7-2.45-8.39,21.57-31.55,41.64-64.03,59.81-97.66,5.28-9.77,10.29-19.68,15.45-29.51,3.68-7.01,7.61-13.88,12.73-19.97,1.44-1.72,2.95-3.37,4.58-4.9,8.86-8.3,19.36-10.71,31.07-8.55,4.84.89,8.92,3.4,12.67,6.48,3.35,2.76,6.25,5.95,8.99,9.29,10.37,12.61,18.54,26.57,25.31,41.4,4.33,9.48,7.35,19.42,10.7,29.24,4.97,14.58,8.25,29.53,10.19,44.8.87,6.9,1.18,13.85,1.66,20.79,1.28,18.29,1.03,36.58.11,54.87-.3,5.98-.32,11.98-.44,17.98-.05,2.64-.27,5.27-.61,7.88-.29,2.26-1,4.34-2.57,6.08-1.71,1.89-3.65,2.82-6.19,1.82Z"/>
  <path class="cls-8" d="m362.96,270.69c-1.9.03-3.34-.87-4.58-2.22-1.86-2.03-3.2-4.37-4.31-6.86-3.43-7.74-6.49-15.63-9.63-23.48-5.96-14.91-12.52-29.54-20.16-43.68-1.55-2.87-3.07-5.77-5.11-8.34-3.87-6.29-8.25-12.18-13.92-16.95-4.44-3.73-9.49-4.57-15.04-2.45-5.33,2.03-9.56,5.38-12.98,9.87-7.31,9.59-13.21,19.99-17.64,31.2-7.29,18.44-13.76,37.15-18.66,56.38-1.36,5.33-2.91,10.62-3.91,16.05-1.41,4.49-2.3,9.12-3.39,13.69-4.04,16.83-5.76,33.98-7.16,51.19-1.1,13.55-1.29,27.12-1.03,40.7.07,3.75.17,7.51.54,11.24.15,1.51.17,3.02.04,4.54-.18.26-.35.53-.55.78-1.91,2.4-4.76,2.44-6.71.06-1.03-1.26-1.54-2.78-1.97-4.33-1.61-5.74-1.89-11.66-2.28-17.56-.95-14.4-.09-28.76,1.09-43.11.87-10.67,1.97-21.33,3.88-31.88,2.68-14.79,6.56-29.3,10.32-43.84,5.07-19.6,11.72-38.67,19.19-57.46,4.33-10.89,10.01-21.05,16.69-30.67,1.69-2.43,3.5-4.76,5.5-6.95,5.4-5.9,12.07-9.68,19.78-11.56,6.83-1.66,13.33-.56,19.42,2.94,3.64,2.1,6.72,4.87,9.52,7.96,7.93,8.76,14.63,18.35,19.89,28.95,7.04,14.19,13.19,28.75,18.55,43.65,2,5.56,4.04,11.11,6.01,16.68,1.26,3.57,2.02,7.23,1.66,11.05-.2,2.05-.87,3.74-3.05,4.4Z"/>
  <path class="cls-4" d="m256.66,369.43c-.17-1.64.29-3.14.87-4.65,2.66-6.85,6.86-12.77,11.16-18.62,3.96-5.4,8.49-10.34,12.88-15.39,1.57-1.81,3.13-3.63,4.87-5.26.92-.86,1.1-1.97,1.25-3.02,1.22-8.55,3.67-16.81,6.1-25.04,2.71-9.15,7.12-17.56,13.1-25.1,2.29-2.89,4.82-5.52,7.78-7.73,5.41-4.05,13.14-3.53,18.02,1.09,4.3,4.07,6.29,9.33,7.9,14.8.9,3.06,1.36,6.21,1.7,9.38-2.4,2.35-5.25,4.16-7.89,6.22-10.59,8.29-20.47,17.37-30.11,26.72-15.55,15.08-31.03,30.23-46.36,45.53-.39.39-.85.72-1.27,1.07Z"/>
  <path class="cls-13" d="m550.8,381.39c-3.56-.45-7.07-1.18-10.65-1.53-8.17-.8-16.28-.22-24.38.83-6.35.82-12.59,2.15-18.73,3.96-1.69.5-1.71.47-2.17-1.04-4.49-14.57-13.68-25.28-26.92-32.58-14.98-8.27-31.06-10.96-47.96-9.12-13.89,1.51-27.4,4.64-40.26,10.2-13.45,5.82-25.35,13.84-34.99,25.02-2.2,2.55-4.27,5.19-5.87,8.15-1.38,2.54-2.6,5.16-2.56,8.13.01,1.09-.55,1.28-1.41,1.51-3.16.86-6.32,1.73-9.44,2.7-27.37,8.54-49.35,24.71-66.71,47.35-.33.43-.52,1.01-1.1,1.21-.19-.96.36-1.7.78-2.46,3.67-6.67,8.03-12.82,13.38-18.29,3.23-3.31,6.58-6.5,9.85-9.76,5.97-5.95,12.8-10.77,19.94-15.2,5.23-3.24,10.67-6.13,16.38-8.43,2.88-1.16,5.85-2.11,8.83-3.02,1.57-.48,2.58-1.3,3.31-2.8,3.06-6.3,7.16-11.85,12.14-16.79,6.36-6.3,13-12.28,20.54-17.13,10.42-6.72,21.64-11.53,33.95-13.66,6.28-1.08,12.57-1.88,18.92-2.46,6.08-.55,12.13-.44,18.19-.27,4.19.12,8.38.89,12.54,1.51,3.94.58,7.82,1.46,11.63,2.68,7.17,2.29,14.18,4.92,20.21,9.58,3.17,2.45,5.96,5.33,8.22,8.64,3.19,4.68,6.26,9.44,9.1,14.34,1,1.73,1,1.75,3.02,1.26,5.38-1.29,10.85-1.95,16.36-1.57,4.99.35,9.96,1.06,14.84,2.25,2.86.7,5.74,1.31,8.61,1.99,4.36,1.03,8.5,2.63,12.44,4.76Z"/>
  <path class="cls-9" d="m258.2,555.48c1.52-1.04,3.29-1.58,4.96-2.29,13.26-5.66,27.13-9.32,41.16-12.45,6.23-1.39,12.46-2.75,18.69-4.11.61-.13,1.24-.19,2.35-.35-1.74,3.48-2.81,6.84-3.95,10.17-6.42,1.28-12.92,2-19.41,2.7-8.09.87-16.08,2.37-24.09,3.73-5.5.94-11.01,1.79-16.47,2.94-1.09.23-2.22.37-3.23-.34Z"/>
  <path class="cls-9" d="m509.73,534.93c-.33-2.45-.48-4.92-1.04-7.34-.37-1.61-.17-1.75,1.57-1.5,8.63,1.21,17.11,3.21,25.57,5.26,5.72,1.39,11.41,2.94,17.11,4.42-3.85.5-7.63-.36-11.43-.69-10.59-.91-21.18-1.4-31.78-.15Z"/>
  <path class="cls-13" d="m257.65,446.18c.03.43-.19.7-.56.87-.03-.43.09-.76.56-.87Z"/>
  <path class="cls-13" d="m257.06,447.1c.04.3-.11.47-.39.55-.02-.29.1-.48.39-.55Z"/>
  <path class="cls-1" d="m532.54,413.22c.24-.31.54-.6.71-.94,2.67-5.57,6.17-10.64,9.67-15.71,1.04-1.51,2.17-2.99,2.9-4.68.38-.89.81-1.2,1.81-.97,12.1,2.79,21.91,8.67,27.65,20.19,6.79,13.63,7.89,27.76,4.13,42.45-4,15.62-10.91,29.81-20.34,42.83-3.79,5.23-8.54,9.49-13.67,13.36-2.87,2.17-5.88,4.18-7.96,7.21-.62.91-1.38.51-2.14.35-7.11-1.56-14.28-2.74-21.51-3.62-14.15-1.72-28.36-2.31-42.61-1.97-11.92.29-23.79,1.12-35.57,3.05-1.81.3-3.61.67-5.41,1.05-.64.13-1.2.28-1.79-.21-3.03-2.5-5.93-5.11-8.01-8.52-.66-1.08-.64-1.75.4-2.59,2.24-1.81,4.24-3.89,6.06-6.13,2.24-2.77,3.96-5.81,4.73-9.32,1.32-6.03-1.78-11.05-7.76-12.61-1.95-.51-3.94-.57-6-.56-.28-.99.06-1.82.25-2.63.67-2.97,1.62-5.85,2.8-8.66,10.61-25.34,27.82-44.92,51.45-58.89.27-.16.56-.28.94-.47.37.85-.25,1.39-.5,1.96-4.7,11.05-7.23,22.49-6.41,34.56.24,3.52.77,6.99,1.87,10.35.55,1.68,1.24,3.29,2.08,4.84,6.77,12.34,19.11,13.65,28.56,9.48,4.41-1.95,7.92-5.08,11.06-8.64,5.57-6.3,9.51-13.59,12.8-21.27,2.59-5.21,4.7-10.63,6.9-16.01.99-2.42,2.36-4.69,2.93-7.28Z"/>
  <path class="cls-10" d="m415.79,516.16c1.18,1.06,2.35,2.11,3.58,3.21-.7.56-1.39,1-1.92,1.57-1.55,1.68-.92,3.84,1.28,4.48.94.27,1.89.21,2.85.12,16.72-1.64,33.49-2.24,50.29-2.15,7.76.04,15.5.56,23.23,1.09,2.51.17,2,.65,2.21,2.22.92,6.68.33,13.22-1.42,19.71-2.54,9.48-7.69,17.36-14.77,23.98-7.99,7.47-16.83,13.7-27.04,17.91-12.94,5.32-25.86,10.66-39.47,14.05-7.29,1.82-14.65,3.31-22.14,4.1-12.45,1.31-24.16-1.29-35.35-6.62-8.19-3.89-15.25-9.23-21.26-16.07-4.22-4.81-6.71-10.17-7.44-16.52-1.24-10.77.25-21.02,5.08-30.77.76-1.54,1.77-2.23,3.45-2.44,6.9-.88,13.78-1.81,20.75-2.05,4.23-.15,8.44-.71,12.66-1.01,3.93-.27,6.75-2.17,7.72-6.32.36-1.54,1.13-2.98,1.71-4.46.6.38,1.22.74,1.8,1.16,3.83,2.72,8.13,4.04,12.78,3.95,7.53-.15,14.1-2.88,19.73-7.87.53-.47.96-1.07,1.71-1.24Zm-9.27,32.68c.06-3.23-.9-4.95-2.8-5.71-1.96-.78-4.17-.14-5.83,1.68-.65.72-1.17,1.53-1.53,2.42-2.1,5.13-2.37,10.39-.93,15.72.46,1.72,1.36,3.25,2.78,4.39,2.34,1.87,5.26,1.28,6.7-1.35.59-1.06.95-2.22.95-3.43-.02-4.79-.12-9.58.66-13.71Z"/>
  <path class="cls-1" d="m375.09,433.03c2.33-4.64,4.65-9.28,6.99-13.91.28-.56.36-1.25,1.06-1.63,1.54,2.74,2.34,5.73,3.04,8.76,1.92,8.35,1.95,16.8,1.24,25.28-.77,9.12-2.89,17.97-5.45,26.73-.43,1.48-1.08,2.42-2.61,3.06-5.34,2.24-9.09,6.18-11.18,11.57-2.17,5.57-1.53,10.87,2.28,15.55.95,1.17.89,2.03.29,3.21-.91,1.79-2.08,3.41-3.1,5.13-.43.72-1,.94-1.77.96-7.44.16-14.48,2.33-21.59,4.18-17.69,4.61-35.37,9.29-52.9,14.5-2.84.84-5.46,1.09-8.35.38-9.12-2.22-17.1-6.56-24.16-12.66-4.89-4.22-7.23-9.82-8.43-16.02-1.19-6.14-.87-12.26.11-18.36.68-4.26,1.62-8.47,2.6-12.67,2.55-10.96,7.63-20.67,14.53-29.42,13.3-16.84,29.82-29.47,49.87-37.34.67-.26,1.35-.48,2.04-.7.12-.04.28.05.44.09.27.39,0,.75-.13,1.09-3.95,10.66-5.99,21.7-6.41,33.04-.22,6.01.08,11.99,1.69,17.84,2.32,8.42,7.27,14.86,14.79,19.27,8.2,4.8,16.65,3.72,23.51-2.86.29-.28.58-.55.85-.85,5.05-5.51,8.36-12.02,10.8-19.02.38-.22.48-.62.62-.98,3.12-8.07,6.23-16.14,9.34-24.21Z"/>
  <path class="cls-10" d="m344.17,392.71c.84-2.56,2.41-4.68,4.04-6.74,7.1-8.97,15.87-15.95,25.92-21.32,10.76-5.75,22.32-9.05,34.29-11.04,6.78-1.13,13.59-1.99,20.5-1.93,11.92.1,23.07,2.94,33.43,8.91,10.83,6.24,17.51,15.6,21.11,27.4.41,1.34-.25,1.66-1.2,2.08-10.29,4.54-19.8,10.4-28.76,17.15-19.05,14.36-32.7,32.85-41.76,54.82-1.65,4-2.76,8.17-3.59,12.41-.36,1.83-.4,1.79-2.3,1.97-3.5.33-7,.7-10.49,1.06-.46.05-.93.19-1.35,0-.35-.91.08-1.64.26-2.39,3.05-12.17,4.57-24.5,3.94-37.05-.32-6.5-1.44-12.86-3.47-19.05-5.22-15.92-19.18-26.36-35.97-26.98-4.09-.15-8.14.19-12.2.65-.77.09-1.54.43-2.4.05Z"/>
  <path class="cls-11" d="m375.09,433.03c-3.11,8.07-6.23,16.14-9.34,24.21-.14.36-.24.77-.62.98-3.6.76-7.19,1.53-10.9,1.52-2.26,0-4.47-.22-6.6-1.02-6.65-2.49-8.57-9.09-4.27-14.73,1.42-1.87,3.21-3.34,5.16-4.61,6-3.9,12.52-6.35,19.69-6.96,2.33-.2,4.63-.14,6.88.6Z"/>
  <path class="cls-11" d="m532.54,413.22c-.57,2.59-1.94,4.86-2.93,7.28-2.2,5.37-4.31,10.79-6.9,16.01-1.89.27-3.78.55-5.68.8-2.24.29-4.47.19-6.64-.4-6.82-1.85-8.95-8.93-4.28-14.24.42-.48.86-.95,1.36-1.34,6.66-5.24,14.2-8.08,22.69-8.31.79-.02,1.58.13,2.37.2Z"/>
  <path class="cls-2" d="m415.79,516.16c-.74.18-1.18.77-1.71,1.24-5.63,4.99-12.2,7.73-19.73,7.87-4.65.09-8.95-1.23-12.78-3.95-.58-.41-1.2-.77-1.8-1.16.04-.23.05-.48.13-.7.48-1.34.53-3.09,1.67-3.86,1.09-.74,2.58.27,3.9.43,7.61.93,14.93-.1,21.95-3.2,1.38-.61,2.81-1.72,4.14-1.61,1.3.1,1.69,2.12,2.7,3.13.55.56,1.02,1.2,1.53,1.8Z"/>
  <path class="cls-9" d="m604.03,240.29c.26,5.12-.09,10.22-.54,15.3-.62,6.91-1.7,13.76-4.32,20.25-1.15,2.85-2.72,5.41-5.27,7.27-2.72,1.99-5.8,2.64-9.07,2.29-5.25-.57-10.38-1.78-15.32-3.6-6.38-2.34-12.88-4.21-19.43-5.97-5.63-1.51-11.15-3.33-16.36-6.04-3.26-1.7-6.64-3.14-9.92-4.79-1.86-.94-3.56-2.06-4.3-4.26-.59-1.75-.37-3.29.55-4.8,4.71-7.77,7.7-16.27,10.49-24.85.84-2.58,1.64-5.17,2.46-7.75,3.04-9.58,5.85-19.24,9.17-28.72,3.43-9.8,7.49-19.36,13.35-28.03,2.67-3.95,5.95-7.26,10.34-9.37,5.29-2.53,12.98-1.61,17.63,2.82,4.56,4.34,7.48,9.68,10.02,15.32,3.1,6.88,5.03,14.11,6.46,21.48.92,4.76,1.75,9.54,2.24,14.38.58,5.79,1.07,11.57,1.5,17.37.29,3.91.18,7.81.33,11.72Z"/>
  <path class="cls-13" d="m532.52,143c4.52-9.28,9.48-18.27,16.36-26.09,4.46-5.06,10-7.51,16.69-7.56,2.96-.02,5.71.7,8.23,2.21,3.73,2.26,6.8,5.26,9.36,8.79-3.7.71-7.16,2.14-10.68,3.4-7.89,2.81-15.53,6.23-23.03,9.91-4.92,2.42-9.8,4.99-14.42,7.98-.79.51-1.48,1.23-2.49,1.35Z"/>
  <path class="cls-5" d="m237.03,280.2c1-5.42,2.55-10.71,3.91-16.05,4.9-19.23,11.37-37.94,18.66-56.38,4.43-11.21,10.33-21.61,17.64-31.2,3.42-4.49,7.66-7.84,12.98-9.87,5.55-2.11,10.59-1.28,15.04,2.45,5.68,4.77,10.05,10.66,13.92,16.95-4.79,3.42-9.34,7.14-13.77,11.01-2.93,2.56-5.96,5.01-8.89,7.58-1.44,1.26-2.75,2.66-4.11,4.02-2.55,2.53-5.1,5.06-7.62,7.62-5.3,5.4-10.23,11.12-15.09,16.92-8.81,10.51-16.75,21.64-24.12,33.19-2.57,4.03-4.92,8.18-7.36,12.29-.33.55-.57,1.15-1.18,1.46Z"/>
  <path class="cls-8" d="m406.52,548.84c-.78,4.13-.68,8.92-.66,13.71,0,1.21-.36,2.37-.95,3.43-1.44,2.63-4.36,3.22-6.7,1.35-1.42-1.14-2.32-2.67-2.78-4.39-1.44-5.33-1.17-10.59.93-15.72.36-.89.89-1.7,1.53-2.42,1.65-1.83,3.86-2.46,5.83-1.68,1.9.76,2.85,2.48,2.8,5.71Z"/>
</svg>