<?xml version="1.0" encoding="UTF-8"?>
<svg id="_图层_1" data-name="图层 1" xmlns="http://www.w3.org/2000/svg" viewBox="0 0 960 960">
  <defs>
    <style>
      .cls-1 {
        fill: #090307;
      }

      .cls-1, .cls-2, .cls-3, .cls-4, .cls-5, .cls-6, .cls-7, .cls-8 {
        stroke-width: 0px;
      }

      .cls-2 {
        fill: #040304;
      }

      .cls-3 {
        fill: #ba3a97;
      }

      .cls-4 {
        fill: #b93996;
      }

      .cls-5 {
        fill: #fd71d6;
      }

      .cls-6 {
        fill: #fe72d7;
      }

      .cls-7 {
        fill: #ac3d8e;
      }

      .cls-8 {
        fill: #9c4583;
      }
    </style>
  </defs>
  <path class="cls-2" d="m388.49,716.26c2.15,2.85,1.49,5.31-1.85,6.51-2.56.92-5.21,1.51-7.96,1.55-14.23.2-28.45.63-42.67,1.13-.9.03-1.85-.1-2.92.36.6.89,1.42,1.02,2.1,1.32,7.23,3.23,14.27,6.84,21.04,10.95,6.26,3.8,11.94,8.31,16.8,13.8,2.18,2.46,4.06,5.14,5.66,8.02,4.51,8.13,4.69,16.45,1.1,24.92-1.25,2.96-2.81,5.77-4.83,8.26-9.03,11.17-20.15,19.3-34.13,23.17-8.53,2.36-17.19,2.44-25.93,1.45-15.24-1.72-29.61-6.47-43.65-12.4-9.23-3.89-17.99-8.64-26.5-13.92-14.83-9.2-28.71-19.74-42.58-30.3-4.52-3.44-8.64-7.37-12.64-11.39-2.43-2.45-4.53-5.16-6.35-8.09-5.59-8.99-6.07-18.33-1.97-27.98,2.85-6.7,7.36-12.13,13.02-16.63,2.6-2.06,5.6-3.37,8.74-4.39,7.25-2.36,14.76-3.49,22.23-4.82,17.66-3.14,35.5-4.56,53.33-6.2,13.21-1.22,26.42-2.47,39.64-3.58,7.65-.65,15.29-1.27,22.92-2.04,1.74-.17,3.52-.14,5.27-.07,2.29.09,4.17.88,4.79,3.4-.08,2.23-1.45,3.44-3.36,4.15-2.17.81-4.48,1.04-6.73,1.52-2.55.54-5.2.55-7.66,1.5-.88-.14-1.75-.05-2.63.07-11.09,1.49-22.17,3.01-33.27,4.46-10.54,1.38-21.07,2.85-31.63,4-18.37,2-36.54,5.25-54.78,8.08-6.09.95-10.96,3.77-14.59,8.75-.71.97-1.51,1.88-2.13,2.9-5.31,8.74-4.75,15.57.37,22.8.51.72,1.04,1.42,1.62,2.08,2.17,2.46,4.48,4.78,7,6.89,2.32,2.43,4.98,4.47,7.67,6.45,13.57,10.01,27.39,19.65,41.82,28.42,15.1,9.18,31.02,16.5,48.04,21.32,8.57,2.43,17.33,3.79,26.28,3.27,4.31-.25,8.52-1.14,12.54-2.79,2.15-.75,4.31-1.45,6.31-2.57,4.62-2.59,8.92-5.62,12.83-9.21,3.58-3.29,6.42-7.12,8.48-11.52,2.22-4.76,2.13-9.42-.65-13.97-1.47-2.4-3.14-4.63-5.11-6.63-3.84-3.9-8.15-7.17-12.84-9.98-6.25-3.74-12.71-7.06-19.33-10.1-12.93-5.93-26.36-10.2-40.48-12.17-7.05-.98-14.15-1.45-21.23-2.04-10.06-.84-20.11-1.1-30.15.16-3.98.5-7.77.17-11.26-2.12-1.6-1.05-2.03-2.1-1.1-3.74,1.76-3.11,4.31-4.98,7.89-5.62,5.6-1.01,11.23-1.62,16.9-1.86,6.8-.28,13.58.02,20.36.52,11.72.86,23.42,1.92,34.89,4.63,1.02.24,2.05.34,3.09.31,6.63-.2,13.26-.41,19.89-.61.33.26.65.26.96-.03,3.04-.15,6.08-.3,9.12-.45.33.27.65.25.96-.03,2.88-.15,5.76-.3,8.64-.45.33.27.65.25.96-.03,2.42-.09,4.85-.03,7.26-.39,7.15-.21,14.3-.36,21.44-.64,3.79-.15,7.43.5,11.01,1.63Z"/>
  <path class="cls-2" d="m582.42,651.98c3.34-2.35,7.15-2.96,11.12-3.19,19.27-1.11,38.14,1.06,56.57,6.87,5.36,1.69,10.45,3.99,15.01,7.34,6.33,4.64,9.08,10.93,8.69,18.71-.26,5.25-1.93,10.01-4.76,14.4-1.91,2.97-4.19,5.65-6.54,8.27-.58.64-1.29,1.17-1.65,1.99.35.91,1.07.53,1.63.46,3.97-.49,7.95-.8,11.95-1,9.22-.46,18.41.07,27.44,1.91,13.38,2.73,24.77,9.23,34.14,19.19,3.35,3.56,6.35,7.39,8.96,11.53,6.68,10.59,7.49,21.88,3.17,33.35-5.67,15.06-16.22,25.83-30.73,32.71-12.34,5.86-25.45,7.64-38.97,7.43-12.7-.2-24.77-2.87-35.95-8.92-19.57-10.6-32.86-26.4-38.71-48.07-2.5-9.29-2.74-18.8-1.94-28.35.62-7.5,1.56-14.95,3.37-22.27,1.1-4.42-.43-7.85-3.85-10.57-2.94-2.34-6.4-3.61-10-4.45-8.6-2-17.28-2.01-25.97-.76-3,.43-5.99,1-8.99,1.5-1.5.25-3.01.42-4.53.33-4.43-.27-5.8-4.79-3.46-7.42.21-.24.37-.51.55-.77,2.91-1.86,6.06-3.21,9.35-4.22,12.73-3.91,25.56-4.85,38.5-1.13,8.92,2.56,16.36,7.14,20.53,15.9,1.53,3.86,2.1,7.85,1.57,11.99-.24,1.88-.62,3.88-2.1,4.96-2.24,1.64-2.38,3.77-2.36,6.12,0,.72-.11,1.43-.14,2.15-.38,8.79-.75,17.57.65,26.33,2.53,15.77,10.12,28.65,22.08,39.03,8.28,7.19,18.01,11.49,28.59,13.99,3.09.73,6.18,1.63,9.43,1.33,1,.32,2.02.45,3.07.5,3.76.17,7.51.23,11.27,0,8.53-.55,16.76-2.3,24.49-6.12,10.99-5.43,19.03-13.69,23.57-25.1,3.01-7.57,2.59-15.04-1.81-22.08-7.22-11.55-16.85-20.19-29.91-24.67-4.56-1.56-9.27-2.4-14.02-3.08-9.9-1.41-19.78-.92-29.65.2-6.79.77-13.36,2.36-19.63,5.15-1.69.05-3.21.87-4.86,1.13-1.29.2-2.53.24-3.77-.23-2.77-1.07-3.77-3.9-2.25-6.46.75-1.26,1.87-2.16,3.11-2.91,1.7-1.04,3.37-2.12,4.94-3.36,4.44-3.53,8.57-7.4,12.38-11.6,2.57-2.84,5.17-5.65,7.19-8.93,2.29-3.71,3.42-7.7,2.95-12.08-.14-1.35-.4-2.67-1.5-3.63-.82-1.96-2.57-3.01-4.22-4.08-3.17-2.05-6.65-3.46-10.23-4.61-13.3-4.27-26.9-6.79-40.91-6.87-4.55-.02-9.09-.24-13.64-.35-2.99-.08-5.85-.7-8.58-1.93-2.25-1.01-2.72-2.85-1.24-4.82.19-.25.4-.48.6-.72Z"/>
  <path class="cls-5" d="m617.34,692.73c-4.17-8.76-11.61-13.34-20.53-15.9-12.93-3.72-25.77-2.78-38.5,1.13-3.29,1.01-6.44,2.35-9.35,4.22-1.93-2.42-1.98-5.15-1.19-7.94,1-3.52,2.86-6.65,5.5-9.12,6.2-5.8,13.52-9.81,21.58-12.37,2.41-.77,4.99-.99,7.56-.76-.2.24-.42.47-.6.72-1.48,1.97-1.01,3.8,1.24,4.82,2.73,1.23,5.59,1.85,8.58,1.93,4.55.11,9.09.33,13.64.35,14.01.07,27.61,2.59,40.91,6.87,3.58,1.15,7.06,2.56,10.23,4.61,1.65,1.07,3.4,2.12,4.22,4.08-2.6-.36-4.79.37-6.83,2.1-4.14,3.51-8.64,6.52-13.38,9.17-7.17,4.01-14.95,5.78-23.1,6.11Z"/>
  <path class="cls-3" d="m388.49,716.26c-3.58-1.13-7.22-1.78-11.01-1.63-7.14.28-14.29.43-21.44.64.07-.93-.38-1.69-.79-2.47-2.08-3.95-4.48-7.7-7.12-11.29-3.07-4.18-6.52-8-10.54-11.32-1.43-1.18-3.3-1.92-4.21-3.71,2.47-.95,5.12-.95,7.66-1.5,2.25-.48,4.56-.71,6.73-1.52,1.92-.72,3.29-1.92,3.36-4.15,4.79,1.37,9.13,3.73,13.45,6.11,6.75,3.71,12.33,8.73,16.72,15.08,1.68,2.43,3.53,4.74,5.1,7.23,1.62,2.57,3.08,5.28,2.08,8.54Z"/>
  <path class="cls-5" d="m333.38,686.48c.9,1.79,2.78,2.53,4.21,3.71,4.02,3.32,7.47,7.14,10.54,11.32,2.64,3.59,5.04,7.34,7.12,11.29.41.77.86,1.54.79,2.47-2.41.36-4.83.3-7.26.39-.33-.38-.65-.34-.96.03-2.88.15-5.76.3-8.64.45-.33-.38-.65-.34-.96.03-3.04.15-6.08.3-9.12.45-.33-.37-.65-.35-.96.03-6.63.2-13.26.4-19.89.61-1.04.03-2.08-.07-3.09-.31-11.48-2.71-23.17-3.77-34.89-4.63-6.78-.5-13.56-.8-20.36-.52-5.67.23-11.31.85-16.9,1.86-3.58.64-6.13,2.51-7.89,5.62-.93,1.64-.5,2.69,1.1,3.74,3.49,2.29,7.28,2.62,11.26,2.12,10.04-1.26,20.1-1,30.15-.16,7.09.59,14.18,1.06,21.23,2.04,14.13,1.97,27.56,6.24,40.48,12.17,6.61,3.04,13.08,6.36,19.33,10.1,4.69,2.81,9,6.08,12.84,9.98,1.97,2,3.64,4.23,5.11,6.63,2.78,4.55,2.88,9.21.65,13.97-2.06,4.4-4.9,8.23-8.48,11.52-3.9,3.59-8.21,6.62-12.83,9.21-2,1.12-4.16,1.82-6.31,2.57.04-.8-.06-1.63.13-2.39.79-3.21.14-6.35-.46-9.46-1.46-7.63-5.86-13.71-10.86-19.35-4.72-5.33-10.28-9.75-16.15-13.76-7.92-5.41-16.35-9.91-24.99-14.03-5.34-2.54-10.95-4.34-16.57-6.13-.46-.14-.92-.38-1.16.3-1.73-.57-3.46-1.13-5.18-1.7-1.69-1.45-3.67-1.9-5.84-1.79-.29-.07-.58-.13-.86-.2-.21-.58-.52-.83-1.05-.31-.29-.06-.58-.12-.87-.18-.22-.58-.54-.8-1.05-.29-4.58-1-9.22-1.57-13.9-1.83-2.96-.88-5.94-.49-8.93-.2-.11.01-.2.23-.3.35-.43.04-.86.08-1.29.12-.21-.34-.4-.3-.57.03-.62.04-1.24.08-1.87.12-.59-.57-1.1-.49-1.55.17-.6.08-1.21.17-1.81.25-.32-.48-.65-.32-1-.04-5.16.4-10.1,1.69-14.55,4.33-2.95,1.75-5.36,4.12-5.13,8.03.03.5-.08.95-.52,1.27-2.52-2.11-4.83-4.43-7-6.89-.58-.66-1.11-1.37-1.62-2.08-5.12-7.23-5.69-14.06-.37-22.8.62-1.02,1.42-1.93,2.13-2.9,3.63-4.98,8.51-7.8,14.59-8.75,18.24-2.84,36.41-6.09,54.78-8.08,10.57-1.15,21.1-2.62,31.63-4,11.09-1.45,22.18-2.97,33.27-4.46.87-.12,1.75-.2,2.63-.07Z"/>
  <path class="cls-4" d="m203.33,746.5c.44-.32.55-.77.52-1.27-.23-3.91,2.17-6.28,5.13-8.03,4.45-2.64,9.39-3.93,14.55-4.33,0,.18.02.37.03.55.19,1.62,1.59,1.64,2.68,1.84,3.14.6,6.34.77,9.52,1.05,4.93.44,9.88.69,14.74,1.71,8.71,1.83,17.01,4.91,25.24,8.22,5.41,2.18,10.71,4.6,15.96,7.13,1.82.87,2.85.77,3.19-.15.52-1.42-.61-2.05-1.53-2.63-5.33-3.37-10.65-6.76-16.51-9.21-2.41-1.01-4.97-1.68-7.25-3.02.24-.68.71-.44,1.16-.3,5.62,1.78,11.23,3.59,16.57,6.13,8.65,4.12,17.08,8.62,24.99,14.03,5.87,4.01,11.43,8.43,16.15,13.76,5,5.64,9.4,11.72,10.86,19.35.6,3.1,1.24,6.25.46,9.46-.19.76-.09,1.59-.13,2.39-4.02,1.65-8.23,2.53-12.54,2.79-8.95.52-17.7-.84-26.28-3.27-17.01-4.83-32.94-12.15-48.04-21.32-14.42-8.76-28.25-18.4-41.82-28.42-2.69-1.98-5.35-4.02-7.67-6.45Z"/>
  <path class="cls-8" d="m347.82,715.7c.31-.38.63-.41.96-.03-.31.28-.63.3-.96.03Z"/>
  <path class="cls-8" d="m338.23,716.17c.31-.37.63-.41.96-.03-.31.28-.63.3-.96.03Z"/>
  <path class="cls-8" d="m328.16,716.65c.31-.38.63-.4.96-.03-.31.28-.63.28-.96.03Z"/>
  <path class="cls-6" d="m642.45,723.43c6.26-2.79,12.84-4.38,19.63-5.15,9.88-1.12,19.75-1.62,29.65-.2,4.76.68,9.46,1.51,14.02,3.08,13.06,4.48,22.68,13.12,29.91,24.67,4.4,7.03,4.82,14.51,1.81,22.08-4.54,11.42-12.58,19.67-23.57,25.1-7.73,3.82-15.96,5.57-24.49,6.12-3.75.24-7.51.18-11.27,0-1.04-.05-2.07-.18-3.07-.5-.2-1.02-1.15-1.28-1.85-1.72-8.61-5.35-17.14-10.81-25.17-17-3.47-2.68-6.9-5.42-9.1-9.37-2.85-5.11-5.5-10.25-5.64-16.31-.15-6.49.34-12.92,2.13-19.17,1.19-4.17,2.81-8.18,6.64-10.79.22-.15.25-.55.38-.84Z"/>
  <path class="cls-4" d="m642.45,723.43c-.12.29-.16.69-.38.84-3.82,2.61-5.45,6.62-6.64,10.79-1.79,6.25-2.28,12.68-2.13,19.17.14,6.06,2.79,11.2,5.64,16.31,2.2,3.95,5.64,6.7,9.1,9.37,8.03,6.19,16.56,11.65,25.17,17,.7.44,1.66.7,1.85,1.72-3.25.3-6.34-.6-9.43-1.33-10.58-2.5-20.31-6.8-28.59-13.99-11.96-10.39-19.55-23.27-22.08-39.03-1.41-8.76-1.03-17.54-.65-26.33.03-.72.15-1.44.14-2.15-.02-2.35.12-4.47,2.36-6.12,1.48-1.08,1.86-3.09,2.1-4.96.53-4.14-.04-8.12-1.57-11.99,8.15-.33,15.93-2.1,23.1-6.11,4.74-2.65,9.24-5.66,13.38-9.17,2.03-1.73,4.23-2.46,6.83-2.1,1.1.96,1.35,2.28,1.5,3.63.47,4.38-.67,8.37-2.95,12.08-2.02,3.28-4.62,6.1-7.19,8.93-3.81,4.2-7.94,8.07-12.38,11.6-1.57,1.25-3.23,2.33-4.94,3.36-1.24.75-2.36,1.65-3.11,2.91-1.52,2.55-.52,5.39,2.25,6.46,1.23.47,2.48.43,3.77.23,1.65-.26,3.16-1.08,4.86-1.13Z"/>
  <path class="cls-1" d="m269.61,738.37c2.28,1.34,4.84,2.01,7.25,3.02,5.85,2.45,11.17,5.84,16.51,9.21.92.58,2.04,1.21,1.53,2.63-.34.92-1.37,1.02-3.19.15-5.25-2.53-10.55-4.95-15.96-7.13-8.23-3.31-16.53-6.39-25.24-8.22-4.86-1.02-9.81-1.28-14.74-1.71-3.18-.28-6.38-.45-9.52-1.05-1.09-.21-2.49-.22-2.68-1.84.39-.04.74-.17.97-.51.6-.08,1.21-.17,1.81-.25.55.27,1.07.22,1.55-.17.62-.04,1.24-.08,1.87-.12.19,0,.38-.02.57-.03.43-.04.86-.08,1.29-.12,3.08.15,6.16.23,9.23-.14,4.68.26,9.32.83,13.9,1.83.29.33.63.44,1.05.29.29.06.58.12.87.18.28.34.63.46,1.05.31.29.07.58.13.86.2,1.84.94,3.8,1.5,5.84,1.79,1.73.57,3.46,1.13,5.18,1.7Z"/>
  <path class="cls-7" d="m240.85,732.07c-3.07.37-6.15.29-9.23.14.1-.12.19-.34.3-.35,2.98-.28,5.97-.68,8.93.2Z"/>
  <path class="cls-7" d="m264.42,736.66c-2.04-.29-4-.85-5.84-1.79,2.16-.11,4.15.34,5.84,1.79Z"/>
  <path class="cls-7" d="m227.89,732.48c-.48.39-1,.44-1.55.17.45-.66.97-.74,1.55-.17Z"/>
  <path class="cls-7" d="m224.53,732.91c-.23.34-.58.48-.97.51,0-.18-.02-.37-.03-.55.34-.28.68-.44,1,.04Z"/>
  <path class="cls-7" d="m255.8,734.19c-.42.15-.77.04-1.05-.29.52-.51.83-.29,1.05.29Z"/>
  <path class="cls-7" d="m257.72,734.68c-.42.14-.77.03-1.05-.31.54-.52.84-.27,1.05.31Z"/>
  <path class="cls-7" d="m230.33,732.33c-.19,0-.38.02-.57.03.18-.33.37-.36.57-.03Z"/>
</svg>