<?xml version="1.0" encoding="UTF-8"?>
<svg id="_图层_1" data-name="图层 1" xmlns="http://www.w3.org/2000/svg" viewBox="0 0 960 960">
  <defs>
    <style>
      .cls-1 {
        fill: #b93995;
      }

      .cls-1, .cls-2, .cls-3, .cls-4 {
        stroke-width: 0px;
      }

      .cls-2 {
        fill: #b93996;
      }

      .cls-3 {
        fill: #050304;
      }

      .cls-4 {
        fill: #fe71d7;
      }
    </style>
  </defs>
  <path class="cls-3" d="m540.8,693.36c.01.64.07,1.28.03,1.91-.17,2.89-2.76,4.32-5.32,2.95-1.22-.65-2.11-1.71-3.04-2.69-3.25-3.45-6.73-6.6-10.78-9.11-2.94-1.82-6.03-3.3-9.47-3.92-.94-.17-1.91-.27-2.86-.25-2.61.06-3.8,1.14-4.05,3.75-.27,2.79.6,5.35,1.61,7.9,3.5,8.8,5.9,17.89,6.66,27.36.1,1.27.13,2.56.03,3.83-.46,6-3.62,9.92-9.31,11.79-3.29,1.08-6.71,1.54-10.13,1.84-16.96,1.48-33.85,3.84-50.86,4.68-18.12.9-36.24,2.17-54.41,1.63-5.43-.16-10.87.03-16.3.33-6.47.35-12.95.25-19.42-.06-1.28-.06-2.56-.14-3.82-.34-4.64-.73-6.92-2.9-7.77-7.54-1.5-8.27-1.3-16.55.18-24.81,1.01-5.6,2.39-11.1,4.28-16.46.43-1.23.21-1.87-.91-2.5-2.88-1.61-5.84-2.97-9.14-3.47-.79-.12-1.59-.21-2.38-.18-2.61.1-3.77,1.21-4.01,3.8-.25,2.71.48,5.23,1.53,7.68,3.23,7.54,5.01,15.48,6.37,23.52.45,2.68.58,5.41.35,8.13-.46,5.36-3.17,9.09-8.19,11.11-2.47,1-5.07,1.41-7.69,1.79-8.71,1.24-17.5,1.71-26.24,2.69-23.94,2.68-47.97,3.84-72.04,4.1-9.75.1-19.5-.15-29.25.37-5.51.3-11.03.11-16.55-.1-2-.07-3.99-.22-5.94-.74-2.95-.8-4.89-2.64-5.69-5.59-.37-1.38-.62-2.81-.82-4.23-1.5-10.97-.04-21.68,2.89-32.26,5.33-19.17,15.62-35.25,30.32-48.54,6.66-6.02,14.27-10.53,22.84-13.29,13.72-4.43,26.68-2.64,38.77,5.15,6.03,3.89,11.15,8.81,15.56,14.47.3.38.59.76.88,1.14.24.32.49.68.94.62.63-.08.61-.64.7-1.09.86-4.66,2.19-9.17,4.16-13.48,4.55-9.94,11.19-18.08,20.83-23.43,12.57-6.97,25.7-7.77,39.09-2.68,12.3,4.67,21.38,13.17,28.06,24.37.37.62.73,1.24,1.1,1.85.08.13.22.23.34.36.95-.14,1.45-.94,2.08-1.5,7.03-6.24,14.91-11.02,23.91-13.79,13.24-4.06,25.77-2.32,37.48,5.04,6.36,4,11.7,9.14,16.31,15.06.51.66.9,1.46,1.82,2.02.53-.89.54-1.77.7-2.59,2.07-10.45,6.57-19.69,13.93-27.42,13.88-14.57,34.54-18.49,52.89-9.92,16.05,7.5,25.92,20.33,31.09,37.03.59,1.91,1.08,3.85,1.32,5.84.37,3.03-.39,4.2-3.27,5.18-1.83-.58-2.88-1.88-3.47-3.66-.4-1.21-.85-2.41-1.31-3.6-4.48-11.51-11.52-20.97-22.18-27.45-8.74-5.31-18.18-7.51-28.27-5.31-12.31,2.68-20.85,10.26-25.71,21.68-5.63,13.24-5.56,26.74-.33,40.17.64,1.64,1.4,3.23,1.79,4.95.46,2.01.37,3.99-.43,5.88-.76,1.78-2.39,2.61-3.86,1.77-2.62-1.5-5.33-2.95-6.73-5.9-2.81-5.92-6.22-11.53-8.85-17.54-1.89-4.33-4.16-8.46-6.84-12.36-4.3-6.27-9.54-11.6-16.1-15.52-6.62-3.96-13.78-5.35-21.42-4.35-8.16,1.07-15.31,4.53-21.72,9.48-13.63,10.52-23.41,23.95-29.12,40.2-3.39,9.64-5.34,19.6-4.39,29.9.42,4.56-.37,4.39,4.73,4.22,13.26-.45,26.52-.99,39.79-.68,15.03.35,30.04-.33,45.05-1,1.49.19,2.97.25,4.4-.35l.2.02.2-.06c.7.26,1.43.09,2.14.07,7.98-.25,15.92-1.07,23.88-1.63,5.97-.42,11.94-.88,17.9-1.34,3.42-.26,6.85-.49,10.2-1.3,2.58-.63,3.03-1.2,3.11-3.76.3-9.28-1.75-18.06-5.67-26.42-1.92-4.09-3.46-8.26-3.09-12.89.42-5.35,2.91-9.38,7.78-11.79,3.83-1.89,7.9-1.97,11.94-1.09,8.09,1.76,14.55,6.32,20.14,12.25,2.2,2.33,3.9,5.02,5.72,7.63.28.87.43,1.79,1.08,2.5Zm-185.34-16.92c2.89-4.22,5.73-8.48,9.09-12.34.96-1.11.96-1.91.21-3.13-4.55-7.35-10.44-13.33-17.91-17.67-8.45-4.91-17.53-7-27.2-4.95-12.91,2.73-21.65,10.7-26.48,22.75-5.22,13.02-4.99,26.21.12,39.29.52,1.34,1.11,2.66,1.54,4.03.69,2.2.7,4.43-.17,6.58-.81,2-2.51,2.7-4.24,1.73-3.03-1.71-5.57-3.79-7.16-7.12-3.09-6.49-6.6-12.77-9.62-19.3-1.13-2.46-2.54-4.8-3.96-7.12-3.88-6.35-8.85-11.73-14.94-16.02-8-5.63-16.83-7.48-26.43-5.56-7.45,1.49-13.99,4.93-19.91,9.57-11.88,9.32-20.77,21-26.6,34.89-4.72,11.26-7.26,22.99-6.21,35.31.33,3.82.36,3.82,4.1,3.67,14.06-.57,28.11-1.02,42.18-.73,14.95.31,29.88-.39,44.81-1.07,4.06-.18,8.13-.27,12.18-.56,12.19-.88,24.37-1.83,36.55-2.78,2.78-.22,5.57-.48,8.31-1.09,2.93-.65,3.42-1.28,3.47-4.22,0-.08,0-.16,0-.24.18-9.29-2-18.04-5.96-26.38-1.88-3.96-3.17-8.04-2.79-12.47.51-5.88,3.47-10,9-12.18,3.38-1.33,6.88-1.29,10.39-.64,4.23.78,8.02,2.64,11.64,4.89,1.4.87,1.45.83,2.2-.48,1.27-2.21,2.51-4.43,3.76-6.65Z"/>
  <path class="cls-4" d="m440.88,731.54c-15.01.67-30.02,1.35-45.05,1-13.27-.31-26.53.23-39.79.68-5.11.17-4.31.35-4.73-4.22-.96-10.3.99-20.26,4.39-29.9,5.72-16.25,15.49-29.67,29.12-40.2,6.41-4.95,13.56-8.41,21.72-9.48,7.64-1,14.81.39,21.42,4.35,6.55,3.93,11.8,9.25,16.1,15.52,2.67,3.9,4.95,8.03,6.84,12.36,2.63,6.01,6.04,11.62,8.85,17.54,1.4,2.95,4.11,4.4,6.73,5.9,1.47.84,3.11,0,3.86-1.77.8-1.89.89-3.87.43-5.88-.4-1.73-1.16-3.31-1.79-4.95-5.22-13.43-5.29-26.92.33-40.17,4.85-11.43,13.4-19.01,25.71-21.68,10.09-2.19,19.54,0,28.27,5.31,10.67,6.48,17.7,15.95,22.18,27.45.46,1.19.92,2.39,1.31,3.6.58,1.78,1.64,3.08,3.47,3.66-.34,3.77-1.66,7.28-3,10.77-1.11,2.9-2.36,5.75-3.6,8.6-.6,1.38-1.21,2.81-2.85,3.32-.64-.71-.8-1.63-1.08-2.5.34-.27.46-.66.41-1.06-.22-1.89-.29-3.82-.72-5.67-1.56-6.83-5.06-12.46-10.55-16.89-4.22-3.41-8.75-5.95-14.25-6.79-5.21-.8-9.83.4-14.05,3.28-5.17,3.53-8.54,8.51-10.82,14.26-1.53,3.87-2.41,7.92-3.29,11.96-1.24,5.64-2.97,11.13-6.33,15.89-3.54,5.02-7.27,9.9-11.88,14.02-3.77,3.36-7.7,6.46-12.71,7.81-1.61.43-3.2,1-4.77,1.58-1.7.62-3.54.89-5.1,1.89l-.2.06s-.2-.02-.2-.02c-1.48-.11-2.97-.31-4.4.35Z"/>
  <path class="cls-4" d="m266.73,739.24c-14.93.68-29.86,1.39-44.81,1.07-14.07-.3-28.13.16-42.18.73-3.75.15-3.78.15-4.1-3.67-1.05-12.32,1.49-24.05,6.21-35.31,5.83-13.9,14.73-25.57,26.6-34.89,5.92-4.64,12.46-8.08,19.91-9.57,9.6-1.92,18.43-.07,26.43,5.56,6.09,4.29,11.06,9.67,14.94,16.02,1.42,2.32,2.82,4.66,3.96,7.12,3.02,6.53,6.52,12.82,9.62,19.3,1.59,3.33,4.13,5.41,7.16,7.12,1.72.97,3.43.27,4.24-1.73.87-2.15.86-4.38.17-6.58-.43-1.37-1.02-2.69-1.54-4.03-5.11-13.08-5.34-26.27-.12-39.29,4.83-12.05,13.57-20.02,26.48-22.75,9.67-2.04,18.75.04,27.2,4.95,7.47,4.34,13.36,10.32,17.91,17.67.75,1.22.75,2.02-.21,3.13-3.36,3.86-6.21,8.12-9.09,12.34-.81,0-1.24-.62-1.8-1.06-3.32-2.64-6.75-5.02-10.89-6.3-6.99-2.15-13.3-1.19-19.12,3.34-4.36,3.39-7.2,7.83-9.36,12.78-1.93,4.41-2.69,9.16-3.85,13.79-1.46,5.85-3.42,11.46-7.2,16.27-1.67,2.13-3.33,4.27-5.04,6.37-5.55,6.8-12.06,12.23-20.71,14.7-3.58,1.02-7.12,2.18-10.78,2.91Z"/>
  <path class="cls-2" d="m445.67,731.15c1.57-.99,3.4-1.26,5.1-1.89,1.57-.58,3.15-1.14,4.77-1.58,5.02-1.35,8.95-4.45,12.71-7.81,4.61-4.12,8.34-9,11.88-14.02,3.37-4.77,5.09-10.25,6.33-15.89.89-4.05,1.76-8.1,3.29-11.96,2.28-5.76,5.65-10.73,10.82-14.26,4.22-2.88,8.84-4.08,14.05-3.28,5.5.84,10.03,3.37,14.25,6.79,5.48,4.43,8.99,10.06,10.55,16.89.42,1.85.5,3.78.72,5.67.05.41-.07.79-.41,1.06-1.82-2.61-3.53-5.3-5.72-7.63-5.59-5.93-12.05-10.49-20.14-12.25-4.04-.88-8.11-.8-11.94,1.09-4.88,2.41-7.36,6.44-7.78,11.79-.37,4.62,1.17,8.79,3.09,12.89,3.93,8.36,5.97,17.14,5.67,26.42-.08,2.56-.53,3.13-3.11,3.76-3.35.82-6.78,1.04-10.2,1.3-5.97.46-11.93.92-17.9,1.34-7.96.56-15.9,1.38-23.88,1.63-.71.02-1.43.19-2.14-.07Z"/>
  <path class="cls-1" d="m266.73,739.24c3.66-.73,7.2-1.89,10.78-2.91,8.65-2.47,15.16-7.9,20.71-14.7,1.71-2.1,3.37-4.24,5.04-6.37,3.78-4.81,5.73-10.42,7.2-16.27,1.16-4.63,1.92-9.38,3.85-13.79,2.16-4.95,5-9.39,9.36-12.78,5.82-4.53,12.13-5.49,19.12-3.34,4.15,1.28,7.58,3.66,10.89,6.3.56.44.98,1.07,1.8,1.06-1.25,2.22-2.49,4.44-3.76,6.65-.75,1.31-.81,1.35-2.2.48-3.62-2.26-7.41-4.11-11.64-4.89-3.51-.65-7-.69-10.39.64-5.53,2.17-8.49,6.3-9,12.18-.38,4.44.91,8.51,2.79,12.47,3.96,8.34,6.14,17.1,5.96,26.38,0,.08,0,.16,0,.24-.05,2.94-.54,3.56-3.47,4.22-2.73.61-5.52.87-8.31,1.09-12.18.95-24.36,1.9-36.55,2.78-4.05.29-8.12.38-12.18.56Z"/>
  <path class="cls-2" d="m440.88,731.54c1.42-.66,2.91-.45,4.4-.35-1.43.6-2.91.54-4.4.35Z"/>
</svg>