<?xml version="1.0" encoding="UTF-8"?>
<svg id="_图层_1" data-name="图层 1" xmlns="http://www.w3.org/2000/svg" viewBox="0 0 960 960">
  <defs>
    <style>
      .cls-1 {
        fill: #fa70d4;
      }

      .cls-1, .cls-2, .cls-3, .cls-4, .cls-5 {
        stroke-width: 0px;
      }

      .cls-2 {
        fill: #b83995;
      }

      .cls-3 {
        fill: #040304;
      }

      .cls-4 {
        fill: #b83996;
      }

      .cls-5 {
        fill: #fe71d7;
      }
    </style>
  </defs>
  <path class="cls-3" d="m535.05,701.28c2.36-6,6.86-7.32,12.09-3.39,5.26,3.96,9.92,8.57,13.91,13.82,3.06,4.01,5.88,8.18,8.53,12.47,5.13,8.3,7.88,17.44,9.47,26.98.55,3.32.93,6.65,1.03,10.02.07,2.43.18,2.5,2.47,1.37,5.1-2.5,10.28-4.8,15.62-6.76,9.72-3.57,19.69-6.2,30-7.2,13.34-1.29,26.39.36,38.78,5.58,8.26,3.48,15.52,8.55,21.17,15.69,4.62,5.83,7.28,12.44,7.47,19.86.42,16.83-2.85,32.91-10.4,48.03-.93,1.86-2.03,3.63-3.28,5.29-2.04,2.7-4.71,3.89-8.12,3.7-30.65-1.73-61.33-2.8-92.01-3.85-13.98-.48-27.94-1.42-41.94-1.47-9.28-.03-18.54.26-27.81.48-4.88.12-9.75.2-14.63-.02-1.52-.07-3.04-.19-4.49-.67-5.29-1.73-6.75-7.81-2.78-11.7.9-.89,1.99-1.6,3.05-2.31,6.85-4.58,13.52-9.39,19.73-14.84,4.53-3.98,8.55-8.4,12.01-13.33,10.2-14.54,11.29-29.89,3.88-45.86-5.02-10.82-13.12-19-22.96-25.54-1.46-.97-2.99-1.87-4.38-2.93-1.78-1.35-2.97-3.13-3.12-5.45-.23-3.34,2.02-6.11,5.33-6.57.79-.11,1.59-.16,2.38-.23,1.29.6,2.63,1.11,3.86,1.83,8.13,4.75,15.26,10.71,21.31,17.93,2.14,2.55,4.07,5.29,6.09,7.94.09.84.65,1.45,1.04,2.13,1.31,2.29,2.57,4.61,3.58,7.05,8.43,20.36,6.57,39.63-6.17,57.74-2.58,3.67-5.46,7.09-8.51,10.37-3.7,3.52-7.51,6.91-11.47,10.14-.18.15-.3.37-.08.65.75.25,1.54.12,2.32.08,9.27-.49,18.54-.44,27.81-.28,14.14.25,28.26,1.17,42.4,1.68,12.54.45,25.08.81,37.62,1.23,4.63.15,9.27.33,13.89.56,10.38.5,20.75,1.04,31.12,1.58.85.04,1.63-.04,2.03-.91.94-2.01,2.28-3.84,2.58-6.12,1.23-2.05,1.96-4.31,2.62-6.59,2.66-9.18,4.26-18.52,4.11-28.12-.08-5.15-1.74-9.7-5.07-13.64-4.55-5.38-10.26-9.12-16.74-11.66-8.75-3.43-17.91-4.7-27.27-4.31-10.31.43-20.18,3.09-29.86,6.49-7.93,2.79-15.42,6.57-22.85,10.48-1.48.78-2.96,1.6-4.52,2.2-5.09,1.95-9.68-1.02-10.01-6.46-.08-1.26.04-2.56.23-3.82,1.08-7.06.49-14.03-1.02-20.95-1.56-7.15-3.82-14.03-8.11-20.08-.29-.93-.98-1.62-1.49-2.42-4.38-6.8-9.34-13.11-15.81-18.05-2.68-2.04-4.56-4.36-4.65-7.84Z"/>
  <path class="cls-3" d="m361.26,709.36c1.05.38,2.14.68,3.14,1.17,1.78.87,2.88,2.31,2.86,4.36-.02,2.15-1.22,3.58-3.12,4.44-.95.43-1.97.62-3.01.76-3.41.47-6.86.6-10.29.64-9.75.12-19.03,2.39-27.92,6.2-18.63,7.98-35.42,18.76-49.76,33.2-4.94,4.97-9.05,10.55-12.47,16.65-.86,1.53-1.73,3.07-2.63,4.57-.49.82-1.03,1.63-1.64,2.36-3.3,3.94-8.35,3.87-11.49-.22-1.99-2.6-3.98-5.22-5.76-7.97-9.84-15.18-23.1-26.84-37.87-36.94-13.34-9.12-27.04-17.66-41.46-25-7.08-3.6-14.33-6.72-22.18-8.22-3.06-.58-6.14-1.06-9.21-1.59-.55-.1-1.1-.22-1.64-.36-5.32-1.33-7.62-4.49-7.21-9.94.3-3.95,1.4-7.71,3.01-11.31,8.22-18.36,20.92-32.77,38.23-43.04,5.18-3.08,10.74-5.3,16.59-6.78,7.13-1.8,14.34-2.35,21.65-1.58,8.92.94,16.81,4.35,23.75,9.99,4.04,3.29,7.85,6.83,11.19,10.83,10.82,12.97,19,27.45,24.37,43.47,1.93,5.77,3.11,11.74,4.09,17.75.19,1.17.41,2.33.61,3.46,1.08.31,1.41-.5,1.86-.96,8.06-8.18,17.34-14.56,27.73-19.45,8.64-4.07,17.78-6.17,27.15-7.55,5.08-.75,10.18-.99,15.3-.49,1.51.15,3.03.33,4.49.69,3.56.89,4.84,2.64,4.86,6.34-1.06,2.71-3.18,3.85-5.97,3.98-1.35.06-2.71.07-4.07.09-9.73.1-19.19,1.6-28.42,4.79-14.15,4.89-26.49,12.51-36.51,23.73-2.4,2.68-4.38,5.64-5.98,8.86-.21.23-.43.45-.63.69-2.62,3.11-5.53,3.44-8.7.97-.31-.24-.63-.47-.95-.7-.17-.42-.5-.53-.91-.5l.06.02c.19-.7-.45-1.14-.53-1.78-.45-3.73-1.07-7.44-1.44-11.17-1.76-17.55-6.82-33.98-16.35-48.92-.77-1.21-1.48-2.47-2.25-3.69-4.91-7.77-10.84-14.65-18.05-20.37-4.21-3.34-8.93-5.61-14.28-6.4-10.12-1.5-19.82.04-28.88,4.7-16.02,8.23-27.36,21.01-35.27,37.02-.76.97-.99,2.17-1.4,3.27-.48,1.3-.33,1.52,1,1.78,1.33.26,2.68.43,4.02.67,9.38,1.65,18.11,5.14,26.52,9.49,18.56,9.6,36.24,20.58,52.75,33.44,11.6,9.03,22.29,18.92,30.57,31.19.35.52.7,1.08,1.37,1.3.91-.34,1.19-1.24,1.66-1.96,3.38-5.16,7.09-10.05,11.48-14.41,5.67-5.64,11.58-11.01,18.07-15.7.38-.28.82-.52.96-1.02,1.12-.46,2.05-1.23,3.03-1.91,9.42-6.49,19.27-12.21,29.79-16.71,13.04-5.58,26.6-8.32,40.84-6.75,1.74.19,3.48.34,5.22.51Z"/>
  <path class="cls-1" d="m361.26,709.36c-1.74-.17-3.48-.32-5.22-.51-14.25-1.58-27.8,1.17-40.84,6.75-10.52,4.5-20.37,10.23-29.79,16.71-.98.68-1.91,1.45-3.03,1.91-.66-.39-1.4-.35-2.1-.27-3.08.36-6.14.82-9.22,1.15-2.53.27-4.93,1.34-7.52,1.22,1.59-3.22,3.58-6.18,5.98-8.86,10.02-11.22,22.36-18.84,36.51-23.73,9.22-3.19,18.69-4.69,28.42-4.79,1.36-.01,2.71-.03,4.07-.09,2.78-.12,4.9-1.26,5.97-3.98,3.96,2.68,8.26,4.87,11.97,7.91,2.15,1.76,4.34,3.56,4.81,6.59Z"/>
  <path class="cls-4" d="m535.05,701.28c.09,3.48,1.97,5.8,4.65,7.84,6.47,4.94,11.43,11.26,15.81,18.05.51.79,1.21,1.48,1.49,2.42-2.5.63-4.61,2.07-6.82,3.29-4.32,2.38-8.59,4.85-12.88,7.29-2.02-2.65-3.95-5.38-6.09-7.94-6.05-7.22-13.18-13.18-21.31-17.93-1.22-.71-2.57-1.22-3.86-1.83.53-1.07,1.57-1.58,2.51-2.14,7.39-4.47,15.4-7.33,23.87-8.89.86-.16,1.75-.11,2.62-.16Z"/>
  <path class="cls-5" d="m537.3,740.17c4.29-2.43,8.56-4.91,12.88-7.29,2.21-1.22,4.32-2.66,6.82-3.29,4.29,6.05,6.55,12.92,8.11,20.08,1.51,6.93,2.1,13.9,1.02,20.95-.19,1.26-.31,2.55-.23,3.82.33,5.44,4.92,8.41,10.01,6.46,1.56-.6,3.04-1.41,4.52-2.2,7.42-3.92,14.92-7.7,22.85-10.48,9.68-3.4,19.55-6.06,29.86-6.49,9.36-.39,18.52.89,27.27,4.31,6.48,2.54,12.19,6.28,16.74,11.66,3.34,3.95,4.99,8.5,5.07,13.64.16,9.6-1.44,18.94-4.11,28.12-.66,2.28-1.38,4.54-2.62,6.59-2.77-.3-5.53-.67-8.3-.87-5.16-.38-10.33-.88-15.5-.93-7.65-.07-15.31-.24-22.97.24-6.67.42-13.36.71-20.05,1.02-6.36.3-12.74.36-19.08-.79-3.51-.63-7.11-.79-10.67-1.21-4.66-.56-9.3-1.21-13.96-1.74-3.71-.42-7.44-.71-11.17-1.08-4.35-.43-8.7-.91-13.05-1.31-4.12-.37-8.25-.68-12.37-.98-.66-.05-1.05-.29-1.11-.97,3.05-3.28,5.93-6.7,8.51-10.37,12.73-18.1,14.6-37.37,6.17-57.74-1.01-2.44-2.27-4.76-3.58-7.05-.39-.68-.96-1.29-1.04-2.13Z"/>
  <path class="cls-2" d="m527.25,817.46c.07.67.45.92,1.11.97,4.13.31,8.25.61,12.37.98,4.36.4,8.7.88,13.05,1.31,3.72.37,7.45.66,11.17,1.08,4.66.53,9.3,1.18,13.96,1.74,3.55.42,7.15.58,10.67,1.21,6.34,1.14,12.72,1.09,19.08.79,6.68-.32,13.37-.6,20.05-1.02,7.67-.48,15.32-.32,22.97-.24,5.17.05,10.33.55,15.5.93,2.77.2,5.53.58,8.3.87-.29,2.28-1.64,4.12-2.58,6.12-.4.86-1.18.95-2.03.91-10.37-.54-20.75-1.07-31.12-1.58-4.63-.23-9.26-.4-13.89-.56-12.54-.42-25.08-.78-37.62-1.23-14.13-.51-28.25-1.43-42.4-1.68-9.27-.16-18.54-.21-27.81.28-.78.04-1.58.17-2.32-.08-.21-.27-.1-.5.08-.65,3.96-3.23,7.77-6.62,11.47-10.14Z"/>
  <path class="cls-5" d="m135.37,686.17c7.91-16.01,19.25-28.8,35.27-37.02,9.07-4.66,18.77-6.2,28.88-4.7,5.35.79,10.07,3.06,14.28,6.4,7.21,5.73,13.14,12.6,18.05,20.37.77,1.22,1.48,2.47,2.25,3.69,9.53,14.94,14.59,31.37,16.35,48.92.37,3.74.99,7.45,1.44,11.17.08.65.72,1.09.53,1.78-.53.08-.91-.18-1.29-.5-4.59-3.85-9.46-7.32-14.42-10.67-11.08-7.47-22.78-13.82-34.8-19.63-12.24-5.92-24.78-11.07-37.8-14.99-8.94-2.69-18.01-4.78-27.46-4.24-.53.03-.89-.27-1.26-.58Z"/>
  <path class="cls-4" d="m135.37,686.17c.37.31.73.62,1.26.58,9.45-.54,18.53,1.55,27.46,4.24,13.02,3.92,25.56,9.07,37.8,14.99,12.02,5.81,23.73,12.17,34.8,19.63,4.96,3.34,9.83,6.82,14.42,10.67.38.32.76.58,1.29.5,0,0-.06-.02-.06-.02.14.46.56.41.91.5.32.23.64.46.95.7,3.17,2.47,6.08,2.15,8.7-.97.2-.24.42-.46.63-.69,2.59.12,4.99-.95,7.52-1.22,3.08-.33,6.15-.79,9.22-1.15.7-.08,1.44-.12,2.1.27-.14.51-.57.75-.96,1.03-6.5,4.69-12.4,10.06-18.07,15.7-4.38,4.36-8.1,9.25-11.48,14.41-.47.71-.75,1.62-1.66,1.96-.68-.22-1.02-.78-1.37-1.3-8.29-12.27-18.97-22.15-30.57-31.19-16.51-12.86-34.19-23.84-52.75-33.44-8.41-4.35-17.14-7.83-26.52-9.49-1.34-.24-2.68-.41-4.02-.67-1.33-.26-1.48-.48-1-1.78.41-1.11.64-2.31,1.4-3.27Z"/>
  <path class="cls-5" d="m253.26,737.26c-.35-.09-.77-.05-.91-.5.41-.03.74.08.91.5Z"/>
</svg>