<?xml version="1.0" encoding="UTF-8"?>
<svg id="_图层_1" data-name="图层 1" xmlns="http://www.w3.org/2000/svg" viewBox="0 0 960 960">
  <defs>
    <style>
      .cls-1 {
        fill: #fd71d7;
      }

      .cls-1, .cls-2, .cls-3, .cls-4, .cls-5, .cls-6, .cls-7, .cls-8 {
        stroke-width: 0px;
      }

      .cls-2 {
        fill: #b83995;
      }

      .cls-3 {
        fill: #040304;
      }

      .cls-4 {
        fill: #b93996;
      }

      .cls-5 {
        fill: #080306;
      }

      .cls-6 {
        fill: #b83996;
      }

      .cls-7 {
        fill: #fd71d6;
      }

      .cls-8 {
        fill: #9f4786;
      }
    </style>
  </defs>
  <path class="cls-3" d="m422.33,722.95c5.33.52,10.67.62,15.95.49.55.73-.01,1.14-.24,1.59-1.17,2.3-2.7,4.33-4.54,6.14-6.8,6.66-13.53,13.38-20.37,19.99-8.93,8.63-16.93,18.11-24.97,27.53-9.25,10.84-19.1,21.1-29.4,30.94-3.99,3.81-7.96,7.64-11.99,11.41-2.63,2.46-5.36,4.82-8.37,6.79-6.37,4.17-12.1,4-18.19-.58-3.98-2.99-7.39-6.6-10.83-10.17-12.6-13.07-25.51-25.81-39-37.97-7.19-6.48-14.22-13.12-21.49-19.5-12.58-11.03-25.75-21.29-39.34-31.03-3.37-2.42-6.78-4.78-9.55-7.97-1.67-1.93-2-3.92-1.23-6.21.64-1.9,1.59-3.66,2.57-5.41,5.18-9.25,11.95-17.18,19.95-24.07,10.13-8.73,21.14-16.05,33.91-20.36,9.36-3.16,18.95-4.56,28.81-3.25,9.34,1.25,17.68,4.83,24.88,10.96,11.32,9.64,20.09,21.18,25.98,34.88,5.95,13.82,9.68,28.26,12.07,43.08.18,1.15-.17,2.93.87,3.27,1.24.4,1.99-1.29,2.84-2.16,10.31-10.61,20.41-21.42,29.62-33.02.9-1.13,1.78-1.42,3.07-1.1,3.65.91,7.4,1.27,11.08,1.97-1.14,2.5-3.04,4.45-4.71,6.56-3.4,4.3-6.9,8.53-10.36,12.79-1.09.84-1.86,1.98-2.73,3.01-7.38,8.73-14.93,17.31-22.94,25.47-1.63,1.66-3.29,3.27-5.15,4.66-6.11,4.57-12.19,1.98-13.13-5.58-.49-3.89-.91-7.78-1.49-11.65-2.25-15.25-5.99-30.09-12.41-44.16-5.03-11.03-12.4-20.27-21.66-28.02-4.84-4.05-10.43-6.46-16.64-7.46-7.83-1.27-15.45-.1-22.92,2.27-10.61,3.37-19.71,9.4-28.23,16.37-8.28,6.77-15.09,14.94-21.8,23.19-.13.16-.11.44-.17.68,2.73,1.57,5.44,3.09,8.12,4.67,2.11,1.25,4.18,2.56,6.27,3.85,2.31,1.56,4.66,3.06,6.93,4.68,16.01,11.43,31.39,23.63,46.07,36.75,12.17,10.88,23.55,22.55,35.35,33.8.92.88,1.76,1.86,2.64,2.79,3.84,4.07,7.63,8.19,11.91,11.82,2.14,1.81,2.45,1.79,4.74.07,4.48-3.36,8.44-7.3,12.39-11.24,10.78-10.01,21.2-20.37,30.78-31.55,6.08-7.1,12.29-14.09,18.45-21.13,1.73-1.97,3.47-3.93,5.21-5.89.27-.15.58-.26.79-.47,7.17-7,14.33-14.02,21.48-21.03.45-.44,1-.81,1.13-1.49Z"/>
  <path class="cls-3" d="m576.99,686.28c.36-.78,1.1-1.15,1.75-1.58,2.07-1.37,3.96-2.96,5.92-4.65.92.71,1.81,1.37,2.67,2.08,10.65,8.7,21.58,17.07,31.62,26.49,4.49,4.21,8.89,8.52,13.28,12.84,4.05,3.99,7.76,8.3,10.96,13.01,7.68,11.31,9.96,23.55,6.21,36.79-4.5,15.93-11.51,30.65-21.26,44.05-4.88,6.69-10.62,12.56-16.87,17.98-4.14,3.58-8.84,5.55-14.27,6.19-9.48,1.12-18.98,1.39-28.49.82-14.76-.87-29.53-1.78-44.28-2.77-7.42-.5-14.83-1.08-22.11-2.73-2.03-.46-4.01-1.09-5.88-2.01-5.64-2.79-8.65-7.83-7.32-13.96,3.09-14.26,7.67-27.93,17.98-38.91,5.74-6.12,12.23-11.29,19.65-15.19,11.84-6.23,24.35-7.27,37.28-4.27,7.56,1.76,14.99,3.94,22.06,7.2.28.13.58.23,1.04.41,1.1-2.45,2.87-4.39,4.23-6.63,1.61-2.66,1.6-5.25.26-7.97-1.76-3.59-4.4-6.46-7.32-9.1-7.03-6.34-14.63-11.9-22.78-16.72-5.71-3.37-11.57-6.49-17.45-9.56-2.2-1.15-4.46-2.16-6.82-2.92-.53-.17-1.05-.38-1.57-.59-2.97-1.24-3.49-2.21-2.86-5.35,1.86-1.45,4-1.8,6.3-1.68,3.41.18,6.6,1.17,9.67,2.53,8.33,3.68,16.43,7.81,24.17,12.62,4.95,3.08,9.63,6.54,14.4,9.87,1.05.84,2.09,1.7,3.15,2.53,4.16,3.27,7.91,6.94,10.93,11.3,3.01,4.34,4.47,9.1,3.76,14.41-.31.31-.42.66-.23,1.07-.08.28-.15.57-.23.85-.43.39-.49.9-.43,1.44-.93,1.76-1.78,3.56-3.07,5.1-1.31,1.57-2.97,2.77-4.65,4.18.96.72,1.65,1.25,2.34,1.77,3.62,2.69,6.67,5.9,8.94,9.83.6,1.03.86,2.23,1.67,3.13.23,1.09.49,2.17.69,3.27.25,1.34.35,2.69-.1,4.03-.36,1.07-1.03,1.8-2.17,1.99-1.14.19-2.06-.26-2.71-1.16-.42-.58-.75-1.23-1.03-1.89-1.3-3.07-3.27-5.66-5.66-7.96-2.61-2.52-5.6-4.5-8.75-6.26-9.76-5.43-20.33-8.44-31.27-10.23-9.5-1.56-18.47.2-26.8,4.96-17.6,10.06-27.44,25.58-31.54,45.11-.28,1.32.2,2.14,1.37,2.7,1.45.7,2.99,1.12,4.56,1.44,4.86,1.01,9.79,1.56,14.74,1.84,16.91.97,33.83,1.93,50.75,2.73,8.15.38,16.29.03,24.39-1.18,2.78-.42,5.18-1.4,7.3-3.27,3.67-3.23,7.17-6.63,10.23-10.43,11.02-13.68,18.89-29.03,23.87-45.85,2.95-9.97,1.35-19.32-4.39-27.93-5.48-8.22-12.49-15.1-19.66-21.82-.16-.87-.92-1.27-1.46-1.81-5.17-5.24-10.81-9.96-16.43-14.69-6.1-5.15-12.19-10.32-18.28-15.48Z"/>
  <path class="cls-4" d="m587.16,732.56c-4.77-3.33-9.46-6.79-14.4-9.87-7.74-4.82-15.84-8.94-24.17-12.62-3.07-1.36-6.27-2.35-9.67-2.53-2.3-.12-4.44.23-6.3,1.68-1.25-2.13-1.23-2.27.93-2.98,2.87-.95,5.75-1.88,8.65-2.74,4.53-1.35,8.76-3.41,13-5.42,5.61-2.66,11.23-5.33,16.59-8.49,1.77-1.04,3.48-2.2,5.22-3.31,6.09,5.16,12.17,10.33,18.28,15.48,5.62,4.74,11.26,9.46,16.43,14.69.54.55,1.31.94,1.46,1.81-.74,1.99-2.66,2.47-4.3,3.06-5.79,2.07-11.2,4.89-16.49,7.94-1.77,1.02-3.76,1.74-5.21,3.29Z"/>
  <path class="cls-6" d="m379.33,738.56c3.46-4.26,6.96-8.49,10.36-12.79,1.67-2.11,3.57-4.07,4.71-6.56,8.76.61,17.42,2.11,26.11,3.22.63.08,1.29.07,1.81.52-.13.68-.68,1.06-1.13,1.49-7.15,7.02-14.31,14.03-21.48,21.03-.21.21-.53.32-.79.47-.59.06-1.07-.24-1.58-.45-5.95-2.46-11.82-5.1-18.01-6.93Z"/>
  <path class="cls-7" d="m379.33,738.56c6.19,1.83,12.07,4.47,18.01,6.93.51.21,1,.51,1.58.45-1.74,1.96-3.48,3.92-5.21,5.89-6.16,7.04-12.37,14.03-18.45,21.13-9.58,11.19-20,21.54-30.78,31.55-.82-.09-.88-.72-1.06-1.35-.69-2.37-1.62-4.65-2.81-6.82-4.89-8.86-10.93-16.92-17.06-24.93-.25-.32-.55-.57-.98-.6-.81-2.9-2.88-4.95-4.85-7.02-10.13-10.65-20.6-20.94-31.85-30.43-9.22-7.77-19.21-14.25-30.38-18.87-5.78-2.39-11.68-4.28-17.94-4.89-2.8-.27-5.59-.33-8.25.77-3.8,1.57-5.57,4.78-4.91,8.82.23,1.43.68,2.79,1.25,4.11-.59.12-.66.58-.67,1.06,0,.55,0,1.1-.52,1.46-2.09-1.28-4.16-2.6-6.27-3.85-2.68-1.58-5.39-3.11-8.12-4.67.06-.24.04-.52.17-.68,6.71-8.26,13.52-16.43,21.8-23.19,8.52-6.97,17.62-13.01,28.23-16.37,7.47-2.37,15.08-3.53,22.92-2.27,6.2,1,11.8,3.41,16.64,7.46,9.27,7.75,16.63,17,21.66,28.02,6.42,14.07,10.16,28.91,12.41,44.16.57,3.87,1,7.77,1.49,11.65.95,7.56,7.03,10.15,13.13,5.58,1.86-1.39,3.53-3,5.15-4.66,8.01-8.16,15.56-16.74,22.94-25.47.87-1.03,1.64-2.17,2.73-3.01Z"/>
  <path class="cls-4" d="m322.58,770.83c.43.03.74.27.98.6,6.13,8.01,12.17,16.07,17.06,24.93,1.19,2.16,2.12,4.45,2.81,6.82.18.63.24,1.26,1.06,1.35-3.96,3.94-7.91,7.88-12.39,11.24-2.29,1.72-2.61,1.75-4.74-.07-4.27-3.63-8.07-7.75-11.91-11.82-.88-.93-1.71-1.9-2.64-2.79-11.8-11.25-23.18-22.92-35.35-33.8-14.68-13.13-30.06-25.33-46.07-36.75-2.27-1.62-4.62-3.12-6.93-4.68.53-.36.52-.91.52-1.46,0-.48.07-.94.67-1.06.95.52,1.84,1.47,3.02.62,1.08-.77.95-1.9.78-3.05-.12-.78-.17-1.59-.15-2.39.03-1.77.54-2.41,2.2-2.97,1.48-.5,3-.4,4.51-.26,3.98.39,7.87,1.26,11.68,2.5,10.81,3.53,20.64,8.89,29.64,15.79,12.68,9.72,24.75,20.16,36.29,31.21,2.13,2.04,4.37,3.96,6.12,6.38,1.02,1.42,1.59,1.29,2.85-.35Z"/>
  <path class="cls-1" d="m587.16,732.56c1.45-1.55,3.43-2.27,5.21-3.29,5.3-3.05,10.71-5.87,16.49-7.94,1.65-.59,3.57-1.06,4.3-3.06,7.17,6.71,14.18,13.59,19.66,21.82,5.74,8.61,7.34,17.96,4.39,27.93-4.98,16.83-12.85,32.17-23.87,45.85-3.06,3.8-6.56,7.2-10.23,10.43-2.12,1.87-4.52,2.85-7.3,3.27-8.1,1.21-16.24,1.56-24.39,1.18-16.92-.79-33.84-1.76-50.75-2.73-4.95-.28-9.87-.83-14.74-1.84-1.57-.33-3.1-.74-4.56-1.44-1.17-.56-1.65-1.38-1.37-2.7,4.1-19.53,13.94-35.05,31.54-45.11,8.34-4.77,17.3-6.52,26.8-4.96,10.94,1.8,21.51,4.8,31.27,10.23,3.15,1.75,6.14,3.74,8.75,6.26,2.39,2.3,4.35,4.88,5.66,7.96.28.66.61,1.31,1.03,1.89.65.9,1.57,1.35,2.71,1.16,1.14-.19,1.81-.92,2.17-1.99.45-1.33.35-2.68.1-4.03-.2-1.1-.46-2.18-.69-3.27,2.14-1.28,2.79-3.41,2.77-5.65-.05-7.05-2.86-13.06-7.3-18.39.04-.49.13-1-.27-1.4.08-.28.15-.57.23-.85.48-.27.7-.59.23-1.07.7-5.32-.75-10.07-3.76-14.41-3.03-4.36-6.77-8.03-10.93-11.3-1.06-.83-2.1-1.69-3.15-2.53Z"/>
  <path class="cls-2" d="m604.82,764.12c4.44,5.34,7.25,11.35,7.3,18.39.02,2.23-.63,4.37-2.77,5.65-.81-.9-1.07-2.1-1.67-3.13-2.28-3.93-5.32-7.13-8.94-9.83-.7-.52-1.39-1.05-2.34-1.77,1.68-1.41,3.34-2.61,4.65-4.18,1.29-1.54,2.14-3.34,3.07-5.1.23-.01.47-.03.7-.04Z"/>
  <path class="cls-8" d="m604.82,764.12c-.23.01-.47.03-.7.04-.07-.54,0-1.05.43-1.44.4.41.31.91.27,1.4Z"/>
  <path class="cls-8" d="m605,760.8c.48.47.26.8-.23,1.07-.19-.41-.08-.76.23-1.07Z"/>
  <path class="cls-5" d="m322.58,770.83c-1.26,1.64-1.83,1.76-2.85.35-1.75-2.42-4-4.34-6.12-6.38-11.54-11.05-23.61-21.48-36.29-31.21-9.01-6.91-18.84-12.27-29.64-15.79-3.81-1.24-7.69-2.11-11.68-2.5-1.5-.15-3.03-.24-4.51.26-1.66.56-2.17,1.2-2.2,2.97-.01.79.03,1.6.15,2.39.18,1.15.31,2.27-.78,3.05-1.19.85-2.08-.11-3.02-.62-.57-1.32-1.01-2.69-1.25-4.11-.66-4.04,1.11-7.26,4.91-8.82,2.67-1.1,5.45-1.04,8.25-.77,6.26.61,12.16,2.5,17.94,4.89,11.17,4.62,21.16,11.09,30.38,18.87,11.25,9.48,21.72,19.78,31.85,30.43,1.97,2.07,4.04,4.12,4.85,7.02Z"/>
</svg>