<?xml version="1.0" encoding="UTF-8"?>
<svg id="_图层_1" data-name="图层 1" xmlns="http://www.w3.org/2000/svg" viewBox="0 0 960 960">
  <defs>
    <style>
      .cls-1 {
        fill: #b93a96;
      }

      .cls-1, .cls-2, .cls-3, .cls-4, .cls-5, .cls-6, .cls-7, .cls-8, .cls-9 {
        stroke-width: 0px;
      }

      .cls-2 {
        fill: #fd71d7;
      }

      .cls-3 {
        fill: #fd72d6;
      }

      .cls-4 {
        fill: #040203;
      }

      .cls-5 {
        fill: #b93995;
      }

      .cls-6 {
        fill: #b93996;
      }

      .cls-7 {
        fill: #f26ccd;
      }

      .cls-8 {
        fill: #fd71d6;
      }

      .cls-9 {
        fill: #b73996;
      }
    </style>
  </defs>
  <path class="cls-4" d="m399.65,700.1c2.86-.96,4.11-.47,5.39,2.19.8,1.65,1.51,3.35,2.58,4.86.54.76.98,1.65,1.92,2.03.73-.21.87-.92,1.28-1.38,6.65-7.42,14.48-13.05,24.36-15.19,5.31-1.15,10.65-.37,15.91.82,2.72.61,5.46,1.13,8.18,1.76.85.19,1.37-.22,1.93-.67,1.61-1.31,3.24-2.61,4.82-3.95,1.84-1.57,3.9-2.75,6.15-3.63,4.86-1.91,9.89-3.21,15.07-3.72,2.63-.26,4.28-1.54,5.49-3.65.59-1.03,1.13-2.12,1.52-3.25,1.32-3.7,3.28-7.1,4.87-10.67.06-.15.15-.28.23-.42,1.34-2.42,2.61-2.93,5.31-2.16,1.14,1.12,1.47,2.52,1.66,4.08.6,4.99.33,9.85-1.73,14.51-.06.13,0,.3,0,.71,4.06.43,8.11,1.16,12.07,2.29.12.25.3.35.58.22.3.07.6.13.9.2,2.1.92,4.24,1.78,6.29,2.8,1.05.52,1.93.42,2.93-.04,2.75-1.27,5.01-3.1,6.53-5.73,2.77-4.82,5.65-9.61,7.58-14.85.74-2,1.84-3.07,4-2.92,1.81.59,2.55,2.03,2.38,3.73-.75,7.34-1.77,14.62-6.04,20.95-1.49,2.21-3.44,3.94-5.6,5.44.43.97,1.29,1.3,1.97,1.84,10.67,8.48,19.83,18.29,26.83,30.06,5.05,8.49,7.94,17.76,10.27,27.26,1.39,5.67,2.55,11.38,3.69,17.11.16.78.26,1.58.36,2.37.6,4.7-1.02,8.47-4.74,11.36-2.24,1.74-4.78,2.94-7.46,3.76-15.98,4.94-32.1,9.3-48.81,10.91-12.68,1.23-24.87-.72-36.46-6.06-6.77-3.12-13.2-6.82-19.01-11.54-5.15-4.18-9.37-9.13-12.53-14.99-2.64-4.9-4.07-10.05-3.52-15.66.03-.31,0-.62,0-1.33-2.5.86-4.8,1.64-7.09,2.44-.64.23-.7.78-.64,1.38.72,6.74-1.58,12.75-4.45,18.63-2.6,5.33-5.63,10.4-9.29,15.07-4.52,5.76-10.05,10.23-16.65,13.42-9.6,4.62-19.63,7.33-30.36,6.47-12.93-1.03-24.8-5.24-35.54-12.53-2.32-1.58-4.39-3.48-6.01-5.8-3.29-4.7-3.9-9.69-1.58-14.98,1.65-3.75,3.77-7.23,6.25-10.48,5.34-7.01,11.02-13.71,17.92-19.26.12-.09.18-.26.28-.41-.21-.73-.88-1.07-1.39-1.53-11.47-10.46-17.69-23.67-20.27-38.76-.45-2.61-.47-5.27.35-7.84.7-2.2,1.92-3.87,4.49-4,1.95.98,2.76,2.72,3.19,4.74,1.02,4.76,2.94,9.19,5.1,13.53.06.28.16.52.48.58,0,.12.06.2.16.26-.17.88.43,1.51.75,2.21,5.29,11.41,13.76,19.87,24.4,26.32,8.35,5.07,17.33,7.66,27.16,7.07,5.2-.31,10.31-1.19,15.39-2.27,8.39-1.78,16.39-4.81,24.49-7.53,1.36-.46,2.81-1.28,4.13-1.12,4.2.5,6.67-1.81,8.87-4.79.14-.19.25-.4.37-.6.37-.3.77-.57,1.11-.9,6.95-6.6,14.87-11.77,23.44-16.03,5.57-2.77,11.54-4.15,17.56-5.43.23-.05.47-.09.71-.11,1.96-.14,3.56.72,4.11,2.22.54,1.46.05,3.03-1.41,4.24-1.23,1.03-2.66,1.77-4.07,2.5-4.4,2.27-8.83,4.47-13.21,6.78-8.62,4.53-16.5,10-22.56,17.83-2.36,3.05-3.94,6.37-4.65,10.11-.48,2.55-.33,5.1.66,7.54,1.74,4.28,4.31,7.98,7.84,10.99.25.3.48.63.77.89,5.74,5.1,12.29,8.85,19.38,11.69,11.48,4.6,23.39,4.62,35.38,3.04,9.42-1.24,18.69-3.3,27.9-5.62,4.64-1.17,9.3-2.32,13.76-4.07,1.84-.72,1.94-.88,1.61-2.63-1.8-9.41-3.85-18.76-6.86-27.87-.59-1.78-1.04-3.67-2.33-5.16-.42-1.6-1.13-3.08-1.94-4.52-6.95-12.43-16.43-22.57-28.05-30.7-5.47-3.82-11.41-6.81-18.07-7.98-10.04-1.78-19.89-.61-29.59,2.28-1.94.58-3.62,1.6-5.19,2.89-9.02,7.37-18.91,13.37-29.34,18.48-5.64,2.77-11.59,4.59-17.91,4.9-6.49.32-12.78-.66-18.6-3.65-6.46-3.32-9.68-8.81-10.15-15.98-.14-2.09.47-3.93,2.04-5.39Zm21.94,68.96c2.52-4.15,4.09-8.75,6.38-12.96-.71-.49-1.15-.15-1.59-.05-4.66,1.12-9.37,2-14.11,2.72-11.22,1.69-22.15.79-32.72-3.5-4.09-1.66-8-3.65-11.67-6.09-.98-.65-1.63-.7-2.39.32-1.19,1.59-2.53,3.09-3.8,4.62-5.15,5.99-9.91,12.28-14.13,18.96-.81,1.28-1.41,2.68-2.08,4.04-.85,1.73-.43,3.24.82,4.61,1.37,1.49,3.02,2.61,4.75,3.6,6.27,3.61,12.98,6.05,19.98,7.84,12.38,3.15,23.88.8,34.83-5.29,2.46-1.37,4.64-3.12,6.56-5.17,3.81-4.04,6.77-8.65,9.17-13.65Zm.11-56.39c5.91,1.04,22.27-5.06,26.66-10.1-1.8-.15-3.45-.33-5.1-.43-4.35-.26-8.39.63-12.06,3.09-3.12,2.09-6.13,4.32-9.04,6.69-.23.19-.54.36-.47.75Z"/>
  <path class="cls-2" d="m351.72,710.47c-.1-.06-.15-.14-.16-.26.04-.36-.12-.55-.48-.58-2.15-4.34-4.08-8.77-5.1-13.53-.43-2.02-1.24-3.76-3.19-4.74.94-1.93,2.81-2.83,4.51-3.79,6.64-3.74,13.73-5.93,21.43-5.84,5.9.07,11.28,1.9,16.3,4.87,5.01,2.96,9.21,6.81,12.6,11.56.53.74.94,1.72,2.01,1.95-1.57,1.46-2.18,3.3-2.04,5.39.47,7.17,3.69,12.66,10.15,15.98,5.83,2.99,12.11,3.97,18.6,3.65,6.33-.31,12.27-2.13,17.91-4.9,10.43-5.11,20.32-11.12,29.34-18.48,1.58-1.29,3.25-2.31,5.19-2.89,9.7-2.9,19.55-4.06,29.59-2.28,6.65,1.18,12.6,4.16,18.07,7.98,11.62,8.13,21.11,18.27,28.05,30.7.8,1.43,1.51,2.92,1.94,4.52-.71-.17-1.21.21-1.71.65-3.04,2.71-6.06,5.43-9.13,8.1-3.73,3.25-7.61,6.33-11.75,9.03-5.36,3.49-11,6.48-16.89,9-7.47,3.2-15.24,5.19-23.34,5.8-4.96.38-9.86-.41-14.76-1.11-4.02-.57-8.03-1.15-12.05-1.73-3.53-3.01-6.1-6.71-7.84-10.99-.99-2.44-1.14-4.99-.66-7.54.71-3.74,2.28-7.06,4.65-10.11,6.06-7.83,13.93-13.29,22.56-17.83,4.38-2.3,8.81-4.51,13.21-6.78,1.42-.73,2.84-1.47,4.07-2.5,1.45-1.21,1.95-2.79,1.41-4.24-.56-1.5-2.16-2.36-4.11-2.22-.24.02-.48.06-.71.11-6.02,1.28-11.99,2.66-17.56,5.43-8.56,4.26-16.49,9.43-23.44,16.03-.34.33-.74.6-1.11.9-.92-.16-1.72.3-2.55.54-8.82,2.58-17.82,4.2-26.98,4.61-7.96.36-15.9-.15-23.82-1.27-9.96-1.42-19.36-4.51-28.41-8.79-7.74-3.66-14.97-8.16-21.73-13.41-.63-.49-1.18-1.1-2.09-.97Z"/>
  <path class="cls-3" d="m516.65,684.66c-3.96-1.13-8-1.86-12.07-2.29,0-.42-.05-.59,0-.71,2.06-4.66,2.32-9.52,1.73-14.51-.19-1.56-.52-2.95-1.66-4.08,4.86-2.36,9.73-4.74,15.02-6.02,4.06-.98,8.16-1.19,12.27-.24.93.21,1.85.46,2.56,1.17-1.49,3.34-2.95,6.69-4.47,10-2.33,5.08-5.03,9.91-9.2,13.79-1.03.96-1.81,2.2-2.71,3.31-.3-.07-.6-.13-.9-.2-.12-.26-.31-.33-.58-.22Z"/>
  <path class="cls-1" d="m518.12,685.08c.9-1.11,1.67-2.35,2.71-3.31,4.17-3.88,6.87-8.71,9.2-13.79,1.52-3.32,2.98-6.67,4.47-10,2.88.7,5.26,2.34,7.38,4.29,1.08,1,2.19,1.7,3.57,2.06-2.16-.15-3.26.92-4,2.92-1.93,5.24-4.8,10.03-7.58,14.85-1.51,2.63-3.78,4.46-6.53,5.73-.99.46-1.87.57-2.93.04-2.06-1.02-4.19-1.87-6.29-2.8Z"/>
  <path class="cls-6" d="m466.83,769.52c4.02.58,8.03,1.15,12.05,1.73,4.89.7,9.8,1.48,14.76,1.11,8.09-.61,15.86-2.6,23.34-5.8,5.89-2.52,11.53-5.51,16.89-9,4.15-2.7,8.02-5.78,11.75-9.03,3.07-2.67,6.09-5.39,9.13-8.1.49-.44.99-.81,1.71-.65,1.29,1.49,1.74,3.38,2.33,5.16,3.01,9.11,5.05,18.46,6.86,27.87.34,1.75.23,1.9-1.61,2.63-4.47,1.76-9.12,2.9-13.76,4.07-9.21,2.33-18.48,4.38-27.9,5.62-12,1.58-23.9,1.57-35.38-3.04-7.09-2.84-13.65-6.6-19.38-11.69-.29-.26-.51-.59-.77-.89Z"/>
  <path class="cls-8" d="m421.59,769.06c-2.39,4.99-5.36,9.61-9.17,13.65-1.93,2.04-4.1,3.8-6.56,5.17-10.95,6.09-22.44,8.44-34.83,5.29-7-1.78-13.72-4.23-19.98-7.84-1.73-1-3.38-2.11-4.75-3.6-1.25-1.37-1.67-2.88-.82-4.61.67-1.36,1.28-2.76,2.08-4.04,4.22-6.68,8.98-12.97,14.13-18.96,2.54,2.1,5.31,3.81,8.3,5.18,3.05,1.4,6.22,2.5,9.32,3.76,10.26,4.17,20.94,6.03,31.98,6,3.44,0,6.87,0,10.31,0Z"/>
  <path class="cls-5" d="m351.72,710.47c.91-.13,1.46.48,2.09.97,6.76,5.25,13.99,9.75,21.73,13.41,9.05,4.28,18.45,7.37,28.41,8.79,7.91,1.13,15.86,1.63,23.82,1.27,9.16-.41,18.16-2.03,26.98-4.61.83-.24,1.63-.7,2.55-.54-.12.2-.23.41-.37.6-2.2,2.98-4.67,5.29-8.87,4.79-1.31-.16-2.77.66-4.13,1.12-8.1,2.72-16.1,5.75-24.49,7.53-5.08,1.08-10.19,1.95-15.39,2.27-9.83.59-18.81-2-27.16-7.07-10.64-6.46-19.11-14.92-24.4-26.32-.33-.7-.92-1.33-.75-2.21Z"/>
  <path class="cls-9" d="m421.59,769.06c-3.44,0-6.87,0-10.31,0-11.04.03-21.71-1.83-31.98-6-3.1-1.26-6.27-2.36-9.32-3.76-2.99-1.37-5.76-3.09-8.3-5.18,1.27-1.53,2.61-3.03,3.8-4.62.76-1.02,1.41-.97,2.39-.32,3.67,2.44,7.58,4.43,11.67,6.09,10.58,4.29,21.5,5.19,32.72,3.5,4.75-.71,9.45-1.6,14.11-2.72.44-.11.88-.44,1.59.05-2.3,4.21-3.86,8.81-6.38,12.96Z"/>
  <path class="cls-7" d="m421.7,712.67c-.07-.39.24-.56.47-.75,2.91-2.37,5.92-4.6,9.04-6.69,3.67-2.46,7.71-3.35,12.06-3.09,1.65.1,3.29.27,5.1.43-4.4,5.03-20.76,11.14-26.66,10.1Z"/>
  <path class="cls-1" d="m516.65,684.66c.26-.11.46-.04.58.22-.27.13-.45.03-.58-.22Z"/>
  <path class="cls-5" d="m351.08,709.63c.36.03.52.22.48.58-.32-.06-.42-.3-.48-.58Z"/>
</svg>