<?xml version="1.0" encoding="UTF-8"?>
<svg id="_图层_1" data-name="图层 1" xmlns="http://www.w3.org/2000/svg" viewBox="0 0 960 960">
  <defs>
    <style>
      .cls-1 {
        fill: #9a4482;
      }

      .cls-1, .cls-2, .cls-3, .cls-4, .cls-5, .cls-6 {
        stroke-width: 0px;
      }

      .cls-2 {
        fill: #b93997;
      }

      .cls-3 {
        fill: #040304;
      }

      .cls-4 {
        fill: #b73995;
      }

      .cls-5 {
        fill: #fd71d6;
      }

      .cls-6 {
        fill: #fe71d7;
      }
    </style>
  </defs>
  <path class="cls-3" d="m552.54,665.28c.06-1.65.59-3,2.34-3.49,1.79-.5,3.1.34,4.17,1.66.96,1.19,1.6,2.58,2.27,3.94,2.77,5.67,5.29,11.47,8.18,17.08,8.59,16.65,21.07,29.81,36.22,40.58,7.86,5.59,16.86,7.87,26.29,8.85,3.74.39,7.51.55,11.26.36,4.56-.23,8.62,1.04,12.55,3.29,15.31,8.76,29.72,18.8,43.17,30.22,12.19,10.36,24.65,20.38,37.56,29.84,2.97,2.17,5.83,4.48,8.7,6.78,2,1.6,3.86,3.37,5.36,5.47,3.33,4.66,3.18,9.49-.51,13.86-2.34,2.77-5.1,5.1-8.07,7.13-21.11,14.39-44.19,20.05-69.49,15.38-10.99-2.03-20.85-6.56-29.03-14.38-4.93-4.71-8.64-10.25-11.28-16.52-3.65-8.66-6.39-17.57-7.29-26.99-.36-3.77-.22-7.51.41-11.24.35-2.09.35-2.12-1.73-2.34-7-.75-13.95-1.77-20.83-3.3-8.39-1.87-16.44-4.68-24.07-8.66-13.99-7.29-26.74-16.32-37.87-27.54-9.92-10-17.85-21.31-22.38-34.79-1.05-3.11-1.92-6.26-2.53-9.49-.1-.55-.18-1.11-.22-1.66-.23-3.53,1.3-4.83,4.79-4.09,2.26,2.16,3.35,5.02,4.63,7.76,2.46,5.27,4.91,10.55,8.25,15.36.24.5.42,1.05.74,1.49,2.15,2.98,4.31,5.95,6.73,8.73,11.86,13.61,26.05,24.25,41.76,32.98,7.8,4.34,16.04,7.54,24.77,9.47,8.28,1.83,16.62,3.25,25.13,3.37,4.38.06,7.4,3.27,7.41,7.75,0,1.45-.33,2.86-.68,4.25-1.03,4.08-1.32,8.19-.73,12.37,1.07,7.66,3.32,14.97,6.44,22.03,4.17,9.41,11.25,15.79,20.75,19.52,5.77,2.27,11.79,3.57,17.97,3.89,17.14.88,33.13-3.16,48.06-11.56,2.44-1.37,4.73-3,6.83-4.85,1.37-1.2,1.39-1.34-.09-2.52-2.13-1.68-4.29-3.35-6.53-4.88-14.84-10.08-28.79-21.29-42.22-33.17-7.19-6.36-14.74-12.28-22.72-17.64-4.65-3.12-9.44-6.02-14.21-8.93-3.27-2-6.7-3.16-10.66-2.95-5.2.28-10.37-.45-15.5-1.32-11.47-1.94-22.01-6.01-31.11-13.45-3.1-2.53-6.16-5.09-9.09-7.82-3.4-3.16-6.45-6.65-9.71-9.94-.28-.38-.54-.78-.85-1.14-8.35-9.39-14.66-19.88-17.99-32.11-1.53-5.61-3.54-11.1-5.33-16.64Z"/>
  <path class="cls-3" d="m347.39,696.34c.86-.41,1.7-.91,2.59-1.22,1.71-.59,3.35-.44,4.61,1,1.25,1.42,1.27,3.04.51,4.7-.64,1.41-1.7,2.51-2.73,3.62-2.23,2.41-4.33,4.92-6.19,7.63-3.04,4.42-3.02,7.27.16,11.6,2.43,3.31,5.4,6.1,8.61,8.64,3.52,2.78,7.3,5.17,11.18,7.42,1.45.84,2.92,1.68,4.25,2.69,4.71,3.54,5.49,8.69,2.09,13.48-.69.97-1.49,1.87-2.28,2.78-6.48,7.42-13.55,14.26-20.85,20.85-16.02,14.46-31.86,29.13-48.24,43.19-11.95,10.26-24.21,20.15-36.98,29.38-2.01,1.45-4.08,2.81-6.16,4.15-1.82,1.17-3.76,2.12-5.79,2.87-4.87,1.78-9.42,1.19-13.64-1.84-2.61-1.88-4.93-4.08-7.05-6.48-12.17-13.79-17.95-29.8-16.73-48.25.62-9.36,2.69-18.34,7.02-26.71,5.8-11.21,14.56-19.54,25.39-25.77,14.11-8.12,29.37-12.83,45.41-15.21,1.11-.16,2.22-.26,3.33-.45.75-.13.9-.58.41-1.17-.2-.24-.46-.44-.7-.65-9.13-7.64-11.4-23.68-4.48-34.48,1.08-1.69,2.21-3.34,3.61-4.77,7.06-7.25,15.54-11.91,25.49-13.85.78-.15,1.59-.21,2.38-.22,3.09-.04,5.65.93,7.19,3.82.13,3.24-.5,4.06-3.63,4.83-8.13,2.02-14.88,6.4-20.72,12.28-1.07,1.08-1.93,2.33-2.69,3.65-2.64,4.59-2.76,9.4-1.16,14.33.29.91.68,1.8,1.51,2.38,1.14,2.39,3.43,3.47,5.53,4.7,3.64,2.14,7.4,4.07,11.21,5.89,3.09,1.48,6.21,2.91,9.24,4.49,3.03,1.59,4.34,4.19,3.94,7.26-.17,1.32-.89,2.37-1.54,3.46-.51.1-.91.33-1.05.88-.12.05-.22.11-.31.2-.88.16-1.71.44-2.43,1-1.45.26-2.89.11-4.33-.05-.32-.31-.68-.4-1.08-.17-.44-.09-.88-.18-1.32-.27-.47-.39-.99-.49-1.56-.23-.6-.09-1.2-.19-1.8-.28-.64-.43-1.32-.51-2.04-.22-.92-.09-1.84-.18-2.76-.27-1.1-.44-2.22-.57-3.36-.17-2.07,0-4.15,0-6.22,0-1.3-.42-2.58-.28-3.84.17-1.08.1-2.16.19-3.24.29-.71-.3-1.39-.21-2.03.2-.8.11-1.6.22-2.4.34-.37-.31-.68-.2-.96.12-.6.1-1.2.2-1.8.31-.4-.23-.76-.13-1.08.17-.6.12-1.2.23-1.8.35-.4-.2-.76-.13-1.07.19l-.85.2c-.42-.2-.76-.08-1.07.23-2.2.57-4.4,1.14-6.6,1.71-.51-.19-.92-.02-1.28.34-4.16,1.17-8.23,2.6-12.19,4.32-.53-.09-.93.12-1.23.55-4.38,1.98-8.6,4.24-12.53,7.01-5.94,4.2-11.27,9.09-14.62,15.61-9.29,18.07-9.27,36.19.41,54.16,2.45,4.54,5.79,8.42,9.6,11.88,2.12,1.93,2.49,1.95,5.07.58,2.33-1.24,4.48-2.77,6.62-4.31,11.1-7.98,21.72-16.58,32.18-25.38,14.68-12.35,28.64-25.52,43-38.23,1.01-.9,1.98-1.85,2.97-2.78,2.88-2.27,5.47-4.86,8.15-7.35,5.15-4.78,10.17-9.68,14.94-14.84,1.26-1.37,1.23-1.49-.37-2.45-2.67-1.61-5.27-3.31-7.8-5.13-7.57-5.43-14.02-11.82-17.54-20.69-.82-3.12-1.24-6.28-.65-9.49.92-5.02,3.49-9.06,7.51-12.15,2.85-2.18,5.78-4.24,8.68-6.36Z"/>
  <path class="cls-2" d="m533.37,708.35c-3.34-4.8-5.79-10.08-8.25-15.36-1.28-2.74-2.36-5.61-4.63-7.76,4.98-10.36,13.19-16.92,23.96-20.55,2.84-.95,5.47-.66,8.09.61,1.79,5.54,3.8,11.03,5.33,16.64,3.33,12.23,9.65,22.73,17.99,32.11.31.35.57.76.85,1.14-1.52.1-3.01-.32-4.5-.35-5.89-.12-11.72-.74-17.55-1.51-4.49-.59-8.92-1.44-13.32-2.56-2.7-.68-5.2-2-7.97-2.41Z"/>
  <path class="cls-5" d="m303.1,720.55c-.83-.59-1.22-1.48-1.51-2.38-1.6-4.93-1.48-9.74,1.16-14.33.76-1.32,1.62-2.57,2.69-3.65,5.85-5.88,12.59-10.26,20.72-12.28,3.12-.77,3.76-1.59,3.63-4.83,7.5-.39,15.94,4.71,17.6,13.27-2.9,2.11-5.83,4.18-8.68,6.36-4.03,3.08-6.6,7.13-7.51,12.15-.58,3.2-.17,6.37.65,9.49-3.18-.02-6.35.02-9.54-.39-5.06-.65-10.08-1.37-14.99-2.78-1.36-.39-2.73-.96-4.21-.62Z"/>
  <path class="cls-5" d="m533.37,708.35c2.77.41,5.27,1.72,7.97,2.41,4.39,1.11,8.83,1.97,13.32,2.56,5.83.77,11.66,1.38,17.55,1.51,1.49.03,2.98.45,4.5.35,3.26,3.29,6.31,6.78,9.71,9.94,2.93,2.72,5.99,5.29,9.09,7.82,9.1,7.44,19.64,11.51,31.11,13.45,5.13.87,10.3,1.6,15.5,1.32,3.96-.22,7.39.95,10.66,2.95,4.78,2.91,9.57,5.81,14.21,8.93,7.98,5.36,15.53,11.28,22.72,17.64,13.43,11.89,27.38,23.09,42.22,33.17,2.25,1.53,4.4,3.19,6.53,4.88,1.48,1.17,1.46,1.31.09,2.52-2.11,1.86-4.39,3.48-6.83,4.85-14.92,8.4-30.91,12.44-48.06,11.56-6.19-.32-12.21-1.62-17.97-3.89-9.5-3.73-16.58-10.11-20.75-19.52-3.12-7.05-5.38-14.36-6.44-22.03-.58-4.18-.29-8.29.73-12.37.35-1.4.69-2.8.68-4.25-.01-4.48-3.03-7.69-7.41-7.75-8.52-.12-16.85-1.54-25.13-3.37-8.72-1.92-16.97-5.13-24.77-9.47-15.7-8.73-29.9-19.38-41.76-32.98-2.42-2.78-4.58-5.75-6.73-8.73-.32-.44-.5-.99-.74-1.49Z"/>
  <path class="cls-6" d="m317.6,747.42c.6.09,1.2.19,1.8.28.45.51.96.71,1.56.23.44.09.88.18,1.32.27.31.4.64.64,1.08.17,1.44.17,2.88.32,4.33.05,1.07.31,1.91.04,2.43-1,.09-.09.2-.15.31-.2.34-.04.69-.08,1.03-.12,1.58,2.92,2.28,6.1,2.41,9.35.24,6.1-.09,12.23.58,18.32-.99.93-1.95,1.88-2.97,2.78-14.36,12.71-28.32,25.88-43,38.23-10.46,8.8-21.07,17.4-32.18,25.38-2.14,1.54-4.29,3.07-6.62,4.31-2.58,1.37-2.95,1.35-5.07-.58-3.81-3.46-7.15-7.34-9.6-11.88-9.68-17.97-9.7-36.09-.41-54.16,3.35-6.52,8.68-11.41,14.62-15.61,3.93-2.77,8.15-5.04,12.53-7.01.58.2.99.02,1.23-.55,3.96-1.72,8.03-3.16,12.19-4.32.53.29.95.14,1.28-.34,2.2-.57,4.4-1.14,6.6-1.71.47.44.8.23,1.07-.23l.85-.2c.45.46.77.19,1.07-.19.6-.12,1.2-.23,1.8-.35.44.45.77.24,1.08-.17.6-.1,1.2-.2,1.8-.31.37.37.69.3.96-.12.8-.11,1.6-.22,2.4-.34.73.51,1.41.4,2.03-.2,1.08-.1,2.16-.19,3.24-.29,1.3.48,2.59.53,3.84-.17,2.07,0,4.15,0,6.22,0,1.09.66,2.22.62,3.36.17.92.09,1.84.18,2.76.27.62.62,1.3.72,2.04.22Z"/>
  <path class="cls-4" d="m334.46,774.78c-.67-6.09-.34-12.21-.58-18.32-.13-3.26-.83-6.44-2.41-9.35,0-.25.01-.51.02-.76.65-1.09,1.36-2.15,1.54-3.46.4-3.06-.91-5.67-3.94-7.26-3.03-1.59-6.15-3.02-9.24-4.49-3.81-1.82-7.58-3.74-11.21-5.89-2.09-1.23-4.39-2.31-5.53-4.7,1.48-.34,2.86.23,4.21.62,4.91,1.41,9.93,2.13,14.99,2.78,3.19.41,6.36.37,9.54.39,3.52,8.87,9.98,15.25,17.54,20.69,2.53,1.82,5.13,3.52,7.8,5.13,1.6.96,1.63,1.08.37,2.45-4.77,5.16-9.8,10.06-14.94,14.84-2.68,2.49-5.28,5.08-8.15,7.35Z"/>
  <path class="cls-1" d="m303.21,746.76c-1.25.7-2.54.65-3.84.17,1.26-.45,2.54-.59,3.84-.17Z"/>
  <path class="cls-1" d="m312.8,746.93c-1.15.45-2.27.49-3.36-.17,1.14-.4,2.26-.27,3.36.17Z"/>
  <path class="cls-1" d="m330.12,747.43c-.52,1.04-1.36,1.31-2.43,1,.72-.55,1.55-.84,2.43-1Z"/>
  <path class="cls-1" d="m296.13,747.22c-.63.59-1.3.7-2.03.2.64-.41,1.32-.5,2.03-.2Z"/>
  <path class="cls-1" d="m317.6,747.42c-.74.5-1.42.4-2.04-.22.72-.29,1.4-.21,2.04.22Z"/>
  <path class="cls-1" d="m320.95,747.93c-.6.47-1.1.28-1.56-.23.57-.26,1.09-.16,1.56.23Z"/>
  <path class="cls-1" d="m331.48,746.35c0,.26-.01.51-.02.76-.35.04-.69.08-1.04.11.14-.55.54-.78,1.05-.88Z"/>
  <path class="cls-1" d="m291.7,747.75c-.27.42-.59.5-.96.12.28-.32.6-.44.96-.12Z"/>
  <path class="cls-1" d="m288.93,748.18c-.3.41-.64.62-1.08.17.32-.3.67-.4,1.08-.17Z"/>
  <path class="cls-1" d="m323.36,748.37c-.44.47-.78.23-1.08-.17.41-.23.76-.14,1.08.17Z"/>
  <path class="cls-1" d="m286.06,748.7c-.3.38-.63.64-1.07.18.32-.31.67-.38,1.07-.18Z"/>
  <path class="cls-1" d="m284.13,749.08c-.27.46-.6.67-1.07.23.31-.31.65-.43,1.07-.23Z"/>
  <path class="cls-1" d="m276.46,751.02c-.33.48-.74.63-1.28.34.36-.36.77-.53,1.28-.34Z"/>
  <path class="cls-1" d="m262.99,755.69c-.24.57-.65.75-1.23.55.3-.43.7-.64,1.23-.55Z"/>
</svg>